<?xml version="1.0" encoding="UTF-8" standalone="no"?>
<!-- Created with Inkscape (http://www.inkscape.org/) -->

<svg
   xmlns:dc="http://purl.org/dc/elements/1.1/"
   xmlns:cc="http://creativecommons.org/ns#"
   xmlns:rdf="http://www.w3.org/1999/02/22-rdf-syntax-ns#"
   xmlns:svg="http://www.w3.org/2000/svg"
   xmlns="http://www.w3.org/2000/svg"
   xmlns:xlink="http://www.w3.org/1999/xlink"
   xmlns:sodipodi="http://sodipodi.sourceforge.net/DTD/sodipodi-0.dtd"
   xmlns:inkscape="http://www.inkscape.org/namespaces/inkscape"
   width="1400"
   height="600"
   viewBox="0 0 370.41667 158.75"
   version="1.1"
   id="svg8"
   inkscape:version="0.92.2 5c3e80d, 2017-08-06"
   sodipodi:docname="p2.svg">
  <sodipodi:namedview
     id="base"
     pagecolor="#ffffff"
     bordercolor="#666666"
     borderopacity="1.0"
     inkscape:pageopacity="0.0"
     inkscape:pageshadow="2"
     inkscape:zoom="0.98994949"
     inkscape:cx="896.14255"
     inkscape:cy="336.93146"
     inkscape:document-units="mm"
     inkscape:current-layer="layer1"
     showgrid="false"
     inkscape:snap-global="true"
     showguides="true"
     inkscape:guide-bbox="true"
     inkscape:snap-intersection-paths="true"
     inkscape:object-paths="true"
     inkscape:snap-smooth-nodes="true"
     inkscape:window-width="1920"
     inkscape:window-height="1036"
     inkscape:window-x="0"
     inkscape:window-y="20"
     inkscape:window-maximized="0"
     fit-margin-top="0"
     fit-margin-left="0"
     fit-margin-right="0"
     fit-margin-bottom="0"
     units="px"
     inkscape:snap-page="true" />
  <defs
     id="defs2" />
  <metadata
     id="metadata5">
    <rdf:RDF>
      <cc:Work
         rdf:about="">
        <dc:format>image/svg+xml</dc:format>
        <dc:type
           rdf:resource="http://purl.org/dc/dcmitype/StillImage" />
        <dc:title />
      </cc:Work>
    </rdf:RDF>
  </metadata>
  <g
     id="layer1"
     inkscape:groupmode="layer"
     inkscape:label="Layer 1"
     transform="translate(-100.35046,32.199589)">
    <rect
       style="fill:#f9f9f9;fill-opacity:1;stroke:none;stroke-width:0.2;stroke-linecap:round;stroke-linejoin:round;stroke-miterlimit:4;stroke-dasharray:none;stroke-dashoffset:0;stroke-opacity:1;paint-order:normal"
       id="rect1544"
       width="370.41666"
       height="158.75"
       x="100.35046"
       y="-32.199589" />
    <g
       id="g1138"
       transform="matrix(1.2255162,0,0,1.2255162,-22.630642,7.26154)"
       style="stroke-width:0.8159827"
       inkscape:tile-cx="27.595892"
       inkscape:tile-cy="15.480849"
       inkscape:tile-w="55.191784"
       inkscape:tile-h="30.961697"
       inkscape:tile-x0="1.5229e-07"
       inkscape:tile-y0="1.7512398e-08">
      <path
         style="fill:#fcb03c;fill-opacity:1;fill-rule:evenodd;stroke:none;stroke-width:0.21589538px;stroke-linecap:butt;stroke-linejoin:miter;stroke-opacity:1"
         d="m 100.35045,-31.431645 c 0.0427,-0.26192 0.13071,-0.510865 0.19115,-0.767953 h -0.19115 z"
         id="path933"
         inkscape:connector-curvature="0" />
      <path
         style="fill:#fcb03c;fill-opacity:1;fill-rule:evenodd;stroke:none;stroke-width:0.21589538px;stroke-linecap:butt;stroke-linejoin:miter;stroke-opacity:1"
         d="m 145.38599,-32.199598 h -0.19114 c 0.0604,0.257088 0.14843,0.506033 0.19114,0.767953 z"
         id="path931"
         inkscape:connector-curvature="0" />
      <path
         style="fill:#fc5b3f;fill-opacity:1;fill-rule:evenodd;stroke:none;stroke-width:0.21589538px;stroke-linecap:butt;stroke-linejoin:miter;stroke-opacity:1"
         d="m 100.35045,-26.378803 c 0.34559,-2.119506 1.30768,-4.071245 2.54767,-5.820795 h -2.35652 c -0.0604,0.257083 -0.14844,0.506033 -0.19115,0.767953 z"
         id="path926"
         inkscape:connector-curvature="0" />
      <path
         style="fill:#fc5b3f;fill-opacity:1;fill-rule:evenodd;stroke:none;stroke-width:0.21589538px;stroke-linecap:butt;stroke-linejoin:miter;stroke-opacity:1"
         d="m 145.19485,-32.199598 h -2.35652 c 1.23998,1.74955 2.20208,3.701289 2.54766,5.820795 v -5.052842 c -0.0427,-0.26192 -0.13071,-0.51087 -0.19114,-0.767953 z"
         id="path924"
         inkscape:connector-curvature="0" />
      <path
         style="fill:#1a4f63;fill-opacity:1;fill-rule:evenodd;stroke:none;stroke-width:0.21589538px;stroke-linecap:butt;stroke-linejoin:miter;stroke-opacity:1"
         d="m 100.35045,-21.325964 c 0.74519,-4.570367 4.26628,-8.350842 7.53509,-10.873634 h -4.98742 c -1.24006,1.749429 -2.20207,3.701207 -2.54767,5.820795 z"
         id="path918"
         inkscape:connector-curvature="0" />
      <path
         style="fill:#1a4f63;fill-opacity:1;fill-rule:evenodd;stroke:none;stroke-width:0.21589538px;stroke-linecap:butt;stroke-linejoin:miter;stroke-opacity:1"
         d="m 142.83833,-32.199598 h -4.98743 c 3.26882,2.522792 6.7899,6.303267 7.53509,10.873634 v -5.052839 c -0.34559,-2.119588 -1.30761,-4.071366 -2.54766,-5.820795 z"
         id="path915"
         inkscape:connector-curvature="0" />
      <path
         style="fill:#068587;fill-opacity:1;fill-rule:evenodd;stroke:none;stroke-width:0.21589538px;stroke-linecap:butt;stroke-linejoin:miter;stroke-opacity:1"
         d="m 100.35045,-16.273122 c 0.82383,-5.052651 5.0532,-9.227095 8.56809,-11.698498 1.61666,-1.136717 4.18541,-2.389225 6.71702,-4.227978 h -7.74916 c -3.26904,2.522661 -6.7907,6.302919 -7.53595,10.873634 z"
         id="path910"
         inkscape:connector-curvature="0" />
      <path
         style="fill:#068587;fill-opacity:1;fill-rule:evenodd;stroke:none;stroke-width:0.21589538px;stroke-linecap:butt;stroke-linejoin:miter;stroke-opacity:1"
         d="m 137.85005,-32.199598 h -7.74916 c 2.5316,1.838753 5.10035,3.091261 6.71701,4.227978 3.5149,2.471403 7.74427,6.645847 8.56809,11.698498 v -5.052842 c -0.74524,-4.570715 -4.26691,-8.350973 -7.53594,-10.873634 z"
         id="path908"
         inkscape:connector-curvature="0" />
      <path
         style="fill:#6fb07f;fill-opacity:1;fill-rule:evenodd;stroke:none;stroke-width:0.21589538px;stroke-linecap:butt;stroke-linejoin:miter;stroke-opacity:1"
         d="m 100.35045,-11.220279 c 0.82383,-5.052656 5.0532,-9.227096 8.56809,-11.698503 2.75526,-1.937294 8.21168,-4.057931 11.64583,-9.280816 h -4.92796 c -2.53194,1.839362 -5.101,3.091953 -6.71787,4.228826 -3.51489,2.471403 -7.74426,6.645012 -8.56809,11.69765 z"
         id="path902"
         inkscape:connector-curvature="0" />
      <path
         style="fill:#6fb07f;fill-opacity:1;fill-rule:evenodd;stroke:none;stroke-width:0.21589538px;stroke-linecap:butt;stroke-linejoin:miter;stroke-opacity:1"
         d="m 130.10004,-32.199598 h -4.92797 c 3.43414,5.222885 8.89056,7.343522 11.64583,9.280816 3.5149,2.471407 7.74427,6.645847 8.56809,11.698503 v -5.052843 c -0.82382,-5.052638 -5.05319,-9.226247 -8.56809,-11.69765 -1.61687,-1.136865 -4.18593,-2.389459 -6.71786,-4.228826 z"
         id="path900"
         inkscape:connector-curvature="0" />
      <path
         style="fill:#fcb03c;fill-opacity:1;fill-rule:evenodd;stroke:none;stroke-width:0.21589538px;stroke-linecap:butt;stroke-linejoin:miter;stroke-opacity:1"
         d="m 100.5416,-6.9353894 c 1.10538,-4.7023026 5.04425,-8.5872566 8.37694,-10.9305506 3.51488,-2.471402 11.47826,-5.161996 13.94968,-14.333658 h -2.30385 c -3.43415,5.223115 -8.89057,7.34437 -11.64583,9.281668 -3.51489,2.471403 -7.74426,6.645012 -8.56809,11.697651 v 4.2848896 z"
         id="path895"
         inkscape:connector-curvature="0" />
      <path
         style="fill:#fcb03c;fill-opacity:1;fill-rule:evenodd;stroke:none;stroke-width:0.21589538px;stroke-linecap:butt;stroke-linejoin:miter;stroke-opacity:1"
         d="m 125.17207,-32.199598 h -2.30385 c 2.47141,9.171662 10.43479,11.862256 13.94968,14.333658 3.33269,2.343294 7.27156,6.228248 8.37695,10.9305506 h 0.19114 v -4.2848896 c -0.82382,-5.052639 -5.05319,-9.226248 -8.56809,-11.697651 -2.75526,-1.937298 -8.21168,-4.058553 -11.64583,-9.281668 z"
         id="path889"
         inkscape:connector-curvature="0" />
      <path
         style="fill:#fc5b3f;fill-opacity:1;fill-rule:evenodd;stroke:none;stroke-width:0.21589538px;stroke-linecap:butt;stroke-linejoin:miter;stroke-opacity:1"
         d="m 100.5416,-6.9353894 h 2.35652 c 1.71599,-2.421171 3.97996,-4.4430186 6.02042,-5.8777076 3.51488,-2.471403 11.47826,-5.161996 13.94968,-14.333658 2.47141,9.171662 10.43479,11.862255 13.94968,14.333658 2.04046,1.434689 4.30443,3.4565366 6.02043,5.8777076 h 2.35652 c -1.10539,-4.7022066 -5.04426,-8.5864076 -8.37695,-10.9296976 -3.51487,-2.471407 -11.47827,-5.162849 -13.94968,-14.334511 -2.47142,9.171662 -10.4348,11.863104 -13.94968,14.334511 -3.33269,2.34329 -7.27156,6.227491 -8.37694,10.9296976 z"
         id="path925"
         inkscape:connector-curvature="0" />
      <path
         style="fill:#1a4f63;fill-opacity:1;fill-rule:evenodd;stroke:none;stroke-width:0.21589538px;stroke-linecap:butt;stroke-linejoin:miter;stroke-opacity:1"
         d="m 102.89812,-6.9353894 h 4.98742 c 0.34494,-0.2662126 0.6975,-0.5889682 1.033,-0.8248651 3.51488,-2.4714205 11.47826,-5.1619965 13.94968,-14.3336585 2.47141,9.171662 10.43481,11.862238 13.94968,14.3336585 0.33551,0.2358969 0.68806,0.5586525 1.033,0.8248651 h 4.98743 c -1.71598,-2.4208405 -3.98003,-4.4422056 -6.02043,-5.8768596 -3.51487,-2.471403 -11.47827,-5.162844 -13.94968,-14.334506 -2.47142,9.171662 -10.4348,11.863103 -13.94968,14.334506 -2.0404,1.434654 -4.30445,3.4560191 -6.02042,5.8768596 z"
         id="path955"
         inkscape:connector-curvature="0" />
      <path
         style="fill:#068587;fill-opacity:1;fill-rule:evenodd;stroke:none;stroke-width:0.21589538px;stroke-linecap:butt;stroke-linejoin:miter;stroke-opacity:1"
         d="m 107.8864,-6.9353894 h 7.74916 c 2.97251,-2.1589903 5.89796,-5.1524976 7.23266,-10.1056806 1.33469,4.953183 4.26016,7.9466903 7.23267,10.1056806 h 7.74916 c -0.34468,-0.2659778 -0.6969,-0.588294 -1.03215,-0.824017 -3.51489,-2.4714026 -11.47827,-5.1628446 -13.94968,-14.3345066 -2.47142,9.171662 -10.4348,11.863104 -13.94968,14.3345066 -0.33525,0.235723 -0.68747,0.5580392 -1.03214,0.824017 z"
         id="path957"
         inkscape:connector-curvature="0" />
      <path
         style="fill:#6fb07f;fill-opacity:1;fill-rule:evenodd;stroke:none;stroke-width:0.21589538px;stroke-linecap:butt;stroke-linejoin:miter;stroke-opacity:1"
         d="m 115.63641,-6.9353894 h 4.92796 c 0.94678,-1.43993 1.76974,-3.0707096 2.30385,-5.0528426 0.53411,1.982133 1.35707,3.6129126 2.30385,5.0528426 h 4.92797 c -2.97217,-2.1591774 -5.89728,-5.1530496 -7.23182,-10.1056806 -1.33454,4.952631 -4.25964,7.9465032 -7.23181,10.1056806 z"
         id="path959"
         inkscape:connector-curvature="0" />
      <path
         style="fill:#fcb03c;fill-opacity:1;fill-rule:evenodd;stroke:none;stroke-width:0.21589538px;stroke-linecap:butt;stroke-linejoin:miter;stroke-opacity:1"
         d="m 120.56437,-6.9353894 h 2.30385 2.30385 c -0.94678,-1.4399953 -1.76974,-3.0707096 -2.30385,-5.0528426 -0.53411,1.982133 -1.35707,3.6128473 -2.30385,5.0528426 z"
         id="path961"
         inkscape:connector-curvature="0" />
    </g>
    <use
       x="0"
       y="0"
       inkscape:tiled-clone-of="#g1138"
       xlink:href="#g1138"
       id="use2554" />
    <use
       x="0"
       y="0"
       inkscape:tiled-clone-of="#g1138"
       xlink:href="#g1138"
       transform="translate(0,30.744965)"
       id="use2556" />
    <use
       x="0"
       y="0"
       inkscape:tiled-clone-of="#g1138"
       xlink:href="#g1138"
       transform="translate(0,61.48993)"
       id="use2558" />
    <use
       x="0"
       y="0"
       inkscape:tiled-clone-of="#g1138"
       xlink:href="#g1138"
       transform="translate(0,92.234895)"
       id="use2560" />
    <use
       x="0"
       y="0"
       inkscape:tiled-clone-of="#g1138"
       xlink:href="#g1138"
       transform="translate(0,122.97986)"
       id="use2562" />
    <use
       x="0"
       y="0"
       inkscape:tiled-clone-of="#g1138"
       xlink:href="#g1138"
       transform="translate(0,153.72483)"
       id="use2564" />
    <use
       x="0"
       y="0"
       inkscape:tiled-clone-of="#g1138"
       xlink:href="#g1138"
       transform="translate(54.915825)"
       id="use2566" />
    <use
       x="0"
       y="0"
       inkscape:tiled-clone-of="#g1138"
       xlink:href="#g1138"
       transform="translate(54.915825,30.744965)"
       id="use2568" />
    <use
       x="0"
       y="0"
       inkscape:tiled-clone-of="#g1138"
       xlink:href="#g1138"
       transform="translate(54.915825,61.48993)"
       id="use2570" />
    <use
       x="0"
       y="0"
       inkscape:tiled-clone-of="#g1138"
       xlink:href="#g1138"
       transform="translate(54.915825,92.234895)"
       id="use2572" />
    <use
       x="0"
       y="0"
       inkscape:tiled-clone-of="#g1138"
       xlink:href="#g1138"
       transform="translate(54.915825,122.97986)"
       id="use2574" />
    <use
       x="0"
       y="0"
       inkscape:tiled-clone-of="#g1138"
       xlink:href="#g1138"
       transform="translate(54.915825,153.72483)"
       id="use2576" />
    <use
       x="0"
       y="0"
       inkscape:tiled-clone-of="#g1138"
       xlink:href="#g1138"
       transform="translate(109.83165)"
       id="use2578" />
    <use
       x="0"
       y="0"
       inkscape:tiled-clone-of="#g1138"
       xlink:href="#g1138"
       transform="translate(109.83165,30.744965)"
       id="use2580" />
    <use
       x="0"
       y="0"
       inkscape:tiled-clone-of="#g1138"
       xlink:href="#g1138"
       transform="translate(109.83165,61.48993)"
       id="use2582" />
    <use
       x="0"
       y="0"
       inkscape:tiled-clone-of="#g1138"
       xlink:href="#g1138"
       transform="translate(109.83165,92.234895)"
       id="use2584" />
    <use
       x="0"
       y="0"
       inkscape:tiled-clone-of="#g1138"
       xlink:href="#g1138"
       transform="translate(109.83165,122.97986)"
       id="use2586" />
    <use
       x="0"
       y="0"
       inkscape:tiled-clone-of="#g1138"
       xlink:href="#g1138"
       transform="translate(109.83165,153.72483)"
       id="use2588" />
    <use
       x="0"
       y="0"
       inkscape:tiled-clone-of="#g1138"
       xlink:href="#g1138"
       transform="translate(164.74748)"
       id="use2590" />
    <use
       x="0"
       y="0"
       inkscape:tiled-clone-of="#g1138"
       xlink:href="#g1138"
       transform="translate(164.74748,30.744965)"
       id="use2592" />
    <use
       x="0"
       y="0"
       inkscape:tiled-clone-of="#g1138"
       xlink:href="#g1138"
       transform="translate(164.74748,61.48993)"
       id="use2594" />
    <use
       x="0"
       y="0"
       inkscape:tiled-clone-of="#g1138"
       xlink:href="#g1138"
       transform="translate(164.74748,92.234895)"
       id="use2596" />
    <use
       x="0"
       y="0"
       inkscape:tiled-clone-of="#g1138"
       xlink:href="#g1138"
       transform="translate(164.74748,122.97986)"
       id="use2598" />
    <use
       x="0"
       y="0"
       inkscape:tiled-clone-of="#g1138"
       xlink:href="#g1138"
       transform="translate(164.74748,153.72483)"
       id="use2600" />
    <use
       x="0"
       y="0"
       inkscape:tiled-clone-of="#g1138"
       xlink:href="#g1138"
       transform="translate(219.6633)"
       id="use2602" />
    <use
       x="0"
       y="0"
       inkscape:tiled-clone-of="#g1138"
       xlink:href="#g1138"
       transform="translate(219.6633,30.744965)"
       id="use2604" />
    <use
       x="0"
       y="0"
       inkscape:tiled-clone-of="#g1138"
       xlink:href="#g1138"
       transform="translate(219.6633,61.48993)"
       id="use2606" />
    <use
       x="0"
       y="0"
       inkscape:tiled-clone-of="#g1138"
       xlink:href="#g1138"
       transform="translate(219.6633,92.234895)"
       id="use2608" />
    <use
       x="0"
       y="0"
       inkscape:tiled-clone-of="#g1138"
       xlink:href="#g1138"
       transform="translate(219.6633,122.97986)"
       id="use2610" />
    <use
       x="0"
       y="0"
       inkscape:tiled-clone-of="#g1138"
       xlink:href="#g1138"
       transform="translate(219.6633,153.72483)"
       id="use2612" />
    <use
       x="0"
       y="0"
       inkscape:tiled-clone-of="#g1138"
       xlink:href="#g1138"
       transform="translate(274.57913)"
       id="use2614" />
    <use
       x="0"
       y="0"
       inkscape:tiled-clone-of="#g1138"
       xlink:href="#g1138"
       transform="translate(274.57913,30.744965)"
       id="use2616" />
    <use
       x="0"
       y="0"
       inkscape:tiled-clone-of="#g1138"
       xlink:href="#g1138"
       transform="translate(274.57913,61.48993)"
       id="use2618" />
    <use
       x="0"
       y="0"
       inkscape:tiled-clone-of="#g1138"
       xlink:href="#g1138"
       transform="translate(274.57913,92.234895)"
       id="use2620" />
    <use
       x="0"
       y="0"
       inkscape:tiled-clone-of="#g1138"
       xlink:href="#g1138"
       transform="translate(274.57913,122.97986)"
       id="use2622" />
    <use
       x="0"
       y="0"
       inkscape:tiled-clone-of="#g1138"
       xlink:href="#g1138"
       transform="translate(274.57913,153.72483)"
       id="use2624" />
    <use
       x="0"
       y="0"
       inkscape:tiled-clone-of="#g1138"
       xlink:href="#g1138"
       transform="translate(329.49495)"
       id="use2626" />
    <use
       x="0"
       y="0"
       inkscape:tiled-clone-of="#g1138"
       xlink:href="#g1138"
       transform="translate(329.49495,30.744965)"
       id="use2628" />
    <use
       x="0"
       y="0"
       inkscape:tiled-clone-of="#g1138"
       xlink:href="#g1138"
       transform="translate(329.49495,61.48993)"
       id="use2630" />
    <use
       x="0"
       y="0"
       inkscape:tiled-clone-of="#g1138"
       xlink:href="#g1138"
       transform="translate(329.49495,92.234895)"
       id="use2632" />
    <use
       x="0"
       y="0"
       inkscape:tiled-clone-of="#g1138"
       xlink:href="#g1138"
       transform="translate(329.49495,122.97986)"
       id="use2634" />
    <use
       x="0"
       y="0"
       inkscape:tiled-clone-of="#g1138"
       xlink:href="#g1138"
       transform="translate(329.49495,153.72483)"
       id="use2636" />
  </g>
</svg>
