<?xml version="1.0" encoding="UTF-8" standalone="no"?>
<!-- Created with Inkscape (http://www.inkscape.org/) -->

<svg
   xmlns:dc="http://purl.org/dc/elements/1.1/"
   xmlns:cc="http://creativecommons.org/ns#"
   xmlns:rdf="http://www.w3.org/1999/02/22-rdf-syntax-ns#"
   xmlns:svg="http://www.w3.org/2000/svg"
   xmlns="http://www.w3.org/2000/svg"
   xmlns:xlink="http://www.w3.org/1999/xlink"
   xmlns:sodipodi="http://sodipodi.sourceforge.net/DTD/sodipodi-0.dtd"
   xmlns:inkscape="http://www.inkscape.org/namespaces/inkscape"
   width="1400"
   height="600"
   viewBox="0 0 370.41665 158.75"
   version="1.1"
   id="svg1665"
   inkscape:version="0.92.2 5c3e80d, 2017-08-06"
   sodipodi:docname="p3.svg">
  <defs
     id="defs1659" />
  <sodipodi:namedview
     id="base"
     pagecolor="#ffffff"
     bordercolor="#666666"
     borderopacity="1.0"
     inkscape:pageopacity="0.0"
     inkscape:pageshadow="2"
     inkscape:zoom="0.98994949"
     inkscape:cx="-177.84064"
     inkscape:cy="506.22985"
     inkscape:document-units="mm"
     inkscape:current-layer="g1884"
     showgrid="false"
     showguides="true"
     inkscape:guide-bbox="true"
     inkscape:snap-bbox="false"
     inkscape:bbox-paths="false"
     inkscape:bbox-nodes="false"
     inkscape:object-paths="false"
     inkscape:snap-intersection-paths="false"
     inkscape:snap-midpoints="false"
     inkscape:snap-smooth-nodes="false"
     inkscape:snap-center="false"
     inkscape:snap-object-midpoints="false"
     inkscape:object-nodes="true"
     inkscape:snap-others="false"
     inkscape:window-width="1920"
     inkscape:window-height="1036"
     inkscape:window-x="0"
     inkscape:window-y="20"
     inkscape:window-maximized="0"
     fit-margin-top="0"
     fit-margin-left="0"
     fit-margin-right="0"
     fit-margin-bottom="0"
     units="px" />
  <metadata
     id="metadata1662">
    <rdf:RDF>
      <cc:Work
         rdf:about="">
        <dc:format>image/svg+xml</dc:format>
        <dc:type
           rdf:resource="http://purl.org/dc/dcmitype/StillImage" />
        <dc:title></dc:title>
      </cc:Work>
    </rdf:RDF>
  </metadata>
  <g
     inkscape:label="Layer 1"
     inkscape:groupmode="layer"
     id="layer1"
     transform="translate(-7.5646226,-26.756431)">
    <g
       id="g1759"
       transform="translate(-35.529762,-62.366071)">
      <rect
         y="9.4879246"
         x="-66.467697"
         height="10.016369"
         width="10.016369"
         id="rect21432"
         style="fill:#5c4b51;fill-opacity:1;stroke:none;stroke-width:1.05833328;stroke-linecap:round;stroke-linejoin:round;stroke-miterlimit:4;stroke-dasharray:none;stroke-dashoffset:0;stroke-opacity:1;paint-order:normal" />
      <rect
         style="fill:#8cbeb2;fill-opacity:1;stroke:none;stroke-width:1.05833328;stroke-linecap:round;stroke-linejoin:round;stroke-miterlimit:4;stroke-dasharray:none;stroke-dashoffset:0;stroke-opacity:1;paint-order:normal"
         id="rect21434"
         width="10.016369"
         height="10.016369"
         x="-56.451328"
         y="9.4879246" />
      <rect
         y="9.4879246"
         x="-46.434963"
         height="10.016369"
         width="10.016369"
         id="rect21436"
         style="fill:#f2ebbf;fill-opacity:1;stroke:none;stroke-width:1.05833328;stroke-linecap:round;stroke-linejoin:round;stroke-miterlimit:4;stroke-dasharray:none;stroke-dashoffset:0;stroke-opacity:1;paint-order:normal" />
      <rect
         style="fill:#f3b562;fill-opacity:1;stroke:none;stroke-width:1.05833328;stroke-linecap:round;stroke-linejoin:round;stroke-miterlimit:4;stroke-dasharray:none;stroke-dashoffset:0;stroke-opacity:1;paint-order:normal"
         id="rect21438"
         width="10.016369"
         height="10.016369"
         x="-36.418598"
         y="9.4879246" />
      <rect
         y="9.4879246"
         x="-26.402218"
         height="10.016369"
         width="10.016369"
         id="rect21440"
         style="fill:#f06060;fill-opacity:1;stroke:none;stroke-width:1.05833328;stroke-linecap:round;stroke-linejoin:round;stroke-miterlimit:4;stroke-dasharray:none;stroke-dashoffset:0;stroke-opacity:1;paint-order:normal" />
    </g>
    <g
       id="g1771"
       transform="translate(44.918366,-63.702419)">
      <rect
         style="fill:#652d34;fill-opacity:1;stroke:none;stroke-width:1.05833328;stroke-linecap:round;stroke-linejoin:round;stroke-miterlimit:4;stroke-dasharray:none;stroke-dashoffset:0;stroke-opacity:1;paint-order:normal"
         id="rect1761"
         width="10.016369"
         height="10.016369"
         x="-66.467697"
         y="9.4879246" />
      <rect
         y="9.4879246"
         x="-56.451328"
         height="10.016369"
         width="10.016369"
         id="rect1763"
         style="fill:#929261;fill-opacity:1;stroke:none;stroke-width:1.05833328;stroke-linecap:round;stroke-linejoin:round;stroke-miterlimit:4;stroke-dasharray:none;stroke-dashoffset:0;stroke-opacity:1;paint-order:normal" />
      <rect
         style="fill:#fd8814;fill-opacity:1;stroke:none;stroke-width:1.05833328;stroke-linecap:round;stroke-linejoin:round;stroke-miterlimit:4;stroke-dasharray:none;stroke-dashoffset:0;stroke-opacity:1;paint-order:normal"
         id="rect1765"
         width="10.016369"
         height="10.016369"
         x="-46.434963"
         y="9.4879246" />
      <rect
         y="9.4879246"
         x="-36.418598"
         height="10.016369"
         width="10.016369"
         id="rect1767"
         style="fill:#ff661d;fill-opacity:1;stroke:none;stroke-width:1.05833328;stroke-linecap:round;stroke-linejoin:round;stroke-miterlimit:4;stroke-dasharray:none;stroke-dashoffset:0;stroke-opacity:1;paint-order:normal" />
      <rect
         style="fill:#d2442c;fill-opacity:1;stroke:none;stroke-width:1.05833328;stroke-linecap:round;stroke-linejoin:round;stroke-miterlimit:4;stroke-dasharray:none;stroke-dashoffset:0;stroke-opacity:1;paint-order:normal"
         id="rect1769"
         width="10.016369"
         height="10.016369"
         x="-26.402218"
         y="9.4879246" />
    </g>
    <g
       id="g1799"
       style="stroke:#000000;stroke-width:3.37347174;stroke-miterlimit:4;stroke-dasharray:none"
       transform="matrix(0.5790954,0,0,0.57854009,-132.63357,-25.873169)">
      <path
         inkscape:connector-curvature="0"
         id="path1773"
         d="m -79.057938,124.64286 4.355137,7.53843 h 8.709697 l -4.354555,7.53843 4.354846,7.53843 h -8.709697 l -4.354846,7.53842 -4.355142,-7.53842 h -8.709986 l 4.354849,-7.53843 -4.354997,-7.53843 h 8.709845 z"
         style="fill:#f06060;fill-opacity:1;fill-rule:evenodd;stroke:#5c4b51;stroke-width:3.37347174;stroke-linecap:round;stroke-linejoin:round;stroke-miterlimit:4;stroke-dasharray:none;stroke-opacity:1;paint-order:normal" />
      <path
         inkscape:connector-curvature="0"
         id="path1775"
         d="m -65.993104,132.18129 4.354853,-7.53843 h -8.709406 l -21.775552,-37.692131 -4.354848,7.538426 17.420119,30.153705 4.355137,7.53843 z"
         style="fill:#f3b662;fill-opacity:1;fill-rule:evenodd;stroke:#5c4b51;stroke-width:3.37347174;stroke-linecap:round;stroke-linejoin:round;stroke-miterlimit:4;stroke-dasharray:none;stroke-opacity:1;paint-order:normal" />
      <path
         inkscape:connector-curvature="0"
         id="path1777"
         d="m -48.573705,102.02758 -13.064252,22.61528 h -8.709993 l -21.775259,-37.692131 -8.709701,15.076851 h -8.70984 l 13.064254,-22.615277 h 8.710133 l 21.775558,37.692137 8.709696,-15.07686 z"
         style="fill:#8cbeb2;fill-opacity:1;fill-rule:evenodd;stroke:#5c4b51;stroke-width:3.37347174;stroke-linecap:round;stroke-linejoin:round;stroke-miterlimit:4;stroke-dasharray:none;stroke-opacity:1;paint-order:normal" />
      <path
         style="fill:#f3b662;fill-opacity:1;fill-rule:evenodd;stroke:#5c4b51;stroke-width:3.37347174;stroke-linecap:round;stroke-linejoin:round;stroke-miterlimit:4;stroke-dasharray:none;stroke-opacity:1;paint-order:normal"
         d="m -79.061743,124.64092 -4.351045,-7.54062 -4.354703,7.54256 -43.530119,0.0121 4.35104,7.54062 34.823938,-0.009 8.706041,-0.002 z"
         id="path1779"
         inkscape:connector-curvature="0" />
      <path
         style="fill:#8cbeb2;fill-opacity:1;fill-rule:evenodd;stroke:#5c4b51;stroke-width:3.37347174;stroke-linecap:round;stroke-linejoin:round;stroke-miterlimit:4;stroke-dasharray:none;stroke-opacity:1;paint-order:normal"
         d="m -96.465922,94.478427 13.053281,22.621613 -4.354997,7.54308 -43.529972,0.0119 8.70209,15.08125 -4.35492,7.54294 -13.05328,-22.62162 4.35506,-7.54319 43.530132,-0.0121 -8.702092,-15.08125 z"
         id="path1781"
         inkscape:connector-curvature="0" />
      <path
         inkscape:connector-curvature="0"
         id="path1783"
         d="m -92.130095,132.18155 -8.705895,-0.002 4.3547,7.54257 -21.75457,37.70425 8.7059,0.002 17.40381,-30.16312 4.350904,-7.54087 z"
         style="fill:#f3b662;fill-opacity:1;fill-rule:evenodd;stroke:#5c4b51;stroke-width:3.37347174;stroke-linecap:round;stroke-linejoin:round;stroke-miterlimit:4;stroke-dasharray:none;stroke-opacity:1;paint-order:normal" />
      <path
         inkscape:connector-curvature="0"
         id="path1785"
         d="m -126.95367,132.17276 26.11753,0.006 4.354996,7.54307 -21.754716,37.704 17.41179,0.004 4.354919,7.54295 -26.117529,-0.006 -4.35507,-7.5432 21.75457,-37.70425 -17.41179,-0.004 z"
         style="fill:#8cbeb2;fill-opacity:1;fill-rule:evenodd;stroke:#5c4b51;stroke-width:3.37347174;stroke-linecap:round;stroke-linejoin:round;stroke-miterlimit:4;stroke-dasharray:none;stroke-opacity:1;paint-order:normal" />
      <path
         style="fill:#f3b662;fill-opacity:1;fill-rule:evenodd;stroke:#5c4b51;stroke-width:3.37347174;stroke-linecap:round;stroke-linejoin:round;stroke-miterlimit:4;stroke-dasharray:none;stroke-opacity:1;paint-order:normal"
         d="m -92.122186,147.25815 -4.354853,7.53843 h 8.709406 l 21.775552,37.69213 4.354848,-7.53843 -17.420119,-30.1537 -4.355137,-7.53843 z"
         id="path1787"
         inkscape:connector-curvature="0" />
      <path
         style="fill:#8cbeb2;fill-opacity:1;fill-rule:evenodd;stroke:#5c4b51;stroke-width:3.37347174;stroke-linecap:round;stroke-linejoin:round;stroke-miterlimit:4;stroke-dasharray:none;stroke-opacity:1;paint-order:normal"
         d="m -109.54158,177.41186 13.064247,-22.61528 h 8.709993 l 21.775259,37.69213 8.709701,-15.07685 h 8.70984 l -13.064254,22.61528 h -8.710133 l -21.775558,-37.69214 -8.709695,15.07686 z"
         id="path1789"
         inkscape:connector-curvature="0" />
      <path
         inkscape:connector-curvature="0"
         id="path1791"
         d="m -79.033578,154.81063 4.351046,7.54063 4.354703,-7.54257 43.530119,-0.0121 -4.351045,-7.54063 -34.823934,0.009 -8.70604,0.002 z"
         style="fill:#f3b662;fill-opacity:1;fill-rule:evenodd;stroke:#5c4b51;stroke-width:3.37347174;stroke-linecap:round;stroke-linejoin:round;stroke-miterlimit:4;stroke-dasharray:none;stroke-opacity:1;paint-order:normal" />
      <path
         inkscape:connector-curvature="0"
         id="path1793"
         d="m -61.629398,184.97313 -13.053281,-22.62162 4.354996,-7.54307 43.529973,-0.0119 -8.702086,-15.08125 4.35492,-7.54294 13.053277,22.62161 -4.355066,7.5432 -43.530127,0.0121 8.702096,15.08124 z"
         style="fill:#8cbeb2;fill-opacity:1;fill-rule:evenodd;stroke:#5c4b51;stroke-width:3.37347174;stroke-linecap:round;stroke-linejoin:round;stroke-miterlimit:4;stroke-dasharray:none;stroke-opacity:1;paint-order:normal" />
      <path
         style="fill:#f3b662;fill-opacity:1;fill-rule:evenodd;stroke:#5c4b51;stroke-width:3.37347174;stroke-linecap:round;stroke-linejoin:round;stroke-miterlimit:4;stroke-dasharray:none;stroke-opacity:1;paint-order:normal"
         d="m -65.980667,147.25595 8.705898,0.002 -4.354703,-7.54257 21.754567,-37.70425 -8.705892,-0.002 -17.403815,30.16312 -4.350904,7.54087 z"
         id="path1795"
         inkscape:connector-curvature="0" />
      <path
         style="fill:#8cbeb2;fill-opacity:1;fill-rule:evenodd;stroke:#5c4b51;stroke-width:3.37347174;stroke-linecap:round;stroke-linejoin:round;stroke-miterlimit:4;stroke-dasharray:none;stroke-opacity:1;paint-order:normal"
         d="m -31.157089,147.26474 -26.117533,-0.006 -4.354996,-7.54307 21.754713,-37.704 -17.411786,-0.004 -4.35492,-7.542946 26.117531,0.0063 4.355067,7.543196 -21.75457,37.70425 17.411792,0.004 z"
         id="path1797"
         inkscape:connector-curvature="0" />
    </g>
    <use
       x="0"
       y="0"
       xlink:href="#g1884"
       id="use1912"
       transform="translate(174.83883,-107.50998)"
       width="100%"
       height="100%"
       style="stroke-width:1.7276597" />
    <use
       x="0"
       y="0"
       xlink:href="#use1912"
       id="use1914"
       transform="translate(0.00507177,43.623097)"
       width="100%"
       height="100%"
       style="stroke-width:1.7276597" />
    <use
       x="0"
       y="0"
       xlink:href="#use1914"
       id="use1916"
       transform="translate(-37.826563,21.80517)"
       width="100%"
       height="100%"
       style="stroke-width:1.7276597" />
    <use
       x="0"
       y="0"
       xlink:href="#use1916"
       id="use1918"
       transform="translate(75.648476,-43.62061)"
       width="100%"
       height="100%"
       style="stroke-width:1.7276597" />
    <g
       id="g1884"
       transform="matrix(0.5790954,0,0,0.57854009,-195.43025,61.011826)"
       style="stroke-width:1.7276597">
      <path
         inkscape:connector-curvature="0"
         id="path1860"
         d="m 69.486702,109.14584 4.355137,7.53843 h 8.709697 l -4.354555,7.53843 4.354846,7.53843 H 73.84213 l -4.354846,7.53842 -4.355142,-7.53842 h -8.709986 l 4.354849,-7.53843 -4.354997,-7.53843 h 8.709845 z"
         style="fill:#f06060;fill-opacity:1;fill-rule:evenodd;stroke:#5c4b51;stroke-width:2.46839385;stroke-linecap:round;stroke-linejoin:round;stroke-miterlimit:4;stroke-dasharray:none;stroke-opacity:1;paint-order:normal" />
      <path
         inkscape:connector-curvature="0"
         id="path1862"
         d="m 82.551536,116.68427 4.354853,-7.53843 h -8.709406 l -21.775552,-37.692135 -4.354848,7.538426 17.420119,30.153709 4.355137,7.53843 z"
         style="fill:#f3b662;fill-opacity:1;fill-rule:evenodd;stroke:#5c4b51;stroke-width:2.46839385;stroke-linecap:round;stroke-linejoin:round;stroke-miterlimit:4;stroke-dasharray:none;stroke-opacity:1;paint-order:normal" />
      <path
         inkscape:connector-curvature="0"
         id="path1864"
         d="M 99.970935,86.530556 86.906683,109.14584 H 78.19669 L 56.421431,71.453705 47.71173,86.530556 H 39.00189 L 52.066144,63.915279 h 8.710133 l 21.775558,37.692141 8.709696,-15.076864 z"
         style="fill:#8cbeb2;fill-opacity:1;fill-rule:evenodd;stroke:#5c4b51;stroke-width:2.46839385;stroke-linecap:round;stroke-linejoin:round;stroke-miterlimit:4;stroke-dasharray:none;stroke-opacity:1;paint-order:normal" />
      <path
         style="fill:#f3b662;fill-opacity:1;fill-rule:evenodd;stroke:#5c4b51;stroke-width:2.46839385;stroke-linecap:round;stroke-linejoin:round;stroke-miterlimit:4;stroke-dasharray:none;stroke-opacity:1;paint-order:normal"
         d="m 69.482897,109.1439 -4.351045,-7.54062 -4.354703,7.54256 -43.530119,0.0121 4.35104,7.54062 34.823938,-0.009 8.706041,-0.002 z"
         id="path1866"
         inkscape:connector-curvature="0" />
      <path
         style="fill:#8cbeb2;fill-opacity:1;fill-rule:evenodd;stroke:#5c4b51;stroke-width:2.46839385;stroke-linecap:round;stroke-linejoin:round;stroke-miterlimit:4;stroke-dasharray:none;stroke-opacity:1;paint-order:normal"
         d="m 52.078718,78.981403 13.053281,22.621617 -4.354997,7.54308 -43.529972,0.0119 8.70209,15.08125 -4.35492,7.54294 -13.05328,-22.62162 4.35506,-7.54319 43.530132,-0.0121 -8.702092,-15.081254 z"
         id="path1868"
         inkscape:connector-curvature="0" />
      <path
         inkscape:connector-curvature="0"
         id="path1870"
         d="m 56.414545,116.68453 -8.705895,-0.002 4.3547,7.54257 -21.75457,37.70425 8.7059,0.002 17.40381,-30.16312 4.350904,-7.54087 z"
         style="fill:#f3b662;fill-opacity:1;fill-rule:evenodd;stroke:#5c4b51;stroke-width:2.46839385;stroke-linecap:round;stroke-linejoin:round;stroke-miterlimit:4;stroke-dasharray:none;stroke-opacity:1;paint-order:normal" />
      <path
         style="fill:#f3b662;fill-opacity:1;fill-rule:evenodd;stroke:#5c4b51;stroke-width:2.46839385;stroke-linecap:round;stroke-linejoin:round;stroke-miterlimit:4;stroke-dasharray:none;stroke-opacity:1;paint-order:normal"
         d="m 56.422454,131.76113 -4.354853,7.53843 h 8.709406 l 21.775552,37.69213 4.354848,-7.53843 -17.420119,-30.1537 -4.355137,-7.53843 z"
         id="path1874"
         inkscape:connector-curvature="0" />
      <path
         inkscape:connector-curvature="0"
         id="path1878"
         d="m 69.511062,139.31361 4.351046,7.54063 4.354703,-7.54257 43.530119,-0.0121 -4.35105,-7.54063 -34.823929,0.009 -8.70604,0.002 z"
         style="fill:#f3b662;fill-opacity:1;fill-rule:evenodd;stroke:#5c4b51;stroke-width:2.46839385;stroke-linecap:round;stroke-linejoin:round;stroke-miterlimit:4;stroke-dasharray:none;stroke-opacity:1;paint-order:normal" />
      <path
         style="fill:#f3b662;fill-opacity:1;fill-rule:evenodd;stroke:#5c4b51;stroke-width:2.46839385;stroke-linecap:round;stroke-linejoin:round;stroke-miterlimit:4;stroke-dasharray:none;stroke-opacity:1;paint-order:normal"
         d="m 82.563973,131.75893 8.705898,0.002 -4.354703,-7.54257 21.754562,-37.704254 -8.705887,-0.002 -17.403815,30.163124 -4.350904,7.54087 z"
         id="path1880"
         inkscape:connector-curvature="0" />
      <path
         style="fill:#8cbeb2;fill-opacity:1;fill-rule:evenodd;stroke:#5c4b51;stroke-width:2.46839385;stroke-linecap:round;stroke-linejoin:round;stroke-miterlimit:4;stroke-dasharray:none;stroke-opacity:1;paint-order:normal"
         d="m 117.38755,131.76772 -26.117532,-0.006 -4.354996,-7.54307 21.754708,-37.704004 -17.411781,-0.004 -4.35492,-7.542946 26.117531,0.0063 4.35507,7.543196 -21.754573,37.704254 17.411793,0.004 z"
         id="path1882"
         inkscape:connector-curvature="0" />
    </g>
    <use
       x="0"
       y="0"
       xlink:href="#g1884"
       id="use1964"
       transform="translate(137.01688,-85.694438)"
       width="100%"
       height="100%"
       style="stroke-width:1.7276597" />
    <use
       x="0"
       y="0"
       xlink:href="#g1884"
       id="use2148"
       transform="translate(137.01534,1.5452936)"
       width="100%"
       height="100%"
       style="stroke-width:1.7276597" />
    <use
       x="0"
       y="0"
       xlink:href="#use2148"
       id="use2150"
       transform="translate(37.829234,-21.819347)"
       width="100%"
       height="100%"
       style="stroke-width:1.7276597" />
    <use
       x="0"
       y="0"
       xlink:href="#use2150"
       id="use2152"
       transform="translate(37.821915,-21.815439)"
       width="100%"
       height="100%"
       style="stroke-width:1.7276597" />
    <use
       x="0"
       y="0"
       xlink:href="#use2152"
       id="use2154"
       transform="translate(0.00507077,43.623097)"
       width="100%"
       height="100%"
       style="stroke-width:1.7276597" />
    <use
       x="0"
       y="0"
       xlink:href="#use2154"
       id="use2156"
       transform="translate(-37.826566,21.805164)"
       width="100%"
       height="100%"
       style="stroke-width:1.7276597" />
    <use
       x="0"
       y="0"
       xlink:href="#use2156"
       id="use2158"
       transform="translate(37.826985,21.807658)"
       width="100%"
       height="100%"
       style="stroke-width:1.7276597" />
    <use
       x="0"
       y="0"
       xlink:href="#use2158"
       id="use2160"
       transform="translate(37.826566,-21.805164)"
       width="100%"
       height="100%"
       style="stroke-width:1.7276597" />
    <use
       x="0"
       y="0"
       xlink:href="#use2160"
       id="use2162"
       transform="translate(-0.00507023,-43.623097)"
       width="100%"
       height="100%"
       style="stroke-width:1.7276597" />
    <use
       x="0"
       y="0"
       xlink:href="#use2162"
       id="use2164"
       transform="translate(-6.7322639e-4,-43.612828)"
       width="100%"
       height="100%"
       style="stroke-width:1.7276597" />
    <use
       x="0"
       y="0"
       xlink:href="#use2164"
       id="use2166"
       transform="translate(-113.47687,109.05278)"
       width="100%"
       height="100%"
       style="stroke-width:1.7276597" />
    <use
       x="0"
       y="0"
       xlink:href="#use2158"
       id="use2168"
       transform="translate(-37.82204,21.815705)"
       width="100%"
       height="100%" />
    <use
       x="0"
       y="0"
       xlink:href="#use1918"
       id="use2170"
       transform="translate(-4.2273964e-4,-43.612829)"
       width="100%"
       height="100%" />
    <use
       x="0"
       y="0"
       xlink:href="#use2170"
       id="use2172"
       transform="translate(37.826817,21.807661)"
       width="100%"
       height="100%" />
    <use
       x="0"
       y="0"
       xlink:href="#use2172"
       id="use2174"
       transform="translate(37.822549,21.797462)"
       width="100%"
       height="100%" />
    <use
       x="0"
       y="0"
       xlink:href="#use2174"
       id="use2176"
       transform="translate(8.43742e-4,43.612828)"
       width="100%"
       height="100%" />
    <use
       x="0"
       y="0"
       xlink:href="#use2176"
       id="use2178"
       transform="translate(5.9241459e-4,43.612828)"
       width="100%"
       height="100%" />
    <use
       x="0"
       y="0"
       xlink:href="#use2178"
       id="use2180"
       transform="translate(37.826393,-21.80517)"
       width="100%"
       height="100%" />
    <use
       x="0"
       y="0"
       xlink:href="#use2180"
       id="use2182"
       transform="translate(-37.825801,65.417998)"
       width="100%"
       height="100%" />
    <use
       x="0"
       y="0"
       xlink:href="#use2182"
       id="use2184"
       transform="translate(37.826393,-21.80517)"
       width="100%"
       height="100%" />
    <use
       x="0"
       y="0"
       xlink:href="#use2184"
       id="use2186"
       transform="translate(-75.644042,43.630806)"
       width="100%"
       height="100%" />
    <use
       x="0"
       y="0"
       xlink:href="#use2174"
       id="use2188"
       transform="translate(37.8228,21.797462)"
       width="100%"
       height="100%" />
    <use
       x="0"
       y="0"
       xlink:href="#use2188"
       id="use2190"
       transform="translate(37.82707,21.80749)"
       width="100%"
       height="100%" />
    <use
       x="0"
       y="0"
       xlink:href="#use2190"
       id="use2192"
       transform="translate(-37.827914,-65.420318)"
       width="100%"
       height="100%" />
    <use
       x="0"
       y="0"
       xlink:href="#use2192"
       id="use2194"
       transform="translate(37.822885,21.797294)"
       width="100%"
       height="100%" />
    <use
       x="0"
       y="0"
       xlink:href="#use2194"
       id="use2196"
       transform="translate(37.826985,21.807658)"
       width="100%"
       height="100%" />
    <use
       x="0"
       y="0"
       xlink:href="#use2196"
       id="use2198"
       transform="translate(-0.00494409,-43.623192)"
       width="100%"
       height="100%" />
    <use
       x="0"
       y="0"
       xlink:href="#use2198"
       id="use2200"
       transform="translate(-37.822885,-21.797294)"
       width="100%"
       height="100%" />
    <use
       x="0"
       y="0"
       xlink:href="#use2200"
       id="use2202"
       transform="translate(-75.644505,0.01790383)"
       width="100%"
       height="100%" />
    <use
       x="0"
       y="0"
       xlink:href="#use2202"
       id="use2204"
       transform="translate(37.829349,196.25913)"
       width="100%"
       height="100%" />
    <use
       x="0"
       y="0"
       xlink:href="#use2204"
       id="use2206"
       transform="translate(37.822041,-21.815534)"
       width="100%"
       height="100%" />
    <use
       x="0"
       y="0"
       xlink:href="#use2206"
       id="use2208"
       transform="translate(0.00393247,-43.602456)"
       width="100%"
       height="100%" />
    <use
       x="0"
       y="0"
       xlink:href="#use2208"
       id="use2210"
       transform="translate(37.817604,-21.82573)"
       width="100%"
       height="100%" />
    <use
       x="0"
       y="0"
       xlink:href="#use2210"
       id="use2212"
       transform="translate(5.9241459e-4,43.612828)"
       width="100%"
       height="100%" />
    <use
       x="0"
       y="0"
       xlink:href="#use2212"
       id="use2214"
       transform="translate(4.2273964e-4,43.612828)"
       width="100%"
       height="100%" />
    <use
       x="0"
       y="0"
       xlink:href="#use2214"
       id="use2216"
       transform="translate(37.821956,-21.815366)"
       width="100%"
       height="100%" />
    <use
       x="0"
       y="0"
       xlink:href="#use2216"
       id="use2218"
       transform="translate(0.00401407,-43.602632)"
       width="100%"
       height="100%" />
    <use
       x="0"
       y="0"
       xlink:href="#use2218"
       id="use2220"
       transform="translate(-0.00494431,-43.623192)"
       width="100%"
       height="100%" />
    <use
       x="0"
       y="0"
       xlink:href="#use2220"
       id="use2222"
       transform="translate(-4.2273964e-4,-43.612829)"
       width="100%"
       height="100%" />
    <use
       x="0"
       y="0"
       xlink:href="#use2222"
       id="use2224"
       transform="translate(37.821956,-21.815366)"
       width="100%"
       height="100%" />
    <use
       x="0"
       y="0"
       xlink:href="#use2224"
       id="use2226"
       transform="translate(8.43742e-4,43.612828)"
       width="100%"
       height="100%" />
    <use
       x="0"
       y="0"
       xlink:href="#use2226"
       id="use2228"
       transform="translate(0.00452367,43.623193)"
       width="100%"
       height="100%" />
    <use
       x="0"
       y="0"
       xlink:href="#use2228"
       id="use2230"
       transform="translate(5.9241459e-4,43.612828)"
       width="100%"
       height="100%" />
    <use
       x="0"
       y="0"
       xlink:href="#use2230"
       id="use2232"
       transform="translate(5.9241459e-4,43.612828)"
       width="100%"
       height="100%" />
    <use
       x="0"
       y="0"
       xlink:href="#use2232"
       id="use2234"
       transform="translate(37.822041,-21.815534)"
       width="100%"
       height="100%" />
    <use
       x="0"
       y="0"
       xlink:href="#use2234"
       id="use2236"
       transform="translate(-5.9250308e-4,-43.612828)"
       width="100%"
       height="100%" />
    <use
       x="0"
       y="0"
       xlink:href="#use2236"
       id="use2238"
       transform="translate(-6.7696252e-4,-43.61266)"
       width="100%"
       height="100%" />
    <use
       x="0"
       y="0"
       xlink:href="#use2238"
       id="use2240"
       transform="translate(-3.3854754e-4,-43.612997)"
       width="100%"
       height="100%" />
    <use
       x="0"
       y="0"
       xlink:href="#use2240"
       id="use2242"
       transform="translate(-75.65414,-43.615315)"
       width="100%"
       height="100%" />
    <use
       x="0"
       y="0"
       xlink:href="#use2242"
       id="use2244"
       transform="translate(75.653548,0.00248629)"
       width="100%"
       height="100%" />
    <use
       x="0"
       y="0"
       xlink:href="#use2244"
       id="use2246"
       transform="translate(37.822633,21.797295)"
       width="100%"
       height="100%" />
    <use
       x="0"
       y="0"
       xlink:href="#use2246"
       id="use2248"
       inkscape:transform-center-x="2.4568262"
       inkscape:transform-center-y="-37.608631"
       width="100%"
       height="100%"
       transform="translate(2.5391112e-4,43.613164)" />
    <use
       x="0"
       y="0"
       xlink:href="#use2248"
       inkscape:transform-center-x="2.4568262"
       inkscape:transform-center-y="-37.608631"
       id="use2250"
       transform="translate(5.9241459e-4,43.612828)"
       width="100%"
       height="100%" />
    <use
       x="0"
       y="0"
       xlink:href="#use2250"
       inkscape:transform-center-x="2.4568262"
       inkscape:transform-center-y="-37.608631"
       id="use2252"
       transform="translate(4.2273964e-4,43.612828)"
       width="100%"
       height="100%" />
  </g>
</svg>
