<?xml version="1.0" encoding="UTF-8" standalone="no"?>
<!-- Created with Inkscape (http://www.inkscape.org/) -->

<svg
   xmlns:dc="http://purl.org/dc/elements/1.1/"
   xmlns:cc="http://creativecommons.org/ns#"
   xmlns:rdf="http://www.w3.org/1999/02/22-rdf-syntax-ns#"
   xmlns:svg="http://www.w3.org/2000/svg"
   xmlns="http://www.w3.org/2000/svg"
   xmlns:xlink="http://www.w3.org/1999/xlink"
   xmlns:sodipodi="http://sodipodi.sourceforge.net/DTD/sodipodi-0.dtd"
   xmlns:inkscape="http://www.inkscape.org/namespaces/inkscape"
   width="1400"
   height="600"
   viewBox="0 0 370.41666 158.75"
   version="1.1"
   id="svg8"
   inkscape:version="0.92.2 5c3e80d, 2017-08-06"
   sodipodi:docname="p6.svg">
  <defs
     id="defs2" />
  <sodipodi:namedview
     id="base"
     pagecolor="#ffffff"
     bordercolor="#666666"
     borderopacity="1.0"
     inkscape:pageopacity="0.0"
     inkscape:pageshadow="2"
     inkscape:zoom="8"
     inkscape:cx="-548.40599"
     inkscape:cy="12.301181"
     inkscape:document-units="mm"
     inkscape:current-layer="g11248"
     showgrid="false"
     inkscape:object-paths="true"
     inkscape:snap-intersection-paths="true"
     inkscape:snap-smooth-nodes="true"
     inkscape:snap-midpoints="false"
     showguides="false"
     inkscape:snap-global="true"
     units="px"
     inkscape:window-width="1920"
     inkscape:window-height="1036"
     inkscape:window-x="0"
     inkscape:window-y="20"
     inkscape:window-maximized="0">
    <inkscape:grid
       type="xygrid"
       id="grid867" />
  </sodipodi:namedview>
  <metadata
     id="metadata5">
    <rdf:RDF>
      <cc:Work
         rdf:about="">
        <dc:format>image/svg+xml</dc:format>
        <dc:type
           rdf:resource="http://purl.org/dc/dcmitype/StillImage" />
        <dc:title />
      </cc:Work>
    </rdf:RDF>
  </metadata>
  <g
     inkscape:label="Layer 1"
     inkscape:groupmode="layer"
     id="layer1"
     transform="translate(0,-138.24998)">
    <rect
       style="fill:#ffffff;fill-opacity:1;stroke:none;stroke-width:0.60854167;stroke-linecap:round;stroke-linejoin:round;stroke-miterlimit:4;stroke-dasharray:none;stroke-dashoffset:0;stroke-opacity:1;paint-order:stroke markers fill"
       id="rect11734"
       width="556.77588"
       height="300.83859"
       x="-67.351921"
       y="84.467255" />
    <path
       style="fill:none;fill-rule:evenodd;stroke:#000000;stroke-width:0.05344583;stroke-linecap:butt;stroke-linejoin:miter;stroke-miterlimit:4;stroke-dasharray:none;stroke-opacity:1"
       d="m -169.94817,218.41873 h -5.4992 l 2.74969,4.7625 z"
       id="path11129"
       inkscape:connector-curvature="0" />
    <path
       style="fill:none;fill-rule:evenodd;stroke:#000000;stroke-width:0.26458332px;stroke-linecap:butt;stroke-linejoin:miter;stroke-opacity:1"
       d="M -175.44737,218.41873 V 175.15935"
       id="path11131"
       inkscape:connector-curvature="0" />
    <path
       inkscape:connector-curvature="0"
       id="path11153"
       d="M -169.94817,218.41873 V 175.15935"
       style="fill:none;fill-rule:evenodd;stroke:#000000;stroke-width:0.26458332px;stroke-linecap:butt;stroke-linejoin:miter;stroke-opacity:1" />
    <path
       inkscape:connector-curvature="0"
       id="path11155"
       d="M -180.94657,218.41873 V 175.15935"
       style="fill:none;fill-rule:evenodd;stroke:#000000;stroke-width:0.26458332px;stroke-linecap:butt;stroke-linejoin:miter;stroke-opacity:1" />
    <path
       inkscape:connector-curvature="0"
       id="path11161"
       d="M -164.44897,218.41873 V 175.15935"
       style="fill:none;fill-rule:evenodd;stroke:#000000;stroke-width:0.26458332px;stroke-linecap:butt;stroke-linejoin:miter;stroke-opacity:1" />
    <path
       inkscape:connector-curvature="0"
       id="path11163"
       d="m -212.911,240.04847 37.46372,-21.62969"
       style="fill:none;fill-rule:evenodd;stroke:#000000;stroke-width:0.26458332px;stroke-linecap:butt;stroke-linejoin:miter;stroke-opacity:1" />
    <path
       style="fill:none;fill-rule:evenodd;stroke:#000000;stroke-width:0.26458332px;stroke-linecap:butt;stroke-linejoin:miter;stroke-opacity:1"
       d="m -210.1614,244.81092 37.46372,-21.62969"
       id="path11165"
       inkscape:connector-curvature="0" />
    <path
       style="fill:none;fill-rule:evenodd;stroke:#000000;stroke-width:0.26458332px;stroke-linecap:butt;stroke-linejoin:miter;stroke-opacity:1"
       d="m -215.6606,235.28602 37.46372,-21.62969"
       id="path11167"
       inkscape:connector-curvature="0" />
    <path
       style="fill:none;fill-rule:evenodd;stroke:#000000;stroke-width:0.26458332px;stroke-linecap:butt;stroke-linejoin:miter;stroke-opacity:1"
       d="m -207.4118,249.57337 37.46372,-21.62969"
       id="path11169"
       inkscape:connector-curvature="0" />
    <path
       style="fill:none;fill-rule:evenodd;stroke:#000000;stroke-width:0.26458332px;stroke-linecap:butt;stroke-linejoin:miter;stroke-opacity:1"
       d="m -169.94817,218.41873 37.46372,21.62969"
       id="path11171"
       inkscape:connector-curvature="0" />
    <path
       inkscape:connector-curvature="0"
       id="path11173"
       d="m -172.69777,223.18118 37.46372,21.62969"
       style="fill:none;fill-rule:evenodd;stroke:#000000;stroke-width:0.26458332px;stroke-linecap:butt;stroke-linejoin:miter;stroke-opacity:1" />
    <path
       inkscape:connector-curvature="0"
       id="path11175"
       d="m -167.19857,213.65628 37.46372,21.62969"
       style="fill:none;fill-rule:evenodd;stroke:#000000;stroke-width:0.26458332px;stroke-linecap:butt;stroke-linejoin:miter;stroke-opacity:1" />
    <path
       inkscape:connector-curvature="0"
       id="path11177"
       d="m -175.44737,227.94363 37.46372,21.62969"
       style="fill:none;fill-rule:evenodd;stroke:#000000;stroke-width:0.26458332px;stroke-linecap:butt;stroke-linejoin:miter;stroke-opacity:1" />
    <rect
       style="fill:#000000;fill-opacity:0;stroke:#000000;stroke-width:0.05344583;stroke-linecap:round;stroke-linejoin:round;stroke-miterlimit:4;stroke-dasharray:none;stroke-dashoffset:0;stroke-opacity:1;paint-order:stroke markers fill"
       id="rect11179"
       width="16.497601"
       height="16.497601"
       x="-180.94658"
       y="198.74626" />
    <path
       inkscape:connector-curvature="0"
       id="path11181"
       d="m -207.4119,218.78848 34.71412,-20.04221"
       style="fill:none;fill-rule:evenodd;stroke:#000000;stroke-width:0.26458332px;stroke-linecap:butt;stroke-linejoin:miter;stroke-opacity:1"
       sodipodi:nodetypes="cc" />
    <path
       inkscape:connector-curvature="0"
       id="path11185"
       d="m -172.69778,198.74627 34.71403,20.04216"
       style="fill:none;fill-rule:evenodd;stroke:#000000;stroke-width:0.26458332px;stroke-linecap:butt;stroke-linejoin:miter;stroke-opacity:1"
       sodipodi:nodetypes="cc" />
    <path
       sodipodi:nodetypes="cc"
       style="fill:none;fill-rule:evenodd;stroke:#000000;stroke-width:0.26458332px;stroke-linecap:butt;stroke-linejoin:miter;stroke-opacity:1"
       d="m -156.3952,250.67845 -34.71412,-20.04221"
       id="path11189"
       inkscape:connector-curvature="0" />
    <path
       sodipodi:nodetypes="cc"
       style="fill:none;fill-rule:evenodd;stroke:#000000;stroke-width:0.26458332px;stroke-linecap:butt;stroke-linejoin:miter;stroke-opacity:1"
       d="M -191.10932,230.63624 V 190.55193"
       id="path11191"
       inkscape:connector-curvature="0" />
    <path
       style="fill:#ff0000;fill-rule:evenodd;stroke:none;stroke-width:0.26458332px;stroke-linecap:butt;stroke-linejoin:miter;stroke-opacity:1"
       d="m -180.94657,203.50871 v 11.73516 l -10.16275,5.86746 v 6.34993 l 15.66204,-9.04248 -9e-5,-18.08503 z"
       id="path11193"
       inkscape:connector-curvature="0" />
    <path
       style="fill:#008000;fill-rule:evenodd;stroke:none;stroke-width:0.26458332px;stroke-linecap:butt;stroke-linejoin:miter;stroke-opacity:1"
       d="m -172.69799,198.74603 -2.74918,1.5875 v 5.2e-4 18.08468 l -15.66209,9.04234 v 3.175 l 2.7497,1.5875 15.66209,-9.04234 15.66209,9.04234 2.74919,-1.5875 v -3.175 l -15.66209,-9.04234 v -18.08468 -5.2e-4 l -2.74919,-1.58698 z"
       id="path11195"
       inkscape:connector-curvature="0" />
    <path
       inkscape:connector-curvature="0"
       id="path11200"
       d="m -154.28602,221.11123 -10.16295,-5.86758 v -11.73493 l -5.4992,-3.17496 v 18.08496 l 15.66214,9.04244 z"
       style="fill:#ff0000;fill-rule:evenodd;stroke:none;stroke-width:0.26458332px;stroke-linecap:butt;stroke-linejoin:miter;stroke-opacity:1" />
    <path
       style="fill:#ff0000;fill-rule:evenodd;stroke:none;stroke-width:0.26458332px;stroke-linecap:butt;stroke-linejoin:miter;stroke-opacity:1"
       d="m -182.86063,235.39874 10.16295,-5.86758 10.16275,5.86747 5.49919,-3.17497 -15.66203,-9.04248 -15.66206,9.04259 z"
       id="path11202"
       inkscape:connector-curvature="0" />
    <g
       id="g11248"
       transform="translate(-439.7375,28.045833)">
      <path
         style="fill:#f46200;fill-rule:evenodd;stroke:#f46200;stroke-width:0.21166667;stroke-linecap:butt;stroke-linejoin:round;stroke-opacity:1;fill-opacity:1;stroke-miterlimit:4;stroke-dasharray:none"
         d="m 272.87738,269.35792 v 3.175 l 18.41174,-10.63001 -2.74965,-1.58733 z"
         id="path11742"
         inkscape:connector-curvature="0" />
      <path
         style="fill:#ff944d;fill-rule:evenodd;stroke:#ff944d;stroke-width:0.21166667;stroke-linecap:butt;stroke-linejoin:round;stroke-opacity:1;fill-opacity:1;stroke-miterlimit:4;stroke-dasharray:none"
         d="m 291.28912,261.90291 18.41133,10.63001 1.6e-4,-3.17491 -15.66214,-9.04244 z"
         id="path11750"
         inkscape:connector-curvature="0" />
      <path
         style="fill:#f46200;fill-rule:evenodd;stroke:#f46200;stroke-width:0.21166667;stroke-linecap:butt;stroke-linejoin:round;stroke-opacity:1;fill-opacity:1;stroke-miterlimit:4;stroke-dasharray:none"
         d="m 291.28912,261.90291 -5.3e-4,-21.26004 -2.74919,1.58802 -1.1e-4,18.08474 z"
         id="path11746"
         inkscape:connector-curvature="0" />
      <path
         style="fill:#ff944d;fill-rule:evenodd;stroke:#ff944d;stroke-width:0.21166667;stroke-linecap:butt;stroke-linejoin:round;stroke-opacity:1;fill-opacity:1;stroke-miterlimit:4;stroke-dasharray:none"
         d="m 291.28866,240.64287 2.7497,1.58802 v 18.08469 l -2.74924,1.58733 z"
         id="path11748"
         inkscape:connector-curvature="0" />
      <path
         style="fill:#6a2b00;fill-rule:evenodd;stroke:#6a2b00;stroke-width:0.21166667;stroke-linecap:butt;stroke-linejoin:round;stroke-opacity:1;fill-opacity:1;stroke-miterlimit:4;stroke-dasharray:none"
         d="m 291.28912,261.90291 6e-5,3.17517 15.66209,9.04234 2.74918,-1.5875 z"
         id="path11752"
         inkscape:connector-curvature="0" />
      <path
         style="fill:#6a2b00;fill-rule:evenodd;stroke:#6a2b00;stroke-width:0.21166667;stroke-linecap:butt;stroke-linejoin:round;stroke-opacity:1;fill-opacity:1;stroke-miterlimit:4;stroke-dasharray:none"
         d="m 272.87738,272.53292 18.41174,-10.63001 -2.5e-4,3.17512 -15.66206,9.04259 z"
         id="path11740"
         inkscape:connector-curvature="0" />
      <path
         style="fill:#2186c4;fill-rule:evenodd;stroke:#3f464c;stroke-width:0.60880625;stroke-linecap:round;stroke-linejoin:round;stroke-miterlimit:4;stroke-dasharray:none;stroke-opacity:1;fill-opacity:1"
         d="m 283.04007,245.40556 v 11.73516 l -10.16275,5.86746 v 6.34993 l 15.66204,-9.04248 -9e-5,-18.08503 z"
         id="path11236"
         inkscape:connector-curvature="0" />
      <path
         inkscape:connector-curvature="0"
         style="fill:none;fill-rule:evenodd;stroke:none;stroke-width:0.60854167;stroke-linecap:round;stroke-linejoin:round;stroke-miterlimit:4;stroke-dasharray:none;stroke-opacity:1;fill-opacity:1"
         d="m 291.28866,240.64287 -2.74919,1.5875 v 5.2e-4 18.08469 l -15.66209,9.04234 v 3.175 l 2.7497,1.5875 15.6621,-9.04234 15.66209,9.04234 2.74918,-1.5875 v -3.175 l -15.66209,-9.04234 v -18.08469 -5.2e-4 l -2.74918,-1.58698 z"
         id="path11238" />
      <path
         inkscape:connector-curvature="0"
         id="path11240"
         d="m 309.70062,263.00808 -10.16295,-5.86758 v -11.73493 l -5.4992,-3.17496 v 18.08496 l 15.66214,9.04244 z"
         style="fill:#7ecefc;fill-rule:evenodd;stroke:#3f464c;stroke-width:0.60880625;stroke-linecap:round;stroke-linejoin:round;stroke-miterlimit:4;stroke-dasharray:none;stroke-opacity:1;fill-opacity:1" />
      <path
         style="fill:#134f73;fill-rule:evenodd;stroke:#3f464c;stroke-width:0.60880625;stroke-linecap:round;stroke-linejoin:round;stroke-miterlimit:4;stroke-dasharray:none;stroke-opacity:1;fill-opacity:1"
         d="m 281.12601,277.29559 10.16295,-5.86758 10.16275,5.86747 5.49919,-3.17497 -15.66203,-9.04248 -15.66206,9.04259 z"
         id="path11242"
         inkscape:connector-curvature="0" />
    </g>
    <use
       x="0"
       y="0"
       xlink:href="#g11248"
       id="use11270"
       transform="translate(265.80568,-126.74422)"
       width="100%"
       height="100%" />
    <use
       height="100%"
       width="100%"
       transform="translate(292.46597,-142.13663)"
       id="use11272"
       xlink:href="#g11248"
       y="0"
       x="0" />
    <use
       x="0"
       y="0"
       xlink:href="#g11248"
       id="use11274"
       transform="translate(265.80559,-157.52884)"
       width="100%"
       height="100%" />
    <use
       height="100%"
       width="100%"
       transform="translate(239.1453,-142.13641)"
       id="use11276"
       xlink:href="#g11248"
       y="0"
       x="0" />
    <use
       x="0"
       y="0"
       xlink:href="#g11248"
       id="use11278"
       transform="translate(292.46606,-111.35202)"
       width="100%"
       height="100%" />
    <use
       height="100%"
       width="100%"
       transform="translate(239.14508,-111.3518)"
       id="use11280"
       xlink:href="#g11248"
       y="0"
       x="0" />
    <use
       height="100%"
       width="100%"
       transform="translate(265.80607,-65.174455)"
       id="use11282"
       xlink:href="#g11248"
       y="0"
       x="0" />
    <use
       x="0"
       y="0"
       xlink:href="#g11248"
       id="use11284"
       transform="translate(292.46636,-80.566875)"
       width="100%"
       height="100%" />
    <use
       height="100%"
       width="100%"
       transform="translate(265.80598,-95.959075)"
       id="use11286"
       xlink:href="#g11248"
       y="0"
       x="0" />
    <use
       x="0"
       y="0"
       xlink:href="#g11248"
       id="use11288"
       transform="translate(239.14569,-80.566655)"
       width="100%"
       height="100%" />
    <use
       height="100%"
       width="100%"
       transform="translate(292.46645,-49.782255)"
       id="use11290"
       xlink:href="#g11248"
       y="0"
       x="0" />
    <use
       x="0"
       y="0"
       xlink:href="#g11248"
       id="use11292"
       transform="translate(239.14547,-49.782035)"
       width="100%"
       height="100%" />
    <use
       x="0"
       y="0"
       xlink:href="#g11248"
       id="use11294"
       transform="translate(265.80637,-34.38932)"
       width="100%"
       height="100%" />
    <use
       x="0"
       y="0"
       xlink:href="#g11248"
       id="use11296"
       transform="translate(292.46675,-18.99712)"
       width="100%"
       height="100%" />
    <use
       height="100%"
       width="100%"
       transform="translate(239.14577,-18.9969)"
       id="use11298"
       xlink:href="#g11248"
       y="0"
       x="0" />
    <use
       height="100%"
       width="100%"
       transform="translate(319.12634,-126.74443)"
       id="use11330"
       xlink:href="#g11248"
       y="0"
       x="0" />
    <use
       height="100%"
       width="100%"
       transform="translate(319.12626,-157.52905)"
       id="use11332"
       xlink:href="#g11248"
       y="0"
       x="0" />
    <use
       x="0"
       y="0"
       xlink:href="#g11248"
       id="use11334"
       transform="translate(319.12673,-65.174675)"
       width="100%"
       height="100%" />
    <use
       x="0"
       y="0"
       xlink:href="#g11248"
       id="use11336"
       transform="translate(319.12665,-95.959295)"
       width="100%"
       height="100%" />
    <use
       height="100%"
       width="100%"
       transform="translate(319.12704,-34.38954)"
       id="use11338"
       xlink:href="#g11248"
       y="0"
       x="0" />
    <use
       height="100%"
       width="100%"
       transform="translate(159.16404,-126.74378)"
       id="use11446"
       xlink:href="#g11248"
       y="0"
       x="0" />
    <use
       x="0"
       y="0"
       xlink:href="#g11248"
       id="use11448"
       transform="translate(185.82433,-142.13619)"
       width="100%"
       height="100%" />
    <use
       height="100%"
       width="100%"
       transform="translate(159.16395,-157.5284)"
       id="use11450"
       xlink:href="#g11248"
       y="0"
       x="0" />
    <use
       x="0"
       y="0"
       xlink:href="#g11248"
       id="use11452"
       transform="translate(132.50366,-142.13597)"
       width="100%"
       height="100%" />
    <use
       height="100%"
       width="100%"
       transform="translate(185.82442,-111.35158)"
       id="use11454"
       xlink:href="#g11248"
       y="0"
       x="0" />
    <use
       x="0"
       y="0"
       xlink:href="#g11248"
       id="use11456"
       transform="translate(132.50344,-111.35136)"
       width="100%"
       height="100%" />
    <use
       x="0"
       y="0"
       xlink:href="#g11248"
       id="use11458"
       transform="translate(159.16443,-65.174015)"
       width="100%"
       height="100%" />
    <use
       height="100%"
       width="100%"
       transform="translate(185.82472,-80.566435)"
       id="use11460"
       xlink:href="#g11248"
       y="0"
       x="0" />
    <use
       x="0"
       y="0"
       xlink:href="#g11248"
       id="use11462"
       transform="translate(159.16434,-95.958635)"
       width="100%"
       height="100%" />
    <use
       height="100%"
       width="100%"
       transform="translate(132.50405,-80.566215)"
       id="use11464"
       xlink:href="#g11248"
       y="0"
       x="0" />
    <use
       x="0"
       y="0"
       xlink:href="#g11248"
       id="use11466"
       transform="translate(185.82481,-49.781815)"
       width="100%"
       height="100%" />
    <use
       height="100%"
       width="100%"
       transform="translate(132.50383,-49.781595)"
       id="use11468"
       xlink:href="#g11248"
       y="0"
       x="0" />
    <use
       height="100%"
       width="100%"
       transform="translate(159.16473,-34.38888)"
       id="use11470"
       xlink:href="#g11248"
       y="0"
       x="0" />
    <use
       height="100%"
       width="100%"
       transform="translate(185.82511,-18.99668)"
       id="use11472"
       xlink:href="#g11248"
       y="0"
       x="0" />
    <use
       x="0"
       y="0"
       xlink:href="#g11248"
       id="use11474"
       transform="translate(132.50413,-18.99646)"
       width="100%"
       height="100%" />
    <use
       x="0"
       y="0"
       xlink:href="#g11248"
       id="use11476"
       transform="translate(212.4847,-126.74399)"
       width="100%"
       height="100%" />
    <use
       x="0"
       y="0"
       xlink:href="#g11248"
       id="use11478"
       transform="translate(212.48462,-157.52861)"
       width="100%"
       height="100%" />
    <use
       height="100%"
       width="100%"
       transform="translate(212.48509,-65.174235)"
       id="use11480"
       xlink:href="#g11248"
       y="0"
       x="0" />
    <use
       height="100%"
       width="100%"
       transform="translate(212.48501,-95.958855)"
       id="use11482"
       xlink:href="#g11248"
       y="0"
       x="0" />
    <use
       x="0"
       y="0"
       xlink:href="#g11248"
       id="use11484"
       transform="translate(212.4854,-34.3891)"
       width="100%"
       height="100%" />
    <use
       x="0"
       y="0"
       xlink:href="#g11248"
       id="use11488"
       transform="translate(372.44754,-126.74414)"
       width="100%"
       height="100%" />
    <use
       height="100%"
       width="100%"
       transform="translate(399.10783,-142.13655)"
       id="use11490"
       xlink:href="#g11248"
       y="0"
       x="0" />
    <use
       x="0"
       y="0"
       xlink:href="#g11248"
       id="use11492"
       transform="translate(372.44745,-157.52876)"
       width="100%"
       height="100%" />
    <use
       height="100%"
       width="100%"
       transform="translate(345.78716,-142.13633)"
       id="use11494"
       xlink:href="#g11248"
       y="0"
       x="0" />
    <use
       x="0"
       y="0"
       xlink:href="#g11248"
       id="use11496"
       transform="translate(399.10792,-111.35194)"
       width="100%"
       height="100%" />
    <use
       height="100%"
       width="100%"
       transform="translate(345.78694,-111.35172)"
       id="use11498"
       xlink:href="#g11248"
       y="0"
       x="0" />
    <use
       height="100%"
       width="100%"
       transform="translate(372.44793,-65.174375)"
       id="use11500"
       xlink:href="#g11248"
       y="0"
       x="0" />
    <use
       x="0"
       y="0"
       xlink:href="#g11248"
       id="use11502"
       transform="translate(399.10822,-80.566795)"
       width="100%"
       height="100%" />
    <use
       height="100%"
       width="100%"
       transform="translate(372.44784,-95.958995)"
       id="use11504"
       xlink:href="#g11248"
       y="0"
       x="0" />
    <use
       x="0"
       y="0"
       xlink:href="#g11248"
       id="use11506"
       transform="translate(345.78755,-80.566575)"
       width="100%"
       height="100%" />
    <use
       height="100%"
       width="100%"
       transform="translate(399.10831,-49.782175)"
       id="use11508"
       xlink:href="#g11248"
       y="0"
       x="0" />
    <use
       x="0"
       y="0"
       xlink:href="#g11248"
       id="use11510"
       transform="translate(345.78733,-49.781955)"
       width="100%"
       height="100%" />
    <use
       x="0"
       y="0"
       xlink:href="#g11248"
       id="use11512"
       transform="translate(372.44823,-34.38924)"
       width="100%"
       height="100%" />
    <use
       x="0"
       y="0"
       xlink:href="#g11248"
       id="use11514"
       transform="translate(399.10861,-18.99704)"
       width="100%"
       height="100%" />
    <use
       height="100%"
       width="100%"
       transform="translate(345.78763,-18.99682)"
       id="use11516"
       xlink:href="#g11248"
       y="0"
       x="0" />
    <use
       height="100%"
       width="100%"
       transform="translate(425.7682,-126.74435)"
       id="use11518"
       xlink:href="#g11248"
       y="0"
       x="0" />
    <use
       height="100%"
       width="100%"
       transform="translate(425.76812,-157.52897)"
       id="use11520"
       xlink:href="#g11248"
       y="0"
       x="0" />
    <use
       x="0"
       y="0"
       xlink:href="#g11248"
       id="use11522"
       transform="translate(425.76859,-65.174595)"
       width="100%"
       height="100%" />
    <use
       x="0"
       y="0"
       xlink:href="#g11248"
       id="use11524"
       transform="translate(425.76851,-95.959215)"
       width="100%"
       height="100%" />
    <use
       height="100%"
       width="100%"
       transform="translate(425.7689,-34.38946)"
       id="use11526"
       xlink:href="#g11248"
       y="0"
       x="0" />
    <use
       height="100%"
       width="100%"
       transform="translate(319.12744,-3.60492)"
       id="use11590"
       xlink:href="#g11248"
       y="0"
       x="0" />
    <use
       x="0"
       y="0"
       xlink:href="#g11248"
       id="use11592"
       transform="translate(265.80646,-3.6047)"
       width="100%"
       height="100%" />
    <use
       x="0"
       y="0"
       xlink:href="#g11248"
       id="use11594"
       transform="translate(212.4858,-3.60448)"
       width="100%"
       height="100%" />
    <use
       height="100%"
       width="100%"
       transform="translate(159.16482,-3.60426)"
       id="use11596"
       xlink:href="#g11248"
       y="0"
       x="0" />
    <use
       height="100%"
       width="100%"
       transform="translate(425.7693,-3.60484)"
       id="use11598"
       xlink:href="#g11248"
       y="0"
       x="0" />
    <use
       x="0"
       y="0"
       xlink:href="#g11248"
       id="use11600"
       transform="translate(372.44832,-3.60462)"
       width="100%"
       height="100%" />
    <use
       x="0"
       y="0"
       xlink:href="#g11248"
       id="use11602"
       transform="translate(292.46705,11.78802)"
       width="100%"
       height="100%" />
    <use
       height="100%"
       width="100%"
       transform="translate(239.14607,11.78824)"
       id="use11604"
       xlink:href="#g11248"
       y="0"
       x="0" />
    <use
       height="100%"
       width="100%"
       transform="translate(185.82541,11.78846)"
       id="use11606"
       xlink:href="#g11248"
       y="0"
       x="0" />
    <use
       x="0"
       y="0"
       xlink:href="#g11248"
       id="use11608"
       transform="translate(132.50443,11.78868)"
       width="100%"
       height="100%" />
    <use
       x="0"
       y="0"
       xlink:href="#g11248"
       id="use11610"
       transform="translate(399.10891,11.7881)"
       width="100%"
       height="100%" />
    <use
       height="100%"
       width="100%"
       transform="translate(345.78793,11.78832)"
       id="use11612"
       xlink:href="#g11248"
       y="0"
       x="0" />
    <use
       height="100%"
       width="100%"
       transform="translate(319.12774,27.18022)"
       id="use11614"
       xlink:href="#g11248"
       y="0"
       x="0" />
    <use
       x="0"
       y="0"
       xlink:href="#g11248"
       id="use11616"
       transform="translate(265.80676,27.18044)"
       width="100%"
       height="100%" />
    <use
       x="0"
       y="0"
       xlink:href="#g11248"
       id="use11618"
       transform="translate(212.4861,27.18066)"
       width="100%"
       height="100%" />
    <use
       height="100%"
       width="100%"
       transform="translate(159.16512,27.18088)"
       id="use11620"
       xlink:href="#g11248"
       y="0"
       x="0" />
    <use
       height="100%"
       width="100%"
       transform="translate(425.7696,27.1803)"
       id="use11622"
       xlink:href="#g11248"
       y="0"
       x="0" />
    <use
       x="0"
       y="0"
       xlink:href="#g11248"
       id="use11624"
       transform="translate(372.44862,27.18052)"
       width="100%"
       height="100%" />
    <use
       height="100%"
       width="100%"
       transform="translate(479.08887,-126.74458)"
       id="use11666"
       xlink:href="#g11248"
       y="0"
       x="0" />
    <use
       x="0"
       y="0"
       xlink:href="#g11248"
       id="use11668"
       transform="translate(505.74916,-142.13699)"
       width="100%"
       height="100%" />
    <use
       height="100%"
       width="100%"
       transform="translate(479.08878,-157.5292)"
       id="use11670"
       xlink:href="#g11248"
       y="0"
       x="0" />
    <use
       x="0"
       y="0"
       xlink:href="#g11248"
       id="use11672"
       transform="translate(452.42849,-142.13677)"
       width="100%"
       height="100%" />
    <use
       height="100%"
       width="100%"
       transform="translate(505.74925,-111.35238)"
       id="use11674"
       xlink:href="#g11248"
       y="0"
       x="0" />
    <use
       x="0"
       y="0"
       xlink:href="#g11248"
       id="use11676"
       transform="translate(452.42827,-111.35216)"
       width="100%"
       height="100%" />
    <use
       x="0"
       y="0"
       xlink:href="#g11248"
       id="use11678"
       transform="translate(479.08926,-65.174815)"
       width="100%"
       height="100%" />
    <use
       height="100%"
       width="100%"
       transform="translate(505.74955,-80.567235)"
       id="use11680"
       xlink:href="#g11248"
       y="0"
       x="0" />
    <use
       x="0"
       y="0"
       xlink:href="#g11248"
       id="use11682"
       transform="translate(479.08917,-95.959435)"
       width="100%"
       height="100%" />
    <use
       height="100%"
       width="100%"
       transform="translate(452.42888,-80.567015)"
       id="use11684"
       xlink:href="#g11248"
       y="0"
       x="0" />
    <use
       x="0"
       y="0"
       xlink:href="#g11248"
       id="use11686"
       transform="translate(505.74964,-49.782615)"
       width="100%"
       height="100%" />
    <use
       height="100%"
       width="100%"
       transform="translate(452.42866,-49.782395)"
       id="use11688"
       xlink:href="#g11248"
       y="0"
       x="0" />
    <use
       height="100%"
       width="100%"
       transform="translate(479.08956,-34.38968)"
       id="use11690"
       xlink:href="#g11248"
       y="0"
       x="0" />
    <use
       height="100%"
       width="100%"
       transform="translate(505.74994,-18.99748)"
       id="use11692"
       xlink:href="#g11248"
       y="0"
       x="0" />
    <use
       x="0"
       y="0"
       xlink:href="#g11248"
       id="use11694"
       transform="translate(452.42896,-18.99726)"
       width="100%"
       height="100%" />
    <use
       x="0"
       y="0"
       xlink:href="#g11248"
       id="use11696"
       transform="translate(532.40953,-126.74479)"
       width="100%"
       height="100%" />
    <use
       x="0"
       y="0"
       xlink:href="#g11248"
       id="use11698"
       transform="translate(532.40945,-157.52941)"
       width="100%"
       height="100%" />
    <use
       height="100%"
       width="100%"
       transform="translate(532.40992,-65.175035)"
       id="use11700"
       xlink:href="#g11248"
       y="0"
       x="0" />
    <use
       height="100%"
       width="100%"
       transform="translate(532.40984,-95.959655)"
       id="use11702"
       xlink:href="#g11248"
       y="0"
       x="0" />
    <use
       x="0"
       y="0"
       xlink:href="#g11248"
       id="use11704"
       transform="translate(532.41023,-34.3899)"
       width="100%"
       height="100%" />
    <use
       x="0"
       y="0"
       xlink:href="#g11248"
       id="use11706"
       transform="translate(532.41063,-3.60528)"
       width="100%"
       height="100%" />
    <use
       height="100%"
       width="100%"
       transform="translate(479.08965,-3.60506)"
       id="use11708"
       xlink:href="#g11248"
       y="0"
       x="0" />
    <use
       height="100%"
       width="100%"
       transform="translate(505.75024,11.78766)"
       id="use11710"
       xlink:href="#g11248"
       y="0"
       x="0" />
    <use
       x="0"
       y="0"
       xlink:href="#g11248"
       id="use11712"
       transform="translate(452.42926,11.78788)"
       width="100%"
       height="100%" />
    <use
       x="0"
       y="0"
       xlink:href="#g11248"
       id="use11714"
       transform="translate(532.41093,27.17986)"
       width="100%"
       height="100%" />
    <use
       height="100%"
       width="100%"
       transform="translate(479.08995,27.18008)"
       id="use11716"
       xlink:href="#g11248"
       y="0"
       x="0" />
    <g
       transform="translate(-222.68013,321.62313)"
       id="g854">
      <rect
         y="21.266367"
         x="73.13839"
         height="10.016369"
         width="10.016369"
         id="rect844"
         style="fill:#3f464c;fill-opacity:1;stroke:none;stroke-width:1.05833328;stroke-linecap:round;stroke-linejoin:round;stroke-miterlimit:4;stroke-dasharray:none;stroke-dashoffset:0;stroke-opacity:1;paint-order:normal" />
      <rect
         style="fill:#2186c4;fill-opacity:1;stroke:none;stroke-width:1.05833328;stroke-linecap:round;stroke-linejoin:round;stroke-miterlimit:4;stroke-dasharray:none;stroke-dashoffset:0;stroke-opacity:1;paint-order:normal"
         id="rect846"
         width="10.016369"
         height="10.016369"
         x="83.154762"
         y="21.266367" />
      <rect
         y="21.266367"
         x="93.171127"
         height="10.016369"
         width="10.016369"
         id="rect848"
         style="fill:#7ecefc;fill-opacity:1;stroke:none;stroke-width:1.05833328;stroke-linecap:round;stroke-linejoin:round;stroke-miterlimit:4;stroke-dasharray:none;stroke-dashoffset:0;stroke-opacity:1;paint-order:normal" />
      <rect
         style="fill:#fff6e5;fill-opacity:1;stroke:none;stroke-width:1.05833328;stroke-linecap:round;stroke-linejoin:round;stroke-miterlimit:4;stroke-dasharray:none;stroke-dashoffset:0;stroke-opacity:1;paint-order:normal"
         id="rect850"
         width="10.016369"
         height="10.016369"
         x="103.18749"
         y="21.266367" />
      <rect
         y="21.266367"
         x="113.20387"
         height="10.016369"
         width="10.016369"
         id="rect852"
         style="fill:#ff7f66;fill-opacity:1;stroke:none;stroke-width:1.05833328;stroke-linecap:round;stroke-linejoin:round;stroke-miterlimit:4;stroke-dasharray:none;stroke-dashoffset:0;stroke-opacity:1;paint-order:normal" />
    </g>
  </g>
</svg>
