<?xml version="1.0" encoding="UTF-8" standalone="no"?>
<!-- Created with Inkscape (http://www.inkscape.org/) -->

<svg
   xmlns:dc="http://purl.org/dc/elements/1.1/"
   xmlns:cc="http://creativecommons.org/ns#"
   xmlns:rdf="http://www.w3.org/1999/02/22-rdf-syntax-ns#"
   xmlns:svg="http://www.w3.org/2000/svg"
   xmlns="http://www.w3.org/2000/svg"
   xmlns:sodipodi="http://sodipodi.sourceforge.net/DTD/sodipodi-0.dtd"
   xmlns:inkscape="http://www.inkscape.org/namespaces/inkscape"
   version="1.1"
   id="svg2"
   xml:space="preserve"
   width="1400"
   height="550"
   viewBox="0 0 1400 549.99999"
   sodipodi:docname="imed.svg"
   inkscape:version="0.92.2 5c3e80d, 2017-08-06"><metadata
     id="metadata8"><rdf:RDF><cc:Work
         rdf:about=""><dc:format>image/svg+xml</dc:format><dc:type
           rdf:resource="http://purl.org/dc/dcmitype/StillImage" /><dc:title /></cc:Work></rdf:RDF></metadata><defs
     id="defs6"><clipPath
       clipPathUnits="userSpaceOnUse"
       id="clipPath20"><path
         d="M 0,595.276 H 841.89 V 0 H 0 Z"
         id="path18"
         inkscape:connector-curvature="0" /></clipPath><clipPath
       clipPathUnits="userSpaceOnUse"
       id="clipPath48"><path
         d="M 0,595.276 H 841.89 V 0 H 0 Z"
         id="path46"
         inkscape:connector-curvature="0" /></clipPath></defs><sodipodi:namedview
     pagecolor="#ffffff"
     bordercolor="#666666"
     borderopacity="1"
     objecttolerance="10"
     gridtolerance="10"
     guidetolerance="10"
     inkscape:pageopacity="0"
     inkscape:pageshadow="2"
     inkscape:window-width="1920"
     inkscape:window-height="1036"
     id="namedview4"
     showgrid="false"
     inkscape:zoom="0.59468211"
     inkscape:cx="-98.129094"
     inkscape:cy="249.38478"
     inkscape:window-x="0"
     inkscape:window-y="20"
     inkscape:window-maximized="0"
     inkscape:current-layer="g10"
     inkscape:snap-page="true"
     showguides="true"
     inkscape:guide-bbox="true"
     fit-margin-top="0"
     fit-margin-left="0"
     fit-margin-right="0"
     fit-margin-bottom="0"><sodipodi:guide
       position="500,585.18657"
       orientation="1,0"
       id="guide5139"
       inkscape:locked="false"
       inkscape:label=""
       inkscape:color="rgb(0,0,255)" /><sodipodi:guide
       position="899.99999,731.48322"
       orientation="1,0"
       id="guide5141"
       inkscape:locked="false"
       inkscape:label=""
       inkscape:color="rgb(0,0,255)" /></sodipodi:namedview><g
     id="g10"
     inkscape:groupmode="layer"
     inkscape:label="kreix_logo"
     transform="matrix(1.3333333,0,0,-1.3333333,0,550)"><path
       d="M 0,0 H 1050 V 412.50001 H 0 Z"
       style="fill:#e7f7de;fill-opacity:1;fill-rule:nonzero;stroke:none;stroke-width:1"
       id="path12"
       inkscape:connector-curvature="0" /><g
       id="g14"><g
         id="g16"
         clip-path="url(#clipPath20)"><text
           transform="matrix(1,0,0,-1,-608.709,191.542)"
           style="font-variant:normal;font-weight:900;font-stretch:expanded;font-size:36px;font-family:'HelveticaNeueLT Pro 93 BlkEx';-inkscape-font-specification:HelveticaNeueLTPro-BlkEx;writing-mode:lr-tb;fill:#414142;fill-opacity:1;fill-rule:nonzero;stroke:none"
           id="text26"><tspan
             x="0 60.875999 110.448 165.34801 198.936 255.20399 288.79199 349.73999 406.008 460.90799 495.14401 542.70001"
             y="0"
             sodipodi:role="line"
             id="tspan22">WEB &amp; MOBILE</tspan><tspan
             x="8.7840004 64.367996 113.94 163.51199 213.084 260.64001 316.90799 369.79199 430.73999 480.31201 535.896"
             y="43.200001"
             sodipodi:role="line"
             id="tspan24">DEVELOPMENT</tspan></text>
<text
           transform="matrix(1,0,0,-1,-616.773,93.55)"
           style="font-variant:normal;font-weight:900;font-stretch:normal;font-size:36px;font-family:'Univers LT Std 93 XBlk Ext';-inkscape-font-specification:UniversLTStd-XBlackEx;writing-mode:lr-tb;fill:#414142;fill-opacity:1;fill-rule:nonzero;stroke:none"
           id="text32"><tspan
             x="0 69.624001 118.764 172.332 206.35201 264.384 298.40399 367.09201 424.224 477.79199 513.612 559.224"
             y="0"
             sodipodi:role="line"
             id="tspan28">WEB &amp; MOBILE</tspan><tspan
             x="8.5679998 65.699997 114.84 170.172 219.312 264.92401 322.056 374.76001 443.448 492.58801 551.48401"
             y="43.200001"
             sodipodi:role="line"
             id="tspan30">DEVELOPMENT</tspan></text>
</g></g><g
       id="g4785"
       transform="matrix(1.64543,0,0,-1.64543,366.77874,913.88217)"
       style="stroke-width:1.7227385"><g
         id="g4690"
         style="stroke-width:1.7227385"><path
           id="path4630"
           d="m 41.787114,393.19547 a 2.30023,2.30023 0 0 0 -1.820561,0.99428 c 0,0 -1.366404,1.98133 -3.257682,4.18113 -1.891276,2.1998 -4.459973,4.5448 -5.851324,5.12115 -1.39141,0.57634 -4.867155,0.73586 -7.759732,0.51779 -2.892576,-0.21807 -5.260144,-0.65424 -5.260144,-0.65424 a 2.30023,2.30023 0 0 0 -2.679423,2.67944 c 0,0 0.436153,2.36897 0.654223,5.26169 0.21807,2.89271 0.05853,6.36674 -0.517797,7.75819 -0.576344,1.39144 -2.921065,3.96017 -5.120618,5.85131 -2.1995531,1.89114 -4.1816569,3.25768 -4.1816569,3.25768 a 2.30023,2.30023 0 0 0 0,3.78944 c 0,0 1.9819787,1.36642 4.1816569,3.25769 2.199678,1.89126 4.544251,4.45989 5.120618,5.85131 0.576359,1.39142 0.735881,4.86714 0.517797,7.75973 -0.218084,2.89258 -0.654223,5.26015 -0.654223,5.26015 a 2.30023,2.30023 0 0 0 2.679423,2.67941 c 0,0 2.36897,-0.43614 5.261694,-0.65421 2.892724,-0.21807 6.366765,-0.0585 7.758182,0.51779 1.391446,0.57637 3.960185,2.92158 5.851324,5.12114 1.891141,2.19956 3.257682,4.18166 3.257682,4.18166 a 2.30023,2.30023 0 0 0 3.789431,0 c 0,0 1.366539,-1.98199 3.257682,-4.18166 1.891141,-2.19966 4.459928,-4.54683 5.851324,-5.1232 1.391407,-0.57637 4.865598,-0.73382 7.758181,-0.51573 2.892584,0.21807 5.261695,0.65421 5.261695,0.65421 a 2.30023,2.30023 0 0 0 2.679422,-2.67941 c 0,0 -0.43615,-2.36897 -0.654222,-5.26169 -0.218069,-2.89271 -0.05853,-6.36675 0.517798,-7.75819 0.576347,-1.39147 2.921584,-3.96018 5.121134,-5.85131 2.19955,-1.89114 4.181658,-3.25769 4.181658,-3.25769 a 2.30023,2.30023 0 0 0 0,-3.78944 c 0,0 -1.984047,-1.36639 -4.183724,-3.25768 -2.199685,-1.89127 -4.544782,-4.45992 -5.121135,-5.85131 -0.576363,-1.39139 -0.733816,-4.86717 -0.515731,-7.75976 0.218088,-2.89258 0.652674,-5.26012 0.652674,-5.26012 a 2.30023,2.30023 0 0 0 -2.677874,-2.67944 c 0,0 -2.368963,0.4341 -5.261695,0.65217 -2.892729,0.21805 -6.368314,0.0606 -7.759731,-0.51572 -1.391338,-0.57629 -3.95877,-2.92148 -5.849774,-5.12115 -1.891006,-2.19966 -3.257682,-4.18113 -3.257682,-4.18113 a 2.30023,2.30023 0 0 0 -1.96887,-0.99428 z m 0.0739,2.29807 c 0,0 5.713698,8.29765 10.122898,10.12394 4.409146,1.82623 14.317471,0 14.317471,0 0,0 -1.826418,9.9078 0,14.31694 1.826366,4.40915 10.12393,10.12394 10.12393,10.12394 0,0 -8.297098,5.71418 -10.123414,10.12341 -1.82626,4.40918 0,14.31748 0,14.31748 0,0 -9.907809,-1.8264 -14.316953,0 -4.409149,1.82639 -10.123413,10.12391 -10.123413,10.12391 0,0 -5.714217,-8.2971 -10.123413,-10.12341 -4.409147,-1.82623 -14.317473,0 -14.317473,0 0,0 1.826392,-9.9078 0,-14.31695 -1.826391,-4.40917 -10.1239299,-10.12394 -10.1239299,-10.12394 0,0 8.2970989,-5.7142 10.1234129,-10.1234 1.826262,-4.40918 0,-14.31748 0,-14.31748 0,0 9.907809,1.82639 14.316955,0 4.409146,-1.82639 10.123929,-10.12444 10.123929,-10.12444 z"
           style="color:#000000;font-style:normal;font-variant:normal;font-weight:normal;font-stretch:normal;font-size:medium;line-height:normal;font-family:sans-serif;font-variant-ligatures:normal;font-variant-position:normal;font-variant-caps:normal;font-variant-numeric:normal;font-variant-alternates:normal;font-feature-settings:normal;text-indent:0;text-align:start;text-decoration:none;text-decoration-line:none;text-decoration-style:solid;text-decoration-color:#000000;letter-spacing:normal;word-spacing:normal;text-transform:none;writing-mode:lr-tb;direction:ltr;text-orientation:mixed;dominant-baseline:auto;baseline-shift:baseline;text-anchor:start;white-space:normal;shape-padding:0;clip-rule:nonzero;display:inline;overflow:visible;visibility:visible;opacity:1;isolation:auto;mix-blend-mode:normal;color-interpolation:sRGB;color-interpolation-filters:linearRGB;solid-color:#000000;solid-opacity:1;vector-effect:none;fill:#aa930a;fill-opacity:1;fill-rule:nonzero;stroke:none;stroke-width:7.92459726;stroke-linecap:round;stroke-linejoin:round;stroke-miterlimit:4;stroke-dasharray:none;stroke-dashoffset:0;stroke-opacity:1;paint-order:stroke fill markers;color-rendering:auto;image-rendering:auto;shape-rendering:auto;text-rendering:auto;enable-background:accumulate"
           inkscape:connector-curvature="0" /><g
           id="g4673"
           style="stroke-width:1.7227385"><path
             inkscape:connector-curvature="0"
             style="fill:#024930;fill-rule:evenodd;stroke:none;stroke-width:3.27320266;stroke-linecap:butt;stroke-linejoin:miter;stroke-miterlimit:4;stroke-dasharray:none;stroke-opacity:1;paint-order:stroke fill markers"
             d="m 41.861009,399.76563 c -0.922549,0 -5.819126,11.06147 -6.899836,13.7454 -1.828871,4.8596 -1.859224,7.88749 -0.228409,11.58949 1.469318,3.33542 3.699499,9.00787 4.46846,11.10215 0.419603,1.14282 0.695437,2.2178 0.855245,3.12746 1.169059,0.14266 2.380173,0.12975 3.615801,-0.0362 0.160816,-0.90218 0.434906,-1.96337 0.849043,-3.09129 0.768961,-2.09428 2.998623,-7.76673 4.467944,-11.10215 1.630815,-3.702 1.600462,-6.72989 -0.228409,-11.58949 -1.080709,-2.68393 -5.977287,-13.7454 -6.899839,-13.7454 z"
             id="path4628" /><path
             inkscape:connector-curvature="0"
             style="fill:#007a3d;fill-rule:evenodd;stroke:none;stroke-width:3.27320337;stroke-linecap:butt;stroke-linejoin:miter;stroke-miterlimit:4;stroke-dasharray:none;stroke-opacity:1;paint-order:stroke fill markers"
             d="m 31.565514,443.13714 c -0.09846,-5e-5 -0.257657,0.0592 -0.605132,0.40359 -1.409313,1.39687 -3.312152,3.79437 -2.80086,5.70455 0.67937,2.53818 3.022261,2.7327 4.4943,2.72595 1.472035,-0.007 6.293164,-0.93678 7.089489,-8.08479 -0.06632,-0.013 -0.126696,-0.0297 -0.191204,-0.0439 -0.635963,-0.10147 -1.258033,-0.24392 -1.853115,-0.42685 -0.388501,1.47103 -1.096788,3.48959 -3.232362,3.10628 -1.684025,-0.30226 -2.36837,-1.54408 -2.459281,-2.805 -0.02885,-0.40008 -0.234534,-0.5433 -0.358635,-0.56843 -0.02405,-0.005 -0.05038,-0.0114 -0.0832,-0.0114 z"
             id="path4632" /><path
             inkscape:connector-curvature="0"
             style="fill:#024930;fill-rule:evenodd;stroke:none;stroke-width:3.27320337;stroke-linecap:butt;stroke-linejoin:miter;stroke-miterlimit:4;stroke-dasharray:none;stroke-opacity:1;paint-order:stroke fill markers"
             d="m 40.435257,443.95571 c -0.13027,1.5921 -0.318265,3.09226 -0.378788,3.29538 -0.512334,1.19711 -1.332296,2.18782 -1.639692,2.76575 -0.307395,0.57785 -0.778555,2.12576 -1.290878,2.68303 -0.249433,0.2713 -0.615519,0.67974 -0.925526,1.02732 -0.175482,0.19675 -0.235606,0.45376 -0.163298,0.57825 0.103434,0.17814 0.331071,0.22222 0.497644,0.22222 0.881073,0 1.927373,-0.36216 2.845306,-1.16736 0.143457,0.10316 0.199411,0.0959 0.235645,0.11781 -0.13767,0.76621 0.231887,2.83819 1.028878,4.09329 0.456043,0.71816 0.782425,1.33776 0.980818,1.772 0.08004,0.17518 0.155302,0.22479 0.235643,0.22479 0.08034,0 0.162864,-0.0632 0.234096,-0.22016 0.198178,-0.43445 0.525166,-1.05582 0.982884,-1.77663 0.796991,-1.2551 1.166551,-3.32708 1.028878,-4.09329 0.03624,-0.022 0.09219,-0.0148 0.235645,-0.11781 0.91793,0.8052 1.964233,1.16736 2.845306,1.16736 0.166574,0 0.394208,-0.0441 0.497644,-0.22222 0.07231,-0.12449 0.0122,-0.3815 -0.163298,-0.57825 -0.310007,-0.34758 -0.676093,-0.75602 -0.925526,-1.02732 -0.512326,-0.55727 -0.983483,-2.10518 -1.290876,-2.68303 -0.307395,-0.57793 -1.127357,-1.56864 -1.639694,-2.76575 -0.06025,-0.20222 -0.247033,-1.69021 -0.377237,-3.27422 -0.933408,0.0823 -1.899868,0.0737 -2.853574,-0.0212 z"
             id="path4634" /><path
             inkscape:connector-curvature="0"
             style="fill:#215b33;fill-rule:evenodd;stroke:none;stroke-width:3.27320337;stroke-linecap:butt;stroke-linejoin:miter;stroke-miterlimit:4;stroke-dasharray:none;stroke-opacity:1;paint-order:stroke fill markers"
             d="m 35.635033,454.3623 c -0.0016,0.003 -0.02687,0.0294 -0.02687,0.0294 0.0087,0.003 0.01807,0.005 0.02687,0.008 z"
             id="path4636" /><path
             inkscape:connector-curvature="0"
             style="fill:#215b33;fill-rule:evenodd;stroke:none;stroke-width:3.27320337;stroke-linecap:butt;stroke-linejoin:miter;stroke-miterlimit:4;stroke-dasharray:none;stroke-opacity:1;paint-order:stroke fill markers"
             d="M 48.087504,454.3623 V 454.4 c 0.0088,-0.003 0.0182,-0.005 0.02687,-0.008 0,0 -0.02532,-0.0276 -0.02687,-0.0294 z"
             id="path4638" /><path
             inkscape:connector-curvature="0"
             style="fill:#007a3d;fill-rule:evenodd;stroke:none;stroke-width:3.27320337;stroke-linecap:square;stroke-linejoin:miter;stroke-miterlimit:4;stroke-dasharray:none;stroke-opacity:1;paint-order:stroke fill markers"
             d="m 20.101098,424.93566 c -8.692866,0.13478 -9.981797,9.20827 3.273702,14.40638 0.115881,0.0455 0.402823,1.8e-4 0.483692,-0.17365 0.08087,-0.17428 0.01922,-0.33234 -0.15813,-0.55708 -6.945084,-8.80118 4.893457,-7.64723 9.890352,-4.38113 3.10711,2.03091 3.778229,3.93197 3.91914,4.52117 0.570035,0.19286 1.15493,0.34425 1.75183,0.45477 -0.288284,-3.42331 -4.54034,-12.6732 -17.284214,-14.17071 -0.656184,-0.0771 -1.282427,-0.10896 -1.876372,-0.0997 z"
             id="path4640" /><path
             inkscape:connector-curvature="0"
             style="fill:#024930;fill-rule:evenodd;stroke:none;stroke-width:3.27320337;stroke-linecap:square;stroke-linejoin:miter;stroke-miterlimit:4;stroke-dasharray:none;stroke-opacity:1;paint-order:stroke fill markers"
             d="m 63.542375,424.93566 c -0.593945,-0.009 -1.22019,0.0227 -1.876372,0.0997 -12.714327,1.49405 -16.975648,10.70364 -17.281633,14.14589 0.577643,-0.10459 1.159777,-0.24217 1.745114,-0.41391 0.133261,-0.5719 0.79062,-2.4896 3.923274,-4.53721 4.996894,-3.2661 16.835437,-4.42005 9.890352,4.38113 -0.177345,0.22474 -0.239001,0.3828 -0.158131,0.55708 0.08087,0.17383 0.367811,0.21913 0.483693,0.17365 13.255501,-5.19811 11.966567,-14.2716 3.273703,-14.40638 z"
             id="path4642" /><path
             inkscape:connector-curvature="0"
             style="fill:#024930;fill-rule:evenodd;stroke:none;stroke-width:2.00699019;stroke-linecap:butt;stroke-linejoin:miter;stroke-miterlimit:4;stroke-dasharray:none;stroke-opacity:1;paint-order:stroke markers fill"
             d="m 37.139869,439.24139 c -0.530888,0.87217 -0.862704,2.41748 0.06636,3.39394 2.867927,1.08294 6.785197,1.06205 9.309578,0 0.929065,-0.97646 0.597248,-2.52177 0.06636,-3.39394 -3.299625,1.02687 -6.550198,1.02624 -9.441886,0 z"
             id="path4644" /><path
             inkscape:connector-curvature="0"
             style="fill:#024930;fill-rule:evenodd;stroke:none;stroke-width:3.27320337;stroke-linecap:butt;stroke-linejoin:miter;stroke-miterlimit:4;stroke-dasharray:none;stroke-opacity:1;paint-order:stroke fill markers"
             d="m 52.082609,443.13714 c -0.03282,3e-5 -0.05864,0.006 -0.08268,0.0114 -0.124103,0.0251 -0.330303,0.16835 -0.359153,0.56843 -0.09091,1.26092 -0.77474,2.50274 -2.458763,2.805 -2.116865,0.37995 -2.831224,-1.59948 -3.222027,-3.06699 -0.641675,0.20471 -1.331388,0.35798 -2.051555,0.4537 0.804037,7.12716 5.615924,8.05556 7.086391,8.06257 1.472036,0.007 3.814411,-0.18777 4.493781,-2.72595 0.511292,-1.91018 -1.391547,-4.30768 -2.80086,-5.70455 -0.347475,-0.34438 -0.506672,-0.40364 -0.605132,-0.40359 z"
             id="path4646" /><path
             inkscape:connector-curvature="0"
             style="fill:#007a3d;fill-rule:evenodd;stroke:none;stroke-width:3.27320266;stroke-linecap:butt;stroke-linejoin:miter;stroke-miterlimit:4;stroke-dasharray:none;stroke-opacity:1;paint-order:stroke fill markers"
             d="m 41.861009,399.76563 c -0.922549,0 -5.819126,11.06149 -6.899836,13.7454 -1.828871,4.8596 -1.859224,7.88749 -0.228409,11.58949 1.469318,3.33542 3.699499,9.00787 4.46846,11.10215 0.419603,1.14282 0.695437,2.2178 0.855245,3.12746 0.591513,0.0722 1.193768,0.1043 1.80454,0.0971 z"
             id="path4648" /><path
             inkscape:connector-curvature="0"
             style="fill:#007a3d;fill-rule:evenodd;stroke:none;stroke-width:3.27320337;stroke-linecap:butt;stroke-linejoin:miter;stroke-miterlimit:4;stroke-dasharray:none;stroke-opacity:1;paint-order:stroke fill markers"
             d="m 40.435257,443.95571 c -0.13027,1.59207 -0.318265,3.09226 -0.378788,3.29538 -0.512334,1.19711 -1.332296,2.18782 -1.639692,2.76575 -0.307395,0.57785 -0.778555,2.12576 -1.290878,2.68303 -0.249433,0.2713 -0.615519,0.67974 -0.925526,1.02732 -0.175482,0.19675 -0.235606,0.45376 -0.163298,0.57825 0.103436,0.17814 0.331073,0.22222 0.497644,0.22222 0.881073,0 1.927373,-0.36216 2.845306,-1.16736 0.143457,0.10316 0.199411,0.0959 0.235645,0.11781 -0.13767,0.76621 0.231887,2.83819 1.028878,4.09329 0.456041,0.71816 0.782425,1.33774 0.980818,1.772 0.08004,0.17518 0.155302,0.22479 0.235643,0.22479 v -15.53602 c -0.474609,-0.004 -0.95182,-0.0293 -1.425752,-0.0765 z"
             id="path4650" /><path
             inkscape:connector-curvature="0"
             style="fill:#215b33;fill-rule:evenodd;stroke:none;stroke-width:3.27320337;stroke-linecap:butt;stroke-linejoin:miter;stroke-miterlimit:4;stroke-dasharray:none;stroke-opacity:1;paint-order:stroke fill markers"
             d="m 35.635033,454.3623 c -0.0016,0.003 -0.02687,0.0294 -0.02687,0.0294 0.0087,0.003 0.01807,0.005 0.02687,0.008 z"
             id="path4653" /><path
             inkscape:connector-curvature="0"
             style="fill:#007a3d;fill-rule:evenodd;stroke:none;stroke-width:2.00699019;stroke-linecap:butt;stroke-linejoin:miter;stroke-miterlimit:4;stroke-dasharray:none;stroke-opacity:1;paint-order:stroke markers fill"
             d="m 37.13985,439.24126 c -0.290271,0.47688 -0.51908,1.15506 -0.516763,1.83142 3.230137,1.06423 6.822202,1.06082 10.475847,-0.0124 -5.19e-4,-0.67223 -0.228264,-1.34504 -0.516766,-1.81901 -3.299624,1.02687 -6.550112,1.02624 -9.441799,0 z"
             id="path4655" /></g></g><g
         id="g4752"
         style="stroke-width:1.7227385"><g
           id="g4726"
           style="stroke-width:1.7227385"><path
             id="path4657"
             style="font-style:normal;font-variant:normal;font-weight:bold;font-stretch:normal;font-size:medium;line-height:125%;font-family:'Futura Std';-inkscape-font-specification:'Futura Std weight=760';text-align:start;letter-spacing:-1.30656958px;word-spacing:0px;text-anchor:start;fill:#024930;fill-opacity:1;stroke:none;stroke-width:0.45580783px;stroke-linecap:butt;stroke-linejoin:miter;stroke-opacity:1"
             d="m 97.938631,403.2461 h -7.959968 v 30.62152 h 7.959968 z"
             inkscape:connector-curvature="0" /><path
             id="path4659"
             style="font-style:normal;font-variant:normal;font-weight:bold;font-stretch:normal;font-size:medium;line-height:125%;font-family:'Futura Std';-inkscape-font-specification:'Futura Std weight=760';text-align:start;letter-spacing:-1.30656958px;word-spacing:0px;text-anchor:start;fill:#024930;fill-opacity:1;stroke:none;stroke-width:0.45580783px;stroke-linecap:butt;stroke-linejoin:miter;stroke-opacity:1"
             d="m 99.670246,433.86762 h 7.919354 l 2.55857,-17.62565 h 0.0812 l 7.02589,17.62565 h 3.16775 l 7.35078,-17.62565 h 0.0812 l 2.23367,17.62565 h 7.95997 l -4.62978,-30.62152 h -7.91935 l -6.57916,16.36667 -6.21365,-16.36667 h -7.83814 z"
             inkscape:connector-curvature="0" /><path
             id="path4661"
             style="font-style:normal;font-variant:normal;font-weight:bold;font-stretch:normal;font-size:medium;line-height:125%;font-family:'Futura Std';-inkscape-font-specification:'Futura Std weight=760';text-align:start;letter-spacing:-1.30656958px;word-spacing:0px;text-anchor:start;fill:#024930;fill-opacity:1;stroke:none;stroke-width:0.45580783px;stroke-linecap:butt;stroke-linejoin:miter;stroke-opacity:1"
             d="m 157.17051,409.98771 v -6.74161 h -17.4226 v 30.62152 h 17.4226 v -6.74161 h -9.46262 v -5.27957 h 8.97526 v -6.74161 h -8.97526 v -5.11712 z"
             inkscape:connector-curvature="0" /><path
             id="path4663"
             style="font-style:normal;font-variant:normal;font-weight:bold;font-stretch:normal;font-size:medium;line-height:125%;font-family:'Futura Std';-inkscape-font-specification:'Futura Std weight=760';text-align:start;letter-spacing:-1.30656958px;word-spacing:0px;text-anchor:start;fill:#024930;fill-opacity:1;stroke:none;stroke-width:0.45580783px;stroke-linecap:butt;stroke-linejoin:miter;stroke-opacity:1"
             d="m 160.46822,433.86762 h 11.29016 c 8.48792,0 15.55443,-6.701 15.55443,-15.31077 0,-8.60976 -7.02589,-15.31075 -15.55443,-15.31075 h -11.29016 z m 7.95997,-23.87991 h 1.86816 c 5.11711,0 8.73159,3.08652 8.73159,8.56914 0,5.96998 -4.06121,8.56916 -8.81282,8.56916 h -1.78693 z"
             inkscape:connector-curvature="0" /></g><g
           id="g4736"
           style="stroke-width:1.7227385"><path
             id="path4667"
             style="font-style:normal;font-variant:normal;font-weight:normal;font-stretch:normal;font-size:medium;line-height:125%;font-family:'Futura Std';-inkscape-font-specification:'Futura Std';text-align:start;letter-spacing:-1.47381043px;word-spacing:0px;text-anchor:start;fill:#024930;fill-opacity:1;stroke:none;stroke-width:0.45580783px;stroke-linecap:butt;stroke-linejoin:miter;stroke-opacity:1"
             d="m 99.242996,441.82111 c -0.921234,-1.70427 -2.55642,-2.6946 -4.491009,-2.6946 -2.579451,0 -4.859503,1.72731 -4.859503,4.42192 0,2.48732 1.750342,3.52371 3.777054,4.44494 l 1.059418,0.46062 c 1.612157,0.73698 3.201286,1.42791 3.201286,3.45463 0,1.95762 -1.704282,3.38552 -3.569779,3.38552 -1.865496,0 -3.224314,-1.45094 -3.477653,-3.22431 l -1.888528,0.52971 c 0.55274,2.6946 2.625514,4.49101 5.412243,4.49101 3.017037,0 5.458302,-2.32611 5.458302,-5.36618 0,-2.7637 -1.911559,-3.89221 -4.168577,-4.88254 l -1.15154,-0.50667 c -1.174572,-0.52971 -2.717637,-1.22064 -2.717637,-2.71764 0,-1.58913 1.335788,-2.69461 2.878853,-2.69461 1.473972,0 2.303082,0.69093 2.994005,1.88853 z"
             inkscape:connector-curvature="0" /><path
             id="path4669"
             style="font-style:normal;font-variant:normal;font-weight:normal;font-stretch:normal;font-size:medium;line-height:125%;font-family:'Futura Std';-inkscape-font-specification:'Futura Std';text-align:start;letter-spacing:-1.47381043px;word-spacing:0px;text-anchor:start;fill:#024930;fill-opacity:1;stroke:none;stroke-width:0.45580783px;stroke-linecap:butt;stroke-linejoin:miter;stroke-opacity:1"
             d="m 103.52255,439.42591 h -1.93459 v 10.87055 c 0,1.98064 0.18425,3.56978 1.70428,5.02071 1.17457,1.15155 2.85582,1.77338 4.49101,1.77338 1.75034,0 3.47766,-0.69092 4.67525,-1.98065 1.38186,-1.42792 1.52004,-2.92491 1.52004,-4.81344 v -10.87055 h -1.93459 v 10.34084 c 0,1.35882 0.0691,2.87885 -0.85213,3.98433 -0.80609,0.96729 -2.16491,1.54306 -3.40857,1.54306 -1.26669,0 -2.74067,-0.5988 -3.50068,-1.65821 -0.80608,-1.10548 -0.76002,-2.57945 -0.76002,-3.86918 z"
             inkscape:connector-curvature="0" /><path
             id="path4671"
             style="font-style:normal;font-variant:normal;font-weight:normal;font-stretch:normal;font-size:medium;line-height:125%;font-family:'Futura Std';-inkscape-font-specification:'Futura Std';text-align:start;letter-spacing:-1.47381043px;word-spacing:0px;text-anchor:start;fill:#024930;fill-opacity:1;stroke:none;stroke-width:0.45580783px;stroke-linecap:butt;stroke-linejoin:miter;stroke-opacity:1"
             d="m 118.30308,441.22231 h 0.57577 c 2.32611,0 4.42192,0.27637 4.42192,3.13219 0,2.69461 -2.21096,3.10917 -4.39889,3.10917 h -0.5988 z m 0,7.94564 h 0.48364 l 5.25103,7.6232 h 2.37217 l -5.52739,-7.78442 c 2.67157,-0.23031 4.35282,-2.11884 4.35282,-4.79041 0,-3.91524 -3.06309,-4.79041 -6.3565,-4.79041 h -2.51036 v 17.36524 h 1.93459 z"
             inkscape:connector-curvature="0" /><path
             id="path4676"
             style="font-style:normal;font-variant:normal;font-weight:normal;font-stretch:normal;font-size:medium;line-height:125%;font-family:'Futura Std';-inkscape-font-specification:'Futura Std';text-align:start;letter-spacing:-1.47381043px;word-spacing:0px;text-anchor:start;fill:#024930;fill-opacity:1;stroke:none;stroke-width:0.45580783px;stroke-linecap:butt;stroke-linejoin:miter;stroke-opacity:1"
             d="m 136.73219,448.06246 v 1.79641 h 5.1589 c 0,3.22432 -3.17825,5.43527 -6.19529,5.43527 -1.81943,0 -3.66189,-0.94426 -4.92859,-2.21095 -1.28973,-1.31276 -2.02672,-3.06311 -2.02672,-4.90557 0,-3.91524 3.1322,-7.25471 7.0935,-7.25471 2.55642,0 4.51404,1.22064 5.96498,3.27038 l 1.40488,-1.31276 c -1.84246,-2.39521 -4.30676,-3.75402 -7.34683,-3.75402 -4.99769,0 -9.05111,4.05342 -9.05111,9.02808 0,4.88253 4.05342,8.93596 8.93596,8.93596 2.41823,0 4.83647,-1.05942 6.42559,-2.90189 1.58913,-1.84246 1.84247,-3.77705 1.79641,-6.1262 z"
             inkscape:connector-curvature="0" /><path
             id="path4678"
             style="font-style:normal;font-variant:normal;font-weight:normal;font-stretch:normal;font-size:medium;line-height:125%;font-family:'Futura Std';-inkscape-font-specification:'Futura Std';text-align:start;letter-spacing:-1.47381043px;word-spacing:0px;text-anchor:start;fill:#024930;fill-opacity:1;stroke:none;stroke-width:0.45580783px;stroke-linecap:butt;stroke-linejoin:miter;stroke-opacity:1"
             d="m 147.63814,439.42591 h -1.93458 v 17.36524 h 1.93458 z"
             inkscape:connector-curvature="0" /><path
             id="path4682"
             style="font-style:normal;font-variant:normal;font-weight:normal;font-stretch:normal;font-size:medium;line-height:125%;font-family:'Futura Std';-inkscape-font-specification:'Futura Std';text-align:start;letter-spacing:-1.47381043px;word-spacing:0px;text-anchor:start;fill:#024930;fill-opacity:1;stroke:none;stroke-width:0.45580783px;stroke-linecap:butt;stroke-linejoin:miter;stroke-opacity:1"
             d="m 163.33379,440.83079 c -1.54307,-1.15154 -3.24735,-1.70428 -5.18194,-1.70428 -4.97465,0 -9.05111,4.07646 -9.05111,9.05111 0,4.92859 4.14555,8.91293 9.05111,8.91293 1.84246,0 3.68493,-0.62183 5.18194,-1.70428 v -2.39521 c -1.38185,1.38185 -3.29341,2.30308 -5.25103,2.30308 -3.89221,0 -7.04743,-3.3625 -7.04743,-7.18561 0,-3.82312 3.13219,-7.18562 7.00136,-7.18562 2.00369,0 3.91525,0.87518 5.2971,2.30308 z"
             inkscape:connector-curvature="0" /><path
             id="path4684"
             style="font-style:normal;font-variant:normal;font-weight:normal;font-stretch:normal;font-size:medium;line-height:125%;font-family:'Futura Std';-inkscape-font-specification:'Futura Std';text-align:start;letter-spacing:-1.47381043px;word-spacing:0px;text-anchor:start;fill:#024930;fill-opacity:1;stroke:none;stroke-width:0.45580783px;stroke-linecap:butt;stroke-linejoin:miter;stroke-opacity:1"
             d="m 175.56365,451.86255 2.04974,4.9286 h 2.14187 l -7.80745,-18.19435 -8.01473,18.19435 h 2.11884 l 2.09581,-4.9286 z m -0.76002,-1.7964 h -5.87286 l 2.97098,-6.95531 z"
             inkscape:connector-curvature="0" /><path
             id="path4687"
             style="font-style:normal;font-variant:normal;font-weight:normal;font-stretch:normal;font-size:medium;line-height:125%;font-family:'Futura Std';-inkscape-font-specification:'Futura Std';text-align:start;letter-spacing:-1.47381043px;word-spacing:0px;text-anchor:start;fill:#024930;fill-opacity:1;stroke:none;stroke-width:0.45580783px;stroke-linecap:butt;stroke-linejoin:miter;stroke-opacity:1"
             d="m 182.52918,439.42591 h -1.93459 v 17.36524 h 6.725 v -1.7964 h -4.79041 z"
             inkscape:connector-curvature="0" /></g></g></g></g></svg>