<?xml version="1.0" encoding="UTF-8" standalone="no"?>
<!-- Created with Inkscape (http://www.inkscape.org/) -->

<svg
   xmlns:dc="http://purl.org/dc/elements/1.1/"
   xmlns:cc="http://creativecommons.org/ns#"
   xmlns:rdf="http://www.w3.org/1999/02/22-rdf-syntax-ns#"
   xmlns:svg="http://www.w3.org/2000/svg"
   xmlns="http://www.w3.org/2000/svg"
   xmlns:sodipodi="http://sodipodi.sourceforge.net/DTD/sodipodi-0.dtd"
   xmlns:inkscape="http://www.inkscape.org/namespaces/inkscape"
   version="1.1"
   id="svg2"
   xml:space="preserve"
   width="1400"
   height="1400"
   viewBox="0 0 1400 1400"
   sodipodi:docname="thumbnail.svg"
   inkscape:version="0.92.2 5c3e80d, 2017-08-06"><metadata
     id="metadata8"><rdf:RDF><cc:Work
         rdf:about=""><dc:format>image/svg+xml</dc:format><dc:type
           rdf:resource="http://purl.org/dc/dcmitype/StillImage" /><dc:title /></cc:Work></rdf:RDF></metadata><defs
     id="defs6"><clipPath
       clipPathUnits="userSpaceOnUse"
       id="clipPath20"><path
         d="M 0,595.276 H 841.89 V 0 H 0 Z"
         id="path18"
         inkscape:connector-curvature="0" /></clipPath><clipPath
       clipPathUnits="userSpaceOnUse"
       id="clipPath48"><path
         d="M 0,595.276 H 841.89 V 0 H 0 Z"
         id="path46"
         inkscape:connector-curvature="0" /></clipPath></defs><sodipodi:namedview
     pagecolor="#ffffff"
     bordercolor="#666666"
     borderopacity="1"
     objecttolerance="10"
     gridtolerance="10"
     guidetolerance="10"
     inkscape:pageopacity="0"
     inkscape:pageshadow="2"
     inkscape:window-width="1920"
     inkscape:window-height="1036"
     id="namedview4"
     showgrid="false"
     inkscape:zoom="0.29734105"
     inkscape:cx="-288.01409"
     inkscape:cy="467.95131"
     inkscape:window-x="0"
     inkscape:window-y="20"
     inkscape:window-maximized="0"
     inkscape:current-layer="g10"
     inkscape:snap-page="true"
     showguides="true"
     inkscape:guide-bbox="true"
     fit-margin-top="0"
     fit-margin-left="0"
     fit-margin-right="0"
     fit-margin-bottom="0"
     inkscape:snap-global="false" /><g
     id="g10"
     inkscape:groupmode="layer"
     inkscape:label="kreix_logo"
     transform="matrix(1.3333333,0,0,-1.3333333,499.401,900.59903)"><path
       d="M -374.55076,-374.55078 H 675.44927 V 675.44929 H -374.55076 Z"
       style="fill:#225378;fill-opacity:1;fill-rule:nonzero;stroke:none;stroke-width:1"
       id="path12"
       inkscape:connector-curvature="0" /><g
       id="g14"><g
         id="g16"
         clip-path="url(#clipPath20)"><text
           transform="matrix(1,0,0,-1,-608.709,191.542)"
           style="font-variant:normal;font-weight:900;font-stretch:expanded;font-size:36px;font-family:'HelveticaNeueLT Pro 93 BlkEx';-inkscape-font-specification:HelveticaNeueLTPro-BlkEx;writing-mode:lr-tb;fill:#414142;fill-opacity:1;fill-rule:nonzero;stroke:none"
           id="text26"><tspan
             x="0 60.875999 110.448 165.34801 198.936 255.20399 288.79199 349.73999 406.008 460.90799 495.14401 542.70001"
             y="0"
             sodipodi:role="line"
             id="tspan22">WEB &amp; MOBILE</tspan><tspan
             x="8.7840004 64.367996 113.94 163.51199 213.084 260.64001 316.90799 369.79199 430.73999 480.31201 535.896"
             y="43.200001"
             sodipodi:role="line"
             id="tspan24">DEVELOPMENT</tspan></text>
<text
           transform="matrix(1,0,0,-1,-616.773,93.55)"
           style="font-variant:normal;font-weight:900;font-stretch:normal;font-size:36px;font-family:'Univers LT Std 93 XBlk Ext';-inkscape-font-specification:UniversLTStd-XBlackEx;writing-mode:lr-tb;fill:#414142;fill-opacity:1;fill-rule:nonzero;stroke:none"
           id="text32"><tspan
             x="0 69.624001 118.764 172.332 206.35201 264.384 298.40399 367.09201 424.224 477.79199 513.612 559.224"
             y="0"
             sodipodi:role="line"
             id="tspan28">WEB &amp; MOBILE</tspan><tspan
             x="8.5679998 65.699997 114.84 170.172 219.312 264.92401 322.056 374.76001 443.448 492.58801 551.48401"
             y="43.200001"
             sodipodi:role="line"
             id="tspan30">DEVELOPMENT</tspan></text>
</g></g><g
       id="g949"
       style="fill:#f2f2f2;stroke-width:0.33074337"
       transform="matrix(3.0234922,0,0,3.0234922,-2743.042,-515.49888)"><path
         inkscape:connector-curvature="0"
         id="path887"
         style="font-style:normal;font-variant:normal;font-weight:normal;font-stretch:normal;font-size:medium;line-height:77.900177px;font-family:Unit-Black;-inkscape-font-specification:Unit-Black;text-align:start;letter-spacing:0px;word-spacing:0px;text-anchor:start;fill:#f2f2f2;fill-opacity:1;stroke:none;stroke-width:0.24805753px;stroke-linecap:butt;stroke-linejoin:miter;stroke-opacity:1"
         d="m 223.17436,233.28708 q -3.58693,0 -6.23441,1.53724 -2.64749,1.53726 -4.35554,3.50151 l -0.93944,-3.92852 h -11.61478 v 62.77108 h 14.09146 v -21.1799 q 0.42701,0.42702 1.28105,1.02484 0.93943,0.59781 2.13508,1.19563 1.28103,0.59782 2.73289,0.93944 1.53724,0.42701 3.1599,0.42701 3.58691,0 6.3198,-1.11024 2.73289,-1.02483 4.52636,-3.58692 1.87885,-2.47668 2.73289,-6.74683 0.93943,-4.18473 0.93943,-10.50453 0,-7.25925 -0.93943,-11.95641 -0.93944,-4.69716 -2.81829,-7.51545 -1.87887,-2.73289 -4.69716,-3.75772 -2.73289,-1.11023 -6.31981,-1.11023 z m -5.03877,11.10237 q 1.53725,0 2.47669,0.51241 0.93942,0.59782 1.45184,1.96427 0.51241,1.45184 0.59781,3.84312 0.17081,2.47668 0.17081,6.2344 0,3.58693 -0.17081,5.8074 -0.0854,2.22047 -0.59781,3.50152 -0.42702,1.28104 -1.28104,1.70805 -0.85404,0.51243 -2.22048,0.51243 -1.70806,0 -2.73289,-0.42703 -1.02483,-0.42701 -1.70806,-1.02483 v -21.0945 q 0.59782,-0.51242 1.53726,-1.02483 0.93943,-0.51241 2.47668,-0.51241 z" /><path
         inkscape:connector-curvature="0"
         id="path889"
         style="font-style:normal;font-variant:normal;font-weight:normal;font-stretch:normal;font-size:medium;line-height:77.900177px;font-family:Unit-Black;-inkscape-font-specification:Unit-Black;text-align:start;letter-spacing:0px;word-spacing:0px;text-anchor:start;fill:#f2f2f2;fill-opacity:1;stroke:none;stroke-width:0.24805753px;stroke-linecap:butt;stroke-linejoin:miter;stroke-opacity:1"
         d="m 244.56643,278.46517 h 11.61479 l 1.02484,-4.52634 q 1.79345,2.64749 4.35553,3.92852 2.56209,1.28105 5.46579,1.28105 1.19564,0 2.39128,-0.17082 1.19564,-0.1708 1.87886,-0.34161 l -2.64749,-13.83525 q -0.93942,0.68322 -2.30587,1.11024 -1.28104,0.42701 -2.9037,0.42701 -1.79346,0 -2.81829,-0.2562 -1.02483,-0.25621 -1.96427,-0.76864 v -30.91582 h -14.09147 z" /><path
         inkscape:connector-curvature="0"
         id="path891"
         style="font-style:normal;font-variant:normal;font-weight:normal;font-stretch:normal;font-size:medium;line-height:77.900177px;font-family:Unit-Black;-inkscape-font-specification:Unit-Black;text-align:start;letter-spacing:0px;word-spacing:0px;text-anchor:start;fill:#f2f2f2;fill-opacity:1;stroke:none;stroke-width:0.24805753px;stroke-linecap:butt;stroke-linejoin:miter;stroke-opacity:1"
         d="m 286.85684,233.28708 q -3.58691,0 -6.06359,1.02483 -2.47669,1.02483 -4.01393,2.90369 -1.53726,1.96427 -2.22048,4.52636 -0.68322,2.64749 -0.68322,5.89279 0,7.68626 4.61175,10.93156 4.61175,3.33071 14.00607,3.33071 h 2.30587 v 0.85403 q 0,3.07451 -0.85403,4.35554 -0.76862,1.28105 -3.41611,1.28105 -3.0745,0 -5.80739,-1.19564 -2.73289,-1.11023 -5.12417,-2.56209 l -5.03877,9.30892 q 3.75772,2.73289 7.85706,4.18473 4.18474,1.45185 9.47971,1.45185 4.52636,0 7.68626,-0.76863 3.24531,-0.76862 5.29498,-2.56209 2.04967,-1.70805 2.98909,-4.52634 1.02485,-2.81829 1.02485,-6.83223 v -30.48881 h -11.10237 q -0.0854,0 -0.42703,0.93943 -0.2562,0.93944 -0.68321,2.13507 -1.70807,-1.70805 -4.01393,-2.9891 -2.30588,-1.19563 -5.80741,-1.19563 z m 4.27015,9.3943 q 1.19564,0 2.04967,0.25621 0.85403,0.34161 1.62265,0.85403 v 9.73592 q -2.30587,0 -3.75772,-0.34161 -1.36644,-0.34161 -2.13507,-1.11023 -0.76863,-0.68323 -1.02483,-1.79346 -0.25621,-1.02484 -0.25621,-2.47668 0,-2.8183 0.76862,-4.01394 0.76862,-1.11024 2.73289,-1.11024 z" /><path
         inkscape:connector-curvature="0"
         id="path893"
         style="font-style:normal;font-variant:normal;font-weight:normal;font-stretch:normal;font-size:medium;line-height:77.900177px;font-family:Unit-Black;-inkscape-font-specification:Unit-Black;text-align:start;letter-spacing:0px;word-spacing:0px;text-anchor:start;fill:#f2f2f2;fill-opacity:1;stroke:none;stroke-width:0.24805753px;stroke-linecap:butt;stroke-linejoin:miter;stroke-opacity:1"
         d="m 316.79188,278.46517 h 11.61478 l 0.93942,-3.75772 q 2.22048,2.13507 4.95337,3.50151 2.81829,1.36645 7.08844,1.36645 5.9782,0 8.79649,-2.81829 2.9037,-2.73289 2.9037,-9.99214 v -32.36767 h -14.09147 v 29.46398 q 0,2.9891 -1.11024,3.75772 -1.02483,0.85404 -2.47667,0.85404 -1.70807,0 -2.56209,-0.34163 -0.76863,-0.2562 -1.96427,-1.11023 v -32.62388 h -14.09146 z" /><path
         inkscape:connector-curvature="0"
         id="path895"
         style="font-style:normal;font-variant:normal;font-weight:normal;font-stretch:normal;font-size:medium;line-height:77.900177px;font-family:Unit-Black;-inkscape-font-specification:Unit-Black;text-align:start;letter-spacing:0px;word-spacing:0px;text-anchor:start;fill:#f2f2f2;fill-opacity:1;stroke:none;stroke-width:0.24805753px;stroke-linecap:butt;stroke-linejoin:miter;stroke-opacity:1"
         d="m 374.65896,233.28708 q -3.58691,0 -6.49061,1.11023 -2.81829,1.19563 -4.78256,3.84312 -1.87887,2.64749 -2.9037,6.91764 -1.02483,4.35555 -1.02483,10.76075 0,7.17385 0.85403,11.78559 0.93943,4.61176 2.73289,7.25925 1.79346,2.64748 4.44095,3.58691 2.73289,1.02484 6.31981,1.02484 3.41611,0 5.72199,-1.28105 2.39128,-1.19563 3.75772,-2.39128 v 21.26531 h 14.09147 v -62.77108 h -11.61479 l -0.93943,3.92852 q -2.47668,-2.47667 -4.69716,-3.75772 -2.22047,-1.28103 -5.46578,-1.28103 z m 4.18475,11.10237 q 1.70804,0 2.73289,0.42701 1.02483,0.42701 1.70805,1.02483 v 21.0945 q -0.59782,0.51241 -1.53725,1.02483 -0.93944,0.51243 -2.47668,0.51243 -1.53726,0 -2.47669,-0.59783 -0.93942,-0.51242 -1.45185,-1.96426 -0.51241,-1.36645 -0.68322,-3.84313 -0.0854,-2.39129 -0.0854,-6.14901 0,-3.58691 0.0854,-5.80739 0.17081,-2.22047 0.59782,-3.50151 0.51243,-1.28105 1.28105,-1.79346 0.85402,-0.42701 2.30588,-0.42701 z" /><path
         inkscape:connector-curvature="0"
         id="path897"
         style="font-style:normal;font-variant:normal;font-weight:normal;font-stretch:normal;font-size:medium;line-height:77.900177px;font-family:Unit-Black;-inkscape-font-specification:Unit-Black;text-align:start;letter-spacing:0px;word-spacing:0px;text-anchor:start;fill:#f2f2f2;fill-opacity:1;stroke:none;stroke-width:0.24805753px;stroke-linecap:butt;stroke-linejoin:miter;stroke-opacity:1"
         d="m 419.19521,233.28708 q -5.72199,0 -9.99214,1.11023 -4.18473,1.19563 -6.91762,2.64749 l 4.09933,10.67535 q 1.96427,-1.19564 4.52635,-2.04967 2.56209,-0.85402 5.29498,-0.85402 2.47668,0 3.75772,0.59781 1.36645,0.59782 1.36645,2.22048 0,0.85403 -0.34161,1.45184 -0.34161,0.59783 -1.19564,1.02484 -0.76863,0.42702 -2.04966,0.85403 -1.28105,0.42701 -3.15992,1.02484 -2.47668,0.76862 -4.35554,1.79345 -1.87886,1.11025 -3.1599,2.73289 -1.28105,1.62266 -1.96427,3.84314 -0.68322,2.22046 -0.68322,5.20957 0,7.34464 4.18474,10.67534 4.27014,3.33072 11.27317,3.33072 4.86796,0 7.94246,-0.76863 3.1599,-0.68322 6.14902,-1.96426 l -3.15992,-10.50455 q -4.01393,2.04967 -9.2235,2.04967 -1.36645,0 -2.30588,-0.59783 -0.93943,-0.59781 -0.93943,-2.04965 0,-0.85404 0.17081,-1.36646 0.25621,-0.51241 0.85402,-0.85402 0.59782,-0.34161 1.62266,-0.68322 1.11023,-0.34162 2.73289,-0.76863 2.56209,-0.68322 4.69716,-1.70805 2.22047,-0.93944 3.75772,-2.47669 1.53725,-1.53725 2.39128,-3.84313 0.93943,-2.22048 0.93943,-5.63659 0,-6.91762 -3.84312,-11.01696 -3.84314,-4.09933 -12.46882,-4.09933 z" /><path
         inkscape:connector-curvature="0"
         id="path899"
         style="font-style:normal;font-variant:normal;font-weight:normal;font-stretch:normal;font-size:medium;line-height:77.900177px;font-family:Unit-Black;-inkscape-font-specification:Unit-Black;text-align:start;letter-spacing:0px;word-spacing:0px;text-anchor:start;fill:#f2f2f2;fill-opacity:1;stroke:none;stroke-width:0.24805753px;stroke-linecap:butt;stroke-linejoin:miter;stroke-opacity:1"
         d="m 217.37072,159.37493 q -4.78256,0 -8.7111,1.02483 -3.92852,1.02483 -6.66141,3.1599 -2.7329,2.13507 -4.27015,5.38038 -1.45184,3.2453 -1.45184,7.77166 0,6.149 2.98909,9.99213 3.07451,3.92853 9.0527,6.40521 -2.81829,3.15991 -3.92852,6.31981 -1.11025,3.24532 -1.11025,6.57602 0,6.66142 4.35555,10.84616 4.35555,4.27014 12.55422,4.27014 7.60085,0 11.87099,-4.09933 4.27015,-4.01394 4.27015,-10.50455 0,-2.64749 -0.85404,-4.78256 -0.76862,-2.04967 -2.22047,-3.84313 -1.45184,-1.70806 -3.50152,-3.1599 -2.04967,-1.36645 -4.61175,-2.64749 l 7.77166,-9.65052 q 0.93944,1.96427 1.70806,4.18474 0.76862,2.22047 1.45184,4.69715 l 10.16294,-3.1599 q -1.19563,-4.09933 -2.64749,-7.85707 -1.45184,-3.75772 -3.33071,-7.00302 l 10.41915,-12.81043 h -17.67839 l -1.96426,2.47668 q -2.73289,-1.70806 -6.14901,-2.64749 -3.41611,-0.93942 -7.51544,-0.93942 z m 1.53724,10.76076 q 2.8183,0 5.46579,1.45184 l -10.50456,13.40824 q -1.45184,-1.11023 -1.96425,-2.81829 -0.51243,-1.62266 -0.51243,-4.35555 0,-3.92852 1.96427,-5.80739 1.96427,-1.87885 5.55118,-1.87885 z m -2.39128,36.12539 q 0,-2.04967 0.59782,-3.41611 0.59783,-1.36645 1.70806,-2.81829 l 1.19565,-1.53726 q 2.56208,1.96427 3.2453,3.50151 0.76863,1.62266 0.76863,4.01394 0,2.22048 -0.76863,3.50152 -0.68322,1.36645 -2.90369,1.36645 -2.13508,0 -2.9891,-1.19565 -0.85404,-1.19563 -0.85404,-3.41611 z" /><path
         inkscape:connector-curvature="0"
         id="path901"
         style="font-style:normal;font-variant:normal;font-weight:normal;font-stretch:normal;font-size:medium;line-height:77.900177px;font-family:Unit-Black;-inkscape-font-specification:Unit-Black;text-align:start;letter-spacing:0px;word-spacing:0px;text-anchor:start;fill:#f2f2f2;fill-opacity:1;stroke:none;stroke-width:0.24805753px;stroke-linecap:butt;stroke-linejoin:miter;stroke-opacity:1"
         d="m 286.50298,159.46033 q -4.01394,0 -6.40522,0.93943 -2.30586,0.93942 -3.58691,2.81829 -1.19564,1.87887 -1.53725,4.69716 -0.34162,2.9037 -0.34162,6.74682 v 48.59421 h 14.09148 v -49.36283 q 0,-1.45186 0.0854,-2.30588 0.0854,-0.76862 0.42701,-1.19564 0.42701,-0.34161 1.02483,-0.42701 0.68322,-0.0854 1.87886,-0.0854 h 0.76863 l 1.28104,-8.96729 q -1.02484,-0.42701 -3.0745,-0.93943 -2.04967,-0.51241 -4.61175,-0.51241 z" /><path
         inkscape:connector-curvature="0"
         id="path903"
         style="font-style:normal;font-variant:normal;font-weight:normal;font-stretch:normal;font-size:medium;line-height:77.900177px;font-family:Unit-Black;-inkscape-font-specification:Unit-Black;text-align:start;letter-spacing:0px;word-spacing:0px;text-anchor:start;fill:#f2f2f2;fill-opacity:1;stroke:none;stroke-width:0.24805753px;stroke-linecap:butt;stroke-linejoin:miter;stroke-opacity:1"
         d="m 317.42412,159.37493 q -4.78256,0 -8.45488,1.28103 -3.58693,1.36646 -6.0636,4.18475 -2.47668,2.81829 -3.75773,7.25923 -1.28104,4.44095 -1.28104,10.67536 0,6.23441 1.28104,10.58995 1.28105,4.35555 3.75773,7.08844 2.47667,2.73289 6.149,3.92852 3.67232,1.28105 8.45488,1.28105 9.56513,0 14.51848,-5.46578 5.03877,-5.46578 5.03877,-17.8492 0,-6.2344 -1.28104,-10.58995 -1.28105,-4.35553 -3.75773,-7.17383 -2.47668,-2.73289 -6.149,-4.01394 -3.67232,-1.19563 -8.45488,-1.19563 z m 0.0854,10.24833 q 1.53725,0 2.39128,0.59783 0.85402,0.59782 1.28104,2.04966 0.51242,1.53725 0.59783,4.09934 0.1708,2.56208 0.1708,6.40521 0,4.09934 -0.1708,6.49062 -0.0854,2.47668 -0.59783,3.84312 -0.42702,1.36645 -1.36644,1.79347 -0.85403,0.42701 -2.39128,0.42701 -1.53726,0 -2.39129,-0.51242 -0.85402,-0.51242 -1.36643,-1.96427 -0.42703,-1.36645 -0.59783,-3.92852 -0.0854,-2.47668 -0.0854,-6.57603 0,-3.84312 0.0854,-6.3198 0.1708,-2.47668 0.59783,-3.92854 0.51241,-1.36644 1.36643,-1.96425 0.93943,-0.51243 2.47669,-0.51243 z" /><path
         inkscape:connector-curvature="0"
         id="path905"
         style="font-style:normal;font-variant:normal;font-weight:normal;font-stretch:normal;font-size:medium;line-height:77.900177px;font-family:Unit-Black;-inkscape-font-specification:Unit-Black;text-align:start;letter-spacing:0px;word-spacing:0px;text-anchor:start;fill:#f2f2f2;fill-opacity:1;stroke:none;stroke-width:0.24805753px;stroke-linecap:butt;stroke-linejoin:miter;stroke-opacity:1"
         d="m 360.25634,143.49 q -9.1381,0 -13.83526,2.9891 -4.69715,2.90369 -4.69715,8.36947 0,2.9037 1.53724,4.86797 1.62266,1.87885 4.09935,2.9891 -3.92854,2.64748 -3.92854,7.94246 0,3.1599 1.28105,5.29498 1.36644,2.13507 3.67232,3.3307 -2.8183,1.87887 -4.01394,4.78257 -1.19564,2.98909 -1.19564,6.91762 0,7.00304 4.09934,10.84616 4.18474,3.84313 13.83526,3.84313 2.04966,0 3.84312,-0.34161 1.87887,-0.25622 3.50152,-0.76863 h 13.40824 v -7.00303 l -3.67231,-1.62265 q 1.19563,-2.9037 1.19563,-6.14901 0,-3.50151 -0.93943,-6.06359 -0.93942,-2.47669 -3.0745,-4.18475 -2.04967,-1.62266 -5.55118,-2.39128 -3.41611,-0.76862 -8.45488,-0.76862 -1.19565,0 -2.22048,0 -1.02483,0.0854 -1.96427,0.1708 -0.85402,-1.11023 -0.85402,-2.39128 0,-0.85402 0.68322,-1.45184 0.68322,-0.59783 2.04967,-0.59783 h 8.45488 q 3.0745,0 5.80739,-0.68322 2.73289,-0.68322 4.78256,-2.22047 2.13508,-1.45185 3.33071,-3.84313 1.19565,-2.39128 1.19565,-5.89279 0,-8.11327 -5.29498,-12.04181 Q 372.04193,143.49 360.25634,143.49 Z m -6.0636,17.42217 q -0.17081,-0.68322 -0.34161,-1.53724 -0.17081,-0.93944 -0.17081,-2.04967 0,-1.02484 0.25621,-1.87887 0.25621,-0.85402 1.02483,-1.53724 0.76863,-0.68324 2.13507,-1.02485 1.45186,-0.42701 3.75773,-0.42701 3.75772,0 5.8074,1.36645 2.04965,1.28104 2.04965,3.24531 0,2.39128 -1.62264,3.1599 -1.62266,0.68322 -6.149,0.68322 z m 7.25924,24.0836 q 3.24531,0 4.09933,1.36645 0.93944,1.36644 0.93944,3.92853 0,1.28104 -0.1708,2.30588 -0.0854,1.11023 -0.59783,1.79346 -0.51242,0.76862 -1.53725,1.19564 -0.93944,0.42701 -2.64749,0.42701 -3.0745,0 -4.01394,-1.45184 -0.85402,-1.45186 -0.85402,-4.01394 0,-2.47669 0.76862,-4.01393 0.76864,-1.53726 4.01394,-1.53726 z" /><path
         inkscape:connector-curvature="0"
         id="path907"
         style="font-style:normal;font-variant:normal;font-weight:normal;font-stretch:normal;font-size:medium;line-height:77.900177px;font-family:Unit-Black;-inkscape-font-specification:Unit-Black;text-align:start;letter-spacing:0px;word-spacing:0px;text-anchor:start;fill:#f2f2f2;fill-opacity:1;stroke:none;stroke-width:0.24805753px;stroke-linecap:butt;stroke-linejoin:miter;stroke-opacity:1"
         d="m 405.16222,159.37493 q -4.78256,0 -8.45488,1.28103 -3.58693,1.36646 -6.0636,4.18475 -2.47668,2.81829 -3.75773,7.25923 -1.28104,4.44095 -1.28104,10.67536 0,6.23441 1.28104,10.58995 1.28105,4.35555 3.75773,7.08844 2.47667,2.73289 6.149,3.92852 3.67232,1.28105 8.45488,1.28105 9.56511,0 14.51848,-5.46578 5.03877,-5.46578 5.03877,-17.8492 0,-6.2344 -1.28104,-10.58995 -1.28105,-4.35553 -3.75773,-7.17383 -2.47669,-2.73289 -6.149,-4.01394 -3.67232,-1.19563 -8.45488,-1.19563 z m 0.0854,10.24833 q 1.53726,0 2.39129,0.59783 0.85402,0.59782 1.28103,2.04966 0.51243,1.53725 0.59783,4.09934 0.17081,2.56208 0.17081,6.40521 0,4.09934 -0.17081,6.49062 -0.0854,2.47668 -0.59783,3.84312 -0.42701,1.36645 -1.36644,1.79347 -0.85403,0.42701 -2.39128,0.42701 -1.53725,0 -2.39128,-0.51242 -0.85402,-0.51242 -1.36644,-1.96427 -0.42702,-1.36645 -0.59783,-3.92852 -0.0854,-2.47668 -0.0854,-6.57603 0,-3.84312 0.0854,-6.3198 0.17081,-2.47668 0.59783,-3.92854 0.51242,-1.36644 1.36644,-1.96425 0.93943,-0.51243 2.47668,-0.51243 z" /><path
         inkscape:connector-curvature="0"
         id="path909"
         style="font-style:normal;font-variant:normal;font-weight:normal;font-stretch:normal;font-size:medium;line-height:77.900177px;font-family:Unit-Black;-inkscape-font-specification:Unit-Black;text-align:start;letter-spacing:0px;word-spacing:0px;text-anchor:start;fill:#f2f2f2;fill-opacity:1;stroke:none;stroke-width:0.24805753px;stroke-linecap:butt;stroke-linejoin:miter;stroke-opacity:1"
         d="m 445.1761,159.37493 q -5.72199,0 -9.99212,1.11023 -4.18475,1.19563 -6.91764,2.64749 l 4.09934,10.67535 q 1.96426,-1.19564 4.52635,-2.04967 2.56208,-0.85402 5.29497,-0.85402 2.47669,0 3.75774,0.59781 1.36643,0.59782 1.36643,2.22048 0,0.85403 -0.34161,1.45184 -0.34161,0.59783 -1.19564,1.02484 -0.76862,0.42702 -2.04966,0.85403 -1.28105,0.42701 -3.1599,1.02484 -2.47669,0.76862 -4.35555,1.79345 -1.87887,1.11025 -3.15991,2.73289 -1.28104,1.62266 -1.96426,3.84314 -0.68322,2.22046 -0.68322,5.20957 0,7.34464 4.18473,10.67534 4.27015,3.33072 11.27318,3.33072 4.86795,0 7.94245,-0.76863 3.15992,-0.68322 6.14902,-1.96426 l -3.1599,-10.50455 q -4.01394,2.04967 -9.22352,2.04967 -1.36644,0 -2.30588,-0.59783 -0.93942,-0.59781 -0.93942,-2.04965 0,-0.85404 0.1708,-1.36646 0.25621,-0.51241 0.85403,-0.85402 0.59783,-0.34161 1.62265,-0.68322 1.11024,-0.34162 2.7329,-0.76863 2.56208,-0.68322 4.69715,-1.70805 2.22047,-0.93944 3.75772,-2.47669 1.53726,-1.53725 2.39129,-3.84313 0.93942,-2.22048 0.93942,-5.63659 0,-6.91762 -3.84312,-11.01696 -3.84314,-4.09933 -12.46882,-4.09933 z" /></g><text
       transform="scale(1,-1)"
       id="text4532"
       y="-514.39801"
       x="1443.2551"
       style="font-style:normal;font-weight:normal;font-size:85.40283203px;line-height:133.44190979px;font-family:sans-serif;text-align:start;letter-spacing:0px;word-spacing:0px;text-anchor:start;fill:#f2f2f2;fill-opacity:1;stroke:none;stroke-width:0.74999994px;stroke-linecap:butt;stroke-linejoin:miter;stroke-opacity:1"
       xml:space="preserve"><tspan
         id="tspan4530"
         style="font-style:normal;font-variant:normal;font-weight:normal;font-stretch:normal;line-height:98.38605499px;font-family:Unit-Black;-inkscape-font-specification:Unit-Black;text-align:start;text-anchor:start;fill:#f2f2f2;fill-opacity:1;stroke-width:0.74999994px"
         y="-514.39801"
         x="1443.2551"
         sodipodi:role="line">logos &amp; marks</tspan></text>
<g
       id="text856"
       style="font-style:normal;font-weight:normal;font-size:67.62031555px;line-height:105.65673065px;font-family:sans-serif;text-align:start;letter-spacing:0px;word-spacing:0px;text-anchor:start;fill:#f2f2f2;fill-opacity:1;stroke:none;stroke-width:0.20262092px;stroke-linecap:butt;stroke-linejoin:miter;stroke-opacity:1"
       transform="matrix(3.7014932,0,0,-3.7014932,99.513482,488.38493)"
       aria-label="logos &amp; marks"><g
         id="g909"
         transform="translate(0,12.265971)"><path
           d="m -86.527198,71.058278 q -3.17815,0 -5.07152,-0.743824 -1.82575,-0.743823 -2.84005,-2.23147 -0.94669,-1.487647 -1.21717,-3.719118 -0.27048,-2.29909 -0.27048,-5.342005 V 20.545902 h 11.15735 v 39.084542 q 0,1.149546 0.0676,1.825749 0.0676,0.608583 0.3381,0.946684 0.33811,0.270481 0.81145,0.338102 0.54096,0.06762 1.48765,0.06762 h 0.60858 l 1.0143,7.100133 q -0.81144,0.338102 -2.43433,0.743824 -1.62289,0.405722 -3.6515,0.405722 z"
           style="font-style:normal;font-variant:normal;font-weight:normal;font-stretch:normal;line-height:77.900177px;font-family:Unit-Black;-inkscape-font-specification:Unit-Black;text-align:start;text-anchor:start;fill:#f2f2f2;fill-opacity:1;stroke-width:0.20262092px"
           id="path858"
           inkscape:connector-curvature="0" /><path
           d="m -62.044418,71.125898 q -3.78673,0 -6.69441,-1.014305 -2.84005,-1.081925 -4.80104,-3.313395 -1.96099,-2.231471 -2.97529,-5.747727 -1.01431,-3.516257 -1.01431,-8.45254 0,-4.936283 1.01431,-8.384919 1.0143,-3.448636 2.97529,-5.612486 1.96099,-2.16385 4.86866,-3.110534 2.90768,-1.014305 6.69442,-1.014305 7.57347,0 11.49545,4.3277 3.9896,4.3277 3.9896,14.132646 0,4.936283 -1.01431,8.384919 -1.0143,3.448636 -2.97529,5.680107 -1.96099,2.16385 -4.86866,3.178154 -2.90768,0.946685 -6.69442,0.946685 z m 0.0676,-8.114438 q 1.21716,0 1.89336,-0.473342 0.67621,-0.473342 1.01431,-1.622888 0.40572,-1.217165 0.47334,-3.245775 0.13524,-2.028609 0.13524,-5.071524 0,-3.245775 -0.13524,-5.139144 -0.0676,-1.960989 -0.47334,-3.042914 -0.3381,-1.081925 -1.08193,-1.420026 -0.6762,-0.338102 -1.89337,-0.338102 -1.21716,0 -1.89336,0.405722 -0.67621,0.405722 -1.08193,1.555267 -0.3381,1.081925 -0.47334,3.110535 -0.0676,1.960989 -0.0676,5.206764 0,3.042914 0.0676,5.003903 0.13524,1.96099 0.47334,3.110535 0.40572,1.081925 1.08193,1.555267 0.74382,0.405722 1.96099,0.405722 z"
           style="font-style:normal;font-variant:normal;font-weight:normal;font-stretch:normal;line-height:77.900177px;font-family:Unit-Black;-inkscape-font-specification:Unit-Black;text-align:start;text-anchor:start;fill:#f2f2f2;fill-opacity:1;stroke-width:0.20262092px"
           id="path860"
           inkscape:connector-curvature="0" /><path
           d="m -28.130708,83.703277 q -7.23538,0 -10.9545,-2.366711 -3.71911,-2.299091 -3.71911,-6.626791 0,-2.299091 1.21716,-3.854358 1.28479,-1.487647 3.24578,-2.366711 -3.11054,-2.09623 -3.11054,-6.28869 0,-2.501951 1.01431,-4.192459 1.08192,-1.690508 2.90767,-2.637193 -2.23147,-1.487647 -3.17815,-3.786737 -0.94669,-2.366711 -0.94669,-5.477246 0,-5.544866 3.24578,-8.58778 3.31339,-3.042914 10.95449,-3.042914 1.62289,0 3.04291,0.270481 1.48765,0.202861 2.77244,0.608583 h 10.61639 v 5.544866 l -2.90768,1.284786 q 0.94669,2.299091 0.94669,4.868663 0,2.772433 -0.74383,4.801042 -0.74382,1.960989 -2.43433,3.313395 -1.62289,1.284786 -4.39532,1.893369 -2.70481,0.608583 -6.69441,0.608583 -0.94668,0 -1.75813,0 -0.81144,-0.06762 -1.55527,-0.135241 -0.6762,0.879065 -0.6762,1.893369 0,0.676203 0.54096,1.149546 0.54097,0.473342 1.62289,0.473342 h 6.69441 q 2.43433,0 4.59818,0.540962 2.16385,0.540963 3.78674,1.758129 1.69051,1.149545 2.63719,3.042914 0.94669,1.893369 0.94669,4.665802 0,6.42393 -4.19246,9.534464 -4.19246,3.110535 -13.52406,3.110535 z m -4.80105,-13.794545 q -0.13524,0.540963 -0.27048,1.217166 -0.13524,0.743823 -0.13524,1.622887 0,0.811444 0.20286,1.487647 0.20286,0.676204 0.81145,1.217166 0.60858,0.540963 1.6905,0.811444 1.14955,0.338101 2.9753,0.338101 2.97529,0 4.59818,-1.081925 1.62289,-1.014304 1.62289,-2.569572 0,-1.893368 -1.28479,-2.501951 -1.28478,-0.540963 -4.86866,-0.540963 z m 5.74773,-19.068929 q 2.56957,0 3.24578,-1.081925 0.74382,-1.081925 0.74382,-3.110534 0,-1.014305 -0.13524,-1.825749 -0.0676,-0.879064 -0.47334,-1.420026 -0.40573,-0.608583 -1.21717,-0.946685 -0.74382,-0.338101 -2.09623,-0.338101 -2.43433,0 -3.17815,1.149545 -0.67621,1.149545 -0.67621,3.178155 0,1.960989 0.60859,3.178155 0.60858,1.217165 3.17815,1.217165 z"
           style="font-style:normal;font-variant:normal;font-weight:normal;font-stretch:normal;line-height:77.900177px;font-family:Unit-Black;-inkscape-font-specification:Unit-Black;text-align:start;text-anchor:start;fill:#f2f2f2;fill-opacity:1;stroke-width:0.20262092px"
           id="path862"
           inkscape:connector-curvature="0" /><path
           d="m 7.4249018,71.125898 q -3.78674,0 -6.69441998,-1.014305 -2.84005002,-1.081925 -4.80104002,-3.313395 -1.96099,-2.231471 -2.97529,-5.747727 -1.01431,-3.516257 -1.01431,-8.45254 0,-4.936283 1.01431,-8.384919 1.0143,-3.448636 2.97529,-5.612486 1.96099,-2.16385 4.86866002,-3.110534 2.90767998,-1.014305 6.69441998,-1.014305 7.5734702,0 11.4954502,4.3277 3.9896,4.3277 3.9896,14.132646 0,4.936283 -1.01431,8.384919 -1.0143,3.448636 -2.97529,5.680107 -1.96099,2.16385 -4.86866,3.178154 -2.90768,0.946685 -6.6944102,0.946685 z m 0.0676,-8.114438 q 1.21716,0 1.89336,-0.473342 0.6762102,-0.473342 1.0143102,-1.622888 0.40572,-1.217165 0.47334,-3.245775 0.13524,-2.028609 0.13524,-5.071524 0,-3.245775 -0.13524,-5.139144 -0.0676,-1.960989 -0.47334,-3.042914 -0.3381,-1.081925 -1.0819302,-1.420026 -0.6762,-0.338102 -1.89336,-0.338102 -1.21717,0 -1.89337,0.405722 -0.67621,0.405722 -1.08193,1.555267 -0.3381,1.081925 -0.47334,3.110535 -0.0676,1.960989 -0.0676,5.206764 0,3.042914 0.0676,5.003903 0.13524,1.96099 0.47334,3.110535 0.40572,1.081925 1.08193,1.555267 0.74382,0.405722 1.96099,0.405722 z"
           style="font-style:normal;font-variant:normal;font-weight:normal;font-stretch:normal;line-height:77.900177px;font-family:Unit-Black;-inkscape-font-specification:Unit-Black;text-align:start;text-anchor:start;fill:#f2f2f2;fill-opacity:1;stroke-width:0.20262092px"
           id="path864"
           inkscape:connector-curvature="0" /><path
           d="m 39.107132,71.125898 q -4.53056,0 -7.91158,-0.879064 -3.3134,-0.946685 -5.47725,-2.09623 l 3.24578,-8.452539 q 1.55527,0.946684 3.58388,1.622887 2.02861,0.676203 4.19246,0.676203 1.96098,0 2.97529,-0.473342 1.08192,-0.473342 1.08192,-1.758128 0,-0.676203 -0.27048,-1.149545 -0.27048,-0.473343 -0.94668,-0.811444 -0.60858,-0.338102 -1.62289,-0.676203 -1.0143,-0.338102 -2.50195,-0.811444 -1.96099,-0.608583 -3.44864,-1.420027 -1.48764,-0.879064 -2.50195,-2.16385 -1.0143,-1.284786 -1.55527,-3.042914 -0.54096,-1.758128 -0.54096,-4.124839 0,-5.815348 3.3134,-8.45254 3.38101,-2.637192 8.92588,-2.637192 3.85436,0 6.28869,0.608583 2.50195,0.540962 4.86866,1.555267 l -2.50195,8.317299 q -3.17816,-1.622888 -7.30299,-1.622888 -1.08193,0 -1.82575,0.473342 -0.74383,0.473343 -0.74383,1.622888 0,0.676203 0.13524,1.081925 0.20286,0.405722 0.67621,0.676203 0.47334,0.270481 1.28478,0.540963 0.87907,0.270481 2.16385,0.608583 2.02861,0.540962 3.71912,1.352406 1.75813,0.743823 2.97529,1.960989 1.21717,1.217166 1.89337,3.042914 0.74383,1.758128 0.74383,4.462941 0,5.477246 -3.04292,8.723021 -3.04291,3.245775 -9.87256,3.245775 z"
           style="font-style:normal;font-variant:normal;font-weight:normal;font-stretch:normal;line-height:77.900177px;font-family:Unit-Black;-inkscape-font-specification:Unit-Black;text-align:start;text-anchor:start;fill:#f2f2f2;fill-opacity:1;stroke-width:0.20262092px"
           id="path866"
           inkscape:connector-curvature="0" /></g><g
         transform="translate(-575.18002,78.656459)"
         id="g887"
         style="stroke-width:0.20262092px"><path
           inkscape:connector-curvature="0"
           d="m 495.03331,71.125898 q -3.78673,0 -6.89727,-0.811444 -3.11053,-0.811444 -5.27438,-2.501952 -2.16385,-1.690507 -3.38102,-4.260079 -1.14954,-2.569572 -1.14954,-6.153449 0,-4.868663 2.36671,-7.911577 2.43433,-3.110535 7.16775,-5.071524 -2.23147,-2.501951 -3.11053,-5.003903 -0.87907,-2.569572 -0.87907,-5.206764 0,-5.274385 3.44864,-8.58778 3.44863,-3.381016 9.94018,-3.381016 6.01821,0 9.39923,3.245775 3.38101,3.178155 3.38101,8.317299 0,2.09623 -0.6762,3.786737 -0.60858,1.622888 -1.75813,3.042915 -1.14954,1.352406 -2.77243,2.501951 -1.62289,1.081925 -3.6515,2.09623 l 6.15345,7.641096 q 0.74382,-1.555268 1.35241,-3.313396 0.60858,-1.758128 1.14954,-3.719117 l 8.04682,2.501952 q -0.94668,3.245775 -2.09623,6.221069 -1.14954,2.975293 -2.63719,5.544865 l 8.24968,10.143048 h -13.99741 l -1.55527,-1.960989 q -2.16385,1.352406 -4.86866,2.096229 -2.70481,0.743824 -5.95059,0.743824 z m 1.21717,-8.52016 q 2.23147,0 4.3277,-1.149545 l -8.3173,-10.61639 q -1.14954,0.879064 -1.55527,2.231471 -0.40572,1.284786 -0.40572,3.448636 0,3.110534 1.55527,4.598181 1.55527,1.487647 4.39532,1.487647 z m -1.89337,-28.603393 q 0,1.622887 0.47334,2.704812 0.47334,1.081925 1.35241,2.231471 l 0.94668,1.217165 q 2.02861,-1.555267 2.56958,-2.772433 0.60858,-1.284786 0.60858,-3.178154 0,-1.758129 -0.60858,-2.772433 -0.54097,-1.081925 -2.2991,-1.081925 -1.6905,0 -2.36671,0.946684 -0.6762,0.946684 -0.6762,2.704813 z"
           style="font-style:normal;font-variant:normal;font-weight:normal;font-stretch:normal;line-height:77.900177px;font-family:Unit-Black;-inkscape-font-specification:Unit-Black;text-align:start;text-anchor:start;fill:#f2f2f2;fill-opacity:1;stroke-width:0.20262092px"
           id="path868" /><path
           inkscape:connector-curvature="0"
           d="m 533.72908,35.354751 h 9.19637 l 0.6762,2.772433 q 1.89337,-1.622888 3.9896,-2.637192 2.09623,-1.014305 5.13914,-1.014305 5.34201,0 7.50586,3.651497 1.89336,-1.622888 3.98959,-2.637192 2.09623,-1.014305 5.13915,-1.014305 4.3277,0 6.55917,2.16385 2.23147,2.09623 2.23147,7.708716 v 25.898581 h -11.15735 v -23.59949 q 0,-2.231471 -0.74383,-2.772433 -0.6762,-0.608583 -1.62288,-0.608583 -1.55527,0 -3.11054,1.149545 v 25.830961 h -11.15735 v -23.59949 q 0,-2.231471 -0.74382,-2.772433 -0.67621,-0.608583 -1.62289,-0.608583 -1.55527,0 -3.11054,1.149545 v 25.830961 h -11.15735 z"
           style="font-style:normal;font-variant:normal;font-weight:normal;font-stretch:normal;line-height:77.900177px;font-family:Unit-Black;-inkscape-font-specification:Unit-Black;text-align:start;text-anchor:start;fill:#f2f2f2;fill-opacity:1;stroke-width:0.20262092px"
           id="path870" /><path
           inkscape:connector-curvature="0"
           d="m 593.09971,71.125898 q -2.84006,0 -4.80104,-0.811444 -1.96099,-0.811444 -3.17816,-2.299091 -1.21716,-1.555267 -1.75813,-3.583876 -0.54096,-2.09623 -0.54096,-4.665802 0,-6.085829 3.6515,-8.6554 3.65149,-2.637193 11.08973,-2.637193 h 1.82575 v -0.676203 q 0,-2.434331 -0.67621,-3.448636 -0.60858,-1.014305 -2.70481,-1.014305 -2.43433,0 -4.59818,0.946685 -2.16385,0.879064 -4.05722,2.028609 l -3.9896,-7.370614 q 2.9753,-2.16385 6.22107,-3.313396 3.3134,-1.149545 7.50586,-1.149545 3.58387,0 6.08582,0.608583 2.56958,0.608583 4.19246,2.028609 1.62289,1.352406 2.36672,3.583877 0.81144,2.23147 0.81144,5.409625 v 24.140453 h -8.79064 q -0.0676,0 -0.3381,-0.743824 -0.20286,-0.743823 -0.54097,-1.690508 -1.3524,1.352407 -3.17815,2.366711 -1.82575,0.946685 -4.59818,0.946685 z m 3.38101,-7.438235 q 0.94669,0 1.62289,-0.202861 0.6762,-0.270481 1.28479,-0.676203 v -7.708716 q -1.82575,0 -2.9753,0.270481 -1.08192,0.270482 -1.6905,0.879064 -0.60859,0.540963 -0.81145,1.420027 -0.20286,0.811444 -0.20286,1.960989 0,2.231471 0.60858,3.178155 0.60859,0.879064 2.16385,0.879064 z"
           style="font-style:normal;font-variant:normal;font-weight:normal;font-stretch:normal;line-height:77.900177px;font-family:Unit-Black;-inkscape-font-specification:Unit-Black;text-align:start;text-anchor:start;fill:#f2f2f2;fill-opacity:1;stroke-width:0.20262092px"
           id="path872" /><path
           inkscape:connector-curvature="0"
           d="m 616.8017,35.354751 h 9.19636 l 0.81145,3.583877 q 1.42002,-2.09623 3.44863,-3.110535 2.02861,-1.014305 4.3277,-1.014305 0.94669,0 1.89337,0.135241 0.94669,0.135241 1.48765,0.270481 l -2.09623,10.954491 q -0.74383,-0.540962 -1.82575,-0.879064 -1.01431,-0.338101 -2.29909,-0.338101 -1.42003,0 -2.23147,0.202861 -0.81145,0.202861 -1.55527,0.608583 V 70.246834 H 616.8017 Z"
           style="font-style:normal;font-variant:normal;font-weight:normal;font-stretch:normal;line-height:77.900177px;font-family:Unit-Black;-inkscape-font-specification:Unit-Black;text-align:start;text-anchor:start;fill:#f2f2f2;fill-opacity:1;stroke-width:0.20262092px"
           id="path874" /><path
           inkscape:connector-curvature="0"
           d="M 652.78837,51.110285 V 70.246834 H 641.63101 V 20.545902 h 11.15736 v 29.279597 l 5.88296,-14.470748 h 12.37452 l -7.50585,14.065026 9.39922,20.827057 h -11.83355 z"
           style="font-style:normal;font-variant:normal;font-weight:normal;font-stretch:normal;line-height:77.900177px;font-family:Unit-Black;-inkscape-font-specification:Unit-Black;text-align:start;text-anchor:start;fill:#f2f2f2;fill-opacity:1;stroke-width:0.20262092px"
           id="path876" /><path
           inkscape:connector-curvature="0"
           d="m 687.64719,71.125898 q -4.53056,0 -7.91157,-0.879064 -3.3134,-0.946685 -5.47725,-2.09623 l 3.24578,-8.452539 q 1.55526,0.946684 3.58387,1.622887 2.02861,0.676203 4.19246,0.676203 1.96099,0 2.9753,-0.473342 1.08192,-0.473342 1.08192,-1.758128 0,-0.676203 -0.27048,-1.149545 -0.27048,-0.473343 -0.94668,-0.811444 -0.60859,-0.338102 -1.62289,-0.676203 -1.01431,-0.338102 -2.50195,-0.811444 -1.96099,-0.608583 -3.44864,-1.420027 -1.48765,-0.879064 -2.50195,-2.16385 -1.0143,-1.284786 -1.55527,-3.042914 -0.54096,-1.758128 -0.54096,-4.124839 0,-5.815348 3.3134,-8.45254 3.38101,-2.637192 8.92588,-2.637192 3.85436,0 6.28869,0.608583 2.50195,0.540962 4.86866,1.555267 l -2.50195,8.317299 q -3.17816,-1.622888 -7.303,-1.622888 -1.08192,0 -1.82575,0.473342 -0.74382,0.473343 -0.74382,1.622888 0,0.676203 0.13524,1.081925 0.20286,0.405722 0.67621,0.676203 0.47334,0.270481 1.28478,0.540963 0.87907,0.270481 2.16385,0.608583 2.02861,0.540962 3.71912,1.352406 1.75813,0.743823 2.97529,1.960989 1.21717,1.217166 1.89337,3.042914 0.74382,1.758128 0.74382,4.462941 0,5.477246 -3.04291,8.723021 -3.04291,3.245775 -9.87257,3.245775 z"
           style="font-style:normal;font-variant:normal;font-weight:normal;font-stretch:normal;line-height:77.900177px;font-family:Unit-Black;-inkscape-font-specification:Unit-Black;text-align:start;text-anchor:start;fill:#f2f2f2;fill-opacity:1;stroke-width:0.20262092px"
           id="path878" /></g></g></g></svg>