<?xml version="1.0" encoding="UTF-8" standalone="no"?>
<!-- Created with Inkscape (http://www.inkscape.org/) -->

<svg
   xmlns:dc="http://purl.org/dc/elements/1.1/"
   xmlns:cc="http://creativecommons.org/ns#"
   xmlns:rdf="http://www.w3.org/1999/02/22-rdf-syntax-ns#"
   xmlns:svg="http://www.w3.org/2000/svg"
   xmlns="http://www.w3.org/2000/svg"
   xmlns:sodipodi="http://sodipodi.sourceforge.net/DTD/sodipodi-0.dtd"
   xmlns:inkscape="http://www.inkscape.org/namespaces/inkscape"
   version="1.1"
   id="svg2"
   xml:space="preserve"
   width="1400"
   height="1400"
   viewBox="0 0 1400 1400"
   sodipodi:docname="thumbnail.svg"
   inkscape:version="0.92.2 5c3e80d, 2017-08-06"><metadata
     id="metadata8"><rdf:RDF><cc:Work
         rdf:about=""><dc:format>image/svg+xml</dc:format><dc:type
           rdf:resource="http://purl.org/dc/dcmitype/StillImage" /><dc:title></dc:title></cc:Work></rdf:RDF></metadata><defs
     id="defs6"><clipPath
       clipPathUnits="userSpaceOnUse"
       id="clipPath20"><path
         d="M 0,595.276 H 841.89 V 0 H 0 Z"
         id="path18"
         inkscape:connector-curvature="0" /></clipPath><clipPath
       clipPathUnits="userSpaceOnUse"
       id="clipPath48"><path
         d="M 0,595.276 H 841.89 V 0 H 0 Z"
         id="path46"
         inkscape:connector-curvature="0" /></clipPath></defs><sodipodi:namedview
     pagecolor="#ffffff"
     bordercolor="#666666"
     borderopacity="1"
     objecttolerance="10"
     gridtolerance="10"
     guidetolerance="10"
     inkscape:pageopacity="0"
     inkscape:pageshadow="2"
     inkscape:window-width="1920"
     inkscape:window-height="1036"
     id="namedview4"
     showgrid="false"
     inkscape:zoom="0.42050375"
     inkscape:cx="490.1061"
     inkscape:cy="706.64372"
     inkscape:window-x="0"
     inkscape:window-y="20"
     inkscape:window-maximized="0"
     inkscape:current-layer="g10"
     inkscape:snap-page="true"
     showguides="true"
     inkscape:guide-bbox="true"
     fit-margin-top="0"
     fit-margin-left="0"
     fit-margin-right="0"
     fit-margin-bottom="0"
     inkscape:snap-global="false" /><g
     id="g10"
     inkscape:groupmode="layer"
     inkscape:label="kreix_logo"
     transform="matrix(1.3333333,0,0,-1.3333333,499.401,900.59903)"><path
       d="M -374.55076,-374.55078 H 675.44927 V 675.44929 H -374.55076 Z"
       style="fill:#225378;fill-opacity:1;fill-rule:nonzero;stroke:none;stroke-width:1"
       id="path12"
       inkscape:connector-curvature="0" /><g
       id="g14"><g
         id="g16"
         clip-path="url(#clipPath20)"><text
           transform="matrix(1,0,0,-1,-608.709,191.542)"
           style="font-variant:normal;font-weight:900;font-stretch:expanded;font-size:36px;font-family:'HelveticaNeueLT Pro 93 BlkEx';-inkscape-font-specification:HelveticaNeueLTPro-BlkEx;writing-mode:lr-tb;fill:#414142;fill-opacity:1;fill-rule:nonzero;stroke:none"
           id="text26"><tspan
             x="0 60.875999 110.448 165.34801 198.936 255.20399 288.79199 349.73999 406.008 460.90799 495.14401 542.70001"
             y="0"
             sodipodi:role="line"
             id="tspan22">WEB &amp; MOBILE</tspan><tspan
             x="8.7840004 64.367996 113.94 163.51199 213.084 260.64001 316.90799 369.79199 430.73999 480.31201 535.896"
             y="43.200001"
             sodipodi:role="line"
             id="tspan24">DEVELOPMENT</tspan></text>
<text
           transform="matrix(1,0,0,-1,-616.773,93.55)"
           style="font-variant:normal;font-weight:900;font-stretch:normal;font-size:36px;font-family:'Univers LT Std 93 XBlk Ext';-inkscape-font-specification:UniversLTStd-XBlackEx;writing-mode:lr-tb;fill:#414142;fill-opacity:1;fill-rule:nonzero;stroke:none"
           id="text32"><tspan
             x="0 69.624001 118.764 172.332 206.35201 264.384 298.40399 367.09201 424.224 477.79199 513.612 559.224"
             y="0"
             sodipodi:role="line"
             id="tspan28">WEB &amp; MOBILE</tspan><tspan
             x="8.5679998 65.699997 114.84 170.172 219.312 264.92401 322.056 374.76001 443.448 492.58801 551.48401"
             y="43.200001"
             sodipodi:role="line"
             id="tspan30">DEVELOPMENT</tspan></text>
</g></g><g
       id="g949"
       style="fill:#f2f2f2;stroke-width:0.33074337"
       transform="matrix(3.0234922,0,0,3.0234922,-843.70783,-515.49888)"><path
         inkscape:connector-curvature="0"
         id="path887"
         style="font-style:normal;font-variant:normal;font-weight:normal;font-stretch:normal;font-size:medium;line-height:77.900177px;font-family:Unit-Black;-inkscape-font-specification:Unit-Black;text-align:start;letter-spacing:0px;word-spacing:0px;text-anchor:start;fill:#f2f2f2;fill-opacity:1;stroke:none;stroke-width:0.24805753px;stroke-linecap:butt;stroke-linejoin:miter;stroke-opacity:1"
         d="m 223.17436,233.28708 q -3.58693,0 -6.23441,1.53724 -2.64749,1.53726 -4.35554,3.50151 l -0.93944,-3.92852 h -11.61478 v 62.77108 h 14.09146 v -21.1799 q 0.42701,0.42702 1.28105,1.02484 0.93943,0.59781 2.13508,1.19563 1.28103,0.59782 2.73289,0.93944 1.53724,0.42701 3.1599,0.42701 3.58691,0 6.3198,-1.11024 2.73289,-1.02483 4.52636,-3.58692 1.87885,-2.47668 2.73289,-6.74683 0.93943,-4.18473 0.93943,-10.50453 0,-7.25925 -0.93943,-11.95641 -0.93944,-4.69716 -2.81829,-7.51545 -1.87887,-2.73289 -4.69716,-3.75772 -2.73289,-1.11023 -6.31981,-1.11023 z m -5.03877,11.10237 q 1.53725,0 2.47669,0.51241 0.93942,0.59782 1.45184,1.96427 0.51241,1.45184 0.59781,3.84312 0.17081,2.47668 0.17081,6.2344 0,3.58693 -0.17081,5.8074 -0.0854,2.22047 -0.59781,3.50152 -0.42702,1.28104 -1.28104,1.70805 -0.85404,0.51243 -2.22048,0.51243 -1.70806,0 -2.73289,-0.42703 -1.02483,-0.42701 -1.70806,-1.02483 v -21.0945 q 0.59782,-0.51242 1.53726,-1.02483 0.93943,-0.51241 2.47668,-0.51241 z" /><path
         inkscape:connector-curvature="0"
         id="path889"
         style="font-style:normal;font-variant:normal;font-weight:normal;font-stretch:normal;font-size:medium;line-height:77.900177px;font-family:Unit-Black;-inkscape-font-specification:Unit-Black;text-align:start;letter-spacing:0px;word-spacing:0px;text-anchor:start;fill:#f2f2f2;fill-opacity:1;stroke:none;stroke-width:0.24805753px;stroke-linecap:butt;stroke-linejoin:miter;stroke-opacity:1"
         d="m 244.56643,278.46517 h 11.61479 l 1.02484,-4.52634 q 1.79345,2.64749 4.35553,3.92852 2.56209,1.28105 5.46579,1.28105 1.19564,0 2.39128,-0.17082 1.19564,-0.1708 1.87886,-0.34161 l -2.64749,-13.83525 q -0.93942,0.68322 -2.30587,1.11024 -1.28104,0.42701 -2.9037,0.42701 -1.79346,0 -2.81829,-0.2562 -1.02483,-0.25621 -1.96427,-0.76864 v -30.91582 h -14.09147 z" /><path
         inkscape:connector-curvature="0"
         id="path891"
         style="font-style:normal;font-variant:normal;font-weight:normal;font-stretch:normal;font-size:medium;line-height:77.900177px;font-family:Unit-Black;-inkscape-font-specification:Unit-Black;text-align:start;letter-spacing:0px;word-spacing:0px;text-anchor:start;fill:#f2f2f2;fill-opacity:1;stroke:none;stroke-width:0.24805753px;stroke-linecap:butt;stroke-linejoin:miter;stroke-opacity:1"
         d="m 286.85684,233.28708 q -3.58691,0 -6.06359,1.02483 -2.47669,1.02483 -4.01393,2.90369 -1.53726,1.96427 -2.22048,4.52636 -0.68322,2.64749 -0.68322,5.89279 0,7.68626 4.61175,10.93156 4.61175,3.33071 14.00607,3.33071 h 2.30587 v 0.85403 q 0,3.07451 -0.85403,4.35554 -0.76862,1.28105 -3.41611,1.28105 -3.0745,0 -5.80739,-1.19564 -2.73289,-1.11023 -5.12417,-2.56209 l -5.03877,9.30892 q 3.75772,2.73289 7.85706,4.18473 4.18474,1.45185 9.47971,1.45185 4.52636,0 7.68626,-0.76863 3.24531,-0.76862 5.29498,-2.56209 2.04967,-1.70805 2.98909,-4.52634 1.02485,-2.81829 1.02485,-6.83223 v -30.48881 h -11.10237 q -0.0854,0 -0.42703,0.93943 -0.2562,0.93944 -0.68321,2.13507 -1.70807,-1.70805 -4.01393,-2.9891 -2.30588,-1.19563 -5.80741,-1.19563 z m 4.27015,9.3943 q 1.19564,0 2.04967,0.25621 0.85403,0.34161 1.62265,0.85403 v 9.73592 q -2.30587,0 -3.75772,-0.34161 -1.36644,-0.34161 -2.13507,-1.11023 -0.76863,-0.68323 -1.02483,-1.79346 -0.25621,-1.02484 -0.25621,-2.47668 0,-2.8183 0.76862,-4.01394 0.76862,-1.11024 2.73289,-1.11024 z" /><path
         inkscape:connector-curvature="0"
         id="path893"
         style="font-style:normal;font-variant:normal;font-weight:normal;font-stretch:normal;font-size:medium;line-height:77.900177px;font-family:Unit-Black;-inkscape-font-specification:Unit-Black;text-align:start;letter-spacing:0px;word-spacing:0px;text-anchor:start;fill:#f2f2f2;fill-opacity:1;stroke:none;stroke-width:0.24805753px;stroke-linecap:butt;stroke-linejoin:miter;stroke-opacity:1"
         d="m 316.79188,278.46517 h 11.61478 l 0.93942,-3.75772 q 2.22048,2.13507 4.95337,3.50151 2.81829,1.36645 7.08844,1.36645 5.9782,0 8.79649,-2.81829 2.9037,-2.73289 2.9037,-9.99214 v -32.36767 h -14.09147 v 29.46398 q 0,2.9891 -1.11024,3.75772 -1.02483,0.85404 -2.47667,0.85404 -1.70807,0 -2.56209,-0.34163 -0.76863,-0.2562 -1.96427,-1.11023 v -32.62388 h -14.09146 z" /><path
         inkscape:connector-curvature="0"
         id="path895"
         style="font-style:normal;font-variant:normal;font-weight:normal;font-stretch:normal;font-size:medium;line-height:77.900177px;font-family:Unit-Black;-inkscape-font-specification:Unit-Black;text-align:start;letter-spacing:0px;word-spacing:0px;text-anchor:start;fill:#f2f2f2;fill-opacity:1;stroke:none;stroke-width:0.24805753px;stroke-linecap:butt;stroke-linejoin:miter;stroke-opacity:1"
         d="m 374.65896,233.28708 q -3.58691,0 -6.49061,1.11023 -2.81829,1.19563 -4.78256,3.84312 -1.87887,2.64749 -2.9037,6.91764 -1.02483,4.35555 -1.02483,10.76075 0,7.17385 0.85403,11.78559 0.93943,4.61176 2.73289,7.25925 1.79346,2.64748 4.44095,3.58691 2.73289,1.02484 6.31981,1.02484 3.41611,0 5.72199,-1.28105 2.39128,-1.19563 3.75772,-2.39128 v 21.26531 h 14.09147 v -62.77108 h -11.61479 l -0.93943,3.92852 q -2.47668,-2.47667 -4.69716,-3.75772 -2.22047,-1.28103 -5.46578,-1.28103 z m 4.18475,11.10237 q 1.70804,0 2.73289,0.42701 1.02483,0.42701 1.70805,1.02483 v 21.0945 q -0.59782,0.51241 -1.53725,1.02483 -0.93944,0.51243 -2.47668,0.51243 -1.53726,0 -2.47669,-0.59783 -0.93942,-0.51242 -1.45185,-1.96426 -0.51241,-1.36645 -0.68322,-3.84313 -0.0854,-2.39129 -0.0854,-6.14901 0,-3.58691 0.0854,-5.80739 0.17081,-2.22047 0.59782,-3.50151 0.51243,-1.28105 1.28105,-1.79346 0.85402,-0.42701 2.30588,-0.42701 z" /><path
         inkscape:connector-curvature="0"
         id="path897"
         style="font-style:normal;font-variant:normal;font-weight:normal;font-stretch:normal;font-size:medium;line-height:77.900177px;font-family:Unit-Black;-inkscape-font-specification:Unit-Black;text-align:start;letter-spacing:0px;word-spacing:0px;text-anchor:start;fill:#f2f2f2;fill-opacity:1;stroke:none;stroke-width:0.24805753px;stroke-linecap:butt;stroke-linejoin:miter;stroke-opacity:1"
         d="m 419.19521,233.28708 q -5.72199,0 -9.99214,1.11023 -4.18473,1.19563 -6.91762,2.64749 l 4.09933,10.67535 q 1.96427,-1.19564 4.52635,-2.04967 2.56209,-0.85402 5.29498,-0.85402 2.47668,0 3.75772,0.59781 1.36645,0.59782 1.36645,2.22048 0,0.85403 -0.34161,1.45184 -0.34161,0.59783 -1.19564,1.02484 -0.76863,0.42702 -2.04966,0.85403 -1.28105,0.42701 -3.15992,1.02484 -2.47668,0.76862 -4.35554,1.79345 -1.87886,1.11025 -3.1599,2.73289 -1.28105,1.62266 -1.96427,3.84314 -0.68322,2.22046 -0.68322,5.20957 0,7.34464 4.18474,10.67534 4.27014,3.33072 11.27317,3.33072 4.86796,0 7.94246,-0.76863 3.1599,-0.68322 6.14902,-1.96426 l -3.15992,-10.50455 q -4.01393,2.04967 -9.2235,2.04967 -1.36645,0 -2.30588,-0.59783 -0.93943,-0.59781 -0.93943,-2.04965 0,-0.85404 0.17081,-1.36646 0.25621,-0.51241 0.85402,-0.85402 0.59782,-0.34161 1.62266,-0.68322 1.11023,-0.34162 2.73289,-0.76863 2.56209,-0.68322 4.69716,-1.70805 2.22047,-0.93944 3.75772,-2.47669 1.53725,-1.53725 2.39128,-3.84313 0.93943,-2.22048 0.93943,-5.63659 0,-6.91762 -3.84312,-11.01696 -3.84314,-4.09933 -12.46882,-4.09933 z" /><path
         inkscape:connector-curvature="0"
         id="path899"
         style="font-style:normal;font-variant:normal;font-weight:normal;font-stretch:normal;font-size:medium;line-height:77.900177px;font-family:Unit-Black;-inkscape-font-specification:Unit-Black;text-align:start;letter-spacing:0px;word-spacing:0px;text-anchor:start;fill:#f2f2f2;fill-opacity:1;stroke:none;stroke-width:0.24805753px;stroke-linecap:butt;stroke-linejoin:miter;stroke-opacity:1"
         d="m 217.37072,159.37493 q -4.78256,0 -8.7111,1.02483 -3.92852,1.02483 -6.66141,3.1599 -2.7329,2.13507 -4.27015,5.38038 -1.45184,3.2453 -1.45184,7.77166 0,6.149 2.98909,9.99213 3.07451,3.92853 9.0527,6.40521 -2.81829,3.15991 -3.92852,6.31981 -1.11025,3.24532 -1.11025,6.57602 0,6.66142 4.35555,10.84616 4.35555,4.27014 12.55422,4.27014 7.60085,0 11.87099,-4.09933 4.27015,-4.01394 4.27015,-10.50455 0,-2.64749 -0.85404,-4.78256 -0.76862,-2.04967 -2.22047,-3.84313 -1.45184,-1.70806 -3.50152,-3.1599 -2.04967,-1.36645 -4.61175,-2.64749 l 7.77166,-9.65052 q 0.93944,1.96427 1.70806,4.18474 0.76862,2.22047 1.45184,4.69715 l 10.16294,-3.1599 q -1.19563,-4.09933 -2.64749,-7.85707 -1.45184,-3.75772 -3.33071,-7.00302 l 10.41915,-12.81043 h -17.67839 l -1.96426,2.47668 q -2.73289,-1.70806 -6.14901,-2.64749 -3.41611,-0.93942 -7.51544,-0.93942 z m 1.53724,10.76076 q 2.8183,0 5.46579,1.45184 l -10.50456,13.40824 q -1.45184,-1.11023 -1.96425,-2.81829 -0.51243,-1.62266 -0.51243,-4.35555 0,-3.92852 1.96427,-5.80739 1.96427,-1.87885 5.55118,-1.87885 z m -2.39128,36.12539 q 0,-2.04967 0.59782,-3.41611 0.59783,-1.36645 1.70806,-2.81829 l 1.19565,-1.53726 q 2.56208,1.96427 3.2453,3.50151 0.76863,1.62266 0.76863,4.01394 0,2.22048 -0.76863,3.50152 -0.68322,1.36645 -2.90369,1.36645 -2.13508,0 -2.9891,-1.19565 -0.85404,-1.19563 -0.85404,-3.41611 z" /><path
         inkscape:connector-curvature="0"
         id="path901"
         style="font-style:normal;font-variant:normal;font-weight:normal;font-stretch:normal;font-size:medium;line-height:77.900177px;font-family:Unit-Black;-inkscape-font-specification:Unit-Black;text-align:start;letter-spacing:0px;word-spacing:0px;text-anchor:start;fill:#f2f2f2;fill-opacity:1;stroke:none;stroke-width:0.24805753px;stroke-linecap:butt;stroke-linejoin:miter;stroke-opacity:1"
         d="m 286.50298,159.46033 q -4.01394,0 -6.40522,0.93943 -2.30586,0.93942 -3.58691,2.81829 -1.19564,1.87887 -1.53725,4.69716 -0.34162,2.9037 -0.34162,6.74682 v 48.59421 h 14.09148 v -49.36283 q 0,-1.45186 0.0854,-2.30588 0.0854,-0.76862 0.42701,-1.19564 0.42701,-0.34161 1.02483,-0.42701 0.68322,-0.0854 1.87886,-0.0854 h 0.76863 l 1.28104,-8.96729 q -1.02484,-0.42701 -3.0745,-0.93943 -2.04967,-0.51241 -4.61175,-0.51241 z" /><path
         inkscape:connector-curvature="0"
         id="path903"
         style="font-style:normal;font-variant:normal;font-weight:normal;font-stretch:normal;font-size:medium;line-height:77.900177px;font-family:Unit-Black;-inkscape-font-specification:Unit-Black;text-align:start;letter-spacing:0px;word-spacing:0px;text-anchor:start;fill:#f2f2f2;fill-opacity:1;stroke:none;stroke-width:0.24805753px;stroke-linecap:butt;stroke-linejoin:miter;stroke-opacity:1"
         d="m 317.42412,159.37493 q -4.78256,0 -8.45488,1.28103 -3.58693,1.36646 -6.0636,4.18475 -2.47668,2.81829 -3.75773,7.25923 -1.28104,4.44095 -1.28104,10.67536 0,6.23441 1.28104,10.58995 1.28105,4.35555 3.75773,7.08844 2.47667,2.73289 6.149,3.92852 3.67232,1.28105 8.45488,1.28105 9.56513,0 14.51848,-5.46578 5.03877,-5.46578 5.03877,-17.8492 0,-6.2344 -1.28104,-10.58995 -1.28105,-4.35553 -3.75773,-7.17383 -2.47668,-2.73289 -6.149,-4.01394 -3.67232,-1.19563 -8.45488,-1.19563 z m 0.0854,10.24833 q 1.53725,0 2.39128,0.59783 0.85402,0.59782 1.28104,2.04966 0.51242,1.53725 0.59783,4.09934 0.1708,2.56208 0.1708,6.40521 0,4.09934 -0.1708,6.49062 -0.0854,2.47668 -0.59783,3.84312 -0.42702,1.36645 -1.36644,1.79347 -0.85403,0.42701 -2.39128,0.42701 -1.53726,0 -2.39129,-0.51242 -0.85402,-0.51242 -1.36643,-1.96427 -0.42703,-1.36645 -0.59783,-3.92852 -0.0854,-2.47668 -0.0854,-6.57603 0,-3.84312 0.0854,-6.3198 0.1708,-2.47668 0.59783,-3.92854 0.51241,-1.36644 1.36643,-1.96425 0.93943,-0.51243 2.47669,-0.51243 z" /><path
         inkscape:connector-curvature="0"
         id="path905"
         style="font-style:normal;font-variant:normal;font-weight:normal;font-stretch:normal;font-size:medium;line-height:77.900177px;font-family:Unit-Black;-inkscape-font-specification:Unit-Black;text-align:start;letter-spacing:0px;word-spacing:0px;text-anchor:start;fill:#f2f2f2;fill-opacity:1;stroke:none;stroke-width:0.24805753px;stroke-linecap:butt;stroke-linejoin:miter;stroke-opacity:1"
         d="m 360.25634,143.49 q -9.1381,0 -13.83526,2.9891 -4.69715,2.90369 -4.69715,8.36947 0,2.9037 1.53724,4.86797 1.62266,1.87885 4.09935,2.9891 -3.92854,2.64748 -3.92854,7.94246 0,3.1599 1.28105,5.29498 1.36644,2.13507 3.67232,3.3307 -2.8183,1.87887 -4.01394,4.78257 -1.19564,2.98909 -1.19564,6.91762 0,7.00304 4.09934,10.84616 4.18474,3.84313 13.83526,3.84313 2.04966,0 3.84312,-0.34161 1.87887,-0.25622 3.50152,-0.76863 h 13.40824 v -7.00303 l -3.67231,-1.62265 q 1.19563,-2.9037 1.19563,-6.14901 0,-3.50151 -0.93943,-6.06359 -0.93942,-2.47669 -3.0745,-4.18475 -2.04967,-1.62266 -5.55118,-2.39128 -3.41611,-0.76862 -8.45488,-0.76862 -1.19565,0 -2.22048,0 -1.02483,0.0854 -1.96427,0.1708 -0.85402,-1.11023 -0.85402,-2.39128 0,-0.85402 0.68322,-1.45184 0.68322,-0.59783 2.04967,-0.59783 h 8.45488 q 3.0745,0 5.80739,-0.68322 2.73289,-0.68322 4.78256,-2.22047 2.13508,-1.45185 3.33071,-3.84313 1.19565,-2.39128 1.19565,-5.89279 0,-8.11327 -5.29498,-12.04181 Q 372.04193,143.49 360.25634,143.49 Z m -6.0636,17.42217 q -0.17081,-0.68322 -0.34161,-1.53724 -0.17081,-0.93944 -0.17081,-2.04967 0,-1.02484 0.25621,-1.87887 0.25621,-0.85402 1.02483,-1.53724 0.76863,-0.68324 2.13507,-1.02485 1.45186,-0.42701 3.75773,-0.42701 3.75772,0 5.8074,1.36645 2.04965,1.28104 2.04965,3.24531 0,2.39128 -1.62264,3.1599 -1.62266,0.68322 -6.149,0.68322 z m 7.25924,24.0836 q 3.24531,0 4.09933,1.36645 0.93944,1.36644 0.93944,3.92853 0,1.28104 -0.1708,2.30588 -0.0854,1.11023 -0.59783,1.79346 -0.51242,0.76862 -1.53725,1.19564 -0.93944,0.42701 -2.64749,0.42701 -3.0745,0 -4.01394,-1.45184 -0.85402,-1.45186 -0.85402,-4.01394 0,-2.47669 0.76862,-4.01393 0.76864,-1.53726 4.01394,-1.53726 z" /><path
         inkscape:connector-curvature="0"
         id="path907"
         style="font-style:normal;font-variant:normal;font-weight:normal;font-stretch:normal;font-size:medium;line-height:77.900177px;font-family:Unit-Black;-inkscape-font-specification:Unit-Black;text-align:start;letter-spacing:0px;word-spacing:0px;text-anchor:start;fill:#f2f2f2;fill-opacity:1;stroke:none;stroke-width:0.24805753px;stroke-linecap:butt;stroke-linejoin:miter;stroke-opacity:1"
         d="m 405.16222,159.37493 q -4.78256,0 -8.45488,1.28103 -3.58693,1.36646 -6.0636,4.18475 -2.47668,2.81829 -3.75773,7.25923 -1.28104,4.44095 -1.28104,10.67536 0,6.23441 1.28104,10.58995 1.28105,4.35555 3.75773,7.08844 2.47667,2.73289 6.149,3.92852 3.67232,1.28105 8.45488,1.28105 9.56511,0 14.51848,-5.46578 5.03877,-5.46578 5.03877,-17.8492 0,-6.2344 -1.28104,-10.58995 -1.28105,-4.35553 -3.75773,-7.17383 -2.47669,-2.73289 -6.149,-4.01394 -3.67232,-1.19563 -8.45488,-1.19563 z m 0.0854,10.24833 q 1.53726,0 2.39129,0.59783 0.85402,0.59782 1.28103,2.04966 0.51243,1.53725 0.59783,4.09934 0.17081,2.56208 0.17081,6.40521 0,4.09934 -0.17081,6.49062 -0.0854,2.47668 -0.59783,3.84312 -0.42701,1.36645 -1.36644,1.79347 -0.85403,0.42701 -2.39128,0.42701 -1.53725,0 -2.39128,-0.51242 -0.85402,-0.51242 -1.36644,-1.96427 -0.42702,-1.36645 -0.59783,-3.92852 -0.0854,-2.47668 -0.0854,-6.57603 0,-3.84312 0.0854,-6.3198 0.17081,-2.47668 0.59783,-3.92854 0.51242,-1.36644 1.36644,-1.96425 0.93943,-0.51243 2.47668,-0.51243 z" /><path
         inkscape:connector-curvature="0"
         id="path909"
         style="font-style:normal;font-variant:normal;font-weight:normal;font-stretch:normal;font-size:medium;line-height:77.900177px;font-family:Unit-Black;-inkscape-font-specification:Unit-Black;text-align:start;letter-spacing:0px;word-spacing:0px;text-anchor:start;fill:#f2f2f2;fill-opacity:1;stroke:none;stroke-width:0.24805753px;stroke-linecap:butt;stroke-linejoin:miter;stroke-opacity:1"
         d="m 445.1761,159.37493 q -5.72199,0 -9.99212,1.11023 -4.18475,1.19563 -6.91764,2.64749 l 4.09934,10.67535 q 1.96426,-1.19564 4.52635,-2.04967 2.56208,-0.85402 5.29497,-0.85402 2.47669,0 3.75774,0.59781 1.36643,0.59782 1.36643,2.22048 0,0.85403 -0.34161,1.45184 -0.34161,0.59783 -1.19564,1.02484 -0.76862,0.42702 -2.04966,0.85403 -1.28105,0.42701 -3.1599,1.02484 -2.47669,0.76862 -4.35555,1.79345 -1.87887,1.11025 -3.15991,2.73289 -1.28104,1.62266 -1.96426,3.84314 -0.68322,2.22046 -0.68322,5.20957 0,7.34464 4.18473,10.67534 4.27015,3.33072 11.27318,3.33072 4.86795,0 7.94245,-0.76863 3.15992,-0.68322 6.14902,-1.96426 l -3.1599,-10.50455 q -4.01394,2.04967 -9.22352,2.04967 -1.36644,0 -2.30588,-0.59783 -0.93942,-0.59781 -0.93942,-2.04965 0,-0.85404 0.1708,-1.36646 0.25621,-0.51241 0.85403,-0.85402 0.59783,-0.34161 1.62265,-0.68322 1.11024,-0.34162 2.7329,-0.76863 2.56208,-0.68322 4.69715,-1.70805 2.22047,-0.93944 3.75772,-2.47669 1.53726,-1.53725 2.39129,-3.84313 0.93942,-2.22048 0.93942,-5.63659 0,-6.91762 -3.84312,-11.01696 -3.84314,-4.09933 -12.46882,-4.09933 z" /></g></g></svg>