<?xml version="1.0" encoding="UTF-8" standalone="no"?>
<!-- Created with Inkscape (http://www.inkscape.org/) -->

<svg
   xmlns:dc="http://purl.org/dc/elements/1.1/"
   xmlns:cc="http://creativecommons.org/ns#"
   xmlns:rdf="http://www.w3.org/1999/02/22-rdf-syntax-ns#"
   xmlns:svg="http://www.w3.org/2000/svg"
   xmlns="http://www.w3.org/2000/svg"
   xmlns:sodipodi="http://sodipodi.sourceforge.net/DTD/sodipodi-0.dtd"
   xmlns:inkscape="http://www.inkscape.org/namespaces/inkscape"
   version="1.1"
   id="svg2"
   xml:space="preserve"
   width="2533.3333"
   height="1600"
   viewBox="0 0 2533.3333 1600"
   sodipodi:docname="yamada.svg"
   inkscape:version="0.92.2 5c3e80d, 2017-08-06"><metadata
     id="metadata8"><rdf:RDF><cc:Work
         rdf:about=""><dc:format>image/svg+xml</dc:format><dc:type
           rdf:resource="http://purl.org/dc/dcmitype/StillImage" /><dc:title></dc:title></cc:Work></rdf:RDF></metadata><defs
     id="defs6"><clipPath
       clipPathUnits="userSpaceOnUse"
       id="clipPath18"><path
         d="M 0,0 H 1900 V 1200 H 0 Z"
         id="path16"
         inkscape:connector-curvature="0" /></clipPath><radialGradient
       fx="0"
       fy="0"
       cx="0"
       cy="0"
       r="1"
       gradientUnits="userSpaceOnUse"
       gradientTransform="matrix(1317.0369,0,0,-701.90033,950,600)"
       spreadMethod="pad"
       id="radialGradient28"><stop
         style="stop-opacity:1;stop-color:#f8f8f9"
         offset="0"
         id="stop24" /><stop
         style="stop-opacity:1;stop-color:#d3d4d5"
         offset="1"
         id="stop26" /></radialGradient><clipPath
       clipPathUnits="userSpaceOnUse"
       id="clipPath38"><path
         d="M 0,1200 H 1900 V 0 H 0 Z"
         id="path36"
         inkscape:connector-curvature="0" /></clipPath></defs><sodipodi:namedview
     pagecolor="#ffffff"
     bordercolor="#666666"
     borderopacity="1"
     objecttolerance="10"
     gridtolerance="10"
     guidetolerance="10"
     inkscape:pageopacity="0"
     inkscape:pageshadow="2"
     inkscape:window-width="1920"
     inkscape:window-height="1036"
     id="namedview4"
     showgrid="false"
     inkscape:zoom="0.27157896"
     inkscape:cx="1852.4423"
     inkscape:cy="1134.4603"
     inkscape:window-x="0"
     inkscape:window-y="20"
     inkscape:window-maximized="0"
     inkscape:current-layer="g10" /><g
     id="g10"
     inkscape:groupmode="layer"
     inkscape:label="yamada"
     transform="matrix(1.3333333,0,0,-1.3333333,0,1600)"><g
       id="g12"
       style="fill:#ececec"><g
         id="g14"
         clip-path="url(#clipPath18)"
         style="fill:#ececec"><g
           id="g20"
           style="fill:#ececec"><g
             id="g22"
             style="fill:#ececec"><path
               d="M 0,0 H 1900 V 1200 H 0 Z"
               style="fill:#ececec;stroke:none"
               id="path30"
               inkscape:connector-curvature="0" /></g></g></g></g><g
       id="g32"><g
         id="g34"
         clip-path="url(#clipPath38)"><g
           id="g40"
           transform="translate(688.1641,663.8462)"><path
             d="m 0,0 c -1.83,12.943 17.666,7.036 23.752,3.832 5.164,-2.72 4.096,-12.722 4.453,-17.614 0.494,-6.736 1.875,-15.186 0.1,-21.797 -0.885,-3.253 -2.934,-8.237 -6.201,-9.73 C 17.27,-47.521 5.73,-48.343 2.172,-43.473 -6.391,-31.759 1.244,-13.298 0,0 m -11.898,-15.12 c 0.07,-7.573 0.955,-15.984 -1.366,-23.303 -1.847,-5.828 -5.111,-6.113 -10.4,-7.023 -5.106,-0.873 -9.758,-2.272 -13.902,1.692 -6.184,5.914 -5.276,16.907 -5.512,24.769 -0.123,4.107 -2.061,16.517 2.082,19.296 6.619,4.448 14.088,8.086 22.187,8.377 10.028,0.309 6.852,-17.426 6.911,-23.808 0.052,-5.6 -0.022,2.326 0,0 m 31.566,-97.104 c -5.559,0 -17.738,0.701 -21.938,4.91 -6.615,6.635 2.563,11.276 8.196,10.971 3.127,-0.162 6.125,-0.254 9.039,1.136 3.291,1.564 2.799,6.997 -0.776,7.878 -4.72,1.168 -13.087,-0.897 -16.111,4.084 -8.656,14.269 20.545,6.9 25.834,1.368 5.477,-5.73 5.543,-11.792 5.045,-19.227 -0.553,-8.271 -0.236,-11.12 -9.289,-11.12 m -64.236,-11.448 c 1.841,7.261 19.213,5.75 25.57,5.171 5.781,-0.528 11.158,-0.816 16.986,-0.783 5.889,0.035 17.711,0.102 22.778,-2.967 4.32,-2.622 3.214,-8.906 -1.598,-10.06 -7.063,-1.69 -14.414,-3.4 -21.668,-3.95 -5.73,-0.435 -44.684,2.294 -42.068,12.589 0.66,2.604 -0.252,-1.003 0,0 m 0.283,27.017 c 6.732,1.552 13.869,1.295 20.705,0.838 8.654,-0.579 8.279,-10.591 -0.178,-11.531 -6.148,-1.045 -14.152,-2.8 -20.224,-1.701 -6.01,1.096 -6.463,10.969 -0.303,12.394 2.113,0.488 -4.092,-0.946 0,0 m 23.627,22.572 c 4.726,1.154 4.783,-2.579 4.818,-6.172 -0.416,-4.855 -2.047,-5.122 -6.426,-5.688 -3.736,-0.485 -17.961,-1.149 -18.564,4.38 -0.926,8.521 15.008,7.354 20.172,7.48 m 60.629,-20.684 c -1.963,9.753 -5.58,18.684 -13.832,24.939 -8.059,6.106 -25.311,6.106 -34.852,6.173 -11.418,0.075 -26.975,1.822 -36.961,-4.771 -10.316,-6.812 -14.168,-21.546 -15.5,-33.184 -1.537,-13.484 -12.017,6.048 -13.385,9.392 -4.879,11.907 -6.408,22.973 -5.154,35.671 1.315,13.317 7.162,24.12 13.742,35.496 1.231,2.127 5.592,10.029 9.088,7.38 3.6,-2.725 2.219,-10.591 2.584,-14.58 0.967,-10.571 1.051,-23.119 12.992,-27.295 7.559,-2.644 18.883,-1.538 26.696,-1.233 11.537,0.448 23.593,-2.337 34.982,-1.281 10.729,1.005 15.543,9.78 18.067,19.271 1.523,5.73 2.664,11.579 2.822,17.525 0.164,6.144 1.072,8.411 6.355,3.404 11.078,-10.493 14.252,-22.563 16.465,-37.064 1.424,-9.334 0.662,-19.81 -2.559,-28.745 -1.33,-3.685 -14.242,-30.894 -18.607,-27.479 -3.504,2.742 -2.129,12.333 -2.943,16.381 -0.18,0.889 0.668,-3.322 0,0 m 35.047,38.243 C 72.441,-34.776 65.492,-16.57 49.416,-1.143 34.139,13.52 13.1,20.817 -7.822,19.853 -30.053,18.825 -51.998,10.46 -67.881,-5.354 c -15.867,-15.795 -22.512,-36.171 -24.057,-57.86 -1.597,-22.4 9.045,-43.201 23.706,-59.332 15.906,-17.505 38.173,-27.282 62.211,-24.662 21.412,2.332 46.82,11.349 60.25,29.136 13.539,17.931 23.517,38.612 20.789,61.548 -0.215,1.799 0.392,-3.303 0,0"
             style="fill:#cf102d;fill-opacity:1;fill-rule:nonzero;stroke:none"
             id="path42"
             inkscape:connector-curvature="0" /></g><g
           id="g44"
           transform="translate(853.6914,586.6802)"><path
             d="M 0,0 V -38.72 H -27.076 V 0 l -37.846,65.21 h 30.713 l 20.67,-42.212 20.67,42.212 h 30.713 z"
             style="fill:#231f20;fill-opacity:1;fill-rule:nonzero;stroke:none"
             id="path46"
             inkscape:connector-curvature="0" /></g><g
           id="g48"
           transform="translate(902.3379,561.061)"><path
             d="M 0,0 C 11.793,0 15.723,6.551 15.141,22.272 11.646,20.087 5.242,19.796 -0.143,18.195 -5.822,16.886 -10.332,14.558 -10.332,8.59 -10.332,2.329 -5.674,0 0,0 m -32.021,39.155 c 0.435,9.898 4.949,16.306 11.791,20.233 6.839,3.93 15.283,5.243 24.017,5.243 17.904,0 35.227,-3.934 35.227,-25.328 V 6.261 c 0,-6.407 0,-13.394 2.91,-19.362 H 17.033 c -1.019,2.329 -1.019,4.658 -1.457,7.133 -6.404,-6.842 -15.719,-9.316 -24.89,-9.316 -14.555,0 -25.766,7.279 -25.766,22.854 0,24.454 26.785,22.706 43.961,26.201 4.221,1.017 6.551,2.328 6.551,6.985 0,5.679 -6.842,7.861 -11.938,7.861 -7.131,0 -11.207,-3.201 -12.373,-9.462 z"
             style="fill:#231f20;fill-opacity:1;fill-rule:nonzero;stroke:none"
             id="path50"
             inkscape:connector-curvature="0" /></g><g
           id="g52"
           transform="translate(947.748,623.5054)"><path
             d="m 0,0 h 24.02 v -10.332 h 0.291 C 28.822,-2.766 36.684,2.187 46,2.187 c 9.461,0 17.902,-3.057 21.979,-12.231 5.968,8.152 13.248,12.231 23.582,12.231 24.015,0 26.638,-18.197 26.638,-32.607 V -75.545 H 93.453 v 44.397 c 0,8.151 -3.932,12.955 -10.336,12.955 -10.625,0 -11.644,-8.153 -11.644,-20.378 V -75.545 H 46.727 v 42.941 c 0,8.88 -2.475,14.411 -9.317,14.411 -8.879,0 -12.662,-5.24 -12.662,-20.526 v -36.826 l -24.748,0 z"
             style="fill:#231f20;fill-opacity:1;fill-rule:nonzero;stroke:none"
             id="path54"
             inkscape:connector-curvature="0" /></g><g
           id="g56"
           transform="translate(1103.6406,561.061)"><path
             d="M 0,0 C 11.791,0 15.721,6.551 15.141,22.272 11.646,20.087 5.24,19.796 -0.145,18.195 -5.822,16.886 -10.334,14.558 -10.334,8.59 -10.334,2.329 -5.676,0 0,0 m -32.023,39.155 c 0.435,9.898 4.947,16.306 11.789,20.233 6.841,3.93 15.285,5.243 24.019,5.243 17.904,0 35.225,-3.934 35.225,-25.328 V 6.261 c 0,-6.407 0,-13.394 2.912,-19.362 H 17.029 c -1.015,2.329 -1.015,4.658 -1.455,7.133 -6.402,-6.842 -15.719,-9.316 -24.888,-9.316 -14.559,0 -25.766,7.279 -25.766,22.854 0,24.454 26.783,22.706 43.959,26.201 4.223,1.017 6.551,2.328 6.551,6.985 0,5.679 -6.842,7.861 -11.936,7.861 -7.133,0 -11.209,-3.201 -12.373,-9.462 z"
             style="fill:#231f20;fill-opacity:1;fill-rule:nonzero;stroke:none"
             id="path58"
             inkscape:connector-curvature="0" /></g><g
           id="g60"
           transform="translate(1170.3086,586.5347)"><path
             d="m 0,0 c 0,-10.335 3.932,-21.834 15.139,-21.834 12.082,0 14.703,11.499 14.703,21.105 0,10.918 -3.93,20.959 -14.703,20.959 C 3.932,20.23 0,9.605 0,0 m 53.713,-38.574 h -23.58 v 8.734 h -0.291 c -4.949,-7.278 -11.936,-10.918 -20.817,-10.918 -23.724,0 -33.771,20.237 -33.771,41.632 0,19.651 10.482,38.283 31.879,38.283 9.17,0 16.451,-3.495 21.543,-10.335 h 0.291 v 36.533 h 24.746 z"
             style="fill:#231f20;fill-opacity:1;fill-rule:nonzero;stroke:none"
             id="path62"
             inkscape:connector-curvature="0" /></g><g
           id="g64"
           transform="translate(1262.0098,561.061)"><path
             d="M 0,0 C 11.791,0 15.719,6.551 15.139,22.272 11.645,20.087 5.24,19.796 -0.145,18.195 -5.822,16.886 -10.336,14.558 -10.336,8.59 -10.336,2.329 -5.676,0 0,0 m -32.023,39.155 c 0.435,9.898 4.947,16.306 11.789,20.233 6.841,3.93 15.287,5.243 24.019,5.243 17.902,0 35.225,-3.934 35.225,-25.328 V 6.261 c 0,-6.407 0,-13.394 2.912,-19.362 H 17.029 c -1.017,2.329 -1.017,4.658 -1.455,7.133 -6.404,-6.842 -15.719,-9.316 -24.89,-9.316 -14.557,0 -25.764,7.279 -25.764,22.854 0,24.454 26.783,22.706 43.957,26.201 4.223,1.017 6.553,2.328 6.553,6.985 0,5.679 -6.842,7.861 -11.936,7.861 -7.133,0 -11.209,-3.201 -12.375,-9.462 z"
             style="fill:#231f20;fill-opacity:1;fill-rule:nonzero;stroke:none"
             id="path66"
             inkscape:connector-curvature="0" /></g></g></g></g></svg>