<?xml version="1.0" encoding="UTF-8" standalone="no"?>
<!-- Created with Inkscape (http://www.inkscape.org/) -->

<svg
   xmlns:dc="http://purl.org/dc/elements/1.1/"
   xmlns:cc="http://creativecommons.org/ns#"
   xmlns:rdf="http://www.w3.org/1999/02/22-rdf-syntax-ns#"
   xmlns:svg="http://www.w3.org/2000/svg"
   xmlns="http://www.w3.org/2000/svg"
   xmlns:sodipodi="http://sodipodi.sourceforge.net/DTD/sodipodi-0.dtd"
   xmlns:inkscape="http://www.inkscape.org/namespaces/inkscape"
   width="1400"
   height="900"
   viewBox="0 0 370.41666 238.12501"
   version="1.1"
   id="svg8"
   inkscape:version="0.92.2 5c3e80d, 2017-08-06"
   sodipodi:docname="p2.svg"
   inkscape:export-filename="/home/onur/Dropbox/design/d00018-shitty_logos/behance_project/p2.png"
   inkscape:export-xdpi="96"
   inkscape:export-ydpi="96">
  <defs
     id="defs2" />
  <sodipodi:namedview
     id="base"
     pagecolor="#ffffff"
     bordercolor="#666666"
     borderopacity="1.0"
     inkscape:pageopacity="0.0"
     inkscape:pageshadow="2"
     inkscape:zoom="0.9899495"
     inkscape:cx="652.01786"
     inkscape:cy="521.52441"
     inkscape:document-units="mm"
     inkscape:current-layer="g935"
     showgrid="false"
     units="px"
     inkscape:window-width="1920"
     inkscape:window-height="1036"
     inkscape:window-x="0"
     inkscape:window-y="20"
     inkscape:window-maximized="0"
     showguides="true"
     inkscape:guide-bbox="true"
     inkscape:snap-global="true"
     inkscape:snap-page="true">
    <sodipodi:guide
       position="52.916667,170.84525"
       orientation="1,0"
       id="guide838"
       inkscape:locked="false"
       inkscape:label=""
       inkscape:color="rgb(0,0,255)" />
    <sodipodi:guide
       position="268.3631,199.94941"
       orientation="0,1"
       id="guide840"
       inkscape:locked="false"
       inkscape:label=""
       inkscape:color="rgb(0,0,255)" />
    <sodipodi:guide
       position="246.4225,39.6875"
       orientation="0,1"
       id="guide859"
       inkscape:locked="false"
       inkscape:label=""
       inkscape:color="rgb(0,0,255)" />
    <sodipodi:guide
       position="317.5,155.55087"
       orientation="1,0"
       id="guide861"
       inkscape:locked="false"
       inkscape:label=""
       inkscape:color="rgb(0,0,255)" />
  </sodipodi:namedview>
  <metadata
     id="metadata5">
    <rdf:RDF>
      <cc:Work
         rdf:about="">
        <dc:format>image/svg+xml</dc:format>
        <dc:type
           rdf:resource="http://purl.org/dc/dcmitype/StillImage" />
        <dc:title />
      </cc:Work>
    </rdf:RDF>
  </metadata>
  <g
     inkscape:label="Layer 1"
     inkscape:groupmode="layer"
     id="layer1"
     transform="translate(0,-58.874983)">
    <path
       style="fill:#f2f2f2;fill-opacity:1;stroke:none;stroke-width:0.1;stroke-linecap:round;stroke-linejoin:round;stroke-miterlimit:4;stroke-dasharray:none;stroke-dashoffset:0;stroke-opacity:1;paint-order:stroke fill markers"
       d="M 0,58.874985 H 370.41666 V 296.99998 H 0 Z"
       id="rect852"
       sodipodi:insensitive="true"
       inkscape:connector-curvature="0" />
    <flowRoot
       xml:space="preserve"
       id="flowRoot871"
       style="fill:black;stroke:none;stroke-opacity:1;stroke-width:1px;stroke-linejoin:miter;stroke-linecap:butt;fill-opacity:1;font-family:sans-serif;font-style:normal;font-weight:normal;font-size:16px;line-height:25px;letter-spacing:0px;word-spacing:0px;text-anchor:middle;text-align:center"><flowRegion
         id="flowRegion873"><rect
           id="rect875"
           width="384.86813"
           height="212.13203"
           x="462.64987"
           y="492.90854" /></flowRegion><flowPara
         id="flowPara877" /></flowRoot>    <g
       id="g935"
       transform="matrix(1.5431916,0,0,1.5431916,92.613734,-72.443051)"
       style="stroke-width:0.64800769">
      <g
         style="fill:#aa0000;stroke-width:0.56357282"
         transform="matrix(1.1498207,0,0,1.1498207,-8.2307796,-22.985658)"
         id="g954" />
      <g
         id="g844"
         transform="matrix(1.2435467,0,0,1.2435467,-14.61329,-39.515085)"
         style="stroke-width:0.52109641">
        <path
           style="fill:#442178;fill-opacity:1;stroke:none;stroke-width:1.82421136;stroke-linecap:round;stroke-linejoin:round;stroke-miterlimit:4;stroke-dasharray:none;stroke-dashoffset:0;stroke-opacity:1;paint-order:stroke fill markers"
           d="m 106.29297,489.66211 42.12891,157.14258 c 3.54117,-3.80977 9.87985,-8.51685 11.37304,-8.13281 7.98638,2.56868 48.98146,5.03552 56.1211,1.5 -10.99891,1.88503 -54.7848,-3.23856 -52.32227,-5.54297 5.01704,-4.79827 18.58341,-15.85803 20.60352,-15.06055 10.60135,3.28297 20.06499,2.28115 24.12109,0.80078 0,0 -23.60439,-2.86244 -21.34766,-4.69336 5.40296,-4.54567 14.9667,-10.98082 16.40235,-10.50781 3.06907,0.64414 10.3716,0.92325 17.3164,-1.34961 -9.21764,-3.6618 -7.6031,-7.75109 -6.90234,-8.96484 1.00272,-2.43713 6.68209,-8.56035 9.54492,-10.31836 z m 235.98437,0 -117.28906,95.07617 c 0.0227,3.07732 0.97592,9.49392 4.59766,11.24024 3.66629,1.76776 17.94772,5.48476 20.65234,11.74218 1.01927,2.93371 -17.24645,5.81951 -21.09766,5.31446 0,0 12.55601,4.12202 23.79102,-1.69532 2.18078,-0.93403 16.11481,7.45593 20.94727,16.07813 -0.22146,3.35433 -42.19532,7.2168 -42.19532,7.2168 10.89286,1.16073 30.49921,2.53485 46.39844,-4.12305 5.28793,1.18348 17.62496,11.80599 22.06836,16.29297 z m -42.33398,159.35156 c -7.42806,15.60711 -142.74953,15.65725 -151.33398,0.53711 a 75.922922,19.511472 0 0 0 -0.1875,0.99414 75.922922,19.511472 0 0 0 75.92382,19.51172 75.922922,19.511472 0 0 0 75.92188,-19.51172 75.922922,19.511472 0 0 0 -0.32422,-1.53125 z"
           transform="matrix(0.30422339,0,0,0.30422339,-8.2307793,-22.985658)"
           id="path947"
           inkscape:connector-curvature="0" />
        <g
           aria-label="SHITSHOW"
           style="font-style:normal;font-weight:normal;font-size:11.70370483px;line-height:18.28704071px;font-family:sans-serif;text-align:center;letter-spacing:0px;word-spacing:0px;text-anchor:middle;fill:#1a1a1a;fill-opacity:1;stroke:none;stroke-width:0.13787341px;stroke-linecap:butt;stroke-linejoin:miter;stroke-opacity:1"
           id="text970"
           transform="translate(-0.66999357)">
          <path
             d="m 32.946673,195.80074 c 0,-0.24578 -0.02341,-0.77245 -0.433037,-1.29912 -0.397926,-0.49155 -0.983112,-0.81925 -2.258815,-0.9714 -0.912889,-0.10534 -1.825778,-0.15215 -2.738667,-0.26919 -0.479852,-0.0585 -1.065037,-0.10533 -1.35763,-0.57348 -0.09363,-0.15215 -0.140445,-0.33941 -0.140445,-0.51496 0,-0.35111 0.198963,-0.84267 0.912889,-1.11185 0.304297,-0.11704 0.959704,-0.26919 1.802371,-0.26919 1.299111,0 2.083259,0.37452 2.539704,0.69052 0.234074,0.16385 0.444741,0.37452 0.503259,0.43304 l 1.076741,-0.43304 c -0.07022,-0.0819 -0.269185,-0.37452 -0.53837,-0.59689 -0.117037,-0.10533 -0.234074,-0.18726 -0.374519,-0.28089 -0.596889,-0.38622 -1.58,-0.78415 -3.218519,-0.78415 -1.334222,0 -2.235407,0.26919 -2.726963,0.53837 -0.351111,0.18726 -1.146963,0.71393 -1.146963,1.8726 0,0.28088 0.02341,0.86607 0.585185,1.38103 0.608593,0.56178 1.381037,0.64371 2.961038,0.77245 0.655407,0.0585 2.083259,0.14044 2.691852,0.40963 0.433037,0.18726 0.702222,0.53837 0.702222,1.01822 0,0.22237 -0.07022,0.73733 -0.561778,1.11185 -0.795852,0.59689 -2.036445,0.56178 -2.247111,0.56178 -0.269185,0 -1.392741,-0.0117 -2.340741,-0.39793 -0.573482,-0.23407 -0.959704,-0.53837 -1.13526,-0.71392 -0.07022,-0.0702 -0.117037,-0.12874 -0.175555,-0.19897 L 24.239116,196.62 c 0.128741,0.18725 0.327704,0.49155 0.772445,0.83096 0.140444,0.10533 0.433037,0.316 0.866074,0.50326 0.40963,0.17555 0.702222,0.24578 0.889482,0.29259 0.877777,0.22237 1.896,0.24578 2.130074,0.24578 0.526667,0 1.006518,-0.0585 1.193778,-0.0819 0.304296,-0.0351 1.697037,-0.19896 2.43437,-1.22889 0.163852,-0.22237 0.421334,-0.67881 0.421334,-1.38103 z"
             style="font-style:normal;font-variant:normal;font-weight:500;font-stretch:normal;font-family:'Akzidenz-Grotesk BQ Extended';-inkscape-font-specification:'Akzidenz-Grotesk BQ Extended Medium';fill:#1a1a1a;stroke-width:0.13787341px"
             id="path907"
             inkscape:connector-curvature="0" />
          <path
             d="m 42.838698,198.29362 v -8.26281 H 41.64492 v 3.37067 h -6.331704 v -3.37067 h -1.182075 v 8.26281 h 1.193778 v -3.90903 h 6.331705 v 3.90903 z"
             style="font-style:normal;font-variant:normal;font-weight:500;font-stretch:normal;font-family:'Akzidenz-Grotesk BQ Extended';-inkscape-font-specification:'Akzidenz-Grotesk BQ Extended Medium';fill:#1a1a1a;stroke-width:0.13787341px"
             id="path909"
             inkscape:connector-curvature="0" />
          <path
             d="m 45.879566,198.29362 v -8.26281 h -1.193777 v 8.26281 z"
             style="font-style:normal;font-variant:normal;font-weight:500;font-stretch:normal;font-family:'Akzidenz-Grotesk BQ Extended';-inkscape-font-specification:'Akzidenz-Grotesk BQ Extended Medium';fill:#1a1a1a;stroke-width:0.13787341px"
             id="path911"
             inkscape:connector-curvature="0" />
          <path
             d="m 54.778321,191.01392 v -0.98311 h -7.923408 v 0.98311 h 3.370667 v 7.2797 h 1.170371 v -7.2797 z"
             style="font-style:normal;font-variant:normal;font-weight:500;font-stretch:normal;font-family:'Akzidenz-Grotesk BQ Extended';-inkscape-font-specification:'Akzidenz-Grotesk BQ Extended Medium';fill:#1a1a1a;stroke-width:0.13787341px"
             id="path913"
             inkscape:connector-curvature="0" />
          <path
             d="m 63.930437,195.83585 c 0,-0.81926 -0.491556,-1.43956 -1.228889,-1.75556 -0.72563,-0.316 -1.872593,-0.43304 -3.674964,-0.69052 -0.784148,-0.10533 -1.182074,-0.16385 -1.533185,-0.3277 -0.163852,-0.0819 -0.643704,-0.3043 -0.643704,-0.88948 0,-0.28089 0.105333,-0.50326 0.152148,-0.58519 0.140445,-0.24578 0.374519,-0.44474 0.608593,-0.58518 0.819259,-0.47986 1.907704,-0.47986 2.141778,-0.47986 1.04163,0 2.176889,0.23408 2.93763,1.00652 0.08193,0.0936 0.175555,0.21067 0.245778,0.3043 l 0.749037,-0.39793 c -0.09363,-0.11703 -0.269185,-0.3277 -0.561778,-0.57348 -1.240593,-1.01822 -2.808889,-1.05333 -3.312149,-1.05333 -0.830963,0 -1.884296,0.15215 -2.621629,0.56178 -0.667112,0.37452 -1.182075,1.04163 -1.182075,1.83748 0,0.9597 0.702223,1.39274 0.983112,1.53318 0.479851,0.24578 1.135259,0.32771 1.661926,0.40963 0.491555,0.0702 0.994815,0.12874 1.498074,0.19897 0.608593,0.0819 2.013037,0.23407 2.539704,0.66711 0.140444,0.11703 0.386222,0.38622 0.386222,0.86607 0,0.60859 -0.374518,1.05334 -0.877778,1.35763 -0.912889,0.53837 -2.048148,0.53837 -2.364148,0.53837 -1.310815,0 -2.141778,-0.29259 -2.62163,-0.60859 -0.643704,-0.43304 -0.877778,-1.00652 -0.983111,-1.2757 l -0.866074,0.3277 c 0.210666,0.38622 0.386222,0.72563 0.702222,1.05333 1.029926,1.10015 2.762074,1.18208 3.113185,1.20548 0.245778,0.0117 0.479852,0.0234 0.713926,0.0234 2.024741,0 3.136593,-0.69052 3.651556,-1.43955 0.339408,-0.50326 0.386223,-0.99482 0.386223,-1.22889 z"
             style="font-style:normal;font-variant:normal;font-weight:300;font-stretch:normal;font-family:'Akzidenz-Grotesk BQ Light Exten';-inkscape-font-specification:'Akzidenz-Grotesk BQ Light Exten Light';fill:#1a1a1a;stroke-width:0.13787341px"
             id="path915"
             inkscape:connector-curvature="0" />
          <path
             d="m 73.734206,198.29362 v -8.26281 h -0.784148 v 3.53452 h -6.940297 v -3.53452 h -0.807555 v 8.26281 h 0.807555 v -4.03777 h 6.940297 v 4.03777 z"
             style="font-style:normal;font-variant:normal;font-weight:300;font-stretch:normal;font-family:'Akzidenz-Grotesk BQ Light Exten';-inkscape-font-specification:'Akzidenz-Grotesk BQ Light Exten Light';fill:#1a1a1a;stroke-width:0.13787341px"
             id="path917"
             inkscape:connector-curvature="0" />
          <path
             d="m 84.597455,194.13881 c 0,-0.40963 -0.07022,-1.34593 -0.667111,-2.29393 -1.240593,-1.96622 -3.511112,-2.07155 -4.189926,-2.07155 -1.907704,-0.0117 -3.792001,0.83096 -4.564445,2.68015 -0.316,0.73733 -0.339408,1.39274 -0.339408,1.69703 0,0.38623 0.03511,1.22889 0.538371,2.13008 1.182074,2.11837 3.639852,2.23541 4.306963,2.23541 0.643704,0 2.633334,-0.0936 3.967556,-1.69704 0.85437,-1.02993 0.948,-2.212 0.948,-2.68015 z m -0.901185,-0.0468 c 0,0.51497 -0.07022,1.95452 -1.35763,2.92593 -1.018222,0.76074 -2.200296,0.79585 -2.609926,0.79585 -0.585185,0 -2.925926,-0.11703 -3.756889,-2.212 -0.245778,-0.60859 -0.269186,-1.19378 -0.269186,-1.41615 0,-1.65022 0.948,-2.58651 1.427852,-2.93763 0.901186,-0.66711 2.013038,-0.74903 2.352445,-0.76074 1.205482,-0.0468 2.094963,0.32771 2.492889,0.53837 1.170371,0.632 1.521482,1.72045 1.626815,2.17689 0.105333,0.42134 0.09363,0.70223 0.09363,0.88948 z"
             style="font-style:normal;font-variant:normal;font-weight:300;font-stretch:normal;font-family:'Akzidenz-Grotesk BQ Light Exten';-inkscape-font-specification:'Akzidenz-Grotesk BQ Light Exten Light';fill:#1a1a1a;stroke-width:0.13787341px"
             id="path919"
             inkscape:connector-curvature="0" />
          <path
             d="m 97.10489,190.03081 h -0.784148 l -2.317333,7.42015 -2.609927,-7.42015 h -0.85437 l -2.551408,7.42015 -2.410963,-7.42015 h -0.830963 l 2.738667,8.26281 h 0.936296 l 2.539704,-7.43185 2.563112,7.43185 h 0.959703 z"
             style="font-style:normal;font-variant:normal;font-weight:300;font-stretch:normal;font-family:'Akzidenz-Grotesk BQ Light Exten';-inkscape-font-specification:'Akzidenz-Grotesk BQ Light Exten Light';fill:#1a1a1a;stroke-width:0.13787341px"
             id="path921"
             inkscape:connector-curvature="0" />
        </g>
      </g>
    </g>
  </g>
</svg>
