<?xml version="1.0" encoding="UTF-8" standalone="no"?>
<!-- Created with Inkscape (http://www.inkscape.org/) -->

<svg
   xmlns:dc="http://purl.org/dc/elements/1.1/"
   xmlns:cc="http://creativecommons.org/ns#"
   xmlns:rdf="http://www.w3.org/1999/02/22-rdf-syntax-ns#"
   xmlns:svg="http://www.w3.org/2000/svg"
   xmlns="http://www.w3.org/2000/svg"
   xmlns:sodipodi="http://sodipodi.sourceforge.net/DTD/sodipodi-0.dtd"
   xmlns:inkscape="http://www.inkscape.org/namespaces/inkscape"
   width="1400"
   height="900"
   viewBox="0 0 370.41666 238.12501"
   version="1.1"
   id="svg8"
   inkscape:version="0.92.2 5c3e80d, 2017-08-06"
   sodipodi:docname="p4.svg"
   inkscape:export-filename="/home/onur/Dropbox/design/d00018-shitty_logos/behance_project/p4.png"
   inkscape:export-xdpi="96"
   inkscape:export-ydpi="96">
  <defs
     id="defs2" />
  <sodipodi:namedview
     id="base"
     pagecolor="#ffffff"
     bordercolor="#666666"
     borderopacity="1.0"
     inkscape:pageopacity="0.0"
     inkscape:pageshadow="2"
     inkscape:zoom="0.49497475"
     inkscape:cx="167.87592"
     inkscape:cy="694.08747"
     inkscape:document-units="mm"
     inkscape:current-layer="g915"
     showgrid="false"
     units="px"
     inkscape:window-width="1920"
     inkscape:window-height="1036"
     inkscape:window-x="0"
     inkscape:window-y="20"
     inkscape:window-maximized="0"
     showguides="true"
     inkscape:guide-bbox="true"
     inkscape:snap-global="true"
     inkscape:snap-page="true">
    <sodipodi:guide
       position="52.916667,170.84525"
       orientation="1,0"
       id="guide838"
       inkscape:locked="false"
       inkscape:label=""
       inkscape:color="rgb(0,0,255)" />
    <sodipodi:guide
       position="268.3631,199.94941"
       orientation="0,1"
       id="guide840"
       inkscape:locked="false"
       inkscape:label=""
       inkscape:color="rgb(0,0,255)" />
    <sodipodi:guide
       position="246.4225,39.6875"
       orientation="0,1"
       id="guide859"
       inkscape:locked="false"
       inkscape:label=""
       inkscape:color="rgb(0,0,255)" />
    <sodipodi:guide
       position="317.5,155.55087"
       orientation="1,0"
       id="guide861"
       inkscape:locked="false"
       inkscape:label=""
       inkscape:color="rgb(0,0,255)" />
  </sodipodi:namedview>
  <metadata
     id="metadata5">
    <rdf:RDF>
      <cc:Work
         rdf:about="">
        <dc:format>image/svg+xml</dc:format>
        <dc:type
           rdf:resource="http://purl.org/dc/dcmitype/StillImage" />
        <dc:title />
      </cc:Work>
    </rdf:RDF>
  </metadata>
  <g
     inkscape:label="Layer 1"
     inkscape:groupmode="layer"
     id="layer1"
     transform="translate(0,-58.874983)">
    <path
       style="fill:#f2f2f2;fill-opacity:1;stroke:none;stroke-width:0.1;stroke-linecap:round;stroke-linejoin:round;stroke-miterlimit:4;stroke-dasharray:none;stroke-dashoffset:0;stroke-opacity:1;paint-order:stroke fill markers"
       d="M 0,58.874985 H 370.41666 V 296.99998 H 0 Z"
       id="rect852"
       sodipodi:insensitive="true"
       inkscape:connector-curvature="0" />
    <flowRoot
       xml:space="preserve"
       id="flowRoot871"
       style="fill:black;stroke:none;stroke-opacity:1;stroke-width:1px;stroke-linejoin:miter;stroke-linecap:butt;fill-opacity:1;font-family:sans-serif;font-style:normal;font-weight:normal;font-size:16px;line-height:25px;letter-spacing:0px;word-spacing:0px;text-anchor:middle;text-align:center"><flowRegion
         id="flowRegion873"><rect
           id="rect875"
           width="384.86813"
           height="212.13203"
           x="462.64987"
           y="492.90854" /></flowRegion><flowPara
         id="flowPara877" /></flowRoot>    <g
       id="g935"
       transform="matrix(1.5431916,0,0,1.5431916,92.613734,-72.443051)"
       style="stroke-width:0.64800769">
      <g
         id="g2183"
         transform="matrix(1.2208441,0,0,1.2208441,-75.923171,-31.689835)"
         style="stroke-width:0.34395376">
        <g
           id="g915"
           transform="matrix(1.4327873,0,0,1.4327873,-113.60159,-31.978849)"
           style="stroke-width:0.37045738">
          <g
             transform="translate(1.0810208)"
             id="text862"
             style="font-style:normal;font-weight:normal;font-size:11.27326679px;line-height:17.61447906px;font-family:sans-serif;text-align:center;letter-spacing:0px;word-spacing:0px;text-anchor:middle;fill:#1a1a1a;fill-opacity:1;stroke:none;stroke-width:0.09801685px;stroke-linecap:butt;stroke-linejoin:miter;stroke-opacity:1"
             aria-label="SHITSTORM">
            <path
               inkscape:connector-curvature="0"
               id="path909"
               style="font-style:normal;font-variant:normal;font-weight:bold;font-stretch:normal;font-family:'Neutra Text';-inkscape-font-specification:'Neutra Text Bold';fill:#1a1a1a;stroke-width:0.09801685px"
               d="m 130.39578,156.96788 c 1.49934,0 2.6154,-0.77785 2.6154,-2.19828 0,-1.31898 -0.75531,-1.90519 -2.09683,-2.48012 l -0.39456,-0.1691 c -0.6764,-0.29311 -0.96951,-0.48475 -0.96951,-0.95823 0,-0.38329 0.29311,-0.67639 0.75531,-0.67639 0.45093,0 0.74404,0.19164 1.0146,0.67639 l 1.22878,-0.78913 c -0.51857,-0.91313 -1.24006,-1.2626 -2.24338,-1.2626 -1.40916,0 -2.31102,0.90186 -2.31102,2.08555 0,1.28515 0.75531,1.89391 1.89391,2.37866 l 0.39457,0.1691 c 0.72149,0.31565 1.14987,0.5073 1.14987,1.04841 0,0.45093 -0.41711,0.77786 -1.07096,0.77786 -0.77786,0 -1.21751,-0.40584 -1.55571,-0.95823 l -1.28515,0.74404 c 0.4622,0.91313 1.40915,1.61207 2.87468,1.61207 z" />
            <path
               inkscape:connector-curvature="0"
               id="path911"
               style="font-style:normal;font-variant:normal;font-weight:bold;font-stretch:normal;font-family:'Neutra Text';-inkscape-font-specification:'Neutra Text Bold';fill:#1a1a1a;stroke-width:0.09801685px"
               d="m 133.91047,156.86642 h 1.57825 v -2.33356 h 3.28052 v 2.33356 h 1.57826 v -7.66582 h -1.57826 v 3.9231 h -3.28052 v -3.9231 h -1.57825 z" />
            <path
               inkscape:connector-curvature="0"
               id="path913"
               style="font-style:normal;font-variant:normal;font-weight:bold;font-stretch:normal;font-family:'Neutra Text';-inkscape-font-specification:'Neutra Text Bold';fill:#1a1a1a;stroke-width:0.09801685px"
               d="m 141.61913,156.86642 h 1.57826 v -7.66582 h -1.57826 z" />
            <path
               inkscape:connector-curvature="0"
               id="path915"
               style="font-style:normal;font-variant:normal;font-weight:bold;font-stretch:normal;font-family:'Neutra Text';-inkscape-font-specification:'Neutra Text Bold';fill:#1a1a1a;stroke-width:0.09801685px"
               d="m 146.42759,156.86642 h 1.57826 v -6.27921 h 2.18701 v -1.38661 h -5.95229 v 1.38661 h 2.18702 z" />
            <g
               transform="translate(-0.40090429)"
               id="g933"
               style="stroke-width:0.09801685px;fill:#1a1a1a">
              <path
                 d="m 154.24743,156.95661 c 1.31897,0 2.26593,-0.76658 2.26593,-1.96155 0,-1.05968 -0.59749,-1.71353 -1.83755,-2.2772 l -0.71021,-0.32692 c -0.94696,-0.43966 -1.33025,-0.81168 -1.33025,-1.57826 0,-0.77786 0.52985,-1.29643 1.43171,-1.29643 0.84549,0 1.28515,0.42839 1.6008,0.93569 l 0.36075,-0.23674 c -0.36075,-0.57494 -0.93569,-1.10478 -1.96155,-1.10478 -1.03714,0 -1.88264,0.65385 -1.88264,1.71353 0,0.9695 0.52985,1.4768 1.60081,1.97283 l 0.71021,0.32692 c 1.07096,0.49602 1.56699,0.98077 1.56699,1.87136 0,0.9695 -0.82295,1.55571 -1.82627,1.55571 -1.22879,0 -1.80373,-0.64257 -2.16447,-1.31897 l -0.39457,0.19165 c 0.37202,0.76658 1.11606,1.53316 2.57031,1.53316 z"
                 style="font-style:normal;font-variant:normal;font-weight:300;font-stretch:normal;font-family:'Neutra Text';-inkscape-font-specification:'Neutra Text Light';fill:#1a1a1a;stroke-width:0.09801685px"
                 id="path917"
                 inkscape:connector-curvature="0" />
              <path
                 d="m 159.35997,156.86642 h 0.46221 v -7.25998 h 2.43502 v -0.40584 h -5.33225 v 0.40584 h 2.43502 z"
                 style="font-style:normal;font-variant:normal;font-weight:300;font-stretch:normal;font-family:'Neutra Text';-inkscape-font-specification:'Neutra Text Light';fill:#1a1a1a;stroke-width:0.09801685px"
                 id="path919"
                 inkscape:connector-curvature="0" />
              <path
                 d="m 166.19875,156.95661 c 2.16447,0 3.9231,-1.58953 3.9231,-3.9231 0,-2.33356 -1.75863,-3.92309 -3.9231,-3.92309 -2.16447,0 -3.9231,1.58953 -3.9231,3.92309 0,2.33357 1.75863,3.9231 3.9231,3.9231 z m 0,-0.41711 c -1.97282,0 -3.44962,-1.49934 -3.44962,-3.50599 0,-2.00664 1.4768,-3.50598 3.44962,-3.50598 1.97282,0 3.44962,1.49934 3.44962,3.50598 0,2.00665 -1.4768,3.50599 -3.44962,3.50599 z"
                 style="font-style:normal;font-variant:normal;font-weight:300;font-stretch:normal;font-family:'Neutra Text';-inkscape-font-specification:'Neutra Text Light';fill:#1a1a1a;stroke-width:0.09801685px"
                 id="path921"
                 inkscape:connector-curvature="0" />
              <path
                 d="m 174.31837,154.53286 c 1.11606,-0.43966 1.6459,-1.40916 1.6459,-2.53649 0,-1.55571 -0.98077,-2.79577 -3.05506,-2.79577 h -1.54443 v 7.66582 h 0.4622 v -2.08555 h 1.08223 c 0.34948,0 0.6764,-0.0338 0.95823,-0.10146 l 1.60081,2.18701 h 0.55239 z m -2.49139,-0.15783 v -4.76859 h 1.03714 c 1.939,0 2.62667,1.12733 2.62667,2.38993 0,1.26261 -0.68767,2.37866 -2.62667,2.37866 z"
                 style="font-style:normal;font-variant:normal;font-weight:300;font-stretch:normal;font-family:'Neutra Text';-inkscape-font-specification:'Neutra Text Light';fill:#1a1a1a;stroke-width:0.09801685px"
                 id="path923"
                 inkscape:connector-curvature="0" />
              <path
                 d="m 177.55792,156.86642 h 0.43965 v -6.08756 c 0,-0.27056 -0.0225,-0.66512 -0.0225,-0.66512 0,0 0.22546,0.38329 0.41711,0.6313 l 2.66049,3.53981 h 0.12401 l 2.69431,-3.53981 c 0.20291,-0.25928 0.41711,-0.6313 0.41711,-0.6313 0,0 -0.0225,0.39456 -0.0225,0.66512 v 6.08756 h 0.43966 v -7.756 h -0.11274 l -3.46089,4.5544 -3.46089,-4.5544 h -0.11273 z"
                 style="font-style:normal;font-variant:normal;font-weight:300;font-stretch:normal;font-family:'Neutra Text';-inkscape-font-specification:'Neutra Text Light';fill:#1a1a1a;stroke-width:0.09801685px"
                 id="path925"
                 inkscape:connector-curvature="0" />
            </g>
          </g>
          <g
             style="fill:#0088aa;stroke-width:0.37045738"
             transform="translate(97.893174,82.020833)"
             id="g889">
            <path
               style="color:#000000;font-style:normal;font-variant:normal;font-weight:normal;font-stretch:normal;font-size:medium;line-height:normal;font-family:sans-serif;font-variant-ligatures:normal;font-variant-position:normal;font-variant-caps:normal;font-variant-numeric:normal;font-variant-alternates:normal;font-feature-settings:normal;text-indent:0;text-align:start;text-decoration:none;text-decoration-line:none;text-decoration-style:solid;text-decoration-color:#000000;letter-spacing:normal;word-spacing:normal;text-transform:none;writing-mode:lr-tb;direction:ltr;text-orientation:mixed;dominant-baseline:auto;baseline-shift:baseline;text-anchor:start;white-space:normal;shape-padding:0;clip-rule:nonzero;display:inline;overflow:visible;visibility:visible;opacity:1;isolation:auto;mix-blend-mode:normal;color-interpolation:sRGB;color-interpolation-filters:linearRGB;solid-color:#000000;solid-opacity:1;vector-effect:none;fill:#0088aa;fill-opacity:1;fill-rule:evenodd;stroke:none;stroke-width:0.39453715;stroke-linecap:round;stroke-linejoin:round;stroke-miterlimit:4;stroke-dasharray:none;stroke-dashoffset:0;stroke-opacity:1;color-rendering:auto;image-rendering:auto;shape-rendering:auto;text-rendering:auto;enable-background:accumulate"
               d="m 69.212891,28.361328 c -2.90645,-0.169643 -5.854467,0.04643 -8.167969,0.78125 -1.156751,0.367409 -2.158671,0.864798 -2.914063,1.542969 -0.755391,0.678171 -1.256023,1.561773 -1.328125,2.591797 a 0.53255328,0.53255328 0 1 0 1.0625,0.07422 c 0.05192,-0.741739 0.380616,-1.338021 0.976563,-1.873046 0.595946,-0.535026 1.467914,-0.983815 2.527344,-1.320313 2.118858,-0.672995 4.97081,-0.896461 7.78125,-0.732422 2.81044,0.164039 5.586372,0.714816 7.554687,1.521485 0.984158,0.403334 1.762435,0.873723 2.236328,1.347656 0.473894,0.473933 0.641904,0.892746 0.56836,1.361328 -0.03677,0.234256 -0.306329,0.546217 -0.966797,0.847656 -0.660469,0.301439 -1.635479,0.557129 -2.789063,0.751953 -2.307167,0.38965 -5.33056,0.550631 -8.199218,0.597657 -5.713496,0.09367 -9.676154,-0.652007 -13.181641,-2.3125 a 0.53255328,0.53255328 0 1 0 -0.455078,0.96289 c 3.676062,1.741293 7.839522,2.509389 13.654297,2.414063 2.89548,-0.04747 5.94987,-0.204396 8.359375,-0.611328 1.204752,-0.203467 2.247486,-0.465577 3.054687,-0.833985 0.807201,-0.368407 1.455137,-0.879223 1.576172,-1.65039 0.133161,-0.848428 -0.237789,-1.651799 -0.867188,-2.28125 -0.629398,-0.629451 -1.519278,-1.142933 -2.585937,-1.580078 -2.133317,-0.874292 -4.990035,-1.429967 -7.896484,-1.59961 z"
               id="path865"
               inkscape:connector-curvature="0" />
            <path
               style="color:#000000;font-style:normal;font-variant:normal;font-weight:normal;font-stretch:normal;font-size:medium;line-height:normal;font-family:sans-serif;font-variant-ligatures:normal;font-variant-position:normal;font-variant-caps:normal;font-variant-numeric:normal;font-variant-alternates:normal;font-feature-settings:normal;text-indent:0;text-align:start;text-decoration:none;text-decoration-line:none;text-decoration-style:solid;text-decoration-color:#000000;letter-spacing:normal;word-spacing:normal;text-transform:none;writing-mode:lr-tb;direction:ltr;text-orientation:mixed;dominant-baseline:auto;baseline-shift:baseline;text-anchor:start;white-space:normal;shape-padding:0;clip-rule:nonzero;display:inline;overflow:visible;visibility:visible;opacity:1;isolation:auto;mix-blend-mode:normal;color-interpolation:sRGB;color-interpolation-filters:linearRGB;solid-color:#000000;solid-opacity:1;vector-effect:none;fill:#0088aa;fill-opacity:1;fill-rule:evenodd;stroke:none;stroke-width:0.39453715;stroke-linecap:round;stroke-linejoin:round;stroke-miterlimit:4;stroke-dasharray:none;stroke-dashoffset:0;stroke-opacity:1;color-rendering:auto;image-rendering:auto;shape-rendering:auto;text-rendering:auto;enable-background:accumulate"
               d="m 78.925781,36.240234 a 0.53255328,0.53255328 0 0 0 -0.496093,0.566407 c 0.02558,0.50788 -0.05116,0.937073 -0.28711,1.322265 -0.235953,0.385193 -0.647184,0.753 -1.392578,1.074219 -1.490789,0.642437 -4.287025,1.024599 -9.041016,0.820313 -4.317525,-0.185531 -6.749803,-0.584833 -8.019531,-1.128907 -0.634864,-0.272037 -0.968851,-0.56102 -1.173828,-0.871093 -0.204977,-0.310074 -0.295861,-0.674817 -0.337891,-1.15625 a 0.53255328,0.53255328 0 1 0 -1.060546,0.0918 c 0.04984,0.570942 0.173419,1.14059 0.511718,1.652344 0.3383,0.511754 0.873687,0.933089 1.640625,1.261719 1.533878,0.65726 4.031602,1.025408 8.394531,1.212891 4.825788,0.207371 7.724644,-0.136704 9.50586,-0.904297 0.890608,-0.383797 1.510472,-0.891439 1.880859,-1.496094 0.370388,-0.604655 0.476248,-1.280522 0.44336,-1.933594 a 0.53255328,0.53255328 0 0 0 -0.56836,-0.511719 z"
               id="path867"
               inkscape:connector-curvature="0" />
            <path
               style="color:#000000;font-style:normal;font-variant:normal;font-weight:normal;font-stretch:normal;font-size:medium;line-height:normal;font-family:sans-serif;font-variant-ligatures:normal;font-variant-position:normal;font-variant-caps:normal;font-variant-numeric:normal;font-variant-alternates:normal;font-feature-settings:normal;text-indent:0;text-align:start;text-decoration:none;text-decoration-line:none;text-decoration-style:solid;text-decoration-color:#000000;letter-spacing:normal;word-spacing:normal;text-transform:none;writing-mode:lr-tb;direction:ltr;text-orientation:mixed;dominant-baseline:auto;baseline-shift:baseline;text-anchor:start;white-space:normal;shape-padding:0;clip-rule:nonzero;display:inline;overflow:visible;visibility:visible;opacity:1;isolation:auto;mix-blend-mode:normal;color-interpolation:sRGB;color-interpolation-filters:linearRGB;solid-color:#000000;solid-opacity:1;vector-effect:none;fill:#0088aa;fill-opacity:1;fill-rule:evenodd;stroke:none;stroke-width:0.39453715;stroke-linecap:round;stroke-linejoin:round;stroke-miterlimit:4;stroke-dasharray:none;stroke-dashoffset:0;stroke-opacity:1;color-rendering:auto;image-rendering:auto;shape-rendering:auto;text-rendering:auto;enable-background:accumulate"
               d="m 59.445312,40.552734 a 0.53255328,0.53255328 0 0 0 -0.539062,0.525391 c -0.02253,0.820406 0.36888,1.535392 0.951172,2.066406 0.582292,0.531014 1.352384,0.920121 2.210937,1.230469 1.717107,0.620696 3.80928,0.918804 5.507813,1.054688 1.690934,0.135274 3.931232,0.223715 5.818359,-0.175782 0.943564,-0.199748 1.809012,-0.519674 2.470703,-1.072265 0.661692,-0.552592 1.086919,-1.373719 1.072266,-2.365235 a 0.53255328,0.53255328 0 1 0 -1.064453,0.01563 c 0.0104,0.703977 -0.232341,1.147876 -0.691406,1.53125 -0.459066,0.383374 -1.166099,0.671423 -2.007813,0.84961 -1.683427,0.356374 -3.861783,0.286291 -5.511719,0.154297 -1.642335,-0.131388 -3.676699,-0.431782 -5.232421,-0.994141 -0.777862,-0.28118 -1.430747,-0.630086 -1.853516,-1.015625 -0.422769,-0.385539 -0.618794,-0.764775 -0.605469,-1.25 a 0.53255328,0.53255328 0 0 0 -0.525391,-0.554688 z"
               id="path869"
               inkscape:connector-curvature="0" />
            <path
               style="color:#000000;font-style:normal;font-variant:normal;font-weight:normal;font-stretch:normal;font-size:medium;line-height:normal;font-family:sans-serif;font-variant-ligatures:normal;font-variant-position:normal;font-variant-caps:normal;font-variant-numeric:normal;font-variant-alternates:normal;font-feature-settings:normal;text-indent:0;text-align:start;text-decoration:none;text-decoration-line:none;text-decoration-style:solid;text-decoration-color:#000000;letter-spacing:normal;word-spacing:normal;text-transform:none;writing-mode:lr-tb;direction:ltr;text-orientation:mixed;dominant-baseline:auto;baseline-shift:baseline;text-anchor:start;white-space:normal;shape-padding:0;clip-rule:nonzero;display:inline;overflow:visible;visibility:visible;opacity:1;isolation:auto;mix-blend-mode:normal;color-interpolation:sRGB;color-interpolation-filters:linearRGB;solid-color:#000000;solid-opacity:1;vector-effect:none;fill:#0088aa;fill-opacity:1;fill-rule:evenodd;stroke:none;stroke-width:0.39453715;stroke-linecap:round;stroke-linejoin:round;stroke-miterlimit:4;stroke-dasharray:none;stroke-dashoffset:0;stroke-opacity:1;color-rendering:auto;image-rendering:auto;shape-rendering:auto;text-rendering:auto;enable-background:accumulate"
               d="m 62.332031,44.791016 a 0.53255328,0.53255328 0 0 0 -0.535156,0.582031 c 0.141307,1.808505 1.290097,2.920926 2.587891,3.501953 1.297793,0.581027 2.766832,0.729294 3.818359,0.830078 1.0813,0.103636 2.51207,0.143954 3.779297,-0.314453 1.267227,-0.458407 2.36464,-1.54167 2.464844,-3.361328 a 0.53303273,0.53303273 0 1 0 -1.064454,-0.05859 c -0.08009,1.454396 -0.766236,2.057863 -1.761718,2.417969 -0.995483,0.360106 -2.306279,0.352674 -3.316406,0.255859 -1.039903,-0.09967 -2.405378,-0.259116 -3.484376,-0.742187 -1.078997,-0.483071 -1.849829,-1.191276 -1.960937,-2.613282 A 0.53255328,0.53255328 0 0 0 62.332031,44.79102 Z"
               id="path871"
               inkscape:connector-curvature="0" />
            <path
               style="color:#000000;font-style:normal;font-variant:normal;font-weight:normal;font-stretch:normal;font-size:medium;line-height:normal;font-family:sans-serif;font-variant-ligatures:normal;font-variant-position:normal;font-variant-caps:normal;font-variant-numeric:normal;font-variant-alternates:normal;font-feature-settings:normal;text-indent:0;text-align:start;text-decoration:none;text-decoration-line:none;text-decoration-style:solid;text-decoration-color:#000000;letter-spacing:normal;word-spacing:normal;text-transform:none;writing-mode:lr-tb;direction:ltr;text-orientation:mixed;dominant-baseline:auto;baseline-shift:baseline;text-anchor:start;white-space:normal;shape-padding:0;clip-rule:nonzero;display:inline;overflow:visible;visibility:visible;opacity:1;isolation:auto;mix-blend-mode:normal;color-interpolation:sRGB;color-interpolation-filters:linearRGB;solid-color:#000000;solid-opacity:1;vector-effect:none;fill:#0088aa;fill-opacity:1;fill-rule:evenodd;stroke:none;stroke-width:0.39453715;stroke-linecap:round;stroke-linejoin:round;stroke-miterlimit:4;stroke-dasharray:none;stroke-dashoffset:0;stroke-opacity:1;color-rendering:auto;image-rendering:auto;shape-rendering:auto;text-rendering:auto;enable-background:accumulate"
               d="m 72.240234,49.726562 a 0.53255328,0.53255328 0 0 0 -0.5,0.654297 c 0.103005,0.462553 0.07074,0.822685 -0.05664,1.091797 -0.127382,0.269112 -0.35299,0.487408 -0.791016,0.654297 -0.97883,0.372937 -1.676523,0.177199 -2.21289,-0.201172 -0.536368,-0.378371 -0.870119,-1.005536 -0.923829,-1.353515 a 0.53257117,0.53257117 0 1 0 -1.052734,0.162109 c 0.111249,0.720772 0.577724,1.508343 1.363281,2.0625 0.785557,0.554157 1.931771,0.810096 3.207032,0.324219 0.634851,-0.24188 1.119478,-0.657659 1.373046,-1.19336 0.253569,-0.5357 0.272184,-1.151484 0.132813,-1.777343 a 0.53255328,0.53255328 0 0 0 -0.539063,-0.423829 z"
               id="path873"
               inkscape:connector-curvature="0" />
            <path
               style="color:#000000;font-style:normal;font-variant:normal;font-weight:normal;font-stretch:normal;font-size:medium;line-height:normal;font-family:sans-serif;font-variant-ligatures:normal;font-variant-position:normal;font-variant-caps:normal;font-variant-numeric:normal;font-variant-alternates:normal;font-feature-settings:normal;text-indent:0;text-align:start;text-decoration:none;text-decoration-line:none;text-decoration-style:solid;text-decoration-color:#000000;letter-spacing:normal;word-spacing:normal;text-transform:none;writing-mode:lr-tb;direction:ltr;text-orientation:mixed;dominant-baseline:auto;baseline-shift:baseline;text-anchor:start;white-space:normal;shape-padding:0;clip-rule:nonzero;display:inline;overflow:visible;visibility:visible;opacity:1;isolation:auto;mix-blend-mode:normal;color-interpolation:sRGB;color-interpolation-filters:linearRGB;solid-color:#000000;solid-opacity:1;vector-effect:none;fill:#0088aa;fill-opacity:1;fill-rule:evenodd;stroke:none;stroke-width:0.39453715;stroke-linecap:round;stroke-linejoin:round;stroke-miterlimit:4;stroke-dasharray:none;stroke-dashoffset:0;stroke-opacity:1;color-rendering:auto;image-rendering:auto;shape-rendering:auto;text-rendering:auto;enable-background:accumulate"
               d="m 68.087891,53.304688 a 0.53255328,0.53255328 0 0 0 -0.486329,0.404296 c -0.228296,0.874106 0.02393,1.58734 0.441407,1.96875 0.417481,0.381411 0.904648,0.47379 1.109375,0.513672 0.423184,0.08244 0.910506,0.0012 1.408203,-0.30664 0.497697,-0.307883 0.940138,-0.917412 0.966797,-1.757813 a 0.53255328,0.53255328 0 1 0 -1.064453,-0.0332 c -0.01645,0.518604 -0.21438,0.73103 -0.462891,0.884763 -0.248511,0.153732 -0.611768,0.174351 -0.644531,0.167968 -0.163255,-0.0318 -0.437924,-0.111543 -0.59375,-0.253906 -0.155827,-0.142363 -0.287683,-0.30614 -0.128907,-0.914062 a 0.53255328,0.53255328 0 0 0 -0.544921,-0.673828 z"
               id="path875"
               inkscape:connector-curvature="0" />
            <path
               style="color:#000000;font-style:normal;font-variant:normal;font-weight:normal;font-stretch:normal;font-size:medium;line-height:normal;font-family:sans-serif;font-variant-ligatures:normal;font-variant-position:normal;font-variant-caps:normal;font-variant-numeric:normal;font-variant-alternates:normal;font-feature-settings:normal;text-indent:0;text-align:start;text-decoration:none;text-decoration-line:none;text-decoration-style:solid;text-decoration-color:#000000;letter-spacing:normal;word-spacing:normal;text-transform:none;writing-mode:lr-tb;direction:ltr;text-orientation:mixed;dominant-baseline:auto;baseline-shift:baseline;text-anchor:start;white-space:normal;shape-padding:0;clip-rule:nonzero;display:inline;overflow:visible;visibility:visible;opacity:1;isolation:auto;mix-blend-mode:normal;color-interpolation:sRGB;color-interpolation-filters:linearRGB;solid-color:#000000;solid-opacity:1;vector-effect:none;fill:#0088aa;fill-opacity:1;fill-rule:evenodd;stroke:none;stroke-width:0.39453715;stroke-linecap:round;stroke-linejoin:round;stroke-miterlimit:4;stroke-dasharray:none;stroke-dashoffset:0;stroke-opacity:1;color-rendering:auto;image-rendering:auto;shape-rendering:auto;text-rendering:auto;enable-background:accumulate"
               d="m 67.417969,55.824219 a 0.53255328,0.53255328 0 0 0 -0.490235,0.40039 c -0.112254,0.417443 -0.05763,0.836748 0.132813,1.152344 0.190441,0.315596 0.489095,0.516891 0.800781,0.613281 0.311686,0.09639 0.646694,0.09869 0.962891,-0.01758 0.316197,-0.116267 0.616938,-0.379263 0.748047,-0.746094 a 0.53314607,0.53314607 0 1 0 -1.003907,-0.359374 c -0.02203,0.06163 -0.04275,0.08025 -0.111328,0.105468 -0.06858,0.02522 -0.181672,0.03019 -0.279297,0 -0.09762,-0.03019 -0.168786,-0.08634 -0.205078,-0.146484 -0.03629,-0.06014 -0.06633,-0.135674 -0.01563,-0.324219 a 0.53255328,0.53255328 0 0 0 -0.539062,-0.677734 z"
               id="path877"
               inkscape:connector-curvature="0" />
            <path
               style="color:#000000;font-style:normal;font-variant:normal;font-weight:normal;font-stretch:normal;font-size:medium;line-height:normal;font-family:sans-serif;font-variant-ligatures:normal;font-variant-position:normal;font-variant-caps:normal;font-variant-numeric:normal;font-variant-alternates:normal;font-feature-settings:normal;text-indent:0;text-align:start;text-decoration:none;text-decoration-line:none;text-decoration-style:solid;text-decoration-color:#000000;letter-spacing:normal;word-spacing:normal;text-transform:none;writing-mode:lr-tb;direction:ltr;text-orientation:mixed;dominant-baseline:auto;baseline-shift:baseline;text-anchor:start;white-space:normal;shape-padding:0;clip-rule:nonzero;display:inline;overflow:visible;visibility:visible;opacity:1;isolation:auto;mix-blend-mode:normal;color-interpolation:sRGB;color-interpolation-filters:linearRGB;solid-color:#000000;solid-opacity:1;vector-effect:none;fill:#0088aa;fill-opacity:1;fill-rule:evenodd;stroke:none;stroke-width:0.39453715;stroke-linecap:round;stroke-linejoin:miter;stroke-miterlimit:4;stroke-dasharray:none;stroke-dashoffset:0;stroke-opacity:1;color-rendering:auto;image-rendering:auto;shape-rendering:auto;text-rendering:auto;enable-background:accumulate"
               d="m 61.603516,49.8125 c -0.693346,0.124701 -1.256642,0.464357 -1.617188,0.986328 -0.721091,1.043942 -0.503376,2.591136 0.634766,4.019531 0.468722,0.588258 0.688705,1.074016 0.748047,1.44336 0.05934,0.369343 -0.01125,0.631126 -0.205079,0.904297 -0.387666,0.54634 -1.411437,1.065718 -2.765624,1.410156 -2.707156,0.688566 -6.597901,0.779215 -8.941407,0.779297 -2.259997,-0.01549 -6.113062,-0.36488 -8.521484,-1.480469 -1.204211,-0.557794 -1.993129,-1.26697 -2.201172,-2.130859 -0.208043,-0.86389 0.109447,-2.061993 1.527344,-3.71875 a 0.53268895,0.53268895 0 1 0 -0.810547,-0.691407 c -1.533621,1.791977 -2.06909,3.341307 -1.751953,4.658204 0.317137,1.316896 1.432883,2.221422 2.789062,2.849609 2.71236,1.256374 6.608226,1.563955 8.960938,1.580078 h 0.002 0.002 c 2.36746,0 6.28882,-0.0722 9.207031,-0.814453 1.459106,-0.371124 2.70212,-0.883384 3.371094,-1.826172 0.334487,-0.471394 0.490332,-1.068868 0.390625,-1.689453 -0.09971,-0.620586 -0.423632,-1.255815 -0.966797,-1.9375 -0.95219,-1.195022 -0.969588,-2.203062 -0.591797,-2.75 0.377792,-0.546938 1.276302,-0.860035 2.757813,-0.294922 0.625874,0.238736 0.9863,0.754132 1.232422,1.523437 0.246121,0.769306 0.331754,1.751825 0.375,2.701172 0.04324,0.949348 0.04107,1.853547 0.177734,2.570313 0.06833,0.358383 0.158111,0.686653 0.416016,0.964844 0.257904,0.27819 0.734299,0.383811 1.115234,0.269531 a 0.53255328,0.53255328 0 1 0 -0.306641,-1.019531 c -0.120194,0.03606 -0.01315,0.04265 -0.02734,0.02734 -0.01419,-0.01531 -0.09919,-0.174807 -0.150391,-0.443359 C 66.35081,57.166018 66.337518,56.260981 66.293066,55.285153 66.248616,54.309325 66.169274,53.250571 65.867285,52.306638 65.565198,51.362707 64.994447,50.492606 64,50.113281 63.120434,49.777777 62.296862,49.687799 61.603516,49.8125 Z"
               id="path879"
               inkscape:connector-curvature="0" />
            <path
               style="color:#000000;font-style:normal;font-variant:normal;font-weight:normal;font-stretch:normal;font-size:medium;line-height:normal;font-family:sans-serif;font-variant-ligatures:normal;font-variant-position:normal;font-variant-caps:normal;font-variant-numeric:normal;font-variant-alternates:normal;font-feature-settings:normal;text-indent:0;text-align:start;text-decoration:none;text-decoration-line:none;text-decoration-style:solid;text-decoration-color:#000000;letter-spacing:normal;word-spacing:normal;text-transform:none;writing-mode:lr-tb;direction:ltr;text-orientation:mixed;dominant-baseline:auto;baseline-shift:baseline;text-anchor:start;white-space:normal;shape-padding:0;clip-rule:nonzero;display:inline;overflow:visible;visibility:visible;opacity:1;isolation:auto;mix-blend-mode:normal;color-interpolation:sRGB;color-interpolation-filters:linearRGB;solid-color:#000000;solid-opacity:1;vector-effect:none;fill:#0088aa;fill-opacity:1;fill-rule:evenodd;stroke:none;stroke-width:0.39453715;stroke-linecap:round;stroke-linejoin:miter;stroke-miterlimit:4;stroke-dasharray:none;stroke-dashoffset:0;stroke-opacity:1;color-rendering:auto;image-rendering:auto;shape-rendering:auto;text-rendering:auto;enable-background:accumulate"
               d="m 57.587891,46.0625 a 0.53255328,0.53255328 0 0 0 -0.392579,0.882812 c 0.70723,0.835713 1.060969,1.604126 1.107422,2.232422 0.04645,0.628297 -0.161777,1.148799 -0.755859,1.666016 -1.188165,1.034435 -4.039002,1.833303 -8.712891,1.816406 -2.328347,-0.0084 -3.97407,-0.263923 -5.085937,-0.648437 -1.111868,-0.384515 -1.675376,-0.877819 -1.955078,-1.378907 -0.279702,-0.501087 -0.30416,-1.059243 -0.173828,-1.662109 0.130331,-0.602866 0.423383,-1.225862 0.728515,-1.753906 a 0.53255328,0.53255328 0 1 0 -0.921875,-0.533203 c -0.337154,0.583461 -0.68101,1.291657 -0.847656,2.0625 -0.166646,0.770842 -0.148905,1.628628 0.285156,2.40625 0.434062,0.777622 1.257086,1.425195 2.535157,1.867187 1.27807,0.441993 3.028441,0.698344 5.43164,0.707031 4.789207,0.01731 7.83087,-0.700025 9.416016,-2.080078 0.792573,-0.690026 1.189153,-1.59994 1.11914,-2.546875 -0.07001,-0.946934 -0.555995,-1.899036 -1.355468,-2.84375 A 0.53255328,0.53255328 0 0 0 57.587891,46.0625 Z"
               id="path881"
               inkscape:connector-curvature="0" />
            <path
               style="color:#000000;font-style:normal;font-variant:normal;font-weight:normal;font-stretch:normal;font-size:medium;line-height:normal;font-family:sans-serif;font-variant-ligatures:normal;font-variant-position:normal;font-variant-caps:normal;font-variant-numeric:normal;font-variant-alternates:normal;font-feature-settings:normal;text-indent:0;text-align:start;text-decoration:none;text-decoration-line:none;text-decoration-style:solid;text-decoration-color:#000000;letter-spacing:normal;word-spacing:normal;text-transform:none;writing-mode:lr-tb;direction:ltr;text-orientation:mixed;dominant-baseline:auto;baseline-shift:baseline;text-anchor:start;white-space:normal;shape-padding:0;clip-rule:nonzero;display:inline;overflow:visible;visibility:visible;opacity:1;isolation:auto;mix-blend-mode:normal;color-interpolation:sRGB;color-interpolation-filters:linearRGB;solid-color:#000000;solid-opacity:1;vector-effect:none;fill:#0088aa;fill-opacity:1;fill-rule:evenodd;stroke:none;stroke-width:0.39453715;stroke-linecap:round;stroke-linejoin:miter;stroke-miterlimit:4;stroke-dasharray:none;stroke-dashoffset:0;stroke-opacity:1;color-rendering:auto;image-rendering:auto;shape-rendering:auto;text-rendering:auto;enable-background:accumulate"
               d="m 55.068359,41.080078 a 0.53255328,0.53255328 0 0 0 -0.410156,0.875 c 0.654097,0.804625 1.000955,1.498889 1.089844,2.03125 0.08889,0.532361 -0.02515,0.901108 -0.388672,1.28125 -0.727045,0.760284 -2.698992,1.395708 -5.869141,1.560547 -3.631797,0.188843 -5.238223,-0.669975 -5.888672,-1.556641 -0.650448,-0.886665 -0.430016,-1.99124 -0.166015,-2.441406 a 0.53311451,0.53311451 0 1 0 -0.919922,-0.539062 c -0.486805,0.830086 -0.719433,2.31983 0.226563,3.609375 0.945995,1.289544 2.985917,2.19065 6.802734,1.992187 3.275432,-0.170313 5.45641,-0.709548 6.583984,-1.888672 0.563787,-0.589562 0.803146,-1.383781 0.667969,-2.193359 -0.135177,-0.809578 -0.588731,-1.637014 -1.3125,-2.527344 a 0.53255328,0.53255328 0 0 0 -0.416016,-0.203125 z"
               id="path883"
               inkscape:connector-curvature="0" />
            <path
               style="color:#000000;font-style:normal;font-variant:normal;font-weight:normal;font-stretch:normal;font-size:medium;line-height:normal;font-family:sans-serif;font-variant-ligatures:normal;font-variant-position:normal;font-variant-caps:normal;font-variant-numeric:normal;font-variant-alternates:normal;font-feature-settings:normal;text-indent:0;text-align:start;text-decoration:none;text-decoration-line:none;text-decoration-style:solid;text-decoration-color:#000000;letter-spacing:normal;word-spacing:normal;text-transform:none;writing-mode:lr-tb;direction:ltr;text-orientation:mixed;dominant-baseline:auto;baseline-shift:baseline;text-anchor:start;white-space:normal;shape-padding:0;clip-rule:nonzero;display:inline;overflow:visible;visibility:visible;opacity:1;isolation:auto;mix-blend-mode:normal;color-interpolation:sRGB;color-interpolation-filters:linearRGB;solid-color:#000000;solid-opacity:1;vector-effect:none;fill:#0088aa;fill-opacity:1;fill-rule:evenodd;stroke:none;stroke-width:0.39453715;stroke-linecap:round;stroke-linejoin:miter;stroke-miterlimit:4;stroke-dasharray:none;stroke-dashoffset:0;stroke-opacity:1;color-rendering:auto;image-rendering:auto;shape-rendering:auto;text-rendering:auto;enable-background:accumulate"
               d="M 44.748047,37.226562 A 0.53255328,0.53255328 0 0 0 44.279297,37.5 c -0.202716,0.351931 -1.005482,1.376375 -0.929688,2.583984 0.0379,0.603805 0.348424,1.246423 0.990235,1.730469 0.641811,0.484046 1.585852,0.843552 2.974609,1.076172 2.433858,0.407677 4.346354,0.245299 5.552735,-0.591797 0.60319,-0.418548 1.008911,-1.043216 1.099609,-1.767578 0.0907,-0.724362 -0.108282,-1.517999 -0.556641,-2.367188 a 0.53255328,0.53255328 0 1 0 -0.941406,0.498047 c 0.379797,0.719333 0.493821,1.304072 0.439453,1.738282 -0.05437,0.434209 -0.250621,0.747397 -0.648437,1.023437 -0.795632,0.552081 -2.481305,0.799299 -4.769532,0.416016 -1.286396,-0.215475 -2.073832,-0.548178 -2.509765,-0.876953 -0.435933,-0.328775 -0.547831,-0.620196 -0.56836,-0.947266 -0.04106,-0.65414 0.499908,-1.48238 0.789063,-1.984375 a 0.53255328,0.53255328 0 0 0 -0.453125,-0.804688 z"
               id="path885"
               inkscape:connector-curvature="0" />
            <path
               style="color:#000000;font-style:normal;font-variant:normal;font-weight:normal;font-stretch:normal;font-size:medium;line-height:normal;font-family:sans-serif;font-variant-ligatures:normal;font-variant-position:normal;font-variant-caps:normal;font-variant-numeric:normal;font-variant-alternates:normal;font-feature-settings:normal;text-indent:0;text-align:start;text-decoration:none;text-decoration-line:none;text-decoration-style:solid;text-decoration-color:#000000;letter-spacing:normal;word-spacing:normal;text-transform:none;writing-mode:lr-tb;direction:ltr;text-orientation:mixed;dominant-baseline:auto;baseline-shift:baseline;text-anchor:start;white-space:normal;shape-padding:0;clip-rule:nonzero;display:inline;overflow:visible;visibility:visible;opacity:1;isolation:auto;mix-blend-mode:normal;color-interpolation:sRGB;color-interpolation-filters:linearRGB;solid-color:#000000;solid-opacity:1;vector-effect:none;fill:#0088aa;fill-opacity:1;fill-rule:evenodd;stroke:none;stroke-width:0.39453715;stroke-linecap:round;stroke-linejoin:round;stroke-miterlimit:4;stroke-dasharray:none;stroke-dashoffset:0;stroke-opacity:1;color-rendering:auto;image-rendering:auto;shape-rendering:auto;text-rendering:auto;enable-background:accumulate"
               d="m 48.478516,27.394531 a 0.53255328,0.53255328 0 0 0 -0.511719,0.619141 c 0.435798,2.596655 0.210624,3.741289 -0.228516,4.496094 -0.43914,0.754805 -1.243293,1.240346 -2.060547,2.330078 -0.271504,0.362025 -0.382866,0.810293 -0.300781,1.210937 0.08208,0.400645 0.320071,0.728521 0.615235,0.998047 0.590326,0.539053 1.448387,0.894971 2.36914,1.064453 0.920753,0.169483 1.909711,0.149383 2.748047,-0.228515 0.838336,-0.377899 1.494579,-1.201597 1.537109,-2.341797 a 0.53258476,0.53258476 0 1 0 -1.064453,-0.03906 c -0.02967,0.795435 -0.35957,1.160015 -0.910156,1.408203 -0.550586,0.248189 -1.354733,0.292689 -2.117187,0.152344 -0.762455,-0.140344 -1.479017,-0.46968 -1.84375,-0.802734 -0.182367,-0.166528 -0.267361,-0.319858 -0.289063,-0.425781 -0.0217,-0.105924 -0.01884,-0.18907 0.107422,-0.357422 0.693114,-0.924204 1.528654,-1.401866 2.128906,-2.433594 0.519732,-0.893329 0.66086,-2.270245 0.417969,-4.339844 0.277279,0.102479 0.682663,0.158334 0.816406,0.326172 0.235762,0.295864 0.374159,0.776685 0.548828,1.398438 0.349338,1.243505 0.981538,2.9652 3.566406,4.097656 a 0.53255328,0.53255328 0 1 0 0.427735,-0.97461 C 52.129239,32.542321 51.806073,31.348319 51.466797,30.140628 51.297159,29.536782 51.15642,28.909081 50.724609,28.367191 50.292799,27.8253 49.574888,27.471139 48.53125,27.394534 a 0.53255328,0.53255328 0 0 0 -0.05273,0 z"
               id="path887"
               inkscape:connector-curvature="0" />
          </g>
        </g>
      </g>
    </g>
  </g>
</svg>
