<?xml version="1.0" encoding="UTF-8" standalone="no"?>
<!-- Created with Inkscape (http://www.inkscape.org/) -->

<svg
   xmlns:dc="http://purl.org/dc/elements/1.1/"
   xmlns:cc="http://creativecommons.org/ns#"
   xmlns:rdf="http://www.w3.org/1999/02/22-rdf-syntax-ns#"
   xmlns:svg="http://www.w3.org/2000/svg"
   xmlns="http://www.w3.org/2000/svg"
   xmlns:sodipodi="http://sodipodi.sourceforge.net/DTD/sodipodi-0.dtd"
   xmlns:inkscape="http://www.inkscape.org/namespaces/inkscape"
   width="1400"
   height="900"
   viewBox="0 0 370.41666 238.12501"
   version="1.1"
   id="svg8"
   inkscape:version="0.92.2 5c3e80d, 2017-08-06"
   sodipodi:docname="p5.svg"
   inkscape:export-filename="/home/onur/Dropbox/design/d00018-shitty_logos/behance_project/p5.png"
   inkscape:export-xdpi="96"
   inkscape:export-ydpi="96">
  <defs
     id="defs2" />
  <sodipodi:namedview
     id="base"
     pagecolor="#ffffff"
     bordercolor="#666666"
     borderopacity="1.0"
     inkscape:pageopacity="0.0"
     inkscape:pageshadow="2"
     inkscape:zoom="0.7"
     inkscape:cx="772.31086"
     inkscape:cy="396.08647"
     inkscape:document-units="mm"
     inkscape:current-layer="g915"
     showgrid="false"
     units="px"
     inkscape:window-width="1920"
     inkscape:window-height="1036"
     inkscape:window-x="0"
     inkscape:window-y="20"
     inkscape:window-maximized="0"
     showguides="true"
     inkscape:guide-bbox="true"
     inkscape:snap-global="true"
     inkscape:snap-page="true">
    <sodipodi:guide
       position="52.916667,170.84525"
       orientation="1,0"
       id="guide838"
       inkscape:locked="false"
       inkscape:label=""
       inkscape:color="rgb(0,0,255)" />
    <sodipodi:guide
       position="268.3631,199.94941"
       orientation="0,1"
       id="guide840"
       inkscape:locked="false"
       inkscape:label=""
       inkscape:color="rgb(0,0,255)" />
    <sodipodi:guide
       position="246.4225,39.6875"
       orientation="0,1"
       id="guide859"
       inkscape:locked="false"
       inkscape:label=""
       inkscape:color="rgb(0,0,255)" />
    <sodipodi:guide
       position="317.5,155.55087"
       orientation="1,0"
       id="guide861"
       inkscape:locked="false"
       inkscape:label=""
       inkscape:color="rgb(0,0,255)" />
  </sodipodi:namedview>
  <metadata
     id="metadata5">
    <rdf:RDF>
      <cc:Work
         rdf:about="">
        <dc:format>image/svg+xml</dc:format>
        <dc:type
           rdf:resource="http://purl.org/dc/dcmitype/StillImage" />
        <dc:title />
      </cc:Work>
    </rdf:RDF>
  </metadata>
  <g
     inkscape:label="Layer 1"
     inkscape:groupmode="layer"
     id="layer1"
     transform="translate(0,-58.874983)">
    <path
       style="fill:#f2f2f2;fill-opacity:1;stroke:none;stroke-width:0.1;stroke-linecap:round;stroke-linejoin:round;stroke-miterlimit:4;stroke-dasharray:none;stroke-dashoffset:0;stroke-opacity:1;paint-order:stroke fill markers"
       d="M 0,58.874985 H 370.41666 V 296.99998 H 0 Z"
       id="rect852"
       sodipodi:insensitive="true"
       inkscape:connector-curvature="0" />
    <flowRoot
       xml:space="preserve"
       id="flowRoot871"
       style="fill:black;stroke:none;stroke-opacity:1;stroke-width:1px;stroke-linejoin:miter;stroke-linecap:butt;fill-opacity:1;font-family:sans-serif;font-style:normal;font-weight:normal;font-size:16px;line-height:25px;letter-spacing:0px;word-spacing:0px;text-anchor:middle;text-align:center"><flowRegion
         id="flowRegion873"><rect
           id="rect875"
           width="384.86813"
           height="212.13203"
           x="462.64987"
           y="492.90854" /></flowRegion><flowPara
         id="flowPara877" /></flowRoot>    <g
       id="g935"
       transform="matrix(1.5431916,0,0,1.5431916,92.613734,-72.443051)"
       style="stroke-width:0.64800769">
      <g
         id="g2183"
         transform="matrix(1.2208441,0,0,1.2208441,-75.923171,-31.689835)"
         style="stroke-width:0.34395376">
        <g
           id="g915"
           transform="matrix(1.4327873,0,0,1.4327873,-113.60159,-31.978849)"
           style="stroke-width:0.37045738">
          <g
             transform="matrix(0.4421286,0,0,0.4421286,110.83187,60.755567)"
             id="g1536"
             style="stroke-width:0.8378951">
            <path
               style="fill:#2ca05a;fill-rule:evenodd;stroke:none;stroke-width:0.83789498px;stroke-linecap:butt;stroke-linejoin:miter;stroke-opacity:1"
               d="m 470,426.0918 c -25.30998,10.08732 -40.90179,26.86107 -50.19531,43.59961 9.01749,2.91965 19.83347,4.72461 31.43164,4.72461 8.06915,0 15.75436,-0.8798 22.72656,-2.39258 C 468.67325,460.66208 466.08001,445.8621 470,426.0918 Z m -58.26367,62.3457 c -2.81428,8.90767 -4.02867,16.98758 -4.23633,23.00977 -0.71429,20.7143 16.78543,35.00168 24.64258,39.64453 -13.57143,-0.7143 -32.49944,-16.42968 -34.28516,-36.42969 -27.14285,2.85713 -42.32668,24.58159 -50,45 -7.71311,20.52431 -4.29259,50.4681 11.96485,65.17969 -12.72191,-7.8519 -20.53628,-30.35688 -21.96485,-40.89258 -22.5,15.71425 -32.85714,40.71286 -25,65.71289 7.85715,24.99999 38.21345,59.28517 91.42774,69.28516 53.21427,10.00002 120.0014,6.43027 161.78711,-22.85547 41.78573,-29.28571 47.14204,-85.00114 -3.57227,-118.92969 -2.85713,18.92855 -12.42164,37.55809 -23.57227,45.71484 13.21429,-19.28572 24.44192,-43.06522 16.68165,-62.6914 -8.82395,-22.31619 -45.60853,-49.45063 -59.53711,-61.23633 -3.05733,-2.58697 -6.42383,-5.55548 -9.73047,-9.04688 -10.56669,3.2367 -22.46765,4.98438 -35.10547,4.98438 -14.42382,0 -27.88625,-2.27834 -39.5,-6.44922 z"
               id="path1528"
               inkscape:connector-curvature="0"
               transform="matrix(0.26458333,0,0,0.26458333,-15.874998,0)" />
            <g
               style="stroke-width:1.02978003;fill:#ff6600"
               transform="matrix(0.78111399,0,0,0.84757052,22.464898,7.3822882)"
               id="g1534">
              <path
                 style="color:#000000;font-style:normal;font-variant:normal;font-weight:normal;font-stretch:normal;font-size:medium;line-height:normal;font-family:sans-serif;font-variant-ligatures:normal;font-variant-position:normal;font-variant-caps:normal;font-variant-numeric:normal;font-variant-alternates:normal;font-feature-settings:normal;text-indent:0;text-align:start;text-decoration:none;text-decoration-line:none;text-decoration-style:solid;text-decoration-color:#000000;letter-spacing:normal;word-spacing:normal;text-transform:none;writing-mode:lr-tb;direction:ltr;text-orientation:mixed;dominant-baseline:auto;baseline-shift:baseline;text-anchor:start;white-space:normal;shape-padding:0;clip-rule:nonzero;display:inline;overflow:visible;visibility:visible;opacity:1;isolation:auto;mix-blend-mode:normal;color-interpolation:sRGB;color-interpolation-filters:linearRGB;solid-color:#000000;solid-opacity:1;vector-effect:none;fill:#ff6600;fill-opacity:1;fill-rule:nonzero;stroke:none;stroke-width:3.60423064;stroke-linecap:round;stroke-linejoin:round;stroke-miterlimit:4;stroke-dasharray:none;stroke-dashoffset:0;stroke-opacity:1;paint-order:stroke fill markers;color-rendering:auto;image-rendering:auto;shape-rendering:auto;text-rendering:auto;enable-background:accumulate"
                 d="m 103.76172,117.38281 c -6.576078,0 -12.546664,1.32277 -17.056642,3.60742 -4.509978,2.28466 -7.841797,5.73894 -7.841797,10.06836 0,4.32942 3.331819,7.78175 7.841797,10.06641 4.509978,2.28466 10.480564,3.60742 17.056642,3.60742 6.57608,0 12.54666,-1.32276 17.05664,-3.60742 4.50998,-2.28466 7.8418,-5.73699 7.8418,-10.06641 0,-4.32942 -3.33182,-7.7837 -7.8418,-10.06836 -4.50998,-2.28465 -10.48056,-3.60742 -17.05664,-3.60742 z m 0,4.30274 c 5.98725,0 11.39013,1.25651 15.11328,3.14257 3.72315,1.88607 5.48438,4.19559 5.48438,6.23047 0,2.03489 -1.76123,4.34245 -5.48438,6.22852 -3.72315,1.88606 -9.12603,3.14258 -15.11328,3.14258 -5.987252,0 -11.390135,-1.25652 -15.113282,-3.14258 -3.723148,-1.88607 -5.484375,-4.19363 -5.484376,-6.22852 0,-2.03488 1.761228,-4.3444 5.484376,-6.23047 3.723147,-1.88606 9.12603,-3.14257 15.113282,-3.14257 z"
                 id="ellipse1532"
                 inkscape:connector-curvature="0" />
            </g>
          </g>
          <g
             aria-label="HOLY SHIT"
             style="font-style:normal;font-weight:normal;font-size:11.29062366px;line-height:17.64159966px;font-family:sans-serif;text-align:center;letter-spacing:0px;word-spacing:0px;text-anchor:middle;fill:#1a1a1a;fill-opacity:1;stroke:none;stroke-width:0.11126265px;stroke-linecap:butt;stroke-linejoin:miter;stroke-opacity:1"
             id="text1547"
             transform="matrix(0.88094999,0,0,0.88094999,83.247078,5.2517146)">
            <path
               d="m 63.759037,173.68132 v -7.86956 h -2.021022 v 2.8904 h -1.614559 v -2.8904 h -2.021021 v 7.86956 h 2.021021 v -3.30815 h 1.614559 v 3.30815 z"
               style="font-style:normal;font-variant:normal;font-weight:900;font-stretch:normal;font-family:MetaPro;-inkscape-font-specification:'MetaPro Heavy';fill:#1a1a1a;stroke-width:0.11126265px"
               id="path1553"
               inkscape:connector-curvature="0" />
            <path
               d="m 71.954442,169.44734 c 0,-1.72747 -0.779053,-3.77107 -3.454931,-3.77107 -2.077475,0 -3.613,1.46778 -3.613,4.26785 0,2.35974 1.26455,3.87269 3.545256,3.87269 2.811366,0 3.522675,-2.11135 3.522675,-4.36947 z m -2.258125,0.24839 c 0,2.02102 -0.37259,2.5291 -1.230678,2.5291 -0.835506,0 -1.321003,-0.49679 -1.321003,-2.50652 0,-1.50165 0.383881,-2.46135 1.298422,-2.46135 0.869378,0 1.253259,0.4742 1.253259,2.43877 z"
               style="font-style:normal;font-variant:normal;font-weight:900;font-stretch:normal;font-family:MetaPro;-inkscape-font-specification:'MetaPro Heavy';fill:#1a1a1a;stroke-width:0.11126265px"
               id="path1555"
               inkscape:connector-curvature="0" />
            <path
               d="m 77.795222,172.01031 h -2.675878 v -6.19855 h -2.043603 v 7.86956 h 4.3356 z"
               style="font-style:normal;font-variant:normal;font-weight:900;font-stretch:normal;font-family:MetaPro;-inkscape-font-specification:'MetaPro Heavy';fill:#1a1a1a;stroke-width:0.11126265px"
               id="path1557"
               inkscape:connector-curvature="0" />
            <path
               d="m 83.56967,165.81176 h -2.404903 l -0.688728,1.70488 c -0.135487,0.32743 -0.270975,0.68873 -0.417753,1.06132 -0.158069,-0.4855 -0.225812,-0.67744 -0.395172,-1.09519 l -0.688728,-1.67101 h -2.416193 l 2.427484,4.58399 v 3.28557 h 2.066184 v -3.33073 z"
               style="font-style:normal;font-variant:normal;font-weight:900;font-stretch:normal;font-family:MetaPro;-inkscape-font-specification:'MetaPro Heavy';fill:#1a1a1a;stroke-width:0.11126265px"
               id="path1559"
               inkscape:connector-curvature="0" />
            <path
               d="m 92.168892,170.9377 c 0,-1.58069 -1.219387,-1.96457 -2.066184,-2.17909 l -0.801635,-0.20323 c -0.587112,-0.14678 -0.767762,-0.40647 -0.767762,-0.66615 0,-0.31614 0.282266,-0.56453 0.801634,-0.56453 0.54195,0 1.241969,0.20323 1.772628,0.55324 l 0.970994,-1.43391 c -0.700019,-0.4855 -1.716175,-0.76776 -2.811365,-0.76776 -1.761338,0 -3.048469,1.03874 -3.048469,2.59684 0,1.35488 0.779053,1.98715 1.919406,2.28071 l 0.925831,0.2371 c 0.54195,0.13549 0.790344,0.29356 0.790344,0.64357 0,0.42904 -0.316137,0.7226 -1.106481,0.7226 -0.801634,0 -1.648431,-0.30485 -2.212962,-0.63228 l -0.71131,1.58069 c 0.790344,0.41775 1.716175,0.71131 2.901691,0.71131 2.043603,0 3.44364,-0.99358 3.44364,-2.87911 z"
               style="font-style:normal;font-variant:normal;font-weight:900;font-stretch:normal;font-family:MetaPro;-inkscape-font-specification:'MetaPro Heavy';fill:#1a1a1a;stroke-width:0.11126265px"
               id="path1561"
               inkscape:connector-curvature="0" />
            <path
               d="m 98.954029,173.68132 v -7.86956 h -2.021022 v 2.8904 h -1.614559 v -2.8904 h -2.021021 v 7.86956 h 2.021021 v -3.30815 h 1.614559 v 3.30815 z"
               style="font-style:normal;font-variant:normal;font-weight:900;font-stretch:normal;font-family:MetaPro;-inkscape-font-specification:'MetaPro Heavy';fill:#1a1a1a;stroke-width:0.11126265px"
               id="path1563"
               inkscape:connector-curvature="0" />
            <path
               d="m 102.48641,173.68132 v -7.86956 h -2.06619 v 7.86956 z"
               style="font-style:normal;font-variant:normal;font-weight:900;font-stretch:normal;font-family:MetaPro;-inkscape-font-specification:'MetaPro Heavy';fill:#1a1a1a;stroke-width:0.11126265px"
               id="path1565"
               inkscape:connector-curvature="0" />
            <path
               d="m 109.32288,165.81176 h -5.93887 v 1.67101 h 1.82908 v 6.19855 h 2.0436 v -6.19855 h 1.82909 z"
               style="font-style:normal;font-variant:normal;font-weight:900;font-stretch:normal;font-family:MetaPro;-inkscape-font-specification:'MetaPro Heavy';fill:#1a1a1a;stroke-width:0.11126265px"
               id="path1567"
               inkscape:connector-curvature="0" />
          </g>
        </g>
      </g>
    </g>
  </g>
</svg>
