<?xml version="1.0" encoding="UTF-8" standalone="no"?>
<!-- Created with Inkscape (http://www.inkscape.org/) -->

<svg
   xmlns:dc="http://purl.org/dc/elements/1.1/"
   xmlns:cc="http://creativecommons.org/ns#"
   xmlns:rdf="http://www.w3.org/1999/02/22-rdf-syntax-ns#"
   xmlns:svg="http://www.w3.org/2000/svg"
   xmlns="http://www.w3.org/2000/svg"
   xmlns:sodipodi="http://sodipodi.sourceforge.net/DTD/sodipodi-0.dtd"
   xmlns:inkscape="http://www.inkscape.org/namespaces/inkscape"
   version="1.1"
   id="svg2"
   xml:space="preserve"
   width="793.70667"
   height="1122.52"
   viewBox="0 0 793.70667 1122.52"
   sodipodi:docname="p2.svg"
   inkscape:version="0.92.2 5c3e80d, 2017-08-06"><metadata
     id="metadata8"><rdf:RDF><cc:Work
         rdf:about=""><dc:format>image/svg+xml</dc:format><dc:type
           rdf:resource="http://purl.org/dc/dcmitype/StillImage" /><dc:title></dc:title></cc:Work></rdf:RDF></metadata><defs
     id="defs6"><clipPath
       clipPathUnits="userSpaceOnUse"
       id="clipPath30"><path
         d="M 0,841.89 H 595.28 V 0 H 0 Z"
         id="path28"
         inkscape:connector-curvature="0" /></clipPath></defs><sodipodi:namedview
     pagecolor="#ffffff"
     bordercolor="#666666"
     borderopacity="1"
     objecttolerance="10"
     gridtolerance="10"
     guidetolerance="10"
     inkscape:pageopacity="0"
     inkscape:pageshadow="2"
     inkscape:window-width="1920"
     inkscape:window-height="1036"
     id="namedview4"
     showgrid="false"
     inkscape:zoom="0.21024124"
     inkscape:cx="-299.96524"
     inkscape:cy="561.26001"
     inkscape:window-x="0"
     inkscape:window-y="20"
     inkscape:window-maximized="0"
     inkscape:current-layer="g10" /><g
     id="g10"
     inkscape:groupmode="layer"
     inkscape:label="branding3"
     transform="matrix(1.3333333,0,0,-1.3333333,0,1122.52)"><text
       transform="matrix(1,0,0,-1,392.6401,797.4448)"
       style="font-variant:normal;font-weight:500;font-stretch:normal;font-size:18px;font-family:'HelveticaNeueLT Com 65 Md';-inkscape-font-specification:HelveticaNeueLTCom-Md;writing-mode:lr-tb;fill:#231f20;fill-opacity:1;fill-rule:nonzero;stroke:none"
       id="text14"><tspan
         x="0 12.384 28.188 39.348 43.866001 54.125999 -180 -169.092 -158.58 -148.356 -143.136 -131.13 -121.536 -105.732 -94.554001 -83.718002"
         y="0"
         sodipodi:role="line"
         id="tspan12">AmblemThe Symbol</tspan></text>
<g
       id="g16"
       transform="translate(27.6401,810.9448)"><path
         d="M 0,0 V -780"
         style="fill:none;stroke:#231f20;stroke-width:0.5;stroke-linecap:butt;stroke-linejoin:miter;stroke-miterlimit:10;stroke-dasharray:none;stroke-opacity:1"
         id="path18"
         inkscape:connector-curvature="0" /></g><g
       id="g20"
       transform="translate(567.6382,810.9448)"><path
         d="M 0,0 V -780"
         style="fill:none;stroke:#231f20;stroke-width:0.5;stroke-linecap:butt;stroke-linejoin:miter;stroke-miterlimit:10;stroke-dasharray:none;stroke-opacity:1"
         id="path22"
         inkscape:connector-curvature="0" /></g><g
       id="g24"><g
         id="g26"
         clip-path="url(#clipPath30)"><g
           id="g32"
           transform="translate(341.8022,48.5693)"><path
             d="m 0,0 c -4.49,0 -8.945,0.155 -13.365,0.439 85.062,30.692 145.869,112.126 145.869,207.773 0,95.642 -60.807,177.08 -145.869,207.776 4.42,0.278 8.875,0.437 13.365,0.437 114.996,0 208.215,-93.22 208.215,-208.213 C 208.215,93.215 114.996,0 0,0 m -296.54,208.212 c 0,114.993 93.218,208.213 208.214,208.213 4.491,0 8.947,-0.159 13.365,-0.437 -85.06,-30.696 -145.869,-112.134 -145.869,-207.776 0,-95.647 60.809,-177.081 145.869,-207.773 C -79.379,0.155 -83.835,0 -88.326,0 -203.322,0 -296.54,93.215 -296.54,208.212 M -37.856,410.25 C 52.748,387.692 119.885,305.802 119.885,208.212 119.885,110.623 52.748,28.732 -37.856,6.17 Z M -50.472,6.17 c -90.602,22.562 -157.737,104.453 -157.737,202.042 0,97.585 67.135,179.476 157.737,202.038 z M 0,429.045 c -15.123,0 -29.891,-1.524 -44.159,-4.42 -14.273,2.896 -29.043,4.42 -44.167,4.42 -121.965,0 -220.836,-98.871 -220.836,-220.833 0,-121.966 98.871,-220.837 220.836,-220.837 15.124,0 29.894,1.524 44.167,4.427 14.268,-2.903 29.036,-4.427 44.159,-4.427 121.965,0 220.836,98.871 220.836,220.837 0,121.962 -98.871,220.833 -220.836,220.833"
             style="fill:#231f20;fill-opacity:1;fill-rule:nonzero;stroke:none"
             id="path34"
             inkscape:connector-curvature="0" /></g><g
           id="g36"
           transform="translate(133.5928,256.7813)"><path
             d="M 0,0 C 0,-97.589 67.136,-179.479 157.737,-202.042 V 202.039 C 67.136,179.476 0,97.585 0,0"
             style="fill:#ffffff;fill-opacity:1;fill-rule:nonzero;stroke:none"
             id="path38"
             inkscape:connector-curvature="0" /></g><g
           id="g40"
           transform="translate(461.687,256.7813)"><path
             d="M 0,0 C 0,97.59 -67.137,179.48 -157.741,202.039 V -202.042 C -67.137,-179.479 0,-97.589 0,0"
             style="fill:#ee3423;fill-opacity:1;fill-rule:nonzero;stroke:none"
             id="path42"
             inkscape:connector-curvature="0" /></g><g
           id="g44"
           transform="translate(120.9727,256.7813)"><path
             d="m 0,0 c 0,95.643 60.808,177.08 145.868,207.776 -4.419,0.278 -8.874,0.437 -13.365,0.437 C 17.507,208.213 -75.71,114.993 -75.71,0 c 0,-114.997 93.217,-208.212 208.213,-208.212 4.491,0 8.946,0.155 13.365,0.44 C 60.808,-177.081 0,-95.646 0,0"
             style="fill:#ee3423;fill-opacity:1;fill-rule:nonzero;stroke:none"
             id="path46"
             inkscape:connector-curvature="0" /></g><g
           id="g48"
           transform="translate(341.8022,464.9941)"><path
             d="m 0,0 c -4.488,0 -8.945,-0.159 -13.365,-0.437 85.062,-30.696 145.869,-112.133 145.869,-207.776 0,-95.646 -60.807,-177.081 -145.869,-207.772 4.42,-0.285 8.877,-0.44 13.365,-0.44 114.996,0 208.215,93.215 208.215,208.212 C 208.215,-93.22 114.996,0 0,0"
             style="fill:#ffffff;fill-opacity:1;fill-rule:nonzero;stroke:none"
             id="path50"
             inkscape:connector-curvature="0" /></g></g></g><text
       transform="matrix(1,0,0,-1,407.6401,708.8057)"
       style="font-variant:normal;font-weight:300;font-stretch:normal;font-size:10px;font-family:'HelveticaNeueLT Com 45 Lt';-inkscape-font-specification:HelveticaNeueLTCom-Lt;writing-mode:lr-tb;fill:#231f20;fill-opacity:1;fill-rule:nonzero;stroke:none"
       id="text56"><tspan
         x="0 7.04 12.6 14.69 19.379999 24.82 28.200001 33.209999 35.279999 38.220001 43.66 49.220001 51.259998 56.759998 59.669998 65.25 70.690002 73.970001 76.879997 79.949997 85.519997 88.919998 90.959999 96.459999 99.370003 104.78 110.55 116.32 121.73 123.79 126.85 135.39 140.71001"
         y="0"
         sodipodi:role="line"
         id="tspan52">Üniversitenin her türlü çoğaltma </tspan><tspan
         x="-15 -12.95 -7.9400001 -5.8699999 -0.43000001 8.0900002 10.13 15.69 21.65 26.969999 29.879999 35.099998 40.66 42.700001 44.759998 50.189999 55.75 57.790001 59.849998 65.199997 70.629997 76.050003 81.18 84.089996 89.860001 91.919998 97.349998 102.85 105.76 109.01 114.46 119.48 128 129.98"
         y="11"
         sodipodi:role="line"
         id="tspan54">işleminde kullanılacak olan resmi </tspan></text>
<text
       transform="matrix(1,0,0,-1,392.6401,686.8057)"
       style="font-variant:normal;font-weight:300;font-stretch:normal;font-size:10px;font-family:'HelveticaNeueLT Com 45 Lt';-inkscape-font-specification:HelveticaNeueLTCom-Lt;writing-mode:lr-tb;fill:#231f20;fill-opacity:1;fill-rule:nonzero;stroke:none"
       id="text60"><tspan
         x="0 5.4200001 13.94 19.870001 21.940001 27.379999 35.900002 37.950001 43.869999 45.900002 48.419998"
         y="0"
         sodipodi:role="line"
         id="tspan58">amblemidir.</tspan></text>
<text
       transform="matrix(1,0,0,-1,407.6401,675.8057)"
       style="font-variant:normal;font-weight:300;font-stretch:normal;font-size:10px;font-family:'HelveticaNeueLT Com 45 Lt';-inkscape-font-specification:HelveticaNeueLTCom-Lt;writing-mode:lr-tb;fill:#231f20;fill-opacity:1;fill-rule:nonzero;stroke:none"
       id="text70"><tspan
         x="0 6.5799999 15.1 21.030001 23.1 28.540001 37 39.91 45.459999 50.130001 55.57 58.970001 61.009998 66.57 72.529999 77.849998 80.760002 86.32 88.389999 93.790001 99.720001 101.76 105.04 107.95 112.94 118.38 123.67 125.71 127.76 133.72 139.03999"
         y="0"
         sodipodi:role="line"
         id="tspan62">Amblem üzerinde hiçbir şekilde </tspan><tspan
         x="-15 -9.4200001 -3.98 -0.56999999 4.9899998 10.42 15.99 21.74 23.719999 26.629999 32.560001 34.599998 37.880001 40.790001 46.75 52.200001 57.950001 60 65.010002 67.050003 72.339996 74.379997 76.419998 81.550003 84.459999 89.169998 94.589996 100.52 102.56 104.62 110.04 118.58 124.2 128.82001"
         y="11"
         sodipodi:role="line"
         id="tspan64">herhangi bir değişiklik yapılamaz.</tspan><tspan
         x="-180 -174.16 -168.60001 -166.55 -161.61 -158.7 -156.64999 -151.71001 -148.8 -145.73 -140.14999 -134.83 -131.92 -126.31 -123.21 -118.56 -113.17 -111.11 -105.7 -103.72 -100.81 -95.900002 -91.029999 -82.510002 -76.559998 -70.790001 -68.809998 -65.900002 -60.290001 -57.57 -54.66 -51.59 -46.009998 -40.689999"
         y="-33"
         sodipodi:role="line"
         id="tspan66">This is the ofﬁcial symbol of the </tspan><tspan
         x="-195 -189.42999 -183.87 -181.78 -177.09 -171.64999 -168.27 -163.25999 -161.2 -157.86 -153.10001 -150.19 -147.28999 -141.60001 -138.69 -132.74001 -127.42 -124.51 -118.94 -113.95 -108.52 -102.65 -99.739998 -97.080002 -91.309998 -88.029999 -85.120003 -79.709999 -77.669998 -75.690002 -72.779999 -69.529999 -64.089996 -58.150002 -54.919998 -49.150002 -43.220001 -37.639999"
         y="-22"
         sodipodi:role="line"
         id="tspan68">university to be used for all reproduc</tspan></text>
<text
       transform="matrix(1,0,0,-1,375.3701,697.8057)"
       style="font-variant:normal;font-weight:300;font-stretch:normal;font-size:10px;font-family:'HelveticaNeueLT Com 45 Lt';-inkscape-font-specification:HelveticaNeueLTCom-Lt;writing-mode:lr-tb;fill:#231f20;fill-opacity:1;fill-rule:nonzero;stroke:none"
       id="text74"><tspan
         x="0"
         y="0"
         id="tspan72">-</tspan></text>
<text
       transform="matrix(1,0,0,-1,212.6401,686.8057)"
       style="font-variant:normal;font-weight:300;font-stretch:normal;font-size:10px;font-family:'HelveticaNeueLT Com 45 Lt';-inkscape-font-specification:HelveticaNeueLTCom-Lt;writing-mode:lr-tb;fill:#231f20;fill-opacity:1;fill-rule:nonzero;stroke:none"
       id="text80"><tspan
         x="0 3.0599999 5.1300001 10.9 16.4 19.309999 25.23 30.799999 34.200001 40.150002 45.889999 50.889999 56.34 61.220001"
         y="0"
         sodipodi:role="line"
         id="tspan76">tion purposes.</tspan><tspan
         x="15 20.84 26.42 31.74 34.650002 39.560001 44.43 52.950001 58.900002 64.669998 66.650002 69.559998 78.07 83.639999 88.610001 91.699997 94.610001 100.19 105.48 110.17 115.61 118.89 121.8 127.75 133.07001 135.98 141.39 143.45 146.39 151.83 155.08 160.50999 166.25999"
         y="11"
         sodipodi:role="line"
         id="tspan78">The symbol must never be altered.</tspan></text>
<text
       transform="matrix(1,0,0,-1,212.6401,16.8047)"
       style="font-variant:normal;font-weight:normal;font-stretch:normal;font-size:10px;font-family:'HelveticaNeueLT Com 55 Roman';-inkscape-font-specification:HelveticaNeueLTCom-Roman;writing-mode:lr-tb;fill:#231f20;fill-opacity:1;fill-rule:nonzero;stroke:none"
       id="text84"><tspan
         x="0"
         y="0"
         id="tspan82">3</tspan></text>
</g></svg>