<?xml version="1.0" encoding="UTF-8" standalone="no"?>
<!-- Created with Inkscape (http://www.inkscape.org/) -->

<svg
   xmlns:dc="http://purl.org/dc/elements/1.1/"
   xmlns:cc="http://creativecommons.org/ns#"
   xmlns:rdf="http://www.w3.org/1999/02/22-rdf-syntax-ns#"
   xmlns:svg="http://www.w3.org/2000/svg"
   xmlns="http://www.w3.org/2000/svg"
   xmlns:sodipodi="http://sodipodi.sourceforge.net/DTD/sodipodi-0.dtd"
   xmlns:inkscape="http://www.inkscape.org/namespaces/inkscape"
   version="1.1"
   id="svg2"
   xml:space="preserve"
   width="793.70801"
   height="1122.52"
   viewBox="0 0 793.70801 1122.52"
   sodipodi:docname="p4.svg"
   inkscape:version="0.92.2 5c3e80d, 2017-08-06"><metadata
     id="metadata8"><rdf:RDF><cc:Work
         rdf:about=""><dc:format>image/svg+xml</dc:format><dc:type
           rdf:resource="http://purl.org/dc/dcmitype/StillImage" /><dc:title></dc:title></cc:Work></rdf:RDF></metadata><defs
     id="defs6"><clipPath
       clipPathUnits="userSpaceOnUse"
       id="clipPath94"><path
         d="M 0,841.89 H 595.281 V 0 H 0 Z"
         id="path92"
         inkscape:connector-curvature="0" /></clipPath></defs><sodipodi:namedview
     pagecolor="#ffffff"
     bordercolor="#666666"
     borderopacity="1"
     objecttolerance="10"
     gridtolerance="10"
     guidetolerance="10"
     inkscape:pageopacity="0"
     inkscape:pageshadow="2"
     inkscape:window-width="1920"
     inkscape:window-height="1036"
     id="namedview4"
     showgrid="false"
     inkscape:zoom="0.21024124"
     inkscape:cx="-299.96457"
     inkscape:cy="561.26001"
     inkscape:window-x="0"
     inkscape:window-y="20"
     inkscape:window-maximized="0"
     inkscape:current-layer="g10" /><g
     id="g10"
     inkscape:groupmode="layer"
     inkscape:label="branding3"
     transform="matrix(1.3333333,0,0,-1.3333333,0,1122.52)"><g
       id="g12"
       transform="translate(27.6406,810.9448)"><path
         d="M 0,0 V -780"
         style="fill:none;stroke:#231f20;stroke-width:0.5;stroke-linecap:butt;stroke-linejoin:miter;stroke-miterlimit:10;stroke-dasharray:none;stroke-opacity:1"
         id="path14"
         inkscape:connector-curvature="0" /></g><g
       id="g16"
       transform="translate(567.6387,810.9448)"><path
         d="M 0,0 V -780"
         style="fill:none;stroke:#231f20;stroke-width:0.5;stroke-linecap:butt;stroke-linejoin:miter;stroke-miterlimit:10;stroke-dasharray:none;stroke-opacity:1"
         id="path18"
         inkscape:connector-curvature="0" /></g><text
       transform="matrix(1,0,0,-1,407.6387,708.8057)"
       style="font-variant:normal;font-weight:300;font-stretch:normal;font-size:10px;font-family:'HelveticaNeueLT Com 45 Lt';-inkscape-font-specification:HelveticaNeueLTCom-Lt;writing-mode:lr-tb;fill:#231f20;fill-opacity:1;fill-rule:nonzero;stroke:none"
       id="text34"><tspan
         x="0 6.8699999 12.37 15.28 21.23 27 29.040001 34.610001 43.07 45.98 51.400002 59.919998 65.849998 67.919998 73.360001 81.82 84.730003 89.419998 94.739998 97.650002 103.07 111.59 117.52 119.59 125.03 133.49001"
         y="0"
         sodipodi:role="line"
         id="tspan20">Bu bölüm amblem ve amblem </tspan><tspan
         x="-15 -10.29 -4.6700001 0.12 2.1700001 7.1799998 9.2200003 14.78 16.82 22.32 25.23 27.98 33.400002 36.799999 42.09 44.130001 46.110001 49.02 54.950001 56.990002 60.389999 62.459999 67.910004 72.919998 74.959999 83.480003 85.550003 90.989998 94.220001 100.18 105.5 108.41 113.97 119.38 124.39 126.37 129.28 134.5 140.06 142.05 145.88"
         y="11"
         sodipodi:role="line"
         id="tspan22">yazısının farklı birleşimlerde nası kul- </tspan><tspan
         x="-15 -12.94 -7.5100002 -1.95 0.090000004 2.1300001 10.67 16.08 21.09 23.07 25.98 31.77 37.209999 40.459999 45.900002 51.380001 54.439999 56.509998 62.259998 64.300003 69.860001 71.839996 74.75 80.519997 86.269997 91.239998 94.18 99.620003 103.02 105.06 107.58"
         y="22"
         sodipodi:role="line"
         id="tspan24">lanılması gerektiğini gösterir.</tspan><tspan
         x="0 4.8800001 10.32 15.45 18.360001 23.41 28.700001 31.76 33.799999 37.080002 39.990002 45.549999 50.959999 53 55.040001 60.599998 66.559998 72 77.290001 79.269997 82.18 86.889999 92.510002 97.300003 99.349998 104.91 106.95 112.45 115.36 120.78 129.3 135.23 137.3 142.74001 151.2"
         y="33"
         sodipodi:role="line"
         id="tspan26">Tek satır halindeki yazının amblem </tspan><tspan
         x="-15 -12.96 -10.89 -5.5700002 -2.6600001 3.27 5.3099999 8.71 10.75 12.79 18.27 21.209999 26.530001 29.440001 34.66 40.220001 42.259998 44.32 49.75 55.310001 57.349998 59.389999 67.93 73.25 76.160004 81.150002 86.589996 91.879997 93.919998 95.900002 98.809998 100.85 106.14 108.12 111.03 116.95 118.98 121.03 126.99 132.31"
         y="44"
         sodipodi:role="line"
         id="tspan28">ile birlikte kullanılma şekli iki dilde </tspan><tspan
         x="-15 -9.5900002 -4.54 0.81 6.5599999 8.6099997 14.55 19.870001 22.780001 28.549999 34.299999 39.27 42.209999 47.650002 51.049999 53.09 55.130001 63.650002 65.699997 70.669998 73.730003 75.769997 78.290001"
         y="55"
         sodipodi:role="line"
         id="tspan30">aşağıda gösterilmiştir.</tspan><tspan
         x="0 6.5799999 15.1 21.030001 23.1 28.540001 37.060001 43.02 48.34 51.25 56.470001 62.029999 64.07 66.129997 71.559998 77.120003 79.160004 81.220001 86.57 92 97.419998 102.55 105.46 110.17 115.79 120.58 122.56"
         y="66"
         sodipodi:role="line"
         id="tspan32">Amblemde kullanılacak yazı </tspan></text>
<text
       transform="matrix(1,0,0,-1,392.6387,631.8057)"
       style="font-variant:normal;font-weight:300;font-stretch:normal;font-size:10px;font-family:'HelveticaNeueLT Com 45 Lt';-inkscape-font-specification:HelveticaNeueLTCom-Lt;writing-mode:lr-tb;fill:#231f20;fill-opacity:1;fill-rule:nonzero;stroke:none"
       id="text38"><tspan
         x="0 5.21 10.63 13.94 19.360001 24.84 27.780001 33.220001 36.619999 38.669998 44.23 46.27 51.77 54.68 60.040001 63.439999 65.470001 70.230003 73.139999 80.82 86.400002 91.730003 97.660004 100.97 106.26 109.4 114.72 117.63 124.48 129.92999 135.67999 141.24001 143.3 148.72 152"
         y="0"
         sodipodi:role="line"
         id="tspan36">karakterinin Friz Quadrata Regular </tspan></text>
<text
       transform="matrix(1,0,0,-1,392.6387,620.8057)"
       style="font-variant:normal;font-weight:300;font-stretch:normal;font-size:10px;font-family:'HelveticaNeueLT Com 45 Lt';-inkscape-font-specification:HelveticaNeueLTCom-Lt;writing-mode:lr-tb;fill:#231f20;fill-opacity:1;fill-rule:nonzero;stroke:none"
       id="text42"><tspan
         x="0 5.77 7.8099999 16.35 21.76 26.77 28.75 31.66 36.869999 42.290001 45.599998 51.02 54.419998 56.48 61.889999 66.860001 69.919998 71.959999 75.360001 77.400002 79.440002 87.959999 90 94.970001 98.029999 100.07 102.59 105.5"
         y="0"
         sodipodi:role="line"
         id="tspan40">olması kararlaştırılmıştır. </tspan></text>
<text
       transform="matrix(1,0,0,-1,227.6387,708.8057)"
       style="font-variant:normal;font-weight:300;font-stretch:normal;font-size:10px;font-family:'HelveticaNeueLT Com 45 Lt';-inkscape-font-specification:HelveticaNeueLTCom-Lt;writing-mode:lr-tb;fill:#231f20;fill-opacity:1;fill-rule:nonzero;stroke:none"
       id="text46"><tspan
         x="0 5.8400002 11.4 13.45 18.389999 21.299999 26.290001 31.74 37.119999 40.18 42.25 48.02 53.52 56.43 58.48 63.419998 66.330002 69.580002 75.029999 80.019997 85.459999 89.139999 93.830002 99.260002 105.13 108.04 110.7 116.47 119.75 122.66 125.73 131.31 136.63"
         y="0"
         sodipodi:role="line"
         id="tspan44">This section is reserved for the </tspan></text>
<text
       transform="matrix(1,0,0,-1,212.6387,697.8057)"
       style="font-variant:normal;font-weight:300;font-stretch:normal;font-size:10px;font-family:'HelveticaNeueLT Com 45 Lt';-inkscape-font-specification:HelveticaNeueLTCom-Lt;writing-mode:lr-tb;fill:#231f20;fill-opacity:1;fill-rule:nonzero;stroke:none"
       id="text50"><tspan
         x="0 5.02 10.97 16.42 21.809999 23.879999 28.530001 33.959999 39.25 42.310001 44.380001 50.150002 55.700001 60.639999 63.549999 66.800003 72.25 78.019997 83.440002 86.669998 92.589996 94.629997 100.19 105.88 108.79 111.86 117.44 122.76 125.67 131.08 136.85001 145.37 151.3 153.34 158.89999"
         y="0"
         sodipodi:role="line"
         id="tspan48">speciﬁcations regarding the combina</tspan></text>
<text
       transform="matrix(1,0,0,-1,376.8887,697.8057)"
       style="font-variant:normal;font-weight:300;font-stretch:normal;font-size:10px;font-family:'HelveticaNeueLT Com 45 Lt';-inkscape-font-specification:HelveticaNeueLTCom-Lt;writing-mode:lr-tb;fill:#231f20;fill-opacity:1;fill-rule:nonzero;stroke:none"
       id="text54"><tspan
         x="0"
         y="0"
         id="tspan52">-</tspan></text>
<text
       transform="matrix(1,0,0,-1,212.6387,686.8057)"
       style="font-variant:normal;font-weight:300;font-stretch:normal;font-size:10px;font-family:'HelveticaNeueLT Com 45 Lt';-inkscape-font-specification:HelveticaNeueLTCom-Lt;writing-mode:lr-tb;fill:#231f20;fill-opacity:1;fill-rule:nonzero;stroke:none"
       id="text62"><tspan
         x="0 3.0599999 5.1300001 10.9 16.450001 21.389999 24.299999 29.91 32.630001 35.540001 38.610001 44.189999 49.509998 52.419998 57.330002 62.200001 70.720001 76.669998 82.440002 84.419998 87.330002 92.760002 98.32 104.19 107.1 110.17 115.75 121.07 123.98 126.05 131.82001 137.59 143.19 146.53 151.39999 157.35001 162.55"
         y="0"
         sodipodi:role="line"
         id="tspan56">tions of the symbol and the logotype.</tspan><tspan
         x="15 21.51 27.08 32.700001 40.330002 45.830002 48.740002 54.689999 60.130001 62.200001 67.82 75.25 78.160004 81.07 88.059998 93.110001 98.459999 104.25 109.57 112.48 118.09 120.81 123.72 126.79 132.37 137.69"
         y="11"
         sodipodi:role="line"
         id="tspan58">Shown below: Usage of the </tspan><tspan
         x="0 4.9099998 9.7799997 18.299999 24.25 30.02 32 34.91 42.529999 44.59 47.66 53.16 56.07 59.139999 64.720001 70.040001 72.949997 77.959999 80 85.559998 91.32 93.389999 98.709999 101.62 103.66 105.7 111.28 116.6 119.51 121.58 127.35 133.12 138.72 142.06 146.92999 152.88 158.2 161.11 163.14999 168.64999"
         y="22"
         sodipodi:role="line"
         id="tspan60">symbol with the single line logotype in </tspan></text>
<text
       transform="matrix(1,0,0,-1,212.6387,653.8057)"
       style="font-variant:normal;font-weight:300;font-stretch:normal;font-size:10px;font-family:'HelveticaNeueLT Com 45 Lt';-inkscape-font-specification:HelveticaNeueLTCom-Lt;writing-mode:lr-tb;fill:#231f20;fill-opacity:1;fill-rule:nonzero;stroke:none"
       id="text66"><tspan
         x="0 5.9499998 11.55 14.62 20.120001 23.030001 25.09 30.52 36.09 41.849998 47.43 52.779999 58.57 64.019997 68.900002"
         y="0"
         sodipodi:role="line"
         id="tspan64">both languages.</tspan></text>
<text
       transform="matrix(1,0,0,-1,227.6387,642.8057)"
       style="font-variant:normal;font-weight:300;font-stretch:normal;font-size:10px;font-family:'HelveticaNeueLT Com 45 Lt';-inkscape-font-specification:HelveticaNeueLTCom-Lt;writing-mode:lr-tb;fill:#231f20;fill-opacity:1;fill-rule:nonzero;stroke:none"
       id="text70"><tspan
         x="0 5.8400002 11.42 16.74 19.65 22.99 27.860001 33.810001 39.119999 41.869999 47.220001 52.639999 57.959999 60.869999 66.440002 71.43 76.860001 82.730003 85.639999 87.68 93.18 96.089996 99.160004 104.74 110.06 112.97 115.04 120.81 126.58 132.17999 135.52 140.39 146.34 151.66"
         y="0"
         sodipodi:role="line"
         id="tspan68">The typeface used in the logotype </tspan></text>
<text
       transform="matrix(1,0,0,-1,212.6387,631.8057)"
       style="font-variant:normal;font-weight:300;font-stretch:normal;font-size:10px;font-family:'HelveticaNeueLT Com 45 Lt';-inkscape-font-specification:HelveticaNeueLTCom-Lt;writing-mode:lr-tb;fill:#231f20;fill-opacity:1;fill-rule:nonzero;stroke:none"
       id="text74"><tspan
         x="0 2.05 6.9899998 9.8999996 15.26 18.66 20.690001 25.450001 28.360001 36.049999 41.630001 46.959999 52.889999 56.200001 61.490002 64.629997 69.949997 72.860001 79.709999 85.160004 90.910004 96.470001 98.529999 103.95 106.47"
         y="0"
         sodipodi:role="line"
         id="tspan72">is Friz Quadrata Regular.</tspan></text>
<text
       transform="matrix(1,0,0,-1,212.6406,798.0928)"
       style="font-variant:normal;font-weight:500;font-stretch:normal;font-size:18px;font-family:'HelveticaNeueLT Com 65 Md';-inkscape-font-specification:HelveticaNeueLTCom-Md;writing-mode:lr-tb;fill:#231f20;fill-opacity:1;fill-rule:nonzero;stroke:none"
       id="text82"><tspan
         x="0 12.006 21.6 37.403999 48.582001 59.417999 63.972 69.192001 79.487999 90.017998 101.232 106.452 112.608 123.102 133.326"
         y="0"
         sodipodi:role="line"
         id="tspan76">Symbol and the </tspan><tspan
         x="0 4.4819999 15.354 26.280001 37.007999 43.613998 53.189999 64.386002 74.610001 79.830002"
         y="19.007999"
         sodipodi:role="line"
         id="tspan78">logotype 1</tspan><tspan
         x="180 192.384 208.188 219.34801 223.866 234.12601 250.002 255.222 264.40201 274.62601 279.84601 290.142 305.94601 317.10599 321.62399 331.884 347.76001"
         y="0"
         sodipodi:role="line"
         id="tspan80">Amblem ve amblem </tspan></text>
<text
       transform="matrix(1,0,0,-1,392.6406,779.0848)"
       style="font-variant:normal;font-weight:500;font-stretch:normal;font-size:18px;font-family:'HelveticaNeueLT Com 65 Md';-inkscape-font-specification:HelveticaNeueLTCom-Md;writing-mode:lr-tb;fill:#231f20;fill-opacity:1;fill-rule:nonzero;stroke:none"
       id="text86"><tspan
         x="0 9.3059998 19.872 28.944 33.48 43.074001 47.627998 52.848"
         y="0"
         sodipodi:role="line"
         id="tspan84">yazısı 1</tspan></text>
<g
       id="g88"><g
         id="g90"
         clip-path="url(#clipPath94)"><g
           id="g96"
           transform="translate(128.0752,263.0869)"><path
             d="m 0,0 c 0,-26.354 -21.364,-47.717 -47.717,-47.717 -26.354,0 -47.718,21.363 -47.718,47.717 0,26.354 21.364,47.717 47.718,47.717 C -21.364,47.717 0,26.354 0,0 Z"
             style="fill:none;stroke:#c8cace;stroke-width:0.25;stroke-linecap:butt;stroke-linejoin:round;stroke-miterlimit:10;stroke-dasharray:none;stroke-opacity:1"
             id="path98"
             inkscape:connector-curvature="0" /></g><g
           id="g100"
           transform="translate(46.6182,296.8252)"><path
             d="M 0,0 67.481,-67.478 V 0.004 L 0,-67.475"
             style="fill:none;stroke:#c8cace;stroke-width:0.25;stroke-linecap:butt;stroke-linejoin:round;stroke-miterlimit:10;stroke-dasharray:none;stroke-opacity:1"
             id="path102"
             inkscape:connector-curvature="0" /></g><path
           d="M 128.075,215.37 H 32.64 v 95.434 h 95.435 z"
           style="fill:none;stroke:#c8cace;stroke-width:0.25;stroke-linecap:butt;stroke-linejoin:round;stroke-miterlimit:10;stroke-dasharray:none;stroke-opacity:1"
           id="path104"
           inkscape:connector-curvature="0" /><path
           d="M 114.098,229.347 H 46.619 v 67.479 h 67.479 z"
           style="fill:none;stroke:#c8cace;stroke-width:0.25;stroke-linecap:butt;stroke-linejoin:round;stroke-miterlimit:10;stroke-dasharray:none;stroke-opacity:1"
           id="path106"
           inkscape:connector-curvature="0" /><g
           id="g108"
           transform="translate(85.9805,236.5771)"><path
             d="M 0,0 C -0.571,0 -1.139,0.02 -1.7,0.056 9.128,3.963 16.871,14.332 16.871,26.51 16.871,38.687 9.128,49.056 -1.7,52.964 -1.139,53.001 -0.571,53.02 0,53.02 14.642,53.02 26.511,41.15 26.511,26.51 26.511,11.869 14.642,0 0,0 m -37.757,26.51 c 0,14.64 11.868,26.51 26.511,26.51 0.572,0 1.139,-0.019 1.701,-0.056 C -20.374,49.056 -28.117,38.687 -28.117,26.51 -28.117,14.332 -20.374,3.963 -9.545,0.056 -10.107,0.02 -10.674,0 -11.246,0 -25.889,0 -37.757,11.869 -37.757,26.51 M -4.819,52.232 C 6.716,49.361 15.265,38.936 15.265,26.51 15.265,14.085 6.716,3.658 -4.819,0.785 Z M -6.427,0.785 c -11.535,2.873 -20.083,13.3 -20.083,25.725 0,12.425 8.548,22.851 20.083,25.722 z M 0,54.627 c -1.925,0 -3.806,-0.193 -5.622,-0.564 -1.818,0.371 -3.698,0.564 -5.624,0.564 -15.529,0 -28.116,-12.589 -28.116,-28.117 0,-15.53 12.587,-28.117 28.116,-28.117 1.926,0 3.806,0.193 5.624,0.563 1.816,-0.37 3.697,-0.563 5.622,-0.563 15.529,0 28.117,12.587 28.117,28.117 0,15.528 -12.588,28.117 -28.117,28.117"
             style="fill:#231f20;fill-opacity:1;fill-rule:nonzero;stroke:none"
             id="path110"
             inkscape:connector-curvature="0" /></g><g
           id="g112"
           transform="translate(59.4707,263.0869)"><path
             d="M 0,0 C 0,-12.425 8.548,-22.852 20.083,-25.725 V 25.723 C 8.548,22.852 0,12.425 0,0"
             style="fill:#ffffff;fill-opacity:1;fill-rule:nonzero;stroke:none"
             id="path114"
             inkscape:connector-curvature="0" /></g><g
           id="g116"
           transform="translate(101.2451,263.0869)"><path
             d="M 0,0 C 0,12.426 -8.549,22.852 -20.084,25.723 V -25.725 C -8.549,-22.852 0,-12.425 0,0"
             style="fill:#ee3423;fill-opacity:1;fill-rule:nonzero;stroke:none"
             id="path118"
             inkscape:connector-curvature="0" /></g><g
           id="g120"
           transform="translate(57.8633,263.0869)"><path
             d="M 0,0 C 0,12.177 7.743,22.546 18.572,26.454 18.01,26.491 17.443,26.51 16.871,26.51 2.229,26.51 -9.64,14.641 -9.64,0 c 0,-14.641 11.869,-26.51 26.511,-26.51 0.572,0 1.139,0.02 1.701,0.056 C 7.743,-22.547 0,-12.178 0,0"
             style="fill:#ee3423;fill-opacity:1;fill-rule:nonzero;stroke:none"
             id="path122"
             inkscape:connector-curvature="0" /></g><g
           id="g124"
           transform="translate(85.9805,289.5967)"><path
             d="M 0,0 C -0.571,0 -1.139,-0.019 -1.7,-0.056 9.128,-3.964 16.871,-14.333 16.871,-26.51 16.871,-38.688 9.128,-49.057 -1.7,-52.964 -1.139,-53 -0.571,-53.02 0,-53.02 c 14.642,0 26.511,11.87 26.511,26.51 C 26.511,-11.869 14.642,0 0,0"
             style="fill:#ffffff;fill-opacity:1;fill-rule:nonzero;stroke:none"
             id="path126"
             inkscape:connector-curvature="0" /></g><g
           id="g128"
           transform="translate(128.0752,256.0176)"><path
             d="M 0,0 C 0.35,0.356 0.617,0.721 0.803,1.09 0.988,1.462 1.12,1.893 1.202,2.385 l 1.403,9.425 c 0.034,0.227 0.06,0.422 0.077,0.581 0.016,0.157 0.024,0.297 0.024,0.419 0,0.21 -0.039,0.39 -0.12,0.545 -0.081,0.154 -0.273,0.38 -0.576,0.677 H 5.586 L 9.788,3.617 13.899,14.032 h 3.414 c -0.209,-0.196 -0.359,-0.405 -0.454,-0.633 -0.094,-0.224 -0.142,-0.5 -0.142,-0.822 0,-0.154 0.005,-0.286 0.011,-0.393 0.007,-0.11 0.017,-0.216 0.03,-0.325 L 17.98,2.233 C 18.035,1.761 18.141,1.349 18.299,0.996 18.456,0.642 18.682,0.31 18.971,0 h -3.809 c 0.263,0.194 0.456,0.425 0.58,0.688 0.125,0.261 0.188,0.566 0.188,0.909 0,0.088 -0.003,0.156 -0.005,0.207 -0.004,0.05 -0.009,0.095 -0.015,0.137 L 14.769,11.81 9.909,-0.161 C 9.545,0.061 9.225,0.364 8.945,0.746 8.665,1.133 8.388,1.652 8.11,2.314 L 4.202,11.77 2.818,2.526 C 2.771,2.236 2.739,2.028 2.727,1.899 2.714,1.771 2.706,1.67 2.706,1.597 2.706,1.259 2.771,0.972 2.897,0.732 3.025,0.494 3.244,0.249 3.556,0 Z"
             style="fill:#231f20;fill-opacity:1;fill-rule:nonzero;stroke:none"
             id="path130"
             inkscape:connector-curvature="0" /></g><g
           id="g132"
           transform="translate(153.8154,258.5029)"><path
             d="m 0,0 c 0,-0.708 0.063,-1.23 0.188,-1.571 0.125,-0.34 0.338,-0.644 0.641,-0.914 h -3.85 c 0.305,0.27 0.518,0.574 0.643,0.914 0.124,0.341 0.187,0.863 0.187,1.571 v 9.082 c 0,0.706 -0.063,1.229 -0.187,1.566 -0.125,0.335 -0.338,0.634 -0.643,0.899 h 3.85 C 0.526,11.282 0.313,10.983 0.188,10.648 0.063,10.311 0,9.788 0,9.082 Z"
             style="fill:#231f20;fill-opacity:1;fill-rule:nonzero;stroke:none"
             id="path134"
             inkscape:connector-curvature="0" /></g><g
           id="g136"
           transform="translate(161.9531,257.7148)"><path
             d="m 0,0 c 0.511,-0.08 0.952,-0.14 1.323,-0.178 0.37,-0.035 0.691,-0.054 0.96,-0.054 1.562,0 2.852,0.527 3.869,1.582 1.016,1.052 1.525,2.387 1.525,4.004 0,1.657 -0.504,2.989 -1.516,3.995 -1.01,1.007 -2.353,1.509 -4.029,1.509 -0.344,0 -0.694,-0.022 -1.05,-0.07 C 0.724,10.742 0.362,10.667 0,10.567 Z m -3.021,-1.697 c 0.297,0.261 0.506,0.559 0.627,0.889 0.122,0.329 0.182,0.863 0.182,1.596 V 9.87 c 0,0.733 -0.06,1.263 -0.182,1.591 -0.121,0.326 -0.33,0.617 -0.627,0.874 h 4.889 c 1.315,0 2.399,-0.129 3.253,-0.384 C 5.977,11.695 6.768,11.277 7.495,10.698 8.311,10.052 8.923,9.295 9.334,8.426 9.744,7.556 9.949,6.59 9.949,5.526 9.949,4.563 9.797,3.669 9.49,2.849 9.185,2.027 8.724,1.283 8.111,0.617 7.364,-0.199 6.453,-0.787 5.379,-1.151 4.306,-1.516 2.912,-1.697 1.201,-1.697 Z"
             style="fill:#231f20;fill-opacity:1;fill-rule:nonzero;stroke:none"
             id="path138"
             inkscape:connector-curvature="0" /></g><g
           id="g140"
           transform="translate(178.8359,257.7148)"><path
             d="m 0,0 c 0.511,-0.08 0.952,-0.14 1.323,-0.178 0.37,-0.035 0.69,-0.054 0.959,-0.054 1.562,0 2.852,0.527 3.869,1.582 1.017,1.052 1.525,2.387 1.525,4.004 0,1.657 -0.504,2.989 -1.515,3.995 -1.009,1.007 -2.353,1.509 -4.031,1.509 -0.343,0 -0.693,-0.022 -1.049,-0.07 C 0.724,10.742 0.364,10.667 0,10.567 Z m -3.021,-1.697 c 0.296,0.261 0.506,0.559 0.626,0.889 0.122,0.329 0.183,0.863 0.183,1.596 V 9.87 c 0,0.733 -0.061,1.263 -0.183,1.591 -0.12,0.326 -0.33,0.617 -0.626,0.874 h 4.889 c 1.314,0 2.398,-0.129 3.252,-0.384 C 5.977,11.695 6.768,11.277 7.495,10.698 8.311,10.052 8.923,9.295 9.333,8.426 9.744,7.556 9.949,6.59 9.949,5.526 9.949,4.563 9.795,3.669 9.49,2.849 9.184,2.027 8.724,1.283 8.112,0.617 7.363,-0.199 6.453,-0.787 5.377,-1.151 4.305,-1.516 2.911,-1.697 1.202,-1.697 Z"
             style="fill:#231f20;fill-opacity:1;fill-rule:nonzero;stroke:none"
             id="path142"
             inkscape:connector-curvature="0" /></g><g
           id="g144"
           transform="translate(192.6904,256.0176)"><path
             d="m 0,0 c 0.296,0.271 0.508,0.574 0.635,0.914 0.129,0.341 0.193,0.863 0.193,1.571 v 9.082 c 0,0.706 -0.064,1.229 -0.193,1.567 C 0.508,13.469 0.296,13.768 0,14.032 H 3.849 C 3.545,13.768 3.331,13.469 3.207,13.134 3.082,12.796 3.02,12.273 3.02,11.567 V 1.818 c 0.546,-0.08 1.034,-0.142 1.465,-0.181 0.43,-0.04 0.804,-0.06 1.12,-0.06 0.708,0 1.381,0.095 2.021,0.287 0.641,0.192 1.263,0.487 1.87,0.884 L 8.515,0 Z"
             style="fill:#231f20;fill-opacity:1;fill-rule:nonzero;stroke:none"
             id="path146"
             inkscape:connector-curvature="0" /></g><g
           id="g148"
           transform="translate(205.3213,256.0176)"><path
             d="m 0,0 c 0.297,0.271 0.509,0.574 0.638,0.914 0.128,0.341 0.191,0.863 0.191,1.571 v 9.082 c 0,0.706 -0.063,1.229 -0.191,1.567 C 0.509,13.469 0.297,13.768 0,14.032 h 7.688 v -2.203 c -0.343,0.27 -0.72,0.465 -1.131,0.586 -0.412,0.122 -0.886,0.183 -1.426,0.183 -0.276,0 -0.585,-0.023 -0.927,-0.066 C 3.859,12.486 3.473,12.423 3.042,12.335 V 8.375 H 6.477 V 6.334 C 6.313,6.522 6.096,6.656 5.819,6.733 5.543,6.811 5.038,6.85 4.304,6.85 H 3.042 V 1.818 C 3.574,1.738 4.055,1.676 4.486,1.637 4.917,1.597 5.29,1.577 5.608,1.577 c 0.711,0 1.387,0.095 2.019,0.287 0.633,0.192 1.256,0.487 1.868,0.884 L 8.517,0 Z"
             style="fill:#231f20;fill-opacity:1;fill-rule:nonzero;stroke:none"
             id="path150"
             inkscape:connector-curvature="0" /></g><g
           id="g152"
           transform="translate(227.3711,256.0176)"><path
             d="m 0,0 c 0.296,0.271 0.509,0.574 0.636,0.914 0.128,0.341 0.192,0.863 0.192,1.571 v 9.082 c 0,0.706 -0.064,1.229 -0.192,1.567 C 0.509,13.469 0.296,13.768 0,14.032 h 7.687 v -2.203 c -0.343,0.27 -0.72,0.465 -1.131,0.586 -0.41,0.122 -0.886,0.183 -1.425,0.183 -0.277,0 -0.585,-0.023 -0.929,-0.066 C 3.858,12.486 3.471,12.423 3.041,12.335 V 8.375 H 6.475 V 6.334 C 6.313,6.522 6.094,6.656 5.817,6.733 5.542,6.811 5.037,6.85 4.303,6.85 H 3.041 V 1.818 c 0.531,-0.08 1.013,-0.142 1.444,-0.181 0.43,-0.04 0.805,-0.06 1.12,-0.06 0.714,0 1.388,0.095 2.022,0.287 0.634,0.192 1.257,0.487 1.869,0.884 L 8.516,0 Z"
             style="fill:#231f20;fill-opacity:1;fill-rule:nonzero;stroke:none"
             id="path154"
             inkscape:connector-curvature="0" /></g><g
           id="g156"
           transform="translate(244.0205,262.6758)"><path
             d="M 0,0 H 4.143 L 2.151,5.424 Z m -1.898,-4.759 c -0.061,-0.141 -0.107,-0.287 -0.137,-0.439 -0.03,-0.153 -0.045,-0.309 -0.045,-0.47 0,-0.135 0.048,-0.282 0.145,-0.444 0.099,-0.161 0.255,-0.344 0.472,-0.546 h -3.313 c 0.275,0.188 0.522,0.449 0.742,0.778 0.217,0.33 0.441,0.781 0.671,1.353 L 0.585,5.483 C 0.667,5.674 0.729,5.857 0.768,6.041 0.809,6.222 0.829,6.383 0.829,6.525 0.829,6.688 0.79,6.833 0.713,6.97 0.635,7.104 0.509,7.238 0.335,7.374 h 3.19 L 7.991,-4.386 C 8.199,-4.917 8.424,-5.351 8.663,-5.683 8.902,-6.017 9.21,-6.341 9.586,-6.658 H 5.567 l 0.05,0.05 c 0.37,0.391 0.556,0.678 0.556,0.86 0,0.215 -0.081,0.531 -0.242,0.949 -0.021,0.067 -0.037,0.117 -0.051,0.152 l -1.203,3.242 h -5.232 z"
             style="fill:#231f20;fill-opacity:1;fill-rule:nonzero;stroke:none"
             id="path158"
             inkscape:connector-curvature="0" /></g><g
           id="g160"
           transform="translate(256.8047,256.3301)"><path
             d="M 0,0 -0.667,2.547 C 0.148,2.002 0.941,1.596 1.708,1.329 c 0.768,-0.266 1.529,-0.4 2.283,-0.4 0.964,0 1.738,0.208 2.323,0.623 0.586,0.413 0.878,0.95 0.878,1.61 0,0.189 -0.028,0.378 -0.089,0.567 C 7.041,3.916 6.953,4.095 6.839,4.264 6.584,4.646 5.726,5.196 4.265,5.91 3.894,6.086 3.607,6.224 3.404,6.325 2.038,7.011 1.101,7.645 0.592,8.224 0.084,8.803 -0.17,9.489 -0.17,10.285 c 0,1.138 0.464,2.041 1.395,2.711 0.926,0.671 2.2,1.006 3.816,1.006 0.467,0 0.977,-0.031 1.535,-0.091 0.561,-0.06 1.166,-0.155 1.82,-0.283 V 11.273 C 7.815,11.713 7.234,12.039 6.648,12.255 6.063,12.47 5.452,12.578 4.82,12.578 4.018,12.578 3.374,12.406 2.885,12.063 2.397,11.72 2.151,11.271 2.151,10.719 2.151,10.228 2.345,9.793 2.728,9.415 3.111,9.039 3.975,8.534 5.315,7.9 5.388,7.867 5.502,7.813 5.657,7.738 6.79,7.22 7.636,6.742 8.194,6.304 8.611,5.981 8.936,5.588 9.17,5.122 9.399,4.658 9.518,4.162 9.518,3.638 9.518,2.432 8.965,1.41 7.86,0.571 6.756,-0.268 5.375,-0.687 3.719,-0.687 3.186,-0.687 2.614,-0.629 2,-0.513 1.388,-0.399 0.722,-0.228 0,0"
             style="fill:#231f20;fill-opacity:1;fill-rule:nonzero;stroke:none"
             id="path162"
             inkscape:connector-curvature="0" /></g><g
           id="g164"
           transform="translate(275.5615,258.5029)"><path
             d="m 0,0 c 0,-0.708 0.064,-1.23 0.19,-1.571 0.128,-0.34 0.341,-0.644 0.638,-0.914 h -3.849 c 0.303,0.27 0.516,0.574 0.641,0.914 0.124,0.341 0.187,0.863 0.187,1.571 v 10.011 h -1.131 c -0.782,0 -1.414,-0.062 -1.9,-0.182 C -5.708,9.707 -6.096,9.512 -6.386,9.243 l 0.698,2.304 H 4.342 L 3.687,9.284 C 3.478,9.532 3.203,9.716 2.862,9.835 2.522,9.953 2.093,10.011 1.574,10.011 H 0 Z"
             style="fill:#231f20;fill-opacity:1;fill-rule:nonzero;stroke:none"
             id="path166"
             inkscape:connector-curvature="0" /></g><g
           id="g168"
           transform="translate(298.0039,258.5029)"><path
             d="m 0,0 c 0,-0.708 0.063,-1.23 0.191,-1.571 0.127,-0.34 0.34,-0.644 0.637,-0.914 H -3.02 c 0.302,0.27 0.515,0.574 0.641,0.914 0.124,0.341 0.188,0.863 0.188,1.571 v 10.011 h -1.133 c -0.78,0 -1.413,-0.062 -1.899,-0.182 C -5.707,9.707 -6.095,9.512 -6.385,9.243 l 0.697,2.304 H 4.343 L 3.688,9.284 C 3.479,9.532 3.204,9.716 2.864,9.835 2.523,9.953 2.095,10.011 1.576,10.011 H 0 Z"
             style="fill:#231f20;fill-opacity:1;fill-rule:nonzero;stroke:none"
             id="path170"
             inkscape:connector-curvature="0" /></g><g
           id="g172"
           transform="translate(306.04,256.0176)"><path
             d="m 0,0 c 0.295,0.271 0.507,0.574 0.635,0.914 0.129,0.341 0.193,0.863 0.193,1.571 v 9.082 c 0,0.706 -0.064,1.229 -0.193,1.567 C 0.507,13.469 0.295,13.768 0,14.032 h 7.687 v -2.203 c -0.344,0.27 -0.721,0.465 -1.132,0.586 -0.409,0.122 -0.885,0.183 -1.424,0.183 -0.277,0 -0.586,-0.023 -0.93,-0.066 C 3.858,12.486 3.47,12.423 3.04,12.335 V 8.375 H 6.475 V 6.334 C 6.312,6.522 6.093,6.656 5.817,6.733 5.541,6.811 5.035,6.85 4.303,6.85 H 3.04 V 1.818 c 0.532,-0.08 1.013,-0.142 1.443,-0.181 0.433,-0.04 0.806,-0.06 1.122,-0.06 0.714,0 1.387,0.095 2.02,0.287 0.634,0.192 1.257,0.487 1.868,0.884 L 8.515,0 Z"
             style="fill:#231f20;fill-opacity:1;fill-rule:nonzero;stroke:none"
             id="path174"
             inkscape:connector-curvature="0" /></g><g
           id="g176"
           transform="translate(330.7617,258.835)"><path
             d="m 0,0 -1.05,-2.524 c -0.66,-0.215 -1.28,-0.378 -1.858,-0.485 -0.58,-0.108 -1.134,-0.161 -1.658,-0.161 -0.781,0 -1.541,0.101 -2.282,0.303 -0.742,0.201 -1.442,0.501 -2.102,0.898 -1.05,0.627 -1.868,1.485 -2.454,2.576 -0.587,1.092 -0.88,2.292 -0.88,3.606 0,0.984 0.213,1.941 0.637,2.87 0.424,0.929 1.026,1.753 1.808,2.476 0.713,0.652 1.528,1.147 2.444,1.489 0.916,0.34 1.893,0.51 2.931,0.51 0.49,0 1.007,-0.045 1.549,-0.136 0.542,-0.092 1.124,-0.233 1.743,-0.42 V 8.75 c -0.632,0.337 -1.231,0.584 -1.797,0.747 -0.567,0.161 -1.12,0.241 -1.658,0.241 -1.568,0 -2.825,-0.484 -3.772,-1.454 -0.947,-0.971 -1.42,-2.255 -1.42,-3.858 0,-1.758 0.491,-3.177 1.47,-4.257 0.981,-1.082 2.268,-1.623 3.864,-1.623 0.653,0 1.349,0.121 2.087,0.359 C -1.662,-0.854 -0.861,-0.49 0,0"
             style="fill:#231f20;fill-opacity:1;fill-rule:nonzero;stroke:none"
             id="path178"
             inkscape:connector-curvature="0" /></g><g
           id="g180"
           transform="translate(337.1846,258.5029)"><path
             d="m 0,0 c 0,-0.708 0.063,-1.23 0.187,-1.571 0.124,-0.34 0.337,-0.644 0.641,-0.914 h -3.849 c 0.296,0.27 0.509,0.574 0.636,0.914 0.129,0.341 0.193,0.863 0.193,1.571 v 9.082 c 0,0.706 -0.064,1.229 -0.193,1.566 -0.127,0.335 -0.34,0.634 -0.636,0.899 H 0.828 C 0.524,11.282 0.311,10.983 0.187,10.648 0.063,10.311 0,9.788 0,9.082 V 5.939 h 7.565 v 3.143 c 0,0.706 -0.062,1.229 -0.186,1.566 -0.125,0.335 -0.338,0.634 -0.642,0.899 h 3.85 C 10.29,11.282 10.078,10.983 9.949,10.648 9.823,10.311 9.759,9.788 9.759,9.082 V 0 c 0,-0.708 0.062,-1.23 0.186,-1.571 0.124,-0.34 0.338,-0.644 0.642,-0.914 h -3.85 c 0.304,0.27 0.517,0.574 0.642,0.914 C 7.503,-1.23 7.565,-0.708 7.565,0 V 4.323 H 0 Z"
             style="fill:#231f20;fill-opacity:1;fill-rule:nonzero;stroke:none"
             id="path182"
             inkscape:connector-curvature="0" /></g><g
           id="g184"
           transform="translate(365.6035,270.0498)"><path
             d="m 0,0 c -0.303,-0.265 -0.517,-0.563 -0.641,-0.898 -0.125,-0.338 -0.188,-0.861 -0.188,-1.567 v -11.889 c -0.49,0.013 -0.958,0.169 -1.398,0.473 -0.44,0.304 -0.996,0.879 -1.663,1.729 l -7.243,9.131 v -8.526 c 0,-0.733 0.062,-1.266 0.183,-1.596 0.122,-0.33 0.33,-0.628 0.626,-0.889 h -3.183 c 0.298,0.27 0.509,0.574 0.638,0.914 0.127,0.341 0.19,0.863 0.19,1.571 v 9.082 c 0,0.706 -0.063,1.229 -0.19,1.567 -0.129,0.335 -0.34,0.633 -0.638,0.898 h 2.85 l 8.303,-10.536 v 8.071 c 0,0.706 -0.064,1.229 -0.193,1.567 -0.127,0.335 -0.339,0.633 -0.635,0.898 z"
             style="fill:#231f20;fill-opacity:1;fill-rule:nonzero;stroke:none"
             id="path186"
             inkscape:connector-curvature="0" /></g><g
           id="g188"
           transform="translate(372.9189,258.5029)"><path
             d="m 0,0 c 0,-0.708 0.063,-1.23 0.186,-1.571 0.125,-0.34 0.339,-0.644 0.642,-0.914 h -3.849 c 0.303,0.27 0.517,0.574 0.642,0.914 0.124,0.341 0.186,0.863 0.186,1.571 v 9.082 c 0,0.706 -0.062,1.229 -0.186,1.566 -0.125,0.335 -0.339,0.634 -0.642,0.899 H 0.828 C 0.525,11.282 0.311,10.983 0.186,10.648 0.063,10.311 0,9.788 0,9.082 Z"
             style="fill:#231f20;fill-opacity:1;fill-rule:nonzero;stroke:none"
             id="path190"
             inkscape:connector-curvature="0" /></g><g
           id="g192"
           transform="translate(389.9814,258.835)"><path
             d="m 0,0 -1.051,-2.524 c -0.661,-0.215 -1.28,-0.378 -1.857,-0.485 -0.58,-0.108 -1.133,-0.161 -1.657,-0.161 -0.783,0 -1.542,0.101 -2.283,0.303 -0.741,0.201 -1.442,0.501 -2.102,0.898 -1.051,0.627 -1.869,1.485 -2.454,2.576 -0.587,1.092 -0.88,2.292 -0.88,3.606 0,0.984 0.212,1.941 0.637,2.87 0.422,0.929 1.026,1.753 1.807,2.476 0.716,0.652 1.529,1.147 2.445,1.489 0.916,0.34 1.893,0.51 2.93,0.51 0.492,0 1.008,-0.045 1.552,-0.136 0.541,-0.092 1.121,-0.233 1.742,-0.42 V 8.75 C -1.804,9.087 -2.405,9.334 -2.97,9.497 -3.534,9.658 -4.087,9.738 -4.627,9.738 -6.195,9.738 -7.453,9.254 -8.4,8.284 -9.347,7.313 -9.819,6.029 -9.819,4.426 c 0,-1.758 0.491,-3.177 1.469,-4.257 0.982,-1.082 2.269,-1.623 3.865,-1.623 0.653,0 1.348,0.121 2.086,0.359 C -1.662,-0.854 -0.863,-0.49 0,0"
             style="fill:#231f20;fill-opacity:1;fill-rule:nonzero;stroke:none"
             id="path194"
             inkscape:connector-curvature="0" /></g><g
           id="g196"
           transform="translate(397.1436,262.6758)"><path
             d="M 0,0 H 4.142 L 2.151,5.424 Z m -1.9,-4.759 c -0.059,-0.141 -0.105,-0.287 -0.136,-0.439 -0.029,-0.153 -0.046,-0.309 -0.046,-0.47 0,-0.135 0.049,-0.282 0.148,-0.444 0.097,-0.161 0.253,-0.344 0.468,-0.546 h -3.313 c 0.277,0.188 0.524,0.449 0.742,0.778 0.22,0.33 0.444,0.781 0.674,1.353 l 3.948,10.01 c 0.082,0.191 0.143,0.374 0.183,0.558 0.04,0.181 0.06,0.342 0.06,0.484 0,0.163 -0.039,0.308 -0.116,0.445 C 0.635,7.104 0.508,7.238 0.334,7.374 H 3.525 L 7.99,-4.386 C 8.198,-4.917 8.423,-5.351 8.661,-5.683 8.9,-6.017 9.209,-6.341 9.586,-6.658 H 5.565 l 0.052,0.05 c 0.37,0.391 0.555,0.678 0.555,0.86 0,0.215 -0.081,0.531 -0.242,0.949 -0.02,0.067 -0.037,0.117 -0.05,0.152 l -1.204,3.242 h -5.232 z"
             style="fill:#231f20;fill-opacity:1;fill-rule:nonzero;stroke:none"
             id="path198"
             inkscape:connector-curvature="0" /></g><g
           id="g200"
           transform="translate(409.9229,256.0176)"><path
             d="m 0,0 c 0.296,0.271 0.508,0.574 0.637,0.914 0.129,0.341 0.192,0.863 0.192,1.571 v 9.082 c 0,0.706 -0.063,1.229 -0.192,1.567 C 0.508,13.469 0.296,13.768 0,14.032 H 3.849 C 3.546,13.768 3.331,13.469 3.207,13.134 3.083,12.796 3.021,12.273 3.021,11.567 V 1.818 c 0.545,-0.08 1.034,-0.142 1.464,-0.181 0.433,-0.04 0.804,-0.06 1.121,-0.06 0.707,0 1.381,0.095 2.021,0.287 0.64,0.192 1.263,0.487 1.868,0.884 L 8.517,0 Z"
             style="fill:#231f20;fill-opacity:1;fill-rule:nonzero;stroke:none"
             id="path202"
             inkscape:connector-curvature="0" /></g><g
           id="g204"
           transform="translate(441.6289,256.0176)"><path
             d="m 0,0 v 1.071 c -0.688,-0.491 -1.376,-0.858 -2.07,-1.1 -0.694,-0.243 -1.402,-0.365 -2.121,-0.365 -0.823,0 -1.554,0.134 -2.194,0.406 -0.638,0.268 -1.191,0.672 -1.656,1.21 -0.363,0.424 -0.625,0.918 -0.782,1.481 -0.159,0.562 -0.239,1.318 -0.239,2.268 v 6.596 c 0,0.706 -0.06,1.229 -0.185,1.567 -0.125,0.335 -0.335,0.634 -0.632,0.898 h 3.837 c -0.294,-0.264 -0.505,-0.563 -0.63,-0.898 -0.126,-0.338 -0.187,-0.861 -0.187,-1.567 V 5.404 c 0,-0.963 0.047,-1.676 0.141,-2.141 0.096,-0.465 0.253,-0.834 0.476,-1.111 0.268,-0.33 0.627,-0.578 1.077,-0.742 0.445,-0.165 0.982,-0.248 1.609,-0.248 0.512,0 0.991,0.075 1.435,0.227 0.444,0.151 0.836,0.372 1.172,0.662 0.295,0.242 0.509,0.555 0.636,0.945 0.128,0.386 0.193,0.913 0.193,1.58 v 6.991 c 0,0.733 -0.062,1.263 -0.184,1.591 -0.119,0.326 -0.33,0.617 -0.627,0.874 H 2.92 C 2.623,13.775 2.411,13.469 2.283,13.111 2.155,12.754 2.092,12.239 2.092,11.567 V 2.485 C 2.092,1.777 2.155,1.255 2.283,0.914 2.411,0.574 2.623,0.271 2.92,0 Z"
             style="fill:#231f20;fill-opacity:1;fill-rule:nonzero;stroke:none"
             id="path206"
             inkscape:connector-curvature="0" /></g><g
           id="g208"
           transform="translate(462.3721,270.0498)"><path
             d="m 0,0 c -0.303,-0.265 -0.518,-0.563 -0.643,-0.898 -0.124,-0.338 -0.186,-0.861 -0.186,-1.567 v -11.889 c -0.491,0.013 -0.959,0.169 -1.399,0.473 -0.442,0.304 -0.995,0.879 -1.662,1.729 l -7.243,9.131 v -8.526 c 0,-0.733 0.061,-1.266 0.182,-1.596 0.121,-0.33 0.329,-0.628 0.627,-0.889 h -3.183 c 0.298,0.27 0.508,0.574 0.636,0.914 0.129,0.341 0.192,0.863 0.192,1.571 v 9.082 c 0,0.706 -0.063,1.229 -0.192,1.567 -0.128,0.335 -0.338,0.633 -0.636,0.898 h 2.849 l 8.304,-10.536 v 8.071 c 0,0.706 -0.064,1.229 -0.193,1.567 -0.128,0.335 -0.341,0.633 -0.635,0.898 z"
             style="fill:#231f20;fill-opacity:1;fill-rule:nonzero;stroke:none"
             id="path210"
             inkscape:connector-curvature="0" /></g><g
           id="g212"
           transform="translate(469.6865,258.5029)"><path
             d="m 0,0 c 0,-0.708 0.061,-1.23 0.188,-1.571 0.123,-0.34 0.336,-0.644 0.64,-0.914 h -3.849 c 0.304,0.27 0.518,0.574 0.642,0.914 0.123,0.341 0.186,0.863 0.186,1.571 v 9.082 c 0,0.706 -0.063,1.229 -0.186,1.566 -0.124,0.335 -0.338,0.634 -0.642,0.899 H 0.828 C 0.524,11.282 0.311,10.983 0.188,10.648 0.061,10.311 0,9.788 0,9.082 Z"
             style="fill:#231f20;fill-opacity:1;fill-rule:nonzero;stroke:none"
             id="path214"
             inkscape:connector-curvature="0" /></g><g
           id="g216"
           transform="translate(480.8408,255.665)"><path
             d="M 0,0 C -0.6,0.154 -1.11,0.492 -1.536,1.015 -1.96,1.537 -2.351,2.316 -2.707,3.354 l -2.839,8.17 c -0.229,0.674 -0.446,1.224 -0.651,1.648 -0.205,0.424 -0.436,0.829 -0.692,1.213 l 2.899,-0.011 c 0.012,-0.229 0.036,-0.441 0.07,-0.638 0.033,-0.194 0.077,-0.38 0.133,-0.554 l 3.414,-10.04 3.231,8.363 c 0.094,0.257 0.17,0.514 0.229,0.773 0.057,0.26 0.085,0.497 0.085,0.712 0,0.189 -0.055,0.389 -0.161,0.601 -0.109,0.212 -0.29,0.476 -0.546,0.794 h 3.223 z"
             style="fill:#231f20;fill-opacity:1;fill-rule:nonzero;stroke:none"
             id="path218"
             inkscape:connector-curvature="0" /></g><g
           id="g220"
           transform="translate(489.9863,256.0176)"><path
             d="m 0,0 c 0.296,0.271 0.507,0.574 0.637,0.914 0.128,0.341 0.19,0.863 0.19,1.571 v 9.082 c 0,0.706 -0.062,1.229 -0.19,1.567 C 0.507,13.469 0.296,13.768 0,14.032 h 7.688 v -2.203 c -0.344,0.27 -0.722,0.465 -1.132,0.586 -0.411,0.122 -0.886,0.183 -1.424,0.183 -0.277,0 -0.588,-0.023 -0.93,-0.066 C 3.858,12.486 3.472,12.423 3.04,12.335 V 8.375 H 6.475 V 6.334 C 6.313,6.522 6.095,6.656 5.818,6.733 5.543,6.811 5.037,6.85 4.302,6.85 H 3.04 V 1.818 c 0.531,-0.08 1.014,-0.142 1.445,-0.181 0.431,-0.04 0.803,-0.06 1.122,-0.06 0.712,0 1.387,0.095 2.019,0.287 0.633,0.192 1.256,0.487 1.868,0.884 L 8.515,0 Z"
             style="fill:#231f20;fill-opacity:1;fill-rule:nonzero;stroke:none"
             id="path222"
             inkscape:connector-curvature="0" /></g><g
           id="g224"
           transform="translate(505.7383,258.5029)"><path
             d="m 0,0 c 0,-0.708 0.061,-1.23 0.186,-1.571 0.124,-0.34 0.338,-0.644 0.643,-0.914 h -3.85 c 0.295,0.27 0.507,0.574 0.635,0.914 0.129,0.341 0.193,0.863 0.193,1.571 v 9.082 c 0,0.706 -0.064,1.229 -0.193,1.566 -0.128,0.335 -0.34,0.634 -0.635,0.899 h 4.858 c 1.388,0 2.508,-0.33 3.359,-0.991 C 6.049,9.896 6.473,9.038 6.473,7.981 6.473,7.213 6.219,6.536 5.707,5.95 5.194,5.364 4.4,4.849 3.323,4.403 l 3.646,-4.856 c 0.215,-0.291 0.475,-0.598 0.778,-0.921 0.302,-0.323 0.649,-0.66 1.04,-1.009 L 7.696,-2.485 H 7.524 c -0.511,0 -1.009,0.134 -1.495,0.405 -0.484,0.267 -0.894,0.639 -1.232,1.11 L 0.615,4.8 C 1.86,5.075 2.771,5.453 3.347,5.935 3.925,6.416 4.212,7.037 4.212,7.798 4.212,8.507 3.963,9.082 3.47,9.526 2.975,9.972 2.325,10.192 1.525,10.192 1.342,10.192 1.123,10.177 0.867,10.147 0.612,10.117 0.322,10.07 0,10.011 Z"
             style="fill:#231f20;fill-opacity:1;fill-rule:nonzero;stroke:none"
             id="path226"
             inkscape:connector-curvature="0" /></g><g
           id="g228"
           transform="translate(517.8926,256.3301)"><path
             d="M 0,0 -0.667,2.547 C 0.148,2.002 0.939,1.596 1.707,1.329 c 0.769,-0.266 1.528,-0.4 2.282,-0.4 0.964,0 1.738,0.208 2.324,0.623 0.586,0.413 0.879,0.95 0.879,1.61 0,0.189 -0.03,0.378 -0.091,0.567 C 7.041,3.916 6.953,4.095 6.839,4.264 6.583,4.646 5.724,5.196 4.263,5.91 3.893,6.086 3.607,6.224 3.404,6.325 2.036,7.011 1.1,7.645 0.591,8.224 c -0.508,0.579 -0.764,1.265 -0.764,2.061 0,1.138 0.466,2.041 1.395,2.711 0.929,0.671 2.201,1.006 3.819,1.006 0.464,0 0.977,-0.031 1.536,-0.091 0.559,-0.06 1.165,-0.155 1.817,-0.283 v -2.355 c -0.579,0.44 -1.162,0.766 -1.747,0.982 -0.586,0.215 -1.196,0.323 -1.83,0.323 -0.8,0 -1.445,-0.172 -1.933,-0.515 C 2.396,11.72 2.151,11.271 2.151,10.719 2.151,10.228 2.344,9.793 2.728,9.415 3.112,9.039 3.973,8.534 5.313,7.9 5.388,7.867 5.502,7.813 5.655,7.738 6.789,7.22 7.633,6.742 8.192,6.304 8.61,5.981 8.936,5.588 9.166,5.122 9.4,4.658 9.515,4.162 9.515,3.638 9.515,2.432 8.963,1.41 7.858,0.571 6.755,-0.268 5.374,-0.687 3.718,-0.687 3.186,-0.687 2.612,-0.629 2,-0.513 1.387,-0.399 0.72,-0.228 0,0"
             style="fill:#231f20;fill-opacity:1;fill-rule:nonzero;stroke:none"
             id="path230"
             inkscape:connector-curvature="0" /></g><g
           id="g232"
           transform="translate(534.2656,258.5029)"><path
             d="m 0,0 c 0,-0.708 0.063,-1.23 0.187,-1.571 0.126,-0.34 0.339,-0.644 0.642,-0.914 H -3.02 c 0.303,0.27 0.517,0.574 0.641,0.914 0.125,0.341 0.188,0.863 0.188,1.571 v 9.082 c 0,0.706 -0.063,1.229 -0.188,1.566 -0.124,0.335 -0.338,0.634 -0.641,0.899 H 0.829 C 0.526,11.282 0.313,10.983 0.187,10.648 0.063,10.311 0,9.788 0,9.082 Z"
             style="fill:#231f20;fill-opacity:1;fill-rule:nonzero;stroke:none"
             id="path234"
             inkscape:connector-curvature="0" /></g><g
           id="g236"
           transform="translate(544.8613,258.5029)"><path
             d="m 0,0 c 0,-0.708 0.064,-1.23 0.193,-1.571 0.127,-0.34 0.34,-0.644 0.635,-0.914 h -3.849 c 0.303,0.27 0.518,0.574 0.643,0.914 0.125,0.341 0.187,0.863 0.187,1.571 v 10.011 h -1.132 c -0.781,0 -1.414,-0.062 -1.899,-0.182 C -5.708,9.707 -6.095,9.512 -6.384,9.243 l 0.697,2.304 H 4.346 L 3.688,9.284 C 3.479,9.532 3.204,9.716 2.864,9.835 2.524,9.953 2.096,10.011 1.577,10.011 H 0 Z"
             style="fill:#231f20;fill-opacity:1;fill-rule:nonzero;stroke:none"
             id="path238"
             inkscape:connector-curvature="0" /></g><g
           id="g240"
           transform="translate(559.3213,258.5029)"><path
             d="m 0,0 c 0,-0.708 0.063,-1.23 0.191,-1.571 0.128,-0.34 0.34,-0.644 0.637,-0.914 h -3.87 c 0.305,0.27 0.518,0.574 0.643,0.914 0.124,0.341 0.187,0.863 0.187,1.571 v 3.869 l -3.435,5.567 c -0.262,0.417 -0.547,0.799 -0.853,1.146 -0.308,0.347 -0.648,0.668 -1.027,0.965 h 3.101 l 3.647,-6.112 2.455,3.98 c 0.149,0.241 0.262,0.462 0.34,0.661 0.078,0.198 0.114,0.369 0.114,0.511 0,0.16 -0.048,0.321 -0.145,0.479 -0.097,0.159 -0.249,0.319 -0.45,0.481 H 4.808 L 0,3.829 Z"
             style="fill:#231f20;fill-opacity:1;fill-rule:nonzero;stroke:none"
             id="path242"
             inkscape:connector-curvature="0" /></g><g
           id="g244"
           transform="translate(128.0752,428.6611)"><path
             d="m 0,0 c 0,-26.354 -21.364,-47.717 -47.717,-47.717 -26.354,0 -47.718,21.363 -47.718,47.717 0,26.353 21.364,47.717 47.718,47.717 C -21.364,47.717 0,26.353 0,0 Z"
             style="fill:none;stroke:#c8cace;stroke-width:0.25;stroke-linecap:butt;stroke-linejoin:round;stroke-miterlimit:10;stroke-dasharray:none;stroke-opacity:1"
             id="path246"
             inkscape:connector-curvature="0" /></g><g
           id="g248"
           transform="translate(46.6182,462.4028)"><path
             d="M 0,0 67.481,-67.48 V 0.002 L 0,-67.478"
             style="fill:none;stroke:#c8cace;stroke-width:0.25;stroke-linecap:butt;stroke-linejoin:round;stroke-miterlimit:10;stroke-dasharray:none;stroke-opacity:1"
             id="path250"
             inkscape:connector-curvature="0" /></g><path
           d="M 128.075,380.944 H 32.64 v 95.434 h 95.435 z"
           style="fill:none;stroke:#c8cace;stroke-width:0.25;stroke-linecap:butt;stroke-linejoin:round;stroke-miterlimit:10;stroke-dasharray:none;stroke-opacity:1"
           id="path252"
           inkscape:connector-curvature="0" /><path
           d="M 114.098,394.921 H 46.619 v 67.482 h 67.479 z"
           style="fill:none;stroke:#c8cace;stroke-width:0.25;stroke-linecap:butt;stroke-linejoin:round;stroke-miterlimit:10;stroke-dasharray:none;stroke-opacity:1"
           id="path254"
           inkscape:connector-curvature="0" /><g
           id="g256"
           transform="translate(85.9805,402.1514)"><path
             d="M 0,0 C -0.571,0 -1.139,0.02 -1.7,0.055 9.128,3.963 16.871,14.332 16.871,26.51 16.871,38.688 9.128,49.055 -1.7,52.965 -1.139,53 -0.571,53.02 0,53.02 14.642,53.02 26.511,41.152 26.511,26.51 26.511,11.869 14.642,0 0,0 m -37.757,26.51 c 0,14.642 11.868,26.51 26.511,26.51 0.572,0 1.139,-0.02 1.701,-0.055 -10.829,-3.91 -18.572,-14.277 -18.572,-26.455 0,-12.178 7.743,-22.547 18.572,-26.455 C -10.107,0.02 -10.674,0 -11.246,0 -25.889,0 -37.757,11.869 -37.757,26.51 M -4.819,52.233 C 6.716,49.361 15.265,38.936 15.265,26.51 15.265,14.086 6.716,3.658 -4.819,0.785 Z M -6.427,0.785 C -17.962,3.658 -26.51,14.086 -26.51,26.51 c 0,12.426 8.548,22.851 20.083,25.723 z M 0,54.627 c -1.925,0 -3.806,-0.194 -5.622,-0.562 -1.818,0.368 -3.698,0.562 -5.624,0.562 -15.529,0 -28.116,-12.588 -28.116,-28.117 0,-15.53 12.587,-28.117 28.116,-28.117 1.926,0 3.806,0.195 5.624,0.564 1.816,-0.369 3.697,-0.564 5.622,-0.564 15.529,0 28.117,12.587 28.117,28.117 0,15.529 -12.588,28.117 -28.117,28.117"
             style="fill:#231f20;fill-opacity:1;fill-rule:nonzero;stroke:none"
             id="path258"
             inkscape:connector-curvature="0" /></g><g
           id="g260"
           transform="translate(59.4707,428.6611)"><path
             d="M 0,0 C 0,-12.424 8.548,-22.852 20.083,-25.725 V 25.723 C 8.548,22.852 0,12.426 0,0"
             style="fill:#ffffff;fill-opacity:1;fill-rule:nonzero;stroke:none"
             id="path262"
             inkscape:connector-curvature="0" /></g><g
           id="g264"
           transform="translate(101.2451,428.6611)"><path
             d="M 0,0 C 0,12.426 -8.549,22.852 -20.084,25.723 V -25.725 C -8.549,-22.852 0,-12.424 0,0"
             style="fill:#ee3423;fill-opacity:1;fill-rule:nonzero;stroke:none"
             id="path266"
             inkscape:connector-curvature="0" /></g><g
           id="g268"
           transform="translate(57.8633,428.6611)"><path
             d="M 0,0 C 0,12.178 7.743,22.545 18.572,26.456 18.01,26.491 17.443,26.51 16.871,26.51 2.229,26.51 -9.64,14.643 -9.64,0 c 0,-14.641 11.869,-26.51 26.511,-26.51 0.572,0 1.139,0.02 1.701,0.055 C 7.743,-22.547 0,-12.178 0,0"
             style="fill:#ee3423;fill-opacity:1;fill-rule:nonzero;stroke:none"
             id="path270"
             inkscape:connector-curvature="0" /></g><g
           id="g272"
           transform="translate(85.9805,455.1714)"><path
             d="M 0,0 C -0.571,0 -1.139,-0.02 -1.7,-0.055 9.128,-3.965 16.871,-14.333 16.871,-26.51 16.871,-38.688 9.128,-49.057 -1.7,-52.965 -1.139,-53 -0.571,-53.02 0,-53.02 c 14.642,0 26.511,11.869 26.511,26.51 C 26.511,-11.868 14.642,0 0,0"
             style="fill:#ffffff;fill-opacity:1;fill-rule:nonzero;stroke:none"
             id="path274"
             inkscape:connector-curvature="0" /></g><g
           id="g276"
           transform="translate(135.6904,434.4639)"><path
             d="m 0,0 c -1.563,0 -2.853,-0.537 -3.864,-1.607 -1.015,-1.073 -1.521,-2.438 -1.521,-4.102 0,-1.717 0.501,-3.145 1.505,-4.279 1.002,-1.133 2.256,-1.701 3.758,-1.701 1.555,0 2.84,0.537 3.854,1.611 1.013,1.074 1.521,2.445 1.521,4.115 0,1.719 -0.502,3.141 -1.507,4.27 C 2.743,-0.566 1.494,0 0,0 m -0.082,-13.205 c -1.071,0 -2.079,0.17 -3.024,0.514 -0.949,0.345 -1.761,0.836 -2.44,1.476 -0.716,0.674 -1.267,1.465 -1.652,2.379 -0.387,0.912 -0.581,1.871 -0.581,2.873 0,0.789 0.122,1.553 0.37,2.293 0.243,0.74 0.603,1.432 1.074,2.072 0.733,0.991 1.642,1.75 2.723,2.284 1.08,0.531 2.257,0.796 3.53,0.796 1.091,0 2.109,-0.169 3.057,-0.507 C 3.92,0.633 4.733,0.143 5.413,-0.496 6.141,-1.17 6.697,-1.967 7.079,-2.887 7.465,-3.805 7.656,-4.797 7.656,-5.861 7.656,-6.836 7.44,-7.793 7.01,-8.73 6.578,-9.666 5.973,-10.494 5.191,-11.215 4.492,-11.869 3.692,-12.361 2.797,-12.699 1.901,-13.037 0.941,-13.205 -0.082,-13.205"
             style="fill:#231f20;fill-opacity:1;fill-rule:nonzero;stroke:none"
             id="path278"
             inkscape:connector-curvature="0" /></g><g
           id="g280"
           transform="translate(150.2285,424.0791)"><path
             d="m 0,0 c 0,-0.709 0.062,-1.232 0.187,-1.574 0.125,-0.338 0.338,-0.645 0.641,-0.912 h -3.849 c 0.296,0.267 0.509,0.574 0.636,0.912 0.129,0.342 0.194,0.865 0.194,1.574 v 9.08 c 0,0.707 -0.065,1.229 -0.194,1.566 -0.127,0.336 -0.34,0.637 -0.636,0.899 h 4.86 c 1.387,0 2.506,-0.33 3.358,-0.99 C 6.049,9.895 6.475,9.035 6.475,7.979 6.475,7.211 6.219,6.533 5.708,5.949 5.194,5.363 4.4,4.848 3.322,4.402 L 6.97,-0.457 c 0.216,-0.289 0.474,-0.596 0.777,-0.918 0.304,-0.324 0.651,-0.66 1.04,-1.01 L 7.697,-2.486 H 7.524 c -0.509,0 -1.008,0.132 -1.495,0.404 -0.484,0.268 -0.894,0.639 -1.23,1.109 L 0.614,4.797 C 1.86,5.072 2.772,5.451 3.35,5.934 3.924,6.414 4.212,7.035 4.212,7.797 4.212,8.504 3.964,9.08 3.469,9.523 2.975,9.971 2.326,10.191 1.524,10.191 1.343,10.191 1.125,10.176 0.869,10.146 0.612,10.115 0.323,10.07 0,10.008 Z"
             style="fill:#231f20;fill-opacity:1;fill-rule:nonzero;stroke:none"
             id="path282"
             inkscape:connector-curvature="0" /></g><g
           id="g284"
           transform="translate(167.0313,424.0791)"><path
             d="M 0,0 C 0,-0.709 0.063,-1.232 0.192,-1.574 0.319,-1.912 0.531,-2.219 0.828,-2.486 H -3.02 c 0.302,0.267 0.517,0.574 0.64,0.912 0.125,0.342 0.189,0.865 0.189,1.574 v 10.008 h -1.132 c -0.781,0 -1.415,-0.059 -1.899,-0.18 C -5.708,9.705 -6.094,9.51 -6.385,9.242 l 0.697,2.303 H 4.344 L 3.688,9.283 C 3.479,9.531 3.204,9.715 2.865,9.832 2.523,9.951 2.096,10.008 1.576,10.008 H 0 Z"
             style="fill:#231f20;fill-opacity:1;fill-rule:nonzero;stroke:none"
             id="path286"
             inkscape:connector-curvature="0" /></g><g
           id="g288"
           transform="translate(177.0752,428.251)"><path
             d="M 0,0 H 4.143 L 2.152,5.422 Z m -1.898,-4.76 c -0.06,-0.14 -0.106,-0.287 -0.137,-0.439 -0.03,-0.151 -0.045,-0.309 -0.045,-0.469 0,-0.135 0.048,-0.283 0.146,-0.445 0.097,-0.162 0.254,-0.344 0.47,-0.545 h -3.311 c 0.275,0.187 0.521,0.447 0.741,0.777 0.218,0.33 0.442,0.781 0.671,1.354 L 0.586,5.484 C 0.667,5.672 0.728,5.857 0.769,6.039 0.81,6.221 0.83,6.383 0.83,6.523 0.83,6.686 0.79,6.834 0.712,6.971 0.636,7.104 0.51,7.238 0.335,7.373 H 3.526 L 7.992,-4.387 C 8.2,-4.918 8.423,-5.35 8.663,-5.684 8.903,-6.016 9.21,-6.342 9.587,-6.658 H 5.565 l 0.053,0.049 c 0.37,0.39 0.555,0.677 0.555,0.859 0,0.215 -0.081,0.533 -0.242,0.949 -0.022,0.069 -0.039,0.117 -0.051,0.153 l -1.202,3.244 h -5.232 z"
             style="fill:#231f20;fill-opacity:1;fill-rule:nonzero;stroke:none"
             id="path290"
             inkscape:connector-curvature="0" /></g><g
           id="g292"
           transform="translate(201.0137,423.2881)"><path
             d="m 0,0 c 0.513,-0.078 0.952,-0.139 1.323,-0.176 0.37,-0.037 0.691,-0.054 0.96,-0.054 1.563,0 2.854,0.525 3.869,1.58 1.017,1.054 1.526,2.388 1.526,4.005 0,1.657 -0.504,2.989 -1.516,3.995 -1.01,1.007 -2.353,1.511 -4.029,1.511 -0.345,0 -0.694,-0.023 -1.052,-0.072 C 0.725,10.744 0.365,10.67 0,10.568 Z m -3.021,-1.695 c 0.297,0.261 0.505,0.558 0.628,0.888 0.121,0.33 0.18,0.864 0.18,1.598 v 9.08 c 0,0.734 -0.059,1.264 -0.18,1.59 -0.123,0.326 -0.331,0.619 -0.628,0.875 h 4.89 c 1.313,0 2.397,-0.129 3.253,-0.385 C 5.977,11.695 6.769,11.277 7.496,10.699 8.312,10.053 8.925,9.295 9.335,8.426 9.744,7.557 9.951,6.592 9.951,5.527 9.951,4.564 9.798,3.672 9.491,2.85 9.185,2.027 8.726,1.285 8.112,0.617 7.365,-0.199 6.454,-0.787 5.38,-1.15 4.306,-1.516 2.913,-1.695 1.203,-1.695 Z"
             style="fill:#231f20;fill-opacity:1;fill-rule:nonzero;stroke:none"
             id="path294"
             inkscape:connector-curvature="0" /></g><g
           id="g296"
           transform="translate(222.5635,434.4639)"><path
             d="m 0,0 c -1.562,0 -2.851,-0.537 -3.864,-1.607 -1.012,-1.073 -1.521,-2.438 -1.521,-4.102 0,-1.717 0.502,-3.145 1.506,-4.279 1.004,-1.133 2.256,-1.701 3.757,-1.701 1.556,0 2.842,0.537 3.854,1.611 1.013,1.074 1.521,2.445 1.521,4.115 0,1.719 -0.503,3.141 -1.505,4.27 C 2.744,-0.566 1.495,0 0,0 m -0.08,-13.205 c -1.071,0 -2.081,0.17 -3.027,0.514 -0.944,0.345 -1.758,0.836 -2.439,1.476 -0.713,0.674 -1.264,1.465 -1.652,2.379 -0.387,0.912 -0.579,1.871 -0.579,2.873 0,0.789 0.122,1.553 0.368,2.293 0.246,0.74 0.605,1.432 1.075,2.072 0.734,0.991 1.642,1.75 2.722,2.284 1.083,0.531 2.259,0.796 3.532,0.796 1.091,0 2.11,-0.169 3.056,-0.507 0.945,-0.342 1.758,-0.832 2.439,-1.471 0.728,-0.674 1.282,-1.471 1.667,-2.391 0.384,-0.918 0.576,-1.91 0.576,-2.974 0,-0.975 -0.217,-1.932 -0.646,-2.869 -0.433,-0.936 -1.038,-1.764 -1.82,-2.485 -0.701,-0.654 -1.498,-1.146 -2.393,-1.484 -0.896,-0.338 -1.856,-0.506 -2.879,-0.506"
             style="fill:#231f20;fill-opacity:1;fill-rule:nonzero;stroke:none"
             id="path298"
             inkscape:connector-curvature="0" /></g><g
           id="g300"
           transform="translate(237.4951,440.2607)"><path
             d="m 0,0 h 0.655 c 0.122,-0.479 0.368,-0.822 0.743,-1.035 0.373,-0.213 0.92,-0.319 1.642,-0.319 0.721,0 1.267,0.106 1.637,0.319 0.37,0.213 0.608,0.556 0.717,1.035 H 6.061 C 5.911,-0.93 5.583,-1.633 5.074,-2.107 4.567,-2.582 3.888,-2.818 3.04,-2.818 2.184,-2.818 1.499,-2.582 0.984,-2.107 0.47,-1.633 0.141,-0.93 0,0 m 7.94,-6.961 c -0.606,0.391 -1.204,0.68 -1.789,0.865 -0.586,0.184 -1.188,0.278 -1.809,0.278 -1.622,0 -2.932,-0.528 -3.929,-1.58 -0.997,-1.057 -1.494,-2.45 -1.494,-4.178 0,-1.807 0.519,-3.237 1.56,-4.289 1.041,-1.053 2.447,-1.582 4.218,-1.582 0.409,0 0.844,0.039 1.297,0.117 0.456,0.076 0.932,0.197 1.431,0.357 v 2.961 c 0,0.707 -0.065,1.229 -0.189,1.567 -0.124,0.336 -0.337,0.636 -0.64,0.898 h 2.737 v -6.828 c -0.91,-0.209 -1.752,-0.365 -2.531,-0.471 -0.777,-0.103 -1.5,-0.156 -2.166,-0.156 -0.977,0 -1.857,0.096 -2.643,0.289 -0.784,0.192 -1.495,0.483 -2.135,0.871 -1.045,0.627 -1.865,1.483 -2.46,2.563 -0.596,1.08 -0.894,2.254 -0.894,3.519 0,1.045 0.209,2.033 0.626,2.965 0.418,0.934 1.025,1.768 1.818,2.502 0.722,0.658 1.544,1.156 2.47,1.494 0.927,0.336 1.936,0.506 3.026,0.506 0.486,0 1.018,-0.035 1.601,-0.107 0.583,-0.071 1.214,-0.18 1.895,-0.329 z"
             style="fill:#231f20;fill-opacity:1;fill-rule:nonzero;stroke:none"
             id="path302"
             inkscape:connector-curvature="0" /></g><g
           id="g304"
           transform="translate(260.792,421.5928)"><path
             d="m 0,0 v 1.07 c -0.688,-0.49 -1.377,-0.857 -2.07,-1.101 -0.696,-0.242 -1.402,-0.364 -2.123,-0.364 -0.822,0 -1.551,0.135 -2.192,0.405 -0.639,0.269 -1.192,0.674 -1.656,1.211 -0.364,0.425 -0.625,0.918 -0.784,1.48 -0.157,0.563 -0.237,1.319 -0.237,2.27 v 6.595 c 0,0.707 -0.062,1.229 -0.186,1.567 -0.126,0.336 -0.336,0.637 -0.631,0.898 h 3.838 C -6.338,13.77 -6.548,13.469 -6.673,13.133 -6.798,12.795 -6.86,12.273 -6.86,11.566 V 5.404 c 0,-0.963 0.047,-1.677 0.142,-2.14 0.094,-0.467 0.252,-0.836 0.475,-1.114 0.268,-0.328 0.629,-0.576 1.075,-0.742 0.448,-0.164 0.985,-0.246 1.611,-0.246 0.514,0 0.991,0.074 1.435,0.227 0.445,0.152 0.835,0.371 1.171,0.662 0.298,0.242 0.51,0.556 0.638,0.943 0.127,0.387 0.192,0.914 0.192,1.58 v 6.992 c 0,0.735 -0.062,1.264 -0.183,1.59 -0.122,0.326 -0.329,0.619 -0.626,0.875 H 2.919 C 2.622,13.775 2.409,13.469 2.283,13.111 2.155,12.754 2.091,12.238 2.091,11.566 V 2.486 C 2.091,1.777 2.155,1.254 2.283,0.912 2.409,0.574 2.622,0.268 2.919,0 Z"
             style="fill:#231f20;fill-opacity:1;fill-rule:nonzero;stroke:none"
             id="path306"
             inkscape:connector-curvature="0" /></g><g
           id="g308"
           transform="translate(282.6582,424.0791)"><path
             d="M 0,0 C 0,-0.709 0.064,-1.232 0.192,-1.574 0.32,-1.912 0.532,-2.219 0.829,-2.486 H -3.02 c 0.303,0.267 0.517,0.574 0.642,0.912 0.125,0.342 0.187,0.865 0.187,1.574 v 10.008 h -1.131 c -0.782,0 -1.414,-0.059 -1.9,-0.18 C -5.706,9.705 -6.094,9.51 -6.384,9.242 l 0.697,2.303 H 4.345 L 3.689,9.283 C 3.479,9.531 3.205,9.715 2.865,9.832 2.524,9.951 2.095,10.008 1.576,10.008 H 0 Z"
             style="fill:#231f20;fill-opacity:1;fill-rule:nonzero;stroke:none"
             id="path310"
             inkscape:connector-curvature="0" /></g><g
           id="g312"
           transform="translate(290.6943,421.5928)"><path
             d="m 0,0 c 0.296,0.268 0.508,0.574 0.637,0.912 0.128,0.342 0.191,0.865 0.191,1.574 v 9.08 c 0,0.707 -0.063,1.229 -0.191,1.567 C 0.508,13.469 0.296,13.77 0,14.031 h 7.688 v -2.203 c -0.344,0.27 -0.72,0.465 -1.131,0.586 -0.411,0.121 -0.886,0.184 -1.425,0.184 -0.277,0 -0.586,-0.024 -0.93,-0.067 C 3.859,12.486 3.472,12.422 3.04,12.334 V 8.375 H 6.476 V 6.332 C 6.313,6.521 6.095,6.656 5.819,6.732 5.543,6.811 5.037,6.848 4.304,6.848 H 3.04 V 1.818 C 3.572,1.736 4.054,1.678 4.485,1.637 4.916,1.596 5.289,1.576 5.606,1.576 c 0.713,0 1.388,0.096 2.02,0.287 C 8.26,2.055 8.883,2.35 9.494,2.748 L 8.516,0 Z"
             style="fill:#231f20;fill-opacity:1;fill-rule:nonzero;stroke:none"
             id="path314"
             inkscape:connector-curvature="0" /></g><g
           id="g316"
           transform="translate(306.7891,428.9561)"><path
             d="M 0,0 3.254,4.385 C 3.481,4.693 3.65,4.953 3.758,5.164 3.866,5.371 3.919,5.547 3.919,5.688 3.919,5.842 3.876,6 3.788,6.162 3.7,6.324 3.568,6.492 3.395,6.668 H 6.91 L 2.383,0.395 6.506,-5.414 C 6.666,-5.65 6.898,-5.926 7.198,-6.242 7.497,-6.561 7.88,-6.934 8.344,-7.363 H 7.161 c -0.754,0 -1.372,0.142 -1.858,0.429 -0.485,0.286 -1.05,0.893 -1.697,1.823 z m -0.342,-4.877 c 0,-0.709 0.061,-1.232 0.185,-1.574 0.126,-0.338 0.339,-0.645 0.641,-0.912 h -3.847 c 0.296,0.267 0.507,0.574 0.634,0.912 0.128,0.342 0.193,0.865 0.193,1.574 v 9.08 c 0,0.707 -0.065,1.229 -0.193,1.567 -0.127,0.335 -0.338,0.636 -0.634,0.898 H 0.484 C 0.182,6.406 -0.031,6.105 -0.157,5.77 -0.281,5.432 -0.342,4.91 -0.342,4.203 Z"
             style="fill:#231f20;fill-opacity:1;fill-rule:nonzero;stroke:none"
             id="path318"
             inkscape:connector-curvature="0" /></g><g
           id="g320"
           transform="translate(331.8311,435.624)"><path
             d="m 0,0 c -0.302,-0.262 -0.517,-0.563 -0.641,-0.898 -0.125,-0.338 -0.187,-0.86 -0.187,-1.567 v -11.89 c -0.491,0.013 -0.957,0.171 -1.399,0.474 -0.441,0.305 -0.995,0.881 -1.661,1.729 l -7.243,9.132 v -8.525 c 0,-0.734 0.061,-1.268 0.181,-1.598 0.123,-0.33 0.33,-0.627 0.628,-0.888 h -3.183 c 0.296,0.267 0.509,0.574 0.637,0.912 0.129,0.342 0.192,0.865 0.192,1.574 v 9.08 c 0,0.707 -0.063,1.229 -0.192,1.567 -0.128,0.335 -0.341,0.636 -0.637,0.898 h 2.849 l 8.303,-10.537 v 8.072 c 0,0.707 -0.063,1.229 -0.191,1.567 -0.128,0.335 -0.341,0.636 -0.638,0.898 z"
             style="fill:#231f20;fill-opacity:1;fill-rule:nonzero;stroke:none"
             id="path322"
             inkscape:connector-curvature="0" /></g><g
           id="g324"
           transform="translate(336.8643,438.7451)"><path
             d="M 0,0 C 0,0.324 0.118,0.604 0.353,0.844 0.59,1.084 0.866,1.201 1.181,1.201 1.505,1.201 1.786,1.084 2.024,0.844 2.266,0.604 2.384,0.324 2.384,0 2.384,-0.342 2.27,-0.631 2.04,-0.859 1.812,-1.088 1.524,-1.203 1.181,-1.203 0.845,-1.203 0.564,-1.088 0.338,-0.859 0.112,-0.631 0,-0.342 0,0 m 2.282,-14.666 c 0,-0.709 0.063,-1.232 0.189,-1.574 0.124,-0.338 0.339,-0.645 0.64,-0.912 h -3.848 c 0.303,0.267 0.517,0.574 0.64,0.912 0.125,0.342 0.188,0.865 0.188,1.574 v 9.08 c 0,0.707 -0.063,1.229 -0.188,1.566 -0.123,0.336 -0.337,0.637 -0.64,0.899 H 3.111 C 2.81,-3.383 2.595,-3.684 2.471,-4.02 2.345,-4.357 2.282,-4.879 2.282,-5.586 Z"
             style="fill:#231f20;fill-opacity:1;fill-rule:nonzero;stroke:none"
             id="path326"
             inkscape:connector-curvature="0" /></g><g
           id="g328"
           transform="translate(347.6885,428.9561)"><path
             d="M 0,0 3.252,4.385 C 3.48,4.693 3.65,4.953 3.756,5.164 3.865,5.371 3.919,5.547 3.919,5.688 3.919,5.842 3.875,6 3.787,6.162 3.7,6.324 3.569,6.492 3.394,6.668 H 6.909 L 2.384,0.395 6.504,-5.414 C 6.667,-5.65 6.897,-5.926 7.197,-6.242 7.496,-6.561 7.88,-6.934 8.345,-7.363 H 7.161 c -0.754,0 -1.373,0.142 -1.859,0.429 -0.483,0.286 -1.05,0.893 -1.697,1.823 z m -0.344,-4.877 c 0,-0.709 0.062,-1.232 0.187,-1.574 0.125,-0.338 0.338,-0.645 0.641,-0.912 h -3.848 c 0.296,0.267 0.508,0.574 0.636,0.912 0.127,0.342 0.192,0.865 0.192,1.574 v 9.08 c 0,0.707 -0.065,1.229 -0.192,1.567 -0.128,0.335 -0.34,0.636 -0.636,0.898 H 0.484 C 0.181,6.406 -0.032,6.105 -0.157,5.77 -0.282,5.432 -0.344,4.91 -0.344,4.203 Z"
             style="fill:#231f20;fill-opacity:1;fill-rule:nonzero;stroke:none"
             id="path330"
             inkscape:connector-curvature="0" /></g><g
           id="g332"
           transform="translate(374.8779,438.7451)"><path
             d="m 0,0 c 0,0.301 0.116,0.568 0.349,0.797 0.233,0.23 0.503,0.344 0.814,0.344 0.303,0 0.564,-0.114 0.781,-0.338 C 2.164,0.576 2.273,0.311 2.273,0 2.273,-0.336 2.169,-0.611 1.962,-0.824 1.751,-1.035 1.486,-1.141 1.163,-1.141 c -0.33,0 -0.605,0.11 -0.828,0.328 C 0.112,-0.596 0,-0.322 0,0 m -3.869,0 c 0,0.301 0.113,0.568 0.34,0.797 0.226,0.23 0.489,0.344 0.792,0.344 0.316,0 0.587,-0.114 0.808,-0.338 0.222,-0.227 0.335,-0.492 0.335,-0.803 0,-0.33 -0.108,-0.604 -0.319,-0.818 -0.212,-0.215 -0.487,-0.323 -0.824,-0.323 -0.33,0 -0.601,0.108 -0.814,0.323 C -3.763,-0.604 -3.869,-0.33 -3.869,0 m 6.345,-17.152 v 1.07 c -0.687,-0.49 -1.377,-0.857 -2.071,-1.102 -0.693,-0.242 -1.401,-0.363 -2.121,-0.363 -0.822,0 -1.554,0.135 -2.191,0.404 -0.641,0.27 -1.194,0.674 -1.658,1.211 -0.364,0.426 -0.624,0.918 -0.784,1.481 -0.158,0.562 -0.237,1.318 -0.237,2.269 v 6.596 c 0,0.707 -0.062,1.229 -0.186,1.566 -0.125,0.336 -0.334,0.637 -0.631,0.899 h 3.839 C -3.86,-3.383 -4.071,-3.684 -4.196,-4.02 -4.321,-4.357 -4.383,-4.879 -4.383,-5.586 v -6.162 c 0,-0.963 0.047,-1.678 0.141,-2.141 0.095,-0.466 0.253,-0.836 0.475,-1.113 0.27,-0.328 0.627,-0.576 1.076,-0.742 0.448,-0.164 0.984,-0.246 1.612,-0.246 0.51,0 0.988,0.074 1.433,0.226 0.445,0.153 0.835,0.371 1.172,0.662 0.295,0.243 0.509,0.557 0.636,0.944 0.128,0.387 0.192,0.914 0.192,1.58 v 6.992 c 0,0.734 -0.06,1.264 -0.18,1.59 -0.122,0.326 -0.331,0.619 -0.627,0.875 H 5.396 C 5.1,-3.377 4.887,-3.684 4.759,-4.041 4.631,-4.398 4.567,-4.914 4.567,-5.586 v -9.08 c 0,-0.709 0.064,-1.232 0.192,-1.574 0.128,-0.338 0.341,-0.645 0.637,-0.912 z"
             style="fill:#231f20;fill-opacity:1;fill-rule:nonzero;stroke:none"
             id="path334"
             inkscape:connector-curvature="0" /></g><g
           id="g336"
           transform="translate(398.0957,435.624)"><path
             d="m 0,0 c -0.303,-0.262 -0.518,-0.563 -0.642,-0.898 -0.125,-0.338 -0.186,-0.86 -0.186,-1.567 v -11.89 c -0.492,0.013 -0.959,0.171 -1.4,0.474 -0.44,0.305 -0.994,0.881 -1.663,1.729 l -7.241,9.132 v -8.525 c 0,-0.734 0.06,-1.268 0.182,-1.598 0.122,-0.33 0.329,-0.627 0.626,-0.888 h -3.182 c 0.297,0.267 0.508,0.574 0.635,0.912 0.129,0.342 0.193,0.865 0.193,1.574 v 9.08 c 0,0.707 -0.064,1.229 -0.193,1.567 -0.127,0.335 -0.338,0.636 -0.635,0.898 h 2.847 l 8.305,-10.537 v 8.072 c 0,0.707 -0.064,1.229 -0.192,1.567 -0.128,0.335 -0.34,0.636 -0.636,0.898 z"
             style="fill:#231f20;fill-opacity:1;fill-rule:nonzero;stroke:none"
             id="path338"
             inkscape:connector-curvature="0" /></g><g
           id="g340"
           transform="translate(403.127,438.7451)"><path
             d="m 0,0 c 0,0.324 0.118,0.604 0.354,0.844 0.237,0.24 0.512,0.357 0.828,0.357 0.324,0 0.604,-0.117 0.844,-0.357 C 2.265,0.604 2.385,0.324 2.385,0 2.385,-0.342 2.271,-0.631 2.042,-0.859 1.813,-1.088 1.526,-1.203 1.182,-1.203 0.846,-1.203 0.564,-1.088 0.34,-0.859 0.114,-0.631 0,-0.342 0,0 m 2.283,-14.666 c 0,-0.709 0.064,-1.232 0.187,-1.574 0.125,-0.338 0.339,-0.645 0.641,-0.912 h -3.848 c 0.302,0.267 0.516,0.574 0.641,0.912 0.125,0.342 0.187,0.865 0.187,1.574 v 9.08 c 0,0.707 -0.062,1.229 -0.187,1.566 -0.125,0.336 -0.339,0.637 -0.641,0.899 H 3.111 C 2.809,-3.383 2.595,-3.684 2.47,-4.02 2.347,-4.357 2.283,-4.879 2.283,-5.586 Z"
             style="fill:#231f20;fill-opacity:1;fill-rule:nonzero;stroke:none"
             id="path342"
             inkscape:connector-curvature="0" /></g><g
           id="g344"
           transform="translate(416.5654,421.2393)"><path
             d="m 0,0 c -0.6,0.154 -1.11,0.494 -1.535,1.016 -0.425,0.521 -0.815,1.3 -1.173,2.338 l -2.837,8.171 c -0.23,0.674 -0.448,1.223 -0.652,1.647 -0.207,0.424 -0.436,0.828 -0.693,1.213 l 2.9,-0.01 c 0.012,-0.23 0.037,-0.443 0.07,-0.637 0.034,-0.197 0.077,-0.381 0.131,-0.556 l 3.415,-10.041 3.232,8.363 c 0.095,0.258 0.171,0.516 0.227,0.773 0.058,0.26 0.088,0.498 0.088,0.713 0,0.19 -0.056,0.389 -0.164,0.602 -0.107,0.211 -0.289,0.476 -0.545,0.793 h 3.223 z"
             style="fill:#231f20;fill-opacity:1;fill-rule:nonzero;stroke:none"
             id="path346"
             inkscape:connector-curvature="0" /></g><g
           id="g348"
           transform="translate(425.709,421.5928)"><path
             d="m 0,0 c 0.297,0.268 0.51,0.574 0.637,0.912 0.128,0.342 0.191,0.865 0.191,1.574 v 9.08 c 0,0.707 -0.063,1.229 -0.191,1.567 C 0.51,13.469 0.297,13.77 0,14.031 h 7.689 v -2.203 c -0.344,0.27 -0.721,0.465 -1.131,0.586 -0.411,0.121 -0.886,0.184 -1.425,0.184 -0.278,0 -0.586,-0.024 -0.929,-0.067 C 3.859,12.486 3.473,12.422 3.042,12.334 V 8.375 H 6.477 V 6.332 C 6.314,6.521 6.096,6.656 5.82,6.732 5.543,6.811 5.038,6.848 4.303,6.848 H 3.042 V 1.818 C 3.574,1.736 4.056,1.678 4.486,1.637 4.917,1.596 5.291,1.576 5.607,1.576 c 0.715,0 1.389,0.096 2.021,0.287 0.633,0.192 1.256,0.487 1.868,0.885 L 8.518,0 Z"
             style="fill:#231f20;fill-opacity:1;fill-rule:nonzero;stroke:none"
             id="path350"
             inkscape:connector-curvature="0" /></g><g
           id="g352"
           transform="translate(441.4609,424.0791)"><path
             d="M 0,0 C 0,-0.709 0.062,-1.232 0.188,-1.574 0.313,-1.912 0.526,-2.219 0.829,-2.486 H -3.02 c 0.297,0.267 0.508,0.574 0.637,0.912 0.127,0.342 0.192,0.865 0.192,1.574 v 9.08 c 0,0.707 -0.065,1.229 -0.192,1.566 -0.129,0.336 -0.34,0.637 -0.637,0.899 h 4.859 c 1.389,0 2.506,-0.33 3.358,-0.99 0.854,-0.66 1.28,-1.52 1.28,-2.576 C 6.477,7.211 6.221,6.533 5.709,5.949 5.197,5.363 4.401,4.848 3.324,4.402 L 6.97,-0.457 c 0.216,-0.289 0.475,-0.596 0.778,-0.918 0.304,-0.324 0.65,-0.66 1.041,-1.01 L 7.698,-2.486 H 7.525 c -0.509,0 -1.008,0.132 -1.494,0.404 -0.483,0.268 -0.894,0.639 -1.231,1.109 l -4.184,5.77 c 1.246,0.275 2.157,0.654 2.733,1.137 0.577,0.48 0.865,1.101 0.865,1.863 0,0.707 -0.248,1.283 -0.743,1.726 -0.495,0.448 -1.143,0.668 -1.945,0.668 -0.18,0 -0.401,-0.015 -0.656,-0.045 C 0.614,10.115 0.324,10.07 0,10.008 Z"
             style="fill:#231f20;fill-opacity:1;fill-rule:nonzero;stroke:none"
             id="path354"
             inkscape:connector-curvature="0" /></g><g
           id="g356"
           transform="translate(453.6162,421.9053)"><path
             d="M 0,0 -0.666,2.547 C 0.148,2 0.94,1.594 1.708,1.328 2.475,1.063 3.236,0.93 3.99,0.93 c 0.964,0 1.738,0.207 2.324,0.621 0.585,0.414 0.878,0.951 0.878,1.611 0,0.19 -0.029,0.377 -0.089,0.567 C 7.04,3.916 6.953,4.096 6.839,4.262 6.583,4.646 5.725,5.195 4.264,5.91 3.894,6.084 3.608,6.223 3.403,6.324 2.037,7.012 1.099,7.645 0.592,8.223 0.083,8.801 -0.17,9.488 -0.17,10.285 c 0,1.137 0.464,2.041 1.394,2.711 C 2.152,13.666 3.425,14 5.041,14 5.506,14 6.018,13.971 6.577,13.91 7.136,13.85 7.742,13.754 8.396,13.627 v -2.356 c -0.581,0.442 -1.163,0.768 -1.749,0.983 -0.585,0.217 -1.196,0.322 -1.828,0.322 -0.8,0 -1.446,-0.17 -1.935,-0.513 C 2.396,11.719 2.152,11.27 2.152,10.719 2.152,10.227 2.344,9.793 2.729,9.416 3.112,9.039 3.975,8.533 5.314,7.898 5.388,7.867 5.503,7.811 5.656,7.738 6.79,7.219 7.635,6.742 8.194,6.305 8.611,5.98 8.936,5.588 9.169,5.121 9.4,4.658 9.517,4.162 9.517,3.637 9.517,2.432 8.964,1.41 7.859,0.572 6.755,-0.268 5.374,-0.686 3.718,-0.686 3.186,-0.686 2.614,-0.629 1.999,-0.514 1.388,-0.4 0.721,-0.229 0,0"
             style="fill:#231f20;fill-opacity:1;fill-rule:nonzero;stroke:none"
             id="path358"
             inkscape:connector-curvature="0" /></g><g
           id="g360"
           transform="translate(467.707,438.7451)"><path
             d="m 0,0 c 0,0.324 0.119,0.604 0.354,0.844 0.236,0.24 0.512,0.357 0.83,0.357 0.322,0 0.602,-0.117 0.841,-0.357 C 2.266,0.604 2.386,0.324 2.386,0 2.386,-0.342 2.27,-0.631 2.042,-0.859 1.813,-1.088 1.526,-1.203 1.184,-1.203 c -0.338,0 -0.62,0.115 -0.845,0.344 C 0.113,-0.631 0,-0.342 0,0 m 2.284,-14.666 c 0,-0.709 0.061,-1.232 0.186,-1.574 0.126,-0.338 0.34,-0.645 0.642,-0.912 h -3.848 c 0.302,0.267 0.516,0.574 0.641,0.912 0.124,0.342 0.187,0.865 0.187,1.574 v 9.08 c 0,0.707 -0.063,1.229 -0.187,1.566 -0.125,0.336 -0.339,0.637 -0.641,0.899 H 3.112 C 2.81,-3.383 2.596,-3.684 2.47,-4.02 2.345,-4.357 2.284,-4.879 2.284,-5.586 Z"
             style="fill:#231f20;fill-opacity:1;fill-rule:nonzero;stroke:none"
             id="path362"
             inkscape:connector-curvature="0" /></g><g
           id="g364"
           transform="translate(480.5859,424.0791)"><path
             d="M 0,0 C 0,-0.709 0.064,-1.232 0.193,-1.574 0.32,-1.912 0.532,-2.219 0.828,-2.486 h -3.849 c 0.304,0.267 0.517,0.574 0.641,0.912 0.125,0.342 0.189,0.865 0.189,1.574 v 10.008 h -1.133 c -0.78,0 -1.414,-0.059 -1.898,-0.18 C -5.708,9.705 -6.094,9.51 -6.385,9.242 l 0.697,2.303 H 4.344 L 3.688,9.283 C 3.479,9.531 3.203,9.715 2.865,9.832 2.524,9.951 2.095,10.008 1.576,10.008 H 0 Z"
             style="fill:#231f20;fill-opacity:1;fill-rule:nonzero;stroke:none"
             id="path366"
             inkscape:connector-curvature="0" /></g><g
           id="g368"
           transform="translate(488.6211,421.5928)"><path
             d="m 0,0 c 0.297,0.268 0.509,0.574 0.637,0.912 0.128,0.342 0.192,0.865 0.192,1.574 v 9.08 c 0,0.707 -0.064,1.229 -0.192,1.567 C 0.509,13.469 0.297,13.77 0,14.031 H 7.688 V 11.828 C 7.345,12.098 6.967,12.293 6.557,12.414 6.146,12.535 5.67,12.598 5.132,12.598 4.856,12.598 4.547,12.574 4.203,12.531 3.86,12.486 3.473,12.422 3.041,12.334 V 8.375 H 6.478 V 6.332 C 6.313,6.521 6.095,6.656 5.818,6.732 5.542,6.811 5.038,6.848 4.304,6.848 H 3.041 V 1.818 C 3.572,1.736 4.055,1.678 4.486,1.637 4.916,1.596 5.291,1.576 5.606,1.576 6.32,1.576 6.994,1.672 7.627,1.863 8.261,2.055 8.884,2.35 9.496,2.748 L 8.517,0 Z"
             style="fill:#231f20;fill-opacity:1;fill-rule:nonzero;stroke:none"
             id="path370"
             inkscape:connector-curvature="0" /></g><g
           id="g372"
           transform="translate(502.1504,421.9053)"><path
             d="M 0,0 -0.667,2.547 C 0.147,2 0.939,1.594 1.707,1.328 2.475,1.063 3.236,0.93 3.99,0.93 c 0.963,0 1.739,0.207 2.323,0.621 0.586,0.414 0.879,0.951 0.879,1.611 0,0.19 -0.03,0.377 -0.09,0.567 C 7.042,3.916 6.953,4.096 6.839,4.262 6.582,4.646 5.725,5.195 4.262,5.91 3.892,6.084 3.606,6.223 3.404,6.324 2.037,7.012 1.099,7.645 0.591,8.223 c -0.509,0.578 -0.763,1.265 -0.763,2.062 0,1.137 0.465,2.041 1.395,2.711 C 2.151,13.666 3.425,14 5.041,14 5.506,14 6.017,13.971 6.576,13.91 7.135,13.85 7.741,13.754 8.395,13.627 V 11.271 C 7.814,11.713 7.232,12.039 6.647,12.254 6.062,12.471 5.45,12.576 4.818,12.576 4.017,12.576 3.372,12.406 2.885,12.063 2.395,11.719 2.151,11.27 2.151,10.719 2.151,10.227 2.345,9.793 2.729,9.416 3.111,9.039 3.973,8.533 5.314,7.898 5.388,7.867 5.502,7.811 5.656,7.738 6.788,7.219 7.634,6.742 8.193,6.305 8.609,5.98 8.935,5.588 9.168,5.121 9.4,4.658 9.516,4.162 9.516,3.637 9.516,2.432 8.964,1.41 7.858,0.572 6.755,-0.268 5.374,-0.686 3.717,-0.686 3.186,-0.686 2.613,-0.629 2.001,-0.514 1.388,-0.4 0.721,-0.229 0,0"
             style="fill:#231f20;fill-opacity:1;fill-rule:nonzero;stroke:none"
             id="path374"
             inkscape:connector-curvature="0" /></g><g
           id="g376"
           transform="translate(516.2412,438.7451)"><path
             d="m 0,0 c 0,0.324 0.118,0.604 0.354,0.844 0.235,0.24 0.51,0.357 0.828,0.357 0.323,0 0.604,-0.117 0.842,-0.357 C 2.265,0.604 2.385,0.324 2.385,0 2.385,-0.342 2.269,-0.631 2.04,-0.859 1.812,-1.088 1.525,-1.203 1.182,-1.203 0.846,-1.203 0.564,-1.088 0.339,-0.859 0.112,-0.631 0,-0.342 0,0 m 2.283,-14.666 c 0,-0.709 0.063,-1.232 0.188,-1.574 0.123,-0.338 0.337,-0.645 0.641,-0.912 h -3.85 c 0.303,0.267 0.517,0.574 0.641,0.912 0.124,0.342 0.188,0.865 0.188,1.574 v 9.08 c 0,0.707 -0.064,1.229 -0.188,1.566 -0.124,0.336 -0.338,0.637 -0.641,0.899 h 3.85 C 2.808,-3.383 2.594,-3.684 2.471,-4.02 2.346,-4.357 2.283,-4.879 2.283,-5.586 Z"
             style="fill:#231f20;fill-opacity:1;fill-rule:nonzero;stroke:none"
             id="path378"
             inkscape:connector-curvature="0" /></g><g
           id="g380"
           transform="translate(130.6123,394.9209)"><path
             d="M 0,0 H 12.734"
             style="fill:none;stroke:#231f20;stroke-width:0.25;stroke-linecap:butt;stroke-linejoin:miter;stroke-miterlimit:4;stroke-dasharray:none;stroke-opacity:1"
             id="path382"
             inkscape:connector-curvature="0" /></g><g
           id="g384"
           transform="translate(130.6123,380.9443)"><path
             d="M 0,0 H 12.734"
             style="fill:none;stroke:#231f20;stroke-width:0.25;stroke-linecap:butt;stroke-linejoin:miter;stroke-miterlimit:4;stroke-dasharray:none;stroke-opacity:1"
             id="path386"
             inkscape:connector-curvature="0" /></g><g
           id="g388"
           transform="translate(136.9795,394.9229)"><path
             d="M 0,0 V -13.979"
             style="fill:none;stroke:#231f20;stroke-width:0.25;stroke-linecap:butt;stroke-linejoin:miter;stroke-miterlimit:4;stroke-dasharray:none;stroke-opacity:1"
             id="path390"
             inkscape:connector-curvature="0" /></g><g
           id="g392"
           transform="translate(139.4971,387.8965)"><path
             d="m 0,0 -1.08,1.47 h 0.654 L 0.318,0.384 1.092,1.47 H 1.704 L 0.636,0.042 1.836,-1.632 H 1.183 l -0.865,1.284 -0.864,-1.284 h -0.618 z"
             style="fill:#231f20;fill-opacity:1;fill-rule:nonzero;stroke:none"
             id="path394"
             inkscape:connector-curvature="0" /></g><g
           id="g396"
           transform="translate(526.9121,435.5957)"><path
             d="M 0,0 H 12.734"
             style="fill:none;stroke:#231f20;stroke-width:0.25;stroke-linecap:butt;stroke-linejoin:miter;stroke-miterlimit:4;stroke-dasharray:none;stroke-opacity:1"
             id="path398"
             inkscape:connector-curvature="0" /></g><g
           id="g400"
           transform="translate(526.9121,421.6191)"><path
             d="M 0,0 H 12.734"
             style="fill:none;stroke:#231f20;stroke-width:0.25;stroke-linecap:butt;stroke-linejoin:miter;stroke-miterlimit:4;stroke-dasharray:none;stroke-opacity:1"
             id="path402"
             inkscape:connector-curvature="0" /></g><g
           id="g404"
           transform="translate(533.2793,435.5977)"><path
             d="M 0,0 V -13.979"
             style="fill:none;stroke:#231f20;stroke-width:0.25;stroke-linecap:butt;stroke-linejoin:miter;stroke-miterlimit:4;stroke-dasharray:none;stroke-opacity:1"
             id="path406"
             inkscape:connector-curvature="0" /></g><g
           id="g408"
           transform="translate(535.7969,428.5713)"><path
             d="m 0,0 -1.08,1.47 h 0.654 L 0.318,0.384 1.092,1.47 H 1.704 L 0.636,0.042 1.836,-1.632 H 1.183 l -0.865,1.284 -0.864,-1.284 h -0.618 z"
             style="fill:#231f20;fill-opacity:1;fill-rule:nonzero;stroke:none"
             id="path410"
             inkscape:connector-curvature="0" /></g></g></g><text
       transform="matrix(1,0,0,-1,212.6401,16.8047)"
       style="font-variant:normal;font-weight:normal;font-stretch:normal;font-size:10px;font-family:'HelveticaNeueLT Com 55 Roman';-inkscape-font-specification:HelveticaNeueLTCom-Roman;writing-mode:lr-tb;fill:#231f20;fill-opacity:1;fill-rule:nonzero;stroke:none"
       id="text414"><tspan
         x="0"
         y="0"
         id="tspan412">5</tspan></text>
</g></svg>