<?xml version="1.0" encoding="UTF-8" standalone="no"?>
<!-- Created with Inkscape (http://www.inkscape.org/) -->

<svg
   xmlns:dc="http://purl.org/dc/elements/1.1/"
   xmlns:cc="http://creativecommons.org/ns#"
   xmlns:rdf="http://www.w3.org/1999/02/22-rdf-syntax-ns#"
   xmlns:svg="http://www.w3.org/2000/svg"
   xmlns="http://www.w3.org/2000/svg"
   xmlns:sodipodi="http://sodipodi.sourceforge.net/DTD/sodipodi-0.dtd"
   xmlns:inkscape="http://www.inkscape.org/namespaces/inkscape"
   version="1.1"
   id="svg2"
   xml:space="preserve"
   width="793.70801"
   height="1122.52"
   viewBox="0 0 793.70801 1122.52"
   sodipodi:docname="p6.svg"
   inkscape:version="0.92.2 5c3e80d, 2017-08-06"><metadata
     id="metadata8"><rdf:RDF><cc:Work
         rdf:about=""><dc:format>image/svg+xml</dc:format><dc:type
           rdf:resource="http://purl.org/dc/dcmitype/StillImage" /><dc:title></dc:title></cc:Work></rdf:RDF></metadata><defs
     id="defs6"><clipPath
       clipPathUnits="userSpaceOnUse"
       id="clipPath96"><path
         d="M 0,841.89 H 595.281 V 0 H 0 Z"
         id="path94"
         inkscape:connector-curvature="0" /></clipPath></defs><sodipodi:namedview
     pagecolor="#ffffff"
     bordercolor="#666666"
     borderopacity="1"
     objecttolerance="10"
     gridtolerance="10"
     guidetolerance="10"
     inkscape:pageopacity="0"
     inkscape:pageshadow="2"
     inkscape:window-width="1920"
     inkscape:window-height="1036"
     id="namedview4"
     showgrid="false"
     inkscape:zoom="0.21024124"
     inkscape:cx="-299.96457"
     inkscape:cy="561.26001"
     inkscape:window-x="0"
     inkscape:window-y="20"
     inkscape:window-maximized="0"
     inkscape:current-layer="g10" /><g
     id="g10"
     inkscape:groupmode="layer"
     inkscape:label="branding3"
     transform="matrix(1.3333333,0,0,-1.3333333,0,1122.52)"><text
       transform="matrix(1,0,0,-1,407.6387,718.8066)"
       style="font-variant:normal;font-weight:300;font-stretch:normal;font-size:10px;font-family:'HelveticaNeueLT Com 45 Lt';-inkscape-font-specification:HelveticaNeueLTCom-Lt;writing-mode:lr-tb;fill:#231f20;fill-opacity:1;fill-rule:nonzero;stroke:none"
       id="text28"><tspan
         x="0 6.5799999 15.1 21.030001 23.1 28.540001 37 39.91 44.619999 50.240002 55.029999 57.080002 62.09 64.129997 69.690002 71.730003 77.230003 80.139999 85.709999 91.269997 93.360001 98.050003 103.49 106.87 111.84 114.78 120.22 125.78 127.82 133.32001"
         y="0"
         sodipodi:role="line"
         id="tspan12">Amblem yazısının üniverstenin </tspan><tspan
         x="-15 -9.71 -7.6599998 -2.6099999 2.8 4.8600001 7.9200001 9.96 12 20.52 22.549999 27.49 30.4 35.73 41.650002 43.689999 49.25 51.23 54.139999 56.209999 61.630001 67.07 70.470001 79.010002 84.459999 89.470001 91.449997 94.360001 99.050003 104.37 107.28 112.7 121.22 127.15 129.22 134.66 143.17999 145.22 150.72"
         y="11"
         sodipodi:role="line"
         id="tspan14">kısaltılmış adını içermesi ve amblemin </tspan><tspan
         x="-15 -9.9499998 -4.5999999 1.15 3.1900001 8.75 14.69 20.01 22.92 27.610001 32.93 35.84 41.25 43.310001 46.369999 48.41 53.970001 59.91 65.230003 68.139999 73.910004 75.949997 84.489998 89.900002 94.910004 96.889999 99.800003 105.73 111.3 114.71 120.28 128.78999 134.36 139.92 145.86 151.17999"
         y="22"
         sodipodi:role="line"
         id="tspan16">sağında ve altında olması durumunda </tspan><tspan
         x="-15 -9.4399996 -4.0300002 0.98000002 3.02 5 7.9099998 13.13 18.690001 20.73 22.790001 28.219999 33.779999 35.82 37.860001 46.400002 51.810001 56.82 58.799999 61.709999 67.5 72.940002 76.190002 81.629997 87.110001 90.169998 92.239998 97.989998 99.970001 102.88 104.92 110.21 112.19 115.1 121.02 123.05 125.1 131.06 136.38"
         y="33"
         sodipodi:role="line"
         id="tspan18">nasıl kullanılması gerektiği iki dilde </tspan><tspan
         x="-15 -9.5900002 -4.54 0.81 6.5599999 8.6099997 14.55 19.870001 22.780001 28.549999 34.299999 39.27 42.209999 47.650002 51.049999 53.09 55.130001 63.650002 65.699997 70.669998 73.730003 75.769997 78.290001"
         y="44"
         sodipodi:role="line"
         id="tspan20">aşağıda gösterilmiştir.</tspan><tspan
         x="-180 -173.49001 -167.92 -162.3 -154.67 -149.17 -146.25999 -140.31 -134.87 -132.8 -127.18 -119.75 -116.84 -113.93 -106.94 -101.89 -96.540001 -90.75 -85.43 -82.519997 -76.910004 -74.190002 -71.279999 -68.209999 -62.630001 -57.310001"
         y="0"
         sodipodi:role="line"
         id="tspan22">Shown below: Usage of the </tspan><tspan
         x="-195 -190.09 -185.22 -176.7 -170.75 -164.98 -163 -160.09 -152.47 -150.41 -147.34 -141.84 -138.92999 -135.86 -130.28 -124.96 -122.05 -116.63 -110.69 -104.75 -101.5 -96.209999 -91.339996 -89.279999 -83.989998 -81.050003 -75.620003 -69.75 -66.839996 -64.769997 -59 -53.23 -47.630001 -44.290001 -39.419998 -33.470001 -28.15"
         y="11"
         sodipodi:role="line"
         id="tspan24">symbol with the abbreviated logotype </tspan><tspan
         x="-195 -189.23 -183.73 -180.82001 -177.75 -172.17 -166.85001 -163.94 -160.53999 -158.47 -152.71001 -147.22 -144.13 -141.22 -135.78999 -130.23 -124.36 -121.45 -115.5 -110.06 -107.99 -102.37 -94.830002 -91.919998 -89.870003 -84.370003 -81.459999 -75.510002 -69.910004 -66.839996 -61.34"
         y="22"
         sodipodi:role="line"
         id="tspan26">on the right and below in both </tspan></text>
<text
       transform="matrix(1,0,0,-1,212.6387,685.8066)"
       style="font-variant:normal;font-weight:300;font-stretch:normal;font-size:10px;font-family:'HelveticaNeueLT Com 45 Lt';-inkscape-font-specification:HelveticaNeueLTCom-Lt;writing-mode:lr-tb;fill:#231f20;fill-opacity:1;fill-rule:nonzero;stroke:none"
       id="text32"><tspan
         x="0 2.0599999 7.4899998 13.06 18.82 24.4 29.75 35.540001 40.990002 45.869999"
         y="0"
         sodipodi:role="line"
         id="tspan30">languages.</tspan></text>
<text
       transform="matrix(1,0,0,-1,212.6406,798.0928)"
       style="font-variant:normal;font-weight:500;font-stretch:normal;font-size:18px;font-family:'HelveticaNeueLT Com 65 Md';-inkscape-font-specification:HelveticaNeueLTCom-Md;writing-mode:lr-tb;fill:#231f20;fill-opacity:1;fill-rule:nonzero;stroke:none"
       id="text40"><tspan
         x="0 12.006 21.6 37.403999 48.582001 59.417999 63.972 69.192001 79.487999 90.017998 101.232 106.452 112.608 123.102 133.326"
         y="0"
         sodipodi:role="line"
         id="tspan34">Symbol and the </tspan><tspan
         x="0 4.4819999 15.354 26.280001 37.007999 43.613998 53.189999 64.386002 74.610001 79.830002"
         y="19.007999"
         sodipodi:role="line"
         id="tspan36">logotype 3</tspan><tspan
         x="180 192.384 208.188 219.34801 223.866 234.12601 250.002 255.222 264.40201 274.62601 279.84601 290.142 305.94601 317.10599 321.62399 331.884 347.76001"
         y="0"
         sodipodi:role="line"
         id="tspan38">Amblem ve amblem </tspan></text>
<text
       transform="matrix(1,0,0,-1,392.6406,779.0848)"
       style="font-variant:normal;font-weight:500;font-stretch:normal;font-size:18px;font-family:'HelveticaNeueLT Com 65 Md';-inkscape-font-specification:HelveticaNeueLTCom-Md;writing-mode:lr-tb;fill:#231f20;fill-opacity:1;fill-rule:nonzero;stroke:none"
       id="text44"><tspan
         x="0 9.3059998 19.872 28.944 33.48 43.074001 47.627998 52.848"
         y="0"
         sodipodi:role="line"
         id="tspan42">yazısı 3</tspan></text>
<g
       id="g46"
       transform="translate(27.6406,810.9448)"><path
         d="M 0,0 V -780"
         style="fill:none;stroke:#231f20;stroke-width:0.5;stroke-linecap:butt;stroke-linejoin:miter;stroke-miterlimit:10;stroke-dasharray:none;stroke-opacity:1"
         id="path48"
         inkscape:connector-curvature="0" /></g><g
       id="g50"
       transform="translate(567.6387,810.9448)"><path
         d="M 0,0 V -780"
         style="fill:none;stroke:#231f20;stroke-width:0.5;stroke-linecap:butt;stroke-linejoin:miter;stroke-miterlimit:10;stroke-dasharray:none;stroke-opacity:1"
         id="path52"
         inkscape:connector-curvature="0" /></g><g
       id="g54"
       transform="translate(57.4502,363.5684)"><path
         d="M 0,0 V 9.643"
         style="fill:none;stroke:#231f20;stroke-width:0.25;stroke-linecap:butt;stroke-linejoin:miter;stroke-miterlimit:4;stroke-dasharray:none;stroke-opacity:1"
         id="path56"
         inkscape:connector-curvature="0" /></g><g
       id="g58"
       transform="translate(177.1416,363.5684)"><path
         d="M 0,0 V 9.643"
         style="fill:none;stroke:#231f20;stroke-width:0.25;stroke-linecap:butt;stroke-linejoin:miter;stroke-miterlimit:4;stroke-dasharray:none;stroke-opacity:1"
         id="path60"
         inkscape:connector-curvature="0" /></g><g
       id="g62"
       transform="translate(57.4346,368.3906)"><path
         d="M 0,0 H 119.707"
         style="fill:none;stroke:#231f20;stroke-width:0.25;stroke-linecap:butt;stroke-linejoin:miter;stroke-miterlimit:4;stroke-dasharray:none;stroke-opacity:1"
         id="path64"
         inkscape:connector-curvature="0" /></g><g
       id="g66"
       transform="translate(117.0342,371.6279)"><path
         d="m 0,0 -0.818,1.112 h 0.496 L 0.24,0.291 0.827,1.112 H 1.29 L 0.481,0.032 1.39,-1.235 H 0.896 L 0.24,-0.263 -0.414,-1.235 h -0.468 z"
         style="fill:#231f20;fill-opacity:1;fill-rule:nonzero;stroke:none"
         id="path68"
         inkscape:connector-curvature="0" /></g><g
       id="g70"
       transform="translate(182.0156,325.873)"><path
         d="M 0,0 H 9.644"
         style="fill:none;stroke:#231f20;stroke-width:0.25;stroke-linecap:butt;stroke-linejoin:miter;stroke-miterlimit:4;stroke-dasharray:none;stroke-opacity:1"
         id="path72"
         inkscape:connector-curvature="0" /></g><g
       id="g74"
       transform="translate(182.0156,266.0254)"><path
         d="M 0,0 H 9.644"
         style="fill:none;stroke:#231f20;stroke-width:0.25;stroke-linecap:butt;stroke-linejoin:miter;stroke-miterlimit:4;stroke-dasharray:none;stroke-opacity:1"
         id="path76"
         inkscape:connector-curvature="0" /></g><g
       id="g78"
       transform="translate(186.8379,325.8818)"><path
         d="M 0,0 V -59.856"
         style="fill:none;stroke:#231f20;stroke-width:0.25;stroke-linecap:butt;stroke-linejoin:miter;stroke-miterlimit:4;stroke-dasharray:none;stroke-opacity:1"
         id="path80"
         inkscape:connector-curvature="0" /></g><g
       id="g82"
       transform="translate(190.4102,298.1035)"><path
         d="m 0,0 -0.817,1.113 h 0.495 L 0.241,0.291 0.826,1.113 H 1.291 L 0.481,0.031 1.391,-1.236 H 0.896 l -0.655,0.972 -0.655,-0.972 h -0.467 z"
         style="fill:#231f20;fill-opacity:1;fill-rule:nonzero;stroke:none"
         id="path84"
         inkscape:connector-curvature="0" /></g><g
       id="g86"
       transform="translate(193.1631,300.1895)"><path
         d="M 0,0 H 0.332 L -1.014,-3.399 H -1.345 Z"
         style="fill:#231f20;fill-opacity:1;fill-rule:nonzero;stroke:none"
         id="path88"
         inkscape:connector-curvature="0" /></g><g
       id="g90"><g
         id="g92"
         clip-path="url(#clipPath96)"><g
           id="g98"
           transform="translate(193.6719,298.9482)"><path
             d="M 0,0 C -0.009,0.163 0.008,0.315 0.053,0.454 0.096,0.593 0.162,0.714 0.25,0.815 0.338,0.917 0.448,0.997 0.582,1.054 0.715,1.111 0.866,1.141 1.035,1.141 1.176,1.141 1.307,1.12 1.43,1.079 1.553,1.038 1.658,0.979 1.749,0.901 1.841,0.825 1.912,0.728 1.965,0.611 2.018,0.494 2.045,0.362 2.045,0.214 2.045,0.071 2.022,-0.055 1.979,-0.163 1.936,-0.272 1.877,-0.37 1.805,-0.456 1.731,-0.543 1.647,-0.62 1.555,-0.69 1.461,-0.761 1.363,-0.827 1.264,-0.891 1.163,-0.952 1.063,-1.011 0.964,-1.07 0.863,-1.129 0.771,-1.192 0.688,-1.259 0.604,-1.325 0.534,-1.397 0.475,-1.475 0.416,-1.552 0.377,-1.64 0.359,-1.739 h 1.655 v -0.342 h -2.106 c 0.016,0.191 0.051,0.353 0.106,0.488 0.054,0.135 0.122,0.252 0.203,0.353 0.08,0.1 0.171,0.186 0.272,0.261 0.101,0.074 0.208,0.146 0.324,0.216 0.136,0.084 0.255,0.162 0.359,0.234 0.103,0.071 0.189,0.143 0.258,0.216 0.068,0.073 0.118,0.151 0.154,0.236 0.034,0.084 0.051,0.183 0.051,0.295 0,0.088 -0.016,0.168 -0.049,0.238 C 1.553,0.528 1.508,0.589 1.451,0.641 1.396,0.692 1.33,0.731 1.255,0.759 1.179,0.786 1.098,0.8 1.013,0.8 0.901,0.8 0.805,0.776 0.725,0.729 0.645,0.683 0.579,0.62 0.527,0.545 0.476,0.47 0.438,0.384 0.416,0.288 0.393,0.193 0.383,0.097 0.387,0 Z"
             style="fill:#231f20;fill-opacity:1;fill-rule:nonzero;stroke:none"
             id="path100"
             inkscape:connector-curvature="0" /></g><g
           id="g102"
           transform="translate(194.6494,265.8525)"><path
             d="M 0,0 H 239.86"
             style="fill:#231f20;fill-opacity:1;fill-rule:nonzero;stroke:none"
             id="path104"
             inkscape:connector-curvature="0" /></g><g
           id="g106"
           transform="translate(202.6416,115.9453)"><path
             d="m 0,0 c 0,-46.944 -38.057,-85.001 -85.001,-85.001 -46.944,0 -85,38.057 -85,85.001 0,46.944 38.056,85 85,85 C -38.057,85 0,46.944 0,0 Z"
             style="fill:none;stroke:#c8cace;stroke-width:0.25;stroke-linecap:butt;stroke-linejoin:round;stroke-miterlimit:10;stroke-dasharray:none;stroke-opacity:1"
             id="path108"
             inkscape:connector-curvature="0" /></g><g
           id="g110"
           transform="translate(57.5381,176.0479)"><path
             d="M 0,0 120.206,-120.203 V 0.004 L 0,-120.199"
             style="fill:none;stroke:#c8cace;stroke-width:0.25;stroke-linecap:butt;stroke-linejoin:round;stroke-miterlimit:10;stroke-dasharray:none;stroke-opacity:1"
             id="path112"
             inkscape:connector-curvature="0" /></g><path
           d="M 202.642,30.944 H 32.641 v 170.001 h 170.001 z"
           style="fill:none;stroke:#c8cace;stroke-width:0.25;stroke-linecap:butt;stroke-linejoin:round;stroke-miterlimit:10;stroke-dasharray:none;stroke-opacity:1"
           id="path114"
           inkscape:connector-curvature="0" /><path
           d="M 177.744,55.842 H 57.538 v 120.206 h 120.206 z"
           style="fill:none;stroke:#c8cace;stroke-width:0.25;stroke-linecap:butt;stroke-linejoin:round;stroke-miterlimit:10;stroke-dasharray:none;stroke-opacity:1"
           id="path116"
           inkscape:connector-curvature="0" /><g
           id="g118"
           transform="translate(127.6582,68.7207)"><path
             d="m 0,0 c -1.019,0 -2.029,0.036 -3.032,0.1 19.293,6.962 33.084,25.431 33.084,47.125 0,21.692 -13.791,40.162 -33.084,47.124 1.003,0.063 2.013,0.099 3.032,0.099 26.081,0 47.224,-21.142 47.224,-47.223 C 47.224,21.143 26.081,0 0,0 m -67.258,47.225 c 0,26.081 21.143,47.223 47.224,47.223 1.018,0 2.029,-0.036 3.031,-0.099 C -36.295,87.387 -50.086,68.917 -50.086,47.225 -50.086,25.531 -36.295,7.062 -17.003,0.1 -18.005,0.036 -19.016,0 -20.034,0 -46.115,0 -67.258,21.143 -67.258,47.225 M -8.587,93.048 C 11.963,87.931 27.189,69.357 27.189,47.225 27.189,25.091 11.963,6.518 -8.587,1.4 Z M -11.448,1.4 c -20.549,5.118 -35.776,23.692 -35.776,45.825 0,22.132 15.227,40.706 35.776,45.823 z M 0,97.311 c -3.431,0 -6.78,-0.346 -10.018,-1.003 -3.236,0.657 -6.586,1.003 -10.016,1.003 -27.662,0 -50.086,-22.425 -50.086,-50.086 0,-27.662 22.424,-50.087 50.086,-50.087 3.43,0 6.78,0.345 10.016,1.003 3.238,-0.658 6.587,-1.003 10.018,-1.003 27.662,0 50.086,22.425 50.086,50.087 0,27.661 -22.424,50.086 -50.086,50.086"
             style="fill:#231f20;fill-opacity:1;fill-rule:nonzero;stroke:none"
             id="path120"
             inkscape:connector-curvature="0" /></g><g
           id="g122"
           transform="translate(80.4346,115.9453)"><path
             d="M 0,0 C 0,-22.133 15.227,-40.707 35.775,-45.824 V 45.823 C 15.227,40.706 0,22.133 0,0"
             style="fill:#ffffff;fill-opacity:1;fill-rule:nonzero;stroke:none"
             id="path124"
             inkscape:connector-curvature="0" /></g><g
           id="g126"
           transform="translate(154.8477,115.9453)"><path
             d="M 0,0 C 0,22.133 -15.227,40.706 -35.776,45.823 V -45.824 C -15.227,-40.707 0,-22.134 0,0"
             style="fill:#ee3423;fill-opacity:1;fill-rule:nonzero;stroke:none"
             id="path128"
             inkscape:connector-curvature="0" /></g><g
           id="g130"
           transform="translate(77.5723,115.9453)"><path
             d="m 0,0 c 0,21.692 13.791,40.162 33.083,47.124 -1.002,0.064 -2.012,0.1 -3.031,0.1 -26.081,0 -47.224,-21.143 -47.224,-47.224 0,-26.082 21.143,-47.225 47.224,-47.225 1.019,0 2.029,0.037 3.031,0.1 C 13.791,-40.163 0,-21.693 0,0"
             style="fill:#ee3423;fill-opacity:1;fill-rule:nonzero;stroke:none"
             id="path132"
             inkscape:connector-curvature="0" /></g><g
           id="g134"
           transform="translate(127.6582,163.1689)"><path
             d="m 0,0 c -1.019,0 -2.029,-0.036 -3.032,-0.1 19.293,-6.962 33.084,-25.431 33.084,-47.124 0,-21.693 -13.791,-40.163 -33.084,-47.125 1.003,-0.063 2.013,-0.099 3.032,-0.099 26.081,0 47.224,21.142 47.224,47.224 C 47.224,-21.143 26.081,0 0,0"
             style="fill:#ffffff;fill-opacity:1;fill-rule:nonzero;stroke:none"
             id="path136"
             inkscape:connector-curvature="0" /></g><g
           id="g138"
           transform="translate(259.6914,140.8213)"><path
             d="M 0,0 C 0.367,0.971 0.688,1.916 0.961,2.828 1.233,3.742 1.37,4.685 1.37,5.658 V 5.751 H 17.162 V 5.478 C 16.069,5.172 15.322,4.457 14.925,3.331 14.528,2.204 14.332,1.125 14.332,0.09 l 6.028,-44.822 c 0.12,-1.095 0.256,-2.068 0.411,-2.919 0.149,-0.854 0.392,-1.644 0.729,-2.374 0.333,-0.731 0.777,-1.431 1.324,-2.101 0.546,-0.671 1.277,-1.309 2.19,-1.917 v -0.273 H 7.395 v 0.273 c 1.584,0.487 2.604,1.354 3.06,2.602 0.453,1.247 0.684,2.663 0.684,4.247 L 5.934,-3.195 -14.512,-55.503 c -1.156,0.855 -2.117,1.674 -2.877,2.466 -0.759,0.789 -1.43,1.611 -2.007,2.463 -0.581,0.851 -1.113,1.765 -1.6,2.738 -0.486,0.974 -1.004,2.102 -1.55,3.38 l -17.346,41.168 -5.2,-39.252 c -0.183,-1.401 -0.337,-2.693 -0.456,-3.88 -0.125,-1.187 -0.107,-2.267 0.041,-3.241 0.154,-0.974 0.475,-1.825 0.961,-2.555 0.487,-0.732 1.276,-1.34 2.375,-1.827 v -0.273 H -57.05 v 0.273 c 1.882,1.704 3.116,3.638 3.693,5.798 0.581,2.158 1.05,4.487 1.418,6.981 l 5.204,38.25 c 0.059,0.608 0.149,1.293 0.272,2.055 0.12,0.76 0.12,1.521 0,2.282 -0.123,0.76 -0.409,1.505 -0.866,2.236 -0.456,0.731 -1.204,1.369 -2.236,1.919 V 5.751 H -33.59 V 5.658 c 0,-0.73 0.136,-1.429 0.409,-2.099 0.273,-0.671 0.564,-1.339 0.867,-2.007 l 17.163,-40.258 z"
             style="fill:#231f20;fill-opacity:1;fill-rule:nonzero;stroke:none"
             id="path140"
             inkscape:connector-curvature="0" /></g><g
           id="g142"
           transform="translate(301.8672,94.1738)"><path
             d="m 0,0 11.592,-1.097 c 3.044,-0.304 6.04,0.016 8.995,0.959 2.95,0.944 5.58,2.419 7.893,4.428 h 0.273 L 24.646,-7.669 h -38.064 v 0.273 c 1.152,0.425 2.023,1.125 2.601,2.1 0.576,0.975 0.972,2.055 1.185,3.241 0.215,1.188 0.321,2.419 0.321,3.698 v 3.469 34.414 3.469 c 0,1.278 -0.106,2.525 -0.321,3.742 -0.213,1.216 -0.609,2.314 -1.185,3.286 -0.578,0.975 -1.449,1.675 -2.601,2.102 v 0.273 h 29.211 2.283 c 0.731,0 1.397,0.151 2.007,0.456 h 0.273 V 42.173 h -0.273 c -1.399,1.643 -3.014,2.661 -4.837,3.058 -1.827,0.396 -3.805,0.595 -5.934,0.595 -1.584,0 -3.165,-0.033 -4.748,-0.093 C 2.98,45.672 1.46,45.49 0,45.186 v -16.98 h 10.861 c 0.731,0 1.448,0.015 2.148,0.048 0.7,0.029 1.323,0.195 1.87,0.5 h 0.273 v -9.676 h -0.273 c -0.362,0.668 -0.866,1.17 -1.507,1.507 -0.637,0.333 -1.323,0.577 -2.054,0.73 -0.73,0.15 -1.49,0.242 -2.279,0.274 -0.795,0.029 -1.555,0.044 -2.284,0.044 H 0 Z"
             style="fill:#231f20;fill-opacity:1;fill-rule:nonzero;stroke:none"
             id="path144"
             inkscape:connector-curvature="0" /></g><g
           id="g146"
           transform="translate(354.7871,98.3711)"><path
             d="m 0,0 c 0,-1.276 0.012,-2.48 0.046,-3.605 0.03,-1.127 0.196,-2.161 0.5,-3.104 0.303,-0.943 0.777,-1.81 1.418,-2.602 0.636,-0.79 1.562,-1.551 2.783,-2.282 v -0.273 h -18.076 v 0.273 c 1.157,0.425 2.007,1.125 2.557,2.1 0.546,0.974 0.926,2.055 1.14,3.241 0.213,1.188 0.32,2.419 0.32,3.697 v 3.47 40.714 h -8.035 c -1.947,0 -3.892,-0.275 -5.84,-0.822 -1.947,-0.549 -3.62,-1.494 -5.02,-2.831 h -0.273 l 3.193,10.862 h 0.272 c 0.547,-0.242 1.111,-0.379 1.692,-0.409 0.575,-0.032 1.17,-0.107 1.78,-0.228 h 36.332 c 0.789,0 1.536,0.029 2.237,0.091 0.696,0.06 1.353,0.241 1.958,0.546 h 0.274 l -2.92,-10.862 h -0.273 c -0.611,1.582 -1.69,2.587 -3.241,3.012 -1.549,0.427 -3.091,0.641 -4.611,0.641 l -8.213,0 z"
             style="fill:#231f20;fill-opacity:1;fill-rule:nonzero;stroke:none"
             id="path148"
             inkscape:connector-curvature="0" /></g><g
           id="g150"
           transform="translate(419.3486,92.5293)"><path
             d="m 0,0 c -1.032,-1.339 -2.236,-2.48 -3.603,-3.423 -1.37,-0.944 -2.847,-1.72 -4.426,-2.328 -1.584,-0.605 -3.228,-1.048 -4.931,-1.323 -1.704,-0.274 -3.348,-0.41 -4.932,-0.41 -3.044,0 -6.041,0.502 -8.991,1.505 -2.95,1.004 -5.46,2.631 -7.531,4.884 -1.217,1.338 -2.144,2.706 -2.783,4.109 -0.641,1.398 -1.098,2.858 -1.37,4.38 -0.275,1.523 -0.428,3.075 -0.457,4.656 -0.03,1.582 -0.043,3.195 -0.043,4.84 v 24.373 c 0,1.032 0.013,2.189 0.043,3.468 0.029,1.279 -0.061,2.51 -0.275,3.698 -0.212,1.186 -0.605,2.266 -1.185,3.239 -0.577,0.975 -1.444,1.675 -2.601,2.102 v 0.273 h 17.347 V 53.77 c -1.158,-0.427 -2.011,-1.127 -2.558,-2.102 -0.547,-0.973 -0.931,-2.053 -1.14,-3.239 -0.217,-1.188 -0.32,-2.419 -0.32,-3.698 V 41.263 16.89 c 0,-6.087 1.23,-10.576 3.697,-13.466 2.463,-2.891 6.071,-4.336 10.814,-4.336 2.557,0 5.038,0.532 7.441,1.597 2.405,1.066 4.368,2.662 5.888,4.792 0.974,1.338 1.537,2.647 1.69,3.926 C -0.076,10.682 0,12.142 0,13.785 v 27.478 3.468 c 0,1.279 -0.105,2.51 -0.319,3.698 -0.214,1.186 -0.594,2.266 -1.141,3.239 -0.546,0.975 -1.399,1.675 -2.558,2.102 v 0.273 h 17.347 l 0.09,-0.273 C 12.262,53.343 11.396,52.643 10.819,51.668 10.238,50.695 9.846,49.598 9.633,48.382 9.419,47.164 9.313,45.918 9.313,44.64 V 41.171 6.757 3.287 c 0,-1.278 0.106,-2.51 0.32,-3.697 0.213,-1.187 0.605,-2.267 1.186,-3.241 0.577,-0.975 1.443,-1.675 2.6,-2.1 V -6.024 L 0,-6.024 Z"
             style="fill:#231f20;fill-opacity:1;fill-rule:nonzero;stroke:none"
             id="path152"
             inkscape:connector-curvature="0" /></g><g
           id="g154"
           transform="translate(202.6416,295.9541)"><path
             d="m 0,0 c 0,-46.944 -38.057,-85.001 -85.001,-85.001 -46.944,0 -85,38.057 -85,85.001 0,46.944 38.056,85 85,85 C -38.057,85 0,46.944 0,0 Z"
             style="fill:none;stroke:#c8cace;stroke-width:0.25;stroke-linecap:butt;stroke-linejoin:round;stroke-miterlimit:10;stroke-dasharray:none;stroke-opacity:1"
             id="path156"
             inkscape:connector-curvature="0" /></g><g
           id="g158"
           transform="translate(57.5381,356.0566)"><path
             d="M 0,0 120.206,-120.203 V 0.004 L 0,-120.199"
             style="fill:none;stroke:#c8cace;stroke-width:0.25;stroke-linecap:butt;stroke-linejoin:round;stroke-miterlimit:10;stroke-dasharray:none;stroke-opacity:1"
             id="path160"
             inkscape:connector-curvature="0" /></g><path
           d="M 202.642,210.953 H 32.641 v 170.001 h 170.001 z"
           style="fill:none;stroke:#c8cace;stroke-width:0.25;stroke-linecap:butt;stroke-linejoin:round;stroke-miterlimit:10;stroke-dasharray:none;stroke-opacity:1"
           id="path162"
           inkscape:connector-curvature="0" /><path
           d="M 177.744,235.851 H 57.538 v 120.206 h 120.206 z"
           style="fill:none;stroke:#c8cace;stroke-width:0.25;stroke-linecap:butt;stroke-linejoin:round;stroke-miterlimit:10;stroke-dasharray:none;stroke-opacity:1"
           id="path164"
           inkscape:connector-curvature="0" /><g
           id="g166"
           transform="translate(127.6582,248.7295)"><path
             d="m 0,0 c -1.019,0 -2.029,0.036 -3.032,0.1 19.293,6.962 33.084,25.431 33.084,47.125 0,21.692 -13.791,40.162 -33.084,47.124 1.003,0.063 2.013,0.099 3.032,0.099 26.081,0 47.224,-21.142 47.224,-47.223 C 47.224,21.143 26.081,0 0,0 m -67.258,47.225 c 0,26.081 21.143,47.223 47.224,47.223 1.018,0 2.029,-0.036 3.031,-0.099 C -36.295,87.387 -50.086,68.917 -50.086,47.225 -50.086,25.531 -36.295,7.062 -17.003,0.1 -18.005,0.036 -19.016,0 -20.034,0 -46.115,0 -67.258,21.143 -67.258,47.225 M -8.587,93.048 C 11.963,87.931 27.189,69.357 27.189,47.225 27.189,25.091 11.963,6.518 -8.587,1.4 Z M -11.448,1.4 c -20.549,5.118 -35.776,23.692 -35.776,45.825 0,22.132 15.227,40.706 35.776,45.823 z M 0,97.311 c -3.431,0 -6.78,-0.346 -10.018,-1.003 -3.236,0.657 -6.586,1.003 -10.016,1.003 -27.662,0 -50.086,-22.424 -50.086,-50.086 0,-27.662 22.424,-50.087 50.086,-50.087 3.43,0 6.78,0.345 10.016,1.003 3.238,-0.658 6.587,-1.003 10.018,-1.003 27.662,0 50.086,22.425 50.086,50.087 0,27.662 -22.424,50.086 -50.086,50.086"
             style="fill:#231f20;fill-opacity:1;fill-rule:nonzero;stroke:none"
             id="path168"
             inkscape:connector-curvature="0" /></g><g
           id="g170"
           transform="translate(80.4346,295.9541)"><path
             d="M 0,0 C 0,-22.133 15.227,-40.707 35.775,-45.824 V 45.823 C 15.227,40.706 0,22.133 0,0"
             style="fill:#ffffff;fill-opacity:1;fill-rule:nonzero;stroke:none"
             id="path172"
             inkscape:connector-curvature="0" /></g><g
           id="g174"
           transform="translate(154.8477,295.9541)"><path
             d="M 0,0 C 0,22.133 -15.227,40.706 -35.776,45.823 V -45.824 C -15.227,-40.707 0,-22.134 0,0"
             style="fill:#ee3423;fill-opacity:1;fill-rule:nonzero;stroke:none"
             id="path176"
             inkscape:connector-curvature="0" /></g><g
           id="g178"
           transform="translate(77.5723,295.9541)"><path
             d="m 0,0 c 0,21.692 13.791,40.162 33.083,47.124 -1.002,0.064 -2.012,0.1 -3.031,0.1 -26.081,0 -47.224,-21.143 -47.224,-47.224 0,-26.082 21.143,-47.225 47.224,-47.225 1.019,0 2.029,0.037 3.031,0.1 C 13.791,-40.163 0,-21.693 0,0"
             style="fill:#ee3423;fill-opacity:1;fill-rule:nonzero;stroke:none"
             id="path180"
             inkscape:connector-curvature="0" /></g><g
           id="g182"
           transform="translate(127.6582,343.1777)"><path
             d="m 0,0 c -1.019,0 -2.029,-0.036 -3.032,-0.1 19.293,-6.962 33.084,-25.431 33.084,-47.124 0,-21.693 -13.791,-40.163 -33.084,-47.125 1.003,-0.063 2.013,-0.099 3.032,-0.099 26.081,0 47.224,21.142 47.224,47.224 C 47.224,-21.143 26.081,0 0,0"
             style="fill:#ffffff;fill-opacity:1;fill-rule:nonzero;stroke:none"
             id="path184"
             inkscape:connector-curvature="0" /></g><g
           id="g186"
           transform="translate(236.2832,320.9785)"><path
             d="m 0,0 c -3.536,0 -6.736,-0.61 -9.602,-1.827 -2.864,-1.221 -5.301,-2.897 -7.31,-5.03 -2.014,-2.134 -3.566,-4.663 -4.664,-7.587 -1.095,-2.924 -1.647,-6.125 -1.647,-9.598 0,-3.233 0.552,-6.387 1.647,-9.462 1.098,-3.079 2.65,-5.85 4.664,-8.32 2.009,-2.467 4.464,-4.449 7.358,-5.941 2.895,-1.495 6.14,-2.24 9.735,-2.24 3.476,0 6.615,0.594 9.417,1.782 2.802,1.189 5.195,2.848 7.176,4.982 1.98,2.133 3.505,4.647 4.571,7.541 1.064,2.895 1.599,6.048 1.599,9.462 0,3.352 -0.517,6.596 -1.552,9.737 -1.038,3.139 -2.545,5.926 -4.526,8.365 -1.981,2.438 -4.388,4.402 -7.222,5.897 C 6.809,-0.747 3.593,0 0,0 m 0.639,6.583 c 4.814,0 9.218,-0.839 13.212,-2.514 3.989,-1.678 7.434,-3.932 10.329,-6.766 2.894,-2.833 5.147,-6.141 6.763,-9.919 1.617,-3.78 2.424,-7.711 2.424,-11.792 0,-4.695 -0.902,-9.006 -2.697,-12.936 -1.798,-3.931 -4.237,-7.314 -7.314,-10.147 -3.077,-2.835 -6.641,-5.061 -10.694,-6.674 -4.054,-1.614 -8.367,-2.423 -12.938,-2.423 -4.511,0 -8.79,0.776 -12.844,2.33 -4.053,1.554 -7.602,3.718 -10.65,6.493 -3.048,2.77 -5.456,6.108 -7.221,10.009 -1.771,3.9 -2.651,8.196 -2.651,12.891 0,4.326 0.88,8.425 2.651,12.296 1.765,3.869 4.189,7.236 7.268,10.1 3.077,2.865 6.704,5.12 10.876,6.766 4.176,1.643 8.672,2.407 13.486,2.286"
             style="fill:#231f20;fill-opacity:1;fill-rule:nonzero;stroke:none"
             id="path188"
             inkscape:connector-curvature="0" /></g><g
           id="g190"
           transform="translate(285.873,273.0742)"><path
             d="m 0,0 c 2.071,-0.426 4.297,-0.64 6.674,-0.64 3.412,0 6.672,0.458 9.78,1.371 3.108,0.915 5.853,2.301 8.231,4.161 2.377,1.859 4.262,4.234 5.667,7.131 1.4,2.894 2.101,6.322 2.101,10.285 0,8.044 -2.117,14.062 -6.353,18.055 -4.238,3.991 -10.193,5.988 -17.871,5.988 -2.623,0 -5.366,-0.336 -8.229,-1.006 z m -9.325,40.408 c 0,1.036 0.014,2.193 0.046,3.473 0.029,1.281 -0.061,2.515 -0.275,3.703 -0.214,1.189 -0.609,2.24 -1.188,3.153 -0.58,0.915 -1.45,1.554 -2.604,1.923 v 0.273 H 9.049 c 5.181,0 9.859,-0.687 14.034,-2.057 4.175,-1.372 7.724,-3.337 10.65,-5.897 2.926,-2.56 5.18,-5.653 6.766,-9.278 1.582,-3.628 2.378,-7.726 2.378,-12.297 0,-4.51 -0.825,-8.638 -2.47,-12.388 C 38.761,7.27 36.429,4.039 33.415,1.325 30.396,-1.385 26.785,-3.488 22.581,-4.98 18.373,-6.475 13.713,-7.222 8.593,-7.222 h -21.939 v 0.275 c 1.154,0.791 2.009,1.645 2.559,2.56 0.549,0.913 0.928,1.92 1.143,3.017 0.212,1.097 0.319,2.253 0.319,3.474 v 3.839 z"
             style="fill:#231f20;fill-opacity:1;fill-rule:nonzero;stroke:none"
             id="path192"
             inkscape:connector-curvature="0" /></g><g
           id="g194"
           transform="translate(356.3809,277.7373)"><path
             d="m 0,0 c 0,-1.279 0.013,-2.484 0.045,-3.611 0.029,-1.129 0.196,-2.163 0.503,-3.109 0.303,-0.945 0.777,-1.812 1.416,-2.604 0.64,-0.792 1.567,-1.555 2.79,-2.286 v -0.275 h -18.103 v 0.275 c 1.16,0.425 2.012,1.127 2.562,2.102 0.547,0.976 0.927,2.057 1.141,3.246 0.213,1.189 0.321,2.422 0.321,3.702 v 3.475 40.773 h -8.047 c -1.949,0 -3.899,-0.274 -5.849,-0.824 -1.95,-0.549 -3.625,-1.494 -5.027,-2.834 h -0.276 l 3.2,10.878 h 0.273 c 0.55,-0.243 1.113,-0.38 1.694,-0.409 0.578,-0.032 1.171,-0.107 1.782,-0.229 H 14.81 c 0.791,0 1.537,0.03 2.238,0.091 0.7,0.06 1.357,0.243 1.964,0.547 h 0.276 L 16.362,38.03 h -0.274 c -0.609,1.584 -1.691,2.591 -3.245,3.017 -1.554,0.427 -3.096,0.641 -4.617,0.641 H 0 Z"
             style="fill:#231f20;fill-opacity:1;fill-rule:nonzero;stroke:none"
             id="path196"
             inkscape:connector-curvature="0" /></g><g
           id="g198"
           transform="translate(422.4697,337.252)"><path
             d="m 0,0 c 0,-1.707 -0.551,-3.094 -1.645,-4.161 -1.097,-1.067 -2.468,-1.598 -4.115,-1.598 -1.584,0 -2.896,0.607 -3.931,1.827 -1.037,1.219 -1.553,2.559 -1.553,4.024 0,1.643 0.578,2.999 1.737,4.068 1.156,1.065 2.527,1.599 4.113,1.599 1.584,0 2.879,-0.595 3.886,-1.783 C -0.503,2.788 0,1.462 0,0 m -16.823,-0.093 c 0,-1.646 -0.546,-3.001 -1.644,-4.068 -1.096,-1.067 -2.469,-1.598 -4.115,-1.598 -1.522,0 -2.817,0.594 -3.884,1.782 -1.067,1.187 -1.6,2.543 -1.6,4.069 0,1.643 0.578,2.999 1.737,4.068 1.156,1.065 2.558,1.599 4.205,1.599 1.521,0 2.788,-0.61 3.795,-1.828 1.007,-1.22 1.506,-2.561 1.506,-4.024 M 0.276,-65.366 c -1.041,-1.341 -2.241,-2.485 -3.613,-3.428 -1.37,-0.946 -2.849,-1.722 -4.434,-2.331 -1.586,-0.607 -3.231,-1.05 -4.936,-1.325 -1.708,-0.275 -3.353,-0.411 -4.937,-0.411 -3.048,0 -6.048,0.503 -9.004,1.507 -2.957,1.006 -5.472,2.635 -7.541,4.891 -1.221,1.341 -2.151,2.71 -2.79,4.115 -0.64,1.401 -1.097,2.863 -1.371,4.387 -0.273,1.525 -0.427,3.078 -0.457,4.662 -0.032,1.584 -0.047,3.2 -0.047,4.847 v 24.408 c 0,1.035 0.015,2.193 0.047,3.475 0.03,1.28 -0.061,2.513 -0.274,3.703 -0.214,1.187 -0.61,2.269 -1.189,3.244 -0.581,0.975 -1.449,1.677 -2.605,2.104 v 0.273 h 17.369 v -0.273 c -1.158,-0.427 -2.012,-1.129 -2.56,-2.104 -0.548,-0.975 -0.928,-2.057 -1.143,-3.244 -0.214,-1.19 -0.32,-2.423 -0.32,-3.703 v -3.475 -24.408 c 0,-6.095 1.235,-10.59 3.703,-13.486 2.469,-2.894 6.079,-4.34 10.834,-4.34 2.56,0 5.04,0.531 7.449,1.598 2.407,1.067 4.371,2.665 5.898,4.799 0.973,1.341 1.538,2.651 1.69,3.932 0.153,1.28 0.231,2.743 0.231,4.388 v 27.517 3.475 c 0,1.28 -0.107,2.513 -0.322,3.703 -0.214,1.187 -0.594,2.269 -1.142,3.244 -0.55,0.975 -1.403,1.677 -2.56,2.104 v 0.273 h 17.369 l 0.092,-0.273 c -1.158,-0.427 -2.026,-1.129 -2.606,-2.104 -0.58,-0.975 -0.977,-2.073 -1.188,-3.292 C 9.705,-18.133 9.6,-19.381 9.6,-20.661 v -3.474 -34.465 -3.474 c 0,-1.28 0.105,-2.514 0.319,-3.702 0.211,-1.19 0.608,-2.271 1.188,-3.246 0.58,-0.976 1.448,-1.677 2.606,-2.103 v -0.274 H 0.276 Z"
             style="fill:#231f20;fill-opacity:1;fill-rule:nonzero;stroke:none"
             id="path200"
             inkscape:connector-curvature="0" /></g><g
           id="g202"
           transform="translate(273.5957,413.46)"><path
             d="m 0,0 c 0.153,0.402 0.284,0.795 0.398,1.172 0.115,0.38 0.171,0.77 0.171,1.175 V 2.386 H 7.114 V 2.27 C 6.661,2.142 6.352,1.849 6.188,1.38 6.022,0.914 5.941,0.465 5.941,0.039 L 8.438,-18.54 c 0.051,-0.454 0.108,-0.858 0.171,-1.21 0.062,-0.354 0.163,-0.685 0.302,-0.984 0.138,-0.303 0.322,-0.593 0.55,-0.871 0.227,-0.277 0.528,-0.543 0.907,-0.794 v -0.116 H 3.065 v 0.116 c 0.657,0.2 1.081,0.56 1.269,1.076 0.186,0.519 0.284,1.106 0.284,1.76 L 2.459,-1.325 -6.014,-23.006 c -0.48,0.355 -0.878,0.693 -1.195,1.023 -0.312,0.327 -0.591,0.668 -0.829,1.022 -0.241,0.353 -0.463,0.731 -0.664,1.135 -0.201,0.401 -0.417,0.869 -0.643,1.401 l -7.189,17.061 -2.156,-16.266 c -0.076,-0.585 -0.141,-1.12 -0.189,-1.609 -0.052,-0.493 -0.045,-0.941 0.018,-1.344 0.063,-0.404 0.197,-0.758 0.398,-1.06 0.201,-0.305 0.529,-0.556 0.984,-0.756 v -0.116 h -6.167 v 0.116 c 0.781,0.705 1.292,1.506 1.531,2.402 0.241,0.895 0.435,1.86 0.588,2.894 l 2.157,15.852 c 0.023,0.255 0.061,0.539 0.113,0.852 0.048,0.318 0.048,0.63 0,0.949 -0.052,0.314 -0.171,0.622 -0.359,0.926 -0.19,0.303 -0.499,0.567 -0.928,0.794 v 0.116 h 6.621 V 2.347 c 0,-0.304 0.056,-0.592 0.17,-0.871 0.113,-0.278 0.233,-0.554 0.358,-0.832 l 7.117,-16.687 z"
             style="fill:#231f20;fill-opacity:1;fill-rule:nonzero;stroke:none"
             id="path204"
             inkscape:connector-curvature="0" /></g><g
           id="g206"
           transform="translate(291.0771,394.127)"><path
             d="m 0,0 4.804,-0.454 c 1.261,-0.128 2.505,0.005 3.73,0.397 1.222,0.389 2.314,1 3.272,1.833 h 0.112 L 10.217,-3.182 H -5.562 v 0.116 c 0.478,0.174 0.839,0.466 1.078,0.871 0.24,0.403 0.404,0.851 0.493,1.342 0.087,0.491 0.132,1.001 0.132,1.533 v 1.437 14.265 1.438 c 0,0.529 -0.045,1.046 -0.132,1.552 -0.089,0.503 -0.253,0.957 -0.493,1.36 -0.239,0.404 -0.6,0.694 -1.078,0.871 v 0.116 H 6.547 7.493 c 0.304,0 0.578,0.059 0.832,0.187 H 8.438 V 17.479 H 8.325 C 7.744,18.159 7.076,18.582 6.32,18.746 5.562,18.911 4.743,18.991 3.859,18.991 3.203,18.991 2.548,18.978 1.892,18.954 1.236,18.929 0.605,18.853 0,18.727 v -7.038 h 4.501 c 0.303,0 0.602,0.006 0.892,0.02 0.289,0.013 0.548,0.082 0.775,0.207 H 6.281 V 7.904 H 6.168 C 6.017,8.184 5.808,8.391 5.542,8.532 5.277,8.669 4.995,8.769 4.691,8.834 4.389,8.895 4.073,8.934 3.748,8.947 3.417,8.959 3.103,8.965 2.799,8.965 H 0 Z"
             style="fill:#231f20;fill-opacity:1;fill-rule:nonzero;stroke:none"
             id="path208"
             inkscape:connector-curvature="0" /></g><g
           id="g210"
           transform="translate(312.8457,395.8662)"><path
             d="M 0,0 C 0,-0.529 0.005,-1.03 0.02,-1.494 0.033,-1.963 0.1,-2.39 0.226,-2.782 0.353,-3.171 0.549,-3.531 0.813,-3.858 1.077,-4.186 1.462,-4.503 1.968,-4.806 v -0.115 h -7.492 v 0.115 c 0.479,0.175 0.832,0.467 1.058,0.871 0.228,0.404 0.385,0.852 0.473,1.343 0.089,0.49 0.134,1.001 0.134,1.532 v 1.438 16.874 h -3.33 c -0.808,0 -1.614,-0.112 -2.421,-0.341 -0.809,-0.225 -1.5,-0.616 -2.082,-1.171 h -0.113 l 1.326,4.501 h 0.112 c 0.226,-0.1 0.46,-0.157 0.7,-0.168 0.238,-0.014 0.485,-0.046 0.737,-0.094 H 6.131 c 0.327,0 0.635,0.011 0.926,0.038 0.289,0.022 0.561,0.1 0.812,0.224 H 7.981 L 6.771,15.74 H 6.658 C 6.405,16.394 5.957,16.813 5.316,16.987 4.673,17.164 4.034,17.252 3.404,17.252 H 0 Z"
             style="fill:#231f20;fill-opacity:1;fill-rule:nonzero;stroke:none"
             id="path212"
             inkscape:connector-curvature="0" /></g><g
           id="g214"
           transform="translate(339.7705,393.4443)"><path
             d="m 0,0 c -0.427,-0.555 -0.926,-1.028 -1.492,-1.419 -0.57,-0.393 -1.181,-0.714 -1.836,-0.965 -0.655,-0.252 -1.337,-0.434 -2.042,-0.55 -0.707,-0.111 -1.39,-0.17 -2.044,-0.17 -1.262,0 -2.503,0.208 -3.728,0.625 -1.222,0.417 -2.261,1.09 -3.122,2.025 -0.503,0.555 -0.888,1.122 -1.153,1.702 -0.265,0.58 -0.455,1.186 -0.567,1.816 -0.113,0.631 -0.177,1.275 -0.188,1.932 -0.013,0.655 -0.018,1.321 -0.018,2.003 v 10.103 c 0,0.429 0.005,0.908 0.018,1.438 0.011,0.53 -0.027,1.039 -0.116,1.534 -0.088,0.491 -0.251,0.938 -0.491,1.341 -0.239,0.403 -0.598,0.693 -1.077,0.87 v 0.116 h 7.188 v -0.116 c -0.478,-0.177 -0.832,-0.467 -1.059,-0.87 -0.226,-0.403 -0.385,-0.85 -0.472,-1.341 -0.092,-0.495 -0.133,-1.004 -0.133,-1.534 V 17.102 6.999 c 0,-2.522 0.509,-4.382 1.531,-5.582 1.022,-1.194 2.518,-1.797 4.483,-1.797 1.061,0 2.088,0.222 3.085,0.663 0.997,0.443 1.811,1.105 2.442,1.987 0.4,0.553 0.636,1.098 0.697,1.626 C -0.03,4.426 0,5.033 0,5.714 v 11.388 1.438 c 0,0.53 -0.043,1.039 -0.131,1.534 -0.089,0.491 -0.246,0.938 -0.473,1.341 -0.227,0.403 -0.581,0.693 -1.061,0.87 v 0.116 H 5.526 L 5.564,22.285 C 5.084,22.108 4.725,21.818 4.484,21.415 4.245,21.012 4.083,20.558 3.994,20.055 3.905,19.549 3.861,19.031 3.861,18.503 V 17.064 2.8 1.362 c 0,-0.531 0.044,-1.042 0.133,-1.532 0.089,-0.491 0.251,-0.939 0.49,-1.343 0.241,-0.404 0.6,-0.696 1.08,-0.871 v -0.115 l -5.564,0 z"
             style="fill:#231f20;fill-opacity:1;fill-rule:nonzero;stroke:none"
             id="path216"
             inkscape:connector-curvature="0" /></g><g
           id="g218"
           transform="translate(382.6406,475.9458)"><path
             d="M 0,0 C 0,-46.945 -38.056,-85 -84.999,-85 -131.943,-85 -170,-46.945 -170,0 c 0,46.944 38.057,85 85.001,85 C -38.056,85 0,46.944 0,0 Z"
             style="fill:none;stroke:#c8cace;stroke-width:0.25;stroke-linecap:butt;stroke-linejoin:round;stroke-miterlimit:10;stroke-dasharray:none;stroke-opacity:1"
             id="path220"
             inkscape:connector-curvature="0" /></g><g
           id="g222"
           transform="translate(237.5381,536.0488)"><path
             d="M 0,0 120.207,-120.202 V 0.003 L 0,-120.198"
             style="fill:none;stroke:#c8cace;stroke-width:0.25;stroke-linecap:butt;stroke-linejoin:round;stroke-miterlimit:10;stroke-dasharray:none;stroke-opacity:1"
             id="path224"
             inkscape:connector-curvature="0" /></g><path
           d="m 382.641,390.945 h -170 v 170 h 170 z"
           style="fill:none;stroke:#c8cace;stroke-width:0.25;stroke-linecap:butt;stroke-linejoin:round;stroke-miterlimit:10;stroke-dasharray:none;stroke-opacity:1"
           id="path226"
           inkscape:connector-curvature="0" /><path
           d="M 357.744,415.846 H 237.538 v 120.203 h 120.206 z"
           style="fill:none;stroke:#c8cace;stroke-width:0.25;stroke-linecap:butt;stroke-linejoin:round;stroke-miterlimit:10;stroke-dasharray:none;stroke-opacity:1"
           id="path228"
           inkscape:connector-curvature="0" /><g
           id="g230"
           transform="translate(307.6582,428.7207)"><path
             d="m 0,0 c -1.019,0 -2.029,0.038 -3.031,0.101 19.291,6.962 33.082,25.432 33.082,47.124 0,21.693 -13.791,40.163 -33.082,47.125 1.002,0.063 2.012,0.099 3.031,0.099 26.081,0 47.223,-21.142 47.223,-47.224 C 47.223,21.146 26.081,0 0,0 m -67.257,47.225 c 0,26.082 21.142,47.224 47.223,47.224 1.019,0 2.03,-0.036 3.031,-0.099 -19.292,-6.962 -33.083,-25.432 -33.083,-47.125 0,-21.692 13.791,-40.162 33.083,-47.124 C -18.004,0.038 -19.015,0 -20.034,0 -46.115,0 -67.257,21.146 -67.257,47.225 M -8.586,93.048 C 11.963,87.932 27.19,69.358 27.19,47.225 27.19,25.093 11.963,6.519 -8.586,1.403 Z M -11.448,1.403 c -20.548,5.116 -35.776,23.69 -35.776,45.822 0,22.133 15.228,40.707 35.776,45.823 z M 0,97.312 c -3.432,0 -6.779,-0.346 -10.017,-1.002 -3.235,0.656 -6.587,1.002 -10.017,1.002 -27.661,0 -50.086,-22.424 -50.086,-50.087 0,-27.662 22.425,-50.084 50.086,-50.084 3.43,0 6.782,0.342 10.017,1.001 3.238,-0.659 6.585,-1.001 10.017,-1.001 27.662,0 50.086,22.422 50.086,50.084 0,27.663 -22.424,50.087 -50.086,50.087"
             style="fill:#231f20;fill-opacity:1;fill-rule:nonzero;stroke:none"
             id="path232"
             inkscape:connector-curvature="0" /></g><g
           id="g234"
           transform="translate(260.4346,475.9458)"><path
             d="M 0,0 C 0,-22.132 15.228,-40.706 35.775,-45.822 V 45.823 C 15.228,40.707 0,22.133 0,0"
             style="fill:#ffffff;fill-opacity:1;fill-rule:nonzero;stroke:none"
             id="path236"
             inkscape:connector-curvature="0" /></g><g
           id="g238"
           transform="translate(334.8486,475.9458)"><path
             d="M 0,0 C 0,22.133 -15.228,40.707 -35.776,45.823 V -45.822 C -15.228,-40.706 0,-22.132 0,0"
             style="fill:#ee3423;fill-opacity:1;fill-rule:nonzero;stroke:none"
             id="path240"
             inkscape:connector-curvature="0" /></g><g
           id="g242"
           transform="translate(257.5723,475.9458)"><path
             d="m 0,0 c 0,21.693 13.791,40.163 33.083,47.125 -1.002,0.063 -2.012,0.099 -3.031,0.099 -26.081,0 -47.223,-21.142 -47.223,-47.224 0,-26.08 21.142,-47.225 47.223,-47.225 1.019,0 2.029,0.038 3.031,0.1 C 13.791,-40.162 0,-21.692 0,0"
             style="fill:#ee3423;fill-opacity:1;fill-rule:nonzero;stroke:none"
             id="path244"
             inkscape:connector-curvature="0" /></g><g
           id="g246"
           transform="translate(307.6582,523.1699)"><path
             d="m 0,0 c -1.019,0 -2.029,-0.037 -3.031,-0.1 19.291,-6.961 33.082,-25.431 33.082,-47.124 0,-21.693 -13.791,-40.162 -33.082,-47.125 1.002,-0.062 2.012,-0.1 3.031,-0.1 26.081,0 47.223,21.145 47.223,47.225 C 47.223,-21.142 26.081,0 0,0"
             style="fill:#ffffff;fill-opacity:1;fill-rule:nonzero;stroke:none"
             id="path248"
             inkscape:connector-curvature="0" /></g><g
           id="g250"
           transform="translate(84.4326,413.7656)"><path
             d="m 0,0 c -1.463,0 -2.788,-0.25 -3.974,-0.755 -1.186,-0.502 -2.195,-1.199 -3.028,-2.082 -0.834,-0.884 -1.475,-1.931 -1.931,-3.14 -0.452,-1.211 -0.681,-2.537 -0.681,-3.975 0,-1.337 0.229,-2.644 0.681,-3.919 0.456,-1.273 1.097,-2.419 1.931,-3.443 0.833,-1.021 1.849,-1.842 3.048,-2.46 1.198,-0.618 2.541,-0.927 4.03,-0.927 1.44,0 2.738,0.247 3.899,0.738 1.16,0.491 2.15,1.182 2.969,2.063 0.821,0.883 1.451,1.923 1.893,3.122 0.441,1.201 0.661,2.504 0.661,3.918 0,1.387 -0.212,2.73 -0.641,4.031 -0.429,1.3 -1.053,2.451 -1.873,3.463 C 6.162,-2.357 5.166,-1.545 3.993,-0.925 2.818,-0.308 1.488,0 0,0 m 0.265,2.728 c 1.993,0 3.816,-0.347 5.469,-1.043 1.652,-0.696 3.079,-1.625 4.276,-2.798 1.199,-1.174 2.133,-2.543 2.802,-4.109 0.669,-1.564 1.002,-3.192 1.002,-4.881 0,-1.944 -0.372,-3.729 -1.116,-5.354 -0.745,-1.629 -1.754,-3.031 -3.026,-4.201 -1.277,-1.176 -2.75,-2.097 -4.429,-2.765 -1.679,-0.668 -3.465,-1.002 -5.356,-1.002 -1.868,0 -3.64,0.321 -5.319,0.963 -1.676,0.645 -3.146,1.541 -4.409,2.688 -1.261,1.149 -2.258,2.528 -2.988,4.144 -0.734,1.614 -1.098,3.393 -1.098,5.338 0,1.79 0.364,3.487 1.098,5.09 0.73,1.604 1.734,2.995 3.009,4.182 1.273,1.185 2.773,2.12 4.502,2.8 1.728,0.681 3.59,0.996 5.583,0.948"
             style="fill:#231f20;fill-opacity:1;fill-rule:nonzero;stroke:none"
             id="path252"
             inkscape:connector-curvature="0" /></g><g
           id="g254"
           transform="translate(103.8711,393.9336)"><path
             d="m 0,0 c 0.857,-0.176 1.778,-0.262 2.764,-0.262 1.412,0 2.76,0.188 4.049,0.567 1.285,0.378 2.421,0.951 3.405,1.721 0.986,0.772 1.766,1.753 2.347,2.952 0.58,1.199 0.87,2.617 0.87,4.258 0,3.332 -0.877,5.823 -2.63,7.476 C 9.052,18.364 6.586,19.19 3.407,19.19 2.322,19.19 1.186,19.051 0,18.774 Z m -3.86,16.73 c 0,0.429 0.006,0.909 0.018,1.438 0.013,0.53 -0.025,1.042 -0.113,1.533 -0.09,0.493 -0.253,0.927 -0.493,1.307 -0.24,0.378 -0.6,0.64 -1.076,0.795 v 0.113 h 9.27 c 2.146,0 4.081,-0.285 5.811,-0.852 1.728,-0.569 3.197,-1.382 4.409,-2.442 1.211,-1.059 2.145,-2.338 2.8,-3.841 0.655,-1.502 0.986,-3.198 0.986,-5.091 0,-1.866 -0.342,-3.575 -1.024,-5.127 C 16.047,3.01 15.081,1.672 13.834,0.551 12.585,-0.571 11.09,-1.441 9.349,-2.06 7.606,-2.681 5.679,-2.988 3.559,-2.988 h -9.083 v 0.113 c 0.476,0.327 0.832,0.682 1.058,1.059 0.228,0.381 0.384,0.796 0.473,1.251 0.088,0.452 0.133,0.932 0.133,1.437 v 1.589 z"
             style="fill:#231f20;fill-opacity:1;fill-rule:nonzero;stroke:none"
             id="path256"
             inkscape:connector-curvature="0" /></g><g
           id="g258"
           transform="translate(132.2637,395.8652)"><path
             d="M 0,0 C 0,-0.528 0.005,-1.028 0.018,-1.494 0.03,-1.963 0.1,-2.389 0.227,-2.783 0.353,-3.172 0.548,-3.531 0.813,-3.86 1.078,-4.188 1.462,-4.504 1.967,-4.807 V -4.92 h -7.494 v 0.113 c 0.479,0.175 0.833,0.467 1.06,0.87 0.228,0.406 0.384,0.853 0.474,1.345 0.088,0.49 0.131,1.002 0.131,1.532 v 1.44 16.879 h -3.33 c -0.807,0 -1.615,-0.113 -2.421,-0.341 -0.809,-0.228 -1.502,-0.617 -2.082,-1.172 h -0.116 l 1.327,4.503 h 0.111 c 0.229,-0.1 0.462,-0.156 0.701,-0.17 0.239,-0.014 0.485,-0.044 0.739,-0.095 H 6.13 c 0.328,0 0.637,0.012 0.927,0.038 0.289,0.026 0.562,0.1 0.814,0.227 H 7.985 L 6.773,15.746 H 6.66 C 6.407,16.398 5.96,16.817 5.317,16.994 4.673,17.17 4.035,17.259 3.405,17.259 H 0 Z"
             style="fill:#231f20;fill-opacity:1;fill-rule:nonzero;stroke:none"
             id="path260"
             inkscape:connector-curvature="0" /></g><g
           id="g262"
           transform="translate(159.0967,420.5039)"><path
             d="m 0,0 c 0,-0.707 -0.225,-1.281 -0.679,-1.722 -0.453,-0.44 -1.022,-0.662 -1.702,-0.662 -0.657,0 -1.2,0.253 -1.629,0.756 -0.429,0.506 -0.643,1.062 -0.643,1.665 0,0.682 0.239,1.244 0.719,1.685 0.479,0.442 1.048,0.662 1.703,0.662 0.656,0 1.192,-0.245 1.611,-0.737 C -0.205,1.155 0,0.605 0,0 m -6.962,-0.037 c 0,-0.681 -0.226,-1.244 -0.682,-1.685 -0.452,-0.44 -1.022,-0.662 -1.703,-0.662 -0.63,0 -1.167,0.247 -1.608,0.738 -0.441,0.492 -0.661,1.055 -0.661,1.683 0,0.682 0.238,1.244 0.718,1.685 0.478,0.442 1.059,0.662 1.741,0.662 0.63,0 1.153,-0.251 1.571,-0.756 0.415,-0.503 0.624,-1.062 0.624,-1.665 m 7.078,-27.024 c -0.429,-0.554 -0.927,-1.029 -1.496,-1.418 -0.566,-0.393 -1.18,-0.713 -1.835,-0.966 -0.656,-0.251 -1.338,-0.437 -2.045,-0.548 -0.705,-0.114 -1.386,-0.17 -2.043,-0.17 -1.261,0 -2.504,0.207 -3.726,0.624 -1.225,0.415 -2.266,1.089 -3.123,2.023 -0.506,0.556 -0.89,1.124 -1.155,1.704 -0.266,0.58 -0.454,1.186 -0.569,1.816 -0.111,0.631 -0.176,1.275 -0.187,1.932 -0.014,0.656 -0.02,1.324 -0.02,2.004 v 10.106 c 0,0.429 0.006,0.909 0.02,1.44 0.011,0.531 -0.026,1.039 -0.114,1.532 -0.089,0.491 -0.254,0.94 -0.493,1.343 -0.239,0.404 -0.599,0.694 -1.078,0.871 v 0.114 h 7.19 v -0.114 c -0.478,-0.177 -0.832,-0.467 -1.058,-0.871 -0.229,-0.403 -0.386,-0.852 -0.475,-1.343 -0.088,-0.493 -0.132,-1.001 -0.132,-1.532 v -1.44 -10.106 c 0,-2.522 0.512,-4.383 1.534,-5.581 1.021,-1.199 2.515,-1.798 4.485,-1.798 1.059,0 2.087,0.221 3.084,0.662 0.995,0.444 1.809,1.102 2.441,1.986 0.403,0.557 0.637,1.1 0.7,1.63 0.065,0.529 0.095,1.136 0.095,1.816 v 11.391 1.44 c 0,0.531 -0.045,1.039 -0.133,1.532 -0.088,0.491 -0.245,0.94 -0.472,1.343 -0.228,0.404 -0.581,0.694 -1.059,0.871 v 0.114 h 7.19 L 5.679,-4.768 C 5.2,-4.945 4.84,-5.235 4.602,-5.639 4.361,-6.042 4.196,-6.497 4.108,-7.001 4.021,-7.506 3.978,-8.021 3.978,-8.553 v -1.438 -14.268 -1.439 c 0,-0.531 0.043,-1.042 0.13,-1.532 0.088,-0.493 0.253,-0.94 0.494,-1.345 0.238,-0.404 0.598,-0.696 1.077,-0.87 v -0.114 H 0.116 Z"
             style="fill:#231f20;fill-opacity:1;fill-rule:nonzero;stroke:none"
             id="path264"
             inkscape:connector-curvature="0" /></g><g
           id="g266"
           transform="translate(202.6406,475.9458)"><path
             d="m 0,0 c 0,-46.945 -38.056,-85 -85,-85 -46.944,0 -85,38.055 -85,85 0,46.944 38.056,85 85,85 C -38.056,85 0,46.944 0,0 Z"
             style="fill:none;stroke:#c8cace;stroke-width:0.25;stroke-linecap:butt;stroke-linejoin:round;stroke-miterlimit:10;stroke-dasharray:none;stroke-opacity:1"
             id="path268"
             inkscape:connector-curvature="0" /></g><g
           id="g270"
           transform="translate(57.5381,536.0488)"><path
             d="M 0,0 120.205,-120.202 V 0.003 L 0,-120.199"
             style="fill:none;stroke:#c8cace;stroke-width:0.25;stroke-linecap:butt;stroke-linejoin:round;stroke-miterlimit:10;stroke-dasharray:none;stroke-opacity:1"
             id="path272"
             inkscape:connector-curvature="0" /></g><path
           d="m 202.641,390.945 h -170 v 170 h 170 z"
           style="fill:none;stroke:#c8cace;stroke-width:0.25;stroke-linecap:butt;stroke-linejoin:round;stroke-miterlimit:10;stroke-dasharray:none;stroke-opacity:1"
           id="path274"
           inkscape:connector-curvature="0" /><path
           d="M 177.743,415.845 H 57.538 v 120.204 h 120.205 z"
           style="fill:none;stroke:#c8cace;stroke-width:0.25;stroke-linecap:butt;stroke-linejoin:round;stroke-miterlimit:10;stroke-dasharray:none;stroke-opacity:1"
           id="path276"
           inkscape:connector-curvature="0" /><g
           id="g278"
           transform="translate(127.6582,428.7207)"><path
             d="m 0,0 c -1.02,0 -2.029,0.037 -3.032,0.101 19.292,6.962 33.084,25.431 33.084,47.124 0,21.693 -13.792,40.163 -33.084,47.125 1.003,0.063 2.012,0.099 3.032,0.099 26.081,0 47.223,-21.142 47.223,-47.224 C 47.223,21.146 26.081,0 0,0 m -67.258,47.225 c 0,26.082 21.142,47.224 47.224,47.224 1.017,0 2.028,-0.036 3.031,-0.099 -19.292,-6.962 -33.083,-25.432 -33.083,-47.125 0,-21.693 13.791,-40.162 33.083,-47.124 C -18.006,0.037 -19.017,0 -20.034,0 -46.116,0 -67.258,21.146 -67.258,47.225 m 58.67,45.823 C 11.962,87.931 27.188,69.358 27.188,47.225 27.188,25.093 11.962,6.519 -8.588,1.402 Z M -11.447,1.402 c -20.55,5.117 -35.777,23.691 -35.777,45.823 0,22.133 15.227,40.706 35.777,45.823 z M 0,97.311 c -3.432,0 -6.78,-0.346 -10.018,-1.001 -3.238,0.655 -6.586,1.001 -10.016,1.001 -27.662,0 -50.086,-22.424 -50.086,-50.086 0,-27.662 22.424,-50.084 50.086,-50.084 3.43,0 6.778,0.344 10.016,1.001 3.238,-0.657 6.586,-1.001 10.018,-1.001 27.66,0 50.085,22.422 50.085,50.084 C 50.085,74.887 27.66,97.311 0,97.311"
             style="fill:#231f20;fill-opacity:1;fill-rule:nonzero;stroke:none"
             id="path280"
             inkscape:connector-curvature="0" /></g><g
           id="g282"
           transform="translate(80.4346,475.9458)"><path
             d="M 0,0 C 0,-22.132 15.227,-40.707 35.776,-45.823 V 45.823 C 15.227,40.706 0,22.133 0,0"
             style="fill:#ffffff;fill-opacity:1;fill-rule:nonzero;stroke:none"
             id="path284"
             inkscape:connector-curvature="0" /></g><g
           id="g286"
           transform="translate(154.8467,475.9458)"><path
             d="M 0,0 C 0,22.133 -15.227,40.706 -35.776,45.823 V -45.823 C -15.227,-40.707 0,-22.132 0,0"
             style="fill:#ee3423;fill-opacity:1;fill-rule:nonzero;stroke:none"
             id="path288"
             inkscape:connector-curvature="0" /></g><g
           id="g290"
           transform="translate(77.5723,475.9458)"><path
             d="M 0,0 C 0,21.693 13.791,40.163 33.083,47.125 32.08,47.188 31.069,47.224 30.052,47.224 3.97,47.224 -17.172,26.082 -17.172,0 c 0,-26.08 21.142,-47.225 47.224,-47.225 1.017,0 2.028,0.037 3.031,0.1 C 13.791,-40.162 0,-21.693 0,0"
             style="fill:#ee3423;fill-opacity:1;fill-rule:nonzero;stroke:none"
             id="path292"
             inkscape:connector-curvature="0" /></g><g
           id="g294"
           transform="translate(127.6582,523.1699)"><path
             d="m 0,0 c -1.019,0 -2.029,-0.037 -3.032,-0.1 19.292,-6.961 33.084,-25.431 33.084,-47.124 0,-21.693 -13.792,-40.162 -33.084,-47.125 1.003,-0.063 2.013,-0.1 3.032,-0.1 26.081,0 47.223,21.145 47.223,47.225 C 47.223,-21.143 26.081,0 0,0"
             style="fill:#ffffff;fill-opacity:1;fill-rule:nonzero;stroke:none"
             id="path296"
             inkscape:connector-curvature="0" /></g></g></g><text
       transform="matrix(1,0,0,-1,212.6401,16.8047)"
       style="font-variant:normal;font-weight:normal;font-stretch:normal;font-size:10px;font-family:'HelveticaNeueLT Com 55 Roman';-inkscape-font-specification:HelveticaNeueLTCom-Roman;writing-mode:lr-tb;fill:#231f20;fill-opacity:1;fill-rule:nonzero;stroke:none"
       id="text300"><tspan
         x="0"
         y="0"
         id="tspan298">7</tspan></text>
</g></svg>