<?xml version="1.0" encoding="UTF-8" standalone="no"?>
<!-- Created with Inkscape (http://www.inkscape.org/) -->

<svg
   xmlns:dc="http://purl.org/dc/elements/1.1/"
   xmlns:cc="http://creativecommons.org/ns#"
   xmlns:rdf="http://www.w3.org/1999/02/22-rdf-syntax-ns#"
   xmlns:svg="http://www.w3.org/2000/svg"
   xmlns="http://www.w3.org/2000/svg"
   xmlns:sodipodi="http://sodipodi.sourceforge.net/DTD/sodipodi-0.dtd"
   xmlns:inkscape="http://www.inkscape.org/namespaces/inkscape"
   version="1.1"
   id="svg2"
   xml:space="preserve"
   width="793.70801"
   height="1122.52"
   viewBox="0 0 793.70801 1122.52"
   sodipodi:docname="p9.svg"
   inkscape:version="0.92.2 5c3e80d, 2017-08-06"><metadata
     id="metadata8"><rdf:RDF><cc:Work
         rdf:about=""><dc:format>image/svg+xml</dc:format><dc:type
           rdf:resource="http://purl.org/dc/dcmitype/StillImage" /><dc:title></dc:title></cc:Work></rdf:RDF></metadata><defs
     id="defs6"><clipPath
       clipPathUnits="userSpaceOnUse"
       id="clipPath114"><path
         d="M 0,841.89 H 595.281 V 0 H 0 Z"
         id="path112"
         inkscape:connector-curvature="0" /></clipPath><clipPath
       clipPathUnits="userSpaceOnUse"
       id="clipPath334"><path
         d="m 297.641,525.155 c -3.238,0.657 -6.595,1.005 -10.03,1.005 v 0 c -27.697,0 -50.151,-22.452 -50.151,-50.15 v 0 c 0,-27.699 22.454,-50.153 50.151,-50.153 v 0 c 3.435,0 6.792,0.348 10.03,1.007 v 0 c 3.24,-0.659 6.596,-1.007 10.031,-1.007 v 0 c 27.697,0 50.15,22.454 50.15,50.152 v 0 c 0,27.699 -22.453,50.151 -50.15,50.151 v 0 c -3.435,0 -6.791,-0.348 -10.031,-1.005"
         id="path332"
         inkscape:connector-curvature="0" /></clipPath><clipPath
       clipPathUnits="userSpaceOnUse"
       id="clipPath342"><path
         d="M -32767,32767 H 32767 V -32767 H -32767 Z"
         id="path340"
         inkscape:connector-curvature="0" /></clipPath><radialGradient
       fx="0"
       fy="0"
       cx="0"
       cy="0"
       r="1"
       gradientUnits="userSpaceOnUse"
       gradientTransform="matrix(58.00235,0,0,-48.285385,285.1416,472.50879)"
       spreadMethod="pad"
       id="radialGradient348"><stop
         style="stop-opacity:1;stop-color:#ffffff"
         offset="0"
         id="stop344" /><stop
         style="stop-opacity:0;stop-color:#ffffff"
         offset="1"
         id="stop346" /></radialGradient><mask
       maskUnits="userSpaceOnUse"
       x="0"
       y="0"
       width="1"
       height="1"
       id="mask350"><g
         id="g360"><g
           clip-path="url(#clipPath342)"
           id="g358"><g
             id="g356"><g
               id="g354"><path
                 d="M -32767,32767 H 32767 V -32767 H -32767 Z"
                 style="fill:url(#radialGradient348);stroke:none"
                 id="path352"
                 inkscape:connector-curvature="0" /></g></g></g></g></mask><radialGradient
       fx="0"
       fy="0"
       cx="0"
       cy="0"
       r="1"
       gradientUnits="userSpaceOnUse"
       gradientTransform="matrix(58.00235,0,0,-48.285385,285.1416,472.50879)"
       spreadMethod="pad"
       id="radialGradient370"><stop
         style="stop-opacity:1;stop-color:#ffffff"
         offset="0"
         id="stop366" /><stop
         style="stop-opacity:1;stop-color:#ffffff"
         offset="1"
         id="stop368" /></radialGradient><clipPath
       clipPathUnits="userSpaceOnUse"
       id="clipPath380"><path
         d="M 0,841.89 H 595.281 V 0 H 0 Z"
         id="path378"
         inkscape:connector-curvature="0" /></clipPath></defs><sodipodi:namedview
     pagecolor="#ffffff"
     bordercolor="#666666"
     borderopacity="1"
     objecttolerance="10"
     gridtolerance="10"
     guidetolerance="10"
     inkscape:pageopacity="0"
     inkscape:pageshadow="2"
     inkscape:window-width="1920"
     inkscape:window-height="1036"
     id="namedview4"
     showgrid="false"
     inkscape:zoom="0.21024124"
     inkscape:cx="-299.96457"
     inkscape:cy="561.26001"
     inkscape:window-x="0"
     inkscape:window-y="20"
     inkscape:window-maximized="0"
     inkscape:current-layer="g10" /><g
     id="g10"
     inkscape:groupmode="layer"
     inkscape:label="branding3"
     transform="matrix(1.3333333,0,0,-1.3333333,0,1122.52)"><text
       transform="matrix(1,0,0,-1,407.6387,708.8057)"
       style="font-variant:normal;font-weight:300;font-stretch:normal;font-size:10px;font-family:'HelveticaNeueLT Com 45 Lt';-inkscape-font-specification:HelveticaNeueLTCom-Lt;writing-mode:lr-tb;fill:#231f20;fill-opacity:1;fill-rule:nonzero;stroke:none"
       id="text24"><tspan
         x="0 4.8800001 10.32 15.45 18.360001 24.280001 29.690001 34.700001 36.740002 42.299999 47.619999 50.529999 55.75 61.310001 63.349998 65.410004 70.839996 76.400002 78.440002 80.489998 86.410004 88.470001 94.220001 96.199997 99.110001 102.25 107.67 112.63 118.55 120.58 123.81 129.77 135.09"
         y="0"
         sodipodi:role="line"
         id="tspan12">Tek başına kullanıldığı takdirde </tspan><tspan
         x="-15 -9.5799999 -1.0599999 4.8699999 6.9400001 12.38 20.9 22.940001 28.440001 31.35 37.119999 40.43 45.860001 51.419998 53.48 58.900002 62.299999 64.279999 67.190002 71.879997 77.199997 80.110001 83.360001 88.800003 94.370003 100.12 102.1 105.01 110.97 116.42 122.17 124.22 129.19 132.25 134.28999 137.69 139.67999 143.50999"
         y="11"
         sodipodi:role="line"
         id="tspan14">amblemin oranları ve rengi değiştiri- </tspan><tspan
         x="-15 -12.93 -7.4899998 1.05 6.3800001 11 13.91 16.82 22.24 30.76 36.689999 38.759998 44.200001 52.740002 58.060001 60.970001 66.410004 71.699997 73.769997 79.209999 87.75 93.07 95.980003 100.67 105.95 110.66 115.98 118.89 124.28 126.32 131.52 136.94 140.34 148.88 154.2"
         y="22"
         sodipodi:role="line"
         id="tspan16">lemez, ambleme ekleme veya çıkarma </tspan><tspan
         x="-15 -10.29 -4.8699999 1.0599999 3.0999999 5.1599998 10.58 19.120001 24.74 29.360001"
         y="33"
         sodipodi:role="line"
         id="tspan18">yapılamaz.</tspan><tspan
         x="0 6.5799999 15.1 21.030001 23.1 28.540001 37 39.91 44.919998 47.009998 51.720001 57.139999 62.52 65.43 68.339996 73.629997 75.669998 79.07 87.589996 89.620003 94.410004 96.389999 99.300003 103.99 109.27 113.98 119.3 122.21 128.16 133.60001 139.14999 143.82001 149.25999 152.66 154.64"
         y="44"
         sodipodi:role="line"
         id="tspan20">Amblem siyah, kırmızı veya benzeri </tspan><tspan
         x="-15 -9.3900003 -4.6900001 1.0599999 6.6300001 12.18 17.17 22.719999 27.48 30.389999 35.810001 39.209999 44.419998 49.84 55.77 57.830002 63.259998 68.82 70.879997 76.300003 79.529999 85.470001 90.790001 93.699997 98.919998 104.48 106.52 108.58 114.01 119.57 121.61 123.67 129.09 137.63 143.25 147.87"
         y="55"
         sodipodi:role="line"
         id="tspan22">uygunsuz arkaplanlarda kullanılamaz.</tspan></text>
<text
       transform="matrix(1,0,0,-1,407.6387,642.8057)"
       style="font-variant:normal;font-weight:300;font-stretch:normal;font-size:10px;font-family:'HelveticaNeueLT Com 45 Lt';-inkscape-font-specification:HelveticaNeueLTCom-Lt;writing-mode:lr-tb;fill:#231f20;fill-opacity:1;fill-rule:nonzero;stroke:none"
       id="text28"><tspan
         x="0 6.5799999 15.1 21.030001 23.1 28.540001 37 39.91 45.34 50.900002 56.220001 59.130001 64.690002 69.980003 73.07 75.980003 81.370003 83.400002 88.010002 93.760002 95.809998 100.82 102.8 105.71 111.48 113.52 122.06 127.39 133.33 138.75999 144.25999"
         y="0"
         sodipodi:role="line"
         id="tspan26">Amblem ana hat çizgisi olmadan </tspan></text>
<text
       transform="matrix(1,0,0,-1,392.6387,631.8057)"
       style="font-variant:normal;font-weight:300;font-stretch:normal;font-size:10px;font-family:'HelveticaNeueLT Com 45 Lt';-inkscape-font-specification:HelveticaNeueLTCom-Lt;writing-mode:lr-tb;fill:#231f20;fill-opacity:1;fill-rule:nonzero;stroke:none"
       id="text44"><tspan
         x="0 5.2199998 10.78 12.82 14.88 20.309999 25.870001 27.91 29.969999 35.389999 43.93 49.549999 54.169998 57.080002 59.990002 65.93 71.339996 73.379997 76.629997 82.07 84.139999 89.580002 92.860001 95.769997 101.19 104.5 109.91 114.92 116.9 119.81 125.36 130.23 135.64999 140.94 142.98 145.02 150.14999"
         y="0"
         sodipodi:role="line"
         id="tspan30">kullanılamaz, daireler arası uzaklık </tspan><tspan
         x="0 5.96 11.41 17.16 19.209999 24.18 27.24 29.280001 32.68 34.720001 36.790001 42.23 50.77 56.099998 60.720001"
         y="11"
         sodipodi:role="line"
         id="tspan32">değiştirilemez.</tspan><tspan
         x="15 21.58 30.1 36.029999 38.099998 43.540001 52.060001 58.02 63.34 66.25 71.940002 74.849998 80.800003 86.400002 91.279999 96.870003 99.93 101.97 107.47 110.38 115.68 118.74 124.03 126.08 131.09 133.07001 135.98 141.75 143.78999 149.36 154.27 158.10001"
         y="22"
         sodipodi:role="line"
         id="tspan34">Amblemde 3 boyutlu etkisi oluş- </tspan><tspan
         x="0 3.0699999 8.6400003 11.95 17.299999 22.73 28.15 33.279999 36.189999 39.439999 44.880001 50.439999 55.57 58.48 64.239998 67.550003 72.879997 78.860001 83.57 89 94.559998 96.540001 99.449997 104.14 109.42 114.13 119.45 122.36 128.31 133.75 139.3 143.97 149.41 152.81 154.78999"
         y="33"
         sodipodi:role="line"
         id="tspan36">turacak renk gradyanı veya benzeri </tspan><tspan
         x="0 3.25 8.6899996 14.25 19.379999 22.290001 28.25 33.700001 39.450001 41.5 46.509998 48.549999 53.84 55.880001 57.919998 63.209999 65.279999 70.720001 74.120003 76.099998 79.010002 83.720001 89.139999 95.07 97.110001 99.169998 104.59 113.13 118.75 123.37"
         y="44"
         sodipodi:role="line"
         id="tspan38">renk değişiklikleri yapılamaz.</tspan><tspan
         x="-165 -155.69 -150.11 -144.67 -139.17 -136.25999 -130.69 -125.7 -120.27 -114.4 -111.49 -105.72 -100.22 -97.309998 -95.25 -92.18 -87.239998 -84.330002 -78.709999 -71.080002 -65.699997 -62.790001 -59.880001 -56.810001 -51.23 -45.91"
         y="-77"
         sodipodi:role="line"
         id="tspan40">When used on its own, the </tspan><tspan
         x="-180 -174.06 -170.83 -165.06 -159.11 -153.34 -149.67999 -146.62 -144.55 -138.78 -133.23 -128.28999 -125.38 -119.61 -116.33 -113.42 -108.01 -102.24 -100.17 -94.410004 -88.839996 -85.459999 -80.519997 -77.610001 -72 -69.279999 -66.370003 -63.299999 -57.720001 -52.400002 -49.490002 -44.580002 -39.709999 -31.190001 -25.24 -19.469999 -17.49"
         y="-66"
         sodipodi:role="line"
         id="tspan42">proportions or colours of the symbol </tspan></text>
<text
       transform="matrix(1,0,0,-1,212.6387,686.8057)"
       style="font-variant:normal;font-weight:300;font-stretch:normal;font-size:10px;font-family:'HelveticaNeueLT Com 45 Lt';-inkscape-font-specification:HelveticaNeueLTCom-Lt;writing-mode:lr-tb;fill:#231f20;fill-opacity:1;fill-rule:nonzero;stroke:none"
       id="text48"><tspan
         x="0 5.4299998 10.86 16.43 22 27.6 30.690001 33.599998 39.549999 44.869999 47.779999 53.189999 55.25 58.189999 63.630001 66.879997 72.309998 78.059998"
         y="0"
         sodipodi:role="line"
         id="tspan46">cannot be altered.</tspan></text>
<text
       transform="matrix(1,0,0,-1,227.6387,675.8057)"
       style="font-variant:normal;font-weight:300;font-stretch:normal;font-size:10px;font-family:'HelveticaNeueLT Com 45 Lt';-inkscape-font-specification:HelveticaNeueLTCom-Lt;writing-mode:lr-tb;fill:#231f20;fill-opacity:1;fill-rule:nonzero;stroke:none"
       id="text54"><tspan
         x="0 5.8400002 11.42 16.74 19.65 24.559999 29.43 37.950001 43.900002 49.669998 51.650002 54.560001 59.990002 65.419998 70.989998 76.559998 82.160004 85.25 88.160004 94.110001 99.43 102.34 107.91 112.9 118.33 124.2 127.11 132.88 138.38 141.28999 146.61"
         y="0"
         sodipodi:role="line"
         id="tspan50">The symbol cannot be used on a </tspan><tspan
         x="-15 -11.75 -6.3200002 -0.57999998 2.3299999 5.2399998 11.17 13.23 18.58 23.98 29.110001 32.02 37.790001 41.07 43.98 49.299999 52.209999 57.220001 59.259998 67.779999 69.82 71.879997 77.300003 80.699997 82.790001 87.550003 90.459999 92.5 98.059998 103.48 109.42 115.36 118.59 124.36 130.31 133.71001 135.77 141.06 144 149.32001"
         y="11"
         sodipodi:role="line"
         id="tspan52">red, black or a similarly inappropriate </tspan></text>
<text
       transform="matrix(1,0,0,-1,212.6387,653.8057)"
       style="font-variant:normal;font-weight:300;font-stretch:normal;font-size:10px;font-family:'HelveticaNeueLT Com 45 Lt';-inkscape-font-specification:HelveticaNeueLTCom-Lt;writing-mode:lr-tb;fill:#231f20;fill-opacity:1;fill-rule:nonzero;stroke:none"
       id="text58"><tspan
         x="0 5.9200001 11.27 16.67 21.620001 27.379999 30.610001 36.369999 41.939999 47.509998 53.259998"
         y="0"
         sodipodi:role="line"
         id="tspan56">background.</tspan></text>
<text
       transform="matrix(1,0,0,-1,227.6387,642.8057)"
       style="font-variant:normal;font-weight:300;font-stretch:normal;font-size:10px;font-family:'HelveticaNeueLT Com 45 Lt';-inkscape-font-specification:HelveticaNeueLTCom-Lt;writing-mode:lr-tb;fill:#231f20;fill-opacity:1;fill-rule:nonzero;stroke:none"
       id="text66"><tspan
         x="0 5.8400002 11.42 16.74 19.65 24.559999 29.43 37.950001 43.900002 49.669998 51.650002 54.560001 59.990002 65.419998 70.989998 76.559998 82.160004 85.25 88.160004 94.110001 99.43 102.34 107.91 112.9 118.33 124.2"
         y="0"
         sodipodi:role="line"
         id="tspan60">The symbol cannot be used </tspan><tspan
         x="-15 -7.3800001 -5.3200002 -2.25 3.3199999 9.0799999 14.67 17.76 20.67 23.74 29.32 34.639999 37.549999 46.09 51.5 53.549999 59.049999 61.959999 66.93 69.989998 73.220001 78.989998 83.980003 89.150002 92.059998 94.970001 100.4 105.96 111.83 114.74 117.81 123.39 128.71001"
         y="11"
         sodipodi:role="line"
         id="tspan62">without the main stroke, and the </tspan><tspan
         x="-15 -9.0799999 -7.0300002 -2.0599999 1.08 6.5100002 12.08 17.5 22.82 25.73 31.68 36.98 40.290001 47.759998 53.209999 58.650002 64.150002 67.059998 70.129997 75.709999 81.029999 83.940002 89.330002 91.370003 94.599998 99.989998 102.06 107.51 112.45 115.36 120.79 126.22 131.78999 137.36 142.96001 146.05"
         y="22"
         sodipodi:role="line"
         id="tspan64">distance between the circles cannot </tspan></text>
<text
       transform="matrix(1,0,0,-1,212.6387,609.8057)"
       style="font-variant:normal;font-weight:300;font-stretch:normal;font-size:10px;font-family:'HelveticaNeueLT Com 45 Lt';-inkscape-font-specification:HelveticaNeueLTCom-Lt;writing-mode:lr-tb;fill:#231f20;fill-opacity:1;fill-rule:nonzero;stroke:none"
       id="text72"><tspan
         x="0 5.9499998 11.27 14.18 19.59 21.66 24.6 30.040001 33.290001 38.720001 44.470001"
         y="0"
         sodipodi:role="line"
         id="tspan68">be altered.</tspan><tspan
         x="15 21.43 24.34 29.75 35.52 37.59 43.360001 46.639999 49.549999 55.310001 58.619999 63.950001 69.870003 71.940002 77.379997 82.870003 85.959999 88.870003 94.300003 99.730003 105.3 110.87 116.47 119.56 122.47 128.42 133.74001 136.64999 142.22 147.21001 152.64 158.50999"
         y="11"
         sodipodi:role="line"
         id="tspan70">A color gradient cannot be used </tspan></text>
<text
       transform="matrix(1,0,0,-1,212.6387,587.8057)"
       style="font-variant:normal;font-weight:300;font-stretch:normal;font-size:10px;font-family:'HelveticaNeueLT Com 45 Lt';-inkscape-font-specification:HelveticaNeueLTCom-Lt;writing-mode:lr-tb;fill:#231f20;fill-opacity:1;fill-rule:nonzero;stroke:none"
       id="text76"><tspan
         x="0 2.6600001 8.4300003 11.71 14.62 20.040001 25.469999 30.23 33.139999 39.060001 44.630001 48.029999 53.98 59.73 64.730003 70.050003 72.959999 78.160004 80.82 86.389999 89.300003 92.209999 94.25 99.739998 102.8 106.03 111.8 117.73 123.31 128.7 130.75 136.31 142 144.91 150.23 153.14 158.85001 165.83"
         y="0"
         sodipodi:role="line"
         id="tspan74">for any purpose e.g. introducing a 3D </tspan></text>
<text
       transform="matrix(1,0,0,-1,212.6387,576.8057)"
       style="font-variant:normal;font-weight:300;font-stretch:normal;font-size:10px;font-family:'HelveticaNeueLT Com 45 Lt';-inkscape-font-specification:HelveticaNeueLTCom-Lt;writing-mode:lr-tb;fill:#231f20;fill-opacity:1;fill-rule:nonzero;stroke:none"
       id="text80"><tspan
         x="0 5.3099999 8.4099998 11.09 16.540001 21.92 24.84"
         y="0"
         sodipodi:role="line"
         id="tspan78">effect.</tspan></text>
<text
       transform="matrix(1,0,0,-1,212.6406,798.0928)"
       style="font-variant:normal;font-weight:500;font-stretch:normal;font-size:18px;font-family:'HelveticaNeueLT Com 65 Md';-inkscape-font-specification:HelveticaNeueLTCom-Md;writing-mode:lr-tb;fill:#231f20;fill-opacity:1;fill-rule:nonzero;stroke:none"
       id="text84"><tspan
         x="0 13.176 23.705999 33.894001 44.099998 54.306 64.547997 75.617996 81.935997 92.213997 103.374 107.892 118.116 123.336 133.866 143.442 153.702"
         y="0"
         sodipodi:role="line"
         id="tspan82">Unacceptable uses</tspan></text>
<text
       transform="matrix(1,0,0,-1,212.6406,779.0848)"
       style="font-variant:normal;font-weight:500;font-stretch:normal;font-size:18px;font-family:'HelveticaNeueLT Com 65 Md';-inkscape-font-specification:HelveticaNeueLTCom-Md;writing-mode:lr-tb;fill:#231f20;fill-opacity:1;fill-rule:nonzero;stroke:none"
       id="text88"><tspan
         x="0 6.948 13.104 23.598 33.821999 39.042 48.419998 58.014 73.835999 85.014 95.849998"
         y="0"
         sodipodi:role="line"
         id="tspan86">-the symbol</tspan></text>
<text
       transform="matrix(1,0,0,-1,392.6406,798.0928)"
       style="font-variant:normal;font-weight:500;font-stretch:normal;font-size:18px;font-family:'HelveticaNeueLT Com 65 Md';-inkscape-font-specification:HelveticaNeueLTCom-Md;writing-mode:lr-tb;fill:#231f20;fill-opacity:1;fill-rule:nonzero;stroke:none"
       id="text92"><tspan
         x="0 10.476 20.771999 31.247999 35.712002 40.265999 49.824001 55.043999 64.872002 75.348 79.793999 84.311996 94.608002 105.102 109.584 125.388 129.90601 140.202"
         y="0"
         sodipodi:role="line"
         id="tspan90">Yanlış kullanımlar</tspan></text>
<text
       transform="matrix(1,0,0,-1,392.6406,779.0848)"
       style="font-variant:normal;font-weight:500;font-stretch:normal;font-size:18px;font-family:'HelveticaNeueLT Com 65 Md';-inkscape-font-specification:HelveticaNeueLTCom-Md;writing-mode:lr-tb;fill:#231f20;fill-opacity:1;fill-rule:nonzero;stroke:none"
       id="text96"><tspan
         x="0 7.2179999 17.514 33.318001 44.478001 48.995998 59.256001"
         y="0"
         sodipodi:role="line"
         id="tspan94">-amblem</tspan></text>
<g
       id="g98"
       transform="translate(27.6406,810.9448)"><path
         d="M 0,0 V -780"
         style="fill:none;stroke:#231f20;stroke-width:0.5;stroke-linecap:butt;stroke-linejoin:miter;stroke-miterlimit:10;stroke-dasharray:none;stroke-opacity:1"
         id="path100"
         inkscape:connector-curvature="0" /></g><g
       id="g102"
       transform="translate(567.6387,810.9448)"><path
         d="M 0,0 V -780"
         style="fill:none;stroke:#231f20;stroke-width:0.5;stroke-linecap:butt;stroke-linejoin:miter;stroke-miterlimit:10;stroke-dasharray:none;stroke-opacity:1"
         id="path104"
         inkscape:connector-curvature="0" /></g><path
       d="m 202.641,30.937 h -170 v 170 h 170 z"
       style="fill:#ee3423;fill-opacity:1;fill-rule:nonzero;stroke:#231f20;stroke-width:0.25;stroke-linecap:butt;stroke-linejoin:round;stroke-miterlimit:10;stroke-dasharray:none;stroke-opacity:1"
       id="path106"
       inkscape:connector-curvature="0" /><g
       id="g108"><g
         id="g110"
         clip-path="url(#clipPath114)"><g
           id="g116"
           transform="translate(127.6582,68.7119)"><path
             d="m 0,0 c -1.02,0 -2.029,0.035 -3.032,0.1 19.292,6.961 33.085,25.431 33.085,47.124 0,21.693 -13.793,40.163 -33.085,47.124 1.003,0.064 2.012,0.099 3.032,0.099 26.08,0 47.223,-21.142 47.223,-47.223 C 47.223,21.143 26.08,0 0,0 m -67.258,47.224 c 0,26.081 21.141,47.223 47.223,47.223 1.019,0 2.029,-0.035 3.032,-0.099 C -36.297,87.387 -50.087,68.917 -50.087,47.224 -50.087,25.531 -36.297,7.061 -17.003,0.1 -18.006,0.035 -19.016,0 -20.035,0 -46.117,0 -67.258,21.143 -67.258,47.224 M -8.587,93.047 C 11.961,87.932 27.19,69.357 27.19,47.224 27.19,25.091 11.961,6.518 -8.587,1.4 Z M -11.448,1.4 c -20.55,5.119 -35.777,23.692 -35.777,45.824 0,22.133 15.227,40.707 35.777,45.823 z M 0,97.311 c -3.432,0 -6.781,-0.346 -10.018,-1.003 -3.236,0.657 -6.586,1.003 -10.017,1.003 -27.662,0 -50.085,-22.425 -50.085,-50.087 0,-27.661 22.423,-50.085 50.085,-50.085 3.431,0 6.781,0.345 10.017,1.002 3.237,-0.657 6.586,-1.002 10.018,-1.002 27.662,0 50.086,22.424 50.086,50.085 0,27.662 -22.424,50.087 -50.086,50.087"
             style="fill:#231f20;fill-opacity:1;fill-rule:nonzero;stroke:none"
             id="path118"
             inkscape:connector-curvature="0" /></g><g
           id="g120"
           transform="translate(80.4336,115.9355)"><path
             d="M 0,0 C 0,-22.132 15.227,-40.705 35.776,-45.823 V 45.823 C 15.227,40.707 0,22.134 0,0"
             style="fill:#ffffff;fill-opacity:1;fill-rule:nonzero;stroke:none"
             id="path122"
             inkscape:connector-curvature="0" /></g><g
           id="g124"
           transform="translate(154.8486,115.9355)"><path
             d="M 0,0 C 0,22.134 -15.229,40.708 -35.777,45.823 V -45.823 C -15.229,-40.706 0,-22.133 0,0"
             style="fill:#ee3423;fill-opacity:1;fill-rule:nonzero;stroke:none"
             id="path126"
             inkscape:connector-curvature="0" /></g><g
           id="g128"
           transform="translate(77.5713,115.9355)"><path
             d="m 0,0 c 0,21.693 13.79,40.163 33.084,47.124 -1.003,0.064 -2.013,0.1 -3.032,0.1 C 3.97,47.224 -17.171,26.081 -17.171,0 c 0,-26.081 21.141,-47.224 47.223,-47.224 1.019,0 2.029,0.036 3.032,0.1 C 13.79,-40.163 0,-21.692 0,0"
             style="fill:#ee3423;fill-opacity:1;fill-rule:nonzero;stroke:none"
             id="path130"
             inkscape:connector-curvature="0" /></g><g
           id="g132"
           transform="translate(127.6582,163.1592)"><path
             d="m 0,0 c -1.02,0 -2.029,-0.035 -3.032,-0.1 19.292,-6.961 33.085,-25.43 33.085,-47.124 0,-21.692 -13.793,-40.163 -33.085,-47.124 1.003,-0.064 2.012,-0.099 3.032,-0.099 26.08,0 47.223,21.142 47.223,47.223 C 47.223,-21.143 26.08,0 0,0"
             style="fill:#ffffff;fill-opacity:1;fill-rule:nonzero;stroke:none"
             id="path134"
             inkscape:connector-curvature="0" /></g><path
           d="m 382.641,30.937 h -170 v 170 h 170 z"
           style="fill:#231f20;fill-opacity:1;fill-rule:nonzero;stroke:#231f20;stroke-width:0.25;stroke-linecap:butt;stroke-linejoin:round;stroke-miterlimit:10;stroke-dasharray:none;stroke-opacity:1"
           id="path136"
           inkscape:connector-curvature="0" /><g
           id="g138"
           transform="translate(307.6582,68.7119)"><path
             d="m 0,0 c -1.02,0 -2.029,0.035 -3.032,0.1 19.292,6.961 33.085,25.431 33.085,47.124 0,21.693 -13.793,40.163 -33.085,47.124 1.003,0.064 2.012,0.099 3.032,0.099 26.08,0 47.223,-21.142 47.223,-47.223 C 47.223,21.143 26.08,0 0,0 m -67.258,47.224 c 0,26.081 21.141,47.223 47.223,47.223 1.019,0 2.029,-0.035 3.032,-0.099 C -36.297,87.387 -50.087,68.917 -50.087,47.224 -50.087,25.531 -36.297,7.061 -17.003,0.1 -18.006,0.035 -19.016,0 -20.035,0 -46.117,0 -67.258,21.143 -67.258,47.224 M -8.587,93.047 C 11.961,87.932 27.19,69.357 27.19,47.224 27.19,25.091 11.961,6.518 -8.587,1.4 Z M -11.448,1.4 c -20.55,5.119 -35.777,23.692 -35.777,45.824 0,22.133 15.227,40.707 35.777,45.823 z M 0,97.311 c -3.432,0 -6.781,-0.346 -10.018,-1.003 -3.236,0.657 -6.586,1.003 -10.017,1.003 -27.662,0 -50.085,-22.425 -50.085,-50.087 0,-27.661 22.423,-50.085 50.085,-50.085 3.431,0 6.781,0.345 10.017,1.002 3.237,-0.657 6.586,-1.002 10.018,-1.002 27.662,0 50.086,22.424 50.086,50.085 0,27.662 -22.424,50.087 -50.086,50.087"
             style="fill:#231f20;fill-opacity:1;fill-rule:nonzero;stroke:none"
             id="path140"
             inkscape:connector-curvature="0" /></g><g
           id="g142"
           transform="translate(260.4336,115.9355)"><path
             d="M 0,0 C 0,-22.132 15.227,-40.705 35.776,-45.823 V 45.823 C 15.227,40.707 0,22.134 0,0"
             style="fill:#ffffff;fill-opacity:1;fill-rule:nonzero;stroke:none"
             id="path144"
             inkscape:connector-curvature="0" /></g><g
           id="g146"
           transform="translate(334.8486,115.9355)"><path
             d="M 0,0 C 0,22.134 -15.229,40.708 -35.777,45.823 V -45.823 C -15.229,-40.706 0,-22.133 0,0"
             style="fill:#ee3423;fill-opacity:1;fill-rule:nonzero;stroke:none"
             id="path148"
             inkscape:connector-curvature="0" /></g><g
           id="g150"
           transform="translate(257.5713,115.9355)"><path
             d="m 0,0 c 0,21.693 13.79,40.163 33.084,47.124 -1.003,0.064 -2.013,0.1 -3.032,0.1 C 3.97,47.224 -17.171,26.081 -17.171,0 c 0,-26.081 21.141,-47.224 47.223,-47.224 1.019,0 2.029,0.036 3.032,0.1 C 13.79,-40.163 0,-21.692 0,0"
             style="fill:#ee3423;fill-opacity:1;fill-rule:nonzero;stroke:none"
             id="path152"
             inkscape:connector-curvature="0" /></g><g
           id="g154"
           transform="translate(307.6582,163.1592)"><path
             d="m 0,0 c -1.02,0 -2.029,-0.035 -3.032,-0.1 19.292,-6.961 33.085,-25.43 33.085,-47.124 0,-21.692 -13.793,-40.163 -33.085,-47.124 1.003,-0.064 2.012,-0.099 3.032,-0.099 26.08,0 47.223,21.142 47.223,47.223 C 47.223,-21.143 26.08,0 0,0"
             style="fill:#ffffff;fill-opacity:1;fill-rule:nonzero;stroke:none"
             id="path156"
             inkscape:connector-curvature="0" /></g><path
           d="m 562.634,390.944 h -170 v 170 h 170 z"
           style="fill:#f1f1f2;fill-opacity:1;fill-rule:nonzero;stroke:#231f20;stroke-width:0.25;stroke-linecap:butt;stroke-linejoin:round;stroke-miterlimit:10;stroke-dasharray:none;stroke-opacity:1"
           id="path158"
           inkscape:connector-curvature="0" /><g
           id="g160"
           transform="translate(487.6514,428.7197)"><path
             d="m 0,0 c -1.02,0 -2.029,0.036 -3.032,0.101 19.292,6.961 33.085,25.431 33.085,47.123 0,21.693 -13.793,40.163 -33.085,47.125 1.003,0.063 2.012,0.099 3.032,0.099 26.08,0 47.223,-21.142 47.223,-47.224 C 47.223,21.144 26.08,0 0,0 m -67.258,47.224 c 0,26.082 21.141,47.224 47.223,47.224 1.019,0 2.029,-0.036 3.032,-0.099 -19.294,-6.962 -33.084,-25.432 -33.084,-47.125 0,-21.692 13.79,-40.162 33.084,-47.123 C -18.006,0.036 -19.016,0 -20.035,0 -46.117,0 -67.258,21.144 -67.258,47.224 M -8.587,93.048 C 11.961,87.932 27.19,69.358 27.19,47.224 27.19,25.091 11.961,6.518 -8.587,1.4 Z M -11.448,1.4 c -20.55,5.119 -35.777,23.692 -35.777,45.824 0,22.133 15.227,40.707 35.777,45.824 z M 0,97.311 c -3.432,0 -6.781,-0.346 -10.018,-1.003 -3.236,0.657 -6.586,1.003 -10.017,1.003 -27.662,0 -50.085,-22.425 -50.085,-50.087 0,-27.661 22.423,-50.085 50.085,-50.085 3.431,0 6.781,0.345 10.017,1.003 3.237,-0.658 6.586,-1.003 10.018,-1.003 27.662,0 50.086,22.424 50.086,50.085 0,27.662 -22.424,50.087 -50.086,50.087"
             style="fill:#231f20;fill-opacity:1;fill-rule:nonzero;stroke:none"
             id="path162"
             inkscape:connector-curvature="0" /></g><g
           id="g164"
           transform="translate(440.4268,475.9438)"><path
             d="M 0,0 C 0,-22.132 15.227,-40.705 35.776,-45.824 V 45.824 C 15.227,40.707 0,22.133 0,0"
             style="fill:#ffffff;fill-opacity:1;fill-rule:nonzero;stroke:none"
             id="path166"
             inkscape:connector-curvature="0" /></g><g
           id="g168"
           transform="translate(514.8418,475.9438)"><path
             d="M 0,0 C 0,22.134 -15.229,40.708 -35.777,45.824 V -45.824 C -15.229,-40.707 0,-22.133 0,0"
             style="fill:#ee3423;fill-opacity:1;fill-rule:nonzero;stroke:none"
             id="path170"
             inkscape:connector-curvature="0" /></g><g
           id="g172"
           transform="translate(437.5645,475.9438)"><path
             d="m 0,0 c 0,21.693 13.79,40.163 33.084,47.125 -1.003,0.063 -2.013,0.099 -3.032,0.099 C 3.97,47.224 -17.171,26.082 -17.171,0 c 0,-26.081 21.141,-47.224 47.223,-47.224 1.019,0 2.029,0.036 3.032,0.1 C 13.79,-40.163 0,-21.692 0,0"
             style="fill:#ee3423;fill-opacity:1;fill-rule:nonzero;stroke:none"
             id="path174"
             inkscape:connector-curvature="0" /></g><g
           id="g176"
           transform="translate(487.6514,523.1675)"><path
             d="m 0,0 c -1.02,0 -2.029,-0.036 -3.032,-0.099 19.292,-6.962 33.085,-25.431 33.085,-47.125 0,-21.692 -13.793,-40.162 -33.085,-47.123 1.003,-0.065 2.012,-0.101 3.032,-0.101 26.08,0 47.223,21.144 47.223,47.224 C 47.223,-21.142 26.08,0 0,0"
             style="fill:#ffffff;fill-opacity:1;fill-rule:nonzero;stroke:none"
             id="path178"
             inkscape:connector-curvature="0" /></g><path
           d="m 562.634,210.952 h -170 v 170 h 170 z"
           style="fill:none;stroke:#231f20;stroke-width:0.25;stroke-linecap:butt;stroke-linejoin:round;stroke-miterlimit:10;stroke-dasharray:none;stroke-opacity:1"
           id="path180"
           inkscape:connector-curvature="0" /><g
           id="g182"
           transform="translate(487.6514,248.7275)"><path
             d="m 0,0 c -1.02,0 -2.029,0.036 -3.032,0.101 19.292,6.961 33.085,25.431 33.085,47.124 0,21.693 -13.793,40.162 -33.085,47.124 1.003,0.063 2.012,0.098 3.032,0.098 26.08,0 47.223,-21.141 47.223,-47.222 C 47.223,21.144 26.08,0 0,0 m -67.258,47.225 c 0,26.081 21.141,47.222 47.223,47.222 1.019,0 2.029,-0.035 3.032,-0.098 -19.294,-6.962 -33.084,-25.431 -33.084,-47.124 0,-21.693 13.79,-40.163 33.084,-47.124 C -18.006,0.036 -19.016,0 -20.035,0 -46.117,0 -67.258,21.144 -67.258,47.225 M -8.587,93.048 C 11.961,87.932 27.19,69.357 27.19,47.225 27.19,25.092 11.961,6.518 -8.587,1.4 Z M -11.448,1.4 c -20.55,5.12 -35.777,23.692 -35.777,45.825 0,22.132 15.227,40.707 35.777,45.823 z M 0,97.311 c -3.432,0 -6.781,-0.346 -10.018,-1.002 -3.236,0.656 -6.586,1.002 -10.017,1.002 -27.662,0 -50.085,-22.424 -50.085,-50.086 0,-27.662 22.423,-50.086 50.085,-50.086 3.431,0 6.781,0.345 10.017,1.003 3.237,-0.658 6.586,-1.003 10.018,-1.003 27.662,0 50.086,22.424 50.086,50.086 0,27.662 -22.424,50.086 -50.086,50.086"
             style="fill:#231f20;fill-opacity:1;fill-rule:nonzero;stroke:none"
             id="path184"
             inkscape:connector-curvature="0" /></g><g
           id="g186"
           transform="translate(440.4268,295.9521)"><path
             d="M 0,0 C 0,-22.133 15.227,-40.705 35.776,-45.824 V 45.823 C 15.227,40.707 0,22.133 0,0"
             style="fill:#ffffff;fill-opacity:1;fill-rule:nonzero;stroke:none"
             id="path188"
             inkscape:connector-curvature="0" /></g><g
           id="g190"
           transform="translate(514.8418,295.9521)"><path
             d="M 0,0 C 0,22.133 -15.229,40.707 -35.777,45.823 V -45.824 C -15.229,-40.707 0,-22.133 0,0"
             style="fill:#ed857c;fill-opacity:1;fill-rule:nonzero;stroke:none"
             id="path192"
             inkscape:connector-curvature="0" /></g><g
           id="g194"
           transform="translate(437.5645,295.9521)"><path
             d="m 0,0 c 0,21.693 13.79,40.162 33.084,47.124 -1.003,0.064 -2.013,0.099 -3.032,0.099 C 3.97,47.223 -17.171,26.081 -17.171,0 c 0,-26.081 21.141,-47.225 47.223,-47.225 1.019,0 2.029,0.037 3.032,0.101 C 13.79,-40.163 0,-21.692 0,0"
             style="fill:#ed857c;fill-opacity:1;fill-rule:nonzero;stroke:none"
             id="path196"
             inkscape:connector-curvature="0" /></g><g
           id="g198"
           transform="translate(487.6514,343.1748)"><path
             d="m 0,0 c -1.02,0 -2.029,-0.035 -3.032,-0.099 19.292,-6.962 33.085,-25.43 33.085,-47.124 0,-21.692 -13.793,-40.163 -33.085,-47.124 1.003,-0.064 2.012,-0.1 3.032,-0.1 26.08,0 47.223,21.143 47.223,47.224 C 47.223,-21.142 26.08,0 0,0"
             style="fill:#ffffff;fill-opacity:1;fill-rule:nonzero;stroke:none"
             id="path200"
             inkscape:connector-curvature="0" /></g><path
           d="m 202.641,390.944 h -170 v 170 h 170 z"
           style="fill:none;stroke:#231f20;stroke-width:0.25;stroke-linecap:butt;stroke-linejoin:round;stroke-miterlimit:10;stroke-dasharray:none;stroke-opacity:1"
           id="path202"
           inkscape:connector-curvature="0" /><g
           id="g204"
           transform="translate(77.5215,476.0098)"><path
             d="M 0,0 C 0,24.264 17.229,44.5 40.119,49.146 36.881,49.803 33.525,50.15 30.09,50.15 2.393,50.15 -20.061,27.698 -20.061,0 c 0,-27.699 22.454,-50.152 50.151,-50.152 3.435,0 6.791,0.347 10.029,1.006 C 17.229,-44.501 0,-24.265 0,0"
             style="fill:#ee3423;fill-opacity:1;fill-rule:nonzero;stroke:none"
             id="path206"
             inkscape:connector-curvature="0" /></g><g
           id="g208"
           transform="translate(117.6406,525.1553)"><path
             d="m 0,0 c -22.891,-4.646 -40.119,-24.882 -40.119,-49.146 0,-24.264 17.228,-44.5 40.119,-49.146 z"
             style="fill:#ffffff;fill-opacity:1;fill-rule:nonzero;stroke:none"
             id="path210"
             inkscape:connector-curvature="0" /></g><g
           id="g212"
           transform="translate(157.7637,476.0088)"><path
             d="m 0,0 c 0,-24.264 -17.23,-44.5 -40.123,-49.146 3.24,-0.658 6.597,-1.005 10.031,-1.005 27.697,0 50.151,22.453 50.151,50.151 0,27.699 -22.454,50.151 -50.151,50.151 -3.434,0 -6.791,-0.347 -10.031,-1.005 C -17.23,44.501 0,24.265 0,0"
             style="fill:#ffffff;fill-opacity:1;fill-rule:nonzero;stroke:none"
             id="path214"
             inkscape:connector-curvature="0" /></g><g
           id="g216"
           transform="translate(157.7637,476.0088)"><path
             d="m 0,0 c 0,-24.264 -17.23,-44.5 -40.123,-49.146 3.24,-0.658 6.597,-1.005 10.031,-1.005 27.697,0 50.151,22.453 50.151,50.151 0,27.699 -22.454,50.151 -50.151,50.151 -3.434,0 -6.791,-0.347 -10.031,-1.005 C -17.23,44.501 0,24.265 0,0 Z"
             style="fill:none;stroke:#ee3423;stroke-width:1;stroke-linecap:butt;stroke-linejoin:miter;stroke-miterlimit:10;stroke-dasharray:none;stroke-opacity:1"
             id="path218"
             inkscape:connector-curvature="0" /></g><g
           id="g220"
           transform="translate(117.6406,426.8633)"><path
             d="M 0,0 C 22.893,4.646 40.123,24.882 40.123,49.146 40.123,73.41 22.893,93.646 0,98.292 Z"
             style="fill:#ee3423;fill-opacity:1;fill-rule:nonzero;stroke:none"
             id="path222"
             inkscape:connector-curvature="0" /></g><path
           d="m 382.634,210.951 h -170 v 170 h 170 z"
           style="fill:none;stroke:#231f20;stroke-width:0.25;stroke-linecap:butt;stroke-linejoin:round;stroke-miterlimit:10;stroke-dasharray:none;stroke-opacity:1"
           id="path224"
           inkscape:connector-curvature="0" /><g
           id="g226"
           transform="translate(270.0742,295.9492)"><path
             d="m 0,0 c 0,18.899 11.328,35.144 27.56,42.342 -5.734,2.542 -12.073,3.966 -18.748,3.966 -25.576,0 -46.308,-20.733 -46.308,-46.308 0,-25.574 20.732,-46.307 46.308,-46.307 6.675,0 13.014,1.424 18.748,3.966 C 11.328,-35.143 0,-18.898 0,0"
             style="fill:#ee3423;fill-opacity:1;fill-rule:nonzero;stroke:none"
             id="path228"
             inkscape:connector-curvature="0" /></g><g
           id="g230"
           transform="translate(297.6328,338.291)"><path
             d="m 0,0 c -16.231,-7.198 -27.559,-23.442 -27.559,-42.342 0,-18.898 11.328,-35.142 27.559,-42.34 z"
             style="fill:#ffffff;fill-opacity:1;fill-rule:nonzero;stroke:none"
             id="path232"
             inkscape:connector-curvature="0" /></g><g
           id="g234"
           transform="translate(297.6328,338.291)"><path
             d="m 0,0 c -16.231,-7.198 -27.559,-23.442 -27.559,-42.342 0,-18.898 11.328,-35.142 27.559,-42.34 z"
             style="fill:none;stroke:#ee3423;stroke-width:1;stroke-linecap:butt;stroke-linejoin:miter;stroke-miterlimit:10;stroke-dasharray:none;stroke-opacity:1"
             id="path236"
             inkscape:connector-curvature="0" /></g><g
           id="g238"
           transform="translate(325.1934,295.9502)"><path
             d="m 0,0 c 0,-18.899 -11.328,-35.144 -27.56,-42.342 5.734,-2.542 12.073,-3.966 18.748,-3.966 25.576,0 46.308,20.733 46.308,46.308 0,25.574 -20.732,46.307 -46.308,46.307 -6.675,0 -13.014,-1.424 -18.748,-3.966 C -11.328,35.143 0,18.898 0,0"
             style="fill:#ffffff;fill-opacity:1;fill-rule:nonzero;stroke:none"
             id="path240"
             inkscape:connector-curvature="0" /></g><g
           id="g242"
           transform="translate(325.1934,295.9502)"><path
             d="m 0,0 c 0,-18.899 -11.328,-35.144 -27.56,-42.342 5.734,-2.542 12.073,-3.966 18.748,-3.966 25.576,0 46.308,20.733 46.308,46.308 0,25.574 -20.732,46.307 -46.308,46.307 -6.675,0 -13.014,-1.424 -18.748,-3.966 C -11.328,35.143 0,18.898 0,0 Z"
             style="fill:none;stroke:#ee3423;stroke-width:1;stroke-linecap:butt;stroke-linejoin:miter;stroke-miterlimit:10;stroke-dasharray:none;stroke-opacity:1"
             id="path244"
             inkscape:connector-curvature="0" /></g><g
           id="g246"
           transform="translate(297.6348,253.6084)"><path
             d="M 0,0 C 16.231,7.198 27.559,23.442 27.559,42.342 27.559,61.24 16.231,77.484 0,84.682 Z"
             style="fill:#ee3423;fill-opacity:1;fill-rule:nonzero;stroke:none"
             id="path248"
             inkscape:connector-curvature="0" /></g><path
           d="m 202.641,210.951 h -170 v 170 h 170 z"
           style="fill:none;stroke:#231f20;stroke-width:0.25;stroke-linecap:butt;stroke-linejoin:round;stroke-miterlimit:10;stroke-dasharray:none;stroke-opacity:1"
           id="path250"
           inkscape:connector-curvature="0" /><g
           id="g252"
           transform="translate(73.6123,297.0996)"><path
             d="m 0,0 c 0,25.397 19.576,46.208 44.459,48.203 -1.293,0.105 -2.595,0.171 -3.914,0.171 C 13.828,48.374 -7.83,26.717 -7.83,0 c 0,-26.716 21.658,-48.373 48.375,-48.373 1.319,0 2.621,0.067 3.914,0.171 C 19.576,-46.206 0,-25.396 0,0"
             style="fill:#ee3423;fill-opacity:1;fill-rule:nonzero;stroke:none"
             id="path254"
             inkscape:connector-curvature="0" /></g><g
           id="g256"
           transform="translate(73.6123,297.0996)"><path
             d="M 0,0 C 0,-25.396 19.576,-46.206 44.459,-48.202 V 48.203 C 19.576,46.208 0,25.397 0,0"
             style="fill:#ffffff;fill-opacity:1;fill-rule:nonzero;stroke:none"
             id="path258"
             inkscape:connector-curvature="0" /></g><g
           id="g260"
           transform="translate(162.5303,297.1006)"><path
             d="m 0,0 c 0,-25.397 -19.576,-46.207 -44.459,-48.203 1.293,-0.104 2.595,-0.171 3.915,-0.171 26.716,0 48.374,21.657 48.374,48.374 0,26.716 -21.658,48.373 -48.374,48.373 -1.32,0 -2.622,-0.066 -3.915,-0.171 C -19.576,46.207 0,25.396 0,0"
             style="fill:#ffffff;fill-opacity:1;fill-rule:nonzero;stroke:none"
             id="path262"
             inkscape:connector-curvature="0" /></g><g
           id="g264"
           transform="translate(162.5303,297.1006)"><path
             d="m 0,0 c 0,-25.397 -19.576,-46.207 -44.459,-48.203 1.293,-0.104 2.595,-0.171 3.915,-0.171 26.716,0 48.374,21.657 48.374,48.374 0,26.716 -21.658,48.373 -48.374,48.373 -1.32,0 -2.622,-0.066 -3.915,-0.171 C -19.576,46.207 0,25.396 0,0 Z"
             style="fill:none;stroke:#ee3423;stroke-width:1;stroke-linecap:butt;stroke-linejoin:miter;stroke-miterlimit:10;stroke-dasharray:none;stroke-opacity:1"
             id="path266"
             inkscape:connector-curvature="0" /></g><g
           id="g268"
           transform="translate(162.5303,297.1006)"><path
             d="M 0,0 C 0,25.396 -19.576,46.207 -44.459,48.202 V -48.203 C -19.576,-46.207 0,-25.397 0,0"
             style="fill:#ee3423;fill-opacity:1;fill-rule:nonzero;stroke:none"
             id="path270"
             inkscape:connector-curvature="0" /></g><path
           d="m 562.634,30.938 h -170 v 170 h 170 z"
           style="fill:#ec008c;fill-opacity:1;fill-rule:nonzero;stroke:#231f20;stroke-width:0.25;stroke-linecap:butt;stroke-linejoin:round;stroke-miterlimit:10;stroke-dasharray:none;stroke-opacity:1"
           id="path272"
           inkscape:connector-curvature="0" /><g
           id="g274"
           transform="translate(487.6514,68.7129)"><path
             d="m 0,0 c -1.02,0 -2.029,0.036 -3.032,0.101 19.292,6.961 33.085,25.431 33.085,47.124 0,21.693 -13.793,40.162 -33.085,47.124 1.003,0.063 2.012,0.098 3.032,0.098 26.08,0 47.223,-21.141 47.223,-47.222 C 47.223,21.144 26.08,0 0,0 m -67.258,47.225 c 0,26.081 21.141,47.222 47.223,47.222 1.019,0 2.029,-0.035 3.032,-0.098 -19.294,-6.962 -33.084,-25.431 -33.084,-47.124 0,-21.693 13.79,-40.163 33.084,-47.124 C -18.006,0.036 -19.016,0 -20.035,0 -46.117,0 -67.258,21.144 -67.258,47.225 M -8.587,93.048 C 11.961,87.932 27.19,69.357 27.19,47.225 27.19,25.092 11.961,6.518 -8.587,1.4 Z M -11.448,1.4 c -20.55,5.12 -35.777,23.692 -35.777,45.825 0,22.132 15.227,40.707 35.777,45.823 z M 0,97.311 c -3.432,0 -6.781,-0.346 -10.018,-1.002 -3.236,0.656 -6.586,1.002 -10.017,1.002 -27.662,0 -50.085,-22.424 -50.085,-50.086 0,-27.662 22.423,-50.086 50.085,-50.086 3.431,0 6.781,0.345 10.017,1.003 3.237,-0.658 6.586,-1.003 10.018,-1.003 27.662,0 50.086,22.424 50.086,50.086 0,27.662 -22.424,50.086 -50.086,50.086"
             style="fill:#231f20;fill-opacity:1;fill-rule:nonzero;stroke:none"
             id="path276"
             inkscape:connector-curvature="0" /></g><g
           id="g278"
           transform="translate(440.4268,115.9375)"><path
             d="M 0,0 C 0,-22.133 15.227,-40.705 35.776,-45.824 V 45.823 C 15.227,40.707 0,22.133 0,0"
             style="fill:#ffffff;fill-opacity:1;fill-rule:nonzero;stroke:none"
             id="path280"
             inkscape:connector-curvature="0" /></g><g
           id="g282"
           transform="translate(514.8418,115.9375)"><path
             d="M 0,0 C 0,22.133 -15.229,40.707 -35.777,45.823 V -45.824 C -15.229,-40.707 0,-22.133 0,0"
             style="fill:#ee3423;fill-opacity:1;fill-rule:nonzero;stroke:none"
             id="path284"
             inkscape:connector-curvature="0" /></g><g
           id="g286"
           transform="translate(437.5645,115.9375)"><path
             d="m 0,0 c 0,21.693 13.79,40.162 33.084,47.124 -1.003,0.064 -2.013,0.099 -3.032,0.099 C 3.97,47.223 -17.171,26.081 -17.171,0 c 0,-26.081 21.141,-47.225 47.223,-47.225 1.019,0 2.029,0.037 3.032,0.101 C 13.79,-40.163 0,-21.692 0,0"
             style="fill:#ee3423;fill-opacity:1;fill-rule:nonzero;stroke:none"
             id="path288"
             inkscape:connector-curvature="0" /></g><g
           id="g290"
           transform="translate(487.6514,163.1602)"><path
             d="m 0,0 c -1.02,0 -2.029,-0.035 -3.032,-0.099 19.292,-6.962 33.085,-25.43 33.085,-47.124 0,-21.692 -13.793,-40.163 -33.085,-47.124 1.003,-0.064 2.012,-0.1 3.032,-0.1 26.08,0 47.223,21.143 47.223,47.224 C 47.223,-21.142 26.08,0 0,0"
             style="fill:#ffffff;fill-opacity:1;fill-rule:nonzero;stroke:none"
             id="path292"
             inkscape:connector-curvature="0" /></g><g
           id="g294"
           transform="translate(545.0107,547.3423)"><path
             d="m 0,0 c -3.852,-4.715 -8.293,-8.893 -12.263,-13.497 -1.274,1.196 -1.862,2.776 -2.196,4.595 -0.16,0.875 -2.928,0.211 -2.754,-0.738 0.484,-2.64 1.508,-4.583 3.84,-5.975 0.656,-0.393 1.939,0.101 2.377,0.637 4.264,5.221 9.283,9.752 13.547,14.972 C 3.287,0.896 0.528,0.647 0,0"
             style="fill:#231f20;fill-opacity:1;fill-rule:nonzero;stroke:none"
             id="path296"
             inkscape:connector-curvature="0" /></g><g
           id="g298"
           transform="translate(369.3643,189.1299)"><path
             d="m 0,0 c 0.404,0.367 -1.566,0.115 -1.926,-0.209 -2.494,-2.266 -4.72,-4.867 -6.72,-7.639 -1.163,1.971 -2.237,3.993 -3.157,6.09 -0.281,0.641 -2.371,-0.047 -2.14,-0.572 1.13,-2.578 2.494,-5.039 3.969,-7.438 -1.664,-2.496 -3.167,-5.095 -4.505,-7.711 -0.116,-0.226 1.839,-0.115 2.104,0.403 1.008,1.969 2.115,3.935 3.309,5.857 1.648,-2.57 3.412,-5.074 5.164,-7.56 0.349,-0.494 2.42,0.191 2.002,0.785 -2.021,2.865 -4.049,5.754 -5.897,8.746 C -5.532,-5.867 -2.958,-2.686 0,0"
             style="fill:#ffffff;fill-opacity:1;fill-rule:nonzero;stroke:none"
             id="path300"
             inkscape:connector-curvature="0" /></g><g
           id="g302"
           transform="translate(192.2275,189.1299)"><path
             d="m 0,0 c 0.404,0.367 -1.566,0.115 -1.926,-0.209 -2.494,-2.266 -4.72,-4.867 -6.72,-7.639 -1.163,1.971 -2.237,3.993 -3.157,6.09 -0.281,0.641 -2.371,-0.047 -2.14,-0.572 1.13,-2.578 2.494,-5.039 3.969,-7.438 -1.665,-2.496 -3.167,-5.095 -4.505,-7.711 -0.116,-0.226 1.839,-0.115 2.104,0.403 1.008,1.969 2.115,3.935 3.309,5.857 1.648,-2.57 3.412,-5.074 5.164,-7.56 0.349,-0.494 2.42,0.191 2.002,0.785 -2.021,2.865 -4.049,5.754 -5.897,8.746 C -5.532,-5.867 -2.958,-2.686 0,0"
             style="fill:#ffffff;fill-opacity:1;fill-rule:nonzero;stroke:none"
             id="path304"
             inkscape:connector-curvature="0" /></g><g
           id="g306"
           transform="translate(189.3643,544.1045)"><path
             d="m 0,0 c 0.404,0.367 -1.566,0.113 -1.926,-0.211 -2.494,-2.264 -4.72,-4.865 -6.72,-7.637 -1.163,1.971 -2.237,3.991 -3.157,6.09 -0.281,0.641 -2.371,-0.047 -2.14,-0.574 1.13,-2.576 2.494,-5.039 3.969,-7.436 -1.664,-2.496 -3.167,-5.095 -4.505,-7.712 -0.116,-0.227 1.839,-0.114 2.104,0.402 1.008,1.971 2.115,3.937 3.309,5.859 1.648,-2.572 3.412,-5.076 5.164,-7.56 0.349,-0.496 2.42,0.191 2.002,0.785 -2.021,2.865 -4.049,5.752 -5.897,8.744 C -5.532,-5.867 -2.958,-2.686 0,0"
             style="fill:#231f20;fill-opacity:1;fill-rule:nonzero;stroke:none"
             id="path308"
             inkscape:connector-curvature="0" /></g><path
           d="m 382.641,390.944 h -170 v 170 h 170 z"
           style="fill:none;stroke:#231f20;stroke-width:0.25;stroke-linecap:butt;stroke-linejoin:round;stroke-miterlimit:10;stroke-dasharray:none;stroke-opacity:1"
           id="path310"
           inkscape:connector-curvature="0" /><g
           id="g312"
           transform="translate(257.5215,476.0098)"><path
             d="M 0,0 C 0,24.264 17.229,44.5 40.119,49.146 36.881,49.803 33.525,50.15 30.09,50.15 2.393,50.15 -20.061,27.698 -20.061,0 c 0,-27.699 22.454,-50.152 50.151,-50.152 3.435,0 6.791,0.347 10.029,1.006 C 17.229,-44.501 0,-24.265 0,0"
             style="fill:#ee3423;fill-opacity:1;fill-rule:nonzero;stroke:none"
             id="path314"
             inkscape:connector-curvature="0" /></g><g
           id="g316"
           transform="translate(297.6406,525.1553)"><path
             d="m 0,0 c -22.891,-4.646 -40.119,-24.882 -40.119,-49.146 0,-24.264 17.228,-44.5 40.119,-49.146 z"
             style="fill:#ffffff;fill-opacity:1;fill-rule:nonzero;stroke:none"
             id="path318"
             inkscape:connector-curvature="0" /></g><g
           id="g320"
           transform="translate(337.7637,476.0088)"><path
             d="m 0,0 c 0,-24.264 -17.23,-44.5 -40.123,-49.146 3.24,-0.658 6.597,-1.005 10.031,-1.005 27.697,0 50.151,22.453 50.151,50.151 0,27.699 -22.454,50.151 -50.151,50.151 -3.434,0 -6.791,-0.347 -10.031,-1.005 C -17.23,44.501 0,24.265 0,0"
             style="fill:#ffffff;fill-opacity:1;fill-rule:nonzero;stroke:none"
             id="path322"
             inkscape:connector-curvature="0" /></g><g
           id="g324"
           transform="translate(297.6406,426.8633)"><path
             d="M 0,0 C 22.893,4.646 40.123,24.882 40.123,49.146 40.123,73.41 22.893,93.646 0,98.292 Z"
             style="fill:#ee3423;fill-opacity:1;fill-rule:nonzero;stroke:none"
             id="path326"
             inkscape:connector-curvature="0" /></g></g></g><g
       id="g328"><g
         id="g330"
         clip-path="url(#clipPath334)"><g
           id="g336"><g
             id="g338" /><g
             id="g362"
             mask="url(#mask350)"><g
               id="g364"><path
                 d="m 297.641,525.155 c -3.238,0.657 -6.595,1.005 -10.03,1.005 v 0 c -27.697,0 -50.151,-22.452 -50.151,-50.15 v 0 c 0,-27.699 22.454,-50.153 50.151,-50.153 v 0 c 3.435,0 6.792,0.348 10.03,1.007 v 0 c 3.24,-0.659 6.596,-1.007 10.031,-1.007 v 0 c 27.697,0 50.15,22.454 50.15,50.152 v 0 c 0,27.699 -22.453,50.151 -50.15,50.151 v 0 c -3.435,0 -6.791,-0.348 -10.031,-1.005"
                 style="fill:url(#radialGradient370);stroke:none"
                 id="path372"
                 inkscape:connector-curvature="0" /></g></g></g></g></g><g
       id="g374"><g
         id="g376"
         clip-path="url(#clipPath380)"><g
           id="g382"
           transform="translate(307.6719,526.1602)"><path
             d="M 0,0 C -3.435,0 -6.791,-0.348 -10.031,-1.005 -13.27,-0.348 -16.625,0 -20.061,0 c -27.697,0 -50.15,-22.452 -50.15,-50.15 0,-27.7 22.453,-50.153 50.15,-50.153 3.436,0 6.791,0.348 10.03,1.006 3.24,-0.658 6.596,-1.006 10.031,-1.006 27.697,0 50.15,22.453 50.15,50.152 C 50.15,-22.452 27.697,0 0,0 Z"
             style="fill:none;stroke:#ee3423;stroke-width:1;stroke-linecap:butt;stroke-linejoin:miter;stroke-miterlimit:10;stroke-dasharray:none;stroke-opacity:1"
             id="path384"
             inkscape:connector-curvature="0" /></g><g
           id="g386"
           transform="translate(369.3643,544.1045)"><path
             d="m 0,0 c 0.404,0.367 -1.566,0.113 -1.926,-0.211 -2.494,-2.264 -4.72,-4.865 -6.72,-7.637 -1.163,1.971 -2.237,3.991 -3.157,6.09 -0.281,0.641 -2.371,-0.047 -2.14,-0.574 1.13,-2.576 2.494,-5.039 3.969,-7.436 -1.664,-2.496 -3.167,-5.095 -4.505,-7.712 -0.116,-0.227 1.839,-0.114 2.104,0.402 1.008,1.971 2.115,3.937 3.309,5.859 1.648,-2.572 3.412,-5.076 5.164,-7.56 0.349,-0.496 2.42,0.191 2.002,0.785 -2.021,2.865 -4.049,5.752 -5.897,8.744 C -5.532,-5.867 -2.958,-2.686 0,0"
             style="fill:#231f20;fill-opacity:1;fill-rule:nonzero;stroke:none"
             id="path388"
             inkscape:connector-curvature="0" /></g><g
           id="g390"
           transform="translate(368.4492,364.1113)"><path
             d="m 0,0 c 0.404,0.367 -1.566,0.113 -1.926,-0.211 -2.494,-2.264 -4.72,-4.865 -6.72,-7.637 -1.163,1.971 -2.237,3.991 -3.157,6.09 -0.281,0.641 -2.371,-0.047 -2.14,-0.574 1.13,-2.576 2.494,-5.039 3.97,-7.436 -1.666,-2.496 -3.168,-5.095 -4.506,-7.712 -0.116,-0.227 1.839,-0.114 2.104,0.402 1.008,1.971 2.115,3.937 3.309,5.859 1.648,-2.572 3.412,-5.076 5.164,-7.56 0.349,-0.496 2.42,0.191 2.002,0.785 -2.021,2.865 -4.049,5.752 -5.897,8.744 C -5.532,-5.867 -2.958,-2.686 0,0"
             style="fill:#231f20;fill-opacity:1;fill-rule:nonzero;stroke:none"
             id="path392"
             inkscape:connector-curvature="0" /></g><g
           id="g394"
           transform="translate(548.4492,184.9727)"><path
             d="m 0,0 c 0.404,0.367 -1.566,0.113 -1.926,-0.211 -2.494,-2.264 -4.72,-4.865 -6.72,-7.637 -1.163,1.971 -2.237,3.991 -3.157,6.09 -0.281,0.641 -2.371,-0.047 -2.14,-0.574 1.13,-2.576 2.494,-5.039 3.97,-7.436 -1.666,-2.496 -3.168,-5.095 -4.506,-7.712 -0.116,-0.227 1.839,-0.114 2.104,0.402 1.008,1.971 2.115,3.937 3.309,5.859 1.648,-2.572 3.412,-5.076 5.164,-7.56 0.349,-0.496 2.42,0.191 2.002,0.785 -2.021,2.865 -4.049,5.752 -5.897,8.744 C -5.532,-5.867 -2.958,-2.686 0,0"
             style="fill:#ffffff;fill-opacity:1;fill-rule:nonzero;stroke:none"
             id="path396"
             inkscape:connector-curvature="0" /></g><g
           id="g398"
           transform="translate(552.2207,364.1123)"><path
             d="m 0,0 c 0.404,0.367 -1.566,0.113 -1.926,-0.211 -2.494,-2.264 -4.72,-4.865 -6.72,-7.637 -1.163,1.971 -2.237,3.991 -3.157,6.09 -0.281,0.641 -2.371,-0.047 -2.14,-0.574 1.13,-2.576 2.494,-5.039 3.969,-7.436 -1.665,-2.496 -3.167,-5.095 -4.505,-7.712 -0.116,-0.227 1.839,-0.114 2.104,0.402 1.008,1.971 2.115,3.937 3.309,5.859 1.648,-2.572 3.412,-5.076 5.164,-7.56 0.349,-0.496 2.42,0.191 2.002,0.785 -2.021,2.865 -4.049,5.752 -5.897,8.744 C -5.532,-5.867 -2.958,-2.686 0,0"
             style="fill:#231f20;fill-opacity:1;fill-rule:nonzero;stroke:none"
             id="path400"
             inkscape:connector-curvature="0" /></g><g
           id="g402"
           transform="translate(192.2275,364.9863)"><path
             d="m 0,0 c 0.404,0.367 -1.566,0.113 -1.926,-0.211 -2.494,-2.264 -4.72,-4.865 -6.72,-7.637 -1.163,1.971 -2.237,3.991 -3.157,6.09 -0.281,0.641 -2.371,-0.047 -2.14,-0.574 1.13,-2.576 2.494,-5.039 3.969,-7.436 -1.665,-2.496 -3.167,-5.095 -4.505,-7.712 -0.116,-0.227 1.839,-0.114 2.104,0.402 1.008,1.971 2.115,3.937 3.309,5.859 1.648,-2.572 3.412,-5.076 5.164,-7.56 0.349,-0.496 2.42,0.191 2.002,0.785 -2.021,2.865 -4.049,5.752 -5.897,8.744 C -5.532,-5.867 -2.958,-2.686 0,0"
             style="fill:#231f20;fill-opacity:1;fill-rule:nonzero;stroke:none"
             id="path404"
             inkscape:connector-curvature="0" /></g></g></g><text
       transform="matrix(1,0,0,-1,212.6401,16.8047)"
       style="font-variant:normal;font-weight:normal;font-stretch:normal;font-size:10px;font-family:'HelveticaNeueLT Com 55 Roman';-inkscape-font-specification:HelveticaNeueLTCom-Roman;writing-mode:lr-tb;fill:#231f20;fill-opacity:1;fill-rule:nonzero;stroke:none"
       id="text408"><tspan
         x="0"
         y="0"
         id="tspan406">8</tspan></text>
</g></svg>