<?xml version="1.0" encoding="UTF-8" standalone="no"?>
<!-- Created with Inkscape (http://www.inkscape.org/) -->

<svg
   xmlns:dc="http://purl.org/dc/elements/1.1/"
   xmlns:cc="http://creativecommons.org/ns#"
   xmlns:rdf="http://www.w3.org/1999/02/22-rdf-syntax-ns#"
   xmlns:svg="http://www.w3.org/2000/svg"
   xmlns="http://www.w3.org/2000/svg"
   xmlns:sodipodi="http://sodipodi.sourceforge.net/DTD/sodipodi-0.dtd"
   xmlns:inkscape="http://www.inkscape.org/namespaces/inkscape"
   version="1.1"
   id="svg2"
   xml:space="preserve"
   width="793.70667"
   height="1122.52"
   viewBox="0 0 793.70667 1122.52"
   sodipodi:docname="p1.ai.svg"
   inkscape:version="0.92.2 5c3e80d, 2017-08-06"><metadata
     id="metadata8"><rdf:RDF><cc:Work
         rdf:about=""><dc:format>image/svg+xml</dc:format><dc:type
           rdf:resource="http://purl.org/dc/dcmitype/StillImage" /><dc:title></dc:title></cc:Work></rdf:RDF></metadata><defs
     id="defs6"><clipPath
       clipPathUnits="userSpaceOnUse"
       id="clipPath78"><path
         d="M 0,841.89 H 595.28 V 0 H 0 Z"
         id="path76"
         inkscape:connector-curvature="0" /></clipPath></defs><sodipodi:namedview
     pagecolor="#ffffff"
     bordercolor="#666666"
     borderopacity="1"
     objecttolerance="10"
     gridtolerance="10"
     guidetolerance="10"
     inkscape:pageopacity="0"
     inkscape:pageshadow="2"
     inkscape:window-width="1920"
     inkscape:window-height="1036"
     id="namedview4"
     showgrid="false"
     inkscape:zoom="0.84096496"
     inkscape:cx="276.11422"
     inkscape:cy="654.06262"
     inkscape:window-x="0"
     inkscape:window-y="20"
     inkscape:window-maximized="0"
     inkscape:current-layer="g10" /><g
     id="g10"
     inkscape:groupmode="layer"
     inkscape:label="branding3"
     transform="matrix(1.3333333,0,0,-1.3333333,0,1122.52)"><text
       transform="matrix(1,0,0,-1,392.6401,797.4448)"
       style="font-variant:normal;font-weight:500;font-stretch:normal;font-size:18px;font-family:'HelveticaNeueLT Com 65 Md';-inkscape-font-specification:HelveticaNeueLTCom-Md;writing-mode:lr-tb;fill:#231f20;fill-opacity:1;fill-rule:nonzero;stroke:none"
       id="text14"><tspan
         x="0 13.968 21.167999 27.486 37.709999 42.93 56.214001 67.103996 78.012001"
         y="0"
         sodipodi:role="line"
         id="tspan12">Orta Doğu</tspan></text>
<text
       transform="matrix(1,0,0,-1,392.6401,778.4368)"
       style="font-variant:normal;font-weight:500;font-stretch:normal;font-size:18px;font-family:'HelveticaNeueLT Com 65 Md';-inkscape-font-specification:HelveticaNeueLTCom-Md;writing-mode:lr-tb;fill:#231f20;fill-opacity:1;fill-rule:nonzero;stroke:none"
       id="text20"><tspan
         x="0 9.3240004 19.566 29.573999 40.049999 44.495998 54.377998"
         y="0"
         sodipodi:role="line"
         id="tspan16">Teknik </tspan><tspan
         x="0 13.176 23.652 28.152 37.332001 47.591999 54.467999 64.043999 68.561996 74.538002 84.797997 94.374001"
         y="19.007999"
         sodipodi:role="line"
         id="tspan18">Üniversitesi</tspan></text>
<text
       transform="matrix(1,0,0,-1,392.6401,703.0888)"
       style="font-variant:normal;font-weight:300;font-stretch:normal;font-size:18px;font-family:'HelveticaNeueLT Com 45 Lt';-inkscape-font-specification:HelveticaNeueLTCom-Lt;writing-mode:lr-tb;fill:#231f20;fill-opacity:1;fill-rule:nonzero;stroke:none"
       id="text24"><tspan
         x="0 12.132 21.743999 30.6 45.737999 49.284 54.504002 64.061996 79.199997 89.676003 93.204002 102.798 117.936 121.428"
         y="0"
         sodipodi:role="line"
         id="tspan22">Resmi amblemin</tspan></text>
<text
       transform="matrix(1,0,0,-1,392.6401,684.0808)"
       style="font-variant:normal;font-weight:300;font-stretch:normal;font-size:18px;font-family:'HelveticaNeueLT Com 45 Lt';-inkscape-font-specification:HelveticaNeueLTCom-Lt;writing-mode:lr-tb;fill:#231f20;fill-opacity:1;fill-rule:nonzero;stroke:none"
       id="text30"><tspan
         x="0 5.0760002 14.67 29.862 39.473999 43.02 48.240002 57.456001 67.265999 70.739998 74.267998 83.844002 93.653999 97.127998"
         y="0"
         sodipodi:role="line"
         id="tspan26">temel kullanım</tspan><tspan
         x="0 8.7480001 14.202 23.778 33.605999 44.099998 53.658001 60.066002 65.358002 68.886002 78.444 84.365997"
         y="19.007999"
         sodipodi:role="line"
         id="tspan28">standartları</tspan></text>
<text
       transform="matrix(1,0,0,-1,212.6401,797.4088)"
       style="font-variant:normal;font-weight:500;font-stretch:normal;font-size:18px;font-family:'HelveticaNeueLT Com 65 Md';-inkscape-font-specification:HelveticaNeueLTCom-Md;writing-mode:lr-tb;fill:#231f20;fill-opacity:1;fill-rule:nonzero;stroke:none"
       id="text38"><tspan
         x="0 16.164 20.681999 31.878 43.001999 47.52 57.743999 62.964001 74.556 84.888 94.482002 100.692"
         y="0"
         sodipodi:role="line"
         id="tspan32">Middle East </tspan><tspan
         x="0 9.3240004 19.620001 29.826 40.32 50.796001 55.313999 65.538002 75.834 80.388"
         y="19.007999"
         sodipodi:role="line"
         id="tspan34">Technical </tspan><tspan
         x="0 13.176 23.652 28.152 37.332001 47.591999 54.467999 64.043999 68.561996 75.167999"
         y="38.015999"
         sodipodi:role="line"
         id="tspan36">University</tspan></text>
<text
       transform="matrix(1,0,0,-1,212.6401,703.0528)"
       style="font-variant:normal;font-weight:300;font-stretch:normal;font-size:18px;font-family:'HelveticaNeueLT Com 45 Lt';-inkscape-font-specification:HelveticaNeueLTCom-Lt;writing-mode:lr-tb;fill:#231f20;fill-opacity:1;fill-rule:nonzero;stroke:none"
       id="text44"><tspan
         x="0 12.168 21.708 30.528 34.056 43.613998 48.834 57.582001 63.035999 72.612 82.440002 92.933998 102.492 108.108 118.584"
         y="0"
         sodipodi:role="line"
         id="tspan40">Basic standards</tspan><tspan
         x="0 4.5900002 14.778 20.664 25.884001 31.212 41.076 50.633999 55.854 65.681999 74.484001 84.042 89.262001 99.162003 104.04 109.26 114.588 124.452 134.00999"
         y="19.007999"
         sodipodi:role="line"
         id="tspan42">for the use of the </tspan></text>
<text
       transform="matrix(1,0,0,-1,212.6401,665.0368)"
       style="font-variant:normal;font-weight:300;font-stretch:normal;font-size:18px;font-family:'HelveticaNeueLT Com 45 Lt';-inkscape-font-specification:HelveticaNeueLTCom-Lt;writing-mode:lr-tb;fill:#231f20;fill-opacity:1;fill-rule:nonzero;stroke:none"
       id="text48"><tspan
         x="0 9.8999996 15.3 23.472 32.976002 36.504002 46.043999 49.59 54.810001 63.450001 72.036003 87.174004 97.685997 107.874 111.42"
         y="0"
         sodipodi:role="line"
         id="tspan46">ofﬁcial symbol </tspan></text>
<g
       id="g50"
       transform="translate(27.6399,30.9447)"><path
         d="M 0,0 V 780 Z"
         style="fill:#231f20;fill-opacity:1;fill-rule:nonzero;stroke:none"
         id="path52"
         inkscape:connector-curvature="0" /></g><g
       id="g54"
       transform="translate(27.6401,810.9448)"><path
         d="M 0,0 V -780"
         style="fill:none;stroke:#231f20;stroke-width:0.5;stroke-linecap:butt;stroke-linejoin:miter;stroke-miterlimit:10;stroke-dasharray:none;stroke-opacity:1"
         id="path56"
         inkscape:connector-curvature="0" /></g><g
       id="g58"
       transform="translate(567.6399,30.9447)"><path
         d="M 0,0 V 780 Z"
         style="fill:#231f20;fill-opacity:1;fill-rule:nonzero;stroke:none"
         id="path60"
         inkscape:connector-curvature="0" /></g><g
       id="g62"
       transform="translate(567.6401,810.9448)"><path
         d="M 0,0 V -780"
         style="fill:none;stroke:#231f20;stroke-width:0.5;stroke-linecap:butt;stroke-linejoin:miter;stroke-miterlimit:10;stroke-dasharray:none;stroke-opacity:1"
         id="path64"
         inkscape:connector-curvature="0" /></g><path
       d="M 177.743,390.843 H 57.537 v 120.205 h 120.206 z"
       style="fill:none;stroke:#c8cace;stroke-width:0.25;stroke-linecap:butt;stroke-linejoin:round;stroke-miterlimit:10;stroke-dasharray:none;stroke-opacity:1"
       id="path66"
       inkscape:connector-curvature="0" /><g
       id="g68"
       transform="translate(57.5371,511.0479)"><path
         d="M 0,0 120.207,-120.203 V 0.004 L 0,-120.199"
         style="fill:none;stroke:#c8cace;stroke-width:0.25;stroke-linecap:butt;stroke-linejoin:round;stroke-miterlimit:10;stroke-dasharray:none;stroke-opacity:1"
         id="path70"
         inkscape:connector-curvature="0" /></g><g
       id="g72"><g
         id="g74"
         clip-path="url(#clipPath78)"><g
           id="g80"
           transform="translate(127.6567,403.7217)"><path
             d="m 0,0 c -1.019,0 -2.029,0.035 -3.031,0.1 19.292,6.961 33.083,25.43 33.083,47.123 0,21.693 -13.791,40.163 -33.083,47.125 1.002,0.063 2.012,0.099 3.031,0.099 26.082,0 47.224,-21.143 47.224,-47.224 C 47.224,21.142 26.082,0 0,0 m -67.257,47.223 c 0,26.081 21.142,47.224 47.224,47.224 1.018,0 2.029,-0.036 3.031,-0.099 C -36.294,87.386 -50.085,68.916 -50.085,47.223 -50.085,25.53 -36.294,7.061 -17.002,0.1 -18.004,0.035 -19.015,0 -20.033,0 -46.115,0 -67.257,21.142 -67.257,47.223 M -8.586,93.046 C 11.963,87.93 27.19,69.357 27.19,47.223 27.19,25.09 11.963,6.517 -8.586,1.399 Z M -11.448,1.399 c -20.549,5.118 -35.775,23.691 -35.775,45.824 0,22.133 15.226,40.706 35.775,45.823 z M 0,97.309 c -3.43,0 -6.78,-0.346 -10.016,-1.002 -3.237,0.656 -6.587,1.002 -10.017,1.002 -27.662,0 -50.087,-22.424 -50.087,-50.086 0,-27.662 22.425,-50.086 50.087,-50.086 3.43,0 6.78,0.345 10.017,1.004 C -6.78,-2.518 -3.43,-2.863 0,-2.863 c 27.662,0 50.086,22.424 50.086,50.086 0,27.662 -22.424,50.086 -50.086,50.086"
             style="fill:#231f20;fill-opacity:1;fill-rule:nonzero;stroke:none"
             id="path82"
             inkscape:connector-curvature="0" /></g><g
           id="g84"
           transform="translate(80.4336,450.9448)"><path
             d="M 0,0 C 0,-22.133 15.227,-40.707 35.775,-45.824 V 45.823 C 15.227,40.706 0,22.133 0,0"
             style="fill:#ffffff;fill-opacity:1;fill-rule:nonzero;stroke:none"
             id="path86"
             inkscape:connector-curvature="0" /></g><g
           id="g88"
           transform="translate(154.8472,450.9448)"><path
             d="M 0,0 C 0,22.134 -15.227,40.707 -35.777,45.823 V -45.824 C -15.227,-40.707 0,-22.133 0,0"
             style="fill:#ee3423;fill-opacity:1;fill-rule:nonzero;stroke:none"
             id="path90"
             inkscape:connector-curvature="0" /></g><g
           id="g92"
           transform="translate(77.5713,450.9448)"><path
             d="m 0,0 c 0,21.692 13.792,40.163 33.083,47.125 -1.002,0.063 -2.012,0.099 -3.031,0.099 -26.081,0 -47.223,-21.143 -47.223,-47.224 0,-26.082 21.142,-47.223 47.223,-47.223 1.019,0 2.029,0.035 3.031,0.099 C 13.792,-40.163 0,-21.693 0,0"
             style="fill:#ee3423;fill-opacity:1;fill-rule:nonzero;stroke:none"
             id="path94"
             inkscape:connector-curvature="0" /></g><g
           id="g96"
           transform="translate(127.6567,498.1685)"><path
             d="m 0,0 c -1.018,0 -2.029,-0.036 -3.031,-0.099 19.292,-6.962 33.083,-25.432 33.083,-47.125 0,-21.693 -13.791,-40.162 -33.083,-47.123 1.002,-0.065 2.013,-0.1 3.031,-0.1 26.082,0 47.224,21.142 47.224,47.223 C 47.224,-21.143 26.082,0 0,0"
             style="fill:#ffffff;fill-opacity:1;fill-rule:nonzero;stroke:none"
             id="path98"
             inkscape:connector-curvature="0" /></g><g
           id="g100"
           transform="translate(382.6401,450.9448)"><path
             d="m 0,0 c 0,-46.944 -38.056,-85 -85,-85 -46.944,0 -85,38.056 -85,85 0,46.945 38.056,85 85,85 C -38.056,85 0,46.945 0,0 Z"
             style="fill:none;stroke:#c8cace;stroke-width:0.25;stroke-linecap:butt;stroke-linejoin:round;stroke-miterlimit:10;stroke-dasharray:none;stroke-opacity:1"
             id="path102"
             inkscape:connector-curvature="0" /></g><g
           id="g104"
           transform="translate(237.5371,511.0479)"><path
             d="M 0,0 120.207,-120.203 V 0.004 L 0,-120.199"
             style="fill:none;stroke:#c8cace;stroke-width:0.25;stroke-linecap:butt;stroke-linejoin:round;stroke-miterlimit:10;stroke-dasharray:none;stroke-opacity:1"
             id="path106"
             inkscape:connector-curvature="0" /></g><path
           d="M 357.743,390.843 H 237.537 v 120.205 h 120.206 z"
           style="fill:none;stroke:#c8cace;stroke-width:0.25;stroke-linecap:butt;stroke-linejoin:round;stroke-miterlimit:10;stroke-dasharray:none;stroke-opacity:1"
           id="path108"
           inkscape:connector-curvature="0" /><g
           id="g110"
           transform="translate(307.6567,403.7217)"><path
             d="m 0,0 c -1.019,0 -2.029,0.035 -3.031,0.1 19.292,6.961 33.083,25.43 33.083,47.123 0,21.693 -13.791,40.163 -33.083,47.125 1.002,0.063 2.012,0.099 3.031,0.099 26.082,0 47.224,-21.143 47.224,-47.224 C 47.224,21.142 26.082,0 0,0 m -67.257,47.223 c 0,26.081 21.142,47.224 47.224,47.224 1.018,0 2.029,-0.036 3.031,-0.099 C -36.294,87.386 -50.085,68.916 -50.085,47.223 -50.085,25.53 -36.294,7.061 -17.002,0.1 -18.004,0.035 -19.015,0 -20.033,0 -46.115,0 -67.257,21.142 -67.257,47.223 M -8.586,93.046 C 11.963,87.93 27.19,69.357 27.19,47.223 27.19,25.09 11.963,6.517 -8.586,1.399 Z M -11.448,1.399 c -20.549,5.118 -35.775,23.691 -35.775,45.824 0,22.133 15.226,40.706 35.775,45.823 z M 0,97.309 c -3.43,0 -6.78,-0.346 -10.016,-1.002 -3.237,0.656 -6.587,1.002 -10.017,1.002 -27.662,0 -50.087,-22.424 -50.087,-50.086 0,-27.662 22.425,-50.086 50.087,-50.086 3.43,0 6.78,0.345 10.017,1.004 C -6.78,-2.518 -3.43,-2.863 0,-2.863 c 27.662,0 50.086,22.424 50.086,50.086 0,27.662 -22.424,50.086 -50.086,50.086"
             style="fill:#231f20;fill-opacity:1;fill-rule:nonzero;stroke:none"
             id="path112"
             inkscape:connector-curvature="0" /></g><g
           id="g114"
           transform="translate(260.4336,450.9448)"><path
             d="M 0,0 C 0,-22.133 15.227,-40.707 35.775,-45.824 V 45.823 C 15.227,40.706 0,22.133 0,0"
             style="fill:#ffffff;fill-opacity:1;fill-rule:nonzero;stroke:none"
             id="path116"
             inkscape:connector-curvature="0" /></g><g
           id="g118"
           transform="translate(334.8472,450.9448)"><path
             d="M 0,0 C 0,22.134 -15.227,40.707 -35.777,45.823 V -45.824 C -15.227,-40.707 0,-22.133 0,0"
             style="fill:#ee3423;fill-opacity:1;fill-rule:nonzero;stroke:none"
             id="path120"
             inkscape:connector-curvature="0" /></g><g
           id="g122"
           transform="translate(257.5713,450.9448)"><path
             d="m 0,0 c 0,21.692 13.792,40.163 33.083,47.125 -1.002,0.063 -2.012,0.099 -3.031,0.099 -26.081,0 -47.223,-21.143 -47.223,-47.224 0,-26.082 21.142,-47.223 47.223,-47.223 1.019,0 2.029,0.035 3.031,0.099 C 13.792,-40.163 0,-21.693 0,0"
             style="fill:#ee3423;fill-opacity:1;fill-rule:nonzero;stroke:none"
             id="path124"
             inkscape:connector-curvature="0" /></g><g
           id="g126"
           transform="translate(307.6567,498.1685)"><path
             d="m 0,0 c -1.018,0 -2.029,-0.036 -3.031,-0.099 19.292,-6.962 33.083,-25.432 33.083,-47.125 0,-21.693 -13.791,-40.162 -33.083,-47.123 1.002,-0.065 2.013,-0.1 3.031,-0.1 26.082,0 47.224,21.142 47.224,47.223 C 47.224,-21.143 26.082,0 0,0"
             style="fill:#ffffff;fill-opacity:1;fill-rule:nonzero;stroke:none"
             id="path128"
             inkscape:connector-curvature="0" /></g><g
           id="g130"
           transform="translate(562.6401,450.9448)"><path
             d="m 0,0 c 0,-46.944 -38.056,-85 -85,-85 -46.944,0 -85,38.056 -85,85 0,46.945 38.056,85 85,85 C -38.056,85 0,46.945 0,0 Z"
             style="fill:none;stroke:#c8cace;stroke-width:0.25;stroke-linecap:butt;stroke-linejoin:round;stroke-miterlimit:10;stroke-dasharray:none;stroke-opacity:1"
             id="path132"
             inkscape:connector-curvature="0" /></g><g
           id="g134"
           transform="translate(487.6567,403.7217)"><path
             d="m 0,0 c -1.019,0 -2.029,0.035 -3.031,0.1 19.292,6.961 33.083,25.43 33.083,47.123 0,21.693 -13.791,40.163 -33.083,47.125 1.002,0.063 2.012,0.099 3.031,0.099 26.082,0 47.224,-21.143 47.224,-47.224 C 47.224,21.142 26.082,0 0,0 m -67.257,47.223 c 0,26.081 21.142,47.224 47.224,47.224 1.018,0 2.029,-0.036 3.031,-0.099 C -36.294,87.386 -50.085,68.916 -50.085,47.223 -50.085,25.53 -36.294,7.061 -17.002,0.1 -18.004,0.035 -19.015,0 -20.033,0 -46.115,0 -67.257,21.142 -67.257,47.223 M -8.586,93.046 C 11.963,87.93 27.19,69.357 27.19,47.223 27.19,25.09 11.963,6.517 -8.586,1.399 Z M -11.448,1.399 c -20.549,5.118 -35.775,23.691 -35.775,45.824 0,22.133 15.226,40.706 35.775,45.823 z M 0,97.309 c -3.43,0 -6.78,-0.346 -10.016,-1.002 -3.237,0.656 -6.587,1.002 -10.017,1.002 -27.662,0 -50.087,-22.424 -50.087,-50.086 0,-27.662 22.425,-50.086 50.087,-50.086 3.43,0 6.78,0.345 10.017,1.004 C -6.78,-2.518 -3.43,-2.863 0,-2.863 c 27.662,0 50.086,22.424 50.086,50.086 0,27.662 -22.424,50.086 -50.086,50.086"
             style="fill:#231f20;fill-opacity:1;fill-rule:nonzero;stroke:none"
             id="path136"
             inkscape:connector-curvature="0" /></g><g
           id="g138"
           transform="translate(440.4336,450.9448)"><path
             d="M 0,0 C 0,-22.133 15.227,-40.707 35.775,-45.824 V 45.823 C 15.227,40.706 0,22.133 0,0"
             style="fill:#ffffff;fill-opacity:1;fill-rule:nonzero;stroke:none"
             id="path140"
             inkscape:connector-curvature="0" /></g><g
           id="g142"
           transform="translate(514.8472,450.9448)"><path
             d="M 0,0 C 0,22.134 -15.227,40.707 -35.777,45.823 V -45.824 C -15.227,-40.707 0,-22.133 0,0"
             style="fill:#ee3423;fill-opacity:1;fill-rule:nonzero;stroke:none"
             id="path144"
             inkscape:connector-curvature="0" /></g><g
           id="g146"
           transform="translate(437.5713,450.9448)"><path
             d="m 0,0 c 0,21.692 13.792,40.163 33.083,47.125 -1.002,0.063 -2.012,0.099 -3.031,0.099 -26.081,0 -47.223,-21.143 -47.223,-47.224 0,-26.082 21.142,-47.223 47.223,-47.223 1.019,0 2.029,0.035 3.031,0.099 C 13.792,-40.163 0,-21.693 0,0"
             style="fill:#ee3423;fill-opacity:1;fill-rule:nonzero;stroke:none"
             id="path148"
             inkscape:connector-curvature="0" /></g><g
           id="g150"
           transform="translate(487.6567,498.1685)"><path
             d="m 0,0 c -1.018,0 -2.029,-0.036 -3.031,-0.099 19.292,-6.962 33.083,-25.432 33.083,-47.125 0,-21.693 -13.791,-40.162 -33.083,-47.123 1.002,-0.065 2.013,-0.1 3.031,-0.1 26.082,0 47.224,21.142 47.224,47.223 C 47.224,-21.143 26.082,0 0,0"
             style="fill:#ffffff;fill-opacity:1;fill-rule:nonzero;stroke:none"
             id="path152"
             inkscape:connector-curvature="0" /></g></g></g></g></svg>