<?xml version="1.0" encoding="UTF-8" standalone="no"?>
<!-- Created with Inkscape (http://www.inkscape.org/) -->

<svg
   xmlns:dc="http://purl.org/dc/elements/1.1/"
   xmlns:cc="http://creativecommons.org/ns#"
   xmlns:rdf="http://www.w3.org/1999/02/22-rdf-syntax-ns#"
   xmlns:svg="http://www.w3.org/2000/svg"
   xmlns="http://www.w3.org/2000/svg"
   xmlns:sodipodi="http://sodipodi.sourceforge.net/DTD/sodipodi-0.dtd"
   xmlns:inkscape="http://www.inkscape.org/namespaces/inkscape"
   version="1.1"
   id="svg2"
   xml:space="preserve"
   width="793.70801"
   height="1122.52"
   viewBox="0 0 793.70801 1122.52"
   sodipodi:docname="p7.svg"
   inkscape:version="0.92.2 5c3e80d, 2017-08-06"><metadata
     id="metadata8"><rdf:RDF><cc:Work
         rdf:about=""><dc:format>image/svg+xml</dc:format><dc:type
           rdf:resource="http://purl.org/dc/dcmitype/StillImage" /><dc:title></dc:title></cc:Work></rdf:RDF></metadata><defs
     id="defs6" /><sodipodi:namedview
     pagecolor="#ffffff"
     bordercolor="#666666"
     borderopacity="1"
     objecttolerance="10"
     gridtolerance="10"
     guidetolerance="10"
     inkscape:pageopacity="0"
     inkscape:pageshadow="2"
     inkscape:window-width="1920"
     inkscape:window-height="1036"
     id="namedview4"
     showgrid="false"
     inkscape:zoom="0.21024124"
     inkscape:cx="-299.96457"
     inkscape:cy="561.26001"
     inkscape:window-x="0"
     inkscape:window-y="20"
     inkscape:window-maximized="0"
     inkscape:current-layer="g10" /><g
     id="g10"
     inkscape:groupmode="layer"
     inkscape:label="branding3"
     transform="matrix(1.3333333,0,0,-1.3333333,0,1122.52)"><text
       transform="matrix(1,0,0,-1,407.6387,708.8057)"
       style="font-variant:normal;font-weight:300;font-stretch:normal;font-size:10px;font-family:'HelveticaNeueLT Com 45 Lt';-inkscape-font-specification:HelveticaNeueLTCom-Lt;writing-mode:lr-tb;fill:#231f20;fill-opacity:1;fill-rule:nonzero;stroke:none"
       id="text18"><tspan
         x="0 6.5799999 15.1 21.030001 23.1 28.540001 37.060001 43.02 48.34 51.25 56.470001 62.029999 64.07 66.129997 71.559998 77.120003 79.160004 81.220001 86.57 92 97.419998 102.55 105.46 108.71 114.15 119.72 125.47 127.51 133.00999"
         y="0"
         sodipodi:role="line"
         id="tspan12">Amblemde kullanılacak rengin </tspan><tspan
         x="-15 -11.75 -6.3000002 -1.28 7.2399998 9.2200003 12.13 15.03 20.799999 26.35 31.85 34.759998 40.169998 45.220001 50.57 56.32 58.369999 64.309998 69.629997 72.540001 78.459999 83.870003 88.879997 90.919998 92.980003 98.410004 103.91 106.82 112.11 114.15 117.55 126.07 128.10001 132.89 134.94 140.86 142.89 145.41"
         y="11"
         sodipodi:role="line"
         id="tspan14">resmi tonu aşağıda basılan kırmızıdır.</tspan><tspan
         x="0 6.54 12.11 17.1 22.42 25.33 30.540001 35.889999 41.639999 43.700001 46.790001 49.700001 51.77 57.16 59.200001 64.699997 67.610001 73.949997 79.379997 84.870003 87.769997 93.540001 99.120003"
         y="22"
         sodipodi:role="line"
         id="tspan16">Kuşe kağıt için Pantone</tspan></text>
<text
       transform="matrix(1,0,0,-1,512.3232,690.1353)"
       style="font-variant:normal;font-weight:300;font-stretch:normal;font-size:5.82999992px;font-family:'HelveticaNeueLT Com 45 Lt';-inkscape-font-specification:HelveticaNeueLTCom-Lt;writing-mode:lr-tb;fill:#231f20;fill-opacity:1;fill-rule:nonzero;stroke:none"
       id="text22"><tspan
         x="0"
         y="0"
         id="tspan20">®</tspan></text>
<text
       transform="matrix(1,0,0,-1,519.973,686.8057)"
       style="font-variant:normal;font-weight:300;font-stretch:normal;font-size:10px;font-family:'HelveticaNeueLT Com 45 Lt';-inkscape-font-specification:HelveticaNeueLTCom-Lt;writing-mode:lr-tb;fill:#231f20;fill-opacity:1;fill-rule:nonzero;stroke:none"
       id="text28"><tspan
         x="0 4.8400002 10.29 15.67 21.360001 24.27 30.74 37.639999 40.549999"
         y="0"
         sodipodi:role="line"
         id="tspan24">1797 PC, </tspan><tspan
         x="-127.33 -121.4 -115.85 -111.09 -108.18 -102.97 -97.620003 -91.870003 -89.809998 -86.720001 -83.809998 -81.739998 -76.349998 -74.309998 -68.809998 -65.900002 -59.560001 -54.139999 -48.650002 -45.75 -39.98 -34.400002"
         y="11"
         sodipodi:role="line"
         id="tspan26">düz kağıt için Pantone</tspan></text>
<text
       transform="matrix(1,0,0,-1,491.1411,679.1353)"
       style="font-variant:normal;font-weight:300;font-stretch:normal;font-size:5.82999992px;font-family:'HelveticaNeueLT Com 45 Lt';-inkscape-font-specification:HelveticaNeueLTCom-Lt;writing-mode:lr-tb;fill:#231f20;fill-opacity:1;fill-rule:nonzero;stroke:none"
       id="text32"><tspan
         x="0"
         y="0"
         id="tspan30">®</tspan></text>
<text
       transform="matrix(1,0,0,-1,498.7909,675.8057)"
       style="font-variant:normal;font-weight:300;font-stretch:normal;font-size:10px;font-family:'HelveticaNeueLT Com 45 Lt';-inkscape-font-specification:HelveticaNeueLTCom-Lt;writing-mode:lr-tb;fill:#231f20;fill-opacity:1;fill-rule:nonzero;stroke:none"
       id="text42"><tspan
         x="0 4.8400002 10.29 15.67 21.360001 24.27 31.309999 37.740002 40.650002 46.57 48.599998 51.119999"
         y="0"
         sodipodi:role="line"
         id="tspan34">1797 UP dir.</tspan><tspan
         x="-271.14999 -265.31 -259.73001 -254.41 -251.5 -245.89 -242.78999 -238.14 -232.75 -230.69 -225.28 -223.3 -220.39 -214.98 -209.21001 -207.14 -201.38 -195.81 -192.53 -189.62 -186.72 -181.03 -178.12 -172.17 -166.85001 -163.94 -158.37 -153.38 -147.95 -142.08 -139.17 -137.13 -131.63"
         y="-33"
         sodipodi:role="line"
         id="tspan36">The ofﬁcial colour to be used in </tspan><tspan
         x="-286.14999 -283.07999 -277.5 -272.17999 -269.26999 -264.35999 -259.48999 -250.97 -245.02 -239.25 -237.27 -234.36 -232.31 -227.37 -224.46001 -221.39 -215.81 -210.49001 -207.58 -204.33 -198.89999 -193.03 -190.12 -184.17999 -180.78 -178.74001 -173.25 -170.31 -164.88 -159.00999 -156.10001 -150.14999 -144.71001 -142.64 -137.02 -130.00999"
         y="-22"
         sodipodi:role="line"
         id="tspan38">the symbol is the red printed below.</tspan><tspan
         x="-271.14999 -264.81 -259.38 -253.89 -250.99001 -245.22 -239.64"
         y="-11"
         sodipodi:role="line"
         id="tspan40">Pantone</tspan></text>
<text
       transform="matrix(1,0,0,-1,264.7017,690.1353)"
       style="font-variant:normal;font-weight:300;font-stretch:normal;font-size:5.82999992px;font-family:'HelveticaNeueLT Com 45 Lt';-inkscape-font-specification:HelveticaNeueLTCom-Lt;writing-mode:lr-tb;fill:#231f20;fill-opacity:1;fill-rule:nonzero;stroke:none"
       id="text46"><tspan
         x="0"
         y="0"
         id="tspan44">®</tspan></text>
<text
       transform="matrix(1,0,0,-1,272.3514,686.8057)"
       style="font-variant:normal;font-weight:300;font-stretch:normal;font-size:10px;font-family:'HelveticaNeueLT Com 45 Lt';-inkscape-font-specification:HelveticaNeueLTCom-Lt;writing-mode:lr-tb;fill:#231f20;fill-opacity:1;fill-rule:nonzero;stroke:none"
       id="text54"><tspan
         x="0 4.8400002 10.29 15.67 21.360001 24.27 30.74 37.91 40.82 43.48 49.25 52.529999 55.439999 60.849998 66.589996 71.879997 74.82 80.25 86.120003"
         y="0"
         sodipodi:role="line"
         id="tspan48">1797 PC for coated </tspan><tspan
         x="-59.709999 -53.790001 -48.369999 -42.419998 -36.98 -33.700001 -30.790001 -25.360001 -19.799999 -13.93"
         y="11"
         sodipodi:role="line"
         id="tspan50">paper and </tspan><tspan
         x="-44.709999 -38.369999 -32.939999 -27.450001 -24.549999 -18.780001 -13.2"
         y="22"
         sodipodi:role="line"
         id="tspan52">Pantone</tspan></text>
<text
       transform="matrix(1,0,0,-1,264.7017,668.1353)"
       style="font-variant:normal;font-weight:300;font-stretch:normal;font-size:5.82999992px;font-family:'HelveticaNeueLT Com 45 Lt';-inkscape-font-specification:HelveticaNeueLTCom-Lt;writing-mode:lr-tb;fill:#231f20;fill-opacity:1;fill-rule:nonzero;stroke:none"
       id="text58"><tspan
         x="0"
         y="0"
         id="tspan56">®</tspan></text>
<text
       transform="matrix(1,0,0,-1,272.3514,664.8057)"
       style="font-variant:normal;font-weight:300;font-stretch:normal;font-size:10px;font-family:'HelveticaNeueLT Com 45 Lt';-inkscape-font-specification:HelveticaNeueLTCom-Lt;writing-mode:lr-tb;fill:#231f20;fill-opacity:1;fill-rule:nonzero;stroke:none"
       id="text64"><tspan
         x="0 4.8400002 10.29 15.67 21.360001 24.27 31.309999 37.740002 40.650002 43.310001 49.080002 52.360001 55.27 60.84 66.410004 71.82 77.559998 82.849998 85.790001 91.220001 97.089996"
         y="0"
         sodipodi:role="line"
         id="tspan60">1797 UP for uncoated </tspan><tspan
         x="-59.709999 -53.790001 -48.369999 -42.419998 -36.98 -34.459999"
         y="11"
         sodipodi:role="line"
         id="tspan62">paper.</tspan></text>
<text
       transform="matrix(1,0,0,-1,212.6406,798.0928)"
       style="font-variant:normal;font-weight:500;font-stretch:normal;font-size:18px;font-family:'HelveticaNeueLT Com 65 Md';-inkscape-font-specification:HelveticaNeueLTCom-Md;writing-mode:lr-tb;fill:#231f20;fill-opacity:1;fill-rule:nonzero;stroke:none"
       id="text68"><tspan
         x="0 14.058 20.393999 30.582001 40.77 45.287998 55.584 60.138 65.358002 75.545998 86.382004 90.863998 101.682 112.194"
         y="0"
         sodipodi:role="line"
         id="tspan66">Ofﬁcial colour</tspan></text>
<text
       transform="matrix(1,0,0,-1,392.6406,798.0928)"
       style="font-variant:normal;font-weight:500;font-stretch:normal;font-size:18px;font-family:'HelveticaNeueLT Com 65 Md';-inkscape-font-specification:HelveticaNeueLTCom-Md;writing-mode:lr-tb;fill:#231f20;fill-opacity:1;fill-rule:nonzero;stroke:none"
       id="text74"><tspan
         x="0 12.384 28.188 39.348 43.866001 54.125999 69.93 74.412003 84.959999 90.18 96.821999 107.082 116.658 132.46201 137.01601"
         y="0"
         sodipodi:role="line"
         id="tspan70">Amblemin resmi </tspan><tspan
         x="0 6.6420002 16.902 27.414 38.285999"
         y="19.007999"
         sodipodi:role="line"
         id="tspan72">rengi</tspan></text>
<g
       id="g76"
       transform="translate(27.6406,810.9448)"><path
         d="M 0,0 V -780"
         style="fill:none;stroke:#231f20;stroke-width:0.5;stroke-linecap:butt;stroke-linejoin:miter;stroke-miterlimit:10;stroke-dasharray:none;stroke-opacity:1"
         id="path78"
         inkscape:connector-curvature="0" /></g><g
       id="g80"
       transform="translate(567.6387,810.9448)"><path
         d="M 0,0 V -780"
         style="fill:none;stroke:#231f20;stroke-width:0.5;stroke-linecap:butt;stroke-linejoin:miter;stroke-miterlimit:10;stroke-dasharray:none;stroke-opacity:1"
         id="path82"
         inkscape:connector-curvature="0" /></g><path
       d="M 562.634,560.938 H 32.641 V 30.945 h 529.993 z"
       style="fill:#ee3423;fill-opacity:1;fill-rule:nonzero;stroke:none"
       id="path84"
       inkscape:connector-curvature="0" /><text
       transform="matrix(1,0,0,-1,212.6401,16.8047)"
       style="font-variant:normal;font-weight:normal;font-stretch:normal;font-size:10px;font-family:'HelveticaNeueLT Com 55 Roman';-inkscape-font-specification:HelveticaNeueLTCom-Roman;writing-mode:lr-tb;fill:#231f20;fill-opacity:1;fill-rule:nonzero;stroke:none"
       id="text88"><tspan
         x="0 5.5599999"
         y="0"
         sodipodi:role="line"
         id="tspan86">10</tspan></text>
</g></svg>