<?xml version="1.0" encoding="UTF-8" standalone="no"?>
<!-- Created with Inkscape (http://www.inkscape.org/) -->

<svg
   xmlns:dc="http://purl.org/dc/elements/1.1/"
   xmlns:cc="http://creativecommons.org/ns#"
   xmlns:rdf="http://www.w3.org/1999/02/22-rdf-syntax-ns#"
   xmlns:svg="http://www.w3.org/2000/svg"
   xmlns="http://www.w3.org/2000/svg"
   xmlns:sodipodi="http://sodipodi.sourceforge.net/DTD/sodipodi-0.dtd"
   xmlns:inkscape="http://www.inkscape.org/namespaces/inkscape"
   version="1.1"
   id="svg2"
   xml:space="preserve"
   width="793.70801"
   height="1122.52"
   viewBox="0 0 793.70801 1122.52"
   sodipodi:docname="p5.svg"
   inkscape:version="0.92.2 5c3e80d, 2017-08-06"><metadata
     id="metadata8"><rdf:RDF><cc:Work
         rdf:about=""><dc:format>image/svg+xml</dc:format><dc:type
           rdf:resource="http://purl.org/dc/dcmitype/StillImage" /><dc:title></dc:title></cc:Work></rdf:RDF></metadata><defs
     id="defs6"><clipPath
       clipPathUnits="userSpaceOnUse"
       id="clipPath76"><path
         d="M 0,841.89 H 595.281 V 0 H 0 Z"
         id="path74"
         inkscape:connector-curvature="0" /></clipPath><clipPath
       clipPathUnits="userSpaceOnUse"
       id="clipPath418"><path
         d="M 0,841.89 H 595.281 V 0 H 0 Z"
         id="path416"
         inkscape:connector-curvature="0" /></clipPath></defs><sodipodi:namedview
     pagecolor="#ffffff"
     bordercolor="#666666"
     borderopacity="1"
     objecttolerance="10"
     gridtolerance="10"
     guidetolerance="10"
     inkscape:pageopacity="0"
     inkscape:pageshadow="2"
     inkscape:window-width="1920"
     inkscape:window-height="1036"
     id="namedview4"
     showgrid="false"
     inkscape:zoom="0.21024124"
     inkscape:cx="-299.96457"
     inkscape:cy="561.26001"
     inkscape:window-x="0"
     inkscape:window-y="20"
     inkscape:window-maximized="0"
     inkscape:current-layer="g10" /><g
     id="g10"
     inkscape:groupmode="layer"
     inkscape:label="branding3"
     transform="matrix(1.3333333,0,0,-1.3333333,0,1122.52)"><text
       transform="matrix(1,0,0,-1,407.6387,708.8057)"
       style="font-variant:normal;font-weight:300;font-stretch:normal;font-size:10px;font-family:'HelveticaNeueLT Com 45 Lt';-inkscape-font-specification:HelveticaNeueLTCom-Lt;writing-mode:lr-tb;fill:#231f20;fill-opacity:1;fill-rule:nonzero;stroke:none"
       id="text20"><tspan
         x="0 6.5799999 15.1 21.030001 23.1 28.540001 37 39.91 44.619999 50.240002 55.029999 57.080002 62.09 64.129997 69.690002 71.730003 77.230003 80.139999 85.830002 88.739998 93.790001 99.080002 102.14 104.18 107.46 110.37 116.14 118.18 126.72 132.13 137.14 139.12"
         y="0"
         sodipodi:role="line"
         id="tspan12">Amblem yazısının 3 satır olması </tspan><tspan
         x="-15 -9.4399996 -4.0300002 -1.99 0.050000001 5.6100001 11.57 16.889999 19.799999 25.379999 30.700001 33.610001 38.32 43.740002 49.669998 51.709999 53.75 62.290001 67.699997 72.709999 74.690002 77.599998 83.389999 88.830002 92.080002 97.519997 103 106.06 108.13 113.88 115.86 118.77 120.81 126.1 128.08 130.99001 136.91 138.94 140.99001 146.95 152.27"
         y="11"
         sodipodi:role="line"
         id="tspan14">halinde ne yapılması gerektiği iki dilde </tspan><tspan
         x="-15 -9.5900002 -4.54 0.81 6.5599999 8.6099997 14.55 19.870001 22.780001 28.549999 34.299999 39.27 42.209999 47.650002 51.049999 53.09 55.130001 63.650002 65.699997 70.669998 73.730003 75.769997 78.290001 81.199997"
         y="22"
         sodipodi:role="line"
         id="tspan16">aşağıda gösterilmiştir. </tspan><tspan
         x="0 6.5799999 15.1 21.030001 23.1 28.540001 37 39.91 44.619999 50.240002 55.029999 57.080002 62.09 64.129997 69.690002 71.730003 77.230003 80.139999 85.709999 91.269997 93.360001 98.050003 103.49 106.87 111.88 113.94 116.88 122.32 127.88 129.92999 135.42999"
         y="33"
         sodipodi:role="line"
         id="tspan18">Amblem yazısının üniversitenin </tspan></text>
<text
       transform="matrix(1,0,0,-1,392.6387,664.8057)"
       style="font-variant:normal;font-weight:300;font-stretch:normal;font-size:10px;font-family:'HelveticaNeueLT Com 45 Lt';-inkscape-font-specification:HelveticaNeueLTCom-Lt;writing-mode:lr-tb;fill:#231f20;fill-opacity:1;fill-rule:nonzero;stroke:none"
       id="text24"><tspan
         x="0 3.1400001 8.5600004 17.02 19.93 21.98 27 35.52 37.560001 43.119999 45.099998 48.009998 50.080002 55.5 60.939999 64.339996 72.879997 78.330002 83.339996 85.32 88.230003 93.790001 99.199997 101.24 103.28 108.84 114.8 120.12 123.03 128.45 136.97 142.89999 144.97 150.41 158.87"
         y="0"
         sodipodi:role="line"
         id="tspan22">tam ismini içermesi halinde amblem </tspan></text>
<text
       transform="matrix(1,0,0,-1,392.6387,653.8057)"
       style="font-variant:normal;font-weight:300;font-stretch:normal;font-size:10px;font-family:'HelveticaNeueLT Com 45 Lt';-inkscape-font-specification:HelveticaNeueLTCom-Lt;writing-mode:lr-tb;fill:#231f20;fill-opacity:1;fill-rule:nonzero;stroke:none"
       id="text36"><tspan
         x="0 4.71 10.33 15.12 17.17 22.18 23.98 26.889999 29.799999 34.790001 40.240002 45.25 47.299999 52.860001 54.900002 56.939999 62.23 64.300003 69.620003 72.529999 78.300003 83.870003 89.290001 94.730003 100.02 102 104.91 109.96 115.19 120.32 123.07 128.39 131.3 135.99001 141.31 144.22 150.14 155.64"
         y="0"
         sodipodi:role="line"
         id="tspan26">yazısı, kesinlikle önceki sayfa ve bu </tspan><tspan
         x="0 5.0500002 10.28 15.41 18.16 23.49 29.43 34.849998 40.139999 42.18 47.75 53.709999 59.150002 64.650002 67.559998 73.480003 78.889999 83.910004 89.120003 94.440002 97.349998 102.34 107.78 113.07 115.11 117.15 119.22 124.66 127.89 133.85001 139.17"
         y="11"
         sodipodi:role="line"
         id="tspan28">sayfadakinden başka şekillerde </tspan><tspan
         x="0 5.2199998 10.78 12.82 14.88 20.309999 25.870001 27.91 29.969999 35.389999 43.93 49.549999 54.169998"
         y="22"
         sodipodi:role="line"
         id="tspan30">kullanılamaz.</tspan><tspan
         x="-165 -158.49001 -152.92 -147.3 -139.67 -134.17 -131.25999 -125.31 -119.87 -117.8 -112.18 -104.75 -101.84 -98.93 -91.940002 -86.889999 -81.540001 -75.75 -70.43 -67.519997 -61.91 -59.189999 -56.279999 -53.209999 -47.630001 -42.310001"
         y="-55"
         sodipodi:role="line"
         id="tspan32">Shown below: Usage of the </tspan><tspan
         x="-180 -175.09 -170.22 -161.7 -155.75 -149.98 -148 -145.09 -137.47 -135.41 -132.34 -126.84 -123.93 -120.86 -115.28 -109.96 -107.05 -103.98 -98.419998 -95.169998 -89.720001 -84.269997 -80.43 -78.389999 -76.349998 -70.769997 -65.449997 -62.540001 -60.470001 -54.700001 -48.93 -43.330002 -39.990002 -35.119999 -29.17 -23.85 -20.940001 -18.9 -13.4"
         y="-44"
         sodipodi:role="line"
         id="tspan34">symbol with the three-line logotype in </tspan></text>
<text
       transform="matrix(1,0,0,-1,212.6387,686.8057)"
       style="font-variant:normal;font-weight:300;font-stretch:normal;font-size:10px;font-family:'HelveticaNeueLT Com 45 Lt';-inkscape-font-specification:HelveticaNeueLTCom-Lt;writing-mode:lr-tb;fill:#231f20;fill-opacity:1;fill-rule:nonzero;stroke:none"
       id="text40"><tspan
         x="0 5.9499998 11.55 14.62 20.120001 23.030001 25.09 30.52 36.09 41.849998 47.43 52.779999 58.57 64.019997 68.900002"
         y="0"
         sodipodi:role="line"
         id="tspan38">both languages.</tspan></text>
<text
       transform="matrix(1,0,0,-1,227.6387,675.8057)"
       style="font-variant:normal;font-weight:300;font-stretch:normal;font-size:10px;font-family:'HelveticaNeueLT Com 45 Lt';-inkscape-font-specification:HelveticaNeueLTCom-Lt;writing-mode:lr-tb;fill:#231f20;fill-opacity:1;fill-rule:nonzero;stroke:none"
       id="text50"><tspan
         x="0 2.3599999 5.0799999 7.9899998 11.06 16.639999 21.959999 24.870001 26.940001 32.709999 38.48 44.080002 47.419998 52.290001 58.240002 63.560001 66.470001 71.879997 77.650002 83.139999 86.279999 91.690002 93.730003 99.279999 104.22 107.13 110.2 115.78 121.1 124.01 126.85 132.41 134.45 136.42999"
         y="0"
         sodipodi:role="line"
         id="tspan42">If the logotype contains the full </tspan><tspan
         x="-15 -9.4399996 -4.02 4.52 9.8400002 12.75 18.360001 21.08 23.99 27.059999 32.639999 37.959999 40.869999 46.439999 52 54.09 58.779999 64.220001 67.599998 72.610001 74.669998 78.010002 82.099998 85.010002 87.919998 93.330002 99.099998 107.62 113.55 115.59 121.15 126.44 129.5 131.57001 137.34 142.89 147.83"
         y="11"
         sodipodi:role="line"
         id="tspan44">name of the university, combinations </tspan><tspan
         x="-15 -9.4300003 -3.74 -0.82999998 4.77 7.8400002 13.42 18.860001 22.139999 25.049999 28.120001 33.68 39.110001 44.610001 47.52 50.59 56.169998 61.490002 64.400002 70.169998 75.75 81.199997 86.139999 89.050003 91.089996 96.589996 99.5 102.57 108.15 113.47 116.38 122.32 125.57 130.86 135.73 137.8 143.56 149.13 154.07001"
         y="22"
         sodipodi:role="line"
         id="tspan46">no other than the ones in the previous </tspan><tspan
         x="-15 -9.0799999 -3.73 2.0599999 7.3800001 10.29 15.72 21.280001 27.15 30.059999 33.130001 38.689999 40.740002 45.68 48.59 54.509998 59.860001 65.650002 70.970001 73.879997 79.309998 84.739998 90.239998 93.150002 99.099998 104.42 107.33 112.9 117.89 123.32 129.07001"
         y="33"
         sodipodi:role="line"
         id="tspan48">page and this page can be used.</tspan></text>
<text
       transform="matrix(1,0,0,-1,212.6406,798.0928)"
       style="font-variant:normal;font-weight:500;font-stretch:normal;font-size:18px;font-family:'HelveticaNeueLT Com 65 Md';-inkscape-font-specification:HelveticaNeueLTCom-Md;writing-mode:lr-tb;fill:#231f20;fill-opacity:1;fill-rule:nonzero;stroke:none"
       id="text58"><tspan
         x="0 12.006 21.6 37.403999 48.582001 59.417999 63.972 69.192001 79.487999 90.017998 101.232 106.452 112.608 123.102 133.326"
         y="0"
         sodipodi:role="line"
         id="tspan52">Symbol and the </tspan><tspan
         x="0 4.4819999 15.354 26.280001 37.007999 43.613998 53.189999 64.386002 74.610001 79.830002"
         y="19.007999"
         sodipodi:role="line"
         id="tspan54">logotype 2</tspan><tspan
         x="180 192.384 208.188 219.34801 223.866 234.12601 250.002 255.222 264.40201 274.62601 279.84601 290.142 305.94601 317.10599 321.62399 331.884 347.76001"
         y="0"
         sodipodi:role="line"
         id="tspan56">Amblem ve amblem </tspan></text>
<text
       transform="matrix(1,0,0,-1,392.6406,779.0848)"
       style="font-variant:normal;font-weight:500;font-stretch:normal;font-size:18px;font-family:'HelveticaNeueLT Com 65 Md';-inkscape-font-specification:HelveticaNeueLTCom-Md;writing-mode:lr-tb;fill:#231f20;fill-opacity:1;fill-rule:nonzero;stroke:none"
       id="text62"><tspan
         x="0 9.3059998 19.872 28.944 33.48 43.074001 47.627998 52.848"
         y="0"
         sodipodi:role="line"
         id="tspan60">yazısı 2</tspan></text>
<g
       id="g64"
       transform="translate(32.6406,371.4053)"><path
         d="M 0,0 170.912,-170.907 V 0.006 L 0,-170.902"
         style="fill:none;stroke:#c8cace;stroke-width:0.25;stroke-linecap:butt;stroke-linejoin:round;stroke-miterlimit:10;stroke-dasharray:none;stroke-opacity:1"
         id="path66"
         inkscape:connector-curvature="0" /></g><path
       d="M 203.552,200.494 H 32.641 v 170.911 h 170.911 z"
       style="fill:none;stroke:#c8cace;stroke-width:0.25;stroke-linecap:butt;stroke-linejoin:round;stroke-miterlimit:10;stroke-dasharray:none;stroke-opacity:1"
       id="path68"
       inkscape:connector-curvature="0" /><g
       id="g70"><g
         id="g72"
         clip-path="url(#clipPath76)"><g
           id="g78"
           transform="translate(132.3379,218.8057)"><path
             d="m 0,0 c -1.449,0 -2.884,0.051 -4.311,0.142 27.43,9.898 47.04,36.159 47.04,67.001 0,30.843 -19.61,57.104 -47.04,67.003 1.427,0.089 2.862,0.141 4.311,0.141 37.083,0 67.143,-30.061 67.143,-67.144 C 67.143,30.061 37.083,0 0,0 m -95.626,67.143 c 0,37.083 30.06,67.144 67.14,67.144 1.451,0 2.887,-0.052 4.31,-0.141 -27.427,-9.899 -47.038,-36.16 -47.038,-67.003 0,-30.842 19.611,-57.103 47.038,-67.001 C -25.599,0.051 -27.035,0 -28.486,0 c -37.08,0 -67.14,30.061 -67.14,67.143 m 83.419,65.154 C 17.008,125.021 38.658,98.613 38.658,67.143 38.658,35.674 17.008,9.266 -12.207,1.99 Z M -16.278,1.99 c -29.215,7.278 -50.866,33.685 -50.866,65.153 0,31.468 21.651,57.878 50.866,65.154 z M 0,138.357 c -4.879,0 -9.641,-0.492 -14.242,-1.426 -4.603,0.934 -9.364,1.426 -14.244,1.426 -39.327,0 -71.211,-31.883 -71.211,-71.214 0,-39.33 31.884,-71.214 71.211,-71.214 4.88,0 9.641,0.492 14.244,1.426 4.601,-0.934 9.363,-1.426 14.242,-1.426 39.33,0 71.214,31.884 71.214,71.214 0,39.331 -31.884,71.214 -71.214,71.214"
             style="fill:#231f20;fill-opacity:1;fill-rule:nonzero;stroke:none"
             id="path80"
             inkscape:connector-curvature="0" /></g><g
           id="g82"
           transform="translate(65.1943,285.9482)"><path
             d="M 0,0 C 0,-31.468 21.65,-57.875 50.865,-65.152 V 65.154 C 21.65,57.878 0,31.469 0,0"
             style="fill:#ffffff;fill-opacity:1;fill-rule:nonzero;stroke:none"
             id="path84"
             inkscape:connector-curvature="0" /></g><g
           id="g86"
           transform="translate(170.9961,285.9482)"><path
             d="M 0,0 C 0,31.471 -21.65,57.878 -50.865,65.154 V -65.152 C -21.65,-57.877 0,-31.469 0,0"
             style="fill:#ee3423;fill-opacity:1;fill-rule:nonzero;stroke:none"
             id="path88"
             inkscape:connector-curvature="0" /></g><g
           id="g90"
           transform="translate(61.124,285.9482)"><path
             d="m 0,0 c 0,30.844 19.611,57.104 47.038,67.003 -1.424,0.09 -2.859,0.142 -4.31,0.142 -37.081,0 -67.14,-30.062 -67.14,-67.145 0,-37.082 30.059,-67.143 67.14,-67.143 1.451,0 2.886,0.051 4.31,0.142 C 19.611,-57.103 0,-30.842 0,0"
             style="fill:#ee3423;fill-opacity:1;fill-rule:nonzero;stroke:none"
             id="path92"
             inkscape:connector-curvature="0" /></g><g
           id="g94"
           transform="translate(132.3379,353.0928)"><path
             d="m 0,0 c -1.449,0 -2.884,-0.052 -4.311,-0.142 27.43,-9.898 47.04,-36.159 47.04,-67.003 0,-30.841 -19.61,-57.102 -47.04,-67.001 1.427,-0.09 2.862,-0.141 4.311,-0.141 37.083,0 67.143,30.06 67.143,67.142 C 67.143,-30.062 37.083,0 0,0"
             style="fill:#ffffff;fill-opacity:1;fill-rule:nonzero;stroke:none"
             id="path96"
             inkscape:connector-curvature="0" /></g><g
           id="g98"
           transform="translate(232.3955,299.8711)"><path
             d="m 0,0 c 0.721,0.735 1.271,1.483 1.652,2.247 0.383,0.762 0.656,1.65 0.822,2.66 l 2.891,19.402 c 0.07,0.47 0.121,0.87 0.156,1.196 0.035,0.325 0.053,0.613 0.053,0.862 0,0.43 -0.085,0.805 -0.251,1.123 -0.166,0.32 -0.562,0.783 -1.184,1.395 H 11.5 l 8.65,-21.441 8.463,21.441 h 7.027 c -0.429,-0.404 -0.741,-0.837 -0.934,-1.3 -0.195,-0.465 -0.291,-1.03 -0.291,-1.694 0,-0.321 0.008,-0.591 0.021,-0.812 0.012,-0.224 0.035,-0.445 0.062,-0.667 L 37.013,4.597 C 37.125,3.625 37.344,2.776 37.67,2.049 37.994,1.321 38.455,0.638 39.053,0 h -7.84 c 0.54,0.401 0.938,0.873 1.195,1.415 0.257,0.541 0.386,1.165 0.386,1.871 0,0.18 -0.004,0.322 -0.012,0.428 -0.007,0.103 -0.017,0.196 -0.031,0.279 L 30.401,24.309 20.4,-0.333 C 19.651,0.125 18.988,0.749 18.413,1.539 17.839,2.33 17.267,3.403 16.697,4.762 L 8.65,24.226 5.802,5.197 C 5.705,4.602 5.643,4.173 5.614,3.91 5.587,3.647 5.574,3.438 5.574,3.286 5.574,2.592 5.705,2.001 5.968,1.509 6.231,1.017 6.682,0.513 7.32,0 Z"
             style="fill:#231f20;fill-opacity:1;fill-rule:nonzero;stroke:none"
             id="path100"
             inkscape:connector-curvature="0" /></g><g
           id="g102"
           transform="translate(285.5381,304.9873)"><path
             d="m 0,0 c 0,-1.457 0.128,-2.535 0.386,-3.234 0.256,-0.7 0.695,-1.328 1.319,-1.882 h -7.923 c 0.625,0.554 1.065,1.182 1.32,1.882 0.257,0.699 0.385,1.777 0.385,3.234 v 18.694 c 0,1.455 -0.128,2.529 -0.385,3.224 -0.255,0.692 -0.695,1.31 -1.32,1.851 H 1.705 C 1.081,23.228 0.642,22.61 0.386,21.918 0.128,21.223 0,20.149 0,18.694 Z"
             style="fill:#231f20;fill-opacity:1;fill-rule:nonzero;stroke:none"
             id="path104"
             inkscape:connector-curvature="0" /></g><g
           id="g106"
           transform="translate(302.4414,303.3652)"><path
             d="m 0,0 c 1.053,-0.167 1.962,-0.288 2.724,-0.363 0.762,-0.077 1.421,-0.115 1.975,-0.115 3.216,0 5.871,1.083 7.965,3.253 2.092,2.17 3.14,4.918 3.14,8.246 0,3.411 -1.04,6.152 -3.119,8.224 -2.081,2.071 -4.847,3.108 -8.298,3.108 C 3.68,22.353 2.96,22.306 2.226,22.208 1.489,22.11 0.748,21.959 0,21.751 Z m -6.218,-3.494 c 0.611,0.541 1.04,1.15 1.289,1.831 0.25,0.679 0.375,1.774 0.375,3.285 v 18.694 c 0,1.511 -0.125,2.602 -0.375,3.275 -0.249,0.673 -0.678,1.271 -1.289,1.8 H 3.848 c 2.703,0 4.933,-0.264 6.695,-0.792 1.76,-0.527 3.39,-1.386 4.887,-2.578 1.675,-1.332 2.938,-2.891 3.783,-4.68 0.848,-1.786 1.27,-3.777 1.27,-5.966 0,-1.984 -0.318,-3.82 -0.947,-5.511 C 18.904,4.171 17.959,2.64 16.698,1.268 15.159,-0.409 13.283,-1.622 11.074,-2.37 8.861,-3.119 5.996,-3.494 2.475,-3.494 Z"
             style="fill:#231f20;fill-opacity:1;fill-rule:nonzero;stroke:none"
             id="path108"
             inkscape:connector-curvature="0" /></g><g
           id="g110"
           transform="translate(337.3516,303.3652)"><path
             d="m 0,0 c 1.053,-0.167 1.962,-0.288 2.724,-0.363 0.762,-0.077 1.42,-0.115 1.974,-0.115 3.216,0 5.871,1.083 7.966,3.253 2.092,2.17 3.14,4.918 3.14,8.246 0,3.411 -1.039,6.152 -3.12,8.224 -2.08,2.071 -4.845,3.108 -8.296,3.108 -0.708,0 -1.43,-0.047 -2.163,-0.145 C 1.488,22.11 0.747,21.959 0,21.751 Z m -6.219,-3.494 c 0.612,0.541 1.04,1.15 1.29,1.831 0.251,0.679 0.375,1.774 0.375,3.285 v 18.694 c 0,1.511 -0.124,2.602 -0.375,3.275 -0.25,0.673 -0.678,1.271 -1.29,1.8 H 3.847 c 2.702,0 4.934,-0.264 6.694,-0.792 1.761,-0.527 3.392,-1.386 4.889,-2.578 1.676,-1.332 2.938,-2.891 3.783,-4.68 0.846,-1.786 1.269,-3.777 1.269,-5.966 0,-1.984 -0.316,-3.82 -0.945,-5.511 C 18.905,4.171 17.959,2.64 16.697,1.268 15.158,-0.409 13.283,-1.622 11.074,-2.37 8.861,-3.119 5.996,-3.494 2.475,-3.494 Z"
             style="fill:#231f20;fill-opacity:1;fill-rule:nonzero;stroke:none"
             id="path112"
             inkscape:connector-curvature="0" /></g><g
           id="g114"
           transform="translate(366.0371,299.8711)"><path
             d="m 0,0 c 0.609,0.555 1.045,1.183 1.309,1.882 0.263,0.699 0.394,1.777 0.394,3.234 v 18.695 c 0,1.455 -0.131,2.528 -0.394,3.223 -0.264,0.693 -0.7,1.31 -1.309,1.851 H 7.922 C 7.298,28.344 6.857,27.727 6.601,27.034 6.345,26.339 6.217,25.266 6.217,23.811 V 3.743 C 7.339,3.577 8.344,3.452 9.231,3.369 10.119,3.286 10.889,3.244 11.54,3.244 c 1.454,0 2.842,0.197 4.158,0.592 1.319,0.395 2.6,1.002 3.846,1.821 L 17.529,0 Z"
             style="fill:#231f20;fill-opacity:1;fill-rule:nonzero;stroke:none"
             id="path116"
             inkscape:connector-curvature="0" /></g><g
           id="g118"
           transform="translate(392.2021,299.8711)"><path
             d="m 0,0 c 0.608,0.555 1.046,1.183 1.31,1.882 0.262,0.699 0.394,1.777 0.394,3.234 v 18.695 c 0,1.455 -0.132,2.528 -0.394,3.223 C 1.046,27.727 0.608,28.344 0,28.885 H 15.823 V 24.35 c -0.705,0.554 -1.483,0.958 -2.328,1.208 -0.847,0.249 -1.824,0.375 -2.932,0.375 -0.568,0 -1.206,-0.047 -1.914,-0.137 C 7.942,25.705 7.146,25.57 6.258,25.39 v -8.151 h 7.07 v -4.201 c -0.334,0.389 -0.782,0.663 -1.351,0.822 -0.57,0.159 -1.609,0.239 -3.12,0.239 H 6.258 V 3.743 C 7.354,3.577 8.343,3.452 9.231,3.369 c 0.888,-0.083 1.657,-0.125 2.308,-0.125 1.47,0 2.857,0.197 4.16,0.592 1.302,0.395 2.585,1.002 3.846,1.821 L 17.528,0 Z"
             style="fill:#231f20;fill-opacity:1;fill-rule:nonzero;stroke:none"
             id="path120"
             inkscape:connector-curvature="0" /></g><g
           id="g122"
           transform="translate(437.5898,299.8711)"><path
             d="m 0,0 c 0.609,0.555 1.045,1.183 1.309,1.882 0.263,0.699 0.396,1.777 0.396,3.234 v 18.695 c 0,1.455 -0.133,2.528 -0.396,3.223 -0.264,0.693 -0.7,1.31 -1.309,1.851 H 15.824 V 24.35 c -0.708,0.554 -1.484,0.958 -2.33,1.208 -0.845,0.249 -1.821,0.375 -2.931,0.375 -0.569,0 -1.206,-0.047 -1.914,-0.137 C 7.942,25.705 7.146,25.57 6.26,25.39 v -8.151 h 7.069 v -4.201 c -0.333,0.389 -0.784,0.663 -1.351,0.822 -0.57,0.159 -1.61,0.239 -3.119,0.239 H 6.26 V 3.743 C 7.354,3.577 8.344,3.452 9.232,3.369 c 0.887,-0.083 1.657,-0.125 2.307,-0.125 1.47,0 2.857,0.197 4.16,0.592 1.303,0.395 2.586,1.002 3.848,1.821 L 17.529,0 Z"
             style="fill:#231f20;fill-opacity:1;fill-rule:nonzero;stroke:none"
             id="path124"
             inkscape:connector-curvature="0" /></g><g
           id="g126"
           transform="translate(471.9854,313.5762)"><path
             d="M 0,0 H 8.526 L 4.431,11.165 Z m -3.908,-9.795 c -0.125,-0.291 -0.219,-0.593 -0.28,-0.904 -0.063,-0.313 -0.094,-0.637 -0.094,-0.968 0,-0.278 0.1,-0.583 0.302,-0.914 0.201,-0.333 0.522,-0.708 0.965,-1.124 h -6.819 c 0.567,0.388 1.078,0.923 1.528,1.601 0.45,0.679 0.91,1.608 1.383,2.786 l 8.13,20.608 c 0.167,0.389 0.29,0.77 0.376,1.144 0.082,0.375 0.123,0.708 0.123,0.998 0,0.332 -0.08,0.637 -0.239,0.914 -0.158,0.277 -0.418,0.555 -0.779,0.834 h 6.571 l 9.19,-24.205 c 0.43,-1.096 0.891,-1.987 1.382,-2.673 0.494,-0.686 1.126,-1.354 1.905,-2.007 h -8.278 l 0.105,0.104 c 0.762,0.803 1.144,1.393 1.144,1.768 0,0.443 -0.166,1.096 -0.5,1.955 -0.04,0.138 -0.075,0.242 -0.103,0.312 L 9.63,-2.891 H -1.142 Z"
             style="fill:#231f20;fill-opacity:1;fill-rule:nonzero;stroke:none"
             id="path128"
             inkscape:connector-curvature="0" /></g><g
           id="g130"
           transform="translate(498.4268,300.5166)"><path
             d="M 0,0 -1.373,5.238 C 0.306,4.116 1.936,3.281 3.515,2.733 5.096,2.186 6.661,1.913 8.216,1.913 c 1.98,0 3.576,0.426 4.78,1.277 1.207,0.855 1.812,1.959 1.812,3.319 0,0.386 -0.065,0.774 -0.189,1.164 -0.125,0.388 -0.305,0.755 -0.541,1.101 -0.526,0.79 -2.294,1.919 -5.303,3.39 -0.761,0.36 -1.35,0.646 -1.766,0.852 -2.816,1.416 -4.746,2.716 -5.791,3.909 -1.047,1.193 -1.571,2.606 -1.571,4.243 0,2.343 0.958,4.204 2.87,5.583 1.914,1.38 4.533,2.069 7.86,2.069 0.958,0 2.011,-0.062 3.161,-0.186 1.15,-0.126 2.4,-0.32 3.743,-0.583 v -4.844 c -1.192,0.9 -2.391,1.572 -3.597,2.017 -1.206,0.443 -2.461,0.665 -3.764,0.665 -1.65,0 -2.979,-0.354 -3.982,-1.061 -1.006,-0.707 -1.507,-1.629 -1.507,-2.766 0,-1.011 0.394,-1.906 1.184,-2.682 0.791,-0.777 2.565,-1.817 5.323,-3.12 0.154,-0.07 0.388,-0.179 0.708,-0.332 2.329,-1.068 4.068,-2.051 5.219,-2.953 0.86,-0.665 1.529,-1.475 2.007,-2.433 0.478,-0.956 0.717,-1.974 0.717,-3.057 0,-2.482 -1.136,-4.585 -3.411,-6.31 -2.273,-1.726 -5.115,-2.589 -8.525,-2.589 -1.095,0 -2.275,0.117 -3.535,0.353 C 2.856,-0.825 1.483,-0.472 0,0"
             style="fill:#231f20;fill-opacity:1;fill-rule:nonzero;stroke:none"
             id="path132"
             inkscape:connector-curvature="0" /></g><g
           id="g134"
           transform="translate(537.1924,304.9873)"><path
             d="m 0,0 c 0,-1.457 0.132,-2.535 0.396,-3.234 0.263,-0.7 0.699,-1.328 1.308,-1.882 h -7.922 c 0.624,0.554 1.065,1.182 1.322,1.882 0.254,0.699 0.382,1.777 0.382,3.234 v 20.605 h -2.327 c -1.607,0 -2.912,-0.123 -3.909,-0.372 -0.999,-0.251 -1.796,-0.653 -2.393,-1.208 l 1.435,4.744 H 8.942 L 7.59,19.109 C 7.16,19.623 6.593,20 5.894,20.242 c -0.7,0.242 -1.582,0.363 -2.65,0.363 H 0 Z"
             style="fill:#231f20;fill-opacity:1;fill-rule:nonzero;stroke:none"
             id="path136"
             inkscape:connector-curvature="0" /></g><g
           id="g138"
           transform="translate(245.5381,262.4004)"><path
             d="m 0,0 c 0,-1.457 0.13,-2.533 0.394,-3.232 0.265,-0.703 0.701,-1.33 1.311,-1.883 h -7.924 c 0.625,0.553 1.065,1.18 1.322,1.883 0.256,0.699 0.385,1.775 0.385,3.232 v 20.606 h -2.331 c -1.607,0 -2.91,-0.125 -3.908,-0.374 -0.998,-0.25 -1.795,-0.651 -2.392,-1.206 l 1.436,4.742 H 8.942 L 7.588,19.11 c -0.43,0.513 -0.993,0.891 -1.692,1.133 -0.702,0.243 -1.584,0.363 -2.652,0.363 H 0 Z"
             style="fill:#231f20;fill-opacity:1;fill-rule:nonzero;stroke:none"
             id="path140"
             inkscape:connector-curvature="0" /></g><g
           id="g142"
           transform="translate(262.2266,257.2852)"><path
             d="m 0,0 c 0.609,0.554 1.048,1.181 1.311,1.883 0.263,0.699 0.396,1.775 0.396,3.232 v 18.694 c 0,1.456 -0.133,2.53 -0.396,3.223 C 1.048,27.726 0.609,28.342 0,28.883 h 15.825 v -4.532 c -0.707,0.551 -1.484,0.956 -2.328,1.205 -0.847,0.251 -1.823,0.375 -2.933,0.375 -0.568,0 -1.206,-0.046 -1.915,-0.136 C 7.945,25.703 7.147,25.57 6.262,25.39 v -8.152 h 7.067 v -4.2 c -0.332,0.388 -0.781,0.662 -1.35,0.821 -0.57,0.16 -1.609,0.239 -3.12,0.239 H 6.262 V 3.742 c 1.092,-0.166 2.084,-0.29 2.97,-0.374 0.887,-0.083 1.659,-0.125 2.309,-0.125 1.47,0 2.855,0.199 4.16,0.594 1.301,0.394 2.584,1.001 3.847,1.818 L 17.53,0 Z"
             style="fill:#231f20;fill-opacity:1;fill-rule:nonzero;stroke:none"
             id="path144"
             inkscape:connector-curvature="0" /></g><g
           id="g146"
           transform="translate(313.2803,263.0869)"><path
             d="m 0,0 -2.161,-5.2 c -1.361,-0.444 -2.634,-0.776 -3.826,-0.997 -1.192,-0.223 -2.33,-0.333 -3.41,-0.333 -1.61,0 -3.176,0.209 -4.701,0.624 -1.525,0.416 -2.965,1.033 -4.325,1.85 -2.162,1.29 -3.847,3.057 -5.052,5.304 -1.206,2.245 -1.809,4.72 -1.809,7.423 0,2.024 0.435,3.993 1.308,5.906 0.873,1.912 2.115,3.61 3.723,5.094 1.471,1.344 3.147,2.367 5.032,3.067 1.884,0.7 3.896,1.05 6.032,1.05 1.011,0 2.075,-0.093 3.19,-0.281 1.116,-0.188 2.311,-0.475 3.587,-0.862 v -4.638 c -1.302,0.693 -2.535,1.208 -3.7,1.539 -1.166,0.333 -2.301,0.5 -3.41,0.5 -3.231,0 -5.82,-1 -7.768,-2.995 -1.947,-1.996 -2.922,-4.645 -2.922,-7.945 0,-3.617 1.008,-6.54 3.025,-8.763 2.018,-2.226 4.669,-3.337 7.955,-3.337 1.344,0 2.776,0.246 4.294,0.738 C -3.42,-1.764 -1.774,-1.014 0,0"
             style="fill:#231f20;fill-opacity:1;fill-rule:nonzero;stroke:none"
             id="path148"
             inkscape:connector-curvature="0" /></g><g
           id="g150"
           transform="translate(326.6729,262.4004)"><path
             d="m 0,0 c 0,-1.457 0.128,-2.533 0.384,-3.232 0.257,-0.703 0.697,-1.33 1.32,-1.883 h -7.922 c 0.611,0.553 1.046,1.18 1.311,1.883 0.262,0.699 0.394,1.775 0.394,3.232 v 18.693 c 0,1.456 -0.132,2.531 -0.394,3.224 -0.265,0.693 -0.7,1.31 -1.311,1.851 H 1.704 C 1.081,23.227 0.641,22.61 0.384,21.917 0.128,21.224 0,20.149 0,18.693 v -6.465 h 15.574 v 6.465 c 0,1.456 -0.127,2.531 -0.385,3.224 -0.255,0.693 -0.696,1.31 -1.32,1.851 h 7.922 C 21.183,23.227 20.746,22.61 20.483,21.917 20.22,21.224 20.087,20.149 20.087,18.693 V 0 c 0,-1.457 0.127,-2.533 0.385,-3.232 0.257,-0.703 0.697,-1.33 1.319,-1.883 h -7.922 c 0.624,0.553 1.065,1.18 1.32,1.883 0.258,0.699 0.385,1.775 0.385,3.232 V 8.9 H 0 Z"
             style="fill:#231f20;fill-opacity:1;fill-rule:nonzero;stroke:none"
             id="path152"
             inkscape:connector-curvature="0" /></g><g
           id="g154"
           transform="translate(385.335,286.168)"><path
             d="m 0,0 c -0.624,-0.541 -1.063,-1.157 -1.32,-1.851 -0.256,-0.693 -0.385,-1.767 -0.385,-3.223 v -24.475 c -1.013,0.028 -1.973,0.354 -2.882,0.978 -0.906,0.623 -2.048,1.81 -3.419,3.556 l -14.909,18.799 v -17.552 c 0,-1.512 0.125,-2.606 0.375,-3.285 0.248,-0.68 0.677,-1.291 1.288,-1.83 h -6.55 c 0.61,0.554 1.047,1.181 1.311,1.883 0.262,0.699 0.394,1.775 0.394,3.232 v 18.694 c 0,1.456 -0.132,2.53 -0.394,3.223 -0.264,0.694 -0.701,1.31 -1.311,1.851 h 5.864 l 17.093,-21.688 v 16.614 c 0,1.456 -0.132,2.53 -0.396,3.223 -0.263,0.694 -0.699,1.31 -1.31,1.851 z"
             style="fill:#231f20;fill-opacity:1;fill-rule:nonzero;stroke:none"
             id="path156"
             inkscape:connector-curvature="0" /></g><g
           id="g158"
           transform="translate(400.5547,262.4004)"><path
             d="m 0,0 c 0,-1.457 0.129,-2.533 0.385,-3.232 0.255,-0.703 0.697,-1.33 1.32,-1.883 h -7.922 c 0.624,0.553 1.063,1.18 1.321,1.883 0.255,0.699 0.382,1.775 0.382,3.232 v 18.693 c 0,1.456 -0.127,2.531 -0.382,3.224 -0.258,0.693 -0.697,1.31 -1.321,1.851 H 1.705 C 1.082,23.227 0.64,22.61 0.385,21.917 0.129,21.224 0,20.149 0,18.693 Z"
             style="fill:#231f20;fill-opacity:1;fill-rule:nonzero;stroke:none"
             id="path160"
             inkscape:connector-curvature="0" /></g><g
           id="g162"
           transform="translate(435.8418,263.0869)"><path
             d="M 0,0 -2.162,-5.2 C -3.522,-5.644 -4.797,-5.976 -5.99,-6.197 -7.182,-6.42 -8.318,-6.53 -9.399,-6.53 c -1.609,0 -3.176,0.209 -4.701,0.624 -1.524,0.416 -2.966,1.033 -4.326,1.85 -2.162,1.29 -3.846,3.057 -5.053,5.304 -1.205,2.245 -1.809,4.72 -1.809,7.423 0,2.024 0.437,3.993 1.31,5.906 0.874,1.912 2.116,3.61 3.723,5.094 1.469,1.344 3.148,2.367 5.032,3.067 1.886,0.7 3.896,1.05 6.032,1.05 1.01,0 2.075,-0.093 3.191,-0.281 1.116,-0.188 2.311,-0.475 3.587,-0.862 v -4.638 c -1.303,0.693 -2.536,1.208 -3.701,1.539 -1.165,0.333 -2.302,0.5 -3.412,0.5 -3.23,0 -5.817,-1 -7.765,-2.995 -1.948,-1.996 -2.923,-4.645 -2.923,-7.945 0,-3.617 1.009,-6.54 3.026,-8.763 2.017,-2.226 4.668,-3.337 7.954,-3.337 1.343,0 2.777,0.246 4.293,0.738 C -3.421,-1.764 -1.775,-1.014 0,0"
             style="fill:#231f20;fill-opacity:1;fill-rule:nonzero;stroke:none"
             id="path164"
             inkscape:connector-curvature="0" /></g><g
           id="g166"
           transform="translate(450.7158,270.9873)"><path
             d="M 0,0 H 8.525 L 4.429,11.168 Z m -3.91,-9.794 c -0.125,-0.29 -0.219,-0.592 -0.281,-0.903 -0.063,-0.312 -0.093,-0.634 -0.093,-0.969 0,-0.276 0.098,-0.582 0.301,-0.914 0.201,-0.334 0.523,-0.707 0.967,-1.122 h -6.82 c 0.568,0.387 1.078,0.921 1.528,1.601 0.45,0.679 0.912,1.608 1.383,2.787 l 8.131,20.605 c 0.166,0.39 0.291,0.772 0.373,1.145 0.085,0.376 0.126,0.707 0.126,0.998 0,0.334 -0.08,0.638 -0.239,0.914 -0.16,0.278 -0.42,0.555 -0.778,0.833 h 6.569 l 9.191,-24.204 c 0.43,-1.096 0.889,-1.986 1.381,-2.672 0.492,-0.687 1.128,-1.357 1.904,-2.007 h -8.276 l 0.105,0.104 c 0.761,0.803 1.144,1.393 1.144,1.767 0,0.443 -0.168,1.095 -0.501,1.953 -0.041,0.14 -0.077,0.244 -0.103,0.313 L 9.626,-2.891 H -1.145 Z"
             style="fill:#231f20;fill-opacity:1;fill-rule:nonzero;stroke:none"
             id="path168"
             inkscape:connector-curvature="0" /></g><g
           id="g170"
           transform="translate(477.1455,257.2852)"><path
             d="m 0,0 c 0.61,0.554 1.047,1.181 1.31,1.883 0.263,0.699 0.395,1.775 0.395,3.232 v 18.694 c 0,1.456 -0.132,2.53 -0.395,3.223 -0.263,0.694 -0.7,1.31 -1.31,1.851 H 7.922 C 7.299,28.342 6.856,27.726 6.603,27.032 6.346,26.339 6.218,25.265 6.218,23.809 V 3.742 C 7.341,3.576 8.345,3.452 9.233,3.368 10.119,3.285 10.889,3.243 11.54,3.243 c 1.457,0 2.843,0.199 4.16,0.594 1.317,0.394 2.599,1.001 3.845,1.818 L 17.529,0 Z"
             style="fill:#231f20;fill-opacity:1;fill-rule:nonzero;stroke:none"
             id="path172"
             inkscape:connector-curvature="0" /></g><g
           id="g174"
           transform="translate(252.7334,214.6982)"><path
             d="M 0,0 V 2.204 C -1.416,1.191 -2.835,0.436 -4.264,-0.063 -5.692,-0.562 -7.146,-0.812 -8.63,-0.812 c -1.691,0 -3.195,0.28 -4.513,0.833 -1.317,0.553 -2.454,1.385 -3.411,2.495 -0.747,0.872 -1.285,1.888 -1.611,3.047 -0.325,1.156 -0.488,2.713 -0.488,4.667 v 13.58 c 0,1.456 -0.128,2.528 -0.385,3.221 -0.256,0.694 -0.691,1.311 -1.3,1.852 h 7.902 c -0.61,-0.541 -1.043,-1.158 -1.3,-1.852 -0.257,-0.693 -0.383,-1.765 -0.383,-3.221 V 11.124 c 0,-1.981 0.097,-3.451 0.289,-4.407 0.195,-0.957 0.521,-1.719 0.977,-2.288 0.556,-0.679 1.292,-1.189 2.216,-1.529 0.923,-0.339 2.027,-0.508 3.316,-0.508 1.053,0 2.04,0.155 2.954,0.467 0.914,0.313 1.718,0.767 2.411,1.362 0.611,0.499 1.048,1.147 1.31,1.945 0.264,0.797 0.395,1.882 0.395,3.254 v 14.39 c 0,1.51 -0.123,2.602 -0.374,3.275 -0.25,0.672 -0.68,1.27 -1.289,1.798 H 6.009 C 5.397,28.355 4.963,27.725 4.698,26.991 4.435,26.256 4.304,25.195 4.304,23.81 V 5.115 C 4.304,3.661 4.435,2.581 4.698,1.883 4.963,1.184 5.397,0.554 6.009,0 Z"
             style="fill:#231f20;fill-opacity:1;fill-rule:nonzero;stroke:none"
             id="path176"
             inkscape:connector-curvature="0" /></g><g
           id="g178"
           transform="translate(295.5879,243.5811)"><path
             d="m 0,0 c -0.624,-0.541 -1.064,-1.158 -1.32,-1.852 -0.257,-0.693 -0.384,-1.765 -0.384,-3.221 v -24.476 c -1.013,0.029 -1.974,0.354 -2.882,0.979 -0.906,0.623 -2.048,1.808 -3.42,3.554 l -14.909,18.8 v -17.552 c 0,-1.512 0.125,-2.606 0.374,-3.286 0.249,-0.678 0.679,-1.288 1.288,-1.829 h -6.55 c 0.612,0.554 1.046,1.184 1.311,1.883 0.263,0.698 0.394,1.778 0.394,3.232 v 18.695 c 0,1.456 -0.131,2.528 -0.394,3.221 -0.265,0.694 -0.699,1.311 -1.311,1.852 h 5.865 l 17.091,-21.688 v 16.615 c 0,1.456 -0.131,2.528 -0.393,3.221 -0.264,0.694 -0.701,1.311 -1.31,1.852 z"
             style="fill:#231f20;fill-opacity:1;fill-rule:nonzero;stroke:none"
             id="path180"
             inkscape:connector-curvature="0" /></g><g
           id="g182"
           transform="translate(310.8066,219.8135)"><path
             d="m 0,0 c 0,-1.454 0.13,-2.534 0.386,-3.232 0.256,-0.7 0.695,-1.33 1.32,-1.883 h -7.923 c 0.623,0.553 1.065,1.183 1.321,1.883 0.255,0.698 0.383,1.778 0.383,3.232 v 18.694 c 0,1.456 -0.128,2.529 -0.383,3.222 -0.256,0.693 -0.698,1.311 -1.321,1.852 H 1.706 C 1.081,23.227 0.642,22.609 0.386,21.916 0.13,21.223 0,20.15 0,18.694 Z"
             style="fill:#231f20;fill-opacity:1;fill-rule:nonzero;stroke:none"
             id="path184"
             inkscape:connector-curvature="0" /></g><g
           id="g186"
           transform="translate(333.9043,213.9707)"><path
             d="m 0,0 c -1.233,0.319 -2.287,1.016 -3.159,2.09 -0.874,1.075 -1.678,2.68 -2.412,4.813 l -5.844,16.824 c -0.472,1.386 -0.919,2.515 -1.341,3.387 -0.424,0.875 -0.898,1.706 -1.424,2.496 l 5.966,-0.02 c 0.029,-0.472 0.077,-0.907 0.148,-1.31 0.068,-0.402 0.159,-0.783 0.269,-1.144 L -0.768,6.468 5.886,23.684 c 0.194,0.526 0.35,1.057 0.468,1.589 0.118,0.536 0.176,1.026 0.176,1.468 0,0.388 -0.11,0.8 -0.332,1.238 -0.221,0.436 -0.596,0.98 -1.124,1.631 h 6.635 z"
             style="fill:#231f20;fill-opacity:1;fill-rule:nonzero;stroke:none"
             id="path188"
             inkscape:connector-curvature="0" /></g><g
           id="g190"
           transform="translate(352.8711,214.6982)"><path
             d="M 0,0 C 0.608,0.554 1.046,1.184 1.309,1.883 1.573,2.581 1.704,3.661 1.704,5.115 V 23.81 c 0,1.456 -0.131,2.528 -0.395,3.221 C 1.046,27.725 0.608,28.342 0,28.883 h 15.824 v -4.534 c -0.707,0.555 -1.484,0.957 -2.33,1.207 -0.846,0.249 -1.823,0.375 -2.931,0.375 -0.569,0 -1.206,-0.045 -1.913,-0.136 C 7.943,25.704 7.145,25.571 6.258,25.391 v -8.153 h 7.07 v -4.2 c -0.332,0.388 -0.782,0.662 -1.35,0.821 -0.569,0.161 -1.61,0.24 -3.12,0.24 h -2.6 V 3.742 C 7.354,3.576 8.346,3.45 9.231,3.368 c 0.888,-0.083 1.659,-0.124 2.31,-0.124 1.469,0 2.855,0.198 4.158,0.593 1.303,0.394 2.585,1.001 3.848,1.818 L 17.53,0 Z"
             style="fill:#231f20;fill-opacity:1;fill-rule:nonzero;stroke:none"
             id="path192"
             inkscape:connector-curvature="0" /></g><g
           id="g194"
           transform="translate(385.4609,219.8135)"><path
             d="m 0,0 c 0,-1.454 0.129,-2.534 0.386,-3.232 0.255,-0.7 0.696,-1.33 1.319,-1.883 h -7.922 c 0.611,0.553 1.047,1.183 1.311,1.883 0.262,0.698 0.393,1.778 0.393,3.232 v 18.694 c 0,1.456 -0.131,2.529 -0.393,3.222 -0.264,0.693 -0.7,1.311 -1.311,1.852 H 3.785 c 2.856,0 5.16,-0.679 6.914,-2.039 1.754,-1.358 2.631,-3.125 2.631,-5.301 0,-1.58 -0.527,-2.975 -1.58,-4.181 C 10.696,11.041 9.061,9.98 6.841,9.065 l 7.508,-10 c 0.443,-0.597 0.977,-1.227 1.601,-1.893 0.624,-0.666 1.338,-1.36 2.142,-2.078 l -2.246,-0.209 h -0.353 c -1.055,0 -2.08,0.276 -3.079,0.832 -0.996,0.554 -1.843,1.315 -2.535,2.286 L 1.269,9.877 c 2.565,0.567 4.44,1.348 5.626,2.339 1.185,0.991 1.775,2.27 1.775,3.838 0,1.455 -0.507,2.64 -1.526,3.555 -1.02,0.915 -2.354,1.372 -4.003,1.372 -0.375,0 -0.827,-0.03 -1.354,-0.092 C 1.262,20.826 0.666,20.73 0,20.607 Z"
             style="fill:#231f20;fill-opacity:1;fill-rule:nonzero;stroke:none"
             id="path196"
             inkscape:connector-curvature="0" /></g><g
           id="g198"
           transform="translate(410.6143,215.3428)"><path
             d="M 0,0 -1.372,5.239 C 0.305,4.117 1.936,3.281 3.515,2.735 5.095,2.187 6.661,1.914 8.214,1.914 c 1.982,0 3.576,0.425 4.782,1.278 1.206,0.852 1.811,1.958 1.811,3.316 0,0.388 -0.064,0.776 -0.188,1.165 -0.126,0.388 -0.305,0.756 -0.54,1.102 -0.527,0.79 -2.295,1.919 -5.304,3.388 -0.761,0.362 -1.35,0.647 -1.766,0.854 -2.816,1.415 -4.745,2.715 -5.791,3.91 -1.047,1.192 -1.572,2.604 -1.572,4.242 0,2.343 0.957,4.202 2.871,5.583 1.913,1.379 4.531,2.068 7.861,2.068 0.955,0 2.009,-0.062 3.16,-0.185 1.15,-0.127 2.398,-0.32 3.743,-0.582 v -4.847 c -1.193,0.902 -2.391,1.573 -3.598,2.018 -1.205,0.444 -2.461,0.665 -3.763,0.665 -1.651,0 -2.979,-0.353 -3.983,-1.061 C 4.932,24.121 4.43,23.199 4.43,22.063 c 0,-1.012 0.394,-1.907 1.185,-2.683 0.79,-0.776 2.566,-1.816 5.323,-3.119 0.152,-0.07 0.389,-0.18 0.708,-0.333 2.329,-1.068 4.068,-2.053 5.218,-2.951 0.859,-0.666 1.529,-1.478 2.008,-2.435 0.479,-0.956 0.716,-1.976 0.716,-3.056 0,-2.482 -1.136,-4.586 -3.409,-6.311 -2.275,-1.727 -5.116,-2.591 -8.526,-2.591 -1.096,0 -2.274,0.121 -3.534,0.355 C 2.857,-0.826 1.483,-0.472 0,0"
             style="fill:#231f20;fill-opacity:1;fill-rule:nonzero;stroke:none"
             id="path200"
             inkscape:connector-curvature="0" /></g><g
           id="g202"
           transform="translate(444.4814,219.8135)"><path
             d="m 0,0 c 0,-1.454 0.129,-2.534 0.385,-3.232 0.256,-0.7 0.696,-1.33 1.32,-1.883 h -7.921 c 0.621,0.553 1.063,1.183 1.32,1.883 0.256,0.698 0.384,1.778 0.384,3.232 v 18.694 c 0,1.456 -0.128,2.529 -0.384,3.222 -0.257,0.693 -0.699,1.311 -1.32,1.852 H 1.705 C 1.081,23.227 0.641,22.609 0.385,21.916 0.129,21.223 0,20.15 0,18.694 Z"
             style="fill:#231f20;fill-opacity:1;fill-rule:nonzero;stroke:none"
             id="path204"
             inkscape:connector-curvature="0" /></g><g
           id="g206"
           transform="translate(466.4541,219.8135)"><path
             d="m 0,0 c 0,-1.454 0.134,-2.534 0.396,-3.232 0.264,-0.7 0.701,-1.33 1.31,-1.883 h -7.922 c 0.622,0.553 1.063,1.183 1.319,1.883 0.257,0.698 0.385,1.778 0.385,3.232 v 20.607 h -2.329 c -1.606,0 -2.911,-0.125 -3.909,-0.375 -0.998,-0.25 -1.794,-0.65 -2.392,-1.205 l 1.435,4.741 H 8.942 L 7.591,19.109 C 7.162,19.623 6.596,20 5.896,20.243 5.194,20.486 4.312,20.607 3.244,20.607 H 0 Z"
             style="fill:#231f20;fill-opacity:1;fill-rule:nonzero;stroke:none"
             id="path208"
             inkscape:connector-curvature="0" /></g><g
           id="g210"
           transform="translate(496.3125,219.8135)"><path
             d="m 0,0 c 0,-1.454 0.132,-2.534 0.396,-3.232 0.262,-0.7 0.7,-1.33 1.311,-1.883 h -7.966 c 0.624,0.553 1.064,1.183 1.32,1.883 0.257,0.698 0.384,1.778 0.384,3.232 v 7.964 l -7.068,11.459 c -0.541,0.858 -1.126,1.644 -1.758,2.357 -0.63,0.716 -1.335,1.378 -2.11,1.988 h 6.386 l 7.504,-12.58 5.053,8.193 c 0.305,0.498 0.536,0.953 0.696,1.361 0.161,0.409 0.24,0.76 0.24,1.05 0,0.332 -0.1,0.662 -0.301,0.988 -0.202,0.325 -0.509,0.656 -0.926,0.988 H 9.898 L 0,7.882 Z"
             style="fill:#231f20;fill-opacity:1;fill-rule:nonzero;stroke:none"
             id="path212"
             inkscape:connector-curvature="0" /></g><g
           id="g214"
           transform="translate(32.6406,551.9551)"><path
             d="M 0,0 170.912,-170.907 V 0.005 L 0,-170.903"
             style="fill:none;stroke:#c8cace;stroke-width:0.25;stroke-linecap:butt;stroke-linejoin:round;stroke-miterlimit:10;stroke-dasharray:none;stroke-opacity:1"
             id="path216"
             inkscape:connector-curvature="0" /></g><path
           d="M 203.552,381.043 H 32.641 v 170.912 h 170.911 z"
           style="fill:none;stroke:#c8cace;stroke-width:0.25;stroke-linecap:butt;stroke-linejoin:round;stroke-miterlimit:10;stroke-dasharray:none;stroke-opacity:1"
           id="path218"
           inkscape:connector-curvature="0" /><g
           id="g220"
           transform="translate(132.3379,399.3555)"><path
             d="m 0,0 c -1.449,0 -2.884,0.051 -4.311,0.142 27.43,9.899 47.04,36.158 47.04,67.001 0,30.843 -19.61,57.104 -47.04,67.002 1.427,0.091 2.862,0.142 4.311,0.142 37.083,0 67.143,-30.061 67.143,-67.144 C 67.143,30.06 37.083,0 0,0 m -95.626,67.143 c 0,37.083 30.06,67.144 67.14,67.144 1.451,0 2.887,-0.051 4.31,-0.142 -27.427,-9.898 -47.038,-36.159 -47.038,-67.002 0,-30.843 19.611,-57.102 47.038,-67.001 C -25.599,0.051 -27.035,0 -28.486,0 c -37.08,0 -67.14,30.06 -67.14,67.143 m 83.419,65.153 C 17.008,125.021 38.658,98.613 38.658,67.143 38.658,35.674 17.008,9.266 -12.207,1.989 Z M -16.278,1.989 c -29.215,7.277 -50.866,33.686 -50.866,65.154 0,31.469 21.651,57.877 50.866,65.153 z M 0,138.357 c -4.879,0 -9.641,-0.493 -14.242,-1.427 -4.603,0.934 -9.364,1.427 -14.244,1.427 -39.327,0 -71.211,-31.882 -71.211,-71.214 0,-39.33 31.884,-71.214 71.211,-71.214 4.88,0 9.641,0.492 14.244,1.426 4.601,-0.934 9.363,-1.426 14.242,-1.426 39.33,0 71.214,31.884 71.214,71.214 0,39.332 -31.884,71.214 -71.214,71.214"
             style="fill:#231f20;fill-opacity:1;fill-rule:nonzero;stroke:none"
             id="path222"
             inkscape:connector-curvature="0" /></g><g
           id="g224"
           transform="translate(65.1943,466.4985)"><path
             d="M 0,0 C 0,-31.468 21.65,-57.877 50.865,-65.154 V 65.153 C 21.65,57.876 0,31.469 0,0"
             style="fill:#ffffff;fill-opacity:1;fill-rule:nonzero;stroke:none"
             id="path226"
             inkscape:connector-curvature="0" /></g><g
           id="g228"
           transform="translate(170.9961,466.4985)"><path
             d="M 0,0 C 0,31.47 -21.65,57.877 -50.865,65.153 V -65.154 C -21.65,-57.877 0,-31.469 0,0"
             style="fill:#ee3423;fill-opacity:1;fill-rule:nonzero;stroke:none"
             id="path230"
             inkscape:connector-curvature="0" /></g><g
           id="g232"
           transform="translate(61.124,466.4985)"><path
             d="m 0,0 c 0,30.843 19.611,57.104 47.038,67.002 -1.424,0.091 -2.859,0.142 -4.31,0.142 -37.081,0 -67.14,-30.061 -67.14,-67.144 0,-37.083 30.059,-67.143 67.14,-67.143 1.451,0 2.886,0.051 4.31,0.142 C 19.611,-57.102 0,-30.843 0,0"
             style="fill:#ee3423;fill-opacity:1;fill-rule:nonzero;stroke:none"
             id="path234"
             inkscape:connector-curvature="0" /></g><g
           id="g236"
           transform="translate(132.3379,533.6426)"><path
             d="m 0,0 c -1.449,0 -2.884,-0.051 -4.311,-0.142 27.43,-9.899 47.04,-36.159 47.04,-67.002 0,-30.843 -19.61,-57.102 -47.04,-67.002 1.427,-0.09 2.862,-0.141 4.311,-0.141 37.083,0 67.143,30.06 67.143,67.143 C 67.143,-30.061 37.083,0 0,0"
             style="fill:#ffffff;fill-opacity:1;fill-rule:nonzero;stroke:none"
             id="path238"
             inkscape:connector-curvature="0" /></g><g
           id="g240"
           transform="translate(248.4082,506.9146)"><path
             d="m 0,0 c -3.218,0 -5.868,-1.103 -7.954,-3.309 -2.087,-2.203 -3.131,-5.017 -3.131,-8.441 0,-3.535 1.032,-6.471 3.1,-8.806 2.063,-2.337 4.644,-3.505 7.735,-3.505 3.202,0 5.846,1.106 7.932,3.316 2.088,2.213 3.131,5.036 3.131,8.474 0,3.536 -1.034,6.464 -3.099,8.787 C 5.648,-1.162 3.076,0 0,0 m -0.168,-27.181 c -2.204,0 -4.28,0.354 -6.227,1.062 -1.948,0.707 -3.623,1.718 -5.021,3.035 -1.47,1.387 -2.604,3.019 -3.4,4.896 -0.798,1.88 -1.198,3.852 -1.198,5.917 0,1.624 0.255,3.195 0.76,4.721 0.507,1.526 1.244,2.946 2.216,4.263 1.51,2.037 3.378,3.606 5.601,4.699 2.228,1.096 4.649,1.644 7.269,1.644 2.244,0 4.343,-0.35 6.291,-1.051 1.947,-0.7 3.623,-1.709 5.022,-3.026 1.497,-1.386 2.64,-3.026 3.431,-4.917 0.79,-1.892 1.185,-3.934 1.185,-6.125 0,-2.009 -0.446,-3.979 -1.33,-5.904 -0.888,-1.927 -2.136,-3.634 -3.743,-5.117 -1.444,-1.345 -3.085,-2.362 -4.929,-3.056 -1.844,-0.692 -3.821,-1.041 -5.927,-1.041"
             style="fill:#231f20;fill-opacity:1;fill-rule:nonzero;stroke:none"
             id="path242"
             inkscape:connector-curvature="0" /></g><g
           id="g244"
           transform="translate(278.502,485.5366)"><path
             d="m 0,0 c 0,-1.455 0.127,-2.534 0.384,-3.233 0.256,-0.701 0.697,-1.328 1.32,-1.883 h -7.923 c 0.611,0.555 1.047,1.182 1.311,1.883 0.263,0.699 0.395,1.778 0.395,3.233 v 18.693 c 0,1.456 -0.132,2.532 -0.395,3.224 -0.264,0.694 -0.7,1.31 -1.311,1.851 H 3.784 c 2.857,0 5.16,-0.679 6.914,-2.037 1.754,-1.359 2.63,-3.127 2.63,-5.303 0,-1.581 -0.526,-2.974 -1.579,-4.179 C 10.693,11.043 9.06,9.98 6.841,9.066 l 7.507,-10.003 c 0.442,-0.595 0.977,-1.226 1.6,-1.891 0.624,-0.666 1.337,-1.359 2.142,-2.08 l -2.244,-0.208 h -0.354 c -1.054,0 -2.08,0.278 -3.078,0.833 -1,0.553 -1.846,1.316 -2.538,2.287 L 1.268,9.878 c 2.564,0.568 4.439,1.348 5.625,2.338 1.186,0.992 1.777,2.27 1.777,3.838 0,1.454 -0.51,2.639 -1.528,3.554 -1.019,0.916 -2.354,1.373 -4.003,1.373 -0.375,0 -0.825,-0.031 -1.352,-0.092 C 1.261,20.826 0.664,20.732 0,20.606 Z"
             style="fill:#231f20;fill-opacity:1;fill-rule:nonzero;stroke:none"
             id="path246"
             inkscape:connector-curvature="0" /></g><g
           id="g248"
           transform="translate(313.2559,485.5366)"><path
             d="m 0,0 c 0,-1.455 0.133,-2.534 0.396,-3.233 0.264,-0.701 0.7,-1.328 1.309,-1.883 h -7.922 c 0.624,0.555 1.064,1.182 1.321,1.883 0.255,0.699 0.385,1.778 0.385,3.233 V 20.606 H -6.84 c -1.609,0 -2.911,-0.124 -3.909,-0.373 -1,-0.25 -1.796,-0.651 -2.393,-1.207 l 1.436,4.742 H 8.943 L 7.59,19.109 c -0.43,0.514 -0.994,0.892 -1.694,1.134 -0.7,0.242 -1.583,0.363 -2.652,0.363 H 0 Z"
             style="fill:#231f20;fill-opacity:1;fill-rule:nonzero;stroke:none"
             id="path250"
             inkscape:connector-curvature="0" /></g><g
           id="g252"
           transform="translate(334.1211,494.1255)"><path
             d="M 0,0 H 8.525 L 4.429,11.166 Z m -3.909,-9.795 c -0.124,-0.291 -0.218,-0.593 -0.281,-0.904 -0.063,-0.312 -0.094,-0.635 -0.094,-0.968 0,-0.277 0.101,-0.582 0.303,-0.915 0.2,-0.332 0.523,-0.706 0.965,-1.123 h -6.82 c 0.569,0.389 1.079,0.921 1.528,1.601 0.451,0.679 0.912,1.607 1.382,2.787 L 1.206,11.29 c 0.167,0.389 0.292,0.77 0.374,1.145 0.083,0.373 0.126,0.707 0.126,0.997 0,0.333 -0.082,0.638 -0.239,0.916 -0.159,0.277 -0.421,0.553 -0.781,0.831 h 6.572 l 9.189,-24.204 c 0.429,-1.096 0.892,-1.986 1.384,-2.672 0.492,-0.687 1.126,-1.356 1.902,-2.008 h -8.274 l 0.103,0.104 c 0.761,0.804 1.143,1.393 1.143,1.768 0,0.445 -0.167,1.095 -0.499,1.955 -0.042,0.138 -0.076,0.242 -0.104,0.313 L 9.629,-2.892 H -1.144 Z"
             style="fill:#231f20;fill-opacity:1;fill-rule:nonzero;stroke:none"
             id="path254"
             inkscape:connector-curvature="0" /></g><g
           id="g256"
           transform="translate(383.3965,483.9155)"><path
             d="m 0,0 c 1.054,-0.168 1.962,-0.289 2.724,-0.365 0.763,-0.076 1.422,-0.114 1.977,-0.114 3.215,0 5.871,1.084 7.964,3.254 2.093,2.169 3.14,4.918 3.14,8.245 0,3.411 -1.039,6.153 -3.119,8.225 -2.081,2.072 -4.843,3.109 -8.297,3.109 -0.707,0 -1.427,-0.049 -2.162,-0.146 C 1.491,22.11 0.749,21.959 0,21.75 Z m -6.216,-3.495 c 0.611,0.541 1.04,1.151 1.29,1.83 0.248,0.679 0.373,1.775 0.373,3.286 v 18.693 c 0,1.512 -0.125,2.604 -0.373,3.275 -0.25,0.673 -0.679,1.274 -1.29,1.8 H 3.85 c 2.701,0 4.933,-0.263 6.694,-0.791 1.762,-0.527 3.39,-1.385 4.888,-2.577 1.677,-1.332 2.937,-2.892 3.784,-4.679 0.845,-1.788 1.267,-3.778 1.267,-5.969 0,-1.982 -0.315,-3.819 -0.945,-5.509 C 18.907,4.171 17.962,2.64 16.699,1.267 15.16,-0.411 13.284,-1.623 11.074,-2.372 8.863,-3.12 5.996,-3.495 2.475,-3.495 Z"
             style="fill:#231f20;fill-opacity:1;fill-rule:nonzero;stroke:none"
             id="path258"
             inkscape:connector-curvature="0" /></g><g
           id="g260"
           transform="translate(427.915,506.9146)"><path
             d="m 0,0 c -3.218,0 -5.867,-1.103 -7.954,-3.309 -2.086,-2.203 -3.129,-5.017 -3.129,-8.441 0,-3.535 1.031,-6.471 3.098,-8.806 2.066,-2.337 4.643,-3.505 7.735,-3.505 3.202,0 5.848,1.106 7.933,3.316 2.088,2.213 3.13,5.036 3.13,8.474 0,3.536 -1.033,6.464 -3.098,8.787 C 5.648,-1.162 3.077,0 0,0 m -0.165,-27.181 c -2.204,0 -4.281,0.354 -6.229,1.062 -1.948,0.707 -3.621,1.718 -5.023,3.035 -1.468,1.387 -2.602,3.019 -3.398,4.896 -0.798,1.88 -1.198,3.852 -1.198,5.917 0,1.624 0.255,3.195 0.76,4.721 0.506,1.526 1.244,2.946 2.215,4.263 1.512,2.037 3.379,3.606 5.604,4.699 2.226,1.096 4.648,1.644 7.269,1.644 2.245,0 4.342,-0.35 6.29,-1.051 1.947,-0.7 3.62,-1.709 5.021,-3.026 1.498,-1.386 2.64,-3.026 3.43,-4.917 0.791,-1.892 1.185,-3.934 1.185,-6.125 0,-2.009 -0.443,-3.979 -1.329,-5.904 -0.887,-1.927 -2.135,-3.634 -3.744,-5.117 -1.441,-1.345 -3.085,-2.362 -4.928,-3.056 -1.842,-0.692 -3.819,-1.041 -5.925,-1.041"
             style="fill:#231f20;fill-opacity:1;fill-rule:nonzero;stroke:none"
             id="path262"
             inkscape:connector-curvature="0" /></g><g
           id="g264"
           transform="translate(458.8037,518.8486)"><path
             d="m 0,0 h 1.351 c 0.25,-0.984 0.759,-1.695 1.527,-2.131 0.769,-0.437 1.896,-0.656 3.38,-0.656 1.483,0 2.607,0.219 3.369,0.656 0.761,0.436 1.255,1.147 1.476,2.131 h 1.373 C 12.171,-1.913 11.496,-3.357 10.448,-4.334 9.4,-5.313 8.005,-5.801 6.258,-5.801 c -1.761,0 -3.17,0.488 -4.232,1.467 C 0.965,-3.357 0.289,-1.913 0,0 m 16.344,-14.327 c -1.248,0.804 -2.475,1.396 -3.683,1.779 -1.203,0.381 -2.445,0.571 -3.721,0.571 -3.34,0 -6.036,-1.086 -8.088,-3.255 -2.052,-2.169 -3.078,-5.036 -3.078,-8.598 0,-3.716 1.071,-6.657 3.212,-8.827 2.142,-2.17 5.038,-3.254 8.682,-3.254 0.846,0 1.737,0.079 2.673,0.238 0.934,0.16 1.916,0.406 2.943,0.74 v 6.091 c 0,1.455 -0.129,2.531 -0.387,3.224 -0.254,0.694 -0.696,1.309 -1.319,1.851 h 5.634 v -14.058 c -1.872,-0.429 -3.607,-0.751 -5.207,-0.966 -1.602,-0.217 -3.088,-0.324 -4.463,-0.324 -2.01,0 -3.822,0.198 -5.436,0.594 -1.615,0.395 -3.081,0.994 -4.398,1.798 -2.148,1.29 -3.837,3.048 -5.063,5.271 -1.227,2.225 -1.841,4.641 -1.841,7.247 0,2.15 0.429,4.184 1.29,6.103 0.86,1.92 2.107,3.636 3.743,5.147 1.484,1.359 3.176,2.384 5.084,3.078 1.905,0.694 3.982,1.039 6.227,1.039 0.999,0 2.097,-0.072 3.296,-0.219 1.199,-0.144 2.498,-0.369 3.9,-0.673 z"
             style="fill:#231f20;fill-opacity:1;fill-rule:nonzero;stroke:none"
             id="path266"
             inkscape:connector-curvature="0" /></g><g
           id="g268"
           transform="translate(506.9258,480.4209)"><path
             d="M 0,0 V 2.204 C -1.412,1.191 -2.834,0.438 -4.262,-0.063 -5.689,-0.562 -7.146,-0.811 -8.63,-0.811 c -1.69,0 -3.193,0.277 -4.512,0.832 -1.316,0.554 -2.454,1.385 -3.409,2.496 -0.75,0.873 -1.286,1.887 -1.613,3.046 -0.325,1.158 -0.486,2.713 -0.486,4.667 v 13.579 c 0,1.456 -0.13,2.531 -0.386,3.224 -0.257,0.694 -0.691,1.31 -1.3,1.851 h 7.901 c -0.61,-0.541 -1.042,-1.157 -1.298,-1.851 -0.258,-0.693 -0.385,-1.768 -0.385,-3.224 V 11.125 c 0,-1.981 0.096,-3.452 0.291,-4.409 0.194,-0.956 0.52,-1.719 0.977,-2.287 0.554,-0.679 1.293,-1.19 2.214,-1.529 0.921,-0.337 2.028,-0.507 3.318,-0.507 1.053,0 2.037,0.154 2.952,0.466 0.915,0.312 1.718,0.766 2.412,1.362 0.609,0.499 1.046,1.147 1.309,1.945 0.265,0.796 0.397,1.882 0.397,3.255 v 14.388 c 0,1.512 -0.125,2.604 -0.374,3.275 -0.25,0.673 -0.68,1.274 -1.291,1.8 H 6.011 C 5.401,28.358 4.963,27.727 4.7,26.991 4.437,26.255 4.305,25.195 4.305,23.809 V 5.116 C 4.305,3.661 4.437,2.582 4.7,1.882 4.963,1.182 5.401,0.555 6.011,0 Z"
             style="fill:#231f20;fill-opacity:1;fill-rule:nonzero;stroke:none"
             id="path270"
             inkscape:connector-curvature="0" /></g><g
           id="g272"
           transform="translate(245.5381,442.9502)"><path
             d="m 0,0 c 0,-1.456 0.13,-2.534 0.394,-3.234 0.263,-0.7 0.701,-1.327 1.31,-1.881 h -7.923 c 0.625,0.554 1.065,1.181 1.322,1.881 0.254,0.7 0.384,1.778 0.384,3.234 v 20.606 h -2.33 c -1.607,0 -2.91,-0.125 -3.908,-0.374 -0.998,-0.251 -1.796,-0.651 -2.393,-1.204 l 1.435,4.741 H 8.941 L 7.588,19.109 C 7.158,19.623 6.595,20 5.894,20.243 c -0.7,0.241 -1.583,0.363 -2.65,0.363 l -3.244,0 z"
             style="fill:#231f20;fill-opacity:1;fill-rule:nonzero;stroke:none"
             id="path274"
             inkscape:connector-curvature="0" /></g><g
           id="g276"
           transform="translate(262.2266,437.835)"><path
             d="M 0,0 C 0.609,0.555 1.048,1.181 1.311,1.881 1.574,2.582 1.707,3.66 1.707,5.115 v 18.693 c 0,1.456 -0.133,2.531 -0.396,3.225 C 1.048,27.725 0.609,28.341 0,28.884 h 15.825 v -4.536 c -0.707,0.556 -1.484,0.958 -2.328,1.207 -0.847,0.251 -1.823,0.375 -2.933,0.375 -0.568,0 -1.207,-0.044 -1.915,-0.135 C 7.945,25.704 7.146,25.569 6.261,25.389 v -8.151 h 7.068 v -4.2 c -0.332,0.388 -0.781,0.662 -1.35,0.821 -0.57,0.159 -1.609,0.239 -3.12,0.239 H 6.261 V 3.742 C 7.354,3.575 8.346,3.452 9.232,3.368 10.119,3.285 10.89,3.243 11.541,3.243 c 1.47,0 2.855,0.198 4.16,0.593 1.301,0.395 2.584,1.002 3.847,1.819 L 17.53,0 Z"
             style="fill:#231f20;fill-opacity:1;fill-rule:nonzero;stroke:none"
             id="path278"
             inkscape:connector-curvature="0" /></g><g
           id="g280"
           transform="translate(295.5244,452.9937)"><path
             d="m 0,0 6.695,9.024 c 0.473,0.638 0.818,1.171 1.04,1.601 0.223,0.43 0.333,0.792 0.333,1.083 0,0.319 -0.089,0.644 -0.269,0.977 -0.182,0.333 -0.451,0.678 -0.81,1.041 h 7.236 L 4.907,0.81 13.393,-11.147 c 0.333,-0.484 0.807,-1.052 1.423,-1.705 0.617,-0.651 1.404,-1.42 2.36,-2.307 h -2.433 c -1.552,0 -2.828,0.294 -3.825,0.884 -0.998,0.588 -2.162,1.839 -3.494,3.753 z m -0.707,-10.043 c 0,-1.456 0.129,-2.534 0.385,-3.234 0.258,-0.701 0.696,-1.327 1.321,-1.882 h -7.923 c 0.61,0.555 1.046,1.181 1.311,1.882 0.262,0.7 0.394,1.778 0.394,3.234 V 8.649 c 0,1.456 -0.132,2.532 -0.394,3.226 -0.265,0.691 -0.701,1.307 -1.311,1.851 h 7.923 c -0.625,-0.544 -1.063,-1.16 -1.321,-1.851 -0.256,-0.694 -0.385,-1.77 -0.385,-3.226 z"
             style="fill:#231f20;fill-opacity:1;fill-rule:nonzero;stroke:none"
             id="path282"
             inkscape:connector-curvature="0" /></g><g
           id="g284"
           transform="translate(347.1992,466.7192)"><path
             d="M 0,0 C -0.624,-0.543 -1.064,-1.16 -1.32,-1.851 -1.578,-2.545 -1.706,-3.62 -1.706,-5.076 v -24.473 c -1.013,0.026 -1.973,0.352 -2.879,0.976 -0.908,0.624 -2.047,1.81 -3.421,3.556 l -14.908,18.798 v -17.55 c 0,-1.511 0.123,-2.607 0.373,-3.286 0.25,-0.679 0.681,-1.29 1.29,-1.829 h -6.55 c 0.609,0.554 1.045,1.181 1.308,1.881 0.264,0.7 0.396,1.778 0.396,3.234 v 18.693 c 0,1.456 -0.132,2.531 -0.396,3.225 -0.263,0.691 -0.699,1.308 -1.308,1.851 h 5.863 l 17.093,-21.691 v 16.615 c 0,1.456 -0.134,2.531 -0.395,3.225 -0.263,0.691 -0.7,1.308 -1.311,1.851 z"
             style="fill:#231f20;fill-opacity:1;fill-rule:nonzero;stroke:none"
             id="path286"
             inkscape:connector-curvature="0" /></g><g
           id="g288"
           transform="translate(357.7188,473.1416)"><path
             d="M 0,0 C 0,0.668 0.242,1.246 0.729,1.738 1.213,2.23 1.782,2.476 2.434,2.476 3.1,2.476 3.678,2.23 4.169,1.738 4.661,1.246 4.909,0.668 4.909,0 4.909,-0.705 4.672,-1.294 4.201,-1.766 3.729,-2.237 3.141,-2.474 2.434,-2.474 1.74,-2.474 1.162,-2.237 0.697,-1.766 0.232,-1.294 0,-0.705 0,0 m 4.7,-30.191 c 0,-1.456 0.128,-2.534 0.384,-3.234 0.258,-0.7 0.698,-1.327 1.321,-1.882 h -7.923 c 0.625,0.555 1.063,1.182 1.322,1.882 0.256,0.7 0.384,1.778 0.384,3.234 v 18.692 c 0,1.457 -0.128,2.532 -0.384,3.226 -0.259,0.691 -0.697,1.307 -1.322,1.851 H 6.405 C 5.782,-6.966 5.342,-7.582 5.084,-8.273 4.828,-8.967 4.7,-10.042 4.7,-11.499 Z"
             style="fill:#231f20;fill-opacity:1;fill-rule:nonzero;stroke:none"
             id="path290"
             inkscape:connector-curvature="0" /></g><g
           id="g292"
           transform="translate(380.1563,452.9937)"><path
             d="m 0,0 6.697,9.024 c 0.472,0.638 0.819,1.171 1.039,1.601 0.222,0.43 0.334,0.792 0.334,1.083 0,0.319 -0.091,0.644 -0.272,0.977 -0.18,0.333 -0.449,0.678 -0.811,1.041 h 7.237 L 4.908,0.81 13.393,-11.147 c 0.334,-0.484 0.807,-1.052 1.424,-1.705 0.617,-0.651 1.404,-1.42 2.361,-2.307 h -2.433 c -1.554,0 -2.827,0.294 -3.827,0.884 -0.997,0.588 -2.161,1.839 -3.492,3.753 z m -0.706,-10.043 c 0,-1.456 0.128,-2.534 0.384,-3.234 0.258,-0.701 0.697,-1.327 1.322,-1.882 h -7.923 c 0.61,0.555 1.048,1.181 1.311,1.882 0.262,0.7 0.393,1.778 0.393,3.234 V 8.649 c 0,1.456 -0.131,2.532 -0.393,3.226 -0.263,0.691 -0.701,1.307 -1.311,1.851 H 1 c -0.625,-0.544 -1.064,-1.16 -1.322,-1.851 -0.256,-0.694 -0.384,-1.77 -0.384,-3.226 z"
             style="fill:#231f20;fill-opacity:1;fill-rule:nonzero;stroke:none"
             id="path294"
             inkscape:connector-curvature="0" /></g><g
           id="g296"
           transform="translate(247.6387,430.5562)"><path
             d="m 0,0 c 0,0.625 0.238,1.17 0.717,1.643 0.477,0.47 1.035,0.706 1.674,0.706 0.624,0 1.16,-0.23 1.612,-0.694 C 4.452,1.188 4.678,0.638 4.678,0 4.678,-0.693 4.464,-1.258 4.034,-1.694 3.604,-2.131 3.057,-2.351 2.391,-2.351 1.712,-2.351 1.144,-2.124 0.685,-1.674 0.229,-1.223 0,-0.666 0,0 m -7.965,0 c 0,0.625 0.232,1.17 0.695,1.643 0.465,0.47 1.011,0.706 1.633,0.706 0.653,0 1.207,-0.23 1.665,-0.694 0.456,-0.467 0.686,-1.017 0.686,-1.655 0,-0.681 -0.218,-1.241 -0.655,-1.685 -0.438,-0.442 -1.002,-0.666 -1.696,-0.666 -0.678,0 -1.236,0.224 -1.674,0.666 -0.436,0.444 -0.654,1.004 -0.654,1.685 m 13.06,-35.309 v 2.205 c -1.416,-1.012 -2.835,-1.769 -4.264,-2.267 -1.429,-0.5 -2.883,-0.749 -4.366,-0.749 -1.692,0 -3.195,0.278 -4.513,0.832 -1.317,0.554 -2.454,1.387 -3.411,2.495 -0.747,0.874 -1.285,1.889 -1.611,3.046 -0.326,1.159 -0.489,2.715 -0.489,4.669 V -11.5 c 0,1.457 -0.128,2.53 -0.384,3.224 -0.256,0.694 -0.691,1.311 -1.3,1.852 h 7.902 c -0.61,-0.541 -1.044,-1.158 -1.301,-1.852 -0.256,-0.694 -0.382,-1.767 -0.382,-3.224 v -12.684 c 0,-1.983 0.096,-3.452 0.289,-4.408 0.195,-0.957 0.521,-1.719 0.977,-2.287 0.556,-0.679 1.292,-1.191 2.216,-1.53 0.923,-0.339 2.026,-0.508 3.315,-0.508 1.054,0 2.04,0.155 2.955,0.468 0.914,0.312 1.717,0.766 2.411,1.362 0.611,0.499 1.048,1.146 1.31,1.944 0.264,0.797 0.395,1.883 0.395,3.254 V -11.5 c 0,1.512 -0.123,2.604 -0.374,3.276 -0.25,0.673 -0.68,1.271 -1.289,1.8 h 7.923 C 10.492,-6.953 10.058,-7.582 9.793,-8.317 9.529,-9.053 9.398,-10.113 9.398,-11.5 v -18.694 c 0,-1.455 0.131,-2.533 0.395,-3.232 0.265,-0.7 0.699,-1.329 1.311,-1.883 z"
             style="fill:#231f20;fill-opacity:1;fill-rule:nonzero;stroke:none"
             id="path298"
             inkscape:connector-curvature="0" /></g><g
           id="g300"
           transform="translate(295.5879,424.1323)"><path
             d="M 0,0 C -0.624,-0.542 -1.064,-1.158 -1.32,-1.852 -1.577,-2.546 -1.704,-3.62 -1.704,-5.076 V -29.55 c -1.013,0.028 -1.974,0.353 -2.882,0.977 -0.906,0.624 -2.048,1.809 -3.42,3.557 L -22.915,-6.218 V -23.77 c 0,-1.511 0.125,-2.606 0.374,-3.285 0.249,-0.679 0.679,-1.288 1.288,-1.83 h -6.55 c 0.612,0.553 1.046,1.182 1.311,1.883 0.263,0.699 0.394,1.777 0.394,3.232 v 18.694 c 0,1.456 -0.131,2.53 -0.394,3.224 -0.265,0.694 -0.699,1.31 -1.311,1.852 h 5.865 l 17.091,-21.691 v 16.615 c 0,1.456 -0.131,2.53 -0.393,3.224 -0.264,0.694 -0.701,1.31 -1.31,1.852 z"
             style="fill:#231f20;fill-opacity:1;fill-rule:nonzero;stroke:none"
             id="path302"
             inkscape:connector-curvature="0" /></g><g
           id="g304"
           transform="translate(306.1074,430.5562)"><path
             d="M 0,0 C 0,0.666 0.242,1.244 0.729,1.737 1.214,2.229 1.781,2.476 2.434,2.476 3.1,2.476 3.677,2.229 4.17,1.737 4.661,1.244 4.907,0.666 4.907,0 4.907,-0.706 4.673,-1.296 4.201,-1.768 3.729,-2.239 3.14,-2.475 2.434,-2.475 1.74,-2.475 1.16,-2.239 0.696,-1.768 0.231,-1.296 0,-0.706 0,0 m 4.699,-30.194 c 0,-1.455 0.13,-2.533 0.386,-3.232 0.256,-0.7 0.695,-1.329 1.32,-1.883 h -7.923 c 0.623,0.554 1.065,1.183 1.321,1.883 0.256,0.699 0.384,1.777 0.384,3.232 V -11.5 c 0,1.457 -0.128,2.53 -0.384,3.224 -0.256,0.694 -0.698,1.311 -1.321,1.852 H 6.405 C 5.78,-6.965 5.341,-7.582 5.085,-8.276 4.829,-8.97 4.699,-10.043 4.699,-11.5 Z"
             style="fill:#231f20;fill-opacity:1;fill-rule:nonzero;stroke:none"
             id="path306"
             inkscape:connector-curvature="0" /></g><g
           id="g308"
           transform="translate(333.9043,394.5195)"><path
             d="m 0,0 c -1.233,0.319 -2.287,1.015 -3.159,2.09 -0.874,1.075 -1.678,2.679 -2.412,4.813 l -5.844,16.823 c -0.472,1.386 -0.919,2.516 -1.341,3.39 -0.424,0.873 -0.898,1.706 -1.424,2.497 l 5.966,-0.023 c 0.029,-0.471 0.077,-0.907 0.148,-1.31 0.068,-0.402 0.159,-0.783 0.269,-1.144 L -0.768,6.468 5.886,23.685 c 0.194,0.526 0.35,1.057 0.468,1.59 0.118,0.535 0.176,1.024 0.176,1.468 0,0.386 -0.11,0.799 -0.332,1.237 -0.221,0.436 -0.596,0.979 -1.124,1.633 h 6.635 z"
             style="fill:#231f20;fill-opacity:1;fill-rule:nonzero;stroke:none"
             id="path310"
             inkscape:connector-curvature="0" /></g><g
           id="g312"
           transform="translate(352.8711,395.2471)"><path
             d="M 0,0 C 0.608,0.554 1.046,1.183 1.309,1.883 1.573,2.582 1.704,3.66 1.704,5.115 V 23.81 c 0,1.456 -0.131,2.529 -0.395,3.223 C 1.046,27.727 0.608,28.344 0,28.885 H 15.824 V 24.35 c -0.707,0.555 -1.484,0.958 -2.33,1.206 -0.846,0.25 -1.823,0.375 -2.931,0.375 -0.569,0 -1.206,-0.045 -1.913,-0.135 C 7.943,25.706 7.145,25.571 6.258,25.39 v -8.151 h 7.07 v -4.201 c -0.332,0.389 -0.782,0.663 -1.35,0.822 -0.569,0.16 -1.61,0.239 -3.12,0.239 h -2.6 V 3.743 C 7.354,3.576 8.346,3.451 9.231,3.369 c 0.888,-0.083 1.659,-0.124 2.31,-0.124 1.469,0 2.855,0.196 4.158,0.592 1.303,0.394 2.585,1.002 3.848,1.819 L 17.53,0 Z"
             style="fill:#231f20;fill-opacity:1;fill-rule:nonzero;stroke:none"
             id="path314"
             inkscape:connector-curvature="0" /></g><g
           id="g316"
           transform="translate(385.4609,400.3623)"><path
             d="m 0,0 c 0,-1.455 0.129,-2.533 0.386,-3.232 0.255,-0.701 0.696,-1.33 1.319,-1.883 h -7.922 c 0.611,0.553 1.047,1.182 1.311,1.883 0.262,0.699 0.393,1.777 0.393,3.232 v 18.694 c 0,1.456 -0.131,2.53 -0.393,3.224 -0.264,0.694 -0.7,1.311 -1.311,1.852 H 3.785 c 2.856,0 5.16,-0.681 6.914,-2.041 1.754,-1.356 2.631,-3.125 2.631,-5.3 0,-1.582 -0.527,-2.974 -1.58,-4.181 C 10.696,11.043 9.061,9.982 6.841,9.067 l 7.508,-10.001 c 0.443,-0.597 0.977,-1.226 1.601,-1.893 0.624,-0.665 1.338,-1.36 2.142,-2.079 l -2.246,-0.209 h -0.353 c -1.055,0 -2.08,0.277 -3.079,0.834 -0.996,0.552 -1.843,1.314 -2.535,2.286 L 1.269,9.878 c 2.565,0.567 4.44,1.347 5.626,2.339 1.185,0.992 1.775,2.27 1.775,3.837 0,1.455 -0.507,2.64 -1.526,3.556 -1.02,0.916 -2.354,1.371 -4.003,1.371 -0.375,0 -0.827,-0.03 -1.354,-0.093 C 1.262,20.826 0.666,20.732 0,20.608 Z"
             style="fill:#231f20;fill-opacity:1;fill-rule:nonzero;stroke:none"
             id="path318"
             inkscape:connector-curvature="0" /></g><g
           id="g320"
           transform="translate(410.6143,395.8916)"><path
             d="M 0,0 -1.372,5.241 C 0.305,4.119 1.936,3.282 3.515,2.735 5.095,2.188 6.661,1.914 8.214,1.914 c 1.982,0 3.576,0.427 4.782,1.278 1.206,0.853 1.811,1.959 1.811,3.317 0,0.388 -0.064,0.776 -0.188,1.164 -0.126,0.39 -0.305,0.757 -0.54,1.102 -0.527,0.791 -2.295,1.92 -5.304,3.39 -0.761,0.36 -1.35,0.646 -1.766,0.852 -2.816,1.415 -4.745,2.718 -5.791,3.911 -1.047,1.192 -1.572,2.604 -1.572,4.241 0,2.343 0.957,4.204 2.871,5.583 1.913,1.379 4.531,2.069 7.861,2.069 0.955,0 2.009,-0.063 3.16,-0.187 1.15,-0.125 2.398,-0.319 3.743,-0.583 v -4.844 c -1.193,0.901 -2.391,1.574 -3.598,2.017 -1.205,0.443 -2.461,0.665 -3.763,0.665 -1.651,0 -2.979,-0.353 -3.983,-1.061 C 4.932,24.122 4.43,23.199 4.43,22.064 c 0,-1.012 0.394,-1.907 1.185,-2.684 0.79,-0.775 2.566,-1.816 5.323,-3.118 0.152,-0.069 0.389,-0.182 0.708,-0.333 2.329,-1.069 4.068,-2.052 5.218,-2.953 0.859,-0.665 1.529,-1.476 2.008,-2.433 0.479,-0.956 0.716,-1.975 0.716,-3.057 0,-2.481 -1.136,-4.586 -3.409,-6.31 -2.275,-1.727 -5.116,-2.589 -8.526,-2.589 -1.096,0 -2.274,0.118 -3.534,0.353 C 2.857,-0.824 1.483,-0.471 0,0"
             style="fill:#231f20;fill-opacity:1;fill-rule:nonzero;stroke:none"
             id="path322"
             inkscape:connector-curvature="0" /></g><g
           id="g324"
           transform="translate(439.7822,430.5562)"><path
             d="M 0,0 C 0,0.666 0.243,1.244 0.728,1.737 1.213,2.229 1.781,2.476 2.434,2.476 3.099,2.476 3.678,2.229 4.169,1.737 4.661,1.244 4.907,0.666 4.907,0 4.907,-0.706 4.672,-1.296 4.2,-1.768 3.729,-2.239 3.14,-2.475 2.434,-2.475 1.74,-2.475 1.16,-2.239 0.698,-1.768 0.231,-1.296 0,-0.706 0,0 m 4.699,-30.194 c 0,-1.455 0.129,-2.533 0.385,-3.232 0.256,-0.7 0.696,-1.329 1.32,-1.883 h -7.921 c 0.621,0.554 1.063,1.183 1.32,1.883 0.257,0.699 0.385,1.777 0.385,3.232 V -11.5 c 0,1.457 -0.128,2.53 -0.385,3.224 -0.257,0.694 -0.699,1.311 -1.32,1.852 H 6.404 C 5.78,-6.965 5.34,-7.582 5.084,-8.276 4.828,-8.97 4.699,-10.043 4.699,-11.5 Z"
             style="fill:#231f20;fill-opacity:1;fill-rule:nonzero;stroke:none"
             id="path326"
             inkscape:connector-curvature="0" /></g><g
           id="g328"
           transform="translate(466.4541,400.3623)"><path
             d="m 0,0 c 0,-1.455 0.134,-2.533 0.396,-3.232 0.264,-0.701 0.701,-1.33 1.31,-1.883 h -7.922 c 0.622,0.553 1.063,1.182 1.319,1.883 0.257,0.699 0.385,1.777 0.385,3.232 v 20.608 h -2.329 c -1.606,0 -2.911,-0.125 -3.909,-0.375 -0.998,-0.248 -1.794,-0.651 -2.392,-1.204 l 1.435,4.741 H 8.942 L 7.591,19.111 C 7.162,19.623 6.596,20 5.896,20.243 5.194,20.486 4.312,20.608 3.244,20.608 H 0 Z"
             style="fill:#231f20;fill-opacity:1;fill-rule:nonzero;stroke:none"
             id="path330"
             inkscape:connector-curvature="0" /></g><g
           id="g332"
           transform="translate(483.1445,395.2471)"><path
             d="M 0,0 C 0.61,0.554 1.046,1.183 1.311,1.883 1.573,2.582 1.705,3.66 1.705,5.115 V 23.81 c 0,1.456 -0.132,2.529 -0.394,3.223 C 1.046,27.727 0.61,28.344 0,28.885 H 15.825 V 24.35 c -0.708,0.555 -1.484,0.958 -2.329,1.206 -0.848,0.25 -1.824,0.375 -2.933,0.375 -0.568,0 -1.207,-0.045 -1.913,-0.135 C 7.943,25.706 7.146,25.571 6.26,25.39 v -8.151 h 7.07 v -4.201 c -0.334,0.389 -0.784,0.663 -1.353,0.822 -0.569,0.16 -1.608,0.239 -3.119,0.239 H 6.26 V 3.743 C 7.354,3.576 8.346,3.451 9.232,3.369 c 0.887,-0.083 1.657,-0.124 2.31,-0.124 1.47,0 2.854,0.196 4.158,0.592 1.302,0.394 2.585,1.002 3.847,1.819 L 17.529,0 Z"
             style="fill:#231f20;fill-opacity:1;fill-rule:nonzero;stroke:none"
             id="path334"
             inkscape:connector-curvature="0" /></g><g
           id="g336"
           transform="translate(511.125,395.8916)"><path
             d="M 0,0 -1.373,5.241 C 0.307,4.119 1.935,3.282 3.516,2.735 5.095,2.188 6.661,1.914 8.214,1.914 c 1.981,0 3.575,0.427 4.782,1.278 1.207,0.853 1.81,1.959 1.81,3.317 0,0.388 -0.063,0.776 -0.188,1.164 -0.124,0.39 -0.304,0.757 -0.54,1.102 -0.527,0.791 -2.295,1.92 -5.302,3.39 -0.763,0.36 -1.352,0.646 -1.768,0.852 -2.816,1.415 -4.743,2.718 -5.791,3.911 -1.047,1.192 -1.571,2.604 -1.571,4.241 0,2.343 0.957,4.204 2.871,5.583 1.913,1.379 4.531,2.069 7.86,2.069 0.957,0 2.009,-0.063 3.159,-0.187 1.153,-0.125 2.401,-0.319 3.744,-0.583 v -4.844 c -1.191,0.901 -2.389,1.574 -3.596,2.017 -1.207,0.443 -2.461,0.665 -3.766,0.665 -1.648,0 -2.977,-0.353 -3.98,-1.061 C 4.932,24.122 4.43,23.199 4.43,22.064 c 0,-1.012 0.393,-1.907 1.184,-2.684 0.792,-0.775 2.565,-1.816 5.324,-3.118 0.152,-0.069 0.388,-0.182 0.708,-0.333 2.329,-1.069 4.068,-2.052 5.219,-2.953 0.859,-0.665 1.529,-1.476 2.007,-2.433 0.478,-0.956 0.716,-1.975 0.716,-3.057 0,-2.481 -1.135,-4.586 -3.41,-6.31 -2.274,-1.727 -5.115,-2.589 -8.525,-2.589 -1.096,0 -2.274,0.118 -3.536,0.353 C 2.856,-0.824 1.484,-0.471 0,0"
             style="fill:#231f20;fill-opacity:1;fill-rule:nonzero;stroke:none"
             id="path338"
             inkscape:connector-curvature="0" /></g><g
           id="g340"
           transform="translate(540.293,430.5562)"><path
             d="M 0,0 C 0,0.666 0.242,1.244 0.727,1.737 1.212,2.229 1.781,2.476 2.433,2.476 3.099,2.476 3.676,2.229 4.168,1.737 4.661,1.244 4.907,0.666 4.907,0 4.907,-0.706 4.673,-1.296 4.2,-1.768 3.729,-2.239 3.141,-2.475 2.433,-2.475 1.739,-2.475 1.161,-2.239 0.695,-1.768 0.232,-1.296 0,-0.706 0,0 m 4.7,-30.194 c 0,-1.455 0.127,-2.533 0.384,-3.232 0.257,-0.7 0.697,-1.329 1.32,-1.883 h -7.922 c 0.623,0.554 1.065,1.183 1.322,1.883 0.255,0.699 0.383,1.777 0.383,3.232 V -11.5 c 0,1.457 -0.128,2.53 -0.383,3.224 -0.257,0.694 -0.699,1.311 -1.322,1.852 H 6.404 C 5.781,-6.965 5.341,-7.582 5.084,-8.276 4.827,-8.97 4.7,-10.043 4.7,-11.5 Z"
             style="fill:#231f20;fill-opacity:1;fill-rule:nonzero;stroke:none"
             id="path342"
             inkscape:connector-curvature="0" /></g><g
           id="g344"
           transform="translate(27.6406,810.9448)"><path
             d="M 0,0 V -780"
             style="fill:none;stroke:#231f20;stroke-width:0.5;stroke-linecap:butt;stroke-linejoin:miter;stroke-miterlimit:10;stroke-dasharray:none;stroke-opacity:1"
             id="path346"
             inkscape:connector-curvature="0" /></g><g
           id="g348"
           transform="translate(567.6387,810.9448)"><path
             d="M 0,0 V -780"
             style="fill:none;stroke:#231f20;stroke-width:0.5;stroke-linecap:butt;stroke-linejoin:miter;stroke-miterlimit:10;stroke-dasharray:none;stroke-opacity:1"
             id="path350"
             inkscape:connector-curvature="0" /></g><g
           id="g352"
           transform="translate(175.0713,557.3604)"><path
             d="M 0,0 V 12.34"
             style="fill:none;stroke:#231f20;stroke-width:0.25;stroke-linecap:butt;stroke-linejoin:miter;stroke-miterlimit:4;stroke-dasharray:none;stroke-opacity:1"
             id="path354"
             inkscape:connector-curvature="0" /></g><g
           id="g356"
           transform="translate(203.5527,557.3604)"><path
             d="M 0,0 V 12.34"
             style="fill:none;stroke:#231f20;stroke-width:0.25;stroke-linecap:butt;stroke-linejoin:miter;stroke-miterlimit:4;stroke-dasharray:none;stroke-opacity:1"
             id="path358"
             inkscape:connector-curvature="0" /></g><g
           id="g360"
           transform="translate(175.0674,563.5303)"><path
             d="M 0,0 H 28.485"
             style="fill:none;stroke:#231f20;stroke-width:0.25;stroke-linecap:butt;stroke-linejoin:miter;stroke-miterlimit:4;stroke-dasharray:none;stroke-opacity:1"
             id="path362"
             inkscape:connector-curvature="0" /></g><g
           id="g364"
           transform="translate(188.9844,566.1548)"><path
             d="m 0,0 -1.046,1.424 h 0.634 L 0.309,0.372 1.059,1.424 H 1.651 L 0.616,0.041 1.779,-1.582 H 1.146 l -0.837,1.245 -0.837,-1.245 h -0.6 z"
             style="fill:#231f20;fill-opacity:1;fill-rule:nonzero;stroke:none"
             id="path366"
             inkscape:connector-curvature="0" /></g><g
           id="g368"
           transform="translate(175.0674,555.7783)"><path
             d="M 0,0 V -6"
             style="fill:none;stroke:#231f20;stroke-width:0.25;stroke-linecap:butt;stroke-linejoin:miter;stroke-miterlimit:4;stroke-dasharray:none;stroke-opacity:1"
             id="path370"
             inkscape:connector-curvature="0" /></g><g
           id="g372"
           transform="translate(175.0674,539.1489)"><path
             d="M 0,0 V -58.462"
             style="fill:none;stroke:#231f20;stroke-width:0.25;stroke-linecap:butt;stroke-linejoin:miter;stroke-miterlimit:4;stroke-dasharray:10.63, 10.63;stroke-dashoffset:0;stroke-opacity:1"
             id="path374"
             inkscape:connector-curvature="0" /></g><g
           id="g376"
           transform="translate(175.0674,475.3716)"><path
             d="M 0,0 V -6"
             style="fill:none;stroke:#231f20;stroke-width:0.25;stroke-linecap:butt;stroke-linejoin:miter;stroke-miterlimit:4;stroke-dasharray:none;stroke-opacity:1"
             id="path378"
             inkscape:connector-curvature="0" /></g><g
           id="g380"
           transform="translate(32.6631,571.2495)"><path
             d="M 0,0 V 12.34"
             style="fill:none;stroke:#231f20;stroke-width:0.25;stroke-linecap:butt;stroke-linejoin:miter;stroke-miterlimit:4;stroke-dasharray:none;stroke-opacity:1"
             id="path382"
             inkscape:connector-curvature="0" /></g><g
           id="g384"
           transform="translate(203.5527,571.2495)"><path
             d="M 0,0 V 12.34"
             style="fill:none;stroke:#231f20;stroke-width:0.25;stroke-linecap:butt;stroke-linejoin:miter;stroke-miterlimit:4;stroke-dasharray:none;stroke-opacity:1"
             id="path386"
             inkscape:connector-curvature="0" /></g><g
           id="g388"
           transform="translate(32.6406,577.4199)"><path
             d="M 0,0 H 170.912"
             style="fill:none;stroke:#231f20;stroke-width:0.25;stroke-linecap:butt;stroke-linejoin:miter;stroke-miterlimit:4;stroke-dasharray:none;stroke-opacity:1"
             id="path390"
             inkscape:connector-curvature="0" /></g><g
           id="g392"
           transform="translate(118.1943,580.1826)"><path
             d="m 0,0 c -0.058,-0.147 -0.114,-0.271 -0.171,-0.372 -0.056,-0.101 -0.117,-0.183 -0.183,-0.248 -0.066,-0.063 -0.141,-0.109 -0.227,-0.138 -0.085,-0.03 -0.183,-0.045 -0.29,-0.045 -0.059,0 -0.116,0.005 -0.175,0.012 -0.058,0.008 -0.114,0.021 -0.169,0.041 v 0.453 c 0.047,-0.015 0.095,-0.031 0.143,-0.046 0.049,-0.016 0.097,-0.023 0.149,-0.023 0.1,0 0.182,0.023 0.244,0.069 0.061,0.047 0.116,0.115 0.162,0.204 l 0.204,0.512 -1.192,2.988 h 0.558 l 0.878,-2.459 h 0.011 l 0.844,2.459 h 0.523 z"
             style="fill:#231f20;fill-opacity:1;fill-rule:nonzero;stroke:none"
             id="path394"
             inkscape:connector-curvature="0" /></g><g
           id="g396"
           transform="translate(217.7949,508.8193)"><path
             d="M 0,0 H 12.34"
             style="fill:none;stroke:#231f20;stroke-width:0.25;stroke-linecap:butt;stroke-linejoin:miter;stroke-miterlimit:4;stroke-dasharray:none;stroke-opacity:1"
             id="path398"
             inkscape:connector-curvature="0" /></g><g
           id="g400"
           transform="translate(217.7949,395.7646)"><path
             d="M 0,0 H 12.34"
             style="fill:none;stroke:#231f20;stroke-width:0.25;stroke-linecap:butt;stroke-linejoin:miter;stroke-miterlimit:4;stroke-dasharray:none;stroke-opacity:1"
             id="path402"
             inkscape:connector-curvature="0" /></g><g
           id="g404"
           transform="translate(223.9648,508.8345)"><path
             d="M 0,0 V -113.07"
             style="fill:none;stroke:#231f20;stroke-width:0.25;stroke-linecap:butt;stroke-linejoin:miter;stroke-miterlimit:4;stroke-dasharray:none;stroke-opacity:1"
             id="path406"
             inkscape:connector-curvature="0" /></g></g></g><text
       transform="matrix(1,0,0,-1,211.0781,443.6851)"
       style="font-variant:normal;font-weight:normal;font-stretch:normal;font-size:5.81430006px;font-family:'HelveticaNeueLT Com 55 Roman';-inkscape-font-specification:HelveticaNeueLTCom-Roman;writing-mode:lr-tb;fill:#231f20;fill-opacity:1;fill-rule:nonzero;stroke:none"
       id="text410"><tspan
         x="0 3.3083367 6.2910724 8.3028202"
         y="0"
         sodipodi:role="line"
         id="tspan408">2y/3</tspan></text>
<g
       id="g412"><g
         id="g414"
         clip-path="url(#clipPath418)"><g
           id="g420"
           transform="translate(232.0342,557.3604)"><path
             d="M 0,0 V 12.34"
             style="fill:none;stroke:#231f20;stroke-width:0.25;stroke-linecap:butt;stroke-linejoin:miter;stroke-miterlimit:4;stroke-dasharray:none;stroke-opacity:1"
             id="path422"
             inkscape:connector-curvature="0" /></g><g
           id="g424"
           transform="translate(203.5527,557.3604)"><path
             d="M 0,0 V 12.34"
             style="fill:none;stroke:#231f20;stroke-width:0.25;stroke-linecap:butt;stroke-linejoin:miter;stroke-miterlimit:4;stroke-dasharray:none;stroke-opacity:1"
             id="path426"
             inkscape:connector-curvature="0" /></g><g
           id="g428"
           transform="translate(232.0381,563.5303)"><path
             d="M 0,0 H -28.485"
             style="fill:none;stroke:#231f20;stroke-width:0.25;stroke-linecap:butt;stroke-linejoin:miter;stroke-miterlimit:4;stroke-dasharray:none;stroke-opacity:1"
             id="path430"
             inkscape:connector-curvature="0" /></g><g
           id="g432"
           transform="translate(219.248,564.5732)"><path
             d="M 0,0 H -0.599 L -1.437,1.245 -2.273,0 h -0.633 l 1.162,1.622 -1.035,1.384 h 0.593 l 0.749,-1.053 0.722,1.053 h 0.634 L -1.128,1.582 Z"
             style="fill:#231f20;fill-opacity:1;fill-rule:nonzero;stroke:none"
             id="path434"
             inkscape:connector-curvature="0" /></g><g
           id="g436"
           transform="translate(232.0381,537.708)"><path
             d="M 0,0 V -156.665"
             style="fill:none;stroke:#231f20;stroke-width:0.25;stroke-linecap:butt;stroke-linejoin:miter;stroke-miterlimit:4;stroke-dasharray:none;stroke-opacity:1"
             id="path438"
             inkscape:connector-curvature="0" /></g><g
           id="g440"
           transform="translate(132.3379,395.2793)"><path
             d="M 0,0 H 416.615"
             style="fill:none;stroke:#231f20;stroke-width:0.25;stroke-linecap:butt;stroke-linejoin:miter;stroke-miterlimit:4;stroke-dasharray:none;stroke-opacity:1"
             id="path442"
             inkscape:connector-curvature="0" /></g><g
           id="g444"
           transform="translate(132.3379,509.3047)"><path
             d="M 0,0 H 416.615"
             style="fill:none;stroke:#231f20;stroke-width:0.25;stroke-linecap:butt;stroke-linejoin:miter;stroke-miterlimit:4;stroke-dasharray:none;stroke-opacity:1"
             id="path446"
             inkscape:connector-curvature="0" /></g></g></g><text
       transform="matrix(1,0,0,-1,212.6401,16.8047)"
       style="font-variant:normal;font-weight:normal;font-stretch:normal;font-size:10px;font-family:'HelveticaNeueLT Com 55 Roman';-inkscape-font-specification:HelveticaNeueLTCom-Roman;writing-mode:lr-tb;fill:#231f20;fill-opacity:1;fill-rule:nonzero;stroke:none"
       id="text450"><tspan
         x="0"
         y="0"
         id="tspan448">6</tspan></text>
</g></svg>