<?xml version="1.0" encoding="UTF-8" standalone="no"?>
<!-- Created with Inkscape (http://www.inkscape.org/) -->

<svg
   xmlns:dc="http://purl.org/dc/elements/1.1/"
   xmlns:cc="http://creativecommons.org/ns#"
   xmlns:rdf="http://www.w3.org/1999/02/22-rdf-syntax-ns#"
   xmlns:svg="http://www.w3.org/2000/svg"
   xmlns="http://www.w3.org/2000/svg"
   xmlns:sodipodi="http://sodipodi.sourceforge.net/DTD/sodipodi-0.dtd"
   xmlns:inkscape="http://www.inkscape.org/namespaces/inkscape"
   version="1.1"
   id="svg2"
   xml:space="preserve"
   width="793.70801"
   height="1122.52"
   viewBox="0 0 793.70801 1122.52"
   sodipodi:docname="p8.svg"
   inkscape:version="0.92.2 5c3e80d, 2017-08-06"><metadata
     id="metadata8"><rdf:RDF><cc:Work
         rdf:about=""><dc:format>image/svg+xml</dc:format><dc:type
           rdf:resource="http://purl.org/dc/dcmitype/StillImage" /><dc:title></dc:title></cc:Work></rdf:RDF></metadata><defs
     id="defs6" /><sodipodi:namedview
     pagecolor="#ffffff"
     bordercolor="#666666"
     borderopacity="1"
     objecttolerance="10"
     gridtolerance="10"
     guidetolerance="10"
     inkscape:pageopacity="0"
     inkscape:pageshadow="2"
     inkscape:window-width="1920"
     inkscape:window-height="1036"
     id="namedview4"
     showgrid="false"
     inkscape:zoom="0.21024124"
     inkscape:cx="-299.96457"
     inkscape:cy="561.26001"
     inkscape:window-x="0"
     inkscape:window-y="20"
     inkscape:window-maximized="0"
     inkscape:current-layer="g10" /><g
     id="g10"
     inkscape:groupmode="layer"
     inkscape:label="branding3"
     transform="matrix(1.3333333,0,0,-1.3333333,0,1122.52)"><text
       transform="matrix(1,0,0,-1,407.6387,708.8057)"
       style="font-variant:normal;font-weight:300;font-stretch:normal;font-size:10px;font-family:'HelveticaNeueLT Com 45 Lt';-inkscape-font-specification:HelveticaNeueLTCom-Lt;writing-mode:lr-tb;fill:#231f20;fill-opacity:1;fill-rule:nonzero;stroke:none"
       id="text16"><tspan
         x="0 6.8699999 12.37 15.28 20.57 22.610001 24.67 29.91 34.790001 40.34 45.07 50.639999 56.139999 59.049999 63.759998 69.18 75.110001 77.150002 79.190002 87.730003 93.050003 95.959999 101.38 109.92 115.27 120.66 122.46 125.37"
         y="0"
         sodipodi:role="line"
         id="tspan12">Bu kılavuzun yapılma amacı, </tspan><tspan
         x="-15 -9.4399996 -4.0300002 -1.99 0.050000001 5.6100001 11.23 16.02 18.059999 21.290001 27.23 32.549999 35.459999 40.48 46.43 51.880001 56.889999 58.959999 63.59 68.800003 74.209999 79.120003 83.800003 89.57 95.129997 97.190002 102.61 106.01 107.99 110.9 116.82 122.38 124.42 129.99001 135.55 144.09"
         y="11"
         sodipodi:role="line"
         id="tspan14">halihazırda spesiﬁkasyonları bulunma</tspan></text>
<text
       transform="matrix(1,0,0,-1,557.0487,697.8057)"
       style="font-variant:normal;font-weight:300;font-stretch:normal;font-size:10px;font-family:'HelveticaNeueLT Com 45 Lt';-inkscape-font-specification:HelveticaNeueLTCom-Lt;writing-mode:lr-tb;fill:#231f20;fill-opacity:1;fill-rule:nonzero;stroke:none"
       id="text20"><tspan
         x="0"
         y="0"
         id="tspan18">-</tspan></text>
<text
       transform="matrix(1,0,0,-1,392.6387,686.8057)"
       style="font-variant:normal;font-weight:300;font-stretch:normal;font-size:10px;font-family:'HelveticaNeueLT Com 45 Lt';-inkscape-font-specification:HelveticaNeueLTCom-Lt;writing-mode:lr-tb;fill:#231f20;fill-opacity:1;fill-rule:nonzero;stroke:none"
       id="text64"><tspan
         x="0 4.71 10.14 15.64 18.549999 24.120001 29.68 31.77 36.459999 41.900002 45.279999 50.290001 52.349998 55.290001 60.610001 63.52 68.940002 77.459999 83.389999 85.459999 90.900002 99.419998 101.47 107.03 109.01 111.92 116.89 120.03 125.46 131.02 136.96001 142.38 146.03999 148.77 152.60001"
         y="0"
         sodipodi:role="line"
         id="tspan22">yan üniversite amblemini standart- </tspan><tspan
         x="0 2.0599999 7.4699998 12.44 15.5 17.540001 20.940001 29.48 34.900002 40.029999 42.939999 47.630001 52.950001 55.860001 63.470001 70.220001 76.029999 82.940002 85.699997 90.389999 95.709999 98.620003 104.18 109.6 114.59 119.89 123.21 126.27 128.34 134.09 136.07001"
         y="11"
         sodipodi:role="line"
         id="tspan24">laştırmak ve ODTÜ’ye hakettiği </tspan><tspan
         x="0 5.2199998 10.79 14.2 19.77 28.280001 33.330002 38.740002 40.720001 43.630001 48.919998 50.959999 59.48 61.52 63.59 69.339996 71.379997 76.940002 78.919998 81.830002 87.040001 92.660004 97.529999 102.96 108.52 114.44 116.47 119.87 128.41 133.74001 139.67999 145 147.91 149.95 151.99001 157.12"
         y="22"
         sodipodi:role="line"
         id="tspan26">kurumsal kimliğini kazandırmada ilk </tspan><tspan
         x="0 5.3299999 11.25 13.28 21.790001 23.77 26.68 31.969999 35.029999 43.57 48.990002 54.470001 57.529999 59.57 62.09 65"
         y="33"
         sodipodi:role="line"
         id="tspan28">adımı atmaktır. </tspan><tspan
         x="15 21.870001 27.370001 30.280001 32.32 37.869999 42.880001 44.970001 49.68 54.970001 58.029999 60.099998 64.739998 70.239998 73.150002 78.919998 84.669998 89.639999 92.580002 98.019997 101.42 103.46 105.5 114.04 119.49 124.5 126.54 132.10001 138.06 143.5 148.78999 150.77 153.67999 159.25999 164.71001 168.53999"
         y="44"
         sodipodi:role="line"
         id="tspan30">Bu insiyatiﬁn gösterilmesindeki ne- </tspan><tspan
         x="0 5.96 11.4 16.959999 19.030001 24.469999 27.75 30.66 35.709999 40.939999 45.810001 47.849998 49.91 55.259998 60.689999 66.110001 71.239998 74.150002 79.919998 81.959999 87.529999 90.910004 95.949997 101.17 104.08"
         y="55"
         sodipodi:role="line"
         id="tspan32">denler sayılacak olursa: </tspan><tspan
         x="15 20.42 28.940001 34.869999 36.939999 42.380001 50.900002 52.939999 58.439999 61.349998 66.059998 71.489998 77.050003 79.089996 81.129997 86.07 88.980003 94.75 98.059998 103.49 109.05 111.11 116.53 119.76 125.7 131.02 133.92999 138.62 143.94"
         y="66"
         sodipodi:role="line"
         id="tspan34">amblemin yanlış oranlarda ve </tspan><tspan
         x="0 4.71 10.14 15.7 17.74 19.780001 24.719999 27.629999 30.879999 36.32 41.880001 47.169998 49.240002 54.68 57.91 63.869999 69.190002 72.099998 77.32 82.879997 84.919998 86.980003 92.410004 97.970001 100.01 102.05 110.59 116 121.01 122.81 125.72"
         y="77"
         sodipodi:role="line"
         id="tspan36">yanlış renklerde kullanılması, </tspan><tspan
         x="15 19.969999 23.110001 28.540001 34.099998 40.040001 45.459999 49.119999 52.209999 55.119999 60.540001 69.059998 74.989998 77.059998 82.5 90.959999 93.870003 98.580002 104.2 108.99 111.04 116.05 118.09 123.65 125.7 131.2 134.11 138.78999 144.56 149.23 153.06"
         y="88"
         sodipodi:role="line"
         id="tspan38">standart amblem yazısının yok- </tspan><tspan
         x="0 5 10.57 16.129999 18.17 23.75 29.5 35.07 40.630001 46.57 52 57.5 60.41 66.360001 72.129997 77.900002 83.330002 88.830002 91.739998 96.449997 101.88 107.44 109.48 111.52 116.46 119.37 124.59 130.14999 132.19 134.25 139.67999 145.24001 147.28 155.8 157.86 163.28 165.82001 168.73"
         y="99"
         sodipodi:role="line"
         id="tspan40">sunluğundan doğan yanlış kullanımlar, </tspan><tspan
         x="15 20.42 28.940001 34.869999 36.939999 42.380001 50.900002 52.939999 58.439999 61.349998 66.32 69.459999 74.889999 80.449997 86.389999 91.809998 95.470001 98.559998 101.47 106.9 112.46 117.78 120.69 126.25 131.53999 134.63 137.53999 142.22 147.99001 152.66 156.49001"
         y="110"
         sodipodi:role="line"
         id="tspan42">amblemin standart ana hat yok- </tspan><tspan
         x="0 5 10.57 16.129999 18.17 23.75 29.5 35.07 40.630001 46.57 52 57.5 60.41 66.360001 72.129997 74.190002 79.419998 84.290001 86.269997 89.18 94.470001 96.510002 99.910004 108.43 110.46 115.25 117.23 120.14 124.83 130.14999 133.06 139.00999 144.28999 149 154.62 159.38"
         y="121"
         sodipodi:role="line"
         id="tspan44">sunluğundan dolayı kırmızı ve beyaz </tspan><tspan
         x="0 5.4200001 8.8199997 14.03 19.450001 25.379999 27.440001 32.869999 38.43 40.490002 45.91 49.139999 55.080002 60.400002 63.310001 68.519997 73.75 78.620003 84.57 90.339996 92.379997 100.92 106.33 111.34 113.14"
         y="132"
         sodipodi:role="line"
         id="tspan46">arkaplanlarda kaybolması,</tspan><tspan
         x="15 20.42 28.940001 34.869999 36.939999 42.380001 50.900002 52.939999 58.439999 61.349998 66.059998 71.489998 77.050003 79.089996 81.129997 86.07 88.980003 94.400002 97.800003 103.01 108.43 114.36 116.42 121.85 127.41 129.47 134.89 138.12 144.06 149.38"
         y="143"
         sodipodi:role="line"
         id="tspan48">amblemin yanlış arkaplanlarda </tspan><tspan
         x="0 5.2199998 10.78 12.82 14.88 20.309999 25.870001 27.91 29.950001 38.490002 43.900002 48.91 50.700001"
         y="154"
         sodipodi:role="line"
         id="tspan50">kullanılması.</tspan><tspan
         x="15 17.33 19.4 24.84 28.24 30.290001 36.25 41.689999 46.98 48.959999 51.869999 56.919998 62.150002 67.279999 70.029999 75.440002 77.5 82.919998 86.150002 92.089996 97.410004 100.32 103.23 108.11 113.68 118.89 124.31 127.71 129.75999 135.7 141.02 143.92999 148.98 154.22 159.09 161.08 164.91"
         y="165"
         sodipodi:role="line"
         id="tspan52">İlerideki sayfalarda, yukarıda sayı- </tspan><tspan
         x="0 2.0599999 7.4899998 12.99 15.9 21.48 26.91 32.869999 38.310001 43.869999 45.939999 51.380001 54.610001 60.57 66.010002 71.510002 74.419998 80.370003 86.139999 88.199997 93.43 98.300003 100.28 103.19 108.16 111.3 116.73 122.29 128.23 133.64999 137.31 140.37 142.42999 147.85001 150.39 153.3"
         y="176"
         sodipodi:role="line"
         id="tspan54">lan nedenlerden dolayı standartlar, </tspan><tspan
         x="0 3.25 8.6899996 14.25 19.540001 21.610001 27.049999 29.59 32.5 35.41 40.830002 49.349998 55.279999 57.349998 62.790001 71.25 74.160004 78.870003 84.489998 89.279999 91.330002 96.339996 98.32 101.23 105.92 111.24 114.15 118.86 124.29 129.85001 131.89 133.92999 138.87"
         y="187"
         sodipodi:role="line"
         id="tspan56">renkler, amblem yazısı ve yanlış </tspan><tspan
         x="0 5.2199998 10.78 12.82 14.88 20.309999 25.870001 27.91 36.43 38.490002 43.91 47.189999 50.099998 55.849998 57.889999 63.82 65.800003 68.709999 73.660004 79.43 84.980003 90.540001 92.599998 98.019997 101.33 106.65 109.56 115.52 120.97 126.72 128.75999 134.32001 136.36 138.39999 146.92 148.97 153.94 157 159.03999 161.56"
         y="198"
         sodipodi:role="line"
         id="tspan58">kullanımlar gibi konulara değinilmiştir.</tspan><tspan
         x="-165 -162.09 -156.25 -150.67 -145.35001 -142.44 -136.52 -130.95 -127.55 -121.6 -115.85 -110.85 -105.53 -102.62 -97.010002 -94.290001 -91.379997 -88.309998 -82.75 -80.699997 -75.760002 -72.849998 -64.309998 -58.880001 -53.330002 -47.75 -42.34 -40.360001 -37.450001 -35.400002 -30.459999 -27.549999 -24.65 -18.959999"
         y="-22"
         sodipodi:role="line"
         id="tspan60"> The purpose of this manual is to </tspan><tspan
         x="-180 -175.03 -171.89 -166.46001 -160.89999 -154.96001 -149.53999 -146.31 -140.39 -138.37 -133.7 -128.38 -125.47 -122.4 -116.82 -111.5 -108.59 -103.68 -98.809998 -90.290001 -84.339996 -78.57 -76.589996 -73.68 -68.07 -65.349998 -62.439999 -59.369999 -53.790001 -48.470001 -45.560001 -39.990002 -34.43 -32.34 -27.65 -22.209999"
         y="-11"
         sodipodi:role="line"
         id="tspan62">standardize the symbol of the univer</tspan></text>
<text
       transform="matrix(1,0,0,-1,373.1687,697.8057)"
       style="font-variant:normal;font-weight:300;font-stretch:normal;font-size:10px;font-family:'HelveticaNeueLT Com 45 Lt';-inkscape-font-specification:HelveticaNeueLTCom-Lt;writing-mode:lr-tb;fill:#231f20;fill-opacity:1;fill-rule:nonzero;stroke:none"
       id="text68"><tspan
         x="0"
         y="0"
         id="tspan66">-</tspan></text>
<text
       transform="matrix(1,0,0,-1,212.6387,686.8057)"
       style="font-variant:normal;font-weight:300;font-stretch:normal;font-size:10px;font-family:'HelveticaNeueLT Com 45 Lt';-inkscape-font-specification:HelveticaNeueLTCom-Lt;writing-mode:lr-tb;fill:#231f20;fill-opacity:1;fill-rule:nonzero;stroke:none"
       id="text76"><tspan
         x="0 5.0100002 7.0700002 10.41 15.17 18.08 23.51 29.07 34.939999 37.849998 40.75 46.439999 49.349998 52.490002 57.91 62.900002 68.220001 71.129997 74.199997 79.779999 85.099998 88.010002 92.639999 96.019997 100.99 104.08 106.99 109.03 114.59 116.66 119.72 121.78 127.07 130.13 132.22 136.91 142.23 145.14 147.17999 152.67999"
         y="0"
         sodipodi:role="line"
         id="tspan70">sity and to take the ﬁrst initiative in </tspan><tspan
         x="0 5.4400001 10.86 14.27 19.83 21.879999 27.440001 33.130001 36.040001 44.549999 50.91 56.720001 63.700001 66.610001 68.669998 71.739998 76.68 79.589996 82.989998 85.059998 90.82 96.309998 99.25 104.7 110.46 116.03 120.97 123.88 128.75 130.8 135.8 141.38 146.78999 148.77"
         y="11"
         sodipodi:role="line"
         id="tspan72">earning METU its righteous visual </tspan><tspan
         x="0 2.05 8.0100002 13.45 18.940001 22 24.059999 27.4 31.549999"
         y="22"
         sodipodi:role="line"
         id="tspan74">identity.</tspan></text>
<text
       transform="matrix(1,0,0,-1,227.6387,653.8057)"
       style="font-variant:normal;font-weight:300;font-stretch:normal;font-size:10px;font-family:'HelveticaNeueLT Com 45 Lt';-inkscape-font-specification:HelveticaNeueLTCom-Lt;writing-mode:lr-tb;fill:#231f20;fill-opacity:1;fill-rule:nonzero;stroke:none"
       id="text82"><tspan
         x="0 5.8400002 11.42 16.74 19.65 22.9 28.34 33.75 38.740002 44.509998 50.060001 55 57.91 63.52 66.239998 69.150002 72.290001 77.709999 83 85.040001 90.599998 96.290001 99.199997 102.27 107.83 109.88 114.82 117.73 119.78 125.34 127.4 130.46001 132.52 137.81 140.87 142.96001 147.64999 152.97"
         y="0"
         sodipodi:role="line"
         id="tspan78">The reasons of taking this initiative </tspan><tspan
         x="-15 -12.96 -7.4000001 -2.01 0.029999999 5.6100001 11.57"
         y="11"
         sodipodi:role="line"
         id="tspan80">include</tspan></text>
<text
       transform="matrix(1,0,0,-1,227.6387,631.8057)"
       style="font-variant:normal;font-weight:300;font-stretch:normal;font-size:10px;font-family:'HelveticaNeueLT Com 45 Lt';-inkscape-font-specification:HelveticaNeueLTCom-Lt;writing-mode:lr-tb;fill:#231f20;fill-opacity:1;fill-rule:nonzero;stroke:none"
       id="text86"><tspan
         x="0 3.0699999 8.6499996 13.97 16.879999 22.450001 27.5 32.849998 38.639999 43.959999 46.869999 52.48 55.200001 58.110001 61.18 66.760002 72.080002 74.989998 79.900002 84.769997 93.290001 99.239998 105.01 106.99 109.9 111.94 117.44 120.35 126.27 128.34 131.44 134.12 139.56"
         y="0"
         sodipodi:role="line"
         id="tspan84">the usage of the symbol in differ</tspan></text>
<text
       transform="matrix(1,0,0,-1,369.9287,631.8057)"
       style="font-variant:normal;font-weight:300;font-stretch:normal;font-size:10px;font-family:'HelveticaNeueLT Com 45 Lt';-inkscape-font-specification:HelveticaNeueLTCom-Lt;writing-mode:lr-tb;fill:#231f20;fill-opacity:1;fill-rule:nonzero;stroke:none"
       id="text90"><tspan
         x="0"
         y="0"
         id="tspan88">-</tspan></text>
<text
       transform="matrix(1,0,0,-1,212.6387,620.8057)"
       style="font-variant:normal;font-weight:300;font-stretch:normal;font-size:10px;font-family:'HelveticaNeueLT Com 45 Lt';-inkscape-font-specification:HelveticaNeueLTCom-Lt;writing-mode:lr-tb;fill:#231f20;fill-opacity:1;fill-rule:nonzero;stroke:none"
       id="text106"><tspan
         x="0 5.4400001 10.93 14.02 16.93 20.24 25.530001 28.59 30.66 36.41 41.349998 44.259998 49.689999 55.25 61.119999 64.029999 69.440002 75.209999 77.279999 83.040001 88.610001 91.989998 96.849998"
         y="0"
         sodipodi:role="line"
         id="tspan92">ent ratios and colours,</tspan><tspan
         x="15 20.57 26.129999 31.48 36.889999 42.299999 47.740002 53.52 56.66 62.080002 68.010002 70.080002 75.400002 78.309998 83.879997 88.870003 94.32 99.260002 102.17 107.59 110.99 113.04 118.05 120.09 125.65 131.34 134.25 137.09 140.32001 146.09 154.55"
         y="11"
         sodipodi:role="line"
         id="tspan94">unacceptable uses arising from </tspan><tspan
         x="0 3.0699999 8.6499996 13.97 16.879999 18.940001 24.290001 29.690001 34.82 37.73 43.34 46.060001 48.970001 54.290001 57.200001 62.169998 65.309998 70.739998 76.300003 82.239998 87.660004 90.889999 96.760002 99.669998 101.74 107.51 113.28 118.88 122.22 127.09 133.03999 138.21001"
         y="22"
         sodipodi:role="line"
         id="tspan96">the lack of a standard logotype,</tspan><tspan
         x="15 20.93 23 28.440001 34 39.919998 41.959999 47.52 53.209999 56.119999 61.73 64.449997 67.360001 70.43 76.010002 81.330002 84.239998 89.150002 94.019997 102.54 108.49 114.26 116.24 119.15 121.2 126.69 129.59 135.28 138.19 141.44 146.87 152.74001"
         y="33"
         sodipodi:role="line"
         id="tspan98">blending of the symbol into red </tspan><tspan
         x="0 5.4299998 10.99 16.860001 19.77 27.4 32.959999 35.02 37.959999 43.279999 46.189999 52.110001 57.459999 62.860001 67.809998 73.57 76.800003 82.559998 88.129997 93.699997 99.629997 104.57 107.48 113.41 119.01 124.33 127.24 130.14 135.83 138.74001 141.81 147.39 152.71001"
         y="44"
         sodipodi:role="line"
         id="tspan100">and white backgrounds due to the </tspan><tspan
         x="0 2.0599999 7.4099998 12.81 17.940001 20.85 26.459999 29.18 32.09 37.41 40.32 48.860001 54.27 56.310001 61.810001 64.720001 69.690002 72.75 75.980003 81.75 86.739998 91.910004"
         y="55"
         sodipodi:role="line"
         id="tspan102">lack of a main stroke,</tspan><tspan
         x="15 20.43 25.99 31.860001 34.77 37.84 43.419998 48.740002 51.650002 57.220001 62.27 67.620003 73.410004 78.730003 81.639999 87.25 89.970001 92.879997 95.949997 101.53 106.85 109.76 114.67 119.54 128.06 134.00999 139.78 141.75999 144.67 150.44 155.94"
         y="66"
         sodipodi:role="line"
         id="tspan104">and the usage of the symbol on </tspan></text>
<text
       transform="matrix(1,0,0,-1,212.6387,543.8057)"
       style="font-variant:normal;font-weight:300;font-stretch:normal;font-size:10px;font-family:'HelveticaNeueLT Com 45 Lt';-inkscape-font-specification:HelveticaNeueLTCom-Lt;writing-mode:lr-tb;fill:#231f20;fill-opacity:1;fill-rule:nonzero;stroke:none"
       id="text110"><tspan
         x="0 2.04 7.5999999 13.01 18.780001 22.18 25.43 30.879999 36.259998 39.349998 42.259998 48.18 53.529999 58.93 63.880001 69.639999 72.870003 78.629997 84.199997 89.769997 95.699997 100.58"
         y="0"
         sodipodi:role="line"
         id="tspan108">incorrect backgrounds.</tspan></text>
<text
       transform="matrix(1,0,0,-1,227.6387,532.8057)"
       style="font-variant:normal;font-weight:300;font-stretch:normal;font-size:10px;font-family:'HelveticaNeueLT Com 45 Lt';-inkscape-font-specification:HelveticaNeueLTCom-Lt;writing-mode:lr-tb;fill:#231f20;fill-opacity:1;fill-rule:nonzero;stroke:none"
       id="text118"><tspan
         x="0 5.8400002 11.42 16.74 19.65 25.23 30.450001 35.689999 38.779999 41.689999 47.610001 52.959999 58.75 64.199997 69.139999 72.050003 74.089996 76.139999 81.110001 84.199997 87.110001 92.110001 97.68 103.57 105.64 111.09 116.47 119.54 124.48 127.39 132.39 137.97 143.37 148.87"
         y="0"
         sodipodi:role="line"
         id="tspan112">The next pages list subjects such </tspan><tspan
         x="-15 -9.5900002 -4.6500001 -1.74 1.33 6.9099998 12.23 15.14 17.209999 22.98 28.75 34.349998 37.689999 42.560001 48.509998 53.68 56.59 59.5 64.470001 67.610001 73.029999 78.589996 84.529999 89.949997 93.18 99.110001 103.97 106.88 109.79 115.2 120.97 123.04 128.8 134.37 137.75 142.69"
         y="11"
         sodipodi:role="line"
         id="tspan114">as the logotype, standards, colours </tspan><tspan
         x="-15 -9.5699997 -4.0100002 1.86 4.77 10.34 15.9 21.25 26.66 32.07 37.509998 43.290001 46.43 51.849998 57.779999 59.849998 65.169998 68.080002 73.650002 78.639999 84.089996 89.029999 91.940002 97.870003 103.47 108.79 111.7 114.6 120.29"
         y="22"
         sodipodi:role="line"
         id="tspan116">and unacceptable uses due to </tspan></text>
<text
       transform="matrix(1,0,0,-1,212.6387,499.8057)"
       style="font-variant:normal;font-weight:300;font-stretch:normal;font-size:10px;font-family:'HelveticaNeueLT Com 45 Lt';-inkscape-font-specification:HelveticaNeueLTCom-Lt;writing-mode:lr-tb;fill:#231f20;fill-opacity:1;fill-rule:nonzero;stroke:none"
       id="text122"><tspan
         x="0 5.3000002 7.96 13.73 16.98 22.42 30.959999 36.400002 41.889999 44.950001 47.02 52.790001 58.369999 63.799999 69.669998 72.580002 75.830002 81.269997 86.68 91.669998 97.440002 102.99 107.87"
         y="0"
         sodipodi:role="line"
         id="tspan120">aforementioned reasons.</tspan></text>
<text
       transform="matrix(1,0,0,-1,212.6406,798.0928)"
       style="font-variant:normal;font-weight:500;font-stretch:normal;font-size:18px;font-family:'HelveticaNeueLT Com 65 Md';-inkscape-font-specification:HelveticaNeueLTCom-Md;writing-mode:lr-tb;fill:#231f20;fill-opacity:1;fill-rule:nonzero;stroke:none"
       id="text126"><tspan
         x="0 5.1479998 15.624 21.780001 28.440001 39.348 50.490002 61.02 71.297997 77.454002 81.935997 92.807999 180 193.93201 198.414 205.11 209.646"
         y="0"
         sodipodi:role="line"
         id="tspan124">IntroductionGiriş</tspan></text>
<g
       id="g128"
       transform="translate(27.6406,810.9448)"><path
         d="M 0,0 V -780"
         style="fill:none;stroke:#231f20;stroke-width:0.5;stroke-linecap:butt;stroke-linejoin:miter;stroke-miterlimit:10;stroke-dasharray:none;stroke-opacity:1"
         id="path130"
         inkscape:connector-curvature="0" /></g><g
       id="g132"
       transform="translate(567.6387,810.9448)"><path
         d="M 0,0 V -780"
         style="fill:none;stroke:#231f20;stroke-width:0.5;stroke-linecap:butt;stroke-linejoin:miter;stroke-miterlimit:10;stroke-dasharray:none;stroke-opacity:1"
         id="path134"
         inkscape:connector-curvature="0" /></g><text
       transform="matrix(1,0,0,-1,212.6401,16.8047)"
       style="font-variant:normal;font-weight:normal;font-stretch:normal;font-size:10px;font-family:'HelveticaNeueLT Com 55 Roman';-inkscape-font-specification:HelveticaNeueLTCom-Roman;writing-mode:lr-tb;fill:#231f20;fill-opacity:1;fill-rule:nonzero;stroke:none"
       id="text138"><tspan
         x="0"
         y="0"
         id="tspan136">2</tspan></text>
</g></svg>