<?xml version="1.0" encoding="UTF-8" standalone="no"?>
<!-- Created with Inkscape (http://www.inkscape.org/) -->

<svg
   xmlns:dc="http://purl.org/dc/elements/1.1/"
   xmlns:cc="http://creativecommons.org/ns#"
   xmlns:rdf="http://www.w3.org/1999/02/22-rdf-syntax-ns#"
   xmlns:svg="http://www.w3.org/2000/svg"
   xmlns="http://www.w3.org/2000/svg"
   xmlns:sodipodi="http://sodipodi.sourceforge.net/DTD/sodipodi-0.dtd"
   xmlns:inkscape="http://www.inkscape.org/namespaces/inkscape"
   version="1.1"
   id="svg2"
   xml:space="preserve"
   width="317.57733"
   height="317.57733"
   viewBox="0 0 317.57733 317.57733"
   sodipodi:docname="kurbaga.svg"
   inkscape:version="0.92.2 5c3e80d, 2017-08-06"><metadata
     id="metadata8"><rdf:RDF><cc:Work
         rdf:about=""><dc:format>image/svg+xml</dc:format><dc:type
           rdf:resource="http://purl.org/dc/dcmitype/StillImage" /><dc:title></dc:title></cc:Work></rdf:RDF></metadata><defs
     id="defs6"><clipPath
       clipPathUnits="userSpaceOnUse"
       id="clipPath18"><path
         d="M 0,238.183 H 238.183 V 0 H 0 Z"
         id="path16"
         inkscape:connector-curvature="0" /></clipPath></defs><sodipodi:namedview
     pagecolor="#ffffff"
     bordercolor="#666666"
     borderopacity="1"
     objecttolerance="10"
     gridtolerance="10"
     guidetolerance="10"
     inkscape:pageopacity="0"
     inkscape:pageshadow="2"
     inkscape:window-width="958"
     inkscape:window-height="1036"
     id="namedview4"
     showgrid="false"
     inkscape:zoom="0.74312609"
     inkscape:cx="-38.3515"
     inkscape:cy="158.78867"
     inkscape:window-x="960"
     inkscape:window-y="20"
     inkscape:window-maximized="0"
     inkscape:current-layer="g10" /><g
     id="g10"
     inkscape:groupmode="layer"
     inkscape:label="kurbaga"
     transform="matrix(1.3333333,0,0,-1.3333333,0,317.57733)"><g
       id="g12"><g
         id="g14"
         clip-path="url(#clipPath18)"><g
           id="g20"
           transform="translate(200.8491,117.7178)"><path
             d="m 0,0 c 0,-46.303 -37.536,-83.839 -83.839,-83.839 -46.303,0 -83.839,37.536 -83.839,83.839 0,46.303 37.536,83.839 83.839,83.839 C -37.536,83.839 0,46.303 0,0"
             style="fill:#ffffff;fill-opacity:1;fill-rule:nonzero;stroke:none"
             id="path22"
             inkscape:connector-curvature="0" /></g><g
           id="g24"
           transform="translate(198.0566,181.7881)"><path
             d="M 0,0 C 7.372,0.59 18.448,-1.548 22.866,-20.793 24.75,-30.366 22.283,-36.275 19.045,-39.983 15.616,-25.2 9.012,-11.622 0,0 m -1.57,-70.013 c -1.404,-0.127 -2.87,-0.232 -4.236,-0.3 -1.172,-0.059 -2.145,-0.924 -2.34,-2.081 -0.024,-0.144 -2.474,-14.458 -6.351,-20.971 -3.93,-6.605 -11.484,-13.716 -11.56,-13.787 -0.512,-0.48 -0.799,-1.153 -0.791,-1.855 l 0.16,-13.135 c -14.458,-13.629 -33.916,-22.008 -55.307,-22.008 -31.247,0 -58.376,17.863 -71.782,43.9 0.272,1.265 0.531,2.273 0.763,2.875 1.422,3.698 4.978,17.088 4.451,19.722 -0.208,1.039 -0.635,1.796 -0.979,2.404 -0.385,0.683 -0.623,1.103 -0.638,2.01 0.272,0.715 2.037,2.252 2.996,3.086 1.855,1.615 3.32,2.891 3.49,4.594 0.129,1.282 -0.382,2.996 -1.296,5.915 -0.474,1.515 -1.191,3.804 -1.191,4.5 0,1.48 2.044,6.749 3.42,8.4 0.341,0.408 0.542,0.914 0.575,1.444 0.05,0.801 -0.003,2.204 -0.078,4.145 -0.167,4.369 -0.514,13.459 0.835,16.26 1.887,3.919 8.689,16.808 16.971,18.116 9.658,1.524 22.545,1.335 25.93,0.117 3.987,-1.435 13.369,-6.65 15.387,-8.38 0.935,-0.802 2.318,-0.802 3.254,0 0.73,0.626 1.262,1.205 1.689,1.67 0.957,1.041 1.129,1.228 2.851,1.228 1.481,0 2.068,-0.396 2.812,-0.898 0.735,-0.497 1.849,-1.243 3.436,-1.089 4.749,0.475 23.296,1.188 28.884,-1.872 1.129,-0.619 2.543,-0.278 3.267,0.785 0.07,0.103 4.179,6.054 10.135,10.611 15.698,-14.736 25.533,-35.649 25.533,-58.828 0,-2.216 -0.114,-4.405 -0.29,-6.578 m -20.179,-47.06 -0.086,7.045 c 2.157,2.109 8.091,8.151 11.635,14.106 3.466,5.823 5.772,16.357 6.622,20.73 0.456,0.03 0.942,0.066 1.446,0.105 -2.322,-15.984 -9.344,-30.46 -19.617,-41.986 m -140.962,53.638 c 0,44.507 36.209,80.716 80.716,80.716 19.508,0 37.419,-6.958 51.389,-18.52 -4.307,-3.433 -7.577,-7.323 -9.249,-9.494 -8.856,3.067 -27.28,1.77 -29.518,1.595 -0.105,0.065 -0.25,0.162 -0.364,0.24 -0.972,0.656 -2.599,1.754 -5.61,1.754 -3.551,0 -4.936,-1.124 -6.424,-2.728 -3.939,2.61 -11.457,6.616 -15.063,7.914 -5.005,1.802 -19.378,1.543 -28.404,0.117 -10.392,-1.64 -17.935,-15.152 -20.696,-20.885 -1.743,-3.62 -1.622,-10.873 -1.326,-18.619 0.044,-1.138 0.085,-2.231 0.093,-2.961 -1.819,-2.704 -4.014,-8.173 -4.014,-10.838 0,-1.363 0.536,-3.173 1.419,-5.994 0.367,-1.173 0.896,-2.862 1.05,-3.629 -0.394,-0.43 -1.192,-1.125 -1.756,-1.615 -2.209,-1.924 -4.713,-4.104 -4.713,-6.762 0,-2.288 0.743,-3.603 1.285,-4.564 0.219,-0.386 0.347,-0.619 0.409,-0.835 -0.005,-1.686 -1.907,-9.905 -3.444,-14.829 -3.715,9.265 -5.78,19.362 -5.78,29.937 M 27.755,-19.751 C 24.758,-6.694 16.84,7.784 -3.705,4.519 c -19.03,21.896 -47.07,35.762 -78.29,35.762 -57.189,0 -103.716,-46.527 -103.716,-103.716 0,-57.189 46.527,-103.715 103.716,-103.715 57.189,0 103.715,46.526 103.715,103.715 0,6.045 -0.525,11.97 -1.523,17.734 7.198,6.14 9.751,14.82 7.558,25.95"
             style="fill:#231f20;fill-opacity:1;fill-rule:nonzero;stroke:none"
             id="path26"
             inkscape:connector-curvature="0" /></g><g
           id="g28"
           transform="translate(166.5532,55.4634)"><path
             d="M 0,0 0.127,0.064 C 0.639,0.478 1.133,0.911 1.632,1.339 1.095,0.884 0.548,0.441 0,0"
             style="fill:#a7a9ac;fill-opacity:1;fill-rule:nonzero;stroke:none"
             id="path30"
             inkscape:connector-curvature="0" /></g><g
           id="g32"
           transform="translate(220.9224,160.9951)"><path
             d="m 0,0 c -5.719,24.914 -22.605,21.163 -28.153,19.931 -0.817,-0.181 -1.267,-0.282 -1.727,-0.282 -1.978,0 -4.388,1.071 -5.422,1.58 -12.664,1.518 -24.394,-15.48 -24.512,-15.654 -0.724,-1.063 -2.138,-1.404 -3.267,-0.785 -5.588,3.06 -24.134,2.347 -28.883,1.872 -1.587,-0.154 -2.702,0.592 -3.437,1.089 -0.744,0.502 -1.33,0.898 -2.812,0.898 -1.722,0 -1.894,-0.187 -2.851,-1.228 -0.427,-0.465 -0.959,-1.044 -1.689,-1.67 -0.935,-0.802 -2.318,-0.802 -3.254,0 -2.017,1.73 -11.4,6.945 -15.387,8.38 -3.385,1.218 -16.272,1.407 -25.929,-0.117 -8.283,-1.308 -15.084,-14.197 -16.971,-18.116 -1.35,-2.801 -1.002,-11.891 -0.835,-16.26 0.074,-1.941 0.128,-3.344 0.077,-4.145 -0.033,-0.53 -0.234,-1.036 -0.574,-1.444 -1.376,-1.651 -3.421,-6.92 -3.421,-8.4 0,-0.696 0.717,-2.985 1.191,-4.5 0.914,-2.919 1.425,-4.633 1.296,-5.915 -0.17,-1.703 -1.635,-2.979 -3.49,-4.594 -0.958,-0.834 -2.723,-2.371 -2.996,-3.086 0.015,-0.907 0.253,-1.327 0.638,-2.01 0.344,-0.608 0.772,-1.365 0.979,-2.404 0.528,-2.634 -3.029,-16.024 -4.451,-19.722 -0.231,-0.602 -0.491,-1.61 -0.763,-2.874 6.429,-12.485 16.019,-23.083 27.7,-30.741 -0.371,0.633 -0.58,1.147 -0.604,1.513 -0.25,3.916 5.917,5.75 5.917,6.833 0,1.084 -3.75,3.75 -3.75,6.5 0,2.75 4.333,6.959 6.958,6.959 2.625,0 2.688,-1.5 7.875,-1.5 5.188,0 4,4.375 4,4.375 -0.666,1.5 -0.833,0.833 -4.166,2.833 -3.333,2 0.5,-1.167 -10.334,7.833 -10.833,9 -12.166,20.031 -12.166,20.031 l 0.832,1.136 4.557,-2.083 h 9.943 l 8.667,1.25 10.583,2.083 4.418,1.083 8.249,2.584 12.5,4.5 13.417,3.083 14.5,6.583 11.083,3.5 12.167,1.167 14.25,-2.167 c 0,0 9.5,-4.333 11.056,-5.666 1.555,-1.333 2.111,-2.75 2.861,-5.339 0.204,-0.705 0.179,-1.594 0.039,-2.514 -0.064,-0.115 -0.127,-0.225 -0.19,-0.335 1.462,2.555 3.198,6.363 3.478,7.386 0.099,0.688 -0.292,3.371 -0.637,4.383 -1.099,1.118 -1.307,2.972 -1.346,3.598 -0.142,2.288 0.715,4.226 2.352,5.317 0.327,0.218 0.722,0.42 1.269,0.7 C -7.189,-22.536 3.373,-17.13 0,0"
             style="fill:#a7a9ac;fill-opacity:1;fill-rule:nonzero;stroke:none"
             id="path34"
             inkscape:connector-curvature="0" /></g><g
           id="g36"
           transform="translate(169.9243,58.3359)"><path
             d="M 0,0 C -0.371,-0.333 -0.735,-0.675 -1.113,-1.002 -0.737,-0.672 -0.369,-0.336 0,0"
             style="fill:#a7a9ac;fill-opacity:1;fill-rule:nonzero;stroke:none"
             id="path38"
             inkscape:connector-curvature="0" /></g><g
           id="g40"
           transform="translate(203.3911,113.1187)"><path
             d="M 0,0 C -0.022,-0.027 -0.044,-0.052 -0.065,-0.077 -0.044,-0.052 -0.022,-0.027 0,0"
             style="fill:#a7a9ac;fill-opacity:1;fill-rule:nonzero;stroke:none"
             id="path42"
             inkscape:connector-curvature="0" /></g><g
           id="g44"
           transform="translate(204.498,114.7915)"><path
             d="M 0,0 C -0.055,-0.095 -0.111,-0.191 -0.166,-0.281 -0.111,-0.191 -0.056,-0.095 0,0"
             style="fill:#a7a9ac;fill-opacity:1;fill-rule:nonzero;stroke:none"
             id="path46"
             inkscape:connector-curvature="0" /></g><g
           id="g48"
           transform="translate(204.063,114.0732)"><path
             d="M 0,0 C -0.041,-0.064 -0.08,-0.125 -0.12,-0.186 -0.08,-0.125 -0.041,-0.064 0,0"
             style="fill:#a7a9ac;fill-opacity:1;fill-rule:nonzero;stroke:none"
             id="path50"
             inkscape:connector-curvature="0" /></g><g
           id="g52"
           transform="translate(203.7222,113.5596)"><path
             d="M 0,0 C -0.023,-0.033 -0.047,-0.07 -0.07,-0.101 -0.047,-0.07 -0.023,-0.033 0,0"
             style="fill:#a7a9ac;fill-opacity:1;fill-rule:nonzero;stroke:none"
             id="path54"
             inkscape:connector-curvature="0" /></g><g
           id="g56"
           transform="translate(116.062,207.5688)"><path
             d="m 0,0 c 22.576,0 43.216,-8.433 58.946,-22.309 2.146,0.96 4.417,1.652 6.775,1.927 C 48.619,-4.046 25.461,6 0,6 c -52.502,0 -95.216,-42.713 -95.216,-95.215 0,-24.137 9.032,-46.2 23.888,-63 l 4.493,3.971 c -13.919,15.742 -22.381,36.414 -22.381,59.029 C -89.216,-40.022 -49.194,0 0,0"
             style="fill:#ffffff;fill-opacity:1;fill-rule:nonzero;stroke:none"
             id="path58"
             inkscape:connector-curvature="0" /></g><g
           id="g60"
           transform="translate(205.6353,108.4849)"><path
             d="m 0,0 c -0.258,-0.15 -0.59,-0.29 -0.973,-0.42 -2.144,-18.567 -9.99,-35.422 -21.766,-48.74 l 4.493,-3.971 C -3.674,-36.652 5.272,-15.104 5.609,8.493 4.115,5.226 1.905,1.111 0,0"
             style="fill:#ffffff;fill-opacity:1;fill-rule:nonzero;stroke:none"
             id="path62"
             inkscape:connector-curvature="0" /></g><g
           id="g64"
           transform="translate(171.2085,72.7808)"><path
             d="m 0,0 c -0.008,0.702 0.279,1.375 0.791,1.855 0.076,0.072 7.63,7.182 11.561,13.787 3.876,6.514 6.326,20.827 6.35,20.971 0.195,1.157 1.169,2.022 2.34,2.081 4.323,0.217 9.645,0.794 10.836,1.318 0.428,0.371 1.066,1.364 1.745,2.582 0.14,0.921 0.165,1.81 -0.039,2.514 -0.75,2.589 -1.306,4.006 -2.861,5.339 -1.556,1.333 -11.056,5.667 -11.056,5.667 L 5.417,58.28 -6.75,57.114 l -11.083,-3.5 -14.5,-6.584 -13.417,-3.083 -12.5,-4.5 -8.25,-2.583 -4.417,-1.083 -10.583,-2.084 -8.667,-1.25 h -9.943 l -4.557,2.084 -0.832,-1.137 c 0,0 1.332,-11.03 12.166,-20.03 10.833,-9 7,-5.834 10.333,-7.834 3.333,-2 3.5,-1.333 4.167,-2.833 0,0 1.187,-4.375 -4,-4.375 -5.188,0 -5.25,1.5 -7.875,1.5 -2.625,0 -6.959,-4.208 -6.959,-6.958 0,-2.75 3.75,-5.417 3.75,-6.5 0,-1.084 -6.166,-2.917 -5.916,-6.834 0.023,-0.368 0.234,-0.886 0.61,-1.525 12.682,-8.301 27.82,-13.148 44.077,-13.148 21.388,0 40.85,8.372 55.307,21.999 z"
             style="fill:#f1f1f2;fill-opacity:1;fill-rule:nonzero;stroke:none"
             id="path66"
             inkscape:connector-curvature="0" /></g><g
           id="g68"
           transform="translate(217.7183,162.6182)"><path
             d="m 0,0 c 3.359,-10.994 -0.589,-21.425 -10.249,-23.904 -8.556,-2.197 -19.469,6.255 -21.8,17.201 -2.332,10.947 1.187,22.164 9.823,24.004 C -13.586,19.141 -3.821,12.509 0,0"
             style="fill:#231f20;fill-opacity:1;fill-rule:nonzero;stroke:none"
             id="path70"
             inkscape:connector-curvature="0" /></g><g
           id="g72"
           transform="translate(106.1255,147.5557)"><path
             d="m 0,0 c 0,-13.883 -11.379,-26.703 -23.33,-26.703 -13.089,0 -23.329,11.569 -23.329,25.453 0,13.883 9.795,27.506 24.309,27.506 C -10.4,26.256 0,13.884 0,0"
             style="fill:#231f20;fill-opacity:1;fill-rule:nonzero;stroke:none"
             id="path74"
             inkscape:connector-curvature="0" /></g><g
           id="g76"
           transform="translate(67.8755,108.228)"><path
             d="M 0,0 C 0,0 2.5,0 2.5,1.5 2.5,3 0.5,6 -1.75,5.25 -4,4.5 -4.333,-0.167 -4.333,-1.25 c 0,-1.083 0.083,-5.917 0.5,-5.417 0.416,0.5 0.666,4.167 1.583,4.584 0.917,0.416 1,-2.25 14,-2.084 13,0.167 32.084,5.75 40.084,8.084 8,2.333 45.645,15.724 48.104,16.528 4.333,1.416 13.646,0.722 16.729,0.305 3.083,-0.417 15.87,-3.388 19.5,-8.5 1.166,0.417 0.739,1.188 0.271,1.75 -0.469,0.563 -10.625,8.188 -19,10.188 -8.375,2 -15.625,3.187 -25.25,-0.875 C 82.563,19.25 40.333,3.083 30,0.917 19.667,-1.25 14.875,-2.188 10.313,-2.125 5.75,-2.063 1,-2.25 0,-1.188 -1,-0.125 0,0 0,0"
             style="fill:#231f20;fill-opacity:1;fill-rule:nonzero;stroke:none"
             id="path78"
             inkscape:connector-curvature="0" /></g><g
           id="g80"
           transform="translate(104.709,149.3115)"><path
             d="m 0,0 c 0,-12.955 -10.65,-24.917 -21.833,-24.917 -12.25,0 -21.834,10.795 -21.834,23.75 0,12.955 9.167,25.667 22.75,25.667 C -9.733,24.5 0,12.955 0,0"
             style="fill:#ffffff;fill-opacity:1;fill-rule:nonzero;stroke:none"
             id="path82"
             inkscape:connector-curvature="0" /></g><g
           id="g84"
           transform="translate(217.5396,163.48)"><path
             d="m 0,0 c 3.221,-10.545 -0.557,-20.548 -9.807,-22.923 -8.192,-2.104 -18.645,6.005 -20.881,16.505 -2.237,10.499 1.128,21.256 9.399,23.018 C -13.017,18.362 -3.664,11.998 0,0"
             style="fill:#ffffff;fill-opacity:1;fill-rule:nonzero;stroke:none"
             id="path86"
             inkscape:connector-curvature="0" /></g><g
           id="g88"
           transform="translate(88.3003,146.7095)"><path
             d="m 0,0 c 1.514,1.245 5.483,4.792 5.044,8.533 -0.439,3.741 -6.359,8.737 -12.205,8.051 -5.846,-0.685 -10.45,-6.915 -10.012,-10.656 0.439,-3.742 5.121,-6.274 6.882,-7.135 1.761,-0.86 2.8,-0.62 3.301,-1.865 0.502,-1.245 -0.572,-2.2 -1.542,-3.026 -0.97,-0.825 -1.214,-2.29 -0.902,-3.424 0.325,-1.182 2.302,-3.76 5.728,-3.358 3.32,0.389 4.753,3.367 4.796,4.592 0.041,1.176 -0.536,2.544 -1.67,3.123 -1.135,0.578 -2.4,1.26 -2.2,2.586 C -2.581,-1.251 -1.515,-1.244 0,0"
             style="fill:#231f20;fill-opacity:1;fill-rule:nonzero;stroke:none"
             id="path90"
             inkscape:connector-curvature="0" /></g><g
           id="g92"
           transform="translate(207.8535,159.209)"><path
             d="m 0,0 c 1.123,1.225 2.831,2.276 2.108,5.603 -0.723,3.327 -4.685,8.842 -9.424,7.813 -4.738,-1.03 -7.618,-5.842 -6.895,-9.167 0.722,-3.329 4.337,-5.414 5.869,-6.062 1.529,-0.646 2.36,-0.358 2.893,-1.44 0.532,-1.081 -0.258,-2.015 -0.976,-2.824 -0.716,-0.81 -1.608,-2.376 -1.242,-3.372 0.381,-1.037 3.057,-1.801 5.834,-1.197 2.691,0.584 3.614,2.183 3.529,3.285 -0.078,1.058 -0.686,2.245 -1.674,2.684 -0.988,0.439 -2.094,0.961 -2.059,2.166 C -2.001,-1.306 -1.125,-1.224 0,0"
             style="fill:#231f20;fill-opacity:1;fill-rule:nonzero;stroke:none"
             id="path94"
             inkscape:connector-curvature="0" /></g><g
           id="g96"
           transform="translate(55.6587,48.249)"><path
             d="m 0,0 -0.963,0.293 c -1.258,0.39 -2.07,0.374 -2.435,-0.046 -0.193,-0.223 -0.28,-0.455 -0.261,-0.699 0.027,-0.236 0.161,-0.46 0.405,-0.671 0.391,-0.34 0.824,-0.476 1.299,-0.409 0.475,0.067 0.921,0.341 1.339,0.822 z m -2.019,-2.398 c -0.513,-0.106 -1.001,-0.092 -1.464,0.042 -0.464,0.134 -0.91,0.387 -1.338,0.759 -0.261,0.225 -0.463,0.466 -0.608,0.719 -0.145,0.254 -0.235,0.531 -0.269,0.831 -0.069,0.585 0.101,1.112 0.51,1.582 0.39,0.45 0.843,0.694 1.359,0.732 0.517,0.039 1.212,-0.133 2.085,-0.514 L -0.781,1.29 C -0.344,1.06 -0.034,0.937 0.148,0.92 0.368,0.893 0.567,0.914 0.744,0.984 0.92,1.054 1.088,1.181 1.246,1.363 1.51,1.667 1.603,1.997 1.526,2.351 1.449,2.706 1.209,3.058 0.806,3.408 0.546,3.633 0.3,3.797 0.067,3.9 -0.166,4.002 -0.415,4.055 -0.679,4.057 L -0.637,4.021 C -0.402,3.816 -0.266,3.593 -0.23,3.352 -0.194,3.111 -0.27,2.883 -0.456,2.668 -0.66,2.433 -0.906,2.31 -1.192,2.299 -1.478,2.288 -1.751,2.395 -2.01,2.62 -2.302,2.873 -2.459,3.169 -2.482,3.51 -2.505,3.85 -2.394,4.162 -2.147,4.446 -1.75,4.904 -1.208,5.092 -0.523,5.01 -0.185,4.965 0.16,4.854 0.511,4.677 0.862,4.501 1.221,4.253 1.588,3.935 1.991,3.584 2.321,3.234 2.577,2.884 2.833,2.534 3.005,2.2 3.093,1.882 3.187,1.53 3.177,1.189 3.064,0.857 2.952,0.525 2.649,0.076 2.157,-0.491 l -2.269,-2.613 c -0.126,-0.146 -0.197,-0.274 -0.211,-0.382 -0.013,-0.109 0.028,-0.205 0.123,-0.288 0.14,-0.122 0.308,-0.129 0.505,-0.024 0.199,0.125 0.551,0.478 1.056,1.059 l 0.748,-0.65 -0.226,-0.26 c -0.657,-0.757 -1.25,-1.202 -1.78,-1.334 -0.53,-0.133 -1.063,0.034 -1.6,0.5 -0.358,0.311 -0.58,0.634 -0.668,0.971 -0.087,0.338 -0.038,0.709 0.146,1.114"
             style="fill:#ffffff;fill-opacity:1;fill-rule:nonzero;stroke:none"
             id="path98"
             inkscape:connector-curvature="0" /></g><g
           id="g100"
           transform="translate(56.8916,41.8462)"><path
             d="M 0,0 0.628,0.908 1.071,0.601 C 1.375,0.39 1.611,0.298 1.777,0.324 1.942,0.35 2.148,0.54 2.393,0.895 L 4.448,3.864 C 4.688,4.21 4.79,4.467 4.755,4.635 4.72,4.803 4.553,4.991 4.253,5.199 L 3.81,5.505 4.438,6.413 7.254,4.464 6.471,3.331 C 7.124,3.532 7.711,3.616 8.231,3.583 8.751,3.549 9.2,3.401 9.579,3.14 10.305,2.637 10.701,2.095 10.768,1.514 10.834,0.932 10.574,0.217 9.988,-0.631 L 8.241,-3.155 C 8.002,-3.5 7.898,-3.757 7.928,-3.928 7.969,-4.101 8.14,-4.291 8.44,-4.498 L 8.831,-4.769 8.203,-5.677 4.408,-3.05 5.036,-2.143 5.303,-2.328 c 0.305,-0.211 0.541,-0.303 0.709,-0.279 0.168,0.024 0.374,0.213 0.618,0.566 L 8.377,0.483 C 8.701,0.952 8.856,1.342 8.845,1.654 8.833,1.966 8.65,2.244 8.298,2.488 7.793,2.836 7.261,2.917 6.701,2.73 6.141,2.543 5.625,2.109 5.155,1.429 L 4.009,-0.227 C 3.771,-0.571 3.666,-0.829 3.696,-1 3.737,-1.172 3.908,-1.362 4.208,-1.57 L 4.475,-1.755 3.847,-2.663 Z"
             style="fill:#ffffff;fill-opacity:1;fill-rule:nonzero;stroke:none"
             id="path102"
             inkscape:connector-curvature="0" /></g><g
           id="g104"
           transform="translate(72.752,36.6221)"><path
             d="M 0,0 -1.004,0.076 C -2.316,0.182 -3.105,-0.011 -3.37,-0.501 -3.51,-0.76 -3.543,-1.007 -3.471,-1.24 c 0.077,-0.224 0.258,-0.413 0.541,-0.566 0.456,-0.246 0.909,-0.285 1.357,-0.116 0.448,0.169 0.824,0.534 1.127,1.095 z m -1.446,-2.781 c -0.478,-0.215 -0.957,-0.308 -1.439,-0.279 -0.481,0.03 -0.971,0.179 -1.471,0.449 -0.303,0.163 -0.553,0.353 -0.75,0.569 -0.197,0.216 -0.345,0.466 -0.444,0.751 -0.195,0.557 -0.144,1.108 0.152,1.656 0.282,0.524 0.671,0.862 1.167,1.011 0.496,0.151 1.211,0.135 2.146,-0.046 L -1.043,1.088 C -0.567,0.959 -0.238,0.907 -0.057,0.931 0.165,0.952 0.354,1.016 0.511,1.123 0.668,1.23 0.804,1.39 0.918,1.603 1.11,1.957 1.129,2.298 0.976,2.628 0.823,2.957 0.512,3.249 0.042,3.502 -0.26,3.665 -0.537,3.771 -0.786,3.821 -1.036,3.87 -1.29,3.867 -1.548,3.811 L -1.5,3.784 C -1.225,3.636 -1.044,3.449 -0.956,3.221 -0.869,2.994 -0.893,2.755 -1.028,2.504 -1.175,2.23 -1.388,2.057 -1.665,1.983 -1.942,1.91 -2.231,1.955 -2.534,2.118 c -0.34,0.183 -0.558,0.438 -0.654,0.765 -0.098,0.327 -0.057,0.656 0.122,0.987 0.288,0.534 0.775,0.836 1.461,0.905 0.341,0.03 0.701,-0.003 1.082,-0.099 C -0.142,4.581 0.263,4.417 0.691,4.187 1.161,3.933 1.559,3.663 1.885,3.377 2.211,3.092 2.452,2.803 2.608,2.512 2.776,2.189 2.841,1.854 2.804,1.506 2.766,1.158 2.569,0.653 2.212,-0.008 L 0.569,-3.054 c -0.091,-0.17 -0.132,-0.309 -0.122,-0.419 0.01,-0.109 0.071,-0.193 0.183,-0.254 0.162,-0.087 0.328,-0.058 0.497,0.087 0.167,0.166 0.434,0.587 0.799,1.265 L 2.799,-2.846 2.635,-3.15 C 2.159,-4.032 1.677,-4.595 1.189,-4.84 c -0.488,-0.245 -1.045,-0.199 -1.67,0.138 -0.417,0.225 -0.706,0.493 -0.864,0.803 -0.159,0.31 -0.193,0.683 -0.101,1.118"
             style="fill:#ffffff;fill-opacity:1;fill-rule:nonzero;stroke:none"
             id="path106"
             inkscape:connector-curvature="0" /></g><g
           id="g108"
           transform="translate(79.2461,31.3486)"><path
             d="m 0,0 c -0.162,-0.386 -0.211,-0.66 -0.146,-0.821 0.075,-0.16 0.282,-0.311 0.618,-0.452 l 0.746,-0.313 -0.427,-1.018 -4.76,1.999 0.427,1.018 0.497,-0.209 c 0.341,-0.143 0.59,-0.185 0.747,-0.125 0.157,0.059 0.319,0.288 0.486,0.685 l 1.398,3.33 c 0.163,0.387 0.21,0.66 0.141,0.817 -0.068,0.157 -0.271,0.307 -0.607,0.448 L -1.377,5.568 -0.95,6.585 2.208,5.259 1.75,4.167 C 2.163,4.495 2.571,4.699 2.975,4.78 3.378,4.861 3.773,4.821 4.158,4.659 4.694,4.434 5.067,4.1 5.277,3.657 5.486,3.213 5.488,2.747 5.282,2.256 5.122,1.875 4.88,1.61 4.558,1.463 4.235,1.316 3.891,1.32 3.526,1.473 3.214,1.604 3.001,1.797 2.888,2.053 2.774,2.309 2.776,2.577 2.894,2.855 3,3.11 3.168,3.292 3.397,3.4 3.617,3.514 3.899,3.55 4.244,3.511 L 3.958,3.751 C 3.867,3.822 3.777,3.875 3.689,3.912 3.197,4.119 2.676,4.038 2.125,3.669 1.854,3.486 1.609,3.252 1.393,2.967 1.175,2.683 0.981,2.337 0.811,1.931 Z"
             style="fill:#ffffff;fill-opacity:1;fill-rule:nonzero;stroke:none"
             id="path110"
             inkscape:connector-curvature="0" /></g><g
           id="g112"
           transform="translate(83.728,24.0972)"><path
             d="M 0,0 0.605,0.679 C 0.87,0.376 1.144,0.125 1.428,-0.075 c 0.283,-0.199 0.561,-0.342 0.833,-0.428 0.172,-0.054 0.332,-0.045 0.482,0.025 0.15,0.071 0.252,0.191 0.305,0.36 C 3.11,0.077 3.099,0.252 3.015,0.408 2.928,0.554 2.771,0.663 2.544,0.734 2.448,0.765 2.373,0.789 2.317,0.806 L 2.063,0.819 2.556,2.378 3.221,2.168 2.945,1.292 3.211,1.242 3.454,1.166 C 3.887,1.029 4.192,0.804 4.372,0.492 4.55,0.18 4.576,-0.178 4.449,-0.581 4.313,-1.01 4.053,-1.31 3.669,-1.481 3.286,-1.652 2.852,-1.661 2.368,-1.508 2.01,-1.395 1.656,-1.229 1.308,-1.008 0.958,-0.788 0.522,-0.452 0,0 M -0.198,3.164 0.76,6.198 1.895,5.84 C 1.826,5.115 1.948,4.506 2.261,4.011 2.573,3.517 3.052,3.168 3.697,2.964 4.09,2.84 4.433,2.829 4.726,2.931 5.019,3.033 5.212,3.232 5.306,3.53 5.379,3.761 5.345,3.978 5.204,4.18 5.063,4.382 4.766,4.628 4.314,4.917 L 3.252,5.558 C 2.519,6.009 2.016,6.485 1.745,6.985 1.473,7.485 1.429,8.025 1.612,8.604 1.83,9.297 2.266,9.778 2.92,10.048 3.573,10.318 4.329,10.318 5.186,10.047 5.589,9.92 5.954,9.736 6.279,9.495 6.605,9.254 6.896,8.952 7.154,8.589 L 7.678,9.066 8.563,8.786 7.694,6.036 6.643,6.368 C 6.671,6.984 6.536,7.514 6.235,7.958 5.935,8.403 5.507,8.712 4.953,8.887 4.589,9.002 4.277,9.015 4.017,8.925 3.755,8.835 3.581,8.652 3.494,8.375 3.432,8.181 3.45,7.992 3.547,7.809 3.645,7.643 3.833,7.473 4.11,7.301 L 5.413,6.526 C 6.257,6.022 6.823,5.51 7.11,4.988 7.396,4.466 7.441,3.892 7.244,3.267 7.009,2.523 6.561,2.017 5.9,1.75 5.239,1.482 4.447,1.494 3.524,1.785 3.056,1.933 2.648,2.134 2.301,2.389 1.955,2.643 1.627,2.984 1.319,3.411 L 0.83,2.839 Z"
             style="fill:#ffffff;fill-opacity:1;fill-rule:nonzero;stroke:none"
             id="path114"
             inkscape:connector-curvature="0" /></g><g
           id="g116"
           transform="translate(95.2002,34.3159)"><path
             d="M 0,0 C 0.078,0.335 0.255,0.591 0.532,0.77 0.81,0.948 1.113,0.999 1.443,0.923 1.778,0.845 2.033,0.665 2.209,0.382 2.385,0.098 2.434,-0.211 2.356,-0.545 2.281,-0.87 2.101,-1.126 1.816,-1.313 1.531,-1.501 1.222,-1.556 0.887,-1.479 0.567,-1.405 0.321,-1.223 0.147,-0.931 -0.027,-0.64 -0.076,-0.33 0,0 m -3.395,-9.46 0.249,1.075 0.587,-0.136 c 0.361,-0.083 0.615,-0.083 0.762,0.002 0.147,0.085 0.269,0.337 0.366,0.757 l 0.815,3.519 c 0.094,0.404 0.092,0.679 -0.004,0.826 -0.096,0.146 -0.322,0.261 -0.677,0.343 l -0.588,0.136 0.249,1.076 L 1.787,-2.655 0.5,-8.211 C 0.406,-8.62 0.404,-8.897 0.495,-9.045 0.597,-9.19 0.828,-9.305 1.188,-9.388 l 0.479,-0.111 -0.249,-1.076 z"
             style="fill:#ffffff;fill-opacity:1;fill-rule:nonzero;stroke:none"
             id="path118"
             inkscape:connector-curvature="0" /></g><g
           id="g120"
           transform="translate(98.0571,23.3271)"><path
             d="M 0,0 0.474,3.147 1.65,2.97 C 1.696,2.243 1.911,1.66 2.297,1.22 2.683,0.781 3.21,0.511 3.879,0.41 4.287,0.349 4.627,0.391 4.901,0.538 5.174,0.684 5.334,0.911 5.38,1.22 5.417,1.459 5.349,1.667 5.178,1.846 5.007,2.023 4.675,2.22 4.184,2.436 L 3.036,2.902 C 2.241,3.234 1.67,3.626 1.324,4.078 0.978,4.529 0.85,5.056 0.94,5.657 1.048,6.375 1.404,6.917 2.007,7.286 2.611,7.655 3.357,7.772 4.246,7.639 4.664,7.576 5.053,7.45 5.412,7.263 5.771,7.076 6.106,6.823 6.417,6.505 L 6.861,7.057 7.778,6.919 7.349,4.067 6.259,4.231 C 6.191,4.844 5.974,5.347 5.607,5.739 5.242,6.13 4.771,6.37 4.196,6.457 3.82,6.513 3.509,6.477 3.266,6.348 3.021,6.219 2.878,6.011 2.834,5.724 2.804,5.521 2.852,5.337 2.976,5.172 3.098,5.023 3.31,4.885 3.611,4.758 L 5.019,4.196 C 5.931,3.83 6.57,3.412 6.935,2.94 7.299,2.469 7.433,1.91 7.335,1.261 7.219,0.49 6.855,-0.079 6.244,-0.447 5.633,-0.814 4.849,-0.926 3.892,-0.782 3.406,-0.708 2.972,-0.573 2.59,-0.376 2.208,-0.179 1.831,0.107 1.46,0.481 L 1.066,-0.161 Z"
             style="fill:#ffffff;fill-opacity:1;fill-rule:nonzero;stroke:none"
             id="path122"
             inkscape:connector-curvature="0" /></g><g
           id="g124"
           transform="translate(107.9487,24.583)"><path
             d="m 0,0 0.281,4.206 -1.266,0.085 0.072,1.067 c 0.725,0.07 1.278,0.333 1.658,0.791 0.202,0.245 0.372,0.553 0.511,0.925 0.139,0.373 0.224,0.794 0.256,1.265 L 2.548,8.27 2.344,5.215 4.456,5.073 4.38,3.932 2.236,4.075 1.938,-0.367 c -0.025,-0.382 -10e-4,-0.641 0.071,-0.779 0.073,-0.137 0.223,-0.213 0.45,-0.228 0.269,-0.018 0.466,0.102 0.592,0.358 0.126,0.258 0.216,0.793 0.271,1.608 L 3.351,1.029 4.403,0.958 4.393,0.676 4.372,0.247 C 4.295,-0.904 4.056,-1.723 3.654,-2.21 3.254,-2.696 2.645,-2.913 1.827,-2.858 1.136,-2.812 0.643,-2.56 0.348,-2.103 0.052,-1.646 -0.063,-0.945 0,0"
             style="fill:#ffffff;fill-opacity:1;fill-rule:nonzero;stroke:none"
             id="path126"
             inkscape:connector-curvature="0" /></g><g
           id="g128"
           transform="translate(122.4478,26.0288)"><path
             d="M 0,0 2.285,2.25 C 2.378,2.341 2.448,2.424 2.494,2.5 2.522,2.552 2.538,2.611 2.543,2.678 2.536,2.76 2.486,2.816 2.394,2.844 2.301,2.872 2.149,2.877 1.938,2.859 L 1.069,2.786 0.977,3.886 5.813,4.294 5.905,3.194 5.582,3.167 C 5.134,3.129 4.685,2.878 4.236,2.415 L 2.824,1.036 4.97,-1.55 c 0.248,-0.297 0.502,-0.513 0.762,-0.647 0.261,-0.134 0.537,-0.189 0.826,-0.165 l 0.372,0.032 0.092,-1.1 -4.693,-0.397 -0.094,1.1 0.546,0.046 c 0.137,0.012 0.248,0.046 0.333,0.101 0.086,0.057 0.126,0.12 0.12,0.189 C 3.23,-2.348 3.21,-2.29 3.173,-2.217 3.135,-2.145 3.078,-2.06 3.003,-1.964 L 1.563,-0.165 0.129,-1.53 0.161,-1.908 C 0.196,-2.32 0.282,-2.584 0.419,-2.702 0.561,-2.809 0.816,-2.847 1.185,-2.815 l 0.189,0.016 0.094,-1.1 -4.434,-0.375 -0.093,1.1 0.419,0.035 c 0.369,0.032 0.613,0.113 0.732,0.244 0.119,0.131 0.161,0.406 0.125,0.823 l -0.579,6.856 c -0.034,0.412 -0.121,0.674 -0.261,0.787 -0.14,0.112 -0.394,0.153 -0.763,0.121 l -0.419,-0.035 -0.092,1.1 3.302,0.279 z"
             style="fill:#ffffff;fill-opacity:1;fill-rule:nonzero;stroke:none"
             id="path130"
             inkscape:connector-curvature="0" /></g><g
           id="g132"
           transform="translate(131.5229,25.646)"><path
             d="M 0,0 -0.618,3.014 C -0.701,3.42 -0.818,3.67 -0.97,3.762 -1.121,3.855 -1.378,3.864 -1.74,3.79 L -2.105,3.715 -2.327,4.796 0.874,5.453 1.912,0.387 C 2.028,-0.182 2.205,-0.567 2.44,-0.769 2.676,-0.97 2.998,-1.029 3.407,-0.945 4.003,-0.823 4.431,-0.493 4.69,0.044 4.949,0.581 4.996,1.256 4.829,2.068 L 4.424,4.047 C 4.341,4.454 4.225,4.703 4.076,4.796 3.928,4.89 3.669,4.899 3.302,4.823 L 2.571,4.674 2.35,5.755 5.915,6.486 7.061,0.899 C 7.144,0.493 7.261,0.24 7.41,0.139 7.563,0.05 7.821,0.042 8.185,0.117 L 8.596,0.201 8.817,-0.88 5.57,-1.546 5.295,-0.204 C 4.998,-0.808 4.655,-1.289 4.268,-1.648 3.88,-2.007 3.456,-2.234 2.995,-2.329 2.146,-2.503 1.486,-2.414 1.018,-2.062 0.549,-1.71 0.21,-1.023 0,0"
             style="fill:#ffffff;fill-opacity:1;fill-rule:nonzero;stroke:none"
             id="path134"
             inkscape:connector-curvature="0" /></g><g
           id="g136"
           transform="translate(144.479,28.2588)"><path
             d="m 0,0 c 0.127,-0.399 0.267,-0.64 0.42,-0.721 0.162,-0.072 0.416,-0.053 0.764,0.057 l 0.771,0.245 0.334,-1.052 -4.92,-1.563 -0.334,1.053 0.514,0.163 c 0.352,0.111 0.569,0.241 0.65,0.388 0.081,0.147 0.056,0.427 -0.074,0.837 L -2.969,2.85 c -0.127,0.4 -0.267,0.638 -0.422,0.713 -0.154,0.076 -0.405,0.058 -0.753,-0.052 l -0.514,-0.164 -0.334,1.052 3.265,1.037 0.359,-1.128 c 0.101,0.517 0.28,0.937 0.535,1.26 0.256,0.323 0.582,0.548 0.98,0.675 C 0.701,6.419 1.202,6.406 1.648,6.204 2.096,6.002 2.399,5.648 2.561,5.141 2.686,4.747 2.673,4.389 2.522,4.068 2.372,3.747 2.108,3.526 1.73,3.406 1.407,3.304 1.12,3.313 0.868,3.435 0.616,3.556 0.444,3.761 0.353,4.05 0.27,4.313 0.279,4.56 0.384,4.791 0.478,5.02 0.668,5.23 0.956,5.424 L 0.583,5.421 C 0.468,5.416 0.365,5.399 0.274,5.37 -0.234,5.208 -0.579,4.809 -0.759,4.171 -0.848,3.856 -0.882,3.52 -0.863,3.162 -0.844,2.805 -0.768,2.416 -0.634,1.996 Z"
             style="fill:#ffffff;fill-opacity:1;fill-rule:nonzero;stroke:none"
             id="path138"
             inkscape:connector-curvature="0" /></g><g
           id="g140"
           transform="translate(154.7769,34.103)"><path
             d="m 0,0 c -0.371,0.859 -0.788,1.438 -1.251,1.735 -0.463,0.299 -0.978,0.325 -1.546,0.079 -0.524,-0.226 -0.841,-0.63 -0.949,-1.21 -0.109,-0.581 0.009,-1.271 0.354,-2.07 0.346,-0.8 0.769,-1.362 1.269,-1.685 0.499,-0.323 1.011,-0.371 1.535,-0.145 0.567,0.246 0.901,0.643 0.997,1.192 C 0.506,-1.556 0.37,-0.854 0,0 M -2.48,-4.193 -2.646,-5.449 -3.629,-5.874 -7.222,2.438 C -7.388,2.823 -7.553,3.045 -7.714,3.107 -7.876,3.169 -8.127,3.126 -8.467,2.979 l -0.312,-0.135 -0.439,1.013 2.97,1.284 1.787,-4.134 c 0.07,0.598 0.25,1.094 0.54,1.489 0.148,0.192 0.328,0.37 0.543,0.533 0.215,0.163 0.46,0.304 0.736,0.424 0.918,0.396 1.794,0.37 2.631,-0.08 C 0.826,2.923 1.5,2.106 2.012,0.922 2.526,-0.267 2.659,-1.327 2.41,-2.257 c -0.248,-0.931 -0.839,-1.597 -1.77,-2 -0.529,-0.229 -1.049,-0.339 -1.56,-0.33 -0.51,0.009 -1.03,0.14 -1.56,0.394"
             style="fill:#ffffff;fill-opacity:1;fill-rule:nonzero;stroke:none"
             id="path142"
             inkscape:connector-curvature="0" /></g><g
           id="g144"
           transform="translate(162.2778,38.2271)"><path
             d="m 0,0 -0.6,-0.809 c -0.788,-1.055 -1.045,-1.825 -0.771,-2.31 0.145,-0.256 0.336,-0.416 0.572,-0.48 0.231,-0.054 0.486,-0.002 0.768,0.157 0.451,0.255 0.724,0.617 0.82,1.087 0.096,0.469 -0.013,0.982 -0.327,1.537 z M 1.583,-2.705 C 1.511,-3.224 1.334,-3.679 1.054,-4.071 0.772,-4.463 0.385,-4.798 -0.109,-5.078 c -0.3,-0.169 -0.594,-0.28 -0.882,-0.331 -0.287,-0.052 -0.578,-0.044 -0.873,0.024 -0.574,0.132 -1.014,0.468 -1.321,1.01 -0.293,0.519 -0.371,1.027 -0.234,1.527 0.137,0.499 0.531,1.097 1.183,1.792 l 0.758,0.752 c 0.365,0.335 0.584,0.585 0.66,0.752 0.1,0.198 0.147,0.392 0.14,0.583 -0.008,0.19 -0.07,0.39 -0.189,0.6 -0.198,0.35 -0.478,0.548 -0.837,0.595 C -2.064,2.271 -2.477,2.163 -2.941,1.9 -3.241,1.731 -3.478,1.554 -3.652,1.369 -3.827,1.184 -3.96,0.967 -4.05,0.719 l 0.048,0.027 c 0.272,0.154 0.527,0.207 0.767,0.16 0.238,-0.047 0.427,-0.194 0.568,-0.442 0.153,-0.271 0.188,-0.544 0.102,-0.817 -0.085,-0.273 -0.278,-0.495 -0.577,-0.664 -0.336,-0.19 -0.669,-0.238 -0.997,-0.147 -0.328,0.093 -0.585,0.302 -0.769,0.63 -0.299,0.528 -0.295,1.101 0.012,1.719 0.156,0.304 0.375,0.591 0.66,0.863 0.284,0.271 0.637,0.527 1.06,0.766 0.465,0.263 0.905,0.456 1.322,0.58 0.415,0.124 0.788,0.174 1.117,0.151 0.362,-0.029 0.68,-0.153 0.956,-0.37 C 0.493,2.958 0.815,2.521 1.185,1.868 l 1.703,-3.013 c 0.094,-0.168 0.191,-0.277 0.289,-0.326 0.097,-0.05 0.202,-0.043 0.312,0.019 0.161,0.091 0.225,0.247 0.192,0.468 C 3.63,-0.755 3.415,-0.305 3.036,0.365 L 3.899,0.853 4.069,0.552 C 4.563,-0.32 4.782,-1.028 4.729,-1.572 4.677,-2.115 4.342,-2.562 3.723,-2.912 3.311,-3.145 2.931,-3.246 2.584,-3.215 c -0.347,0.03 -0.681,0.2 -1.001,0.51"
             style="fill:#ffffff;fill-opacity:1;fill-rule:nonzero;stroke:none"
             id="path146"
             inkscape:connector-curvature="0" /></g><g
           id="g148"
           transform="translate(172.3979,39.3906)"><path
             d="m 0,0 c -0.81,-0.585 -1.321,-1.053 -1.534,-1.404 -0.212,-0.352 -0.204,-0.686 0.024,-1.003 0.22,-0.303 0.552,-0.409 0.998,-0.319 0.447,0.092 1.013,0.385 1.699,0.88 0.373,0.269 0.68,0.521 0.921,0.755 0.243,0.234 0.424,0.461 0.546,0.68 C 2.895,0.014 2.896,0.392 2.658,0.721 2.448,1.012 2.161,1.114 1.796,1.029 1.43,0.943 0.832,0.601 0,0 M -4.388,3.748 C -3.995,3.204 -3.616,2.869 -3.252,2.745 -2.889,2.62 -2.501,2.706 -2.089,3.003 -1.687,3.294 -1.48,3.631 -1.471,4.016 -1.462,4.4 -1.646,4.854 -2.022,5.376 -2.422,5.929 -2.81,6.267 -3.185,6.39 -3.561,6.513 -3.95,6.429 -4.353,6.138 -4.747,5.854 -4.947,5.517 -4.954,5.128 -4.96,4.739 -4.771,4.279 -4.388,3.748 m 0.502,-2.47 c -0.501,0.043 -0.932,0.163 -1.297,0.361 -0.364,0.197 -0.668,0.464 -0.91,0.799 -0.521,0.723 -0.67,1.499 -0.443,2.328 0.226,0.829 0.794,1.572 1.703,2.228 0.398,0.288 0.815,0.509 1.251,0.665 0.222,0.08 0.438,0.141 0.651,0.181 0.212,0.041 0.435,0.062 0.667,0.065 0.04,0.333 0.126,0.629 0.259,0.887 0.133,0.259 0.324,0.478 0.572,0.657 0.451,0.325 0.893,0.462 1.328,0.411 C 0.329,9.81 0.695,9.578 0.994,9.164 1.195,8.885 1.279,8.598 1.245,8.301 1.211,8.005 1.067,7.766 0.814,7.583 0.565,7.404 0.307,7.333 0.035,7.369 -0.235,7.405 -0.454,7.539 -0.621,7.77 -0.753,7.953 -0.812,8.145 -0.798,8.347 -0.784,8.549 -0.692,8.754 -0.523,8.962 -0.648,8.965 -0.747,8.958 -0.818,8.944 -0.889,8.929 -0.943,8.915 -0.981,8.9 -1.021,8.885 -1.063,8.861 -1.11,8.827 -1.261,8.719 -1.373,8.566 -1.449,8.369 -1.525,8.171 -1.561,7.929 -1.555,7.642 -1.304,7.519 -1.063,7.366 -0.833,7.184 -0.604,7.001 -0.406,6.795 -0.239,6.564 0.27,5.859 0.417,5.108 0.201,4.314 -0.014,3.519 -0.567,2.8 -1.459,2.156 -1.69,1.989 -1.942,1.837 -2.215,1.7 -2.359,1.629 -2.494,1.568 -2.62,1.517 -2.746,1.465 -2.899,1.411 -3.08,1.354 -3.093,1.318 -3.109,1.261 -3.129,1.185 -3.148,1.107 -3.16,1.027 -3.165,0.944 c 0.006,-0.108 0.031,-0.202 0.076,-0.282 0.12,-0.166 0.272,-0.241 0.457,-0.227 0.094,0.015 0.198,0.05 0.314,0.107 0.116,0.057 0.258,0.147 0.43,0.271 l 1.801,1.3 C 0.432,2.487 0.892,2.767 1.293,2.951 1.695,3.135 2.072,3.235 2.425,3.252 3.096,3.299 3.661,3.004 4.122,2.365 4.621,1.673 4.683,0.914 4.306,0.086 3.928,-0.742 3.138,-1.591 1.933,-2.46 1.38,-2.859 0.873,-3.176 0.412,-3.409 c -0.46,-0.234 -0.889,-0.387 -1.285,-0.462 -0.773,-0.149 -1.34,0.027 -1.7,0.527 -0.198,0.274 -0.265,0.572 -0.201,0.895 0.062,0.324 0.264,0.697 0.604,1.12 -0.41,-0.163 -0.783,-0.205 -1.117,-0.125 -0.335,0.079 -0.609,0.267 -0.823,0.563 -0.217,0.301 -0.308,0.63 -0.272,0.987 0.035,0.357 0.201,0.751 0.496,1.182 m -4.693,7.463 0.61,0.441 c 0.282,-0.227 0.586,-0.323 0.911,-0.286 0.329,0.051 0.717,0.239 1.167,0.564 0.455,0.328 0.752,0.637 0.892,0.927 0.14,0.289 0.145,0.606 0.014,0.949 l 0.611,0.441 c 0.375,-0.71 0.506,-1.369 0.391,-1.978 -0.115,-0.61 -0.461,-1.123 -1.039,-1.541 -0.58,-0.417 -1.172,-0.587 -1.78,-0.509 -0.607,0.078 -1.2,0.409 -1.777,0.992"
             style="fill:#ffffff;fill-opacity:1;fill-rule:nonzero;stroke:none"
             id="path150"
             inkscape:connector-curvature="0" /></g><g
           id="g152"
           transform="translate(179.0347,50.5264)"><path
             d="m 0,0 -0.407,-0.921 c -0.538,-1.202 -0.62,-2.01 -0.247,-2.423 0.198,-0.218 0.419,-0.332 0.663,-0.343 0.237,-0.001 0.475,0.105 0.715,0.322 0.383,0.347 0.571,0.761 0.562,1.24 -0.01,0.479 -0.227,0.955 -0.655,1.428 z M 2.138,-2.292 C 2.181,-2.814 2.108,-3.297 1.92,-3.741 1.731,-4.185 1.427,-4.598 1.006,-4.978 0.751,-5.209 0.488,-5.382 0.219,-5.495 c -0.27,-0.113 -0.555,-0.17 -0.857,-0.168 -0.589,0.003 -1.092,0.235 -1.509,0.696 -0.4,0.442 -0.588,0.922 -0.564,1.439 0.023,0.517 0.277,1.186 0.761,2.007 l 0.575,0.9 c 0.281,0.407 0.441,0.7 0.479,0.878 0.054,0.216 0.057,0.416 0.008,0.599 C -0.937,1.041 -1.042,1.222 -1.204,1.401 -1.474,1.699 -1.789,1.832 -2.15,1.797 -2.512,1.764 -2.891,1.567 -3.287,1.209 -3.542,0.979 -3.734,0.754 -3.864,0.535 -3.993,0.316 -4.075,0.076 -4.109,-0.187 l 0.041,0.038 c 0.231,0.209 0.468,0.317 0.713,0.323 0.243,0.007 0.46,-0.095 0.651,-0.306 0.209,-0.231 0.302,-0.49 0.278,-0.775 -0.023,-0.285 -0.162,-0.543 -0.417,-0.774 -0.286,-0.259 -0.599,-0.38 -0.939,-0.361 -0.341,0.017 -0.638,0.166 -0.89,0.444 -0.407,0.451 -0.529,1.011 -0.365,1.681 0.086,0.33 0.237,0.659 0.455,0.986 0.217,0.327 0.506,0.654 0.867,0.98 0.396,0.359 0.782,0.644 1.161,0.856 0.378,0.212 0.731,0.343 1.057,0.392 0.36,0.051 0.698,0 1.015,-0.151 0.315,-0.153 0.725,-0.507 1.229,-1.064 l 2.321,-2.566 c 0.13,-0.143 0.248,-0.228 0.354,-0.255 0.106,-0.027 0.207,0.002 0.301,0.087 0.136,0.124 0.165,0.29 0.084,0.498 -0.1,0.213 -0.408,0.605 -0.924,1.175 L 3.617,1.687 3.85,1.431 C 4.521,0.688 4.892,0.045 4.959,-0.497 5.027,-1.039 4.798,-1.548 4.271,-2.025 3.919,-2.343 3.571,-2.524 3.226,-2.571 2.881,-2.617 2.518,-2.524 2.138,-2.292"
             style="fill:#ffffff;fill-opacity:1;fill-rule:nonzero;stroke:none"
             id="path154"
             inkscape:connector-curvature="0" /></g></g></g></g></svg>