<?xml version="1.0" encoding="UTF-8" standalone="no"?>
<!-- Created with Inkscape (http://www.inkscape.org/) -->

<svg
   xmlns:dc="http://purl.org/dc/elements/1.1/"
   xmlns:cc="http://creativecommons.org/ns#"
   xmlns:rdf="http://www.w3.org/1999/02/22-rdf-syntax-ns#"
   xmlns:svg="http://www.w3.org/2000/svg"
   xmlns="http://www.w3.org/2000/svg"
   xmlns:sodipodi="http://sodipodi.sourceforge.net/DTD/sodipodi-0.dtd"
   xmlns:inkscape="http://www.inkscape.org/namespaces/inkscape"
   width="100mm"
   height="100mm"
   viewBox="0 0 100 100"
   version="1.1"
   id="svg871"
   sodipodi:docname="holy_shit.svg"
   inkscape:export-filename="/home/onur/Dropbox/design/d00018-shitty_logos/holy_shit.png"
   inkscape:export-xdpi="157.87"
   inkscape:export-ydpi="157.87"
   inkscape:version="0.92.2 5c3e80d, 2017-08-06">
  <defs
     id="defs865" />
  <sodipodi:namedview
     id="base"
     pagecolor="#ffffff"
     bordercolor="#666666"
     borderopacity="1.0"
     inkscape:pageopacity="0.0"
     inkscape:pageshadow="2"
     inkscape:zoom="0.7"
     inkscape:cx="344.55521"
     inkscape:cy="380.95632"
     inkscape:document-units="mm"
     inkscape:current-layer="layer1"
     showgrid="false"
     inkscape:window-width="1920"
     inkscape:window-height="1036"
     inkscape:window-x="0"
     inkscape:window-y="20"
     inkscape:window-maximized="0"
     fit-margin-top="0"
     fit-margin-left="0"
     fit-margin-right="0"
     fit-margin-bottom="0" />
  <metadata
     id="metadata868">
    <rdf:RDF>
      <cc:Work
         rdf:about="">
        <dc:format>image/svg+xml</dc:format>
        <dc:type
           rdf:resource="http://purl.org/dc/dcmitype/StillImage" />
        <dc:title></dc:title>
      </cc:Work>
    </rdf:RDF>
  </metadata>
  <g
     inkscape:label="Layer 1"
     inkscape:groupmode="layer"
     id="layer1"
     transform="translate(-33.675961,-95.74604)">
    <rect
       style="fill:#f9f9f9;fill-opacity:1;stroke:none;stroke-width:5.19999981;stroke-linecap:round;stroke-linejoin:round;stroke-miterlimit:4;stroke-dasharray:none;stroke-dashoffset:0;stroke-opacity:1;paint-order:stroke markers fill"
       id="rect1543"
       width="100"
       height="100"
       x="33.675961"
       y="95.74604" />
    <g
       id="g1526"
       transform="translate(-267.80407,90.871639)">
      <path
         id="path1490"
         transform="scale(0.26458333)"
         d="m 410,426.0918 c -22.97965,9.15855 -37.94788,23.82632 -47.46484,38.97461 -0.0114,0.0181 -0.0218,0.0365 -0.0332,0.0547 -0.69189,1.1029 -1.35328,2.20847 -1.98828,3.31446 -0.0432,0.0751 -0.0879,0.14947 -0.13086,0.22461 -1.30355,2.28418 -2.49213,4.56894 -3.5664,6.83984 -0.003,0.005 -0.005,0.0103 -0.008,0.0156 -0.51071,1.08009 -0.99139,2.15521 -1.45312,3.22657 -0.0586,0.13571 -0.11799,0.27071 -0.17578,0.40625 -0.43171,1.01373 -0.8448,2.02312 -1.23438,3.02539 -0.0316,0.0813 -0.0663,0.16295 -0.0976,0.24414 -0.41008,1.06301 -0.79755,2.11789 -1.16211,3.16406 -0.0624,0.1788 -0.11857,0.35496 -0.17969,0.5332 -0.2841,0.83002 -0.554,1.6539 -0.81055,2.47071 -0.0956,0.30367 -0.18941,0.60458 -0.28125,0.90625 -0.20618,0.67854 -0.40207,1.34996 -0.58984,2.01758 -0.0933,0.33106 -0.19042,0.66401 -0.2793,0.99218 -0.23997,0.8879 -0.46532,1.76596 -0.67383,2.63086 -0.0984,0.40741 -0.18373,0.80321 -0.27539,1.20508 -0.10127,0.44497 -0.20371,0.8903 -0.29687,1.32813 -0.11528,0.54063 -0.22295,1.07247 -0.32617,1.60156 -0.0568,0.29164 -0.1089,0.57922 -0.16211,0.86719 -0.10151,0.54822 -0.20217,1.09463 -0.29102,1.6289 -9.6e-4,0.006 -0.003,0.0118 -0.004,0.0176 -0.59508,3.58304 -0.91865,6.85377 -1.01562,9.66602 -0.11158,3.23592 0.22137,6.31665 0.89258,9.22656 12.55,3.93232 27.78763,6.3789 44.16211,6.3789 23.52415,0 44.70944,-5.03907 58.92969,-12.29882 0.80976,-0.41341 1.58342,-0.83076 2.33789,-1.25 -5.39135,-4.4908 -10.37644,-8.47907 -14.33594,-11.72266 h 0.0273 c -1.1704,-0.95947 -2.47434,-2.0138 -3.4414,-2.83203 -1.03971,-0.87975 -2.12417,-1.82151 -3.22071,-2.79492 -0.58431,-0.51845 -1.1734,-1.0502 -1.76758,-1.59766 -0.17616,-0.16246 -0.35056,-0.31535 -0.52734,-0.48047 -0.055,-0.0513 -0.111,-0.10661 -0.16602,-0.1582 -0.72617,-0.68044 -1.45453,-1.39186 -2.18554,-2.11914 -0.46809,-0.46621 -0.93692,-0.9334 -1.4043,-1.41992 -0.0247,-0.0257 -0.0495,-0.0504 -0.0742,-0.0762 -1.2634,-1.31836 -2.52074,-2.71307 -3.75,-4.1914 -4.63382,-5.57274 -8.87933,-12.33854 -11.63476,-20.73633 -0.55109,-1.67956 -1.04175,-3.42478 -1.46485,-5.23828 -2.18317,-9.35832 -2.55509,-20.5378 0.12305,-34.04492 z"
         style="fill:#4d4d4d;fill-rule:evenodd;stroke:none;stroke-width:0.99999994px;stroke-linecap:butt;stroke-linejoin:miter;stroke-opacity:1"
         inkscape:connector-curvature="0" />
      <path
         transform="scale(0.26458333)"
         id="path1427"
         d="m 307.61914,528.57422 c -9.25337,8.61688 -15.61008,20.04053 -19.76172,31.08789 -7.71311,20.52431 -4.29259,50.4681 11.96485,65.17969 -12.72191,-7.8519 -20.53628,-30.35688 -21.96485,-40.89258 -22.5,15.71425 -32.85714,40.71286 -25,65.71289 7.85715,24.99999 38.21345,59.28517 91.42774,69.28516 53.21427,10.00002 120.0014,6.43027 161.78711,-22.85547 41.78573,-29.28571 47.14204,-85.00114 -3.57227,-118.92969 -2.85713,18.92855 -12.42164,37.55809 -23.57227,45.71484 13.21429,-19.28572 24.44192,-43.06522 16.68165,-62.6914 -3.66617,-9.2719 -12.17653,-19.36825 -21.85157,-28.85743 -3.32057,2.30868 -6.86952,4.4211 -10.58203,6.31641 -18.93539,9.66697 -43.55144,15.10352 -70.62109,15.10352 -27.06966,0 -51.68765,-5.43655 -70.62305,-15.10352 -5.14245,-2.62533 -9.98259,-5.65674 -14.3125,-9.07031 z"
         style="fill:#4d4d4d;fill-rule:evenodd;stroke:none;stroke-width:0.99999994px;stroke-linecap:butt;stroke-linejoin:miter;stroke-opacity:1"
         inkscape:connector-curvature="0" />
      <path
         id="ellipse1431"
         transform="scale(0.26458333)"
         d="m 396.93555,439.24219 c -7.2765,4.45305 -13.3843,9.51361 -18.4961,14.89258 4.59212,-0.38259 9.30474,-0.5918 14.11524,-0.5918 3.62246,0 7.18417,0.12803 10.6875,0.34765 -0.51389,-4.49579 -0.66563,-9.30129 -0.39258,-14.42187 -1.95508,-0.10606 -3.9267,-0.18125 -5.91406,-0.22656 z m -20.34961,0.6289 c -19.93184,1.70217 -37.88593,6.55144 -52.07813,13.79688 -17.89529,9.13595 -30.74609,22.74924 -30.74609,39.46484 0,16.71561 12.8508,30.32694 30.74609,39.46289 17.89529,9.13595 41.75932,14.48438 68.04688,14.48438 26.28756,0 50.14379,-5.34843 68.03906,-14.48438 17.89531,-9.13595 30.75195,-22.74728 30.75195,-39.46289 0,-16.7156 -12.85664,-30.32889 -30.75195,-39.46484 -12.90995,-6.59083 -28.93331,-11.19378 -46.72266,-13.25586 -0.28071,5.35343 0.005,10.18537 0.72461,14.57031 15.37386,2.04134 28.99911,6.13154 39.47266,11.47852 15.26037,7.79074 22.91211,17.55818 22.91211,26.67187 0,9.11365 -7.65174,18.87918 -22.91211,26.66992 -15.26033,7.79074 -37.20742,12.91797 -61.51367,12.91797 -24.30624,0 -46.25333,-5.12723 -61.51367,-12.91797 -15.26035,-7.79074 -22.91407,-17.55627 -22.91407,-26.66992 0,-9.11369 7.65372,-18.88113 22.91407,-26.67187 8.39028,-4.28342 18.80984,-7.75385 30.52343,-10.01758 4.17029,-5.76259 9.12838,-11.37331 15.02149,-16.57227 z"
         style="color:#000000;font-style:normal;font-variant:normal;font-weight:normal;font-stretch:normal;font-size:medium;line-height:normal;font-family:sans-serif;font-variant-ligatures:normal;font-variant-position:normal;font-variant-caps:normal;font-variant-numeric:normal;font-variant-alternates:normal;font-feature-settings:normal;text-indent:0;text-align:start;text-decoration:none;text-decoration-line:none;text-decoration-style:solid;text-decoration-color:#000000;letter-spacing:normal;word-spacing:normal;text-transform:none;writing-mode:lr-tb;direction:ltr;text-orientation:mixed;dominant-baseline:auto;baseline-shift:baseline;text-anchor:start;white-space:normal;shape-padding:0;clip-rule:nonzero;display:inline;overflow:visible;visibility:visible;opacity:1;isolation:auto;mix-blend-mode:normal;color-interpolation:sRGB;color-interpolation-filters:linearRGB;solid-color:#000000;solid-opacity:1;vector-effect:none;fill:#4d4d4d;fill-opacity:1;fill-rule:nonzero;stroke:none;stroke-width:14.36220455;stroke-linecap:round;stroke-linejoin:round;stroke-miterlimit:4;stroke-dasharray:none;stroke-dashoffset:0;stroke-opacity:1;paint-order:stroke fill markers;color-rendering:auto;image-rendering:auto;shape-rendering:auto;text-rendering:auto;enable-background:accumulate"
         inkscape:connector-curvature="0" />
    </g>
    <g
       id="g1459"
       transform="translate(-242.28274)">
      <path
         style="fill:#4d4d4d;fill-rule:evenodd;stroke:none;stroke-width:0.26458332px;stroke-linecap:butt;stroke-linejoin:miter;stroke-opacity:1"
         d="m 73.516367,154.50298 c -5.953125,4.15773 -8.693451,10.77231 -6.614583,17.3869 2.078871,6.61458 10.110864,15.68601 24.190476,18.33184 14.07961,2.64584 31.75,1.7009 42.8058,-6.04762 11.05581,-7.74851 12.47322,-22.48958 -0.94494,-31.46651 -0.75595,5.00818 -3.28633,9.9371 -6.2366,12.09524 3.49628,-5.10268 6.46678,-11.39431 4.41354,-16.58707 -2.33467,-5.90449 -12.06756,-13.08407 -15.75283,-16.20237 -3.68527,-3.1183 -9.07143,-8.31548 -6.89806,-19.27679 -13.040182,5.19718 -16.347474,17.10343 -16.536463,22.58408 -0.188989,5.48066 4.441219,9.26042 6.52009,10.48884 -3.590774,-0.18899 -8.598958,-4.34672 -9.07143,-9.63839 -7.181545,0.75595 -11.198934,6.50388 -13.229166,11.90625 -2.040761,5.43039 -1.135895,13.35272 3.165551,17.24516 -3.366003,-2.07748 -5.433409,-8.03199 -5.811385,-10.81956 z"
         id="path1449"
         inkscape:connector-curvature="0"
         sodipodi:nodetypes="csscccsscsccscc" />
      <g
         id="g1455"
         transform="matrix(0.78111399,0,0,0.84757052,22.464898,7.3822882)"
         style="stroke-width:1.22900844">
        <ellipse
           ry="11.523596"
           rx="22.747915"
           cy="131.05779"
           cx="103.76185"
           id="ellipse1451"
           style="fill:none;fill-opacity:1;stroke:#ffffff;stroke-width:6.39084387;stroke-linecap:round;stroke-linejoin:round;stroke-miterlimit:4;stroke-dasharray:none;stroke-dashoffset:0;stroke-opacity:1;paint-order:stroke fill markers" />
        <ellipse
           style="fill:none;fill-opacity:1;stroke:#4d4d4d;stroke-width:4.30152988;stroke-linecap:round;stroke-linejoin:round;stroke-miterlimit:4;stroke-dasharray:none;stroke-dashoffset:0;stroke-opacity:1;paint-order:stroke fill markers"
           id="ellipse1453"
           cx="103.76185"
           cy="131.05779"
           rx="22.747915"
           ry="11.523596" />
      </g>
    </g>
    <g
       id="g1583"
       transform="translate(0,3.6349867)">
      <g
         style="stroke-width:1.76770854"
         id="g1536"
         transform="matrix(0.56570414,0,0,0.56570414,24.611774,49.429444)">
        <path
           inkscape:connector-curvature="0"
           id="path1528"
           transform="matrix(0.26458333,0,0,0.26458333,-15.874998,0)"
           d="m 470,426.0918 c -25.30998,10.08732 -40.90179,26.86107 -50.19531,43.59961 9.01749,2.91965 19.83347,4.72461 31.43164,4.72461 8.06915,0 15.75436,-0.8798 22.72656,-2.39258 C 468.67325,460.66208 466.08001,445.8621 470,426.0918 Z m -58.26367,62.3457 c -2.81428,8.90767 -4.02867,16.98758 -4.23633,23.00977 -0.71429,20.7143 16.78543,35.00168 24.64258,39.64453 -13.57143,-0.7143 -32.49944,-16.42968 -34.28516,-36.42969 -27.14285,2.85713 -42.32668,24.58159 -50,45 -7.71311,20.52431 -4.29259,50.4681 11.96485,65.17969 -12.72191,-7.8519 -20.53628,-30.35688 -21.96485,-40.89258 -22.5,15.71425 -32.85714,40.71286 -25,65.71289 7.85715,24.99999 38.21345,59.28517 91.42774,69.28516 53.21427,10.00002 120.0014,6.43027 161.78711,-22.85547 41.78573,-29.28571 47.14204,-85.00114 -3.57227,-118.92969 -2.85713,18.92855 -12.42164,37.55809 -23.57227,45.71484 13.21429,-19.28572 24.44192,-43.06522 16.68165,-62.6914 -8.82395,-22.31619 -45.60853,-49.45063 -59.53711,-61.23633 -3.05733,-2.58697 -6.42383,-5.55548 -9.73047,-9.04688 -10.56669,3.2367 -22.46765,4.98438 -35.10547,4.98438 -14.42382,0 -27.88625,-2.27834 -39.5,-6.44922 z"
           style="fill:#4d4d4d;fill-rule:evenodd;stroke:none;stroke-width:1.7677083px;stroke-linecap:butt;stroke-linejoin:miter;stroke-opacity:1" />
        <g
           id="g1534"
           transform="matrix(0.78111399,0,0,0.84757052,22.464898,7.3822882)"
           style="stroke-width:2.17252851">
          <path
             inkscape:connector-curvature="0"
             id="ellipse1532"
             d="m 103.76172,117.38281 c -6.576078,0 -12.546664,1.32277 -17.056642,3.60742 -4.509978,2.28466 -7.841797,5.73894 -7.841797,10.06836 0,4.32942 3.331819,7.78175 7.841797,10.06641 4.509978,2.28466 10.480564,3.60742 17.056642,3.60742 6.57608,0 12.54666,-1.32276 17.05664,-3.60742 4.50998,-2.28466 7.8418,-5.73699 7.8418,-10.06641 0,-4.32942 -3.33182,-7.7837 -7.8418,-10.06836 -4.50998,-2.28465 -10.48056,-3.60742 -17.05664,-3.60742 z m 0,4.30274 c 5.98725,0 11.39013,1.25651 15.11328,3.14257 3.72315,1.88607 5.48438,4.19559 5.48438,6.23047 0,2.03489 -1.76123,4.34245 -5.48438,6.22852 -3.72315,1.88606 -9.12603,3.14258 -15.11328,3.14258 -5.987252,0 -11.390135,-1.25652 -15.113282,-3.14258 -3.723148,-1.88607 -5.484375,-4.19363 -5.484376,-6.22852 0,-2.03488 1.761228,-4.3444 5.484376,-6.23047 3.723147,-1.88606 9.12603,-3.14257 15.113282,-3.14257 z"
             style="color:#000000;font-style:normal;font-variant:normal;font-weight:normal;font-stretch:normal;font-size:medium;line-height:normal;font-family:sans-serif;font-variant-ligatures:normal;font-variant-position:normal;font-variant-caps:normal;font-variant-numeric:normal;font-variant-alternates:normal;font-feature-settings:normal;text-indent:0;text-align:start;text-decoration:none;text-decoration-line:none;text-decoration-style:solid;text-decoration-color:#000000;letter-spacing:normal;word-spacing:normal;text-transform:none;writing-mode:lr-tb;direction:ltr;text-orientation:mixed;dominant-baseline:auto;baseline-shift:baseline;text-anchor:start;white-space:normal;shape-padding:0;clip-rule:nonzero;display:inline;overflow:visible;visibility:visible;opacity:1;isolation:auto;mix-blend-mode:normal;color-interpolation:sRGB;color-interpolation-filters:linearRGB;solid-color:#000000;solid-opacity:1;vector-effect:none;fill:#4d4d4d;fill-opacity:1;fill-rule:nonzero;stroke:none;stroke-width:7.60385084;stroke-linecap:round;stroke-linejoin:round;stroke-miterlimit:4;stroke-dasharray:none;stroke-dashoffset:0;stroke-opacity:1;paint-order:stroke fill markers;color-rendering:auto;image-rendering:auto;shape-rendering:auto;text-rendering:auto;enable-background:accumulate" />
        </g>
      </g>
      <g
         transform="matrix(1.1271767,0,0,1.1271767,-10.682999,-21.58781)"
         id="text1547"
         style="font-style:normal;font-weight:normal;font-size:11.29062366px;line-height:17.64159966px;font-family:sans-serif;text-align:center;letter-spacing:0px;word-spacing:0px;text-anchor:middle;fill:#4d4d4d;fill-opacity:1;stroke:none;stroke-width:0.23473099px;stroke-linecap:butt;stroke-linejoin:miter;stroke-opacity:1"
         aria-label="HOLY SHIT">
        <path
           inkscape:connector-curvature="0"
           id="path1553"
           style="font-style:normal;font-variant:normal;font-weight:900;font-stretch:normal;font-family:MetaPro;-inkscape-font-specification:'MetaPro Heavy';fill:#4d4d4d;stroke-width:0.23473099px"
           d="m 63.759037,173.68132 v -7.86956 h -2.021022 v 2.8904 h -1.614559 v -2.8904 h -2.021021 v 7.86956 h 2.021021 v -3.30815 h 1.614559 v 3.30815 z" />
        <path
           inkscape:connector-curvature="0"
           id="path1555"
           style="font-style:normal;font-variant:normal;font-weight:900;font-stretch:normal;font-family:MetaPro;-inkscape-font-specification:'MetaPro Heavy';fill:#4d4d4d;stroke-width:0.23473099px"
           d="m 71.954442,169.44734 c 0,-1.72747 -0.779053,-3.77107 -3.454931,-3.77107 -2.077475,0 -3.613,1.46778 -3.613,4.26785 0,2.35974 1.26455,3.87269 3.545256,3.87269 2.811366,0 3.522675,-2.11135 3.522675,-4.36947 z m -2.258125,0.24839 c 0,2.02102 -0.37259,2.5291 -1.230678,2.5291 -0.835506,0 -1.321003,-0.49679 -1.321003,-2.50652 0,-1.50165 0.383881,-2.46135 1.298422,-2.46135 0.869378,0 1.253259,0.4742 1.253259,2.43877 z" />
        <path
           inkscape:connector-curvature="0"
           id="path1557"
           style="font-style:normal;font-variant:normal;font-weight:900;font-stretch:normal;font-family:MetaPro;-inkscape-font-specification:'MetaPro Heavy';fill:#4d4d4d;stroke-width:0.23473099px"
           d="m 77.795222,172.01031 h -2.675878 v -6.19855 h -2.043603 v 7.86956 h 4.3356 z" />
        <path
           inkscape:connector-curvature="0"
           id="path1559"
           style="font-style:normal;font-variant:normal;font-weight:900;font-stretch:normal;font-family:MetaPro;-inkscape-font-specification:'MetaPro Heavy';fill:#4d4d4d;stroke-width:0.23473099px"
           d="m 83.56967,165.81176 h -2.404903 l -0.688728,1.70488 c -0.135487,0.32743 -0.270975,0.68873 -0.417753,1.06132 -0.158069,-0.4855 -0.225812,-0.67744 -0.395172,-1.09519 l -0.688728,-1.67101 h -2.416193 l 2.427484,4.58399 v 3.28557 h 2.066184 v -3.33073 z" />
        <path
           inkscape:connector-curvature="0"
           id="path1561"
           style="font-style:normal;font-variant:normal;font-weight:900;font-stretch:normal;font-family:MetaPro;-inkscape-font-specification:'MetaPro Heavy';fill:#4d4d4d;stroke-width:0.23473099px"
           d="m 92.168892,170.9377 c 0,-1.58069 -1.219387,-1.96457 -2.066184,-2.17909 l -0.801635,-0.20323 c -0.587112,-0.14678 -0.767762,-0.40647 -0.767762,-0.66615 0,-0.31614 0.282266,-0.56453 0.801634,-0.56453 0.54195,0 1.241969,0.20323 1.772628,0.55324 l 0.970994,-1.43391 c -0.700019,-0.4855 -1.716175,-0.76776 -2.811365,-0.76776 -1.761338,0 -3.048469,1.03874 -3.048469,2.59684 0,1.35488 0.779053,1.98715 1.919406,2.28071 l 0.925831,0.2371 c 0.54195,0.13549 0.790344,0.29356 0.790344,0.64357 0,0.42904 -0.316137,0.7226 -1.106481,0.7226 -0.801634,0 -1.648431,-0.30485 -2.212962,-0.63228 l -0.71131,1.58069 c 0.790344,0.41775 1.716175,0.71131 2.901691,0.71131 2.043603,0 3.44364,-0.99358 3.44364,-2.87911 z" />
        <path
           inkscape:connector-curvature="0"
           id="path1563"
           style="font-style:normal;font-variant:normal;font-weight:900;font-stretch:normal;font-family:MetaPro;-inkscape-font-specification:'MetaPro Heavy';fill:#4d4d4d;stroke-width:0.23473099px"
           d="m 98.954029,173.68132 v -7.86956 h -2.021022 v 2.8904 h -1.614559 v -2.8904 h -2.021021 v 7.86956 h 2.021021 v -3.30815 h 1.614559 v 3.30815 z" />
        <path
           inkscape:connector-curvature="0"
           id="path1565"
           style="font-style:normal;font-variant:normal;font-weight:900;font-stretch:normal;font-family:MetaPro;-inkscape-font-specification:'MetaPro Heavy';fill:#4d4d4d;stroke-width:0.23473099px"
           d="m 102.48641,173.68132 v -7.86956 h -2.06619 v 7.86956 z" />
        <path
           inkscape:connector-curvature="0"
           id="path1567"
           style="font-style:normal;font-variant:normal;font-weight:900;font-stretch:normal;font-family:MetaPro;-inkscape-font-specification:'MetaPro Heavy';fill:#4d4d4d;stroke-width:0.23473099px"
           d="m 109.32288,165.81176 h -5.93887 v 1.67101 h 1.82908 v 6.19855 h 2.0436 v -6.19855 h 1.82909 z" />
      </g>
    </g>
    <text
       id="text1551"
       y="173.68132"
       x="-35.41008"
       style="font-style:normal;font-weight:normal;font-size:11.29062366px;line-height:17.64159966px;font-family:sans-serif;text-align:center;letter-spacing:0px;word-spacing:0px;text-anchor:middle;fill:#4d4d4d;fill-opacity:1;stroke:none;stroke-width:0.26458332px;stroke-linecap:butt;stroke-linejoin:miter;stroke-opacity:1"
       xml:space="preserve"><tspan
         style="font-style:normal;font-variant:normal;font-weight:900;font-stretch:normal;font-family:MetaPro;-inkscape-font-specification:'MetaPro Heavy';fill:#4d4d4d;stroke-width:0.26458332px"
         y="173.68132"
         x="-35.41008"
         id="tspan1549"
         sodipodi:role="line">HOLY SHIT</tspan></text>
  </g>
</svg>
