<?xml version="1.0" encoding="UTF-8" standalone="no"?>
<!-- Created with Inkscape (http://www.inkscape.org/) -->

<svg
   xmlns:dc="http://purl.org/dc/elements/1.1/"
   xmlns:cc="http://creativecommons.org/ns#"
   xmlns:rdf="http://www.w3.org/1999/02/22-rdf-syntax-ns#"
   xmlns:svg="http://www.w3.org/2000/svg"
   xmlns="http://www.w3.org/2000/svg"
   xmlns:sodipodi="http://sodipodi.sourceforge.net/DTD/sodipodi-0.dtd"
   xmlns:inkscape="http://www.inkscape.org/namespaces/inkscape"
   width="100mm"
   height="100mm"
   viewBox="0 0 100 100"
   version="1.1"
   id="svg914"
   inkscape:version="0.92.2 5c3e80d, 2017-08-06"
   sodipodi:docname="no_shit_sherlock.svg"
   inkscape:export-filename="/home/onur/Dropbox/design/d00018-shitty_logos/no_shit_sherlock.png"
   inkscape:export-xdpi="157.87"
   inkscape:export-ydpi="157.87">
  <defs
     id="defs908" />
  <sodipodi:namedview
     id="base"
     pagecolor="#ffffff"
     bordercolor="#666666"
     borderopacity="1.0"
     inkscape:pageopacity="0.0"
     inkscape:pageshadow="2"
     inkscape:zoom="1.979899"
     inkscape:cx="127.42705"
     inkscape:cy="191.63478"
     inkscape:document-units="mm"
     inkscape:current-layer="layer1"
     showgrid="false"
     inkscape:window-width="1920"
     inkscape:window-height="1036"
     inkscape:window-x="0"
     inkscape:window-y="20"
     inkscape:window-maximized="0"
     inkscape:snap-global="false"
     fit-margin-top="0"
     fit-margin-left="0"
     fit-margin-right="0"
     fit-margin-bottom="0" />
  <metadata
     id="metadata911">
    <rdf:RDF>
      <cc:Work
         rdf:about="">
        <dc:format>image/svg+xml</dc:format>
        <dc:type
           rdf:resource="http://purl.org/dc/dcmitype/StillImage" />
        <dc:title />
      </cc:Work>
    </rdf:RDF>
  </metadata>
  <g
     inkscape:label="Layer 1"
     inkscape:groupmode="layer"
     id="layer1"
     transform="translate(-73.766388,-121.13665)">
    <rect
       style="fill:#f9f9f9;fill-opacity:1;stroke:none;stroke-width:1.06500006;stroke-linecap:round;stroke-linejoin:round;stroke-miterlimit:4;stroke-dasharray:none;stroke-dashoffset:0;stroke-opacity:1;paint-order:stroke fill markers"
       id="rect834"
       width="100"
       height="100"
       x="73.766388"
       y="121.13665" />
    <path
       style="fill:#4d4d4d;fill-rule:evenodd;stroke:none;stroke-width:0.99999994px;stroke-linecap:butt;stroke-linejoin:miter;stroke-opacity:1"
       d="M 136.88281 66.25 C 136.44467 67.223365 134.53517 68.324003 128.21289 71.070312 C 116.81221 76.02259 114.6188 77.749105 117.87305 79.214844 C 122.21557 81.171467 134.09802 79.765966 138.39844 80.037109 C 172.2977 95.134357 204.05426 107.75314 235.18555 124.95312 C 236.93989 126.08385 241.70029 130.79252 246.52539 133.36914 C 251.35045 135.94564 250.85321 132.55828 249.79102 129.42188 C 248.72878 126.28547 245.10314 116.68844 243.22656 112.86133 C 242.71683 111.82176 242.39091 111.01962 242.19922 110.33203 L 209.64258 90.453125 L 138.57227 67.953125 L 136.88281 66.25 z "
       transform="matrix(0.26458333,0,0,0.26458333,73.766388,121.13665)"
       id="path845-3" />
    <g
       id="g826"
       transform="matrix(0.35553815,0,0,0.35553815,-63.904293,141.27052)"
       style="stroke-width:2.81263781">
      <path
         sodipodi:nodetypes="ccccc"
         inkscape:connector-curvature="0"
         id="path1504"
         d="m -180.87465,22.581012 c -0.60135,-2.004521 -8.68626,-0.200453 -17.23888,12.227581 -1.06908,-1.804069 -3.67496,-3.407687 -5.54585,-3.674956 1.87089,-4.34313 17.97388,-14.165285 23.38609,-14.03165 6.74855,1.403165 -0.60136,5.479025 -0.60136,5.479025 z"
         style="fill:none;fill-rule:evenodd;stroke:#000000;stroke-width:0.74417704px;stroke-linecap:butt;stroke-linejoin:miter;stroke-opacity:1" />
      <path
         id="path819"
         transform="scale(0.26458333)"
         d="m -775.32422,126.82422 c -4.32077,0.15783 -7.26064,3.47266 -9.3125,5.99805 -3.28301,4.04061 -33.33364,43.18542 -39.39453,60.10546 -6.06093,16.92006 -9.3438,30.05117 -14.39453,29.04102 -5.05077,-1.01016 -7.07127,-11.61664 -3.2832,-21.9707 3.78806,-10.35407 -7.8292,-22.72892 -31.82032,-24.24414 -23.99111,-1.51524 -40.91058,9.09223 -39.90039,20.70898 1.01012,11.61676 9.34395,9.84771 5.05078,25 -4.29312,15.15229 -6.56748,56.06451 14.14063,68.69141 20.70814,12.62691 44.19541,21.97022 74.5,-2.27344 30.30455,-24.24366 32.07208,-56.06313 33.83984,-65.91211 1.76776,-9.84899 11.11199,-45.96276 26.01172,-65.4082 13.13201,-16.41498 -0.50468,-20.70706 -6.06055,-25.75782 -3.69335,-3.03045 -6.78449,-4.07321 -9.37695,-3.97851 z m -101.51367,61.49219 c 10.64996,-0.16881 22.02724,2.80656 21.99609,8.77734 -0.0453,8.71336 -40.01993,8.97624 -40.15429,-0.88477 -0.0702,-5.14772 8.76117,-7.74362 18.1582,-7.89257 z"
         style="fill:none;fill-rule:evenodd;stroke:#000000;stroke-width:2.81263757px;stroke-linecap:butt;stroke-linejoin:miter;stroke-opacity:1"
         inkscape:connector-curvature="0" />
    </g>
    <text
       xml:space="preserve"
       style="font-style:normal;font-weight:normal;font-size:7.78739882px;line-height:12.16781044px;font-family:sans-serif;text-align:center;letter-spacing:0px;word-spacing:0px;text-anchor:middle;fill:#4d4d4d;fill-opacity:1;stroke:none;stroke-width:0.26458332px;stroke-linecap:butt;stroke-linejoin:miter;stroke-opacity:1"
       x="3.4236751"
       y="201.26347"
       id="text845"><tspan
         sodipodi:role="line"
         id="tspan843"
         x="4.6100383"
         y="201.26347"
         style="font-style:normal;font-variant:normal;font-weight:bold;font-stretch:normal;font-family:'Bodoni Std';-inkscape-font-specification:'Bodoni Std Bold';fill:#4d4d4d;stroke-width:0.26458332px">NO SHIT, </tspan><tspan
         sodipodi:role="line"
         x="3.4236751"
         y="213.91228"
         style="font-style:normal;font-variant:normal;font-weight:bold;font-stretch:normal;font-family:'Bodoni Std';-inkscape-font-specification:'Bodoni Std Bold';fill:#4d4d4d;stroke-width:0.26458332px"
         id="tspan824">SHERLOCK</tspan></text>
    <path
       style="fill:#4d4d4d;fill-rule:evenodd;stroke:none;stroke-width:0.26458332px;stroke-linecap:butt;stroke-linejoin:miter;stroke-opacity:1"
       d="m -0.60379457,131.39786 c 0.57873,-0.005 1.41904,0.24922 1.66929997,1.26419 6.4512799,-0.42903 10.4000396,1.24745 12.7835096,1.96249 2.38348,0.71505 4.08356,2.95547 4.40136,4.05187 0.3178,1.0964 3.575201,4.11547 3.972451,4.56039 0.397239,0.44492 0.810369,0.52444 0.778599,1.65262 -0.0318,1.12817 -1.080509,0.98507 3.00318,2.76473 4.08369,1.77967 4.86925,2.39985 3.70236,2.92376 -1.55721,0.69915 -5.81562,0.19073 -7.356929,0.28607 -12.155311,5.39615 -23.5413206,9.90481 -34.705531,16.05573 -0.6292,0.40449 -2.33701,2.08983 -4.06733,3.01118 -1.73031,0.92133 -1.55061,-0.29216 -1.1686,-1.41574 0.38202,-1.12358 1.6853,-4.56173 2.35945,-5.93251 0.67415,-1.37076 0.51695,-1.64042 -0.0448,-2.62917 -0.5618,-0.98875 -0.24719,-2.87634 -0.22472,-3.6179 0.0225,-0.74156 -0.0224,-2.02251 -0.53929,-3.79777 -0.51684,-1.77526 -0.14214,-4.07329 9.5e-4,-5.24914 0.143,-1.17585 2.8126,-5.62493 3.909,-6.91201 1.0964,-1.28708 3.5141904,-2.8188 4.3417504,-3.49485 -0.47669,0.0635 -1.33854,0.17387 -3.1976604,0.82535 -1.85911,0.65148 -2.52661,-0.14296 -2.60606,-0.93745 -0.0794,-0.79449 0.0478,-1.36663 1.01705,-1.79565 0.96928,-0.42903 4.8463404,-0.0794 5.1323504,-0.0477 0.28602,0.0318 2.0022,0.46081 2.09754,-1.22352 0.0953,-1.68432 1.01688,-1.44608 2.46285,-1.46197 1.44598,-0.0159 1.49377,-0.74677 2.04991003,-0.82622 0.0695,-0.01 0.14674,-0.0161 0.22941,-0.0168 z m -9.56396043,4.32229 c -0.16327,0.003 -0.32817,0.0103 -0.49671,0.0202 -1.03793,0.0605 -1.96626,-0.0113 -1.95502,0.85385 0.0112,0.86516 2.07287,0.1405 3.9211704,-0.67971 -0.50561,-0.16433 -0.97963,-0.20221 -1.4694404,-0.1943 z"
       id="path1472"
       inkscape:connector-curvature="0"
       sodipodi:nodetypes="ccsscsssccscscccsccscscssccccccc" />
    <g
       aria-label="NO SHIT,  SHERLOCK"
       style="font-style:normal;font-weight:normal;font-size:7.78739882px;line-height:12.16781044px;font-family:sans-serif;text-align:center;letter-spacing:0px;word-spacing:0px;text-anchor:middle;fill:#4d4d4d;fill-opacity:1;stroke:none;stroke-width:0.20954235px;stroke-linecap:butt;stroke-linejoin:miter;stroke-opacity:1"
       id="text830"
       transform="matrix(1.2626724,0,0,1.2626724,-6.524342,-56.400162)">
      <g
         id="g880"
         transform="translate(0,5.1971726)"
         style="stroke-width:0.20954235px;fill:#4d4d4d;fill-opacity:1">
        <path
           id="path832"
           style="font-style:normal;font-variant:normal;font-weight:bold;font-stretch:normal;font-family:'Bodoni Std';-inkscape-font-specification:'Bodoni Std Bold';fill:#4d4d4d;stroke-width:0.20954235px;fill-opacity:1"
           d="m 90.453486,196.52095 c 0,-0.15575 0.124599,-0.22584 0.350433,-0.22584 h 0.327071 v -0.23362 h -1.643141 v 0.23362 h 0.218047 c 0.194685,0 0.513968,0.0701 0.513968,0.22584 v 2.62435 l -2.188259,-3.08381 h -2.055873 v 0.23362 h 0.256984 c 0.467244,0 0.397157,0.10124 0.397157,0.48282 v 3.84698 c 0,0.22583 -0.01557,0.38937 -0.280346,0.40494 h -0.373795 v 0.23362 h 1.713228 v -0.23362 h -0.443882 c -0.194685,-0.0156 -0.303709,-0.0935 -0.303709,-0.28813 v -3.99494 l 3.333007,4.6335 h 0.17911 z"
           inkscape:connector-curvature="0" />
        <path
           id="path834"
           style="font-style:normal;font-variant:normal;font-weight:bold;font-stretch:normal;font-family:'Bodoni Std';-inkscape-font-specification:'Bodoni Std Bold';fill:#4d4d4d;stroke-width:0.20954235px;fill-opacity:1"
           d="m 93.277635,197.9071 c 0,-1.4173 0.264772,-1.7288 1.121386,-1.7288 0.856613,0 1.129172,0.3115 1.129172,1.7288 v 1.30829 c 0,1.61978 -0.0623,1.93127 -1.129172,1.93127 -1.066874,0 -1.121386,-0.31149 -1.121386,-1.93127 z m 1.121386,-1.96242 c -1.012362,0 -2.663291,0.89555 -2.663291,2.66329 0,1.53412 1.144748,2.77231 2.663291,2.77231 1.52633,0 2.671077,-1.23819 2.671077,-2.77231 0,-1.76774 -1.650928,-2.66329 -2.671077,-2.66329 z"
           inkscape:connector-curvature="0" />
        <path
           id="path836"
           style="font-style:normal;font-variant:normal;font-weight:bold;font-stretch:normal;font-family:'Bodoni Std';-inkscape-font-specification:'Bodoni Std Bold';fill:#4d4d4d;stroke-width:0.20954235px;fill-opacity:1"
           d="m 102.87974,196.28733 c -0.31928,-0.19469 -0.6775,-0.34265 -1.0513,-0.34265 -0.88776,0 -1.63535,0.66972 -1.63535,1.55748 0,1.1759 0.75538,1.48739 1.51075,1.68208 0.74759,0.19468 1.50297,0.24919 1.50297,0.91891 0,0.49061 -0.37379,1.04351 -1.23819,1.04351 -0.78653,0 -1.3005,-0.63078 -1.51076,-1.34722 h -0.28035 v 1.51076 h 0.28035 l 0.39716,-0.29592 c 0.32707,0.24919 0.66971,0.366 1.07466,0.366 1.26934,0 1.82225,-0.94227 1.82225,-1.8534 0,-0.90333 -0.38158,-1.31607 -0.84883,-1.51854 -0.35822,-0.15575 -1.01236,-0.3115 -1.40952,-0.39716 -0.38158,-0.0857 -0.70865,-0.21026 -0.70865,-0.66971 0,-0.51397 0.59963,-0.76317 1.02794,-0.76317 0.6775,0 1.23041,0.62299 1.34722,1.26156 h 0.24919 v -1.37837 h -0.2414 z"
           inkscape:connector-curvature="0" />
        <path
           id="path838"
           style="font-style:normal;font-variant:normal;font-weight:bold;font-stretch:normal;font-family:'Bodoni Std';-inkscape-font-specification:'Bodoni Std Bold';fill:#4d4d4d;stroke-width:0.20954235px;fill-opacity:1"
           d="m 106.91081,201.26347 v -0.23362 h -0.64635 v -2.31286 h 1.71323 v 2.31286 h -0.63857 v 0.23362 h 2.59321 v -0.23362 h -0.64636 v -4.73474 h 0.64636 v -0.23362 h -2.59321 v 0.23362 h 0.63857 v 2.18826 h -1.71323 v -2.18826 h 0.63857 v -0.23362 h -2.51533 v 0.23362 h 0.56848 v 4.73474 h -0.56848 v 0.23362 z"
           inkscape:connector-curvature="0" />
        <path
           id="path840"
           style="font-style:normal;font-variant:normal;font-weight:bold;font-stretch:normal;font-family:'Bodoni Std';-inkscape-font-specification:'Bodoni Std Bold';fill:#4d4d4d;stroke-width:0.20954235px;fill-opacity:1"
           d="m 112.97209,201.26347 v -0.23362 h -0.65414 v -4.73474 h 0.65414 v -0.23362 h -2.53869 v 0.23362 h 0.57626 v 4.73474 h -0.57626 v 0.23362 z"
           inkscape:connector-curvature="0" />
        <path
           id="path842"
           style="font-style:normal;font-variant:normal;font-weight:bold;font-stretch:normal;font-family:'Bodoni Std';-inkscape-font-specification:'Bodoni Std Bold';fill:#4d4d4d;stroke-width:0.20954235px;fill-opacity:1"
           d="m 113.36669,197.75136 h 0.21026 c 0.25699,-0.94228 0.51397,-1.53412 1.58084,-1.45625 v 4.73474 h -0.63856 v 0.23362 h 2.58541 v -0.23362 h -0.63856 v -4.73474 c 1.06687,-0.0779 1.32385,0.51397 1.58084,1.45625 h 0.21026 l -0.0779,-1.68987 h -4.73473 z"
           inkscape:connector-curvature="0" />
        <path
           id="path844"
           style="font-style:normal;font-variant:normal;font-weight:bold;font-stretch:normal;font-family:'Bodoni Std';-inkscape-font-specification:'Bodoni Std Bold';fill:#4d4d4d;stroke-width:0.20954235px;fill-opacity:1"
           d="m 118.66346,202.69635 c 0.58406,-0.26477 1.10581,-0.85661 1.10581,-1.52633 0,-0.50618 -0.31149,-1.01236 -0.87219,-1.01236 -0.37379,0 -0.66971,0.30371 -0.66971,0.67751 0,0.28813 0.22583,0.54511 0.52175,0.54511 0.27256,0 0.50618,-0.14796 0.55291,-0.42052 0.0779,0.10903 0.0935,0.26478 0.0935,0.39716 0,0.49061 -0.35822,0.9267 -0.77874,1.13696 z"
           inkscape:connector-curvature="0" />
      </g>
      <g
         id="g871"
         style="stroke-width:0.20954235px;fill:#4d4d4d;fill-opacity:1">
        <path
           id="path846"
           style="font-style:normal;font-variant:normal;font-weight:bold;font-stretch:normal;font-family:'Bodoni Std';-inkscape-font-specification:'Bodoni Std Bold';fill:#4d4d4d;stroke-width:0.20954235px;fill-opacity:1"
           d="m 84.460718,208.93613 c -0.319284,-0.19469 -0.677504,-0.34265 -1.051299,-0.34265 -0.887764,0 -1.635354,0.66972 -1.635354,1.55748 0,1.1759 0.755378,1.4874 1.510756,1.68208 0.74759,0.19469 1.502967,0.2492 1.502967,0.91892 0,0.4906 -0.373795,1.04351 -1.238196,1.04351 -0.786527,0 -1.300496,-0.63078 -1.510755,-1.34722 H 81.75849 v 1.51075 h 0.280347 l 0.397157,-0.29592 c 0.327071,0.2492 0.669716,0.36601 1.074661,0.36601 1.269346,0 1.822251,-0.94228 1.822251,-1.8534 0,-0.90334 -0.381582,-1.31607 -0.848826,-1.51854 -0.35822,-0.15575 -1.012362,-0.3115 -1.409519,-0.39716 -0.381583,-0.0857 -0.708654,-0.21026 -0.708654,-0.66972 0,-0.51397 0.59963,-0.76316 1.027937,-0.76316 0.677504,0 1.230409,0.62299 1.34722,1.26155 h 0.249197 v -1.37836 h -0.24141 z"
           inkscape:connector-curvature="0" />
        <path
           id="path848"
           style="font-style:normal;font-variant:normal;font-weight:bold;font-stretch:normal;font-family:'Bodoni Std';-inkscape-font-specification:'Bodoni Std Bold';fill:#4d4d4d;stroke-width:0.20954235px;fill-opacity:1"
           d="m 88.491792,213.91228 v -0.23362 h -0.646354 v -2.31286 h 1.713227 v 2.31286 h -0.638566 v 0.23362 h 2.593204 v -0.23362 h -0.646355 v -4.73474 h 0.646355 v -0.23362 h -2.593204 v 0.23362 h 0.638566 v 2.18826 h -1.713227 v -2.18826 h 0.638566 v -0.23362 h -2.515329 v 0.23362 h 0.56848 v 4.73474 h -0.56848 v 0.23362 z"
           inkscape:connector-curvature="0" />
        <path
           id="path850"
           style="font-style:normal;font-variant:normal;font-weight:bold;font-stretch:normal;font-family:'Bodoni Std';-inkscape-font-specification:'Bodoni Std Bold';fill:#4d4d4d;stroke-width:0.20954235px;fill-opacity:1"
           d="m 96.601151,213.91228 0.04672,-1.70544 h -0.241409 c -0.21026,0.90334 -0.428307,1.47182 -1.635354,1.47182 h -0.763165 v -2.2895 c 0.763165,0 0.973425,0.2492 1.082449,0.99679 h 0.256984 v -2.21162 h -0.256984 c -0.155748,0.71644 -0.319284,0.94227 -1.082449,0.94227 v -2.17268 h 0.732016 c 0.77874,0 1.121385,0.28813 1.448456,1.16811 h 0.264771 l -0.04672,-1.40173 h -4.259707 v 0.23362 h 0.552905 v 4.73474 h -0.622992 v 0.23362 z"
           inkscape:connector-curvature="0" />
        <path
           id="path852"
           style="font-style:normal;font-variant:normal;font-weight:bold;font-stretch:normal;font-family:'Bodoni Std';-inkscape-font-specification:'Bodoni Std Bold';fill:#4d4d4d;stroke-width:0.20954235px;fill-opacity:1"
           d="m 99.155175,208.94392 h 0.560692 c 0.903343,0 0.778743,0.25698 0.778743,0.63078 v 0.75537 c 0,0.54512 -0.22584,0.67751 -1.012365,0.67751 h -0.32707 z m 0.646354,4.96836 v -0.23362 h -0.646354 v -2.4141 h 0.334858 c 0.622987,0 0.786527,0.20247 0.802097,1.12917 0.0234,1.19926 0.34265,1.62757 1.29271,1.62757 0.28035,0 0.66193,-0.10902 0.91113,-0.24141 l -0.0467,-0.16353 c -0.38937,0.0857 -0.54511,0.0234 -0.59963,-0.0311 -0.10902,-0.11681 -0.14017,-0.39716 -0.14017,-1.04351 0,-0.74759 -0.45167,-1.1759 -1.53412,-1.37837 v -0.0156 c 0.65415,-0.0701 1.73659,-0.31928 1.73659,-1.1759 0,-0.91112 -0.81767,-1.26155 -1.59641,-1.26155 h -3.0916 v 0.23362 h 0.622992 v 4.73474 h -0.607417 v 0.23362 z"
           inkscape:connector-curvature="0" />
        <path
           id="path854"
           style="font-style:normal;font-variant:normal;font-weight:bold;font-stretch:normal;font-family:'Bodoni Std';-inkscape-font-specification:'Bodoni Std Bold';fill:#4d4d4d;stroke-width:0.20954235px;fill-opacity:1"
           d="m 107.08786,213.91228 0.0779,-1.70544 h -0.21805 c -0.2414,0.7398 -0.56848,1.47182 -1.44845,1.47182 h -0.87219 v -4.73474 h 0.70087 v -0.23362 h -2.5387 v 0.23362 h 0.52955 v 4.73474 h -0.52955 v 0.23362 z"
           inkscape:connector-curvature="0" />
        <path
           id="path856"
           style="font-style:normal;font-variant:normal;font-weight:bold;font-stretch:normal;font-family:'Bodoni Std';-inkscape-font-specification:'Bodoni Std Bold';fill:#4d4d4d;stroke-width:0.20954235px;fill-opacity:1"
           d="m 109.2631,210.55591 c 0,-1.41731 0.26477,-1.7288 1.12138,-1.7288 0.85662,0 1.12917,0.31149 1.12917,1.7288 v 1.30828 c 0,1.61978 -0.0623,1.93128 -1.12917,1.93128 -1.06687,0 -1.12138,-0.3115 -1.12138,-1.93128 z m 1.12138,-1.96243 c -1.01236,0 -2.66329,0.89556 -2.66329,2.66329 0,1.53412 1.14475,2.77232 2.66329,2.77232 1.52633,0 2.67108,-1.2382 2.67108,-2.77232 0,-1.76773 -1.65093,-2.66329 -2.67108,-2.66329 z"
           inkscape:connector-curvature="0" />
        <path
           id="path858"
           style="font-style:normal;font-variant:normal;font-weight:bold;font-stretch:normal;font-family:'Bodoni Std';-inkscape-font-specification:'Bodoni Std Bold';fill:#4d4d4d;stroke-width:0.20954235px;fill-opacity:1"
           d="m 117.55157,209.014 c -0.3738,-0.29592 -0.79432,-0.42052 -1.26156,-0.42052 -1.41731,0 -2.46861,1.69766 -2.46861,2.67108 0,1.55748 1.16811,2.76453 2.54648,2.76453 0.44388,0 0.8644,-0.16354 1.2382,-0.40495 l 0.30371,0.28814 h 0.28034 v -1.54191 h -0.26477 c -0.2492,0.79432 -0.69308,1.4251 -1.58084,1.4251 -0.99679,0 -1.00458,-0.5607 -1.00458,-2.53091 0,-2.19604 0.2492,-2.43745 0.97343,-2.43745 0.8644,0 1.24598,0.60741 1.5419,1.33164 h 0.22584 v -1.44845 h -0.26477 z"
           inkscape:connector-curvature="0" />
        <path
           id="path860"
           style="font-style:normal;font-variant:normal;font-weight:bold;font-stretch:normal;font-family:'Bodoni Std';-inkscape-font-specification:'Bodoni Std Bold';fill:#4d4d4d;stroke-width:0.20954235px;fill-opacity:1"
           d="m 122.16146,208.94392 h 0.38159 c 0.15574,0 0.3037,0.008 0.3037,0.10123 0,0.008 -0.0467,0.0779 -0.13238,0.16354 l -1.58863,1.64314 c -0.0934,0.0934 -0.23362,0.1869 -0.23362,0.31928 0,0.10124 0.0701,0.21805 0.13238,0.3115 l 1.47961,2.19605 h -0.63078 v 0.23362 h 2.74116 v -0.23362 h -0.56069 l -2.18047,-3.20841 1.35501,-1.40952 c 0.0779,-0.0857 0.14017,-0.11681 0.25698,-0.11681 h 0.56848 v -0.23362 h -1.89234 z m -0.70086,4.96836 v -0.23362 h -0.65414 v -4.73474 h 0.66971 v -0.23362 h -2.56205 v 0.23362 h 0.58405 v 4.73474 h -0.59963 v 0.23362 z"
           inkscape:connector-curvature="0" />
      </g>
    </g>
    <g
       id="g955"
       transform="translate(190.12202,0.3448866)">
      <path
         sodipodi:nodetypes="cssccccccsccccccccccc"
         inkscape:connector-curvature="0"
         id="path962"
         d="m 96.598734,170.14574 c -2.20879,9.75479 46.859126,9.77052 44.606586,0.0668 -0.61011,-2.62832 -5.86427,-10.34211 -7.50915,-9.68807 -1.81092,0.72007 -8.60612,2.26278 -12.89732,1.61656 3.54353,-0.42522 12.43219,-2.0268 12.49779,-3.78767 -1.43134,-4.52625 -5.09674,-7.31521 -5.74268,-6.82488 -3.32772,3.05382 -7.04671,0.88971 -7.04671,0.88971 1.14069,0.26514 6.55066,-1.25016 6.24875,-2.79022 -0.80109,-3.28485 -5.03136,-5.23638 -6.1173,-6.16436 -1.08593,-0.92802 -1.46272,-2.80464 -1.46272,-4.39548 0,-1.59083 -2.81638,2.08157 -3.21647,3.80497 -0.20755,0.63717 -0.68607,2.78399 2.04413,4.70626 -2.05701,1.19315 -4.21951,1.04646 -5.12856,0.70832 -0.42522,-0.24831 -3.25796,3.13012 -4.85828,5.51639 -0.66844,0.96114 6.32265,2.46394 6.32265,2.46394 -1.2014,0.77712 -5.06465,0.48711 -6.32831,-0.0533 -1.94446,-0.74496 -5.43274,5.02002 -6.91875,7.53887 -1.765056,1.76505 12.00352,3.52146 15.49757,2.90988 -2.49269,1.24178 -13.15567,0.72422 -15.52116,-0.62421 -1.666036,-0.52793 -3.421186,2.10655 -4.470066,4.1065 z"
         style="fill:#4d4d4d;fill-rule:evenodd;stroke:none;stroke-width:0.26458332px;stroke-linecap:butt;stroke-linejoin:miter;stroke-opacity:1" />
      <g
         style="fill:#4d4d4d;stroke-width:2.79091167"
         transform="matrix(-0.35830589,0,0,0.35830589,66.927073,147.41214)"
         id="g832">
        <path
           sodipodi:nodetypes="ccccc"
           inkscape:connector-curvature="0"
           id="path828"
           d="m -180.87465,22.581012 c -0.60135,-2.004521 -8.68626,-0.200453 -17.23888,12.227581 -1.06908,-1.804069 -3.67496,-3.407687 -5.54585,-3.674956 1.87089,-4.34313 17.97388,-14.165285 23.38609,-14.03165 6.74855,1.403165 -0.60136,5.479025 -0.60136,5.479025 z"
           style="fill:#4d4d4d;fill-rule:evenodd;stroke:none;stroke-width:0.73842859px;stroke-linecap:butt;stroke-linejoin:miter;stroke-opacity:1" />
        <path
           inkscape:connector-curvature="0"
           id="path830"
           transform="scale(0.26458333)"
           d="m -775.32422,126.82422 c -4.32077,0.15783 -7.26064,3.47266 -9.3125,5.99805 -3.28301,4.04061 -33.33364,43.18542 -39.39453,60.10546 -6.06093,16.92006 -9.3438,30.05117 -14.39453,29.04102 -5.05077,-1.01016 -7.07127,-11.61664 -3.2832,-21.9707 3.78806,-10.35407 -7.8292,-22.72892 -31.82032,-24.24414 -23.99111,-1.51524 -40.91058,9.09223 -39.90039,20.70898 1.01012,11.61676 9.34395,9.84771 5.05078,25 -4.29312,15.15229 -6.56748,56.06451 14.14063,68.69141 20.70814,12.62691 44.19541,21.97022 74.5,-2.27344 30.30455,-24.24366 32.07208,-56.06313 33.83984,-65.91211 1.76776,-9.84899 11.11199,-45.96276 26.01172,-65.4082 13.13201,-16.41498 -0.50468,-20.70706 -6.06055,-25.75782 -3.69335,-3.03045 -6.78449,-4.07321 -9.37695,-3.97851 z m -101.51367,61.49219 c 10.64996,-0.16881 22.02724,2.80656 21.99609,8.77734 -0.0453,8.71336 -40.01993,8.97624 -40.15429,-0.88477 -0.0702,-5.14772 8.76117,-7.74362 18.1582,-7.89257 z"
           style="fill:#4d4d4d;fill-rule:evenodd;stroke:none;stroke-width:2.79091144px;stroke-linecap:butt;stroke-linejoin:miter;stroke-opacity:1" />
      </g>
      <path
         sodipodi:nodetypes="ccsscsssccscscccsccscscssccccccc"
         inkscape:connector-curvature="0"
         id="path1472-3"
         d="m 54.375938,136.10408 c 0.2725,0.0321 0.65264,0.2015 0.71009,0.69374 3.0598,0.18135 4.81742,1.20486 5.89615,1.6822 1.07861,0.47788 1.74519,1.63261 1.82956,2.16718 0.0843,0.53454 1.43718,2.148 1.5976,2.38087 0.16043,0.23284 0.35001,0.29479 0.26808,0.82354 -0.0819,0.52876 -0.56672,0.39917 1.24835,1.47873 1.81508,1.07956 2.14774,1.41791 1.56779,1.59504 -0.77397,0.23637 -2.74673,-0.25541 -3.47732,-0.30236 -6.03768,1.81623 -11.66081,3.26071 -17.27716,5.49079 -0.31995,0.1529 -1.2233,0.84416 -2.09187,1.17477 -0.86855,0.33059 -0.71198,-0.22948 -0.46558,-0.73527 0.2464,-0.5058 1.06359,-2.04553 1.46207,-2.65026 0.39849,-0.60469 0.34056,-0.74085 0.13501,-1.23927 -0.20551,-0.49842 0.0546,-1.36757 0.10907,-1.71502 0.0546,-0.34748 0.10956,-0.95262 -0.0281,-1.81831 -0.13766,-0.86568 0.17476,-1.92433 0.31213,-2.46887 0.13717,-0.54457 1.65694,-2.47865 2.24907,-3.01891 0.59212,-0.54027 1.82026,-1.11714 2.24966,-1.38597 -0.22799,0.002 -0.63991,0.002 -1.55301,0.19831 -0.91313,0.19601 -1.17991,-0.21727 -1.17009,-0.59569 0.0102,-0.37837 0.10358,-0.63995 0.58499,-0.78418 0.48138,-0.14423 2.28418,0.25054 2.41685,0.28232 0.13257,0.032 0.91435,0.33565 1.0592,-0.45091 0.14478,-0.78658 0.56418,-0.61979 1.24524,-0.54139 0.68107,0.0783 0.74692,-0.26253 1.01323,-0.26687 0.0334,-8.9e-4 0.0701,5.6e-4 0.10884,0.006 z m -4.75507,1.46502 c -0.0771,-0.008 -0.15495,-0.0148 -0.23478,-0.0204 -0.49179,-0.0331 -0.92415,-0.12206 -0.97024,0.28552 -0.0461,0.40759 0.96663,0.18916 1.88467,-0.0869 -0.22802,-0.10742 -0.44874,-0.15336 -0.6796,-0.17873 z"
         style="fill:#4d4d4d;fill-rule:evenodd;stroke:none;stroke-width:0.26458332px;stroke-linecap:butt;stroke-linejoin:miter;stroke-opacity:1" />
    </g>
    <g
       style="fill:#4d4d4d;stroke-width:2.79091167"
       transform="matrix(0.35830589,0,0,0.35830589,-64.07021,92.699509)"
       id="g901">
      <path
         sodipodi:nodetypes="ccccc"
         inkscape:connector-curvature="0"
         id="path897"
         d="m -180.87465,22.581012 c -0.60135,-2.004521 -8.68626,-0.200453 -17.23888,12.227581 -1.06908,-1.804069 -3.67496,-3.407687 -5.54585,-3.674956 1.87089,-4.34313 17.97388,-14.165285 23.38609,-14.03165 6.74855,1.403165 -0.60136,5.479025 -0.60136,5.479025 z"
         style="fill:#4d4d4d;fill-rule:evenodd;stroke:none;stroke-width:0.73842859px;stroke-linecap:butt;stroke-linejoin:miter;stroke-opacity:1" />
      <path
         inkscape:connector-curvature="0"
         id="path899"
         transform="scale(0.26458333)"
         d="m -775.32422,126.82422 c -4.32077,0.15783 -7.26064,3.47266 -9.3125,5.99805 -3.28301,4.04061 -33.33364,43.18542 -39.39453,60.10546 -6.06093,16.92006 -9.3438,30.05117 -14.39453,29.04102 -5.05077,-1.01016 -7.07127,-11.61664 -3.2832,-21.9707 3.78806,-10.35407 -7.8292,-22.72892 -31.82032,-24.24414 -23.99111,-1.51524 -40.91058,9.09223 -39.90039,20.70898 1.01012,11.61676 9.34395,9.84771 5.05078,25 -4.29312,15.15229 -6.56748,56.06451 14.14063,68.69141 20.70814,12.62691 44.19541,21.97022 74.5,-2.27344 30.30455,-24.24366 32.07208,-56.06313 33.83984,-65.91211 1.76776,-9.84899 11.11199,-45.96276 26.01172,-65.4082 13.13201,-16.41498 -0.50468,-20.70706 -6.06055,-25.75782 -3.69335,-3.03045 -6.78449,-4.07321 -9.37695,-3.97851 z m -101.51367,61.49219 c 10.64996,-0.16881 22.02724,2.80656 21.99609,8.77734 -0.0453,8.71336 -40.01993,8.97624 -40.15429,-0.88477 -0.0702,-5.14772 8.76117,-7.74362 18.1582,-7.89257 z"
         style="fill:#4d4d4d;fill-rule:evenodd;stroke:none;stroke-width:2.79091144px;stroke-linecap:butt;stroke-linejoin:miter;stroke-opacity:1" />
    </g>
    <g
       id="g986">
      <path
         sodipodi:nodetypes="cccccsccccccccccccscccccsccccccccccsccccsccccccccssssccscscsccsscccsscccscccc"
         inkscape:connector-curvature="0"
         id="path959"
         d="m 110.80805,142.44673 c 0.0354,0.81501 0.0591,2.06706 0.0236,2.30329 -0.0354,0.23624 -0.4016,1.06306 -0.36616,1.44104 0.0354,0.37797 0.62602,1.09849 0.54334,1.53553 -0.0827,0.43703 -0.83864,1.70089 -1.12212,2.27967 -0.28348,0.57877 -0.27167,1.67727 -0.48428,2.24423 -0.21261,0.56696 -0.90951,1.81901 -0.83864,2.24423 0.0709,0.42523 0.31892,0.70871 1.14574,0.53153 0.82683,-0.17718 1.52372,-0.34254 1.54734,0.53153 0.0236,0.87407 0.35436,1.81901 -0.18899,2.008 -0.54334,0.18899 -1.22842,0.24805 -2.05524,0.77958 -0.82682,0.53152 -2.94113,1.86625 -3.37816,2.58677 0.62602,0.12993 1.07487,0.63783 1.38197,0.98038 0.44885,-0.48429 0.98038,-1.52372 1.68908,-2.03163 0.70871,-0.5079 1.48829,-1.004 1.7009,-1.09849 0.21261,-0.0945 0.42522,-0.17718 0.61421,-0.0827 0.18899,0.0945 0.21261,0.37798 0.34254,0.48428 0.12993,0.10631 0.49609,0.31892 0.59059,0.41341 0.0945,0.0945 0.38978,1.2993 -0.17718,2.6104 -0.56696,1.3111 -0.33073,2.62221 1.06306,2.65765 1.39379,0.0354 2.10249,-0.0945 3.03562,-0.34255 0.93313,-0.24804 2.05524,-0.21261 2.39779,-0.0118 0.34254,0.2008 0.76776,1.37017 1.06305,2.16155 0.2953,0.79139 0.81502,2.36235 1.51191,2.35054 0.0354,-0.86226 0,-2.75213 0,-3.04743 0,-0.29529 0.0473,-0.59059 0.69689,-0.8032 0.64965,-0.21261 4.84014,-1.81623 5.67536,-2.40088 0.83521,-0.58465 3.26614,-1.80411 4.27014,-2.83173 0.22443,0 0.28348,-0.0236 0.29529,-0.0236 -0.66145,1.65365 -1.54733,2.83482 -2.35054,3.49628 -0.80319,0.66146 -3.33091,2.52772 -6.44921,3.37817 -0.0827,0.2008 -0.0118,0.2008 -0.0118,0.2008 0.3071,0.0827 1.22264,0.24016 1.37298,0.27775 0.15034,0.0376 0.14616,0.32991 -0.14616,0.58882 -0.29233,0.25892 -1.03985,1.23613 -1.19854,1.46163 -0.15869,0.22551 -0.1921,0.64312 0.45937,0.25892 0.65147,-0.3842 2.48059,-1.52844 2.83974,-1.69549 0.35914,-0.16704 0.68487,-0.0919 0.35914,0.40091 -0.32573,0.49277 -2.59753,4.42665 -2.99843,5.34539 -0.4009,0.91873 -2.19662,5.48737 -2.28014,5.73794 -0.066,0.22596 -0.036,0.5862 -0.16897,0.62541 -0.0703,0.0207 -0.18056,0.0226 -0.1776,-0.0881 0.002,-0.17127 -0.023,-0.58118 -0.37798,-0.27424 -0.35497,0.30694 -0.70785,0.80181 -1.21733,0.7684 -0.50948,-0.0334 -1.4324,-1.01061 -1.63703,-1.03567 -0.20463,-0.025 -0.12528,0.61389 -0.22551,0.72247 -0.10022,0.10857 -0.53036,0.15033 -0.52618,-0.48025 0.004,-0.63059 -0.0659,-2.18413 0.11125,-2.99914 0.17718,-0.81502 0.70871,-3.48447 1.09849,-4.38217 0.38979,-0.89769 0.64051,-1.47254 1.13393,-2.14973 0.47028,-0.64543 -1.17716,-2.71607 -1.41741,-2.89389 -0.25069,-0.18555 -1.09849,2.03163 -1.24023,2.37417 -0.14174,0.34254 -0.55515,1.15755 -0.88588,1.63002 -0.33073,0.47247 -1.75996,2.48047 -2.2088,3.55534 -0.44885,1.07487 -1.74814,5.62239 -1.98438,6.75632 -0.23623,1.13393 -1.88988,8.15011 -2.03162,8.65802 -0.14174,0.50791 -0.3071,0.86226 0.53153,0.96856 0.83864,0.10631 1.12212,0.11812 1.81901,0.37798 0.69689,0.25986 2.6104,0.99219 3.93331,1.1103 1.32292,0.11812 5.10268,-0.11811 7.32329,-0.69689 2.22061,-0.57878 6.04762,-1.98437 7.51228,-3.75614 1.46466,-1.77176 2.83482,-4.74832 3.59077,-5.76413 1.11033,-1.58281 2.26788,-3.02385 3.23644,-3.92154 0.96857,-0.8977 4.39398,-3.2128 6.61459,-3.68527 2.22061,-0.47247 1.63002,-2.17336 1.27567,-3.07106 -0.35436,-0.89769 -1.2969,-2.16263 -1.48065,-2.4466 -0.18374,-0.28398 -0.4176,-0.66818 -0.50113,-1.37811 -0.0835,-0.70994 -0.52618,-1.5201 -1.10248,-2.29685 -0.5763,-0.77675 -1.97947,-2.62258 -2.4806,-3.77518 -0.50113,-1.1526 -0.83522,-1.98782 -1.48669,-2.03793 -0.65146,-0.0501 -0.93544,0.25056 -1.31964,0.60136 -0.33409,-0.88533 -0.95215,-2.57247 -1.25282,-2.97338 -0.30068,-0.4009 -1.23613,-0.28397 -1.26953,-0.85192 -0.0334,-0.56795 -0.0668,-1.67043 0.36749,-2.18827 0.43431,-0.51783 0.7684,-0.7684 0.7684,-0.7684 l -11.00742,-9.28799 z"
         style="fill:#4d4d4d;fill-rule:evenodd;stroke:none;stroke-width:0.1;stroke-linecap:butt;stroke-linejoin:miter;stroke-miterlimit:4;stroke-dasharray:none;stroke-opacity:1" />
      <path
         sodipodi:nodetypes="sssscscscs"
         inkscape:connector-curvature="0"
         id="path961"
         d="m 119.78686,170.68953 c -0.56964,0.98868 0.0501,3.19053 -0.0167,3.54132 -0.0668,0.35079 -1.05237,0.88533 -1.48668,1.43657 -0.43432,0.55124 -0.76841,1.97111 -0.43432,2.65599 0.33409,0.68488 1.45328,1.30294 2.35531,0.71829 0.90204,-0.58465 0.91874,-1.72055 0.7517,-2.72281 -0.16704,-1.00226 0.11693,-1.98782 0.43432,-2.48895 0.31738,-0.50113 0.90203,-2.03793 1.01896,-2.3219 0.11693,-0.28397 0.35079,-0.93544 -0.58465,-1.31964 -1.5189,-0.56614 -1.56128,-0.32617 -2.03794,0.50113 z"
         style="fill:#4d4d4d;fill-rule:evenodd;stroke:none;stroke-width:0.26458332px;stroke-linecap:butt;stroke-linejoin:miter;stroke-opacity:1" />
      <path
         style="fill:#4d4d4d;fill-rule:evenodd;stroke:none;stroke-width:0.26458332px;stroke-linecap:butt;stroke-linejoin:miter;stroke-opacity:1"
         d="m 105.33876,161.52806 c -0.28203,0.0103 -0.47393,0.22667 -0.60787,0.39153 -0.2143,0.26375 -2.17588,2.81895 -2.57151,3.92341 -0.39562,1.10447 -0.60991,1.96161 -0.9396,1.89567 -0.3297,-0.066 -0.46159,-0.75828 -0.21431,-1.43415 0.24726,-0.67586 -0.51106,-1.48364 -2.077093,-1.58254 -1.566033,-0.099 -2.670462,0.59349 -2.604521,1.35178 0.06593,0.75829 0.609933,0.64281 0.329693,1.6319 -0.280236,0.98907 -0.428696,3.65964 0.923038,4.48386 1.351735,0.82423 2.884873,1.43412 4.863033,-0.1484 1.97815,-1.58252 2.09351,-3.65954 2.20891,-4.30245 0.1154,-0.6429 0.72533,-3.00024 1.69793,-4.26955 0.85719,-1.0715 -0.0329,-1.35167 -0.39561,-1.68137 -0.24109,-0.19781 -0.44286,-0.26587 -0.61209,-0.25969 z m -6.626353,4.01394 c 0.695182,-0.011 1.437843,0.1832 1.435803,0.57294 -0.003,0.56878 -2.612319,0.58593 -2.62109,-0.0578 -0.0045,-0.33602 0.57189,-0.50548 1.185287,-0.51519 z"
         id="path899-3"
         inkscape:connector-curvature="0" />
    </g>
    <path
       style="fill:#4d4d4d;fill-opacity:1;fill-rule:evenodd;stroke:none;stroke-width:0.26458332px;stroke-linecap:butt;stroke-linejoin:miter;stroke-opacity:1"
       d="m 109.80495,137.14265 c -3.28186,4.16295 29.65472,18.46932 29.93226,13.03147 0.0751,-1.47286 -2.0293,-6.80485 -3.25412,-6.96192 -1.3485,-0.17289 -6.19467,-1.39288 -8.95617,-2.96178 2.4572,0.82307 8.71958,2.6241 9.08838,1.77557 -0.12608,-2.64738 -2.07231,-5.08974 -2.59637,-5.03636 -2.79712,0.53503 -4.89457,-1.61504 -4.89457,-1.61504 0.71686,0.46305 4.62806,1.29289 4.70942,0.44606 0.0681,-1.85203 -2.41182,-4.04636 -2.96966,-4.82006 -0.55784,-0.77371 -0.46467,-1.8082 -0.17126,-2.59207 0.2934,-0.78388 -2.27455,0.20497 -2.86099,0.93756 -0.25685,0.25349 -0.97402,1.17187 0.50424,2.91466 -1.60094,-0.0114 -3.02557,-0.71396 -3.57345,-1.14547 -0.23967,-0.24626 -2.76438,0.59294 -4.27879,1.30243 -0.62598,0.2788 3.79,3.05653 3.79,3.05653 -0.94985,0.0329 -3.48977,-1.23584 -4.2384,-1.87036 -1.16792,-0.93369 -4.57287,0.89046 -6.03499,1.69856 -1.51043,0.35538 7.40854,5.23306 9.8669,5.9499 -1.90237,-0.11451 -8.96501,-3.47678 -10.30428,-4.83052 -1.02105,-0.74563 -2.68518,0.041 -3.75815,0.72084 z"
       id="path952"
       inkscape:connector-curvature="0"
       sodipodi:nodetypes="cssccccccsccccccccccc" />
    <g
       id="g1001"
       transform="matrix(0.53994138,0,0,0.53994138,13.44832,146.09126)"
       style="fill:#ff0000;stroke-width:1.85205293">
      <g
         style="fill:#ff0000;stroke-width:0.99213517"
         transform="matrix(1.8667342,0,0,1.8667342,-171.93129,-272.99479)"
         id="g994">
        <path
           sodipodi:nodetypes="cccccsccccccccccccscccccsccccccccccscccccccccccccccssssccscscsccsscccsscccscccc"
           inkscape:connector-curvature="0"
           id="path988"
           d="m 110.80805,141.98141 c 0.0354,0.81501 0.0591,2.53238 0.0236,2.76861 -0.0354,0.23624 -0.4016,1.06306 -0.36616,1.44104 0.0354,0.37797 0.62602,1.09849 0.54334,1.53553 -0.0827,0.43703 -0.83864,1.70089 -1.12212,2.27967 -0.28348,0.57877 -0.27167,1.67727 -0.48428,2.24423 -0.21261,0.56696 -0.90951,1.81901 -0.83864,2.24423 0.0709,0.42523 0.31892,0.70871 1.14574,0.53153 0.82683,-0.17718 1.52372,-0.34254 1.54734,0.53153 0.0236,0.87407 0.35436,1.81901 -0.18899,2.008 -0.54334,0.18899 -1.22842,0.24805 -2.05524,0.77958 -0.82682,0.53152 -2.94113,1.86625 -3.37816,2.58677 0.62602,0.12993 1.07487,0.63783 1.38197,0.98038 0.44885,-0.48429 0.98038,-1.52372 1.68908,-2.03163 0.70871,-0.5079 1.48829,-1.004 1.7009,-1.09849 0.21261,-0.0945 0.42522,-0.17718 0.61421,-0.0827 0.18899,0.0945 0.21261,0.37798 0.34254,0.48428 0.12993,0.10631 0.49609,0.31892 0.59059,0.41341 0.0945,0.0945 0.38978,1.2993 -0.17718,2.6104 -0.56696,1.3111 -0.33073,2.62221 1.06306,2.65765 1.39379,0.0354 2.10249,-0.0945 3.03562,-0.34255 0.93313,-0.24804 2.05524,-0.21261 2.39779,-0.0118 0.34254,0.2008 0.76776,1.37017 1.06305,2.16155 0.2953,0.79139 0.81502,2.36235 1.51191,2.35054 0.0354,-0.86226 0,-2.75213 0,-3.04743 0,-0.29529 0.0473,-0.59059 0.69689,-0.8032 0.64965,-0.21261 4.84014,-1.81623 5.67536,-2.40088 0.83521,-0.58465 3.26614,-1.80411 4.27014,-2.83173 0.22443,0 0.28348,-0.0236 0.29529,-0.0236 -0.66145,1.65365 -1.54733,2.83482 -2.35054,3.49628 -0.80319,0.66146 -3.33091,2.52772 -6.44921,3.37817 -0.0827,0.2008 -0.0118,0.2008 -0.0118,0.2008 0.3071,0.0827 1.22264,0.24016 1.37298,0.27775 0.15034,0.0376 0.14616,0.32991 -0.14616,0.58882 -0.29233,0.25892 -1.03985,1.23613 -1.19854,1.46163 -0.15869,0.22551 -0.1921,0.64312 0.45937,0.25892 0.65147,-0.3842 2.48059,-1.52844 2.83974,-1.69549 0.35914,-0.16704 0.68487,-0.0919 0.35914,0.40091 -0.32573,0.49277 -2.59753,4.42665 -2.99843,5.34539 -0.4009,0.91873 -2.19662,5.48737 -2.28014,5.73794 -0.0418,0.10858 -0.008,0.23465 -0.0395,0.26713 -0.031,0.0325 -0.13141,0.0753 -0.13436,0.17127 -0.003,0.096 -0.006,0.15356 -0.0413,0.16685 -0.0354,0.0133 -0.13289,0.10335 -0.13141,-0.0679 0.002,-0.17127 -0.023,-0.58118 -0.37798,-0.27424 -0.35497,0.30694 -0.70785,0.80181 -1.21733,0.7684 -0.50948,-0.0334 -1.4324,-1.01061 -1.63703,-1.03567 -0.20463,-0.025 -0.12528,0.61389 -0.22551,0.72247 -0.10022,0.10857 -0.53036,0.15033 -0.52618,-0.48025 0.004,-0.63059 -0.0659,-2.18413 0.11125,-2.99914 0.17718,-0.81502 0.70871,-3.48447 1.09849,-4.38217 0.38979,-0.89769 0.64051,-1.47254 1.13393,-2.14973 0.47028,-0.64543 -1.17716,-2.71607 -1.41741,-2.89389 -0.25069,-0.18555 -1.09849,2.03163 -1.24023,2.37417 -0.14174,0.34254 -0.55515,1.15755 -0.88588,1.63002 -0.33073,0.47247 -1.75996,2.48047 -2.2088,3.55534 -0.44885,1.07487 -1.74814,5.62239 -1.98438,6.75632 -0.23623,1.13393 -1.88988,8.15011 -2.03162,8.65802 -0.14174,0.50791 -0.3071,0.86226 0.53153,0.96856 0.83864,0.10631 1.12212,0.11812 1.81901,0.37798 0.69689,0.25986 2.6104,0.99219 3.93331,1.1103 1.32292,0.11812 5.10268,-0.11811 7.32329,-0.69689 2.22061,-0.57878 6.04762,-1.98437 7.51228,-3.75614 1.46466,-1.77176 2.83482,-4.74832 3.59077,-5.76413 1.11033,-1.58281 2.26788,-3.02385 3.23644,-3.92154 0.96857,-0.8977 4.39398,-3.2128 6.61459,-3.68527 2.22061,-0.47247 1.63002,-2.17336 1.27567,-3.07106 -0.35436,-0.89769 -1.2969,-2.16263 -1.48065,-2.4466 -0.18374,-0.28398 -0.4176,-0.66818 -0.50113,-1.37811 -0.0835,-0.70994 -0.52618,-1.5201 -1.10248,-2.29685 -0.5763,-0.77675 -1.97947,-2.62258 -2.4806,-3.77518 -0.50113,-1.1526 -0.83522,-1.98782 -1.48669,-2.03793 -0.65146,-0.0501 -0.93544,0.25056 -1.31964,0.60136 -0.33409,-0.88533 -0.95215,-2.57247 -1.25282,-2.97338 -0.30068,-0.4009 -1.23613,-0.28397 -1.26953,-0.85192 -0.0334,-0.56795 -0.0668,-1.67043 0.36749,-2.18827 0.43431,-0.51783 0.94737,-0.94737 0.94737,-0.94737 l -11.18639,-9.10902 z"
           style="fill:#ff0000;fill-rule:evenodd;stroke:none;stroke-width:0.09921356;stroke-linecap:butt;stroke-linejoin:miter;stroke-miterlimit:4;stroke-dasharray:none;stroke-opacity:1" />
        <path
           sodipodi:nodetypes="sssscscscs"
           inkscape:connector-curvature="0"
           id="path990"
           d="m 119.78686,170.68953 c -0.56964,0.98868 0.0501,3.19053 -0.0167,3.54132 -0.0668,0.35079 -1.05237,0.88533 -1.48668,1.43657 -0.43432,0.55124 -0.76841,1.97111 -0.43432,2.65599 0.33409,0.68488 1.45328,1.30294 2.35531,0.71829 0.90204,-0.58465 0.91874,-1.72055 0.7517,-2.72281 -0.16704,-1.00226 0.11693,-1.98782 0.43432,-2.48895 0.31738,-0.50113 0.90203,-2.03793 1.01896,-2.3219 0.11693,-0.28397 0.35079,-0.93544 -0.58465,-1.31964 -1.5189,-0.56614 -1.56128,-0.32617 -2.03794,0.50113 z"
           style="fill:#ff0000;fill-rule:evenodd;stroke:none;stroke-width:0.26250243px;stroke-linecap:butt;stroke-linejoin:miter;stroke-opacity:1" />
        <path
           style="fill:#ff0000;fill-rule:evenodd;stroke:none;stroke-width:0.26250243px;stroke-linecap:butt;stroke-linejoin:miter;stroke-opacity:1"
           d="m 105.33876,161.52806 c -0.28203,0.0103 -0.47393,0.22667 -0.60787,0.39153 -0.2143,0.26375 -2.17588,2.81895 -2.57151,3.92341 -0.39562,1.10447 -0.60991,1.96161 -0.9396,1.89567 -0.3297,-0.066 -0.46159,-0.75828 -0.21431,-1.43415 0.24726,-0.67586 -0.51106,-1.48364 -2.077093,-1.58254 -1.566033,-0.099 -2.670462,0.59349 -2.604521,1.35178 0.06593,0.75829 0.609933,0.64281 0.329693,1.6319 -0.280236,0.98907 -0.428696,3.65964 0.923038,4.48386 1.351735,0.82423 2.884873,1.43412 4.863033,-0.1484 1.97815,-1.58252 2.09351,-3.65954 2.20891,-4.30245 0.1154,-0.6429 0.72533,-3.00024 1.69793,-4.26955 0.85719,-1.0715 -0.0329,-1.35167 -0.39561,-1.68137 -0.24109,-0.19781 -0.44286,-0.26587 -0.61209,-0.25969 z m -6.626353,4.01394 c 0.695182,-0.011 1.437843,0.1832 1.435803,0.57294 -0.003,0.56878 -2.612319,0.58593 -2.62109,-0.0578 -0.0045,-0.33602 0.57189,-0.50548 1.185287,-0.51519 z"
           id="path992"
           inkscape:connector-curvature="0" />
      </g>
      <path
         inkscape:transform-center-y="1.2008776"
         inkscape:transform-center-x="-33.044867"
         style="fill:#ff0000;fill-rule:evenodd;stroke:none;stroke-width:0.49002236px;stroke-linecap:butt;stroke-linejoin:miter;stroke-opacity:1"
         d="m 66.216165,-34.100976 c -0.791296,-0.0078 -1.940681,0.338459 -2.284511,1.725834 -8.820238,-0.597094 -14.22216,1.688774 -17.482279,2.662595 -3.26013,0.973832 -5.588313,4.034428 -6.024627,5.533042 -0.436308,1.498602 -4.895105,5.621335 -5.438995,6.229044 -0.543876,0.607703 -1.108884,0.715761 -1.067269,2.258384 0.04164,1.542624 1.475796,1.348666 -4.110786,3.775391 -5.586579,2.4267388 -6.661697,3.2734475 -5.06704,3.9916896 2.127931,0.9587869 7.951478,0.270232 10.058781,0.4030931 16.61138,7.39799189 32.172338,13.5812143 47.427354,22.0095903 0.859662,0.554077 3.192043,2.861239 5.55644,4.123831 2.364385,1.262558 2.12065,-0.396964 1.600145,-1.933875 -0.520521,-1.5369 -2.296935,-6.240051 -3.216485,-8.115435 -0.919552,-1.8753547 -0.704171,-2.2438145 0.06554,-3.5948382 0.769765,-1.3510231 0.342653,-3.9324593 0.313132,-4.9464377 -0.02956,-1.01398274 0.0339,-2.7653795 0.743546,-5.1918814 0.70957,-2.4264991 0.200955,-5.5692357 0.0072,-7.1772327 -0.193618,-1.607991 -3.836582,-7.695622 -5.33362,-9.457245 -1.497036,-1.761624 -4.80043,-3.859899 -5.930869,-4.785616 0.651684,0.08759 1.829922,0.239911 4.370868,1.133716 2.540935,0.893795 3.454911,-0.19138 3.564835,-1.277572 0.109882,-1.086187 -0.06315,-1.868689 -1.387716,-2.456863 -1.324672,-0.588068 -6.626349,-0.116444 -7.017467,-0.07356 -0.391133,0.04302 -2.738388,0.62682 -2.866015,-1.676345 -0.127569,-2.303158 -1.388049,-1.978898 -3.365119,-2.002974 -1.97709,-0.02408 -2.041258,-1.023465 -2.801528,-1.133045 -0.09499,-0.01378 -0.200618,-0.02223 -0.313654,-0.02333 z m 13.069929,5.925478 c 0.223237,0.0043 0.448697,0.01464 0.679129,0.02842 1.419077,0.08441 2.688514,-0.01226 2.671764,1.170606 -0.01675,1.182924 -2.834497,0.188745 -5.360378,-0.93574 0.691598,-0.223874 1.339791,-0.274893 2.009507,-0.263285 z"
         id="path845"
         inkscape:connector-curvature="0"
         sodipodi:nodetypes="ccsscsssccscscccsccscscssccccccc" />
    </g>
  </g>
</svg>
