<?xml version="1.0" encoding="UTF-8" standalone="no"?>
<!-- Created with Inkscape (http://www.inkscape.org/) -->

<svg
   xmlns:dc="http://purl.org/dc/elements/1.1/"
   xmlns:cc="http://creativecommons.org/ns#"
   xmlns:rdf="http://www.w3.org/1999/02/22-rdf-syntax-ns#"
   xmlns:svg="http://www.w3.org/2000/svg"
   xmlns="http://www.w3.org/2000/svg"
   xmlns:sodipodi="http://sodipodi.sourceforge.net/DTD/sodipodi-0.dtd"
   xmlns:inkscape="http://www.inkscape.org/namespaces/inkscape"
   width="100mm"
   height="100mm"
   viewBox="0 0 100 100"
   version="1.1"
   id="svg914"
   inkscape:version="0.92.2 5c3e80d, 2017-08-06"
   sodipodi:docname="no_shit_sherlock.svg"
   inkscape:export-filename="/home/onur/Dropbox/design/d00018-shitty_logos/no_shit_sherlock.png"
   inkscape:export-xdpi="157.87"
   inkscape:export-ydpi="157.87">
  <defs
     id="defs908" />
  <sodipodi:namedview
     id="base"
     pagecolor="#ffffff"
     bordercolor="#666666"
     borderopacity="1.0"
     inkscape:pageopacity="0.0"
     inkscape:pageshadow="2"
     inkscape:zoom="0.98994949"
     inkscape:cx="-147.69952"
     inkscape:cy="131.7876"
     inkscape:document-units="mm"
     inkscape:current-layer="text830"
     showgrid="false"
     inkscape:window-width="1920"
     inkscape:window-height="1036"
     inkscape:window-x="0"
     inkscape:window-y="20"
     inkscape:window-maximized="0"
     inkscape:snap-global="false"
     fit-margin-top="0"
     fit-margin-left="0"
     fit-margin-right="0"
     fit-margin-bottom="0" />
  <metadata
     id="metadata911">
    <rdf:RDF>
      <cc:Work
         rdf:about="">
        <dc:format>image/svg+xml</dc:format>
        <dc:type
           rdf:resource="http://purl.org/dc/dcmitype/StillImage" />
        <dc:title />
      </cc:Work>
    </rdf:RDF>
  </metadata>
  <g
     inkscape:label="Layer 1"
     inkscape:groupmode="layer"
     id="layer1"
     transform="translate(-73.766388,-121.13665)">
    <rect
       style="fill:#f9f9f9;fill-opacity:1;stroke:none;stroke-width:1.06500006;stroke-linecap:round;stroke-linejoin:round;stroke-miterlimit:4;stroke-dasharray:none;stroke-dashoffset:0;stroke-opacity:1;paint-order:stroke fill markers"
       id="rect834"
       width="100"
       height="100"
       x="73.766388"
       y="121.13665" />
    <g
       id="g826"
       transform="matrix(0.35553815,0,0,0.35553815,-63.904293,141.27052)"
       style="stroke-width:2.81263781">
      <path
         sodipodi:nodetypes="ccccc"
         inkscape:connector-curvature="0"
         id="path1504"
         d="m -180.87465,22.581012 c -0.60135,-2.004521 -8.68626,-0.200453 -17.23888,12.227581 -1.06908,-1.804069 -3.67496,-3.407687 -5.54585,-3.674956 1.87089,-4.34313 17.97388,-14.165285 23.38609,-14.03165 6.74855,1.403165 -0.60136,5.479025 -0.60136,5.479025 z"
         style="fill:none;fill-rule:evenodd;stroke:#000000;stroke-width:0.74417704px;stroke-linecap:butt;stroke-linejoin:miter;stroke-opacity:1" />
      <path
         id="path819"
         transform="scale(0.26458333)"
         d="m -775.32422,126.82422 c -4.32077,0.15783 -7.26064,3.47266 -9.3125,5.99805 -3.28301,4.04061 -33.33364,43.18542 -39.39453,60.10546 -6.06093,16.92006 -9.3438,30.05117 -14.39453,29.04102 -5.05077,-1.01016 -7.07127,-11.61664 -3.2832,-21.9707 3.78806,-10.35407 -7.8292,-22.72892 -31.82032,-24.24414 -23.99111,-1.51524 -40.91058,9.09223 -39.90039,20.70898 1.01012,11.61676 9.34395,9.84771 5.05078,25 -4.29312,15.15229 -6.56748,56.06451 14.14063,68.69141 20.70814,12.62691 44.19541,21.97022 74.5,-2.27344 30.30455,-24.24366 32.07208,-56.06313 33.83984,-65.91211 1.76776,-9.84899 11.11199,-45.96276 26.01172,-65.4082 13.13201,-16.41498 -0.50468,-20.70706 -6.06055,-25.75782 -3.69335,-3.03045 -6.78449,-4.07321 -9.37695,-3.97851 z m -101.51367,61.49219 c 10.64996,-0.16881 22.02724,2.80656 21.99609,8.77734 -0.0453,8.71336 -40.01993,8.97624 -40.15429,-0.88477 -0.0702,-5.14772 8.76117,-7.74362 18.1582,-7.89257 z"
         style="fill:none;fill-rule:evenodd;stroke:#000000;stroke-width:2.81263757px;stroke-linecap:butt;stroke-linejoin:miter;stroke-opacity:1"
         inkscape:connector-curvature="0" />
    </g>
    <text
       xml:space="preserve"
       style="font-style:normal;font-weight:normal;font-size:7.78739882px;line-height:12.16781044px;font-family:sans-serif;text-align:center;letter-spacing:0px;word-spacing:0px;text-anchor:middle;fill:#4d4d4d;fill-opacity:1;stroke:none;stroke-width:0.26458332px;stroke-linecap:butt;stroke-linejoin:miter;stroke-opacity:1"
       x="3.4236751"
       y="201.26347"
       id="text845"><tspan
         sodipodi:role="line"
         id="tspan843"
         x="4.6100383"
         y="201.26347"
         style="font-style:normal;font-variant:normal;font-weight:bold;font-stretch:normal;font-family:'Bodoni Std';-inkscape-font-specification:'Bodoni Std Bold';fill:#4d4d4d;stroke-width:0.26458332px">NO SHIT, </tspan><tspan
         sodipodi:role="line"
         x="3.4236751"
         y="213.91228"
         style="font-style:normal;font-variant:normal;font-weight:bold;font-stretch:normal;font-family:'Bodoni Std';-inkscape-font-specification:'Bodoni Std Bold';fill:#4d4d4d;stroke-width:0.26458332px"
         id="tspan824">SHERLOCK</tspan></text>
    <g
       id="g906"
       transform="translate(0.86656186,-2.7755927)">
      <g
         style="fill:#4d4d4d;stroke-width:1.16475737"
         transform="matrix(0.85854799,0,0,0.85854799,148.76427,26.485588)"
         id="g841">
        <path
           style="fill:#4d4d4d;fill-rule:evenodd;stroke:none;stroke-width:0.30817533px;stroke-linecap:butt;stroke-linejoin:miter;stroke-opacity:1"
           d="m -13.813213,125.43022 c -0.67409,-0.006 -1.65284,0.29028 -1.94433,1.47247 -7.51418,-0.49971 -12.11352,1.45298 -14.88969,2.28583 -2.77617,0.83286 -4.75636,3.4424 -5.12652,4.71944 -0.37016,1.27704 -4.16423,4.79353 -4.62693,5.31175 -0.46269,0.51822 -0.94389,0.61084 -0.90688,1.9249 0.037,1.31405 1.25853,1.14737 -3.49798,3.22024 -4.75651,2.07288 -5.6715,2.79524 -4.31235,3.40547 1.81377,0.81434 6.77378,0.22215 8.56903,0.3332 14.15799,6.28521 27.41993,11.5367 40.42352084,18.70103 0.73287,0.47113 2.72205296,2.43415 4.73744896,3.50729 2.0154,1.07313 1.806095,-0.34029 1.361136,-1.64899 -0.444956,-1.3087 -1.962959,-5.31331 -2.748179,-6.90993 -0.78522,-1.59661 -0.602121,-1.91069 0.05223,-3.06235 0.654354,-1.15165 0.287908,-3.35023 0.26174,-4.21397 -0.02617,-0.86374 0.02613,-2.35574 0.62814,-4.42348 0.60199,-2.06775 0.165557,-4.7444 -0.0011,-6.11398 -0.16657,-1.36958 -3.27599596,-6.55168 -4.55303996,-8.05081 -1.27703604,-1.49914 -4.09317504,-3.28322 -5.05708904,-4.07065 0.555233,0.074 1.559077,0.20251 3.724497,0.96133 2.16541504,0.75882 2.942889,-0.16651 3.035428,-1.0919 0.09254,-0.92539 -0.05564,-1.59179 -1.18461796,-2.0915 -1.128975,-0.49971 -5.64480104,-0.0925 -5.97794004,-0.0555 -0.333143,0.037 -2.332075,0.53673 -2.443125,-1.4251 -0.11104,-1.96183 -1.18441,-1.68433 -2.8686198,-1.70284 -1.68421,-0.0185 -1.73988,-0.86981 -2.38765,-0.96235 -0.081,-0.0116 -0.17091,-0.0187 -0.26721,-0.0196 z m 11.1396898,5.03442 c 0.19017,0.003 0.382235,0.012 0.578542,0.0235 1.20893304,0.0705 2.29021304,-0.0132 2.27712604,0.99453 -0.01308,1.0077 -2.41439604,0.16365 -4.56720804,-0.7917 0.588914,-0.1914 1.141025,-0.23552 1.71154,-0.22631 z"
           id="path1472"
           inkscape:connector-curvature="0"
           sodipodi:nodetypes="ccsscsssccscscccsccscscssccccccc" />
        <path
           style="fill:#4d4d4d;fill-rule:evenodd;stroke:none;stroke-width:0.30817533px;stroke-linecap:butt;stroke-linejoin:miter;stroke-opacity:1"
           d="m -50.290863,173.31818 c -2.5727,11.36196 54.1109128,11.4678 52.3449728,0 -1.53295296,-2.74353 -5.990413,-12.46392 -7.814718,-13.18755 -5.4851348,4.07092 -10.4348848,4.03621 -16.3430048,3.86402 0,0 14.4804898,-2.36073 14.5568988,-4.41171 -1.667169,-5.27198 -5.9364688,-8.52044 -6.6888288,-7.94933 -3.87599,3.55696 -8.20771,1.0363 -8.20771,1.0363 1.32863,0.30882 7.62993,-1.45613 7.27828,-3.24993 -0.93308,-3.82605 -5.86032,-6.09911 -7.12517,-7.17999 -1.26485,-1.08091 -1.58697,-5.09563 -1.58697,-6.94858 0,-1.85293 -3.39714,4.25344 -3.86315,6.26079 -0.24175,0.74214 -0.79911,3.24267 2.38091,5.48165 -2.39591,1.38972 -4.9147,1.21887 -5.97352,0.82501 -0.49528,-0.28922 -3.79474,3.64584 -5.65872,6.42526 -0.77857,1.1195 7.36435,2.86989 7.36435,2.86989 -1.39934,0.90516 -5.89909,0.56737 -7.37094,-0.0621 -2.26483,-0.8677 -6.32782,5.8471 -8.05866,8.78095 -2.05586,2.05586 14.25634,4.5419 18.0509,3.38931 -2.46313,2.16177 -15.32315,0.84354 -18.07838,-0.72706 -1.94053,-0.61491 -3.98485,2.45362 -5.20654,4.78308 z"
           id="path962"
           inkscape:connector-curvature="0"
           sodipodi:nodetypes="ccccccccccccccccccccc" />
        <g
           id="g832"
           transform="matrix(0.41733939,0,0,0.41733939,32.005787,157.44293)"
           style="fill:#4d4d4d;stroke-width:2.79091167">
          <path
             style="fill:#4d4d4d;fill-rule:evenodd;stroke:none;stroke-width:0.73842859px;stroke-linecap:butt;stroke-linejoin:miter;stroke-opacity:1"
             d="m -180.87465,22.581012 c -0.60135,-2.004521 -8.68626,-0.200453 -17.23888,12.227581 -1.06908,-1.804069 -3.67496,-3.407687 -5.54585,-3.674956 1.87089,-4.34313 17.97388,-14.165285 23.38609,-14.03165 6.74855,1.403165 -0.60136,5.479025 -0.60136,5.479025 z"
             id="path828"
             inkscape:connector-curvature="0"
             sodipodi:nodetypes="ccccc" />
          <path
             style="fill:#4d4d4d;fill-rule:evenodd;stroke:none;stroke-width:2.79091144px;stroke-linecap:butt;stroke-linejoin:miter;stroke-opacity:1"
             d="m -775.32422,126.82422 c -4.32077,0.15783 -7.26064,3.47266 -9.3125,5.99805 -3.28301,4.04061 -33.33364,43.18542 -39.39453,60.10546 -6.06093,16.92006 -9.3438,30.05117 -14.39453,29.04102 -5.05077,-1.01016 -7.07127,-11.61664 -3.2832,-21.9707 3.78806,-10.35407 -7.8292,-22.72892 -31.82032,-24.24414 -23.99111,-1.51524 -40.91058,9.09223 -39.90039,20.70898 1.01012,11.61676 9.34395,9.84771 5.05078,25 -4.29312,15.15229 -6.56748,56.06451 14.14063,68.69141 20.70814,12.62691 44.19541,21.97022 74.5,-2.27344 30.30455,-24.24366 32.07208,-56.06313 33.83984,-65.91211 1.76776,-9.84899 11.11199,-45.96276 26.01172,-65.4082 13.13201,-16.41498 -0.50468,-20.70706 -6.06055,-25.75782 -3.69335,-3.03045 -6.78449,-4.07321 -9.37695,-3.97851 z m -101.51367,61.49219 c 10.64996,-0.16881 22.02724,2.80656 21.99609,8.77734 -0.0453,8.71336 -40.01993,8.97624 -40.15429,-0.88477 -0.0702,-5.14772 8.76117,-7.74362 18.1582,-7.89257 z"
             transform="scale(0.26458333)"
             id="path830"
             inkscape:connector-curvature="0" />
        </g>
      </g>
      <g
         transform="matrix(1.5115414,0,0,1.5115414,-32.204264,-109.86272)"
         id="text830"
         style="font-style:normal;font-weight:normal;font-size:7.78739882px;line-height:12.16781044px;font-family:sans-serif;text-align:center;letter-spacing:0px;word-spacing:0px;text-anchor:middle;fill:#4d4d4d;fill-opacity:1;stroke:none;stroke-width:0.17504206px;stroke-linecap:butt;stroke-linejoin:miter;stroke-opacity:1"
         aria-label="NO SHIT, 
SHERLOCK">
        <g
           style="stroke-width:0.17504206px"
           transform="translate(0,5.1971726)"
           id="g880">
          <path
             inkscape:connector-curvature="0"
             d="m 90.453486,196.52095 c 0,-0.15575 0.124599,-0.22584 0.350433,-0.22584 h 0.327071 v -0.23362 h -1.643141 v 0.23362 h 0.218047 c 0.194685,0 0.513968,0.0701 0.513968,0.22584 v 2.62435 l -2.188259,-3.08381 h -2.055873 v 0.23362 h 0.256984 c 0.467244,0 0.397157,0.10124 0.397157,0.48282 v 3.84698 c 0,0.22583 -0.01557,0.38937 -0.280346,0.40494 h -0.373795 v 0.23362 h 1.713228 v -0.23362 h -0.443882 c -0.194685,-0.0156 -0.303709,-0.0935 -0.303709,-0.28813 v -3.99494 l 3.333007,4.6335 h 0.17911 z"
             style="font-style:normal;font-variant:normal;font-weight:bold;font-stretch:normal;font-family:'Bodoni Std';-inkscape-font-specification:'Bodoni Std Bold';fill:#4d4d4d;stroke-width:0.17504206px"
             id="path832" />
          <path
             inkscape:connector-curvature="0"
             d="m 93.277635,197.9071 c 0,-1.4173 0.264772,-1.7288 1.121386,-1.7288 0.856613,0 1.129172,0.3115 1.129172,1.7288 v 1.30829 c 0,1.61978 -0.0623,1.93127 -1.129172,1.93127 -1.066874,0 -1.121386,-0.31149 -1.121386,-1.93127 z m 1.121386,-1.96242 c -1.012362,0 -2.663291,0.89555 -2.663291,2.66329 0,1.53412 1.144748,2.77231 2.663291,2.77231 1.52633,0 2.671077,-1.23819 2.671077,-2.77231 0,-1.76774 -1.650928,-2.66329 -2.671077,-2.66329 z"
             style="font-style:normal;font-variant:normal;font-weight:bold;font-stretch:normal;font-family:'Bodoni Std';-inkscape-font-specification:'Bodoni Std Bold';fill:#4d4d4d;stroke-width:0.17504206px"
             id="path834" />
          <path
             inkscape:connector-curvature="0"
             d="m 102.87974,196.28733 c -0.31928,-0.19469 -0.6775,-0.34265 -1.0513,-0.34265 -0.88776,0 -1.63535,0.66972 -1.63535,1.55748 0,1.1759 0.75538,1.48739 1.51075,1.68208 0.74759,0.19468 1.50297,0.24919 1.50297,0.91891 0,0.49061 -0.37379,1.04351 -1.23819,1.04351 -0.78653,0 -1.3005,-0.63078 -1.51076,-1.34722 h -0.28035 v 1.51076 h 0.28035 l 0.39716,-0.29592 c 0.32707,0.24919 0.66971,0.366 1.07466,0.366 1.26934,0 1.82225,-0.94227 1.82225,-1.8534 0,-0.90333 -0.38158,-1.31607 -0.84883,-1.51854 -0.35822,-0.15575 -1.01236,-0.3115 -1.40952,-0.39716 -0.38158,-0.0857 -0.70865,-0.21026 -0.70865,-0.66971 0,-0.51397 0.59963,-0.76317 1.02794,-0.76317 0.6775,0 1.23041,0.62299 1.34722,1.26156 h 0.24919 v -1.37837 h -0.2414 z"
             style="font-style:normal;font-variant:normal;font-weight:bold;font-stretch:normal;font-family:'Bodoni Std';-inkscape-font-specification:'Bodoni Std Bold';fill:#4d4d4d;stroke-width:0.17504206px"
             id="path836" />
          <path
             inkscape:connector-curvature="0"
             d="m 106.91081,201.26347 v -0.23362 h -0.64635 v -2.31286 h 1.71323 v 2.31286 h -0.63857 v 0.23362 h 2.59321 v -0.23362 h -0.64636 v -4.73474 h 0.64636 v -0.23362 h -2.59321 v 0.23362 h 0.63857 v 2.18826 h -1.71323 v -2.18826 h 0.63857 v -0.23362 h -2.51533 v 0.23362 h 0.56848 v 4.73474 h -0.56848 v 0.23362 z"
             style="font-style:normal;font-variant:normal;font-weight:bold;font-stretch:normal;font-family:'Bodoni Std';-inkscape-font-specification:'Bodoni Std Bold';fill:#4d4d4d;stroke-width:0.17504206px"
             id="path838" />
          <path
             inkscape:connector-curvature="0"
             d="m 112.97209,201.26347 v -0.23362 h -0.65414 v -4.73474 h 0.65414 v -0.23362 h -2.53869 v 0.23362 h 0.57626 v 4.73474 h -0.57626 v 0.23362 z"
             style="font-style:normal;font-variant:normal;font-weight:bold;font-stretch:normal;font-family:'Bodoni Std';-inkscape-font-specification:'Bodoni Std Bold';fill:#4d4d4d;stroke-width:0.17504206px"
             id="path840" />
          <path
             inkscape:connector-curvature="0"
             d="m 113.36669,197.75136 h 0.21026 c 0.25699,-0.94228 0.51397,-1.53412 1.58084,-1.45625 v 4.73474 h -0.63856 v 0.23362 h 2.58541 v -0.23362 h -0.63856 v -4.73474 c 1.06687,-0.0779 1.32385,0.51397 1.58084,1.45625 h 0.21026 l -0.0779,-1.68987 h -4.73473 z"
             style="font-style:normal;font-variant:normal;font-weight:bold;font-stretch:normal;font-family:'Bodoni Std';-inkscape-font-specification:'Bodoni Std Bold';fill:#4d4d4d;stroke-width:0.17504206px"
             id="path842" />
          <path
             inkscape:connector-curvature="0"
             d="m 118.66346,202.69635 c 0.58406,-0.26477 1.10581,-0.85661 1.10581,-1.52633 0,-0.50618 -0.31149,-1.01236 -0.87219,-1.01236 -0.37379,0 -0.66971,0.30371 -0.66971,0.67751 0,0.28813 0.22583,0.54511 0.52175,0.54511 0.27256,0 0.50618,-0.14796 0.55291,-0.42052 0.0779,0.10903 0.0935,0.26478 0.0935,0.39716 0,0.49061 -0.35822,0.9267 -0.77874,1.13696 z"
             style="font-style:normal;font-variant:normal;font-weight:bold;font-stretch:normal;font-family:'Bodoni Std';-inkscape-font-specification:'Bodoni Std Bold';fill:#4d4d4d;stroke-width:0.17504206px"
             id="path844" />
        </g>
        <g
           style="stroke-width:0.17504206px"
           id="g871">
          <path
             inkscape:connector-curvature="0"
             d="m 84.460718,208.93613 c -0.319284,-0.19469 -0.677504,-0.34265 -1.051299,-0.34265 -0.887764,0 -1.635354,0.66972 -1.635354,1.55748 0,1.1759 0.755378,1.4874 1.510756,1.68208 0.74759,0.19469 1.502967,0.2492 1.502967,0.91892 0,0.4906 -0.373795,1.04351 -1.238196,1.04351 -0.786527,0 -1.300496,-0.63078 -1.510755,-1.34722 H 81.75849 v 1.51075 h 0.280347 l 0.397157,-0.29592 c 0.327071,0.2492 0.669716,0.36601 1.074661,0.36601 1.269346,0 1.822251,-0.94228 1.822251,-1.8534 0,-0.90334 -0.381582,-1.31607 -0.848826,-1.51854 -0.35822,-0.15575 -1.012362,-0.3115 -1.409519,-0.39716 -0.381583,-0.0857 -0.708654,-0.21026 -0.708654,-0.66972 0,-0.51397 0.59963,-0.76316 1.027937,-0.76316 0.677504,0 1.230409,0.62299 1.34722,1.26155 h 0.249197 v -1.37836 h -0.24141 z"
             style="font-style:normal;font-variant:normal;font-weight:bold;font-stretch:normal;font-family:'Bodoni Std';-inkscape-font-specification:'Bodoni Std Bold';fill:#4d4d4d;stroke-width:0.17504206px"
             id="path846" />
          <path
             inkscape:connector-curvature="0"
             d="m 88.491792,213.91228 v -0.23362 h -0.646354 v -2.31286 h 1.713227 v 2.31286 h -0.638566 v 0.23362 h 2.593204 v -0.23362 h -0.646355 v -4.73474 h 0.646355 v -0.23362 h -2.593204 v 0.23362 h 0.638566 v 2.18826 h -1.713227 v -2.18826 h 0.638566 v -0.23362 h -2.515329 v 0.23362 h 0.56848 v 4.73474 h -0.56848 v 0.23362 z"
             style="font-style:normal;font-variant:normal;font-weight:bold;font-stretch:normal;font-family:'Bodoni Std';-inkscape-font-specification:'Bodoni Std Bold';fill:#4d4d4d;stroke-width:0.17504206px"
             id="path848" />
          <path
             inkscape:connector-curvature="0"
             d="m 96.601151,213.91228 0.04672,-1.70544 h -0.241409 c -0.21026,0.90334 -0.428307,1.47182 -1.635354,1.47182 h -0.763165 v -2.2895 c 0.763165,0 0.973425,0.2492 1.082449,0.99679 h 0.256984 v -2.21162 h -0.256984 c -0.155748,0.71644 -0.319284,0.94227 -1.082449,0.94227 v -2.17268 h 0.732016 c 0.77874,0 1.121385,0.28813 1.448456,1.16811 h 0.264771 l -0.04672,-1.40173 h -4.259707 v 0.23362 h 0.552905 v 4.73474 h -0.622992 v 0.23362 z"
             style="font-style:normal;font-variant:normal;font-weight:bold;font-stretch:normal;font-family:'Bodoni Std';-inkscape-font-specification:'Bodoni Std Bold';fill:#4d4d4d;stroke-width:0.17504206px"
             id="path850" />
          <path
             inkscape:connector-curvature="0"
             d="m 99.155175,208.94392 h 0.560692 c 0.903343,0 0.778743,0.25698 0.778743,0.63078 v 0.75537 c 0,0.54512 -0.22584,0.67751 -1.012365,0.67751 h -0.32707 z m 0.646354,4.96836 v -0.23362 h -0.646354 v -2.4141 h 0.334858 c 0.622987,0 0.786527,0.20247 0.802097,1.12917 0.0234,1.19926 0.34265,1.62757 1.29271,1.62757 0.28035,0 0.66193,-0.10902 0.91113,-0.24141 l -0.0467,-0.16353 c -0.38937,0.0857 -0.54511,0.0234 -0.59963,-0.0311 -0.10902,-0.11681 -0.14017,-0.39716 -0.14017,-1.04351 0,-0.74759 -0.45167,-1.1759 -1.53412,-1.37837 v -0.0156 c 0.65415,-0.0701 1.73659,-0.31928 1.73659,-1.1759 0,-0.91112 -0.81767,-1.26155 -1.59641,-1.26155 h -3.0916 v 0.23362 h 0.622992 v 4.73474 h -0.607417 v 0.23362 z"
             style="font-style:normal;font-variant:normal;font-weight:bold;font-stretch:normal;font-family:'Bodoni Std';-inkscape-font-specification:'Bodoni Std Bold';fill:#4d4d4d;stroke-width:0.17504206px"
             id="path852" />
          <path
             inkscape:connector-curvature="0"
             d="m 107.08786,213.91228 0.0779,-1.70544 h -0.21805 c -0.2414,0.7398 -0.56848,1.47182 -1.44845,1.47182 h -0.87219 v -4.73474 h 0.70087 v -0.23362 h -2.5387 v 0.23362 h 0.52955 v 4.73474 h -0.52955 v 0.23362 z"
             style="font-style:normal;font-variant:normal;font-weight:bold;font-stretch:normal;font-family:'Bodoni Std';-inkscape-font-specification:'Bodoni Std Bold';fill:#4d4d4d;stroke-width:0.17504206px"
             id="path854" />
          <path
             inkscape:connector-curvature="0"
             d="m 109.2631,210.55591 c 0,-1.41731 0.26477,-1.7288 1.12138,-1.7288 0.85662,0 1.12917,0.31149 1.12917,1.7288 v 1.30828 c 0,1.61978 -0.0623,1.93128 -1.12917,1.93128 -1.06687,0 -1.12138,-0.3115 -1.12138,-1.93128 z m 1.12138,-1.96243 c -1.01236,0 -2.66329,0.89556 -2.66329,2.66329 0,1.53412 1.14475,2.77232 2.66329,2.77232 1.52633,0 2.67108,-1.2382 2.67108,-2.77232 0,-1.76773 -1.65093,-2.66329 -2.67108,-2.66329 z"
             style="font-style:normal;font-variant:normal;font-weight:bold;font-stretch:normal;font-family:'Bodoni Std';-inkscape-font-specification:'Bodoni Std Bold';fill:#4d4d4d;stroke-width:0.17504206px"
             id="path856" />
          <path
             inkscape:connector-curvature="0"
             d="m 117.55157,209.014 c -0.3738,-0.29592 -0.79432,-0.42052 -1.26156,-0.42052 -1.41731,0 -2.46861,1.69766 -2.46861,2.67108 0,1.55748 1.16811,2.76453 2.54648,2.76453 0.44388,0 0.8644,-0.16354 1.2382,-0.40495 l 0.30371,0.28814 h 0.28034 v -1.54191 h -0.26477 c -0.2492,0.79432 -0.69308,1.4251 -1.58084,1.4251 -0.99679,0 -1.00458,-0.5607 -1.00458,-2.53091 0,-2.19604 0.2492,-2.43745 0.97343,-2.43745 0.8644,0 1.24598,0.60741 1.5419,1.33164 h 0.22584 v -1.44845 h -0.26477 z"
             style="font-style:normal;font-variant:normal;font-weight:bold;font-stretch:normal;font-family:'Bodoni Std';-inkscape-font-specification:'Bodoni Std Bold';fill:#4d4d4d;stroke-width:0.17504206px"
             id="path858" />
          <path
             inkscape:connector-curvature="0"
             d="m 122.16146,208.94392 h 0.38159 c 0.15574,0 0.3037,0.008 0.3037,0.10123 0,0.008 -0.0467,0.0779 -0.13238,0.16354 l -1.58863,1.64314 c -0.0934,0.0934 -0.23362,0.1869 -0.23362,0.31928 0,0.10124 0.0701,0.21805 0.13238,0.3115 l 1.47961,2.19605 h -0.63078 v 0.23362 h 2.74116 v -0.23362 h -0.56069 l -2.18047,-3.20841 1.35501,-1.40952 c 0.0779,-0.0857 0.14017,-0.11681 0.25698,-0.11681 h 0.56848 v -0.23362 h -1.89234 z m -0.70086,4.96836 v -0.23362 h -0.65414 v -4.73474 h 0.66971 v -0.23362 h -2.56205 v 0.23362 h 0.58405 v 4.73474 h -0.59963 v 0.23362 z"
             style="font-style:normal;font-variant:normal;font-weight:bold;font-stretch:normal;font-family:'Bodoni Std';-inkscape-font-specification:'Bodoni Std Bold';fill:#4d4d4d;stroke-width:0.17504206px"
             id="path860" />
        </g>
      </g>
    </g>
  </g>
</svg>
