<?xml version="1.0" encoding="UTF-8" standalone="no"?>
<!-- Created with Inkscape (http://www.inkscape.org/) -->

<svg
   xmlns:dc="http://purl.org/dc/elements/1.1/"
   xmlns:cc="http://creativecommons.org/ns#"
   xmlns:rdf="http://www.w3.org/1999/02/22-rdf-syntax-ns#"
   xmlns:svg="http://www.w3.org/2000/svg"
   xmlns="http://www.w3.org/2000/svg"
   xmlns:sodipodi="http://sodipodi.sourceforge.net/DTD/sodipodi-0.dtd"
   xmlns:inkscape="http://www.inkscape.org/namespaces/inkscape"
   width="100mm"
   height="100mm"
   viewBox="0 0 100 100"
   version="1.1"
   id="svg8"
   sodipodi:docname="shitbricks.svg"
   inkscape:version="0.92.2 5c3e80d, 2017-08-06"
   inkscape:export-filename="/home/onur/Dropbox/design/d00018-shitty_logos/shitbricks.png"
   inkscape:export-xdpi="157.87"
   inkscape:export-ydpi="157.87">
  <defs
     id="defs2" />
  <sodipodi:namedview
     id="base"
     pagecolor="#ffffff"
     bordercolor="#666666"
     borderopacity="1.0"
     inkscape:pageopacity="0.0"
     inkscape:pageshadow="2"
     inkscape:zoom="1.0956537"
     inkscape:cx="-197.56455"
     inkscape:cy="125.43743"
     inkscape:document-units="mm"
     inkscape:current-layer="layer1"
     showgrid="false"
     inkscape:window-width="1920"
     inkscape:window-height="1036"
     inkscape:window-x="0"
     inkscape:window-y="20"
     inkscape:window-maximized="0"
     fit-margin-top="0"
     fit-margin-left="0"
     fit-margin-right="0"
     fit-margin-bottom="0"
     inkscape:snap-global="false" />
  <metadata
     id="metadata5">
    <rdf:RDF>
      <cc:Work
         rdf:about="">
        <dc:format>image/svg+xml</dc:format>
        <dc:type
           rdf:resource="http://purl.org/dc/dcmitype/StillImage" />
        <dc:title></dc:title>
      </cc:Work>
    </rdf:RDF>
  </metadata>
  <g
     inkscape:label="Layer 1"
     inkscape:groupmode="layer"
     id="layer1"
     transform="translate(-61.337051,-100.43166)">
    <text
       xml:space="preserve"
       style="font-style:normal;font-weight:normal;font-size:16.9738102px;line-height:26.52157784px;font-family:sans-serif;text-align:center;letter-spacing:0px;word-spacing:0px;text-anchor:middle;fill:#4d4d4d;fill-opacity:1;stroke:none;stroke-width:0.26458332px;stroke-linecap:butt;stroke-linejoin:miter;stroke-opacity:1"
       x="-51.091789"
       y="190.13339"
       id="text817"><tspan
         sodipodi:role="line"
         id="tspan815"
         x="-51.304783"
         y="190.13339"
         style="font-style:normal;font-variant:normal;font-weight:bold;font-stretch:normal;font-family:Gotham;-inkscape-font-specification:'Gotham Bold';letter-spacing:-0.42597917px;fill:#4d4d4d;stroke-width:0.26458332px">SHIT BRICKS</tspan></text>
    <rect
       style="fill:#f9f9f9;fill-opacity:1;stroke:none;stroke-width:1.06500006;stroke-linecap:round;stroke-linejoin:round;stroke-miterlimit:4;stroke-dasharray:none;stroke-dashoffset:0;stroke-opacity:1;paint-order:stroke fill markers"
       id="rect1892"
       width="100"
       height="100"
       x="61.337051"
       y="100.43166" />
    <g
       aria-label="SHIT BRICKS"
       style="font-style:normal;font-weight:normal;font-size:16.9738102px;line-height:26.52157784px;font-family:sans-serif;text-align:center;letter-spacing:0px;word-spacing:0px;text-anchor:middle;fill:#4d4d4d;fill-opacity:1;stroke:none;stroke-width:0.34622431px;stroke-linecap:butt;stroke-linejoin:miter;stroke-opacity:1"
       id="text2044"
       transform="matrix(0.76419626,0,0,0.76419626,-144.10096,55.723661)">
      <path
         d="m 51.045598,196.34024 c 2.291464,0 3.937924,-1.32396 3.937924,-3.242 v -0.034 c 0,-1.73132 -1.154219,-2.71581 -3.903977,-3.27594 -2.817652,-0.57711 -3.462657,-1.34093 -3.462657,-2.59699 v -0.034 c 0,-1.23909 1.154219,-2.24054 2.902522,-2.24054 1.20514,0 2.240542,0.3225 3.275945,1.12027 0.08487,0.0679 0.186712,0.10184 0.288555,0.10184 0.237633,0 0.441319,-0.20369 0.441319,-0.44132 0,-0.16974 -0.101843,-0.28855 -0.186712,-0.35645 -1.086324,-0.81474 -2.189622,-1.22211 -3.78516,-1.22211 -2.206595,0 -3.819107,1.3579 -3.819107,3.12318 v 0.034 c 0,1.79922 1.154219,2.76673 4.005819,3.34384 2.698836,0.54316 3.360814,1.27303 3.360814,2.52909 v 0.034 c 0,1.35791 -1.222114,2.35936 -3.004364,2.35936 -1.629486,0 -2.817652,-0.47527 -4.005819,-1.54462 -0.0679,-0.0509 -0.169738,-0.10184 -0.288555,-0.10184 -0.237633,0 -0.441319,0.20369 -0.441319,0.44132 0,0.15276 0.08487,0.27158 0.169738,0.33948 1.340931,1.10329 2.732784,1.66343 4.515034,1.66343 z"
         style="font-style:normal;font-variant:normal;font-weight:300;font-stretch:normal;font-family:'Gotham Rounded';-inkscape-font-specification:'Gotham Rounded weight=330';letter-spacing:-0.42597917px;fill:#4d4d4d;stroke-width:0.34622431px"
         id="path2046"
         inkscape:connector-curvature="0" />
      <path
         d="m 57.470672,195.79708 c 0,0.23763 0.203686,0.44132 0.441319,0.44132 0.237633,0 0.441319,-0.20369 0.441319,-0.44132 v -5.19399 h 7.604267 v 5.19399 c 0,0.23763 0.203686,0.44132 0.441319,0.44132 0.237634,0 0.441319,-0.20369 0.441319,-0.44132 v -11.13482 c 0,-0.23763 -0.203685,-0.44132 -0.441319,-0.44132 -0.237633,0 -0.441319,0.20369 -0.441319,0.44132 v 5.12609 H 58.35331 v -5.12609 c 0,-0.23763 -0.203686,-0.44132 -0.441319,-0.44132 -0.237633,0 -0.441319,0.20369 -0.441319,0.44132 z"
         style="font-style:normal;font-variant:normal;font-weight:300;font-stretch:normal;font-family:'Gotham Rounded';-inkscape-font-specification:'Gotham Rounded weight=330';letter-spacing:-0.42597917px;fill:#4d4d4d;stroke-width:0.34622431px"
         id="path2048"
         inkscape:connector-curvature="0" />
      <path
         d="m 70.059626,195.79708 c 0,0.23763 0.203686,0.44132 0.441319,0.44132 0.237634,0 0.441319,-0.20369 0.441319,-0.44132 v -11.13482 c 0,-0.23763 -0.203685,-0.44132 -0.441319,-0.44132 -0.237633,0 -0.441319,0.20369 -0.441319,0.44132 z"
         style="font-style:normal;font-variant:normal;font-weight:300;font-stretch:normal;font-family:'Gotham Rounded';-inkscape-font-specification:'Gotham Rounded weight=330';letter-spacing:-0.42597917px;fill:#4d4d4d;stroke-width:0.34622431px"
         id="path2050"
         inkscape:connector-curvature="0" />
      <path
         d="m 77.449026,195.79708 c 0,0.23763 0.203686,0.44132 0.44132,0.44132 0.237633,0 0.441319,-0.20369 0.441319,-0.44132 v -10.6935 h 3.802133 c 0.22066,0 0.407372,-0.18671 0.407372,-0.40737 0,-0.22066 -0.186712,-0.40738 -0.407372,-0.40738 h -8.486905 c -0.22066,0 -0.407371,0.18672 -0.407371,0.40738 0,0.22066 0.186711,0.40737 0.407371,0.40737 h 3.802133 z"
         style="font-style:normal;font-variant:normal;font-weight:300;font-stretch:normal;font-family:'Gotham Rounded';-inkscape-font-specification:'Gotham Rounded weight=330';letter-spacing:-0.42597917px;fill:#4d4d4d;stroke-width:0.34622431px"
         id="path2052"
         inkscape:connector-curvature="0" />
      <path
         d="m 89.416008,195.72918 c 0,0.23764 0.203686,0.44132 0.441319,0.44132 h 4.71872 c 2.563045,0 4.260426,-1.25606 4.260426,-3.242 v -0.0339 c 0,-1.64646 -1.256062,-2.46121 -2.681862,-2.83463 0.967507,-0.3904 2.019883,-1.20514 2.019883,-2.81765 v -0.034 c 0,-0.74685 -0.271581,-1.37488 -0.763821,-1.86712 -0.661979,-0.66198 -1.748302,-1.05238 -3.089233,-1.05238 h -4.464113 c -0.237633,0 -0.441319,0.20369 -0.441319,0.44132 z m 0.882638,-5.9578 v -4.6678 h 4.00582 c 1.901066,0 2.970416,0.88264 2.970416,2.18962 v 0.0339 c 0,1.57856 -1.273035,2.44423 -3.055285,2.44423 z m 0,5.58438 v -4.76964 h 4.022794 c 2.342385,0 3.615421,0.84869 3.615421,2.30844 v 0.0339 c 0,1.4937 -1.290009,2.42726 -3.326867,2.42726 z"
         style="font-style:normal;font-variant:normal;font-weight:300;font-stretch:normal;font-family:'Gotham Rounded';-inkscape-font-specification:'Gotham Rounded Light';letter-spacing:-0.42597917px;fill:#4d4d4d;stroke-width:0.34622431px"
         id="path2054"
         inkscape:connector-curvature="0" />
      <path
         d="m 101.25626,195.79708 c 0,0.23763 0.20369,0.44132 0.44132,0.44132 0.23763,0 0.44132,-0.20369 0.44132,-0.44132 v -4.54898 h 3.887 l 3.64937,4.75266 c 0.10184,0.13579 0.22066,0.23764 0.3904,0.23764 0.23763,0 0.45829,-0.22066 0.45829,-0.4583 0,-0.10184 -0.0509,-0.20368 -0.13579,-0.30552 l -3.37779,-4.37925 c 2.00291,-0.27158 3.47963,-1.40882 3.47963,-3.39476 v -0.034 c 0,-0.84869 -0.33947,-1.64646 -0.89961,-2.20659 -0.7129,-0.7129 -1.88409,-1.1712 -3.34384,-1.1712 h -4.54898 c -0.23763,0 -0.44132,0.20369 -0.44132,0.44132 z m 0.88264,-5.34675 v -5.34675 h 4.05674 c 2.15567,0 3.41173,1.00145 3.41173,2.59699 v 0.034 c 0,1.71435 -1.47672,2.71581 -3.46265,2.71581 z"
         style="font-style:normal;font-variant:normal;font-weight:300;font-stretch:normal;font-family:'Gotham Rounded';-inkscape-font-specification:'Gotham Rounded Light';letter-spacing:-0.42597917px;fill:#4d4d4d;stroke-width:0.34622431px"
         id="path2056"
         inkscape:connector-curvature="0" />
      <path
         d="m 113.21533,195.79708 c 0,0.23763 0.20368,0.44132 0.44132,0.44132 0.23763,0 0.44132,-0.20369 0.44132,-0.44132 v -11.13482 c 0,-0.23763 -0.20369,-0.44132 -0.44132,-0.44132 -0.23764,0 -0.44132,0.20369 -0.44132,0.44132 z"
         style="font-style:normal;font-variant:normal;font-weight:300;font-stretch:normal;font-family:'Gotham Rounded';-inkscape-font-specification:'Gotham Rounded Light';letter-spacing:-0.42597917px;fill:#4d4d4d;stroke-width:0.34622431px"
         id="path2058"
         inkscape:connector-curvature="0" />
      <path
         d="m 122.6925,196.37419 c 1.98594,0 3.29292,-0.72988 4.49806,-1.85015 0.0679,-0.0679 0.13579,-0.16974 0.13579,-0.30553 0,-0.22066 -0.20368,-0.42434 -0.42434,-0.42434 -0.13579,0 -0.23763,0.0679 -0.30553,0.13579 -1.12027,1.06935 -2.25752,1.64646 -3.87003,1.64646 -2.83462,0 -5.02425,-2.34239 -5.02425,-5.34675 v -0.034 c 0,-2.98739 2.15568,-5.3128 5.00728,-5.3128 1.66343,0 2.80068,0.645 3.78516,1.54461 0.0679,0.0679 0.18671,0.11882 0.30553,0.11882 0.23763,0 0.45829,-0.20368 0.45829,-0.44132 0,-0.15276 -0.0849,-0.27158 -0.16974,-0.35645 -1.15422,-0.98448 -2.39331,-1.66343 -4.36227,-1.66343 -3.42871,0 -5.94083,2.7837 -5.94083,6.14452 v 0.034 c 0,3.41173 2.51212,6.11057 5.90688,6.11057 z"
         style="font-style:normal;font-variant:normal;font-weight:300;font-stretch:normal;font-family:'Gotham Rounded';-inkscape-font-specification:'Gotham Rounded Light';letter-spacing:-0.42597917px;fill:#4d4d4d;stroke-width:0.34622431px"
         id="path2060"
         inkscape:connector-curvature="0" />
      <path
         d="m 129.41727,195.79708 c 0,0.23763 0.20369,0.44132 0.44132,0.44132 0.23764,0 0.44132,-0.20369 0.44132,-0.44132 v -2.64792 l 2.95345,-2.98739 4.80358,5.90689 c 0.0679,0.0849 0.18672,0.16974 0.33948,0.16974 0.23763,0 0.45829,-0.22066 0.45829,-0.4583 0,-0.13579 -0.0509,-0.22066 -0.13579,-0.3225 l -4.83753,-5.92386 4.532,-4.56595 c 0.0849,-0.0849 0.13579,-0.18671 0.13579,-0.30553 0,-0.22066 -0.22065,-0.44132 -0.44131,-0.44132 -0.13579,0 -0.23764,0.0679 -0.30553,0.13579 l -7.50243,7.74006 v -7.43453 c 0,-0.23763 -0.20368,-0.44132 -0.44132,-0.44132 -0.23763,0 -0.44132,0.20369 -0.44132,0.44132 z"
         style="font-style:normal;font-variant:normal;font-weight:300;font-stretch:normal;font-family:'Gotham Rounded';-inkscape-font-specification:'Gotham Rounded Light';letter-spacing:-0.42597917px;fill:#4d4d4d;stroke-width:0.34622431px"
         id="path2062"
         inkscape:connector-curvature="0" />
      <path
         d="m 144.98195,196.34024 c 2.29146,0 3.93792,-1.32396 3.93792,-3.242 v -0.034 c 0,-1.73132 -1.15422,-2.71581 -3.90398,-3.27594 -2.81765,-0.57711 -3.46265,-1.34093 -3.46265,-2.59699 v -0.034 c 0,-1.23909 1.15422,-2.24054 2.90252,-2.24054 1.20514,0 2.24054,0.3225 3.27594,1.12027 0.0849,0.0679 0.18671,0.10184 0.28856,0.10184 0.23763,0 0.44132,-0.20369 0.44132,-0.44132 0,-0.16974 -0.10185,-0.28855 -0.18672,-0.35645 -1.08632,-0.81474 -2.18962,-1.22211 -3.78515,-1.22211 -2.2066,0 -3.81911,1.3579 -3.81911,3.12318 v 0.034 c 0,1.79922 1.15422,2.76673 4.00582,3.34384 2.69883,0.54316 3.36081,1.27303 3.36081,2.52909 v 0.034 c 0,1.35791 -1.22211,2.35936 -3.00436,2.35936 -1.62949,0 -2.81766,-0.47527 -4.00582,-1.54462 -0.0679,-0.0509 -0.16974,-0.10184 -0.28856,-0.10184 -0.23763,0 -0.44132,0.20369 -0.44132,0.44132 0,0.15276 0.0849,0.27158 0.16974,0.33948 1.34093,1.10329 2.73279,1.66343 4.51504,1.66343 z"
         style="font-style:normal;font-variant:normal;font-weight:300;font-stretch:normal;font-family:'Gotham Rounded';-inkscape-font-specification:'Gotham Rounded Light';letter-spacing:-0.42597917px;fill:#4d4d4d;stroke-width:0.34622431px"
         id="path2064"
         inkscape:connector-curvature="0" />
    </g>
    <g
       id="g2183"
       transform="translate(0,-0.03432222)">
      <g
         transform="translate(-0.6865015,0.7901585)"
         id="text2069"
         style="font-style:normal;font-weight:normal;font-size:13.63838959px;line-height:21.30998421px;font-family:sans-serif;text-align:center;letter-spacing:0px;word-spacing:0px;text-anchor:middle;fill:#4d4d4d;fill-opacity:1;stroke:none;stroke-width:0.26458332px;stroke-linecap:butt;stroke-linejoin:miter;stroke-opacity:1"
         aria-label="SHIT BRICKS">
        <path
           inkscape:connector-curvature="0"
           id="path2071"
           style="font-style:normal;font-variant:normal;font-weight:bold;font-stretch:normal;font-family:Gotham;-inkscape-font-specification:'Gotham Bold';letter-spacing:-0.34227258px;fill:#4d4d4d;stroke-width:0.26458332px"
           d="m 73.598627,185.72159 c 2.059397,0 3.505066,-1.0638 3.505066,-2.95953 v -0.0273 c 0,-1.66388 -1.091071,-2.35944 -3.027723,-2.86406 -1.650245,-0.42279 -2.059396,-0.62737 -2.059396,-1.25473 v -0.0273 c 0,-0.4637 0.42279,-0.83194 1.227455,-0.83194 0.804665,0 1.636606,0.3546 2.482186,0.94105 l 1.091072,-1.58205 c -0.968326,-0.77739 -2.154866,-1.21382 -3.545982,-1.21382 -1.950289,0 -3.341405,1.14562 -3.341405,2.8777 v 0.0273 c 0,1.89573 1.241093,2.42763 3.164106,2.91861 1.595692,0.40915 1.923013,0.68192 1.923013,1.21382 v 0.0273 c 0,0.55918 -0.518259,0.90014 -1.377477,0.90014 -1.091071,0 -1.991205,-0.45007 -2.850424,-1.15927 l -1.241093,1.48659 c 1.145625,1.02288 2.604932,1.5275 4.050602,1.5275 z" />
        <path
           inkscape:connector-curvature="0"
           id="path2073"
           style="font-style:normal;font-variant:normal;font-weight:bold;font-stretch:normal;font-family:Gotham;-inkscape-font-specification:'Gotham Bold';letter-spacing:-0.34227258px;fill:#4d4d4d;stroke-width:0.26458332px"
           d="M 78.597488,185.58521 H 80.6978 v -3.83239 h 3.873303 v 3.83239 h 2.100312 v -9.54688 h -2.100312 v 3.77784 H 80.6978 v -3.77784 h -2.100312 z" />
        <path
           inkscape:connector-curvature="0"
           id="path2075"
           style="font-style:normal;font-variant:normal;font-weight:bold;font-stretch:normal;font-family:Gotham;-inkscape-font-specification:'Gotham Bold';letter-spacing:-0.34227258px;fill:#4d4d4d;stroke-width:0.26458332px"
           d="m 88.712664,185.58521 h 2.100312 v -9.54688 h -2.100312 z" />
        <path
           inkscape:connector-curvature="0"
           id="path2077"
           style="font-style:normal;font-variant:normal;font-weight:bold;font-stretch:normal;font-family:Gotham;-inkscape-font-specification:'Gotham Bold';letter-spacing:-0.34227258px;fill:#4d4d4d;stroke-width:0.26458332px"
           d="m 95.079627,185.58521 h 2.100312 v -7.61023 h 2.904981 v -1.93665 h -7.91027 v 1.93665 h 2.904977 z" />
        <path
           inkscape:connector-curvature="0"
           id="path2079"
           style="font-style:normal;font-variant:normal;font-weight:bold;font-stretch:normal;font-family:Gotham;-inkscape-font-specification:'Gotham Bold';letter-spacing:-0.34227258px;fill:#4d4d4d;stroke-width:0.26458332px"
           d="m 105.11784,185.58521 h 4.54158 c 2.15487,0 3.57326,-0.87286 3.57326,-2.61858 v -0.0273 c 0,-1.28201 -0.68192,-1.92302 -1.78663,-2.34581 0.68192,-0.38187 1.25473,-0.98196 1.25473,-2.05939 v -0.0273 c 0,-0.65464 -0.21821,-1.18654 -0.65464,-1.62297 -0.54553,-0.54553 -1.40475,-0.84558 -2.49582,-0.84558 h -4.43248 z m 2.04576,-5.68721 v -2.01849 h 2.07303 c 0.8865,0 1.37748,0.3546 1.37748,0.98197 v 0.0273 c 0,0.70919 -0.58645,1.00924 -1.51386,1.00924 z m 0,3.84602 v -2.10031 h 2.42763 c 1.07743,0 1.55478,0.39551 1.55478,1.03652 v 0.0273 c 0,0.7092 -0.55918,1.03652 -1.48659,1.03652 z" />
        <path
           inkscape:connector-curvature="0"
           id="path2081"
           style="font-style:normal;font-variant:normal;font-weight:bold;font-stretch:normal;font-family:Gotham;-inkscape-font-specification:'Gotham Bold';letter-spacing:-0.34227258px;fill:#4d4d4d;stroke-width:0.26458332px"
           d="m 114.63143,185.58521 h 2.10031 v -3.055 h 1.62297 0.0273 l 2.04576,3.055 h 2.45491 l -2.33217,-3.4096 c 1.21382,-0.45007 2.04576,-1.41839 2.04576,-2.95953 v -0.0273 c 0,-0.90013 -0.2864,-1.65024 -0.8183,-2.18214 -0.62737,-0.62737 -1.56842,-0.96833 -2.78223,-0.96833 h -4.36429 z m 2.10031,-4.90983 v -2.74131 h 2.08668 c 1.02288,0 1.65024,0.4637 1.65024,1.36384 v 0.0273 c 0,0.80467 -0.58645,1.3502 -1.60933,1.3502 z" />
        <path
           inkscape:connector-curvature="0"
           id="path2083"
           style="font-style:normal;font-variant:normal;font-weight:bold;font-stretch:normal;font-family:Gotham;-inkscape-font-specification:'Gotham Bold';letter-spacing:-0.34227258px;fill:#4d4d4d;stroke-width:0.26458332px"
           d="m 124.2405,185.58521 h 2.10031 v -9.54688 h -2.10031 z" />
        <path
           inkscape:connector-curvature="0"
           id="path2085"
           style="font-style:normal;font-variant:normal;font-weight:bold;font-stretch:normal;font-family:Gotham;-inkscape-font-specification:'Gotham Bold';letter-spacing:-0.34227258px;fill:#4d4d4d;stroke-width:0.26458332px"
           d="m 132.8578,185.74887 c 1.84118,0 2.93225,-0.65465 3.91421,-1.7048 l -1.33656,-1.3502 c -0.75011,0.68192 -1.41839,1.11834 -2.50946,1.11834 -1.63661,0 -2.7686,-1.36383 -2.7686,-3.00044 v -0.0273 c 0,-1.6366 1.15927,-2.97317 2.7686,-2.97317 0.95468,0 1.7048,0.40915 2.44127,1.07744 l 1.33656,-1.54114 c -0.88649,-0.87286 -1.96393,-1.47295 -3.76419,-1.47295 -2.93226,0 -4.97802,2.22306 -4.97802,4.9371 v 0.0273 c 0,2.74131 2.08668,4.90982 4.89619,4.90982 z" />
        <path
           inkscape:connector-curvature="0"
           id="path2087"
           style="font-style:normal;font-variant:normal;font-weight:bold;font-stretch:normal;font-family:Gotham;-inkscape-font-specification:'Gotham Bold';letter-spacing:-0.34227258px;fill:#4d4d4d;stroke-width:0.26458332px"
           d="m 138.1111,185.58521 h 2.10031 v -2.91862 l 1.10471,-1.14563 2.95953,4.06425 h 2.5231 l -4.06424,-5.49628 3.88694,-4.0506 h -2.53674 l -3.8733,4.17335 v -4.17335 h -2.10031 z" />
        <path
           inkscape:connector-curvature="0"
           id="path2089"
           style="font-style:normal;font-variant:normal;font-weight:bold;font-stretch:normal;font-family:Gotham;-inkscape-font-specification:'Gotham Bold';letter-spacing:-0.34227258px;fill:#4d4d4d;stroke-width:0.26458332px"
           d="m 150.99401,185.72159 c 2.0594,0 3.50507,-1.0638 3.50507,-2.95953 v -0.0273 c 0,-1.66388 -1.09107,-2.35944 -3.02772,-2.86406 -1.65025,-0.42279 -2.0594,-0.62737 -2.0594,-1.25473 v -0.0273 c 0,-0.4637 0.42279,-0.83194 1.22745,-0.83194 0.80467,0 1.63661,0.3546 2.48219,0.94105 l 1.09107,-1.58205 c -0.96832,-0.77739 -2.15486,-1.21382 -3.54598,-1.21382 -1.95029,0 -3.3414,1.14562 -3.3414,2.8777 v 0.0273 c 0,1.89573 1.24109,2.42763 3.1641,2.91861 1.59569,0.40915 1.92301,0.68192 1.92301,1.21382 v 0.0273 c 0,0.55918 -0.51825,0.90014 -1.37747,0.90014 -1.09107,0 -1.99121,-0.45007 -2.85043,-1.15927 l -1.24109,1.48659 c 1.14563,1.02288 2.60493,1.5275 4.0506,1.5275 z" />
      </g>
      <g
         transform="translate(128.00978,3.7566163)"
         id="g2145"
         style="fill:#4d4d4d">
        <path
           sodipodi:nodetypes="czzzzzzzzzzzzzzzzzzzzzzzzzzzzzzzzzzzzzzzzzzzzzzzzzzc"
           inkscape:connector-curvature="0"
           id="path2133"
           d="m -28.670884,125.2414 c 0.429517,-0.42952 0.944231,-0.24149 1.52651,-0.24149 0,0 0.759742,-0.25657 1.604938,-0.22639 0.845195,0.0302 1.178861,0.25658 1.858036,0.33204 0.679175,0.0755 1.738995,-0.2113 2.372892,-0.22639 0.633897,-0.0151 1.038291,-0.13583 1.79293,-0.10565 0.754639,0.0302 0.862357,0.16602 1.601904,0.16602 0.739546,0 0.669629,-0.12074 1.454453,-0.12074 0.784825,0 0.410018,0.27167 1.421235,0.25658 1.011216,-0.0151 0.845119,-0.28677 1.82615,-0.24149 0.98103,0.0453 0.514779,-0.0755 1.510902,-0.0604 0.996124,0.0151 0.773946,0.0302 1.7549765,0.0604 0.9810305,0.0302 0.352681,0.0906 1.4091754,0.10565 1.0564944,0.0151 0.2481827,-0.18458 1.2453001,-0.18111 0.9971173,0.003 0.3185645,-0.051 1.1849289,0.0453 0.8663645,0.0963 0.7691851,0.10316 1.0131326,0.34713 0.2439476,0.24395 0.1722722,0.17104 0.1509278,1.05683 -0.021344,0.88579 0.05595,0.4269 0.045278,1.17395 -0.010672,0.74706 -0.045278,0.33664 -0.045278,1.05168 0,0.71504 0.016924,0.11967 -0.015093,1.08017 -0.032017,0.9605 0.1119007,0.73777 0.090557,1.48482 -0.021344,0.74705 -0.069213,0.41439 -0.090557,1.1401 -0.021344,0.72571 0.093146,0.75223 0.135835,1.52063 0.042689,0.7684 -0.1527592,0.70987 -0.1207422,1.40356 0.032017,0.69369 0.1056495,0.71716 0.1056495,1.21921 0,0.50205 -0.012154,0.49799 -0.3320412,0.81787 -0.3198874,0.31989 -0.7535754,0.20241 -1.2625696,0.16602 -0.5089942,-0.0364 -0.4614942,0.16344 -1.3686317,0.12074 -0.9071375,-0.0427 -0.4117955,-0.11453 -1.5430493,-0.13583 -1.1312538,-0.0213 -0.5211072,0.18111 -1.3962278,0.18111 -0.875121,0 -0.557544,-0.11453 -1.347287,-0.13583 -0.789743,-0.0213 -0.461495,0.11635 -1.347288,0.10565 -0.885793,-0.0107 -0.551293,0.0773 -1.45843,0.056 -0.907138,-0.0213 -0.270467,0.0195 -1.038866,0.0195 -0.768399,0 -0.500077,-0.078 -1.407214,-0.12074 -0.907137,-0.0427 -0.178525,0.0968 -1.288433,0.0755 -1.109909,-0.0213 -0.237373,-0.006 -1.368632,0.0151 -1.131254,0.0213 -0.437874,-0.0479 -1.67585,-0.0906 -1.237976,-0.0427 -0.493511,0.14204 -1.646109,0.12074 -1.152598,-0.0213 -0.217556,0.006 -1.263427,-0.0151 -1.045876,-0.0213 -0.789299,0.0879 -1.835175,0.0453 -1.045876,-0.0427 -0.629347,-0.0493 -1.2854,-0.13477 -0.656053,-0.0854 -1.0064,0.13746 -1.320206,-0.17637 -0.313805,-0.31381 -0.194776,-0.76096 -0.222729,-1.45979 -0.02795,-0.69883 -0.01875,-0.38936 0.04528,-1.49927 0.06403,-1.10991 -0.111897,-0.5627 -0.09056,-1.54454 0.02134,-0.98184 0.144681,-0.42838 0.166021,-1.55963 0.02134,-1.13125 -0.189959,-0.62049 -0.211299,-1.55964 -0.02134,-0.93915 0.03643,-0.66316 0.01509,-1.55963 -0.02134,-0.89647 0.105649,-0.81625 0.105649,-1.49927 0,-0.68302 0.113823,-0.84335 0.54334,-1.27286 z"
           style="fill:#4d4d4d;fill-opacity:1;stroke:none;stroke-width:1.06500006;stroke-linecap:round;stroke-linejoin:round;stroke-miterlimit:4;stroke-dasharray:none;stroke-dashoffset:0;stroke-opacity:1;paint-order:stroke fill markers" />
        <path
           sodipodi:nodetypes="czzsssssssssssszsssssszssssssszc"
           inkscape:connector-curvature="0"
           id="path2135"
           d="m -22.240059,111.22399 c 0.53892,-0.53893 1.11823,-0.40846 1.52669,-0.40846 0.40845,0 1.212109,-0.19805 1.722679,-0.17775 0.51056,0.0205 1.804261,0.18235 2.192271,0.17775 0,0 1.117476,0.0337 1.772376,0.0155 0.84943,-0.0236 1.676394,-0.0564 1.676394,-0.0564 0.32522,-0.0484 1.04118,-0.17605 1.64609,0.42889 0.29362,0.29362 0.4811,0.69744 0.47739,1.12523 -0.004,0.45347 -0.20839,0.93035 -0.20839,1.20134 0,0 0.23041,0.86534 0.23415,1.34054 0.004,0.44161 -0.16256,0.88564 -0.14751,1.23374 0.0222,0.51423 0.0838,0.75152 0.10451,1.53839 0.0146,0.54793 -0.0602,1.11299 -0.0611,1.4534 -0.002,0.65701 -0.0517,0.53832 -0.0514,1.44952 1.6e-4,0.48999 0.0708,0.97241 0.0658,1.16431 -0.0144,0.54875 0.0567,1.06311 -0.36659,1.4864 -0.42329,0.42329 -0.81575,0.17777 -1.91306,0.13702 0,0 -0.68203,0.0273 -1.49583,0.0465 -0.59087,0.0134 -1.19516,-0.0584 -1.37985,-0.067 -0.43909,-0.0205 -1.10806,-0.0409 -1.67989,-0.0722 -0.27566,-0.0153 -0.88368,0.23356 -1.32179,0.21978 -0.47072,-0.0153 -0.97477,-0.20965 -1.21276,-0.20965 -0.45951,0 -1.22233,0.27614 -1.7231,-0.22464 -0.50078,-0.50078 -0.30634,-1.62517 -0.30634,-1.99514 0,0 0.14179,-0.61247 0.14137,-1.28894 -2.4e-4,-0.38626 -0.14554,-0.81686 -0.14137,-1.107 0.005,-0.35569 -0.0634,-0.49542 -0.0657,-1.04473 -0.002,-0.48029 0.11767,-0.86361 0.12703,-1.07265 0.0233,-0.51955 -0.15493,-0.81663 -0.15493,-1.62574 0,-0.5806 0.15493,-1.50972 0.15493,-1.68468 0,-0.4362 -0.15089,-1.44528 0.38803,-1.98423 z"
           style="fill:#4d4d4d;fill-opacity:1;stroke:none;stroke-width:1.06500006;stroke-linecap:round;stroke-linejoin:round;stroke-miterlimit:4;stroke-dasharray:none;stroke-dashoffset:0;stroke-opacity:1;paint-order:stroke fill markers" />
        <path
           style="fill:#4d4d4d;fill-opacity:1;stroke:none;stroke-width:1.06500006;stroke-linecap:round;stroke-linejoin:round;stroke-miterlimit:4;stroke-dasharray:none;stroke-dashoffset:0;stroke-opacity:1;paint-order:stroke fill markers"
           d="m -36.328494,139.24333 c 0.336808,-0.42952 0.740424,-0.24149 1.197021,-0.24149 0,0 0.595756,-0.25657 1.25852,-0.22639 0.662764,0.0302 0.92441,0.25658 1.456989,0.33204 0.532578,0.0755 1.363642,-0.2113 1.860715,-0.22639 0.497074,-0.0151 0.814181,-0.13583 1.405936,-0.10565 0.591754,0.0302 0.676221,0.16602 1.256141,0.16602 0.579919,0 0.525093,-0.12074 1.140517,-0.12074 0.615424,0 0.321517,0.27167 1.114468,0.25658 0.792951,-0.0151 0.662705,-0.28677 1.431985,-0.24149 0.76928,0.0453 0.403667,-0.0755 1.184782,-0.0604 0.781116,0.0151 0.606894,0.0302 1.376173,0.0604 0.769281,0.0302 0.276557,0.0906 1.105013,0.10565 0.828455,0.0151 0.194613,-0.18458 0.976508,-0.18111 0.781895,0.003 0.249804,-0.051 0.929168,0.0453 0.679364,0.0963 0.603161,0.10316 0.794453,0.34713 0.191293,0.24395 0.135088,0.17104 0.118351,1.05683 -0.01673,0.88579 0.04387,0.4269 0.03551,1.17395 -0.0084,0.74706 -0.03551,0.33664 -0.03551,1.05168 0,0.71504 0.01327,0.11967 -0.01183,1.08017 -0.02511,0.9605 0.08775,0.73777 0.07101,1.48482 -0.01673,0.74705 -0.05427,0.41439 -0.07101,1.1401 -0.01673,0.72571 0.07304,0.75223 0.106516,1.52063 0.03347,0.7684 -0.119787,0.70987 -0.09468,1.40356 0.02511,0.69369 0.08285,0.81188 0.08285,1.21921 0,0.40733 -0.0095,0.49799 -0.260372,0.81787 -0.250841,0.31989 -0.59092,0.20241 -0.990051,0.16602 -0.39913,-0.0364 -0.361883,0.16344 -1.073219,0.12074 -0.711337,-0.0427 -0.322912,-0.11453 -1.20999,-0.13583 -0.887078,-0.0213 -0.408629,0.18111 -1.094859,0.18111 -0.686231,0 -0.437201,-0.11453 -1.056482,-0.13583 -0.619281,-0.0213 -0.361884,0.11635 -1.056483,0.10565 -0.694599,-0.0107 -0.432299,0.0773 -1.143635,0.056 -0.711337,-0.0213 -0.212088,0.0195 -0.814632,0.0195 -0.602544,0 -0.392138,-0.078 -1.103474,-0.12074 -0.711337,-0.0427 -0.139992,0.0968 -1.010332,0.0755 -0.870341,-0.0213 -0.186137,-0.006 -1.07322,0.0151 -0.887078,0.0213 -0.343361,-0.0479 -1.314126,-0.0906 -0.970765,-0.0427 -0.386989,0.14204 -1.290805,0.12074 -0.903816,-0.0213 -0.170598,0.006 -0.990723,-0.0151 -0.820129,-0.0213 -0.618933,0.0879 -1.439062,0.0453 -0.820129,-0.0427 -0.493505,-0.0493 -1.007953,-0.13477 -0.514447,-0.0854 -0.789173,0.13746 -1.035246,-0.17637 -0.246072,-0.31381 -0.152734,-0.76096 -0.174654,-1.45979 -0.02192,-0.69883 -0.0147,-0.38936 0.03551,-1.49927 0.05021,-1.10991 -0.08774,-0.5627 -0.07101,-1.54454 0.01673,-0.98184 0.113453,-0.42838 0.130187,-1.55963 0.01673,-1.13125 -0.148958,-0.62049 -0.165691,-1.55964 -0.01673,-0.93915 0.02857,-0.66316 0.01183,-1.55963 -0.01673,-0.89647 0.08285,-0.81625 0.08285,-1.49927 0,-0.68302 0.08926,-0.84335 0.426062,-1.27286 z"
           id="path2137"
           inkscape:connector-curvature="0"
           sodipodi:nodetypes="czzzzzzzzzzzzzzzzzzzzzzzzzzzzzzzzzzzzzzzzzzzzzzzzzzc" />
        <path
           sodipodi:nodetypes="czzzzzzzzzzzzzzzzzzzzzzzzzzzzzzzzzzzzzzzzzzzzzzzzzzc"
           inkscape:connector-curvature="0"
           id="path2139"
           d="m 3.1038664,151.02375 c -0.336808,0.42952 -0.740424,0.24149 -1.197021,0.24149 0,0 -0.595756,0.25657 -1.25852001,0.22639 -0.662764,-0.0302 -0.92441,-0.25658 -1.456989,-0.33204 -0.53257799,-0.0755 -1.36364159,0.2113 -1.86071459,0.22639 -0.497074,0.0151 -0.814181,0.13583 -1.405936,0.10565 -0.591754,-0.0302 -0.676221,-0.16602 -1.256141,-0.16602 -0.579919,0 -0.525093,0.12074 -1.140517,0.12074 -0.615424,0 -0.321517,-0.27167 -1.114468,-0.25658 -0.792951,0.0151 -0.662705,0.28677 -1.431985,0.24149 -0.76928,-0.0453 -0.403667,0.0755 -1.1847818,0.0604 -0.781116,-0.0151 -0.606894,-0.0302 -1.376173,-0.0604 -0.769281,-0.0302 -0.276557,-0.0906 -1.105013,-0.10565 -0.828455,-0.0151 -0.194613,0.18458 -0.976508,0.18111 -0.781895,-0.003 -0.249804,0.051 -0.929168,-0.0453 -0.679364,-0.0963 -0.603161,-0.10316 -0.794453,-0.34713 -0.191293,-0.24395 -0.135088,-0.17104 -0.118351,-1.05683 0.01673,-0.88579 -0.04387,-0.4269 -0.03551,-1.17395 0.0084,-0.74706 0.03551,-0.33664 0.03551,-1.05168 0,-0.71504 -0.01327,-0.11967 0.01183,-1.08017 0.02511,-0.9605 -0.08775,-0.73777 -0.07101,-1.48482 0.01673,-0.74705 0.05427,-0.41439 0.07101,-1.1401 0.01673,-0.72571 -0.07304,-0.75223 -0.106516,-1.52063 -0.03347,-0.7684 0.119787,-0.70987 0.09468,-1.40356 -0.02511,-0.69369 -0.08285,-0.81188 -0.08285,-1.21921 0,-0.40733 0.0095,-0.49799 0.260372,-0.81787 0.250841,-0.31989 0.59092,-0.20241 0.990051,-0.16602 0.39913,0.0364 0.361883,-0.16344 1.073219,-0.12074 0.711337,0.0427 0.322912,0.11453 1.20999,0.13583 0.887078,0.0213 0.408629,-0.18111 1.094859,-0.18111 0.686231,0 0.437201,0.11453 1.0564818,0.13583 0.619281,0.0213 0.361884,-0.11635 1.056483,-0.10565 0.694599,0.0107 0.432299,-0.0773 1.143635,-0.056 0.711337,0.0213 0.212088,-0.0195 0.814632,-0.0195 0.602544,0 0.392138,0.078 1.103474,0.12074 0.711337,0.0427 0.139992,-0.0968 1.010332,-0.0755 0.870341,0.0213 0.186137,0.006 1.07322,-0.0151 0.887078,-0.0213 0.343361,0.0479 1.314126,0.0906 0.9707656,0.0427 0.386989,-0.14204 1.2908056,-0.12074 0.90381599,0.0213 0.17059799,-0.006 0.99072299,0.0151 0.820129,0.0213 0.618933,-0.0879 1.43906201,-0.0453 0.820129,0.0427 0.493505,0.0493 1.007953,0.13477 0.514447,0.0854 0.789173,-0.13746 1.035246,0.17637 0.246072,0.31381 0.152734,0.76096 0.174654,1.45979 0.02192,0.69883 0.0147,0.38936 -0.03551,1.49927 -0.05021,1.10991 0.08774,0.5627 0.07101,1.54454 -0.01673,0.98184 -0.113453,0.42838 -0.130187,1.55963 -0.01673,1.13125 0.148958,0.62049 0.165691,1.55964 0.01673,0.93915 -0.02857,0.66316 -0.01183,1.55963 0.01673,0.89647 -0.08285,0.81625 -0.08285,1.49927 0,0.68302 -0.08926,0.84335 -0.426062,1.27286 z"
           style="fill:#4d4d4d;fill-opacity:1;stroke:none;stroke-width:1.06500006;stroke-linecap:round;stroke-linejoin:round;stroke-miterlimit:4;stroke-dasharray:none;stroke-dashoffset:0;stroke-opacity:1;paint-order:stroke fill markers" />
        <path
           sodipodi:nodetypes="czzzzzzzzzzzzzzzzzzzzzzzzzzzzzzzzzzzzzzzzzzzzzzzzzzc"
           inkscape:connector-curvature="0"
           id="path2141"
           d="m -6.1429372,153.12869 c 0.336808,-0.42952 0.740424,-0.24149 1.197021,-0.24149 0,0 0.595756,-0.25657 1.25852,-0.22639 0.662764,0.0302 0.92441,0.25658 1.456989,0.33204 0.532578,0.0755 1.36364203,-0.2113 1.86071503,-0.22639 0.497074,-0.0151 0.814181,-0.13583 1.40593597,-0.10565 0.591754,0.0302 0.676221,0.16602 1.256141,0.16602 0.579919,0 0.525093,-0.12074 1.140517,-0.12074 0.615424,0 0.321517,0.27167 1.114468,0.25658 0.792951,-0.0151 0.662705,-0.28677 1.431985,-0.24149 0.76928,0.0453 0.403667,-0.0755 1.184782,-0.0604 0.781116,0.0151 0.606894,0.0302 1.376173,0.0604 0.769281,0.0302 0.276557,0.0906 1.105013,0.10565 0.8284552,0.0151 0.194613,-0.18458 0.9765082,-0.18111 0.781895,0.003 0.249804,-0.051 0.929168,0.0453 0.679364,0.0963 0.603161,0.10316 0.794453,0.34713 0.191293,0.24395 0.135088,0.17104 0.118351,1.05683 -0.01673,0.88579 0.04387,0.4269 0.03551,1.17395 -0.0084,0.74706 -0.03551,0.33664 -0.03551,1.05168 0,0.71504 0.01327,0.11967 -0.01183,1.08017 -0.02511,0.9605 0.08775,0.73777 0.07101,1.48482 -0.01673,0.74705 -0.05427,0.41439 -0.07101,1.1401 -0.01673,0.72571 0.07304,0.75223 0.106516,1.52063 0.03347,0.7684 -0.119787,0.70987 -0.09468,1.40356 0.02511,0.69369 0.08285,0.81188 0.08285,1.21921 0,0.40733 -0.0095,0.49799 -0.260372,0.81787 -0.250841,0.31989 -0.59092,0.20241 -0.990051,0.16602 -0.39913,-0.0364 -0.361883,0.16344 -1.073219,0.12074 -0.7113372,-0.0427 -0.3229122,-0.11453 -1.2099902,-0.13583 -0.887078,-0.0213 -0.408629,0.18111 -1.094859,0.18111 -0.686231,0 -0.437201,-0.11453 -1.056482,-0.13583 -0.619281,-0.0213 -0.361884,0.11635 -1.056483,0.10565 -0.694599,-0.0107 -0.432299,0.0773 -1.143635,0.056 -0.711337,-0.0213 -0.212088,0.0195 -0.814632,0.0195 -0.602544,0 -0.392138,-0.078 -1.103474,-0.12074 -0.711337,-0.0427 -0.139992,0.0968 -1.010332,0.0755 -0.87034097,-0.0213 -0.186137,-0.006 -1.07321997,0.0151 -0.887078,0.0213 -0.343361,-0.0479 -1.314126,-0.0906 -0.97076503,-0.0427 -0.38698903,0.14204 -1.29080503,0.12074 -0.903816,-0.0213 -0.170598,0.006 -0.990723,-0.0151 -0.820129,-0.0213 -0.618933,0.0879 -1.439062,0.0453 -0.820129,-0.0427 -0.493505,-0.0493 -1.007953,-0.13477 -0.514447,-0.0854 -0.789173,0.13746 -1.035246,-0.17637 -0.246072,-0.31381 -0.152734,-0.76096 -0.174654,-1.45979 -0.02192,-0.69883 -0.0147,-0.38936 0.03551,-1.49927 0.05021,-1.10991 -0.08774,-0.5627 -0.07101,-1.54454 0.01673,-0.98184 0.113453,-0.42838 0.130187,-1.55963 0.01673,-1.13125 -0.148958,-0.62049 -0.165691,-1.55964 -0.01673,-0.93915 0.02857,-0.66316 0.01183,-1.55963 -0.01673,-0.89647 0.08285,-0.81625 0.08285,-1.49927 0,-0.68302 0.08926,-0.84335 0.426062,-1.27286 z"
           style="fill:#4d4d4d;fill-opacity:1;stroke:none;stroke-width:1.06500006;stroke-linecap:round;stroke-linejoin:round;stroke-miterlimit:4;stroke-dasharray:none;stroke-dashoffset:0;stroke-opacity:1;paint-order:stroke fill markers" />
        <path
           inkscape:connector-curvature="0"
           style="fill:#4d4d4d;fill-opacity:1;stroke:none;stroke-width:1.06500006;stroke-linecap:round;stroke-linejoin:round;stroke-miterlimit:4;stroke-dasharray:none;stroke-dashoffset:0;stroke-opacity:1;paint-order:stroke fill markers"
           d="m -28.619219,152.76641 c -0.781894,-0.003 -0.14823,0.19597 -0.976683,0.18087 -0.828458,-0.0151 -0.335563,-0.0752 -1.104844,-0.10542 -0.769279,-0.0302 -0.595027,-0.0454 -1.376143,-0.0605 -0.781114,-0.0151 -0.415661,0.10576 -1.184939,0.0605 -0.769282,-0.0453 -0.639003,0.22623 -1.431954,0.24133 -0.792951,0.0151 -0.499237,-0.25631 -1.114661,-0.25631 -0.615423,0 -0.56058,0.1204 -1.1405,0.1204 -0.579919,0 -0.664501,-0.13568 -1.256254,-0.16588 -0.591754,-0.0302 -0.908524,0.0908 -1.405599,0.10594 -0.497073,0.0151 -1.328291,0.30184 -1.860868,0.22634 -0.53258,-0.0755 -0.793993,-0.30208 -1.456759,-0.33228 -0.662762,-0.0302 -1.258837,0.22634 -1.258837,0.22634 -0.456597,0 -0.860017,-0.18767 -1.196827,0.24185 -0.336801,0.42951 -0.426331,0.58977 -0.426331,1.27279 0,0.68302 -0.09941,0.60266 -0.08268,1.49913 0.01675,0.89647 -0.02862,0.62045 -0.01188,1.5596 0.01672,0.93915 0.182613,0.42834 0.165881,1.55959 -0.01672,1.13125 -0.113493,0.57776 -0.130223,1.5596 -0.01672,0.98184 0.121007,0.4347 0.07079,1.54461 -0.05021,1.10991 -0.05706,0.80082 -0.03514,1.49965 0.02193,0.69883 -0.07141,1.14553 0.174668,1.45934 0.246073,0.31383 0.520631,0.0913 1.035079,0.17673 0.514448,0.0855 0.18756,0.0917 1.007689,0.13436 0.820129,0.0426 0.619059,-0.0663 1.439188,-0.045 0.820126,0.0211 0.08682,-0.006 0.99064,0.015 0.903814,0.0213 0.320111,-0.16362 1.290875,-0.12093 0.970764,0.0427 0.427054,0.11226 1.314133,0.091 0.887082,-0.0211 0.202978,-0.0368 1.073319,-0.0155 0.870339,0.0213 0.298937,-0.11815 1.010275,-0.0755 0.711334,0.0427 0.500747,0.12092 1.103291,0.12092 0.602543,0 0.1036,-0.0409 0.814938,-0.0196 0.711335,0.0213 0.449,-0.0665 1.143598,-0.0558 0.6946,0.0107 0.436985,-0.12724 1.056267,-0.10594 0.619281,0.0213 0.370551,0.13591 1.056782,0.13591 0.686232,0 0.207431,-0.20216 1.094508,-0.18087 0.887079,0.0213 0.498924,0.0932 1.210262,0.13592 0.711335,0.0427 0.676284,-0.17563 1.073319,-0.12093 0.34977,0.0482 0.618549,0.15981 0.85783,0.19379 0.679338,0.0965 0.147246,0.0425 0.929142,0.0455 0.781894,0.003 0.148228,-0.19649 0.976683,-0.18138 0.828458,0.0151 0.335563,0.0757 1.104842,0.10593 0.769281,0.0302 0.595029,0.0454 1.376146,0.0605 0.781113,0.0151 0.41566,-0.10576 1.184939,-0.0605 0.769281,0.0453 0.639003,-0.22674 1.431954,-0.24184 0.79295,-0.0151 0.499237,0.25683 1.11466,0.25683 0.615423,0 0.56058,-0.12092 1.140499,-0.12092 0.57992,0 0.664501,0.13619 1.256255,0.16639 0.591754,0.0302 0.908524,-0.0908 1.405599,-0.10593 0.497073,-0.0151 1.328291,-0.30184 1.860868,-0.22635 0.53258,0.0755 0.793993,0.30208 1.456759,0.33228 0.662762,0.0302 1.258837,-0.22686 1.258837,-0.22686 0.456597,0 0.8600165,0.18819 1.1968265,-0.24132 0.336801,-0.42951 0.426331,-0.58977 0.426331,-1.2728 0,-0.68302 0.09941,-0.60266 0.08268,-1.49913 -0.01675,-0.89647 0.02862,-0.62044 0.01188,-1.55959 -0.01672,-0.93915 -0.182613,-0.42887 -0.165883,-1.56012 0.01672,-1.13124 0.113495,-0.57775 0.130225,-1.55959 0.01672,-0.98184 -0.121007,-0.43418 -0.0708,-1.54409 0.05021,-1.10991 0.05706,-0.80082 0.03514,-1.49965 -0.02191,-0.69883 0.0714,-1.14605 -0.174668,-1.45986 -0.246073,-0.31383 -0.520631,-0.0908 -1.0350785,-0.17622 -0.514448,-0.0855 -0.18756,-0.0922 -1.007689,-0.13487 -0.820129,-0.0426 -0.619062,0.0668 -1.439191,0.0455 -0.820123,-0.0211 -0.08682,0.006 -0.990637,-0.015 -0.903814,-0.0213 -0.320111,0.1631 -1.290875,0.1204 -0.970767,-0.0427 -0.427054,-0.11173 -1.314133,-0.0904 -0.887082,0.0211 -0.202978,0.0363 -1.073319,0.015 -0.870339,-0.0213 -0.298937,0.11815 -1.010275,0.0754 -0.711335,-0.0427 -0.500747,-0.1204 -1.103291,-0.1204 -0.602543,0 -0.1036,0.0404 -0.814937,0.0191 -0.711335,-0.0213 -0.449001,0.067 -1.143601,0.0563 -0.694597,-0.0107 -0.436983,0.12672 -1.056264,0.10542 -0.619281,-0.0213 -0.370552,-0.13591 -1.056783,-0.13591 -0.686231,0 -0.207431,0.20269 -1.094507,0.18139 -0.887079,-0.0213 -0.498925,-0.0932 -1.210263,-0.13591 -0.711334,-0.0427 -0.681736,0.0894 -1.080865,0.053 -0.327688,-0.0548 -0.601657,-0.10869 -0.850283,-0.12586 -0.398455,-0.0255 -0.686048,-0.0443 -0.929133,-0.0455 z"
           id="path2143"
           sodipodi:nodetypes="cscscsssscssccscccccccccccccscsssssccsssccscssssccsccscccccccccccscscssssssccccc" />
      </g>
    </g>
  </g>
</svg>
