<?xml version="1.0" encoding="UTF-8" standalone="no"?>
<!-- Created with Inkscape (http://www.inkscape.org/) -->

<svg
   xmlns:dc="http://purl.org/dc/elements/1.1/"
   xmlns:cc="http://creativecommons.org/ns#"
   xmlns:rdf="http://www.w3.org/1999/02/22-rdf-syntax-ns#"
   xmlns:svg="http://www.w3.org/2000/svg"
   xmlns="http://www.w3.org/2000/svg"
   xmlns:sodipodi="http://sodipodi.sourceforge.net/DTD/sodipodi-0.dtd"
   xmlns:inkscape="http://www.inkscape.org/namespaces/inkscape"
   width="100mm"
   height="100mm"
   viewBox="0 0 100 100"
   version="1.1"
   id="svg8"
   sodipodi:docname="shitbricks.svg"
   inkscape:version="0.92.2 5c3e80d, 2017-08-06"
   inkscape:export-filename="/home/onur/Dropbox/design/d00018-shitty_logos/shitbricks.png"
   inkscape:export-xdpi="157.87"
   inkscape:export-ydpi="157.87">
  <defs
     id="defs2" />
  <sodipodi:namedview
     id="base"
     pagecolor="#ffffff"
     bordercolor="#666666"
     borderopacity="1.0"
     inkscape:pageopacity="0.0"
     inkscape:pageshadow="2"
     inkscape:zoom="1.5494883"
     inkscape:cx="-41.459431"
     inkscape:cy="141.72749"
     inkscape:document-units="mm"
     inkscape:current-layer="layer1"
     showgrid="false"
     inkscape:window-width="1920"
     inkscape:window-height="1036"
     inkscape:window-x="0"
     inkscape:window-y="20"
     inkscape:window-maximized="0"
     fit-margin-top="0"
     fit-margin-left="0"
     fit-margin-right="0"
     fit-margin-bottom="0"
     inkscape:snap-global="false" />
  <metadata
     id="metadata5">
    <rdf:RDF>
      <cc:Work
         rdf:about="">
        <dc:format>image/svg+xml</dc:format>
        <dc:type
           rdf:resource="http://purl.org/dc/dcmitype/StillImage" />
        <dc:title />
      </cc:Work>
    </rdf:RDF>
  </metadata>
  <g
     inkscape:label="Layer 1"
     inkscape:groupmode="layer"
     id="layer1"
     transform="translate(-61.337051,-100.43166)">
    <text
       xml:space="preserve"
       style="font-style:normal;font-weight:normal;font-size:16.9738102px;line-height:26.52157784px;font-family:sans-serif;text-align:center;letter-spacing:0px;word-spacing:0px;text-anchor:middle;fill:#4d4d4d;fill-opacity:1;stroke:none;stroke-width:0.26458332px;stroke-linecap:butt;stroke-linejoin:miter;stroke-opacity:1"
       x="-51.091789"
       y="190.13339"
       id="text817"><tspan
         sodipodi:role="line"
         id="tspan815"
         x="-51.304783"
         y="190.13339"
         style="font-style:normal;font-variant:normal;font-weight:bold;font-stretch:normal;font-family:Gotham;-inkscape-font-specification:'Gotham Bold';letter-spacing:-0.42597917px;fill:#4d4d4d;stroke-width:0.26458332px">SHIT BRICKS</tspan></text>
    <rect
       style="fill:#f9f9f9;fill-opacity:1;stroke:none;stroke-width:1.06500006;stroke-linecap:round;stroke-linejoin:round;stroke-miterlimit:4;stroke-dasharray:none;stroke-dashoffset:0;stroke-opacity:1;paint-order:stroke fill markers"
       id="rect1892"
       width="100"
       height="100"
       x="61.337051"
       y="100.43166" />
    <g
       aria-label="SHIT BRICKS"
       style="font-style:normal;font-weight:normal;font-size:16.9738102px;line-height:26.52157784px;font-family:sans-serif;text-align:center;letter-spacing:0px;word-spacing:0px;text-anchor:middle;fill:#4d4d4d;fill-opacity:1;stroke:none;stroke-width:0.34622431px;stroke-linecap:butt;stroke-linejoin:miter;stroke-opacity:1"
       id="text2044"
       transform="matrix(0.76419626,0,0,0.76419626,-144.10096,55.723661)">
      <path
         d="m 51.045598,196.34024 c 2.291464,0 3.937924,-1.32396 3.937924,-3.242 v -0.034 c 0,-1.73132 -1.154219,-2.71581 -3.903977,-3.27594 -2.817652,-0.57711 -3.462657,-1.34093 -3.462657,-2.59699 v -0.034 c 0,-1.23909 1.154219,-2.24054 2.902522,-2.24054 1.20514,0 2.240542,0.3225 3.275945,1.12027 0.08487,0.0679 0.186712,0.10184 0.288555,0.10184 0.237633,0 0.441319,-0.20369 0.441319,-0.44132 0,-0.16974 -0.101843,-0.28855 -0.186712,-0.35645 -1.086324,-0.81474 -2.189622,-1.22211 -3.78516,-1.22211 -2.206595,0 -3.819107,1.3579 -3.819107,3.12318 v 0.034 c 0,1.79922 1.154219,2.76673 4.005819,3.34384 2.698836,0.54316 3.360814,1.27303 3.360814,2.52909 v 0.034 c 0,1.35791 -1.222114,2.35936 -3.004364,2.35936 -1.629486,0 -2.817652,-0.47527 -4.005819,-1.54462 -0.0679,-0.0509 -0.169738,-0.10184 -0.288555,-0.10184 -0.237633,0 -0.441319,0.20369 -0.441319,0.44132 0,0.15276 0.08487,0.27158 0.169738,0.33948 1.340931,1.10329 2.732784,1.66343 4.515034,1.66343 z"
         style="font-style:normal;font-variant:normal;font-weight:300;font-stretch:normal;font-family:'Gotham Rounded';-inkscape-font-specification:'Gotham Rounded weight=330';letter-spacing:-0.42597917px;fill:#4d4d4d;stroke-width:0.34622431px"
         id="path2046"
         inkscape:connector-curvature="0" />
      <path
         d="m 57.470672,195.79708 c 0,0.23763 0.203686,0.44132 0.441319,0.44132 0.237633,0 0.441319,-0.20369 0.441319,-0.44132 v -5.19399 h 7.604267 v 5.19399 c 0,0.23763 0.203686,0.44132 0.441319,0.44132 0.237634,0 0.441319,-0.20369 0.441319,-0.44132 v -11.13482 c 0,-0.23763 -0.203685,-0.44132 -0.441319,-0.44132 -0.237633,0 -0.441319,0.20369 -0.441319,0.44132 v 5.12609 H 58.35331 v -5.12609 c 0,-0.23763 -0.203686,-0.44132 -0.441319,-0.44132 -0.237633,0 -0.441319,0.20369 -0.441319,0.44132 z"
         style="font-style:normal;font-variant:normal;font-weight:300;font-stretch:normal;font-family:'Gotham Rounded';-inkscape-font-specification:'Gotham Rounded weight=330';letter-spacing:-0.42597917px;fill:#4d4d4d;stroke-width:0.34622431px"
         id="path2048"
         inkscape:connector-curvature="0" />
      <path
         d="m 70.059626,195.79708 c 0,0.23763 0.203686,0.44132 0.441319,0.44132 0.237634,0 0.441319,-0.20369 0.441319,-0.44132 v -11.13482 c 0,-0.23763 -0.203685,-0.44132 -0.441319,-0.44132 -0.237633,0 -0.441319,0.20369 -0.441319,0.44132 z"
         style="font-style:normal;font-variant:normal;font-weight:300;font-stretch:normal;font-family:'Gotham Rounded';-inkscape-font-specification:'Gotham Rounded weight=330';letter-spacing:-0.42597917px;fill:#4d4d4d;stroke-width:0.34622431px"
         id="path2050"
         inkscape:connector-curvature="0" />
      <path
         d="m 77.449026,195.79708 c 0,0.23763 0.203686,0.44132 0.44132,0.44132 0.237633,0 0.441319,-0.20369 0.441319,-0.44132 v -10.6935 h 3.802133 c 0.22066,0 0.407372,-0.18671 0.407372,-0.40737 0,-0.22066 -0.186712,-0.40738 -0.407372,-0.40738 h -8.486905 c -0.22066,0 -0.407371,0.18672 -0.407371,0.40738 0,0.22066 0.186711,0.40737 0.407371,0.40737 h 3.802133 z"
         style="font-style:normal;font-variant:normal;font-weight:300;font-stretch:normal;font-family:'Gotham Rounded';-inkscape-font-specification:'Gotham Rounded weight=330';letter-spacing:-0.42597917px;fill:#4d4d4d;stroke-width:0.34622431px"
         id="path2052"
         inkscape:connector-curvature="0" />
      <path
         d="m 89.416008,195.72918 c 0,0.23764 0.203686,0.44132 0.441319,0.44132 h 4.71872 c 2.563045,0 4.260426,-1.25606 4.260426,-3.242 v -0.0339 c 0,-1.64646 -1.256062,-2.46121 -2.681862,-2.83463 0.967507,-0.3904 2.019883,-1.20514 2.019883,-2.81765 v -0.034 c 0,-0.74685 -0.271581,-1.37488 -0.763821,-1.86712 -0.661979,-0.66198 -1.748302,-1.05238 -3.089233,-1.05238 h -4.464113 c -0.237633,0 -0.441319,0.20369 -0.441319,0.44132 z m 0.882638,-5.9578 v -4.6678 h 4.00582 c 1.901066,0 2.970416,0.88264 2.970416,2.18962 v 0.0339 c 0,1.57856 -1.273035,2.44423 -3.055285,2.44423 z m 0,5.58438 v -4.76964 h 4.022794 c 2.342385,0 3.615421,0.84869 3.615421,2.30844 v 0.0339 c 0,1.4937 -1.290009,2.42726 -3.326867,2.42726 z"
         style="font-style:normal;font-variant:normal;font-weight:300;font-stretch:normal;font-family:'Gotham Rounded';-inkscape-font-specification:'Gotham Rounded Light';letter-spacing:-0.42597917px;fill:#4d4d4d;stroke-width:0.34622431px"
         id="path2054"
         inkscape:connector-curvature="0" />
      <path
         d="m 101.25626,195.79708 c 0,0.23763 0.20369,0.44132 0.44132,0.44132 0.23763,0 0.44132,-0.20369 0.44132,-0.44132 v -4.54898 h 3.887 l 3.64937,4.75266 c 0.10184,0.13579 0.22066,0.23764 0.3904,0.23764 0.23763,0 0.45829,-0.22066 0.45829,-0.4583 0,-0.10184 -0.0509,-0.20368 -0.13579,-0.30552 l -3.37779,-4.37925 c 2.00291,-0.27158 3.47963,-1.40882 3.47963,-3.39476 v -0.034 c 0,-0.84869 -0.33947,-1.64646 -0.89961,-2.20659 -0.7129,-0.7129 -1.88409,-1.1712 -3.34384,-1.1712 h -4.54898 c -0.23763,0 -0.44132,0.20369 -0.44132,0.44132 z m 0.88264,-5.34675 v -5.34675 h 4.05674 c 2.15567,0 3.41173,1.00145 3.41173,2.59699 v 0.034 c 0,1.71435 -1.47672,2.71581 -3.46265,2.71581 z"
         style="font-style:normal;font-variant:normal;font-weight:300;font-stretch:normal;font-family:'Gotham Rounded';-inkscape-font-specification:'Gotham Rounded Light';letter-spacing:-0.42597917px;fill:#4d4d4d;stroke-width:0.34622431px"
         id="path2056"
         inkscape:connector-curvature="0" />
      <path
         d="m 113.21533,195.79708 c 0,0.23763 0.20368,0.44132 0.44132,0.44132 0.23763,0 0.44132,-0.20369 0.44132,-0.44132 v -11.13482 c 0,-0.23763 -0.20369,-0.44132 -0.44132,-0.44132 -0.23764,0 -0.44132,0.20369 -0.44132,0.44132 z"
         style="font-style:normal;font-variant:normal;font-weight:300;font-stretch:normal;font-family:'Gotham Rounded';-inkscape-font-specification:'Gotham Rounded Light';letter-spacing:-0.42597917px;fill:#4d4d4d;stroke-width:0.34622431px"
         id="path2058"
         inkscape:connector-curvature="0" />
      <path
         d="m 122.6925,196.37419 c 1.98594,0 3.29292,-0.72988 4.49806,-1.85015 0.0679,-0.0679 0.13579,-0.16974 0.13579,-0.30553 0,-0.22066 -0.20368,-0.42434 -0.42434,-0.42434 -0.13579,0 -0.23763,0.0679 -0.30553,0.13579 -1.12027,1.06935 -2.25752,1.64646 -3.87003,1.64646 -2.83462,0 -5.02425,-2.34239 -5.02425,-5.34675 v -0.034 c 0,-2.98739 2.15568,-5.3128 5.00728,-5.3128 1.66343,0 2.80068,0.645 3.78516,1.54461 0.0679,0.0679 0.18671,0.11882 0.30553,0.11882 0.23763,0 0.45829,-0.20368 0.45829,-0.44132 0,-0.15276 -0.0849,-0.27158 -0.16974,-0.35645 -1.15422,-0.98448 -2.39331,-1.66343 -4.36227,-1.66343 -3.42871,0 -5.94083,2.7837 -5.94083,6.14452 v 0.034 c 0,3.41173 2.51212,6.11057 5.90688,6.11057 z"
         style="font-style:normal;font-variant:normal;font-weight:300;font-stretch:normal;font-family:'Gotham Rounded';-inkscape-font-specification:'Gotham Rounded Light';letter-spacing:-0.42597917px;fill:#4d4d4d;stroke-width:0.34622431px"
         id="path2060"
         inkscape:connector-curvature="0" />
      <path
         d="m 129.41727,195.79708 c 0,0.23763 0.20369,0.44132 0.44132,0.44132 0.23764,0 0.44132,-0.20369 0.44132,-0.44132 v -2.64792 l 2.95345,-2.98739 4.80358,5.90689 c 0.0679,0.0849 0.18672,0.16974 0.33948,0.16974 0.23763,0 0.45829,-0.22066 0.45829,-0.4583 0,-0.13579 -0.0509,-0.22066 -0.13579,-0.3225 l -4.83753,-5.92386 4.532,-4.56595 c 0.0849,-0.0849 0.13579,-0.18671 0.13579,-0.30553 0,-0.22066 -0.22065,-0.44132 -0.44131,-0.44132 -0.13579,0 -0.23764,0.0679 -0.30553,0.13579 l -7.50243,7.74006 v -7.43453 c 0,-0.23763 -0.20368,-0.44132 -0.44132,-0.44132 -0.23763,0 -0.44132,0.20369 -0.44132,0.44132 z"
         style="font-style:normal;font-variant:normal;font-weight:300;font-stretch:normal;font-family:'Gotham Rounded';-inkscape-font-specification:'Gotham Rounded Light';letter-spacing:-0.42597917px;fill:#4d4d4d;stroke-width:0.34622431px"
         id="path2062"
         inkscape:connector-curvature="0" />
      <path
         d="m 144.98195,196.34024 c 2.29146,0 3.93792,-1.32396 3.93792,-3.242 v -0.034 c 0,-1.73132 -1.15422,-2.71581 -3.90398,-3.27594 -2.81765,-0.57711 -3.46265,-1.34093 -3.46265,-2.59699 v -0.034 c 0,-1.23909 1.15422,-2.24054 2.90252,-2.24054 1.20514,0 2.24054,0.3225 3.27594,1.12027 0.0849,0.0679 0.18671,0.10184 0.28856,0.10184 0.23763,0 0.44132,-0.20369 0.44132,-0.44132 0,-0.16974 -0.10185,-0.28855 -0.18672,-0.35645 -1.08632,-0.81474 -2.18962,-1.22211 -3.78515,-1.22211 -2.2066,0 -3.81911,1.3579 -3.81911,3.12318 v 0.034 c 0,1.79922 1.15422,2.76673 4.00582,3.34384 2.69883,0.54316 3.36081,1.27303 3.36081,2.52909 v 0.034 c 0,1.35791 -1.22211,2.35936 -3.00436,2.35936 -1.62949,0 -2.81766,-0.47527 -4.00582,-1.54462 -0.0679,-0.0509 -0.16974,-0.10184 -0.28856,-0.10184 -0.23763,0 -0.44132,0.20369 -0.44132,0.44132 0,0.15276 0.0849,0.27158 0.16974,0.33948 1.34093,1.10329 2.73279,1.66343 4.51504,1.66343 z"
         style="font-style:normal;font-variant:normal;font-weight:300;font-stretch:normal;font-family:'Gotham Rounded';-inkscape-font-specification:'Gotham Rounded Light';letter-spacing:-0.42597917px;fill:#4d4d4d;stroke-width:0.34622431px"
         id="path2064"
         inkscape:connector-curvature="0" />
    </g>
    <g
       id="g2183"
       transform="translate(0,-8.4242846)">
      <g
         transform="translate(-0.6865015,0.7901585)"
         id="text2069"
         style="font-style:normal;font-weight:normal;font-size:13.63838959px;line-height:21.30998421px;font-family:sans-serif;text-align:center;letter-spacing:0px;word-spacing:0px;text-anchor:middle;fill:#4d4d4d;fill-opacity:1;stroke:none;stroke-width:0.26458332px;stroke-linecap:butt;stroke-linejoin:miter;stroke-opacity:1"
         aria-label="SHIT BRICKS">
        <path
           inkscape:connector-curvature="0"
           id="path2071"
           style="font-style:normal;font-variant:normal;font-weight:bold;font-stretch:normal;font-family:Gotham;-inkscape-font-specification:'Gotham Bold';letter-spacing:-0.34227258px;fill:#4d4d4d;stroke-width:0.26458332px"
           d="m 73.598627,185.72159 c 2.059397,0 3.505066,-1.0638 3.505066,-2.95953 v -0.0273 c 0,-1.66388 -1.091071,-2.35944 -3.027723,-2.86406 -1.650245,-0.42279 -2.059396,-0.62737 -2.059396,-1.25473 v -0.0273 c 0,-0.4637 0.42279,-0.83194 1.227455,-0.83194 0.804665,0 1.636606,0.3546 2.482186,0.94105 l 1.091072,-1.58205 c -0.968326,-0.77739 -2.154866,-1.21382 -3.545982,-1.21382 -1.950289,0 -3.341405,1.14562 -3.341405,2.8777 v 0.0273 c 0,1.89573 1.241093,2.42763 3.164106,2.91861 1.595692,0.40915 1.923013,0.68192 1.923013,1.21382 v 0.0273 c 0,0.55918 -0.518259,0.90014 -1.377477,0.90014 -1.091071,0 -1.991205,-0.45007 -2.850424,-1.15927 l -1.241093,1.48659 c 1.145625,1.02288 2.604932,1.5275 4.050602,1.5275 z" />
        <path
           inkscape:connector-curvature="0"
           id="path2073"
           style="font-style:normal;font-variant:normal;font-weight:bold;font-stretch:normal;font-family:Gotham;-inkscape-font-specification:'Gotham Bold';letter-spacing:-0.34227258px;fill:#4d4d4d;stroke-width:0.26458332px"
           d="M 78.597488,185.58521 H 80.6978 v -3.83239 h 3.873303 v 3.83239 h 2.100312 v -9.54688 h -2.100312 v 3.77784 H 80.6978 v -3.77784 h -2.100312 z" />
        <path
           inkscape:connector-curvature="0"
           id="path2075"
           style="font-style:normal;font-variant:normal;font-weight:bold;font-stretch:normal;font-family:Gotham;-inkscape-font-specification:'Gotham Bold';letter-spacing:-0.34227258px;fill:#4d4d4d;stroke-width:0.26458332px"
           d="m 88.712664,185.58521 h 2.100312 v -9.54688 h -2.100312 z" />
        <path
           inkscape:connector-curvature="0"
           id="path2077"
           style="font-style:normal;font-variant:normal;font-weight:bold;font-stretch:normal;font-family:Gotham;-inkscape-font-specification:'Gotham Bold';letter-spacing:-0.34227258px;fill:#4d4d4d;stroke-width:0.26458332px"
           d="m 95.079627,185.58521 h 2.100312 v -7.61023 h 2.904981 v -1.93665 h -7.91027 v 1.93665 h 2.904977 z" />
        <path
           inkscape:connector-curvature="0"
           id="path2079"
           style="font-style:normal;font-variant:normal;font-weight:bold;font-stretch:normal;font-family:Gotham;-inkscape-font-specification:'Gotham Bold';letter-spacing:-0.34227258px;fill:#4d4d4d;stroke-width:0.26458332px"
           d="m 105.11784,185.58521 h 4.54158 c 2.15487,0 3.57326,-0.87286 3.57326,-2.61858 v -0.0273 c 0,-1.28201 -0.68192,-1.92302 -1.78663,-2.34581 0.68192,-0.38187 1.25473,-0.98196 1.25473,-2.05939 v -0.0273 c 0,-0.65464 -0.21821,-1.18654 -0.65464,-1.62297 -0.54553,-0.54553 -1.40475,-0.84558 -2.49582,-0.84558 h -4.43248 z m 2.04576,-5.68721 v -2.01849 h 2.07303 c 0.8865,0 1.37748,0.3546 1.37748,0.98197 v 0.0273 c 0,0.70919 -0.58645,1.00924 -1.51386,1.00924 z m 0,3.84602 v -2.10031 h 2.42763 c 1.07743,0 1.55478,0.39551 1.55478,1.03652 v 0.0273 c 0,0.7092 -0.55918,1.03652 -1.48659,1.03652 z" />
        <path
           inkscape:connector-curvature="0"
           id="path2081"
           style="font-style:normal;font-variant:normal;font-weight:bold;font-stretch:normal;font-family:Gotham;-inkscape-font-specification:'Gotham Bold';letter-spacing:-0.34227258px;fill:#4d4d4d;stroke-width:0.26458332px"
           d="m 114.63143,185.58521 h 2.10031 v -3.055 h 1.62297 0.0273 l 2.04576,3.055 h 2.45491 l -2.33217,-3.4096 c 1.21382,-0.45007 2.04576,-1.41839 2.04576,-2.95953 v -0.0273 c 0,-0.90013 -0.2864,-1.65024 -0.8183,-2.18214 -0.62737,-0.62737 -1.56842,-0.96833 -2.78223,-0.96833 h -4.36429 z m 2.10031,-4.90983 v -2.74131 h 2.08668 c 1.02288,0 1.65024,0.4637 1.65024,1.36384 v 0.0273 c 0,0.80467 -0.58645,1.3502 -1.60933,1.3502 z" />
        <path
           inkscape:connector-curvature="0"
           id="path2083"
           style="font-style:normal;font-variant:normal;font-weight:bold;font-stretch:normal;font-family:Gotham;-inkscape-font-specification:'Gotham Bold';letter-spacing:-0.34227258px;fill:#4d4d4d;stroke-width:0.26458332px"
           d="m 124.2405,185.58521 h 2.10031 v -9.54688 h -2.10031 z" />
        <path
           inkscape:connector-curvature="0"
           id="path2085"
           style="font-style:normal;font-variant:normal;font-weight:bold;font-stretch:normal;font-family:Gotham;-inkscape-font-specification:'Gotham Bold';letter-spacing:-0.34227258px;fill:#4d4d4d;stroke-width:0.26458332px"
           d="m 132.8578,185.74887 c 1.84118,0 2.93225,-0.65465 3.91421,-1.7048 l -1.33656,-1.3502 c -0.75011,0.68192 -1.41839,1.11834 -2.50946,1.11834 -1.63661,0 -2.7686,-1.36383 -2.7686,-3.00044 v -0.0273 c 0,-1.6366 1.15927,-2.97317 2.7686,-2.97317 0.95468,0 1.7048,0.40915 2.44127,1.07744 l 1.33656,-1.54114 c -0.88649,-0.87286 -1.96393,-1.47295 -3.76419,-1.47295 -2.93226,0 -4.97802,2.22306 -4.97802,4.9371 v 0.0273 c 0,2.74131 2.08668,4.90982 4.89619,4.90982 z" />
        <path
           inkscape:connector-curvature="0"
           id="path2087"
           style="font-style:normal;font-variant:normal;font-weight:bold;font-stretch:normal;font-family:Gotham;-inkscape-font-specification:'Gotham Bold';letter-spacing:-0.34227258px;fill:#4d4d4d;stroke-width:0.26458332px"
           d="m 138.1111,185.58521 h 2.10031 v -2.91862 l 1.10471,-1.14563 2.95953,4.06425 h 2.5231 l -4.06424,-5.49628 3.88694,-4.0506 h -2.53674 l -3.8733,4.17335 v -4.17335 h -2.10031 z" />
        <path
           inkscape:connector-curvature="0"
           id="path2089"
           style="font-style:normal;font-variant:normal;font-weight:bold;font-stretch:normal;font-family:Gotham;-inkscape-font-specification:'Gotham Bold';letter-spacing:-0.34227258px;fill:#4d4d4d;stroke-width:0.26458332px"
           d="m 150.99401,185.72159 c 2.0594,0 3.50507,-1.0638 3.50507,-2.95953 v -0.0273 c 0,-1.66388 -1.09107,-2.35944 -3.02772,-2.86406 -1.65025,-0.42279 -2.0594,-0.62737 -2.0594,-1.25473 v -0.0273 c 0,-0.4637 0.42279,-0.83194 1.22745,-0.83194 0.80467,0 1.63661,0.3546 2.48219,0.94105 l 1.09107,-1.58205 c -0.96832,-0.77739 -2.15486,-1.21382 -3.54598,-1.21382 -1.95029,0 -3.3414,1.14562 -3.3414,2.8777 v 0.0273 c 0,1.89573 1.24109,2.42763 3.1641,2.91861 1.59569,0.40915 1.92301,0.68192 1.92301,1.21382 v 0.0273 c 0,0.55918 -0.51825,0.90014 -1.37747,0.90014 -1.09107,0 -1.99121,-0.45007 -2.85043,-1.15927 l -1.24109,1.48659 c 1.14563,1.02288 2.60493,1.5275 4.0506,1.5275 z" />
      </g>
      <g
         transform="matrix(1.1118069,0,0,0.77244458,129.87391,43.453185)"
         id="g2145"
         style="fill:#4d4d4d;stroke-width:1.07907498">
        <path
           sodipodi:nodetypes="czzzzzzzzzzzzzzzzzzzzzzzzzzzzzzzzzzzzzzzzzzzzzzzzzzc"
           inkscape:connector-curvature="0"
           id="path2133"
           d="m -28.265911,125.43132 c 0.429517,-0.42952 0.944231,-0.24149 1.52651,-0.24149 0,0 0.759742,-0.25657 1.604938,-0.22639 0.845195,0.0302 1.178861,0.25658 1.858036,0.33204 0.679175,0.0755 1.738995,-0.2113 2.372892,-0.22639 0.633897,-0.0151 1.038291,-0.13583 1.79293,-0.10565 0.754639,0.0302 0.862357,0.16602 1.601904,0.16602 0.739546,0 0.669629,-0.12074 1.454453,-0.12074 0.784825,0 0.410018,0.27167 1.421235,0.25658 1.011216,-0.0151 0.845119,-0.28677 1.82615,-0.24149 0.98103,0.0453 0.514779,-0.0755 1.510902,-0.0604 0.996124,0.0151 0.773946,0.0302 1.754977,0.0604 0.9810305,0.0302 0.352681,0.0906 1.4091754,0.10565 1.0564944,0.0151 0.2481827,-0.18458 1.2453001,-0.18111 0.9971173,0.003 0.3185645,-0.051 1.1849289,0.0453 0.8663645,0.0963 0.7691851,0.10316 1.0131326,0.34713 0.2439476,0.24395 0.1722722,0.17104 0.1509278,1.05683 -0.021344,0.88579 0.05595,0.4269 0.045278,1.17395 -0.010672,0.74706 -0.045278,0.33664 -0.045278,1.05168 0,0.71504 0.016924,0.11967 -0.015093,1.08017 -0.032017,0.9605 0.1119007,0.73777 0.090557,1.48482 -0.021344,0.74705 -0.069213,0.41439 -0.090557,1.1401 -0.021344,0.72571 0.093146,0.75223 0.135835,1.52063 0.042689,0.7684 -0.1527592,0.70987 -0.1207422,1.40356 0.032017,0.69369 0.1056495,0.71716 0.1056495,1.21921 0,0.50205 -0.012154,0.49799 -0.3320412,0.81787 -0.3198874,0.31989 -0.7535754,0.20241 -1.2625696,0.16602 -0.5089942,-0.0364 -0.4614942,0.16344 -1.3686317,0.12074 -0.9071375,-0.0427 -0.4117955,-0.11453 -1.5430493,-0.13583 -1.1312543,-0.0213 -0.5211072,0.18111 -1.3962283,0.18111 -0.875121,0 -0.557544,-0.11453 -1.347287,-0.13583 -0.789743,-0.0213 -0.461495,0.11635 -1.347288,0.10565 -0.885793,-0.0107 -0.551293,0.0773 -1.45843,0.056 -0.907138,-0.0213 -0.270467,0.0195 -1.038866,0.0195 -0.768399,0 -0.500077,-0.078 -1.407214,-0.12074 -0.907137,-0.0427 -0.178525,0.0968 -1.288433,0.0755 -1.109909,-0.0213 -0.237373,-0.006 -1.368632,0.0151 -1.131254,0.0213 -0.437874,-0.0479 -1.67585,-0.0906 -1.237976,-0.0427 -0.493511,0.14204 -1.646109,0.12074 -1.152598,-0.0213 -0.217556,0.006 -1.263427,-0.0151 -1.045876,-0.0213 -0.789299,0.0879 -1.835175,0.0453 -1.045876,-0.0427 -0.629347,-0.0493 -1.2854,-0.13477 -0.656053,-0.0854 -1.0064,0.13746 -1.320206,-0.17637 -0.313805,-0.31381 -0.194776,-0.76096 -0.222729,-1.45979 -0.02795,-0.69883 -0.01875,-0.38936 0.04528,-1.49927 0.06403,-1.10991 -0.111897,-0.5627 -0.09056,-1.54454 0.02134,-0.98184 0.144681,-0.42838 0.166021,-1.55963 0.02134,-1.13125 -0.189959,-0.62049 -0.211299,-1.55964 -0.02134,-0.93915 0.03643,-0.66316 0.01509,-1.55963 -0.02134,-0.89647 0.105649,-0.81625 0.105649,-1.49927 0,-0.68302 0.113823,-0.84335 0.54334,-1.27286 z"
           style="fill:#4d4d4d;fill-opacity:1;stroke:none;stroke-width:1.14921498;stroke-linecap:round;stroke-linejoin:round;stroke-miterlimit:4;stroke-dasharray:none;stroke-dashoffset:0;stroke-opacity:1;paint-order:stroke fill markers" />
        <path
           sodipodi:nodetypes="czzsssssssssssszsssssszssssssszc"
           inkscape:connector-curvature="0"
           id="path2135"
           d="m -20.926281,114.0374 c 0.436764,-0.43678 0.906262,-0.33104 1.237296,-0.33104 0.331026,0 0.982346,-0.16051 1.396134,-0.14405 0.413779,0.0166 1.462251,0.14778 1.776711,0.14405 0,0 0.905651,0.0273 1.43641,0.0126 0.688415,-0.0191 1.358622,-0.0457 1.358622,-0.0457 0.263573,-0.0392 0.843817,-0.14267 1.334063,0.3476 0.237962,0.23796 0.389904,0.56523 0.386897,0.91193 -0.0032,0.36751 -0.168888,0.754 -0.168888,0.97362 0,0 0.186734,0.70131 0.189765,1.08643 0.0032,0.3579 -0.131745,0.71776 -0.119548,0.99988 0.01799,0.41675 0.06791,0.60906 0.0847,1.24677 0.01183,0.44407 -0.04879,0.90202 -0.04952,1.1779 -0.0016,0.53247 -0.0419,0.43628 -0.04166,1.17476 1.3e-4,0.39711 0.05738,0.78808 0.05333,0.9436 -0.01167,0.44473 0.04595,0.86159 -0.2971,1.20465 -0.343052,0.34305 -0.661119,0.14407 -1.550426,0.11104 0,0 -0.552747,0.0221 -1.212286,0.0377 -0.478866,0.0109 -0.968609,-0.0473 -1.11829,-0.0543 -0.355857,-0.0166 -0.89802,-0.0332 -1.361455,-0.0585 -0.223407,-0.0124 -0.716173,0.18928 -1.071236,0.17811 -0.381492,-0.0124 -0.789996,-0.1699 -0.982873,-0.1699 -0.372407,0 -0.990629,0.22379 -1.396475,-0.18206 -0.405854,-0.40586 -0.248271,-1.31711 -0.248271,-1.61695 0,0 0.114912,-0.49637 0.114572,-1.04461 -1.94e-4,-0.31305 -0.117952,-0.66202 -0.114572,-0.89716 0.0041,-0.28827 -0.05138,-0.40151 -0.05325,-0.8467 -0.0016,-0.38925 0.09536,-0.69991 0.10295,-0.86932 0.01888,-0.42107 -0.125562,-0.66183 -0.125562,-1.31757 0,-0.47054 0.125562,-1.22354 0.125562,-1.36534 0,-0.35351 -0.122288,-1.17132 0.314476,-1.6081 z"
           style="fill:#4d4d4d;fill-opacity:1;stroke:none;stroke-width:1.14921498;stroke-linecap:round;stroke-linejoin:round;stroke-miterlimit:4;stroke-dasharray:none;stroke-dashoffset:0;stroke-opacity:1;paint-order:stroke fill markers" />
        <g
           id="g868"
           transform="translate(-0.3592372)"
           style="stroke-width:1.07907498">
          <path
             sodipodi:nodetypes="czzzzzzzzzzzzzzzzzzzzzzzzzzzzzzzzzzzzzzzzzzzzzzzzzzc"
             inkscape:connector-curvature="0"
             id="path2137"
             d="m -35.474718,139.24333 c 0.336808,-0.42952 0.740424,-0.24149 1.197021,-0.24149 0,0 0.595756,-0.25657 1.25852,-0.22639 0.662764,0.0302 0.92441,0.25658 1.456989,0.33204 0.532578,0.0755 1.363642,-0.2113 1.860715,-0.22639 0.497074,-0.0151 0.814181,-0.13583 1.405936,-0.10565 0.591754,0.0302 0.676221,0.16602 1.256141,0.16602 0.579919,0 0.525093,-0.12074 1.140517,-0.12074 0.615424,0 0.321517,0.27167 1.114468,0.25658 0.792951,-0.0151 0.662705,-0.28677 1.431985,-0.24149 0.76928,0.0453 0.403667,-0.0755 1.184782,-0.0604 0.781116,0.0151 0.606894,0.0302 1.376173,0.0604 0.769281,0.0302 0.276557,0.0906 1.105013,0.10565 0.828455,0.0151 0.194613,-0.18458 0.976508,-0.18111 0.781895,0.003 0.249804,-0.051 0.929168,0.0453 0.679364,0.0963 0.603161,0.10316 0.794453,0.34713 0.191293,0.24395 0.135088,0.17104 0.118351,1.05683 -0.01673,0.88579 0.04387,0.4269 0.03551,1.17395 -0.0084,0.74706 -0.03551,0.33664 -0.03551,1.05168 0,0.71504 0.01327,0.11967 -0.01183,1.08017 -0.02511,0.9605 0.08775,0.73777 0.07101,1.48482 -0.01673,0.74705 -0.05427,0.41439 -0.07101,1.1401 -0.01673,0.72571 0.07304,0.75223 0.106516,1.52063 0.03347,0.7684 -0.119787,0.70987 -0.09468,1.40356 0.02511,0.69369 0.08285,0.81188 0.08285,1.21921 0,0.40733 -0.0095,0.49799 -0.260372,0.81787 -0.250841,0.31989 -0.59092,0.20241 -0.990051,0.16602 -0.39913,-0.0364 -0.361883,0.16344 -1.073219,0.12074 -0.711337,-0.0427 -0.322912,-0.11453 -1.20999,-0.13583 -0.887078,-0.0213 -0.408629,0.18111 -1.094859,0.18111 -0.686231,0 -0.437201,-0.11453 -1.056482,-0.13583 -0.619281,-0.0213 -0.361884,0.11635 -1.056483,0.10565 -0.694599,-0.0107 -0.432299,0.0773 -1.143635,0.056 -0.711337,-0.0213 -0.212088,0.0195 -0.814632,0.0195 -0.602544,0 -0.392138,-0.078 -1.103474,-0.12074 -0.711337,-0.0427 -0.139992,0.0968 -1.010332,0.0755 -0.870341,-0.0213 -0.186137,-0.006 -1.07322,0.0151 -0.887078,0.0213 -0.343361,-0.0479 -1.314126,-0.0906 -0.970765,-0.0427 -0.386989,0.14204 -1.290805,0.12074 -0.903816,-0.0213 -0.170598,0.006 -0.990723,-0.0151 -0.820129,-0.0213 -0.618933,0.0879 -1.439062,0.0453 -0.820129,-0.0427 -0.493505,-0.0493 -1.007953,-0.13477 -0.514447,-0.0854 -0.789173,0.13746 -1.035246,-0.17637 -0.246072,-0.31381 -0.152734,-0.76096 -0.174654,-1.45979 -0.02192,-0.69883 -0.0147,-0.38936 0.03551,-1.49927 0.05021,-1.10991 -0.08774,-0.5627 -0.07101,-1.54454 0.01673,-0.98184 0.113453,-0.42838 0.130187,-1.55963 0.01673,-1.13125 -0.148958,-0.62049 -0.165691,-1.55964 -0.01673,-0.93915 0.02857,-0.66316 0.01183,-1.55963 -0.01673,-0.89647 0.08285,-0.81625 0.08285,-1.49927 0,-0.68302 0.08926,-0.84335 0.426062,-1.27286 z"
             style="fill:#4d4d4d;fill-opacity:1;stroke:none;stroke-width:1.14921498;stroke-linecap:round;stroke-linejoin:round;stroke-miterlimit:4;stroke-dasharray:none;stroke-dashoffset:0;stroke-opacity:1;paint-order:stroke fill markers" />
          <path
             style="fill:#4d4d4d;fill-opacity:1;stroke:none;stroke-width:1.14921498;stroke-linecap:round;stroke-linejoin:round;stroke-miterlimit:4;stroke-dasharray:none;stroke-dashoffset:0;stroke-opacity:1;paint-order:stroke fill markers"
             d="m 2.8477334,151.02375 c -0.336808,0.42952 -0.740424,0.24149 -1.197021,0.24149 0,0 -0.5957559,0.25657 -1.25851995,0.22639 -0.662764,-0.0302 -0.92441,-0.25658 -1.45698905,-0.33204 -0.532578,-0.0755 -1.3636416,0.2113 -1.8607146,0.22639 -0.497074,0.0151 -0.814181,0.13583 -1.405936,0.10565 -0.591754,-0.0302 -0.676221,-0.16602 -1.256141,-0.16602 -0.579919,0 -0.525093,0.12074 -1.140517,0.12074 -0.615424,0 -0.321517,-0.27167 -1.114468,-0.25658 -0.792951,0.0151 -0.662705,0.28677 -1.431985,0.24149 -0.7692798,-0.0453 -0.403667,0.0755 -1.1847818,0.0604 -0.781116,-0.0151 -0.606894,-0.0302 -1.376173,-0.0604 -0.769281,-0.0302 -0.276557,-0.0906 -1.105013,-0.10565 -0.828455,-0.0151 -0.194613,0.18458 -0.976508,0.18111 -0.781895,-0.003 -0.249804,0.051 -0.929168,-0.0453 -0.679364,-0.0963 -0.603161,-0.10316 -0.794453,-0.34713 -0.191293,-0.24395 -0.135088,-0.17104 -0.118351,-1.05683 0.01673,-0.88579 -0.04387,-0.4269 -0.03551,-1.17395 0.0084,-0.74706 0.03551,-0.33664 0.03551,-1.05168 0,-0.71504 -0.01327,-0.11967 0.01183,-1.08017 0.02511,-0.9605 -0.08775,-0.73777 -0.07101,-1.48482 0.01673,-0.74705 0.05427,-0.41439 0.07101,-1.1401 0.01673,-0.72571 -0.07304,-0.75223 -0.106516,-1.52063 -0.03347,-0.7684 0.119787,-0.70987 0.09468,-1.40356 -0.02511,-0.69369 -0.08285,-0.81188 -0.08285,-1.21921 0,-0.40733 0.0095,-0.49799 0.260372,-0.81787 0.250841,-0.31989 0.59092,-0.20241 0.990051,-0.16602 0.39913,0.0364 0.361883,-0.16344 1.073219,-0.12074 0.711337,0.0427 0.322912,0.11453 1.20999,0.13583 0.887078,0.0213 0.408629,-0.18111 1.094859,-0.18111 0.686231,0 0.437201,0.11453 1.056482,0.13583 0.6192808,0.0213 0.3618838,-0.11635 1.0564828,-0.10565 0.694599,0.0107 0.432299,-0.0773 1.143635,-0.056 0.711337,0.0213 0.212088,-0.0195 0.814632,-0.0195 0.602544,0 0.392138,0.078 1.103474,0.12074 0.711337,0.0427 0.139992,-0.0968 1.010332,-0.0755 0.870341,0.0213 0.186137,0.006 1.07322,-0.0151 0.887078,-0.0213 0.343361,0.0479 1.314126,0.0906 0.9707656,0.0427 0.386989,-0.14204 1.2908056,-0.12074 0.90381605,0.0213 0.170598,-0.006 0.99072305,0.0151 0.820129,0.0213 0.618933,-0.0879 1.43906205,-0.0453 0.8201289,0.0427 0.4935049,0.0493 1.0079529,0.13477 0.514447,0.0854 0.789173,-0.13746 1.035246,0.17637 0.246072,0.31381 0.152734,0.76096 0.174654,1.45979 0.02192,0.69883 0.0147,0.38936 -0.03551,1.49927 -0.05021,1.10991 0.08774,0.5627 0.07101,1.54454 -0.01673,0.98184 -0.113453,0.42838 -0.130187,1.55963 -0.01673,1.13125 0.148958,0.62049 0.165691,1.55964 0.01673,0.93915 -0.02857,0.66316 -0.01183,1.55963 0.01673,0.89647 -0.08285,0.81625 -0.08285,1.49927 0,0.68302 -0.08926,0.84335 -0.426062,1.27286 z"
             id="path2139"
             inkscape:connector-curvature="0"
             sodipodi:nodetypes="czzzzzzzzzzzzzzzzzzzzzzzzzzzzzzzzzzzzzzzzzzzzzzzzzzc" />
        </g>
        <g
           id="g864"
           transform="translate(0.080235)"
           style="stroke-width:1.07907498">
          <path
             style="fill:#4d4d4d;fill-opacity:1;stroke:none;stroke-width:1.14921498;stroke-linecap:round;stroke-linejoin:round;stroke-miterlimit:4;stroke-dasharray:none;stroke-dashoffset:0;stroke-opacity:1;paint-order:stroke fill markers"
             d="m -6.441759,153.12869 c 0.336808,-0.42952 0.740424,-0.24149 1.197021,-0.24149 0,0 0.595756,-0.25657 1.25852,-0.22639 0.662764,0.0302 0.92441,0.25658 1.456989,0.33204 0.532578,0.0755 1.3636421,-0.2113 1.86071507,-0.22639 0.497074,-0.0151 0.814181,-0.13583 1.40593597,-0.10565 0.59175396,0.0302 0.67622096,0.16602 1.25614096,0.16602 0.579919,0 0.525093,-0.12074 1.140517,-0.12074 0.615424,0 0.321517,0.27167 1.114468,0.25658 0.792951,-0.0151 0.662705,-0.28677 1.431985,-0.24149 0.76928,0.0453 0.403667,-0.0755 1.184782,-0.0604 0.781116,0.0151 0.606894,0.0302 1.376173,0.0604 0.769281,0.0302 0.276557,0.0906 1.105013,0.10565 0.828455,0.0151 0.194613,-0.18458 0.976508,-0.18111 0.781895,0.003 0.249804,-0.051 0.929168,0.0453 0.679364,0.0963 0.603161,0.10316 0.794453,0.34713 0.191293,0.24395 0.135088,0.17104 0.118351,1.05683 -0.01673,0.88579 0.04387,0.4269 0.03551,1.17395 -0.0084,0.74706 -0.03551,0.33664 -0.03551,1.05168 0,0.71504 0.01327,0.11967 -0.01183,1.08017 -0.02511,0.9605 0.08775,0.73777 0.07101,1.48482 -0.01673,0.74705 -0.05427,0.41439 -0.07101,1.1401 -0.01673,0.72571 0.07304,0.75223 0.106516,1.52063 0.03347,0.7684 -0.119787,0.70987 -0.09468,1.40356 0.02511,0.69369 0.08285,0.81188 0.08285,1.21921 0,0.40733 -0.0095,0.49799 -0.260372,0.81787 -0.250841,0.31989 -0.59092,0.20241 -0.990051,0.16602 -0.39913,-0.0364 -0.361883,0.16344 -1.0732188,0.12074 -0.7113372,-0.0427 -0.3229122,-0.11453 -1.2099902,-0.13583 -0.887078,-0.0213 -0.408629,0.18111 -1.094859,0.18111 -0.686231,0 -0.437201,-0.11453 -1.056482,-0.13583 -0.619281,-0.0213 -0.361884,0.11635 -1.056483,0.10565 -0.694599,-0.0107 -0.432299,0.0773 -1.143635,0.056 -0.711337,-0.0213 -0.212088,0.0195 -0.814632,0.0195 -0.602544,0 -0.392138,-0.078 -1.103474,-0.12074 -0.711337,-0.0427 -0.139992,0.0968 -1.010332,0.0755 -0.87034093,-0.0213 -0.186137,-0.006 -1.07321993,0.0151 -0.887078,0.0213 -0.343361,-0.0479 -1.314126,-0.0906 -0.97076507,-0.0427 -0.38698907,0.14204 -1.29080507,0.12074 -0.903816,-0.0213 -0.170598,0.006 -0.990723,-0.0151 -0.820129,-0.0213 -0.618933,0.0879 -1.439062,0.0453 -0.820129,-0.0427 -0.493505,-0.0493 -1.007953,-0.13477 -0.514447,-0.0854 -0.789173,0.13746 -1.035246,-0.17637 -0.246072,-0.31381 -0.152734,-0.76096 -0.174654,-1.45979 -0.02192,-0.69883 -0.0147,-0.38936 0.03551,-1.49927 0.05021,-1.10991 -0.08774,-0.5627 -0.07101,-1.54454 0.01673,-0.98184 0.113453,-0.42838 0.130187,-1.55963 0.01673,-1.13125 -0.148958,-0.62049 -0.165691,-1.55964 -0.01673,-0.93915 0.02857,-0.66316 0.01183,-1.55963 -0.01673,-0.89647 0.08285,-0.81625 0.08285,-1.49927 0,-0.68302 0.08926,-0.84335 0.426062,-1.27286 z"
             id="path2141"
             inkscape:connector-curvature="0"
             sodipodi:nodetypes="czzzzzzzzzzzzzzzzzzzzzzzzzzzzzzzzzzzzzzzzzzzzzzzzzzc" />
          <path
             sodipodi:nodetypes="czzzzzzzzzzzzzzzzzzzzzzzzzzzzzzzzzzzzzzzzzzzzzzzzzzc"
             inkscape:connector-curvature="0"
             id="path845"
             d="m -27.064169,164.90911 c -0.336808,0.42952 -0.740424,0.24149 -1.197021,0.24149 0,0 -0.595756,0.25657 -1.25852,0.22639 -0.662764,-0.0302 -0.92441,-0.25658 -1.456989,-0.33204 -0.532578,-0.0755 -1.363642,0.2113 -1.860715,0.22639 -0.497074,0.0151 -0.814181,0.13583 -1.405936,0.10565 -0.591754,-0.0302 -0.676221,-0.16602 -1.256141,-0.16602 -0.579919,0 -0.525093,0.12074 -1.140517,0.12074 -0.615424,0 -0.321517,-0.27167 -1.114468,-0.25658 -0.792951,0.0151 -0.662705,0.28677 -1.431985,0.24149 -0.76928,-0.0453 -0.403667,0.0755 -1.184782,0.0604 -0.781116,-0.0151 -0.606894,-0.0302 -1.376173,-0.0604 -0.769281,-0.0302 -0.276557,-0.0906 -1.105013,-0.10565 -0.828455,-0.0151 -0.194613,0.18458 -0.976508,0.18111 -0.781895,-0.003 -0.249804,0.051 -0.929168,-0.0453 -0.679364,-0.0963 -0.603161,-0.10316 -0.794453,-0.34713 -0.191293,-0.24395 -0.135088,-0.17104 -0.118351,-1.05683 0.01673,-0.88579 -0.04387,-0.4269 -0.03551,-1.17395 0.0084,-0.74706 0.03551,-0.33664 0.03551,-1.05168 0,-0.71504 -0.01327,-0.11967 0.01183,-1.08017 0.02511,-0.9605 -0.08775,-0.73777 -0.07101,-1.48482 0.01673,-0.74705 0.05427,-0.41439 0.07101,-1.1401 0.01673,-0.72571 -0.07304,-0.75223 -0.106516,-1.52063 -0.03347,-0.7684 0.119787,-0.70987 0.09468,-1.40356 -0.02511,-0.69369 -0.08285,-0.81188 -0.08285,-1.21921 0,-0.40733 0.0095,-0.49799 0.260372,-0.81787 0.250841,-0.31989 0.59092,-0.20241 0.990051,-0.16602 0.39913,0.0364 0.361883,-0.16344 1.073219,-0.12074 0.711337,0.0427 0.322912,0.11453 1.20999,0.13583 0.887078,0.0213 0.408629,-0.18111 1.094859,-0.18111 0.686231,0 0.437201,0.11453 1.056482,0.13583 0.619281,0.0213 0.361884,-0.11635 1.056483,-0.10565 0.694599,0.0107 0.432299,-0.0773 1.143635,-0.056 0.711337,0.0213 0.212088,-0.0195 0.814632,-0.0195 0.602544,0 0.392138,0.078 1.103474,0.12074 0.711337,0.0427 0.139992,-0.0968 1.010332,-0.0755 0.870341,0.0213 0.186137,0.006 1.07322,-0.0151 0.887078,-0.0213 0.343361,0.0479 1.314126,0.0906 0.970765,0.0427 0.386989,-0.14204 1.290805,-0.12074 0.903816,0.0213 0.170598,-0.006 0.990723,0.0151 0.820129,0.0213 0.618933,-0.0879 1.439062,-0.0453 0.820129,0.0427 0.493505,0.0493 1.007953,0.13477 0.514447,0.0854 0.789173,-0.13746 1.035246,0.17637 0.246072,0.31381 0.152734,0.76096 0.174654,1.45979 0.02192,0.69883 0.0147,0.38936 -0.03551,1.49927 -0.05021,1.10991 0.08774,0.5627 0.07101,1.54454 -0.01673,0.98184 -0.113453,0.42838 -0.130187,1.55963 -0.01673,1.13125 0.148958,0.62049 0.165691,1.55964 0.01673,0.93915 -0.02857,0.66316 -0.01183,1.55963 0.01673,0.89647 -0.08285,0.81625 -0.08285,1.49927 0,0.68302 -0.08926,0.84335 -0.426062,1.27286 z"
             style="fill:#4d4d4d;fill-opacity:1;stroke:none;stroke-width:1.14921498;stroke-linecap:round;stroke-linejoin:round;stroke-miterlimit:4;stroke-dasharray:none;stroke-dashoffset:0;stroke-opacity:1;paint-order:stroke fill markers" />
          <path
             id="path858"
             transform="matrix(0.26458333,0,0,0.33294351,-66.672729,78.929439)"
             d="m 211.96094,221.73633 v 0.002 c -0.78142,0.0223 -1.17716,0.095 -1.91211,0.13672 -0.48671,-0.0221 -0.94608,-0.0416 -2.16992,-0.0606 -0.97275,-0.0149 -1.42539,0.0173 -1.76563,0.0586 -0.13873,0.003 -0.14156,0.008 -1.61523,-0.0195 -1.3807,-0.0259 -1.83769,0.0501 -2.14063,0.14062 -0.61951,0.0299 -1.03215,0.12252 -1.4043,0.23242 -0.33518,0.01 -0.73817,0.0111 -1.33398,-0.01 -3.66904,-0.12825 -1.61406,-0.33552 -4.9668,-0.27149 -0.4769,0.009 -0.31338,0.0115 -0.58398,0.0195 -0.10097,-0.004 -0.17543,-0.0137 -0.29297,-0.0137 -0.60536,0 -1.03368,0.0261 -1.38281,0.0625 -0.17755,0.007 -0.32206,0.005 -1.79688,-0.0234 -2.52665,-0.0491 -1.87929,0.18258 -2.64258,0.23633 -1.01306,-0.12501 -1.64698,-0.34765 -3.23632,-0.41211 -0.76455,-0.031 -1.39009,-0.001 -1.98047,0.043 -0.0554,-3.1e-4 -0.0695,-0.004 -0.12891,-0.004 -0.90745,0 -1.11764,0.021 -1.25586,0.0391 v 0.0898 c -0.61445,0.0671 -1.2299,0.13297 -1.94726,0.15039 -1.8787,0.0454 -5.02032,0.90646 -7.03321,0.67969 -2.0129,-0.22677 -3.00091,-0.90734 -5.50586,-0.99805 -2.50492,-0.0907 -4.75781,0.68164 -4.75781,0.68164 -1.72572,0 -3.25045,-0.56546 -4.52344,0.72461 -1.27294,1.29004 -1.61132,1.77276 -1.61132,3.82422 0,2.05146 -0.37574,1.80943 -0.3125,4.50196 0.0633,2.69255 -0.10823,1.86284 -0.0449,4.68359 0.0632,2.82075 0.6902,1.28782 0.62696,4.68555 -0.0632,3.39772 -0.42896,1.73462 -0.49219,4.68359 -0.0632,2.94897 0.45736,1.30504 0.26758,4.63867 -0.18977,3.33363 -0.21566,2.40692 -0.13281,4.50586 0.0829,2.09895 -0.2699,3.44028 0.66015,4.38281 0.93005,0.9426 1.96774,0.27481 3.91211,0.53125 1.94437,0.2568 0.70889,0.27422 3.80859,0.40235 3.09971,0.12795 2.33976,-0.19874 5.43946,-0.13477 3.09969,0.0634 0.32813,-0.0178 3.74414,0.0449 3.41599,0.064 1.20988,-0.4915 4.8789,-0.36328 3.66904,0.12825 1.61406,0.33741 4.9668,0.27344 0.46299,-0.009 0.29879,-0.0116 0.56641,-0.0195 0.10237,0.004 0.19135,0.0117 0.31055,0.0117 0.60536,0 1.03172,-0.0261 1.38085,-0.0625 0.17755,-0.008 0.32385,-0.005 1.79883,0.0234 2.5291,0.0492 1.8777,-0.18281 2.64453,-0.23632 1.01083,0.12511 1.64702,0.34773 3.23438,0.41211 0.76198,0.0309 1.3839,10e-4 1.97265,-0.043 0.0585,3.5e-4 0.0737,0.004 0.13672,0.004 2.27732,0 0.39155,-0.12257 3.08008,-0.0586 2.68851,0.064 1.69702,-0.20011 4.32227,-0.16797 2.62526,0.0321 1.65158,-0.38233 3.99219,-0.31836 0.5471,0.0149 0.91842,0.0454 1.20312,0.082 10e-4,1.8e-4 0.004,-1.8e-4 0.006,0 0.87046,0.22934 1.78218,0.45284 3.13867,0.50196 2.50493,0.0907 4.75781,-0.68165 4.75781,-0.68165 1.72572,0 3.25046,0.56543 4.52344,-0.7246 1.27295,-1.29004 1.61133,-1.77078 1.61133,-3.82227 0,-2.05146 0.37573,-1.81135 0.3125,-4.50391 -0.0633,-2.69256 0.10823,-1.86284 0.0449,-4.68359 -0.0632,-2.82075 -0.69018,-1.28782 -0.62695,-4.68555 0.0632,-3.39769 0.42895,-1.73462 0.49219,-4.68359 0.0632,-2.94897 -0.45733,-1.30504 -0.26758,-4.63867 0.18977,-3.33363 0.21566,-2.40496 0.13281,-4.50391 -0.0828,-2.09894 0.26985,-3.44226 -0.66016,-4.38476 -0.93004,-0.94263 -1.96774,-0.27271 -3.91211,-0.5293 -1.94437,-0.2568 -0.70889,-0.27812 -3.80859,-0.40625 -0.77492,-0.0318 -1.30762,-0.0368 -1.7207,-0.0254 z"
             style="fill:#4d4d4d;fill-opacity:1;stroke:none;stroke-width:3.87199473;stroke-linecap:round;stroke-linejoin:round;stroke-miterlimit:4;stroke-dasharray:none;stroke-dashoffset:0;stroke-opacity:1;paint-order:stroke fill markers"
             inkscape:connector-curvature="0" />
        </g>
      </g>
    </g>
    <path
       inkscape:connector-curvature="0"
       style="fill:#4d4d4d;fill-opacity:1;stroke:none;stroke-width:1.06500006;stroke-linecap:round;stroke-linejoin:round;stroke-miterlimit:4;stroke-dasharray:none;stroke-dashoffset:0;stroke-opacity:1;paint-order:stroke fill markers"
       d="m 0.0849632,139.13009 c -0.7819,-0.002 -0.14823,0.15574 -0.97668,0.14374 -0.82846,-0.012 -0.33557,-0.0598 -1.10485,-0.0838 -0.76928,-0.024 -0.59503,-0.0361 -1.37614,-0.0481 -0.78112,-0.012 -0.41566,0.0841 -1.18494,0.0481 -0.76928,-0.036 -0.639,0.17978 -1.43195,0.19178 -0.79296,0.012 -0.49924,-0.20368 -1.11467,-0.20368 -0.61542,0 -0.56058,0.0957 -1.1405,0.0957 -0.57991,0 -0.6645,-0.10783 -1.25625,-0.13183 -0.5917502,-0.024 -0.9085202,0.0722 -1.4056002,0.0842 -0.49707,0.012 -1.32829,0.23987 -1.86087,0.17987 -0.53258,-0.06 -0.79399,-0.24006 -1.45676,-0.26406 -0.66276,-0.024 -1.25883,0.17987 -1.25883,0.17987 -0.4566,0 -0.86002,-0.14914 -1.19683,0.19219 -0.3368,0.34133 -0.42633,0.46868 -0.42633,1.01146 0,0.54279 -0.0994,0.47893 -0.0827,1.19133 0.0168,0.71241 -0.0286,0.49306 -0.0119,1.23938 0.0167,0.74633 0.18261,0.3404 0.16588,1.23938 -0.0167,0.89898 -0.11349,0.45913 -0.13022,1.23938 -0.0167,0.78025 0.121,0.34545 0.0708,1.22747 -0.0502,0.88202 -0.0571,0.6364 -0.0351,1.19174 0.0219,0.55535 -0.0714,0.91033 0.17467,1.15971 0.24607,0.24939 0.52063,0.0726 1.03507,0.14044 0.51445,0.068 0.18756,0.0729 1.00769,0.10678 0.82013,0.0339 0.61906,-0.0527 1.43919,-0.0358 0.82013,0.0168 0.0868,-0.005 0.99064,0.0119 0.90382,0.0169 0.32011,-0.13002 1.29088,-0.0961 0.97076,0.0339 0.42705,0.0892 1.3141302,0.0723 0.88708,-0.0168 0.20298,-0.0292 1.07332,-0.0123 0.87034,0.0169 0.29894,-0.0939 1.01027,-0.06 0.71134,0.0339 0.50075,0.0961 1.10329,0.0961 0.60255,0 0.1036,-0.0325 0.81494,-0.0156 0.71134,0.0169 0.449,-0.0528 1.1436,-0.0443 0.6946,0.009 0.43699,-0.10112 1.05627,-0.0842 0.61928,0.0169 0.37055,0.108 1.05678,0.108 0.68623,0 0.20743,-0.16065 1.09451,-0.14373 0.88708,0.0169 0.49892,0.0741 1.21026,0.10801 0.71133,0.0339 0.67628,-0.13957 1.07332,-0.0961 0.34977,0.0383 0.61855,0.127 0.85783,0.154 0.67934,0.0767 0.14724,0.0338 0.92914,0.0362 0.78189,0.002 0.14823,-0.15614 0.97668,-0.14414 0.82846,0.012 0.33557,0.0602 1.10485,0.0842 0.76928,0.024 0.59502,0.0361 1.37614,0.0481 0.78111,0.012 0.41566,-0.084 1.18494,-0.0481 0.76928,0.036 0.639,-0.18018 1.43195,-0.19218 0.792951,-0.012 0.49924,0.2041 1.114661,0.2041 0.6154288,0 0.5605778,-0.0961 1.1404998,-0.0961 0.579919,0 0.664498,0.10823 1.25626,0.13223 0.591748,0.024 0.908518,-0.0722 1.405599,-0.0842 0.49707,-0.012 1.32829,-0.23987 1.86087,-0.17988 0.53258,0.06 0.793991,0.24006 1.456751,0.26406 0.66277,0.024 1.25884,-0.18028 1.25884,-0.18028 0.456599,0 0.86002,0.14955 1.196829,-0.19177 0.336801,-0.34133 0.426331,-0.46868 0.426331,-1.01147 0,-0.54278 0.0994,-0.47892 0.0827,-1.19133 -0.0168,-0.7124 0.0286,-0.49305 0.01191,-1.23937 -0.01669,-0.74633 -0.182613,-0.34082 -0.16588,-1.2398 0.0167,-0.89897 0.113487,-0.45912 0.13022,-1.23937 0.01669,-0.78025 -0.12101,-0.34504 -0.0708,-1.22706 0.0502,-0.88202 0.0571,-0.63639 0.0351,-1.19174 -0.02191,-0.55534 0.0714,-0.91074 -0.17467,-1.16012 -0.246073,-0.24939 -0.520628,-0.0722 -1.035079,-0.14004 -0.51444,-0.0679 -0.18756,-0.0733 -1.007681,-0.10718 -0.820129,-0.0339 -0.61907,0.0531 -1.439199,0.0362 -0.820121,-0.0168 -0.0868,0.005 -0.990629,-0.0119 -0.903822,-0.0169 -0.320111,0.12961 -1.290881,0.0957 -0.970761,-0.0339 -0.42705,-0.0888 -1.314129,-0.0718 -0.887082,0.0168 -0.202981,0.0288 -1.07332,0.0119 -0.870341,-0.0169 -0.298942,0.0939 -1.010271,0.0599 -0.7113408,-0.0339 -0.5007538,-0.0957 -1.1032998,-0.0957 -0.602541,0 -0.103601,0.0321 -0.814931,0.0152 -0.71134,-0.0169 -0.449001,0.0532 -1.1436,0.0447 -0.6946,-0.009 -0.43699,0.1007 -1.056269,0.0838 -0.619281,-0.0169 -0.37055,-0.10801 -1.056781,-0.10801 -0.68623,0 -0.207431,0.16107 -1.09451,0.14415 -0.887085,-0.0169 -0.498926,-0.0741 -1.210265,-0.10801 -0.711328,-0.0339 -0.681738,0.071 -1.080868,0.0421 -0.32768,-0.0435 -0.60165,-0.0864 -0.85028,-0.10002 -0.39845,-0.0203 -0.68605,-0.0352 -0.92913,-0.0362 z"
       id="path2143"
       sodipodi:nodetypes="cscscsssscssccscccccccccccccscsssssccsssccscssssccsccscccccccccccscscssssssccccc" />
    <path
       sodipodi:nodetypes="czzzzzzzzzzzzzzzzzzzzzzzzzzzzzzzzzzzzzzzzzzzzzzzzzzc"
       inkscape:connector-curvature="0"
       id="path847"
       d="m 24.183426,140.99683 c 0.3368,-0.34134 0.74042,-0.19191 1.19702,-0.19191 0,0 0.59575,-0.20389 1.25852,-0.17991 0.66276,0.024 0.92441,0.2039 1.45699,0.26387 0.53257,0.06 1.36364,-0.16792 1.86071,-0.17991 0.49707,-0.012 0.81418,-0.10794 1.40594,-0.084 0.59175,0.024 0.67622,0.13193 1.25614,0.13193 0.57992,0 0.52509,-0.096 1.14051,-0.096 0.61543,0 0.32152,0.21589 1.11447,0.2039 0.79295,-0.012 0.66271,-0.22789 1.43199,-0.1919 0.76928,0.036 0.40366,-0.06 1.18478,-0.048 0.78111,0.012 0.60689,0.024 1.37617,0.048 0.76928,0.024 0.27656,0.072 1.10501,0.084 0.82846,0.012 0.19462,-0.14668 0.97651,-0.14392 0.7819,0.002 0.2498,-0.0405 0.92917,0.036 0.67936,0.0765 0.60316,0.082 0.79445,0.27586 0.19129,0.19386 0.13509,0.13592 0.11835,0.83984 -0.0167,0.70392 0.0439,0.33924 0.0355,0.93291 -0.008,0.59367 -0.0355,0.26752 -0.0355,0.83575 0,0.56823 0.0133,0.0951 -0.0118,0.85839 -0.0251,0.76329 0.0877,0.58629 0.071,1.17995 -0.0167,0.59367 -0.0543,0.32931 -0.071,0.90602 -0.0167,0.5767 0.073,0.59778 0.10652,1.20841 0.0335,0.61063 -0.11979,0.56412 -0.0947,1.11538 0.0251,0.55126 0.0828,0.64518 0.0828,0.96888 0,0.3237 -0.01,0.39574 -0.26037,0.64995 -0.25084,0.25421 -0.59092,0.16085 -0.99005,0.13193 -0.39913,-0.0289 -0.36188,0.12988 -1.07322,0.096 -0.71133,-0.0339 -0.32291,-0.091 -1.20999,-0.10794 -0.88708,-0.0169 -0.40863,0.14392 -1.09486,0.14392 -0.68623,0 -0.4372,-0.091 -1.05648,-0.10794 -0.61928,-0.0169 -0.36189,0.0925 -1.05648,0.084 -0.6946,-0.009 -0.4323,0.0614 -1.14364,0.0445 -0.71134,-0.0169 -0.21209,0.0155 -0.81463,0.0155 -0.60255,0 -0.39214,-0.062 -1.10348,-0.096 -0.71133,-0.0339 -0.13999,0.0769 -1.01033,0.06 -0.87034,-0.0169 -0.18613,-0.005 -1.07322,0.012 -0.88708,0.0169 -0.34336,-0.0381 -1.31412,-0.072 -0.97077,-0.0339 -0.38699,0.11287 -1.29081,0.096 -0.90381,-0.0169 -0.1706,0.005 -0.99072,-0.012 -0.82013,-0.0169 -0.61893,0.0699 -1.43906,0.036 -0.82013,-0.0339 -0.49351,-0.0392 -1.00796,-0.1071 -0.51444,-0.0679 -0.78917,0.10923 -1.03524,-0.14016 -0.24607,-0.24938 -0.15274,-0.60472 -0.17466,-1.16007 -0.0219,-0.55534 -0.0147,-0.30941 0.0355,-1.19144 0.0502,-0.88202 -0.0877,-0.44716 -0.071,-1.22741 0.0167,-0.78025 0.11346,-0.34042 0.13019,-1.2394 0.0167,-0.89899 -0.14896,-0.4931 -0.16569,-1.23942 -0.0167,-0.74632 0.0286,-0.527 0.0118,-1.2394 -0.0167,-0.71241 0.0829,-0.64866 0.0829,-1.19144 0,-0.54279 0.0893,-0.6702 0.42606,-1.01152 z"
       style="fill:#4d4d4d;fill-opacity:1;stroke:none;stroke-width:1.06500006;stroke-linecap:round;stroke-linejoin:round;stroke-miterlimit:4;stroke-dasharray:none;stroke-dashoffset:0;stroke-opacity:1;paint-order:stroke fill markers" />
  </g>
</svg>
