<?xml version="1.0" encoding="UTF-8" standalone="no"?>
<!-- Created with Inkscape (http://www.inkscape.org/) -->

<svg
   xmlns:dc="http://purl.org/dc/elements/1.1/"
   xmlns:cc="http://creativecommons.org/ns#"
   xmlns:rdf="http://www.w3.org/1999/02/22-rdf-syntax-ns#"
   xmlns:svg="http://www.w3.org/2000/svg"
   xmlns="http://www.w3.org/2000/svg"
   xmlns:sodipodi="http://sodipodi.sourceforge.net/DTD/sodipodi-0.dtd"
   xmlns:inkscape="http://www.inkscape.org/namespaces/inkscape"
   width="100mm"
   height="100mm"
   viewBox="0 0 100 100"
   version="1.1"
   id="svg8"
   sodipodi:docname="shitshow.svg"
   inkscape:version="0.92.2 5c3e80d, 2017-08-06"
   inkscape:export-filename="/home/onur/Dropbox/design/d00018-shitty_logos/shitshow.png"
   inkscape:export-xdpi="157.87"
   inkscape:export-ydpi="157.87">
  <defs
     id="defs2" />
  <sodipodi:namedview
     id="base"
     pagecolor="#ffffff"
     bordercolor="#666666"
     borderopacity="1.0"
     inkscape:pageopacity="0.0"
     inkscape:pageshadow="2"
     inkscape:zoom="1.4"
     inkscape:cx="-54.610334"
     inkscape:cy="72.067651"
     inkscape:document-units="mm"
     inkscape:current-layer="layer1"
     showgrid="false"
     showguides="true"
     inkscape:guide-bbox="true"
     inkscape:window-width="1920"
     inkscape:window-height="1036"
     inkscape:window-x="0"
     inkscape:window-y="20"
     inkscape:window-maximized="0"
     inkscape:snap-global="false"
     fit-margin-top="0"
     fit-margin-left="0"
     fit-margin-right="0"
     fit-margin-bottom="0">
    <sodipodi:guide
       position="87.76645,46.48703"
       orientation="0,1"
       id="guide815"
       inkscape:locked="false" />
  </sodipodi:namedview>
  <metadata
     id="metadata5">
    <rdf:RDF>
      <cc:Work
         rdf:about="">
        <dc:format>image/svg+xml</dc:format>
        <dc:type
           rdf:resource="http://purl.org/dc/dcmitype/StillImage" />
        <dc:title></dc:title>
      </cc:Work>
    </rdf:RDF>
  </metadata>
  <g
     inkscape:label="Layer 1"
     inkscape:groupmode="layer"
     id="layer1"
     transform="translate(-7.4835463,-117.62095)">
    <rect
       style="fill:#f9f9f9;fill-opacity:1;stroke:none;stroke-width:1.06500006;stroke-linecap:round;stroke-linejoin:round;stroke-miterlimit:4;stroke-dasharray:none;stroke-dashoffset:0;stroke-opacity:1;paint-order:stroke fill markers"
       id="rect825"
       width="100"
       height="100"
       x="7.4835463"
       y="117.62095" />
    <g
       id="g964"
       transform="translate(-147.03274)">
      <path
         style="fill:#333333;fill-opacity:1;stroke:none;stroke-width:1.06500018;stroke-linecap:round;stroke-linejoin:round;stroke-miterlimit:4;stroke-dasharray:none;stroke-dashoffset:0;stroke-opacity:1;paint-order:stroke fill markers"
         d="m 79.445862,172.12318 a 20.08794,5.1624102 0 0 1 -20.08794,5.16241 20.08794,5.1624102 0 0 1 -20.087941,-5.16241 20.08794,5.1624102 0 0 1 20.087941,-5.1624 20.08794,5.1624102 0 0 1 20.08794,5.1624 z"
         id="path956"
         inkscape:connector-curvature="0" />
      <path
         style="fill:#333333;fill-rule:evenodd;stroke:none;stroke-width:0.26458332px;stroke-linecap:butt;stroke-linejoin:miter;stroke-opacity:1"
         d="M 39.269983,171.13392 28.123542,129.55655 79.414535,171.13392"
         id="path958"
         inkscape:connector-curvature="0"
         sodipodi:nodetypes="ccc" />
      <path
         sodipodi:nodetypes="ccc"
         inkscape:connector-curvature="0"
         id="path960"
         d="M 79.414535,171.13392 90.560974,129.55655 39.269983,171.13392"
         style="fill:#333333;fill-rule:evenodd;stroke:none;stroke-width:0.26458332px;stroke-linecap:butt;stroke-linejoin:miter;stroke-opacity:1" />
      <path
         style="fill:#ffffff;fill-rule:evenodd;stroke:none;stroke-width:0.26458332px;stroke-linecap:butt;stroke-linejoin:miter;stroke-opacity:1"
         d="m 39.269983,171.13392 c -1.973059,4.91655 41.498896,4.96235 40.144552,0 -1.17565,-1.18718 -4.439595,-3.99776 -5.838692,-4.31089 -4.206672,1.76157 -9.394097,1.39764 -12.276166,1.09053 0,0 11.105419,-1.02154 11.164013,-1.90904 -1.278587,-2.28129 -4.965057,-4.50108 -5.542055,-4.25395 -2.972597,1.53917 -6.294689,0.44843 -6.294689,0.44843 1.018965,0.13363 5.85157,-0.6301 5.581888,-1.40631 -0.715599,-1.65561 -4.494417,-2.63921 -5.464458,-3.10693 -0.970043,-0.46773 -1.217088,-2.20498 -1.217088,-3.00679 0,-0.8018 -2.60535,1.84055 -2.962732,2.70917 -0.185408,0.32114 -0.612857,1.40317 1.825977,2.37202 -1.837478,0.60136 -3.769204,0.52743 -4.58123,0.357 -0.379849,-0.12515 -2.910283,1.57763 -4.339816,2.78034 -0.597095,0.48443 5.647895,1.24186 5.647895,1.24186 -1.073176,0.39168 -3.57676,0.6567 -6.381703,-0.21192 -0.534485,-0.211 -4.124183,2.71519 -5.451608,3.98473 -0.651544,0.60971 10.933513,1.96537 13.843641,1.46662 -1.889029,0.93544 -12.735501,0.28278 -14.848564,-0.39685 -0.395074,-0.10161 -2.072228,1.14397 -3.009165,2.15197 z"
         id="path962"
         inkscape:connector-curvature="0"
         sodipodi:nodetypes="ccccccccccccccccccccc" />
    </g>
    <g
       id="g935"
       transform="translate(-2.5184631,5.3724455)">
      <g
         style="fill:#4d4d4d;stroke-width:0.86970085"
         transform="matrix(1.1498207,0,0,1.1498207,-8.2307796,-22.985658)"
         id="g954">
        <path
           inkscape:connector-curvature="0"
           id="path947"
           transform="scale(0.26458333)"
           d="m 106.29297,489.66211 42.12891,157.14258 c 3.54117,-3.80977 9.87985,-8.51685 11.37304,-8.13281 7.98638,2.56868 48.98146,5.03552 56.1211,1.5 -10.99891,1.88503 -54.7848,-3.23856 -52.32227,-5.54297 5.01704,-4.79827 18.58341,-15.85803 20.60352,-15.06055 10.60135,3.28297 20.06499,2.28115 24.12109,0.80078 0,0 -23.60439,-2.86244 -21.34766,-4.69336 5.40296,-4.54567 14.9667,-10.98082 16.40235,-10.50781 3.06907,0.64414 10.3716,0.92325 17.3164,-1.34961 -9.21764,-3.6618 -7.6031,-7.75109 -6.90234,-8.96484 1.00272,-2.43713 6.68209,-8.56035 9.54492,-10.31836 z m 235.98437,0 -117.28906,95.07617 c 0.0227,3.07732 0.97592,9.49392 4.59766,11.24024 3.66629,1.76776 17.94772,5.48476 20.65234,11.74218 1.01927,2.93371 -17.24645,5.81951 -21.09766,5.31446 0,0 12.55601,4.12202 23.79102,-1.69532 2.18078,-0.93403 16.11481,7.45593 20.94727,16.07813 -0.22146,3.35433 -42.19532,7.2168 -42.19532,7.2168 10.89286,1.16073 30.49921,2.53485 46.39844,-4.12305 5.28793,1.18348 17.62496,11.80599 22.06836,16.29297 z m -42.33398,159.35156 c -7.42806,15.60711 -142.74953,15.65725 -151.33398,0.53711 a 75.922922,19.511472 0 0 0 -0.1875,0.99414 75.922922,19.511472 0 0 0 75.92382,19.51172 75.922922,19.511472 0 0 0 75.92188,-19.51172 75.922922,19.511472 0 0 0 -0.32422,-1.53125 z"
           style="fill:#4d4d4d;fill-opacity:1;stroke:none;stroke-width:3.50071764;stroke-linecap:round;stroke-linejoin:round;stroke-miterlimit:4;stroke-dasharray:none;stroke-dashoffset:0;stroke-opacity:1;paint-order:stroke fill markers" />
      </g>
      <g
         transform="translate(-0.66999357)"
         id="text970"
         style="font-style:normal;font-weight:normal;font-size:11.70370483px;line-height:18.28704071px;font-family:sans-serif;text-align:center;letter-spacing:0px;word-spacing:0px;text-anchor:middle;fill:#4d4d4d;fill-opacity:1;stroke:none;stroke-width:0.26458332px;stroke-linecap:butt;stroke-linejoin:miter;stroke-opacity:1"
         aria-label="SHITSHOW">
        <path
           inkscape:connector-curvature="0"
           id="path907"
           style="font-style:normal;font-variant:normal;font-weight:500;font-stretch:normal;font-family:'Akzidenz-Grotesk BQ Extended';-inkscape-font-specification:'Akzidenz-Grotesk BQ Extended Medium';fill:#4d4d4d;stroke-width:0.26458332px"
           d="m 32.946673,195.80074 c 0,-0.24578 -0.02341,-0.77245 -0.433037,-1.29912 -0.397926,-0.49155 -0.983112,-0.81925 -2.258815,-0.9714 -0.912889,-0.10534 -1.825778,-0.15215 -2.738667,-0.26919 -0.479852,-0.0585 -1.065037,-0.10533 -1.35763,-0.57348 -0.09363,-0.15215 -0.140445,-0.33941 -0.140445,-0.51496 0,-0.35111 0.198963,-0.84267 0.912889,-1.11185 0.304297,-0.11704 0.959704,-0.26919 1.802371,-0.26919 1.299111,0 2.083259,0.37452 2.539704,0.69052 0.234074,0.16385 0.444741,0.37452 0.503259,0.43304 l 1.076741,-0.43304 c -0.07022,-0.0819 -0.269185,-0.37452 -0.53837,-0.59689 -0.117037,-0.10533 -0.234074,-0.18726 -0.374519,-0.28089 -0.596889,-0.38622 -1.58,-0.78415 -3.218519,-0.78415 -1.334222,0 -2.235407,0.26919 -2.726963,0.53837 -0.351111,0.18726 -1.146963,0.71393 -1.146963,1.8726 0,0.28088 0.02341,0.86607 0.585185,1.38103 0.608593,0.56178 1.381037,0.64371 2.961038,0.77245 0.655407,0.0585 2.083259,0.14044 2.691852,0.40963 0.433037,0.18726 0.702222,0.53837 0.702222,1.01822 0,0.22237 -0.07022,0.73733 -0.561778,1.11185 -0.795852,0.59689 -2.036445,0.56178 -2.247111,0.56178 -0.269185,0 -1.392741,-0.0117 -2.340741,-0.39793 -0.573482,-0.23407 -0.959704,-0.53837 -1.13526,-0.71392 -0.07022,-0.0702 -0.117037,-0.12874 -0.175555,-0.19897 L 24.239116,196.62 c 0.128741,0.18725 0.327704,0.49155 0.772445,0.83096 0.140444,0.10533 0.433037,0.316 0.866074,0.50326 0.40963,0.17555 0.702222,0.24578 0.889482,0.29259 0.877777,0.22237 1.896,0.24578 2.130074,0.24578 0.526667,0 1.006518,-0.0585 1.193778,-0.0819 0.304296,-0.0351 1.697037,-0.19896 2.43437,-1.22889 0.163852,-0.22237 0.421334,-0.67881 0.421334,-1.38103 z" />
        <path
           inkscape:connector-curvature="0"
           id="path909"
           style="font-style:normal;font-variant:normal;font-weight:500;font-stretch:normal;font-family:'Akzidenz-Grotesk BQ Extended';-inkscape-font-specification:'Akzidenz-Grotesk BQ Extended Medium';fill:#4d4d4d;stroke-width:0.26458332px"
           d="m 42.838698,198.29362 v -8.26281 H 41.64492 v 3.37067 h -6.331704 v -3.37067 h -1.182075 v 8.26281 h 1.193778 v -3.90903 h 6.331705 v 3.90903 z" />
        <path
           inkscape:connector-curvature="0"
           id="path911"
           style="font-style:normal;font-variant:normal;font-weight:500;font-stretch:normal;font-family:'Akzidenz-Grotesk BQ Extended';-inkscape-font-specification:'Akzidenz-Grotesk BQ Extended Medium';fill:#4d4d4d;stroke-width:0.26458332px"
           d="m 45.879566,198.29362 v -8.26281 h -1.193777 v 8.26281 z" />
        <path
           inkscape:connector-curvature="0"
           id="path913"
           style="font-style:normal;font-variant:normal;font-weight:500;font-stretch:normal;font-family:'Akzidenz-Grotesk BQ Extended';-inkscape-font-specification:'Akzidenz-Grotesk BQ Extended Medium';fill:#4d4d4d;stroke-width:0.26458332px"
           d="m 54.778321,191.01392 v -0.98311 h -7.923408 v 0.98311 h 3.370667 v 7.2797 h 1.170371 v -7.2797 z" />
        <path
           inkscape:connector-curvature="0"
           id="path915"
           style="font-style:normal;font-variant:normal;font-weight:300;font-stretch:normal;font-family:'Akzidenz-Grotesk BQ Light Exten';-inkscape-font-specification:'Akzidenz-Grotesk BQ Light Exten Light';fill:#4d4d4d;stroke-width:0.26458332px"
           d="m 63.930437,195.83585 c 0,-0.81926 -0.491556,-1.43956 -1.228889,-1.75556 -0.72563,-0.316 -1.872593,-0.43304 -3.674964,-0.69052 -0.784148,-0.10533 -1.182074,-0.16385 -1.533185,-0.3277 -0.163852,-0.0819 -0.643704,-0.3043 -0.643704,-0.88948 0,-0.28089 0.105333,-0.50326 0.152148,-0.58519 0.140445,-0.24578 0.374519,-0.44474 0.608593,-0.58518 0.819259,-0.47986 1.907704,-0.47986 2.141778,-0.47986 1.04163,0 2.176889,0.23408 2.93763,1.00652 0.08193,0.0936 0.175555,0.21067 0.245778,0.3043 l 0.749037,-0.39793 c -0.09363,-0.11703 -0.269185,-0.3277 -0.561778,-0.57348 -1.240593,-1.01822 -2.808889,-1.05333 -3.312149,-1.05333 -0.830963,0 -1.884296,0.15215 -2.621629,0.56178 -0.667112,0.37452 -1.182075,1.04163 -1.182075,1.83748 0,0.9597 0.702223,1.39274 0.983112,1.53318 0.479851,0.24578 1.135259,0.32771 1.661926,0.40963 0.491555,0.0702 0.994815,0.12874 1.498074,0.19897 0.608593,0.0819 2.013037,0.23407 2.539704,0.66711 0.140444,0.11703 0.386222,0.38622 0.386222,0.86607 0,0.60859 -0.374518,1.05334 -0.877778,1.35763 -0.912889,0.53837 -2.048148,0.53837 -2.364148,0.53837 -1.310815,0 -2.141778,-0.29259 -2.62163,-0.60859 -0.643704,-0.43304 -0.877778,-1.00652 -0.983111,-1.2757 l -0.866074,0.3277 c 0.210666,0.38622 0.386222,0.72563 0.702222,1.05333 1.029926,1.10015 2.762074,1.18208 3.113185,1.20548 0.245778,0.0117 0.479852,0.0234 0.713926,0.0234 2.024741,0 3.136593,-0.69052 3.651556,-1.43955 0.339408,-0.50326 0.386223,-0.99482 0.386223,-1.22889 z" />
        <path
           inkscape:connector-curvature="0"
           id="path917"
           style="font-style:normal;font-variant:normal;font-weight:300;font-stretch:normal;font-family:'Akzidenz-Grotesk BQ Light Exten';-inkscape-font-specification:'Akzidenz-Grotesk BQ Light Exten Light';fill:#4d4d4d;stroke-width:0.26458332px"
           d="m 73.734206,198.29362 v -8.26281 h -0.784148 v 3.53452 h -6.940297 v -3.53452 h -0.807555 v 8.26281 h 0.807555 v -4.03777 h 6.940297 v 4.03777 z" />
        <path
           inkscape:connector-curvature="0"
           id="path919"
           style="font-style:normal;font-variant:normal;font-weight:300;font-stretch:normal;font-family:'Akzidenz-Grotesk BQ Light Exten';-inkscape-font-specification:'Akzidenz-Grotesk BQ Light Exten Light';fill:#4d4d4d;stroke-width:0.26458332px"
           d="m 84.597455,194.13881 c 0,-0.40963 -0.07022,-1.34593 -0.667111,-2.29393 -1.240593,-1.96622 -3.511112,-2.07155 -4.189926,-2.07155 -1.907704,-0.0117 -3.792001,0.83096 -4.564445,2.68015 -0.316,0.73733 -0.339408,1.39274 -0.339408,1.69703 0,0.38623 0.03511,1.22889 0.538371,2.13008 1.182074,2.11837 3.639852,2.23541 4.306963,2.23541 0.643704,0 2.633334,-0.0936 3.967556,-1.69704 0.85437,-1.02993 0.948,-2.212 0.948,-2.68015 z m -0.901185,-0.0468 c 0,0.51497 -0.07022,1.95452 -1.35763,2.92593 -1.018222,0.76074 -2.200296,0.79585 -2.609926,0.79585 -0.585185,0 -2.925926,-0.11703 -3.756889,-2.212 -0.245778,-0.60859 -0.269186,-1.19378 -0.269186,-1.41615 0,-1.65022 0.948,-2.58651 1.427852,-2.93763 0.901186,-0.66711 2.013038,-0.74903 2.352445,-0.76074 1.205482,-0.0468 2.094963,0.32771 2.492889,0.53837 1.170371,0.632 1.521482,1.72045 1.626815,2.17689 0.105333,0.42134 0.09363,0.70223 0.09363,0.88948 z" />
        <path
           inkscape:connector-curvature="0"
           id="path921"
           style="font-style:normal;font-variant:normal;font-weight:300;font-stretch:normal;font-family:'Akzidenz-Grotesk BQ Light Exten';-inkscape-font-specification:'Akzidenz-Grotesk BQ Light Exten Light';fill:#4d4d4d;stroke-width:0.26458332px"
           d="m 97.10489,190.03081 h -0.784148 l -2.317333,7.42015 -2.609927,-7.42015 h -0.85437 l -2.551408,7.42015 -2.410963,-7.42015 h -0.830963 l 2.738667,8.26281 h 0.936296 l 2.539704,-7.43185 2.563112,7.43185 h 0.959703 z" />
      </g>
    </g>
    <text
       id="text905"
       y="196.6765"
       x="-88.575089"
       style="font-style:normal;font-weight:normal;font-size:10.34064484px;line-height:16.15725899px;font-family:sans-serif;text-align:center;letter-spacing:0px;word-spacing:0px;text-anchor:middle;fill:#4d4d4d;fill-opacity:1;stroke:none;stroke-width:0.26458332px;stroke-linecap:butt;stroke-linejoin:miter;stroke-opacity:1"
       xml:space="preserve"><tspan
         style="font-style:normal;font-variant:normal;font-weight:normal;font-stretch:normal;font-family:'Akzidenz-Grotesk BQ Light Exten';-inkscape-font-specification:'Akzidenz-Grotesk BQ Light Exten';fill:#4d4d4d;stroke-width:0.26458332px"
         y="196.6765"
         x="-88.575089"
         id="tspan903"
         sodipodi:role="line"><tspan
           id="tspan899"
           style="font-style:normal;font-variant:normal;font-weight:500;font-stretch:normal;font-family:'Akzidenz-Grotesk BQ Extended';-inkscape-font-specification:'Akzidenz-Grotesk BQ Extended Medium';fill:#4d4d4d;stroke-width:0.26458332px">SHIT</tspan><tspan
           id="tspan901"
           style="font-style:normal;font-variant:normal;font-weight:300;font-stretch:normal;font-family:'Akzidenz-Grotesk BQ Light Exten';-inkscape-font-specification:'Akzidenz-Grotesk BQ Light Exten Light';fill:#4d4d4d;stroke-width:0.26458332px">SHOW</tspan></tspan></text>
  </g>
</svg>
