<?xml version="1.0" encoding="UTF-8" standalone="no"?>
<!-- Created with Inkscape (http://www.inkscape.org/) -->

<svg
   xmlns:dc="http://purl.org/dc/elements/1.1/"
   xmlns:cc="http://creativecommons.org/ns#"
   xmlns:rdf="http://www.w3.org/1999/02/22-rdf-syntax-ns#"
   xmlns:svg="http://www.w3.org/2000/svg"
   xmlns="http://www.w3.org/2000/svg"
   xmlns:sodipodi="http://sodipodi.sourceforge.net/DTD/sodipodi-0.dtd"
   xmlns:inkscape="http://www.inkscape.org/namespaces/inkscape"
   width="100mm"
   height="100mm"
   viewBox="0 0 99.999997 99.999997"
   version="1.1"
   id="svg868"
   inkscape:version="0.92.2 5c3e80d, 2017-08-06"
   sodipodi:docname="tough_shit.svg"
   inkscape:export-filename="/home/onur/Dropbox/design/d00018-shitty_logos/tough_shit.png"
   inkscape:export-xdpi="157.87"
   inkscape:export-ydpi="157.87">
  <defs
     id="defs862" />
  <sodipodi:namedview
     id="base"
     pagecolor="#ffffff"
     bordercolor="#666666"
     borderopacity="1.0"
     inkscape:pageopacity="0.0"
     inkscape:pageshadow="2"
     inkscape:zoom="0.98994949"
     inkscape:cx="286.61653"
     inkscape:cy="132.02349"
     inkscape:document-units="mm"
     inkscape:current-layer="layer1"
     showgrid="false"
     inkscape:window-width="1920"
     inkscape:window-height="1036"
     inkscape:window-x="0"
     inkscape:window-y="20"
     inkscape:window-maximized="0"
     fit-margin-top="0"
     fit-margin-left="0"
     fit-margin-right="0"
     fit-margin-bottom="0"
     inkscape:snap-global="false" />
  <metadata
     id="metadata865">
    <rdf:RDF>
      <cc:Work
         rdf:about="">
        <dc:format>image/svg+xml</dc:format>
        <dc:type
           rdf:resource="http://purl.org/dc/dcmitype/StillImage" />
        <dc:title />
      </cc:Work>
    </rdf:RDF>
  </metadata>
  <g
     inkscape:label="Layer 1"
     inkscape:groupmode="layer"
     id="layer1"
     transform="translate(-72.697304,-138.77643)">
    <rect
       style="fill:#f9f9f9;fill-opacity:1;stroke:none;stroke-width:0.1;stroke-linecap:round;stroke-linejoin:round;stroke-miterlimit:4;stroke-dasharray:none;stroke-dashoffset:0;stroke-opacity:1;paint-order:stroke fill markers"
       id="rect1485"
       width="100"
       height="100"
       x="72.697304"
       y="138.77643" />
    <g
       transform="matrix(-1,0,0,1,330.72371,25.776514)"
       id="g1491" />
    <g
       id="g863"
       transform="translate(7.3406241e-8,-0.99070483)">
      <g
         style="stroke-width:1.42366636"
         transform="matrix(0.70241175,0,0,0.70241175,45.7891,114.29892)"
         id="g1501">
        <g
           style="stroke-width:1.42366636"
           id="g1483"
           transform="translate(-111.74046,25.776514)">
          <path
             sodipodi:nodetypes="cccsscsssscscsscccccsssssccccsccccsccccscscscscscc"
             inkscape:connector-curvature="0"
             id="path1477"
             d="m 195.00653,92.739262 c -1.73726,0.167044 -3.34087,-0.400905 -3.87541,-1.302938 0.60135,1.202711 1.20271,1.436573 1.46998,1.637024 0.26727,0.200454 -2.07134,2.138157 -4.64381,2.505652 -2.57247,0.367496 -8.58603,-0.634764 -12.62848,-3.775181 -4.04245,-3.140418 -4.00905,-3.407687 -5.61266,-2.939965 -1.60362,0.467723 -3.74178,-0.23386 -3.74178,-2.004523 0,-1.77066 -0.43431,-1.603616 -1.46998,-2.271789 -1.03567,-0.668173 -3.14041,-3.207234 -2.67269,-8.385582 0.46772,-5.178346 3.67495,-9.120571 6.74855,-11.592814 3.0736,-2.472246 7.01583,-4.209496 8.48581,-5.779706 1.46998,-1.570206 0.83522,-3.240642 4.67722,-5.813112 3.842,-2.572469 4.57699,-2.572468 5.74629,-3.340869 1.16931,-0.7684 2.50565,-0.534537 3.77518,1.670437 1.26953,2.204971 1.46999,2.839738 1.9043,3.808589 0.43431,0.968852 0.56795,2.639288 -0.40091,3.207234 -0.96885,0.567947 -1.96104,0.749515 -2.59887,-0.502531 -0.63784,-1.252048 -1.09279,-2.437434 -1.1596,-2.88845 -0.0668,-0.451017 0.15034,-0.68488 0.23386,-0.80181 0.0835,-0.11693 -0.12528,-0.317383 -0.1921,-0.292325 -0.0668,0.02506 -0.54762,0.52174 -0.40588,1.147763 0.14174,0.626023 1.21661,3.118305 1.4056,3.508092 0.18899,0.389787 0.62603,1.464656 -0.22442,1.984375 -0.85045,0.519718 -1.84264,1.41741 -2.87026,-0.637834 -1.02762,-2.055246 -1.50009,-2.669458 -1.50009,-2.976562 0,-0.307108 0.3377,-1.347047 0.5131,-1.58091 0.17539,-0.23386 -0.12529,-0.634764 -0.25892,-0.526184 -0.13364,0.108577 -0.93544,1.737251 -0.79346,2.288495 0.14199,0.551243 1.51965,2.830594 1.73227,3.244006 0.21261,0.413411 0.60634,1.875874 -0.89705,2.761204 -1.50339,0.885331 -3.27405,1.620322 -4.02575,0.217157 -0.75169,-1.403165 0.53454,-1.854181 0.7684,-1.971111 0.23386,-0.116933 0.65147,0.250563 0.80181,0.484425 0.15034,0.23386 0.96885,0.100225 0.56795,-0.451016 -0.40091,-0.551244 -1.18601,-0.835218 -1.98782,-0.167045 -0.80181,0.668173 -1.53502,1.358807 -2.23191,0.76822 -0.6969,-0.590587 -1.11031,-1.039434 -1.07487,-1.145741 0.0354,-0.106304 -0.56697,0.153554 -0.28349,0.484283 0.28349,0.330729 1.11031,1.003998 1.24024,1.098494 0.12993,0.09449 1.09849,-0.188989 1.65364,0.484281 0.55515,0.673271 -1.09849,2.4096 -1.52371,3.059244 -0.42523,0.649648 -1.43815,2.400678 -1.70542,3.102261 -0.26727,0.701582 -0.30068,0.968852 -0.25056,1.119191 0.0835,-0.9605 1.1179,-0.773381 1.53679,-0.417609 2.09386,1.778342 3.4411,4.610401 3.54133,6.280836 0.16704,0.902033 -3.30746,2.572469 -3.57473,2.572469 -0.26727,0 0.60135,0.35079 2.33861,-0.718288 1.73725,-1.069078 6.14719,-2.154859 10.32328,-0.65147 4.17609,1.503391 5.51244,6.481286 5.57925,8.619442 0.0668,2.138156 0.46772,6.882191 -2.43883,6.882191 z"
             style="fill:#4d4d4d;fill-rule:evenodd;stroke:none;stroke-width:0.37667838px;stroke-linecap:butt;stroke-linejoin:miter;stroke-opacity:1" />
          <path
             sodipodi:nodetypes="sccscccs"
             inkscape:connector-curvature="0"
             id="path1479"
             d="m 191.73248,59.180232 c -0.72944,0.04151 -0.58466,0.935445 -1.01897,1.269532 -0.43431,0.334086 -1.67044,1.169302 -2.08804,1.369755 -0.41761,0.200451 -1.08578,-0.200453 -1.33635,0.317381 -0.25057,0.517835 -1.20271,1.536801 0.3675,2.45554 1.5702,0.918739 3.52461,-1.219417 4.04245,-1.687139 0.51783,-0.46772 0.7851,-1.069079 0.85192,-1.68714 0.0668,-0.618059 0.51578,-2.113864 -0.81851,-2.037929 z"
             style="fill:#4d4d4d;fill-rule:evenodd;stroke:none;stroke-width:0.37667838px;stroke-linecap:butt;stroke-linejoin:miter;stroke-opacity:1" />
        </g>
        <path
           transform="matrix(-1,0,0,1,330.72371,25.776513)"
           style="fill:#4d4d4d;fill-rule:evenodd;stroke:none;stroke-width:0.37667838px;stroke-linecap:butt;stroke-linejoin:miter;stroke-opacity:1"
           d="m 195.00653,92.739262 c -1.73726,0.167044 -3.34087,-0.400905 -3.87541,-1.302938 0.60135,1.202711 1.20271,1.436573 1.46998,1.637024 0.26727,0.200454 -2.07134,2.138157 -4.64381,2.505652 -2.57247,0.367496 -8.58603,-0.634764 -12.62848,-3.775181 -4.04245,-3.140418 -4.00905,-3.407687 -5.61266,-2.939965 -1.60362,0.467723 -3.74178,-0.23386 -3.74178,-2.004523 0,-1.77066 -0.43431,-1.603616 -1.46998,-2.271789 -1.03567,-0.668173 -3.14041,-3.207234 -2.67269,-8.385582 0.46772,-5.178346 3.67495,-9.120571 6.74855,-11.592814 3.0736,-2.472246 7.01583,-4.209496 8.48581,-5.779706 1.46998,-1.570206 0.83522,-3.240642 4.67722,-5.813112 3.842,-2.572469 4.57699,-2.572468 5.74629,-3.340869 1.16931,-0.7684 2.50565,-0.534537 3.77518,1.670437 1.26953,2.204971 1.46999,2.839738 1.9043,3.808589 0.43431,0.968852 0.56795,2.639288 -0.40091,3.207234 -0.96885,0.567947 -1.96104,0.749515 -2.59887,-0.502531 -0.63784,-1.252048 -1.09279,-2.437434 -1.1596,-2.88845 -0.0668,-0.451017 0.15034,-0.68488 0.23386,-0.80181 0.0835,-0.11693 -0.12528,-0.317383 -0.1921,-0.292325 -0.0668,0.02506 -0.54762,0.52174 -0.40588,1.147763 0.14174,0.626023 1.21661,3.118305 1.4056,3.508092 0.18899,0.389787 0.62603,1.464656 -0.22442,1.984375 -0.85045,0.519718 -1.84264,1.41741 -2.87026,-0.637834 -1.02762,-2.055246 -1.50009,-2.669458 -1.50009,-2.976562 0,-0.307108 0.3377,-1.347047 0.5131,-1.58091 0.17539,-0.23386 -0.12529,-0.634764 -0.25892,-0.526184 -0.13364,0.108577 -0.93544,1.737251 -0.79346,2.288495 0.14199,0.551243 1.51965,2.830594 1.73227,3.244006 0.21261,0.413411 0.60634,1.875874 -0.89705,2.761204 -1.50339,0.885331 -3.27405,1.620322 -4.02575,0.217157 -0.75169,-1.403165 0.53454,-1.854181 0.7684,-1.971111 0.23386,-0.116933 0.65147,0.250563 0.80181,0.484425 0.15034,0.23386 0.96885,0.100225 0.56795,-0.451016 -0.40091,-0.551244 -1.18601,-0.835218 -1.98782,-0.167045 -0.80181,0.668173 -1.53502,1.358807 -2.23191,0.76822 -0.6969,-0.590587 -1.11031,-1.039434 -1.07487,-1.145741 0.0354,-0.106304 -0.56697,0.153554 -0.28349,0.484283 0.28349,0.330729 1.11031,1.003998 1.24024,1.098494 0.12993,0.09449 1.09849,-0.188989 1.65364,0.484281 0.55515,0.673271 -1.09849,2.4096 -1.52371,3.059244 -0.42523,0.649648 -1.43815,2.400678 -1.70542,3.102261 -0.26727,0.701582 -0.30068,0.968852 -0.25056,1.119191 0.0835,-0.9605 1.1179,-0.773381 1.53679,-0.417609 2.09386,1.778342 3.4411,4.610401 3.54133,6.280836 0.16704,0.902033 -3.30746,2.572469 -3.57473,2.572469 -0.26727,0 0.60135,0.35079 2.33861,-0.718288 1.73725,-1.069078 6.14719,-2.154859 10.32328,-0.65147 4.17609,1.503391 5.51244,6.481286 5.57925,8.619442 0.0668,2.138156 0.46772,6.882191 -2.43883,6.882191 z"
           id="path1487"
           inkscape:connector-curvature="0"
           sodipodi:nodetypes="cccsscsssscscsscccccsssssccccsccccsccccscscscscscc" />
        <path
           transform="matrix(-1,0,0,1,330.72371,25.776513)"
           style="fill:#4d4d4d;fill-rule:evenodd;stroke:none;stroke-width:0.37667838px;stroke-linecap:butt;stroke-linejoin:miter;stroke-opacity:1"
           d="m 191.73248,59.180232 c -0.72944,0.04151 -0.58466,0.935445 -1.01897,1.269532 -0.43431,0.334086 -1.67044,1.169302 -2.08804,1.369755 -0.41761,0.200451 -1.08578,-0.200453 -1.33635,0.317381 -0.25057,0.517835 -1.20271,1.536801 0.3675,2.45554 1.5702,0.918739 3.52461,-1.219417 4.04245,-1.687139 0.51783,-0.46772 0.7851,-1.069079 0.85192,-1.68714 0.0668,-0.618059 0.51578,-2.113864 -0.81851,-2.037929 z"
           id="path1489"
           inkscape:connector-curvature="0"
           sodipodi:nodetypes="sccscccs" />
        <path
           style="fill:#4d4d4d;fill-rule:evenodd;stroke:none;stroke-width:0.37667838px;stroke-linecap:butt;stroke-linejoin:miter;stroke-opacity:1"
           d="m 79.136191,114.34802 c -2.876411,12.45476 63.493889,12.46416 60.615059,0.0625 -0.77974,-3.35911 -9.00864,-19.510712 -11.11085,-18.674832 -2.31443,0.92026 -10.99895,2.89191 -16.48326,2.06602 4.52876,-0.54345 15.8888,-2.59032 15.97264,-4.84079 -1.8293,-5.78471 -6.51382,-9.34911 -7.33936,-8.72245 -4.25295,3.9029 -9.00597,1.13709 -9.00597,1.13709 1.45785,0.33885 8.37199,-1.59776 7.98615,-3.56601 -1.02383,-4.19816 -6.43027,-6.69229 -7.81814,-7.87828 -1.38787,-1.18605 -1.86941,-3.58444 -1.86941,-5.61759 0,-2.03314 -3.59945,2.66032 -4.11077,4.86289 -0.26526,0.81433 -0.87682,3.55805 2.61247,6.01478 -2.62894,1.52489 -5.39269,1.33741 -6.55448,0.90526 -0.54345,-0.31735 -4.1638,4.00041 -6.20907,7.05016 -0.85429,1.22837 8.08058,3.149 8.08058,3.149 -1.53543,0.99319 -6.472808,0.62254 -8.087813,-0.0681 -2.485092,-0.95209 -6.943246,6.41576 -8.842422,9.63494 -2.2558,2.255812 15.340945,4.500562 19.806475,3.718942 -3.18575,1.58705 -16.659632,0.62221 -19.836624,-0.79776 -2.189518,-0.97861 -7.254626,9.18027 -7.805205,11.56426 z"
           id="path962"
           inkscape:connector-curvature="0"
           sodipodi:nodetypes="sssccccccsccccccccss" />
      </g>
      <g
         transform="translate(0,-1.3363476)"
         id="text1505"
         style="font-style:normal;font-weight:normal;font-size:11.70584106px;line-height:18.29037666px;font-family:sans-serif;text-align:center;letter-spacing:0px;word-spacing:0px;text-anchor:middle;fill:#4d4d4d;fill-opacity:1;stroke:none;stroke-width:0.26458335px;stroke-linecap:butt;stroke-linejoin:miter;stroke-opacity:1"
         aria-label="TOUGH SHIT">
        <path
           inkscape:connector-curvature="0"
           id="path827"
           style="font-style:normal;font-variant:normal;font-weight:800;font-stretch:normal;font-family:'Rockwell Std';-inkscape-font-specification:'Rockwell Std Ultra-Bold';letter-spacing:-0.19579168px;fill:#4d4d4d;stroke-width:0.26458335px"
           d="m 90.536802,210.86085 h -7.901443 v 3.34787 h 1.498348 v -1.43982 h 0.913056 v 4.13216 h -0.702351 v 1.90805 h 4.483337 v -1.90805 h -0.70235 v -4.13216 h 0.913055 v 1.43982 h 1.498348 z" />
        <path
           inkscape:connector-curvature="0"
           id="path829"
           style="font-style:normal;font-variant:normal;font-weight:800;font-stretch:normal;font-family:'Rockwell Std';-inkscape-font-specification:'Rockwell Std Ultra-Bold';letter-spacing:-0.19579168px;fill:#4d4d4d;stroke-width:0.26458335px"
           d="m 90.93618,214.81742 c 0,1.87294 1.381289,4.12046 4.483337,4.12046 3.102048,0 4.483337,-2.24752 4.483337,-4.12046 0,-1.87293 -1.381289,-4.12046 -4.483337,-4.12046 -3.102048,0 -4.483337,2.24753 -4.483337,4.12046 z m 3.453223,0 c 0,-1.48664 0.187293,-2.25923 1.030114,-2.25923 0.84282,0 1.030114,0.77259 1.030114,2.25923 0,1.48664 -0.187294,2.25923 -1.030114,2.25923 -0.842821,0 -1.030114,-0.77259 -1.030114,-2.25923 z" />
        <path
           inkscape:connector-curvature="0"
           id="path831"
           style="font-style:normal;font-variant:normal;font-weight:800;font-stretch:normal;font-family:'Rockwell Std';-inkscape-font-specification:'Rockwell Std Ultra-Bold';letter-spacing:-0.19579168px;fill:#4d4d4d;stroke-width:0.26458335px"
           d="m 100.62286,212.7689 h 0.60871 v 2.87964 c 0,2.38799 1.2057,3.28934 3.35957,3.28934 2.18899,0 3.27764,-1.11206 3.27764,-3.07864 v -3.09034 h 0.62041 v -1.90805 h -2.98499 v 1.90805 h 0.398 v 2.86793 c 0,1.08864 -0.1873,1.43982 -0.76088,1.43982 -0.78429,0 -0.83112,-0.77259 -0.83112,-1.38129 v -2.92646 h 0.38629 v -1.90805 h -4.07363 z" />
        <path
           inkscape:connector-curvature="0"
           id="path833"
           style="font-style:normal;font-variant:normal;font-weight:800;font-stretch:normal;font-family:'Rockwell Std';-inkscape-font-specification:'Rockwell Std Ultra-Bold';letter-spacing:-0.19579168px;fill:#4d4d4d;stroke-width:0.26458335px"
           d="m 114.35135,216.06995 h 0.81941 c 0,0.64382 -0.398,1.0067 -1.07694,1.0067 -1.0067,0 -1.43982,-0.64382 -1.43982,-2.14217 0,-1.52176 0.28094,-2.32946 1.45153,-2.32946 0.72576,0 1.21741,0.31605 1.6037,1.03011 h 1.90805 v -2.77428 h -1.90805 v 0.55017 c -0.53847,-0.45653 -1.38129,-0.71406 -2.30605,-0.71406 -2.43482,0 -4.2024,1.73247 -4.2024,4.13217 0,1.38129 0.70235,4.10875 4.70575,4.10875 2.25923,0 4.0034,-1.28765 4.0034,-3.78099 v -0.597 h -3.55858 z" />
        <path
           inkscape:connector-curvature="0"
           id="path835"
           style="font-style:normal;font-variant:normal;font-weight:800;font-stretch:normal;font-family:'Rockwell Std';-inkscape-font-specification:'Rockwell Std Ultra-Bold';letter-spacing:-0.19579168px;fill:#4d4d4d;stroke-width:0.26458335px"
           d="m 118.82326,218.80911 h 4.19069 v -1.90805 h -0.50335 v -1.29935 h 1.83782 v 1.29935 h -0.50335 v 1.90805 h 4.19069 v -1.90805 h -0.6087 v -4.13216 h 0.6087 v -1.90805 h -4.19069 v 1.90805 h 0.50335 v 1.21741 h -1.83782 v -1.21741 h 0.50335 v -1.90805 h -4.19069 v 1.90805 h 0.60871 v 4.13216 h -0.60871 z" />
        <path
           inkscape:connector-curvature="0"
           id="path837"
           style="font-style:normal;font-variant:normal;font-weight:800;font-stretch:normal;font-family:'Rockwell Std';-inkscape-font-specification:'Rockwell Std Ultra-Bold';letter-spacing:-0.19579168px;fill:#4d4d4d;stroke-width:0.26458335px"
           d="m 132.59557,218.80911 h 1.79099 v -0.52676 c 0.53847,0.398 1.25252,0.63212 1.90805,0.63212 1.48664,0 2.6104,-1.04182 2.6104,-2.41141 0,-0.77258 -0.38629,-1.4164 -0.69064,-1.72076 -0.92476,-0.92476 -2.64552,-1.39299 -3.0084,-1.75587 -0.0819,-0.0819 -0.14047,-0.22241 -0.14047,-0.35118 0,-0.30435 0.22241,-0.49164 0.58529,-0.49164 0.52676,0 0.87794,0.26923 1.11206,0.83111 l 0.0351,0.10535 h 1.791 v -2.25922 h -1.791 v 0.49164 c -0.46823,-0.38629 -1.08864,-0.597 -1.76758,-0.597 -1.48664,0 -2.49334,0.94818 -2.49334,2.35288 0,0.63211 0.22241,1.15888 0.72576,1.66223 0.85452,0.85452 2.25923,1.07693 2.77428,1.59199 0.15218,0.15218 0.199,0.26924 0.199,0.42141 0,0.31606 -0.24582,0.51506 -0.63211,0.51506 -0.597,0 -0.97159,-0.31606 -1.21741,-1.04182 h -1.79099 z" />
        <path
           inkscape:connector-curvature="0"
           id="path839"
           style="font-style:normal;font-variant:normal;font-weight:800;font-stretch:normal;font-family:'Rockwell Std';-inkscape-font-specification:'Rockwell Std Ultra-Bold';letter-spacing:-0.19579168px;fill:#4d4d4d;stroke-width:0.26458335px"
           d="m 139.70422,218.80911 h 4.19069 v -1.90805 h -0.50335 v -1.29935 h 1.83781 v 1.29935 h -0.50335 v 1.90805 h 4.19069 v -1.90805 h -0.6087 v -4.13216 h 0.6087 v -1.90805 h -4.19069 v 1.90805 h 0.50335 v 1.21741 h -1.83781 v -1.21741 h 0.50335 v -1.90805 h -4.19069 v 1.90805 h 0.6087 v 4.13216 h -0.6087 z" />
        <path
           inkscape:connector-curvature="0"
           id="path841"
           style="font-style:normal;font-variant:normal;font-weight:800;font-stretch:normal;font-family:'Rockwell Std';-inkscape-font-specification:'Rockwell Std Ultra-Bold';letter-spacing:-0.19579168px;fill:#4d4d4d;stroke-width:0.26458335px"
           d="m 149.64568,218.80911 h 4.55357 v -1.90805 h -0.73746 v -4.13216 h 0.73746 v -1.90805 h -4.55357 v 1.90805 h 0.73747 v 4.13216 h -0.73747 z" />
        <path
           inkscape:connector-curvature="0"
           id="path843"
           style="font-style:normal;font-variant:normal;font-weight:800;font-stretch:normal;font-family:'Rockwell Std';-inkscape-font-specification:'Rockwell Std Ultra-Bold';letter-spacing:-0.19579168px;fill:#4d4d4d;stroke-width:0.26458335px"
           d="m 162.75925,210.86085 h -7.90144 v 3.34787 h 1.49835 v -1.43982 h 0.91305 v 4.13216 h -0.70235 v 1.90805 h 4.48334 v -1.90805 h -0.70235 v -4.13216 h 0.91305 v 1.43982 h 1.49835 z" />
      </g>
    </g>
    <text
       id="text825"
       y="218.80911"
       x="-20.030476"
       style="font-style:normal;font-weight:normal;font-size:11.70584106px;line-height:18.29037666px;font-family:sans-serif;text-align:center;letter-spacing:0px;word-spacing:0px;text-anchor:middle;fill:#4d4d4d;fill-opacity:1;stroke:none;stroke-width:0.26458335px;stroke-linecap:butt;stroke-linejoin:miter;stroke-opacity:1"
       xml:space="preserve"><tspan
         style="font-style:normal;font-variant:normal;font-weight:800;font-stretch:normal;font-family:'Rockwell Std';-inkscape-font-specification:'Rockwell Std Ultra-Bold';letter-spacing:-0.19579168px;fill:#4d4d4d;stroke-width:0.26458335px"
         y="218.80911"
         x="-20.128368"
         id="tspan823"
         sodipodi:role="line">TOUGH SHIT</tspan></text>
  </g>
</svg>
