<?xml version="1.0" encoding="UTF-8" standalone="no"?>
<!-- Created with Inkscape (http://www.inkscape.org/) -->

<svg
   xmlns:dc="http://purl.org/dc/elements/1.1/"
   xmlns:cc="http://creativecommons.org/ns#"
   xmlns:rdf="http://www.w3.org/1999/02/22-rdf-syntax-ns#"
   xmlns:svg="http://www.w3.org/2000/svg"
   xmlns="http://www.w3.org/2000/svg"
   xmlns:sodipodi="http://sodipodi.sourceforge.net/DTD/sodipodi-0.dtd"
   xmlns:inkscape="http://www.inkscape.org/namespaces/inkscape"
   version="1.1"
   id="svg2"
   xml:space="preserve"
   width="160"
   height="160"
   viewBox="0 0 160 160"
   sodipodi:docname="awesomeface.svg"
   inkscape:version="0.92.2 5c3e80d, 2017-08-06"><metadata
     id="metadata8"><rdf:RDF><cc:Work
         rdf:about=""><dc:format>image/svg+xml</dc:format><dc:type
           rdf:resource="http://purl.org/dc/dcmitype/StillImage" /><dc:title></dc:title></cc:Work></rdf:RDF></metadata><defs
     id="defs6"><clipPath
       clipPathUnits="userSpaceOnUse"
       id="clipPath18"><path
         d="M 0,120 H 120 V 0 H 0 Z"
         id="path16"
         inkscape:connector-curvature="0" /></clipPath></defs><sodipodi:namedview
     pagecolor="#ffffff"
     bordercolor="#666666"
     borderopacity="1"
     objecttolerance="10"
     gridtolerance="10"
     guidetolerance="10"
     inkscape:pageopacity="0"
     inkscape:pageshadow="2"
     inkscape:window-width="1920"
     inkscape:window-height="1036"
     id="namedview4"
     showgrid="false"
     inkscape:zoom="1.475"
     inkscape:cx="-116.94915"
     inkscape:cy="80"
     inkscape:window-x="0"
     inkscape:window-y="20"
     inkscape:window-maximized="0"
     inkscape:current-layer="g10" /><g
     id="g10"
     inkscape:groupmode="layer"
     inkscape:label="awesomeface"
     transform="matrix(1.3333333,0,0,-1.3333333,0,160)"><g
       id="g12"><g
         id="g14"
         clip-path="url(#clipPath18)"><g
           id="g20"
           transform="translate(46.9258,100.0645)"><path
             d="m 0,0 c -18.48,-5.279 -49.911,-13.844 -41.864,-58.273 8.047,-44.427 62.861,-51.483 90.522,-30.362 27.658,21.123 26.149,57.831 5.53,77.697 C 33.569,8.928 0,0 0,0"
             style="fill:#f58345;fill-opacity:1;fill-rule:nonzero;stroke:none"
             id="path22"
             inkscape:connector-curvature="0" /></g><g
           id="g24"
           transform="translate(50.3193,119.6172)"><path
             d="M 0,0 C -1.948,-6.854 -3.395,-19.11 12.385,-19.235 14.898,-1.006 0,0 0,0"
             style="fill:#b0d235;fill-opacity:1;fill-rule:nonzero;stroke:none"
             id="path26"
             inkscape:connector-curvature="0" /></g><g
           id="g28"
           transform="translate(85.8359,117.5439)"><path
             d="M 0,0 C -17.475,3.205 -21.625,-10.121 -21.437,-16.723 -4.588,-18.105 0.377,-7.607 0,0"
             style="fill:#b0d235;fill-opacity:1;fill-rule:nonzero;stroke:none"
             id="path30"
             inkscape:connector-curvature="0" /></g><g
           id="g32"
           transform="translate(80.3047,94.4717)"><path
             d="m 0,0 c 0,-0.729 -0.591,-1.321 -1.319,-1.321 -0.73,0 -1.321,0.592 -1.321,1.321 0,0.729 0.591,1.319 1.321,1.319 C -0.591,1.319 0,0.729 0,0"
             style="fill:#b64726;fill-opacity:1;fill-rule:nonzero;stroke:none"
             id="path34"
             inkscape:connector-curvature="0" /></g><g
           id="g36"
           transform="translate(82.4736,89.7568)"><path
             d="m 0,0 c 0,-0.729 -0.591,-1.32 -1.32,-1.32 -0.73,0 -1.319,0.591 -1.319,1.32 0,0.73 0.589,1.321 1.319,1.321 C -0.591,1.321 0,0.73 0,0"
             style="fill:#b64726;fill-opacity:1;fill-rule:nonzero;stroke:none"
             id="path38"
             inkscape:connector-curvature="0" /></g><g
           id="g40"
           transform="translate(93.7412,89.7568)"><path
             d="m 0,0 c 0,-0.729 -0.591,-1.32 -1.32,-1.32 -0.73,0 -1.32,0.591 -1.32,1.32 0,0.73 0.59,1.321 1.32,1.321 C -0.591,1.321 0,0.73 0,0"
             style="fill:#b64726;fill-opacity:1;fill-rule:nonzero;stroke:none"
             id="path42"
             inkscape:connector-curvature="0" /></g><g
           id="g44"
           transform="translate(91.7617,84.335)"><path
             d="m 0,0 c 0,-0.729 -0.592,-1.319 -1.319,-1.319 -0.73,0 -1.321,0.59 -1.321,1.319 0,0.73 0.591,1.321 1.321,1.321 C -0.592,1.321 0,0.73 0,0"
             style="fill:#b64726;fill-opacity:1;fill-rule:nonzero;stroke:none"
             id="path46"
             inkscape:connector-curvature="0" /></g><g
           id="g48"
           transform="translate(98.0303,87.7314)"><path
             d="m 0,0 c 0,-0.73 -0.59,-1.322 -1.319,-1.322 -0.73,0 -1.321,0.592 -1.321,1.322 0,0.729 0.591,1.319 1.321,1.319 C -0.59,1.319 0,0.729 0,0"
             style="fill:#b64726;fill-opacity:1;fill-rule:nonzero;stroke:none"
             id="path50"
             inkscape:connector-curvature="0" /></g><g
           id="g52"
           transform="translate(97.6553,82.3555)"><path
             d="m 0,0 c 0,-0.73 -0.593,-1.321 -1.322,-1.321 -0.728,0 -1.32,0.591 -1.32,1.321 0,0.729 0.592,1.32 1.32,1.32 C -0.593,1.32 0,0.729 0,0"
             style="fill:#b64726;fill-opacity:1;fill-rule:nonzero;stroke:none"
             id="path54"
             inkscape:connector-curvature="0" /></g><g
           id="g56"
           transform="translate(100.0596,75.9248)"><path
             d="m 0,0 c 0,-0.729 -0.591,-1.319 -1.32,-1.319 -0.73,0 -1.321,0.59 -1.321,1.319 0,0.729 0.591,1.319 1.321,1.319 C -0.591,1.319 0,0.729 0,0"
             style="fill:#b64726;fill-opacity:1;fill-rule:nonzero;stroke:none"
             id="path58"
             inkscape:connector-curvature="0" /></g><g
           id="g60"
           transform="translate(105.1992,80.7803)"><path
             d="m 0,0 c 0,-0.729 -0.591,-1.319 -1.322,-1.319 -0.728,0 -1.318,0.59 -1.318,1.319 0,0.729 0.59,1.319 1.318,1.319 C -0.591,1.319 0,0.729 0,0"
             style="fill:#b64726;fill-opacity:1;fill-rule:nonzero;stroke:none"
             id="path62"
             inkscape:connector-curvature="0" /></g><g
           id="g64"
           transform="translate(107.5264,75.123)"><path
             d="m 0,0 c 0,-0.73 -0.592,-1.32 -1.321,-1.32 -0.731,0 -1.321,0.59 -1.321,1.32 0,0.728 0.59,1.319 1.321,1.319 C -0.592,1.319 0,0.728 0,0"
             style="fill:#b64726;fill-opacity:1;fill-rule:nonzero;stroke:none"
             id="path66"
             inkscape:connector-curvature="0" /></g><g
           id="g68"
           transform="translate(103.877,69.7783)"><path
             d="m 0,0 c 0,-0.729 -0.59,-1.319 -1.317,-1.319 -0.731,0 -1.322,0.59 -1.322,1.319 0,0.73 0.591,1.32 1.322,1.32 C -0.59,1.32 0,0.73 0,0"
             style="fill:#b64726;fill-opacity:1;fill-rule:nonzero;stroke:none"
             id="path70"
             inkscape:connector-curvature="0" /></g><g
           id="g72"
           transform="translate(110.7295,70.4063)"><path
             d="m 0,0 c 0,-0.73 -0.59,-1.32 -1.319,-1.32 -0.73,0 -1.321,0.59 -1.321,1.32 0,0.729 0.591,1.32 1.321,1.32 C -0.59,1.32 0,0.729 0,0"
             style="fill:#b64726;fill-opacity:1;fill-rule:nonzero;stroke:none"
             id="path74"
             inkscape:connector-curvature="0" /></g><g
           id="g76"
           transform="translate(106.1006,62.6445)"><path
             d="m 0,0 c 0,-0.729 -0.592,-1.319 -1.32,-1.319 -0.73,0 -1.322,0.59 -1.322,1.319 0,0.729 0.592,1.319 1.322,1.319 C -0.592,1.319 0,0.729 0,0"
             style="fill:#b64726;fill-opacity:1;fill-rule:nonzero;stroke:none"
             id="path78"
             inkscape:connector-curvature="0" /></g><g
           id="g80"
           transform="translate(111.6328,64.2148)"><path
             d="m 0,0 c 0,-0.729 -0.591,-1.318 -1.321,-1.318 -0.73,0 -1.32,0.589 -1.32,1.318 0,0.73 0.59,1.32 1.32,1.32 C -0.591,1.32 0,0.73 0,0"
             style="fill:#b64726;fill-opacity:1;fill-rule:nonzero;stroke:none"
             id="path82"
             inkscape:connector-curvature="0" /></g><g
           id="g84"
           transform="translate(112.0723,58.3945)"><path
             d="m 0,0 c 0,-0.729 -0.59,-1.321 -1.321,-1.321 -0.73,0 -1.321,0.592 -1.321,1.321 0,0.728 0.591,1.32 1.321,1.32 C -0.59,1.32 0,0.728 0,0"
             style="fill:#b64726;fill-opacity:1;fill-rule:nonzero;stroke:none"
             id="path86"
             inkscape:connector-curvature="0" /></g><g
           id="g88"
           transform="translate(112.9531,52.5791)"><path
             d="m 0,0 c 0,-0.732 -0.591,-1.322 -1.32,-1.322 -0.73,0 -1.322,0.59 -1.322,1.322 0,0.726 0.592,1.32 1.322,1.32 C -0.591,1.32 0,0.726 0,0"
             style="fill:#b64726;fill-opacity:1;fill-rule:nonzero;stroke:none"
             id="path90"
             inkscape:connector-curvature="0" /></g><g
           id="g92"
           transform="translate(107.4189,54.3994)"><path
             d="m 0,0 c 0,-0.728 -0.591,-1.321 -1.318,-1.321 -0.73,0 -1.321,0.593 -1.321,1.321 0,0.728 0.591,1.321 1.321,1.321 C -0.591,1.321 0,0.728 0,0"
             style="fill:#b64726;fill-opacity:1;fill-rule:nonzero;stroke:none"
             id="path94"
             inkscape:connector-curvature="0" /></g><g
           id="g96"
           transform="translate(108.4258,47.7979)"><path
             d="m 0,0 c 0,-0.729 -0.589,-1.32 -1.317,-1.32 -0.732,0 -1.322,0.591 -1.322,1.32 0,0.729 0.59,1.321 1.322,1.321 C -0.589,1.321 0,0.729 0,0"
             style="fill:#b64726;fill-opacity:1;fill-rule:nonzero;stroke:none"
             id="path98"
             inkscape:connector-curvature="0" /></g><g
           id="g100"
           transform="translate(87.376,92.3975)"><path
             d="m 0,0 c 0,-0.729 -0.59,-1.319 -1.319,-1.319 -0.731,0 -1.32,0.59 -1.32,1.319 0,0.73 0.589,1.32 1.32,1.32 C -0.59,1.32 0,0.73 0,0"
             style="fill:#b64726;fill-opacity:1;fill-rule:nonzero;stroke:none"
             id="path102"
             inkscape:connector-curvature="0" /></g><g
           id="g104"
           transform="translate(53.9727,11.7461)"><path
             d="m 0,0 c -16.321,2.833 -26.17,15.513 -28.597,31.431 v 1.079 l -3.373,0.135 -0.134,2.427 h 64.883 c 0.81,-1.753 1.35,-3.641 1.754,-5.53 C 36.287,16.862 29.406,9.848 19.155,3.507 13.085,0.405 6.609,-0.404 0,0"
             style="fill:#000000;fill-opacity:1;fill-rule:nonzero;stroke:none"
             id="path106"
             inkscape:connector-curvature="0" /></g><g
           id="g108"
           transform="translate(60.3125,14.1738)"><path
             d="m 0,0 c 7.015,0.81 13.22,3.777 18.616,8.363 3.777,3.373 6.205,7.555 6.88,11.737 0.539,2.698 0.134,7.689 -0.675,9.442 l -57.06,0.136 C -32.51,22.123 -26.978,13.76 -22.258,8.499 -18.075,3.912 -12.545,1.215 -6.609,0 -5.126,-0.27 -1.483,-0.27 0,0"
             style="fill:#881a46;fill-opacity:1;fill-rule:nonzero;stroke:none"
             id="path110"
             inkscape:connector-curvature="0" /></g><g
           id="g112"
           transform="translate(20.3848,55.3174)"><path
             d="m 0,0 c -1.754,3.507 -1.754,7.688 -1.214,11.466 0.809,3.642 2.427,7.014 4.721,9.173 2.832,2.697 6.744,3.102 10.386,2.427 2.024,-0.54 3.777,-1.618 5.261,-3.102 2.429,-2.293 4.047,-5.396 4.857,-9.037 0.539,-2.699 0.539,-5.531 0,-8.095 L 23.201,0 Z"
             style="fill:#000000;fill-opacity:1;fill-rule:nonzero;stroke:none"
             id="path114"
             inkscape:connector-curvature="0" /></g><g
           id="g116"
           transform="translate(41.6973,57.8799)"><path
             d="m 0,0 c 0.674,0.81 0.81,5.396 0.271,7.824 -0.407,2.158 -0.541,2.158 -1.35,1.349 -1.889,-1.889 -5.126,-1.889 -7.015,0 -2.023,2.428 -1.618,5.531 0.81,7.42 0.404,0.404 0.675,0.674 0.675,0.808 -0.135,0.54 -2.968,1.08 -4.587,0.945 -5.666,-0.54 -7.77,-5.396 -8.93,-10.388 C -20.531,5.665 -20.261,0.81 -19.587,0 Z"
             style="fill:#ffffff;fill-opacity:1;fill-rule:nonzero;stroke:none"
             id="path118"
             inkscape:connector-curvature="0" /></g><g
           id="g120"
           transform="translate(61.1221,55.1816)"><path
             d="m 0,0 c -0.27,0.405 -0.81,2.698 -0.943,3.912 -0.675,3.777 -0.136,7.69 1.483,11.197 2.023,4.046 5.53,7.014 9.712,8.093 3.912,0.944 7.688,0 11.061,-2.022 3.507,-2.294 6.071,-6.611 6.746,-11.063 0.269,-1.618 0.269,-4.451 0,-6.07 C 27.923,2.698 27.384,0.54 26.979,0 Z"
             style="fill:#000000;fill-opacity:1;fill-rule:nonzero;stroke:none"
             id="path122"
             inkscape:connector-curvature="0" /></g><g
           id="g124"
           transform="translate(86.3477,57.7451)"><path
             d="M 0,0 C 0.539,0.675 0.675,4.586 0.539,6.744 0.27,8.633 -0.27,9.982 -0.539,9.982 c -0.136,0 -0.405,-0.27 -0.811,-0.674 -2.293,-2.293 -6.338,-1.754 -7.823,1.213 -0.944,2.16 -0.54,4.183 1.079,5.801 0.54,0.539 0.945,1.079 0.945,1.214 0,0 -0.539,0.27 -1.08,0.404 -6.879,2.294 -14.164,-2.697 -15.513,-10.791 -0.404,-2.023 0,-5.8 0.405,-7.149 z"
             style="fill:#ffffff;fill-opacity:1;fill-rule:nonzero;stroke:none"
             id="path126"
             inkscape:connector-curvature="0" /></g><g
           id="g128"
           transform="translate(78.1191,21.8633)"><path
             d="m 0,0 c 0,0 -6.205,-5.396 -14.164,-7.149 -8.902,-2.024 -15.378,0.944 -15.378,0.944 0,0 1.889,10.252 12.545,12.814 C -6.745,9.038 0,0 0,0"
             style="fill:#f6bed7;fill-opacity:1;fill-rule:nonzero;stroke:none"
             id="path130"
             inkscape:connector-curvature="0" /></g></g></g></g></svg>