<?xml version="1.0" encoding="UTF-8" standalone="no"?>
<!-- Created with Inkscape (http://www.inkscape.org/) -->

<svg
   xmlns:dc="http://purl.org/dc/elements/1.1/"
   xmlns:cc="http://creativecommons.org/ns#"
   xmlns:rdf="http://www.w3.org/1999/02/22-rdf-syntax-ns#"
   xmlns:svg="http://www.w3.org/2000/svg"
   xmlns="http://www.w3.org/2000/svg"
   xmlns:sodipodi="http://sodipodi.sourceforge.net/DTD/sodipodi-0.dtd"
   xmlns:inkscape="http://www.inkscape.org/namespaces/inkscape"
   version="1.1"
   id="svg2"
   xml:space="preserve"
   width="816"
   height="1056"
   viewBox="0 0 816 1056"
   sodipodi:docname="face.svg"
   inkscape:version="0.92.2 5c3e80d, 2017-08-06"><metadata
     id="metadata8"><rdf:RDF><cc:Work
         rdf:about=""><dc:format>image/svg+xml</dc:format><dc:type
           rdf:resource="http://purl.org/dc/dcmitype/StillImage" /><dc:title></dc:title></cc:Work></rdf:RDF></metadata><defs
     id="defs6"><clipPath
       clipPathUnits="userSpaceOnUse"
       id="clipPath18"><path
         d="M 0,792 H 612 V 0 H 0 Z"
         id="path16"
         inkscape:connector-curvature="0" /></clipPath><clipPath
       clipPathUnits="userSpaceOnUse"
       id="clipPath30"><path
         d="m 437.301,423.053 v -67.1 c 0,-29.789 23.144,-55.277 69.906,-55.277 v 0 c 46.764,0 69.908,25.488 69.908,55.277 v 0 67.1 c 0,54.627 -39.682,67.27 -69.908,67.27 v 0 c -30.225,0 -69.906,-12.643 -69.906,-67.27"
         id="path28"
         inkscape:connector-curvature="0" /></clipPath><linearGradient
       x1="0"
       y1="0"
       x2="1"
       y2="0"
       gradientUnits="userSpaceOnUse"
       gradientTransform="matrix(139.81445,0,0,-139.81445,437.30078,395.49902)"
       spreadMethod="pad"
       id="linearGradient40"><stop
         style="stop-opacity:1;stop-color:#d1d3d4"
         offset="0"
         id="stop36" /><stop
         style="stop-opacity:1;stop-color:#808285"
         offset="1"
         id="stop38" /></linearGradient><clipPath
       clipPathUnits="userSpaceOnUse"
       id="clipPath50"><path
         d="M 0,792 H 612 V 0 H 0 Z"
         id="path48"
         inkscape:connector-curvature="0" /></clipPath></defs><sodipodi:namedview
     pagecolor="#ffffff"
     bordercolor="#666666"
     borderopacity="1"
     objecttolerance="10"
     gridtolerance="10"
     guidetolerance="10"
     inkscape:pageopacity="0"
     inkscape:pageshadow="2"
     inkscape:window-width="1920"
     inkscape:window-height="1036"
     id="namedview4"
     showgrid="false"
     inkscape:zoom="0.89393939"
     inkscape:cx="280.07651"
     inkscape:cy="484.15173"
     inkscape:window-x="0"
     inkscape:window-y="20"
     inkscape:window-maximized="0"
     inkscape:current-layer="g10" /><g
     id="g10"
     inkscape:groupmode="layer"
     inkscape:label="face_logo"
     transform="matrix(1.3333333,0,0,-1.3333333,0,1056)"><g
       id="g12"><g
         id="g14"
         clip-path="url(#clipPath18)"><g
           id="g20"
           transform="translate(294.167,396.1133)"><path
             d="m 0,0 c 0,-55.229 -44.771,-100 -100,-100 -55.229,0 -100,44.771 -100,100 0,55.228 44.771,100 100,100 C -44.771,100 0,55.228 0,0"
             style="fill:#a7a9ac;fill-opacity:1;fill-rule:nonzero;stroke:none"
             id="path22"
             inkscape:connector-curvature="0" /></g></g></g><g
       id="g24"><g
         id="g26"
         clip-path="url(#clipPath30)"><g
           id="g32"><g
             id="g34"><path
               d="m 437.301,423.053 v -67.1 c 0,-29.789 23.144,-55.277 69.906,-55.277 v 0 c 46.764,0 69.908,25.488 69.908,55.277 v 0 67.1 c 0,54.627 -39.682,67.27 -69.908,67.27 v 0 c -30.225,0 -69.906,-12.643 -69.906,-67.27"
               style="fill:url(#linearGradient40);stroke:none"
               id="path42"
               inkscape:connector-curvature="0" /></g></g></g></g><g
       id="g44"><g
         id="g46"
         clip-path="url(#clipPath50)"><g
           id="g52"
           transform="translate(141.4961,424.4839)"><path
             d="m 0,0 c -0.311,0 -0.625,0.052 -0.936,0.159 -1.478,0.517 -2.257,2.134 -1.74,3.612 0.065,0.183 1.615,4.539 5.666,8.849 3.744,3.985 10.43,8.736 21.012,8.736 10.611,0 17.127,-4.777 20.725,-8.784 3.89,-4.336 5.267,-8.719 5.324,-8.904 C 50.51,2.172 49.67,0.585 48.174,0.126 46.676,-0.334 45.092,0.506 44.631,2.003 44.457,2.551 40.109,15.687 24.002,15.687 7.682,15.687 2.725,2.038 2.676,1.9 2.268,0.731 1.172,0 0,0"
             style="fill:#414142;fill-opacity:1;fill-rule:nonzero;stroke:none"
             id="path54"
             inkscape:connector-curvature="0" /></g><g
           id="g56"
           transform="translate(199.4961,424.4839)"><path
             d="m 0,0 c -0.309,0 -0.625,0.052 -0.934,0.159 -1.478,0.517 -2.257,2.134 -1.742,3.612 0.065,0.183 1.615,4.539 5.666,8.849 3.746,3.985 10.432,8.736 21.012,8.736 10.613,0 17.129,-4.777 20.725,-8.784 C 48.619,8.236 49.994,3.853 50.051,3.668 50.512,2.172 49.672,0.585 48.174,0.126 46.678,-0.334 45.092,0.506 44.633,2.003 44.459,2.551 40.109,15.687 24.002,15.687 7.682,15.687 2.725,2.038 2.678,1.9 2.27,0.731 1.172,0 0,0"
             style="fill:#414142;fill-opacity:1;fill-rule:nonzero;stroke:none"
             id="path58"
             inkscape:connector-curvature="0" /></g><g
           id="g60"
           transform="translate(206.1211,374.1465)"><path
             d="m 0,0 h -34.584 c -1.566,0 -2.836,1.268 -2.836,2.834 0,1.564 1.27,2.834 2.836,2.834 H 0 c 1.244,0 3.432,0.178 4.115,1.355 0.668,1.151 0.246,3.565 -1,5.741 -1.076,1.879 -15.853,27.125 -16.004,27.38 -0.791,1.352 -0.336,3.088 1.016,3.879 1.35,0.791 3.086,0.337 3.877,-1.015 C -7.385,41.967 6.945,17.484 8.035,15.582 9.859,12.396 11.078,7.729 9.021,4.182 7.916,2.273 5.453,0 0,0"
             style="fill:#414142;fill-opacity:1;fill-rule:nonzero;stroke:none"
             id="path62"
             inkscape:connector-curvature="0" /></g><g
           id="g64"
           transform="translate(195.5703,340.3848)"><path
             d="m 0,0 c -16.473,0 -28.109,5.172 -34.971,9.512 -7.537,4.763 -11.142,9.58 -11.291,9.781 -0.931,1.26 -0.664,3.035 0.594,3.965 1.258,0.929 3.027,0.666 3.961,-0.588 0.045,-0.061 3.285,-4.322 10.004,-8.518 C -25.506,10.283 -14.975,5.67 0,5.67 c 14.896,0 24.76,4.564 30.41,8.393 6.119,4.146 8.778,8.359 8.805,8.402 0.822,1.324 2.566,1.74 3.896,0.922 1.328,-0.817 1.75,-2.551 0.938,-3.883 C 43.924,19.297 40.891,14.396 33.887,9.572 27.547,5.205 16.521,0 0,0"
             style="fill:#414142;fill-opacity:1;fill-rule:nonzero;stroke:none"
             id="path66"
             inkscape:connector-curvature="0" /></g></g></g></g></svg>