<?xml version="1.0" encoding="UTF-8" standalone="no"?>
<!-- Created with Inkscape (http://www.inkscape.org/) -->

<svg
   xmlns:dc="http://purl.org/dc/elements/1.1/"
   xmlns:cc="http://creativecommons.org/ns#"
   xmlns:rdf="http://www.w3.org/1999/02/22-rdf-syntax-ns#"
   xmlns:svg="http://www.w3.org/2000/svg"
   xmlns="http://www.w3.org/2000/svg"
   xmlns:sodipodi="http://sodipodi.sourceforge.net/DTD/sodipodi-0.dtd"
   xmlns:inkscape="http://www.inkscape.org/namespaces/inkscape"
   version="1.1"
   id="svg2"
   xml:space="preserve"
   width="677.94269"
   height="619.77869"
   viewBox="0 0 677.94269 619.77869"
   sodipodi:docname="fruitface1.svg"
   inkscape:version="0.92.2 5c3e80d, 2017-08-06"><metadata
     id="metadata8"><rdf:RDF><cc:Work
         rdf:about=""><dc:format>image/svg+xml</dc:format><dc:type
           rdf:resource="http://purl.org/dc/dcmitype/StillImage" /><dc:title></dc:title></cc:Work></rdf:RDF></metadata><defs
     id="defs6"><clipPath
       clipPathUnits="userSpaceOnUse"
       id="clipPath18"><path
         d="m 0,120.184 h 508.457 v 344.65 H 0 Z"
         id="path16"
         inkscape:connector-curvature="0" /></clipPath><linearGradient
       x1="0"
       y1="0"
       x2="1"
       y2="0"
       gradientUnits="userSpaceOnUse"
       gradientTransform="matrix(-1.67e-5,382.81479,382.81479,1.67e-5,254.0957,137.58691)"
       spreadMethod="pad"
       id="linearGradient30"><stop
         style="stop-opacity:1;stop-color:#76cdd7"
         offset="0"
         id="stop24" /><stop
         style="stop-opacity:1;stop-color:#76cdd7"
         offset="0.67826624"
         id="stop26" /><stop
         style="stop-opacity:1;stop-color:#0b939e"
         offset="1"
         id="stop28" /></linearGradient><clipPath
       clipPathUnits="userSpaceOnUse"
       id="clipPath40"><path
         d="M 0,464.834 H 508.457 V 0 H 0 Z"
         id="path38"
         inkscape:connector-curvature="0" /></clipPath><clipPath
       clipPathUnits="userSpaceOnUse"
       id="clipPath72"><path
         d="m 0,187.907 c 0,-23.334 18.916,-42.25 42.25,-42.25 v 0 c 23.334,0 42.25,18.916 42.25,42.25 v 0 c 0,23.334 -18.916,42.25 -42.25,42.25 v 0 C 18.916,230.157 0,211.241 0,187.907"
         id="path70"
         inkscape:connector-curvature="0" /></clipPath><linearGradient
       x1="0"
       y1="0"
       x2="1"
       y2="0"
       gradientUnits="userSpaceOnUse"
       gradientTransform="matrix(-4.1e-6,93.309967,93.309967,4.1e-6,42.25,149.89893)"
       spreadMethod="pad"
       id="linearGradient82"><stop
         style="stop-opacity:1;stop-color:#ffffff"
         offset="0"
         id="stop78" /><stop
         style="stop-opacity:1;stop-color:#feec62"
         offset="1"
         id="stop80" /></linearGradient><clipPath
       clipPathUnits="userSpaceOnUse"
       id="clipPath92"><path
         d="m 52,212.765 c 0,-23.687 19.204,-42.89 42.891,-42.89 v 0 c 23.688,0 42.891,19.203 42.891,42.89 v 0 c 0,23.689 -19.203,42.893 -42.891,42.893 v 0 C 71.204,255.658 52,236.454 52,212.765"
         id="path90"
         inkscape:connector-curvature="0" /></clipPath><linearGradient
       x1="0"
       y1="0"
       x2="1"
       y2="0"
       gradientUnits="userSpaceOnUse"
       gradientTransform="matrix(-4.1e-6,94.725876,94.725876,4.1e-6,94.890625,174.18115)"
       spreadMethod="pad"
       id="linearGradient102"><stop
         style="stop-opacity:1;stop-color:#ffffff"
         offset="0"
         id="stop98" /><stop
         style="stop-opacity:1;stop-color:#feec62"
         offset="1"
         id="stop100" /></linearGradient><clipPath
       clipPathUnits="userSpaceOnUse"
       id="clipPath112"><path
         d="m 102.5,238.212 c 0,-14.054 11.392,-25.446 25.445,-25.446 v 0 c 14.054,0 25.446,11.392 25.446,25.446 v 0 c 0,14.053 -11.392,25.445 -25.446,25.445 v 0 c -14.053,0 -25.445,-11.392 -25.445,-25.445"
         id="path110"
         inkscape:connector-curvature="0" /></clipPath><linearGradient
       x1="0"
       y1="0"
       x2="1"
       y2="0"
       gradientUnits="userSpaceOnUse"
       gradientTransform="matrix(-2.5e-6,56.19648,56.19648,2.5e-6,127.94531,215.32129)"
       spreadMethod="pad"
       id="linearGradient122"><stop
         style="stop-opacity:1;stop-color:#ffffff"
         offset="0"
         id="stop118" /><stop
         style="stop-opacity:1;stop-color:#feec62"
         offset="1"
         id="stop120" /></linearGradient><clipPath
       clipPathUnits="userSpaceOnUse"
       id="clipPath132"><path
         d="m 118,186.157 c 0,-25.682 20.819,-46.499 46.5,-46.499 v 0 c 25.682,0 46.5,20.817 46.5,46.499 v 0 c 0,25.682 -20.818,46.5 -46.5,46.5 v 0 c -25.681,0 -46.5,-20.818 -46.5,-46.5"
         id="path130"
         inkscape:connector-curvature="0" /></clipPath><linearGradient
       x1="0"
       y1="0"
       x2="1"
       y2="0"
       gradientUnits="userSpaceOnUse"
       gradientTransform="matrix(-4.5e-6,102.69617,102.69617,4.5e-6,164.5,144.32568)"
       spreadMethod="pad"
       id="linearGradient142"><stop
         style="stop-opacity:1;stop-color:#ffffff"
         offset="0"
         id="stop138" /><stop
         style="stop-opacity:1;stop-color:#feec62"
         offset="1"
         id="stop140" /></linearGradient><clipPath
       clipPathUnits="userSpaceOnUse"
       id="clipPath152"><path
         d="m 168.269,226.792 c 0,-26.435 21.431,-47.865 47.866,-47.865 v 0 c 26.436,0 47.865,21.43 47.865,47.865 v 0 c 0,26.436 -21.429,47.866 -47.865,47.866 v 0 c -26.435,0 -47.866,-21.43 -47.866,-47.866"
         id="path150"
         inkscape:connector-curvature="0" /></clipPath><linearGradient
       x1="0"
       y1="0"
       x2="1"
       y2="0"
       gradientUnits="userSpaceOnUse"
       gradientTransform="matrix(-4.6e-6,105.71133,105.71133,4.6e-6,216.13477,183.73242)"
       spreadMethod="pad"
       id="linearGradient162"><stop
         style="stop-opacity:1;stop-color:#ffffff"
         offset="0"
         id="stop158" /><stop
         style="stop-opacity:1;stop-color:#feec62"
         offset="1"
         id="stop160" /></linearGradient><clipPath
       clipPathUnits="userSpaceOnUse"
       id="clipPath172"><path
         d="m 220,182.266 c 0,-16.845 13.655,-30.499 30.5,-30.499 v 0 c 16.845,0 30.5,13.654 30.5,30.499 v 0 c 0,16.845 -13.655,30.5 -30.5,30.5 v 0 c -16.845,0 -30.5,-13.655 -30.5,-30.5"
         id="path170"
         inkscape:connector-curvature="0" /></clipPath><linearGradient
       x1="0"
       y1="0"
       x2="1"
       y2="0"
       gradientUnits="userSpaceOnUse"
       gradientTransform="matrix(-2.9e-6,67.359856,67.359856,2.9e-6,250.5,154.82861)"
       spreadMethod="pad"
       id="linearGradient182"><stop
         style="stop-opacity:1;stop-color:#ffffff"
         offset="0"
         id="stop178" /><stop
         style="stop-opacity:1;stop-color:#feec62"
         offset="1"
         id="stop180" /></linearGradient><clipPath
       clipPathUnits="userSpaceOnUse"
       id="clipPath192"><path
         d="m 239.5,228.658 c 0,-30.929 25.072,-56.001 56,-56.001 v 0 c 30.927,0 56,25.072 56,56.001 v 0 c 0,30.927 -25.073,55.999 -56,55.999 v 0 c -30.928,0 -56,-25.072 -56,-55.999"
         id="path190"
         inkscape:connector-curvature="0" /></clipPath><linearGradient
       x1="0"
       y1="0"
       x2="1"
       y2="0"
       gradientUnits="userSpaceOnUse"
       gradientTransform="matrix(-5.4e-6,123.67712,123.67712,5.4e-6,295.5,178.2793)"
       spreadMethod="pad"
       id="linearGradient202"><stop
         style="stop-opacity:1;stop-color:#ffffff"
         offset="0"
         id="stop198" /><stop
         style="stop-opacity:1;stop-color:#feec62"
         offset="1"
         id="stop200" /></linearGradient><clipPath
       clipPathUnits="userSpaceOnUse"
       id="clipPath212"><path
         d="m 319.029,176.781 c 0,-19.875 16.111,-35.986 35.986,-35.986 v 0 c 19.874,0 35.985,16.111 35.985,35.986 v 0 c 0,19.874 -16.111,35.985 -35.985,35.985 v 0 c -19.875,0 -35.986,-16.111 -35.986,-35.985"
         id="path210"
         inkscape:connector-curvature="0" /></clipPath><linearGradient
       x1="0"
       y1="0"
       x2="1"
       y2="0"
       gradientUnits="userSpaceOnUse"
       gradientTransform="matrix(-3.5e-6,79.475441,79.475441,3.5e-6,355.01465,144.40771)"
       spreadMethod="pad"
       id="linearGradient222"><stop
         style="stop-opacity:1;stop-color:#ffffff"
         offset="0"
         id="stop218" /><stop
         style="stop-opacity:1;stop-color:#feec62"
         offset="1"
         id="stop220" /></linearGradient><clipPath
       clipPathUnits="userSpaceOnUse"
       id="clipPath232"><path
         d="m 330.982,206.898 c 0,-20.576 16.682,-37.259 37.259,-37.259 v 0 c 20.577,0 37.259,16.683 37.259,37.259 v 0 c 0,20.578 -16.682,37.259 -37.259,37.259 v 0 c -20.577,0 -37.259,-16.681 -37.259,-37.259"
         id="path230"
         inkscape:connector-curvature="0" /></clipPath><linearGradient
       x1="0"
       y1="0"
       x2="1"
       y2="0"
       gradientUnits="userSpaceOnUse"
       gradientTransform="matrix(-3.6e-6,82.286781,82.286781,3.6e-6,368.24121,173.38037)"
       spreadMethod="pad"
       id="linearGradient242"><stop
         style="stop-opacity:1;stop-color:#ffffff"
         offset="0"
         id="stop238" /><stop
         style="stop-opacity:1;stop-color:#feec62"
         offset="1"
         id="stop240" /></linearGradient><clipPath
       clipPathUnits="userSpaceOnUse"
       id="clipPath252"><path
         d="m 403.024,184.52 c 0,-19.739 16,-35.74 35.738,-35.74 v 0 c 19.737,0 35.738,16.001 35.738,35.74 v 0 c 0,19.737 -16.001,35.738 -35.738,35.738 v 0 c -19.738,0 -35.738,-16.001 -35.738,-35.738"
         id="path250"
         inkscape:connector-curvature="0" /></clipPath><linearGradient
       x1="0"
       y1="0"
       x2="1"
       y2="0"
       gradientUnits="userSpaceOnUse"
       gradientTransform="matrix(-3.5e-6,78.929787,78.929787,3.5e-6,438.76172,152.36816)"
       spreadMethod="pad"
       id="linearGradient262"><stop
         style="stop-opacity:1;stop-color:#ffffff"
         offset="0"
         id="stop258" /><stop
         style="stop-opacity:1;stop-color:#feec62"
         offset="1"
         id="stop260" /></linearGradient><clipPath
       clipPathUnits="userSpaceOnUse"
       id="clipPath272"><path
         d="m 383.348,204.135 c 0,-18.82 15.256,-34.076 34.076,-34.076 v 0 c 18.819,0 34.076,15.256 34.076,34.076 v 0 c 0,18.82 -15.257,34.077 -34.076,34.077 v 0 c -18.82,0 -34.076,-15.257 -34.076,-34.077"
         id="path270"
         inkscape:connector-curvature="0" /></clipPath><linearGradient
       x1="0"
       y1="0"
       x2="1"
       y2="0"
       gradientUnits="userSpaceOnUse"
       gradientTransform="matrix(-3.3e-6,75.257904,75.257904,3.3e-6,417.42383,173.48047)"
       spreadMethod="pad"
       id="linearGradient282"><stop
         style="stop-opacity:1;stop-color:#ffffff"
         offset="0"
         id="stop278" /><stop
         style="stop-opacity:1;stop-color:#feec62"
         offset="1"
         id="stop280" /></linearGradient><clipPath
       clipPathUnits="userSpaceOnUse"
       id="clipPath292"><path
         d="m 417.424,217.619 c 0,-25.426 20.612,-46.038 46.038,-46.038 v 0 c 22.066,0 40.507,15.526 44.995,36.248 v 0 19.58 c -4.488,20.722 -22.929,36.248 -44.995,36.248 v 0 c -25.426,0 -46.038,-20.612 -46.038,-46.038"
         id="path290"
         inkscape:connector-curvature="0" /></clipPath><linearGradient
       x1="0"
       y1="0"
       x2="1"
       y2="0"
       gradientUnits="userSpaceOnUse"
       gradientTransform="matrix(-4.4e-6,101.67603,101.67603,4.4e-6,463.46191,176.20312)"
       spreadMethod="pad"
       id="linearGradient302"><stop
         style="stop-opacity:1;stop-color:#ffffff"
         offset="0"
         id="stop298" /><stop
         style="stop-opacity:1;stop-color:#feec62"
         offset="1"
         id="stop300" /></linearGradient><clipPath
       clipPathUnits="userSpaceOnUse"
       id="clipPath312"><path
         d="m 2.667,110.678 c 0,-25.467 20.646,-46.113 46.112,-46.113 v 0 c 25.467,0 46.112,20.646 46.112,46.113 v 0 c 0,25.468 -20.645,46.112 -46.112,46.112 v 0 c -25.466,0 -46.112,-20.644 -46.112,-46.112"
         id="path310"
         inkscape:connector-curvature="0" /></clipPath><linearGradient
       x1="0"
       y1="0"
       x2="1"
       y2="0"
       gradientUnits="userSpaceOnUse"
       gradientTransform="matrix(-4.5e-6,101.8394,101.8394,4.5e-6,48.779297,69.195312)"
       spreadMethod="pad"
       id="linearGradient322"><stop
         style="stop-opacity:1;stop-color:#ffffff"
         offset="0"
         id="stop318" /><stop
         style="stop-opacity:1;stop-color:#feec62"
         offset="1"
         id="stop320" /></linearGradient><clipPath
       clipPathUnits="userSpaceOnUse"
       id="clipPath332"><path
         d="m 84.5,104.227 c 0,-32.998 26.751,-59.75 59.75,-59.75 v 0 c 32.999,0 59.75,26.752 59.75,59.75 v 0 c 0,33 -26.751,59.75 -59.75,59.75 v 0 c -32.999,0 -59.75,-26.75 -59.75,-59.75"
         id="path330"
         inkscape:connector-curvature="0" /></clipPath><linearGradient
       x1="0"
       y1="0"
       x2="1"
       y2="0"
       gradientUnits="userSpaceOnUse"
       gradientTransform="matrix(-5.8e-6,131.95961,131.95961,5.8e-6,144.25,50.476562)"
       spreadMethod="pad"
       id="linearGradient342"><stop
         style="stop-opacity:1;stop-color:#ffffff"
         offset="0"
         id="stop338" /><stop
         style="stop-opacity:1;stop-color:#feec62"
         offset="1"
         id="stop340" /></linearGradient><clipPath
       clipPathUnits="userSpaceOnUse"
       id="clipPath352"><path
         d="m 62.626,143.707 c 0,-22.54 18.272,-40.812 40.812,-40.812 v 0 c 22.54,0 40.812,18.272 40.812,40.812 v 0 c 0,22.54 -18.272,40.812 -40.812,40.812 v 0 c -22.54,0 -40.812,-18.272 -40.812,-40.812"
         id="path350"
         inkscape:connector-curvature="0" /></clipPath><linearGradient
       x1="0"
       y1="0"
       x2="1"
       y2="0"
       gradientUnits="userSpaceOnUse"
       gradientTransform="matrix(-3.9e-6,90.133064,90.133064,3.9e-6,103.4375,106.99268)"
       spreadMethod="pad"
       id="linearGradient362"><stop
         style="stop-opacity:1;stop-color:#ffffff"
         offset="0"
         id="stop358" /><stop
         style="stop-opacity:1;stop-color:#feec62"
         offset="1"
         id="stop360" /></linearGradient><clipPath
       clipPathUnits="userSpaceOnUse"
       id="clipPath372"><path
         d="M 188,80.158 C 188,37.588 221.11,2.754 262.982,0 v 0 h 10.703 c 41.871,2.754 74.981,37.588 74.981,80.158 v 0 c 0,44.366 -35.966,80.332 -80.333,80.332 v 0 C 223.967,160.49 188,124.524 188,80.158"
         id="path370"
         inkscape:connector-curvature="0" /></clipPath><linearGradient
       x1="0"
       y1="0"
       x2="1"
       y2="0"
       gradientUnits="userSpaceOnUse"
       gradientTransform="matrix(-7.8e-6,177.41759,177.41759,7.8e-6,268.33301,7.8896484)"
       spreadMethod="pad"
       id="linearGradient382"><stop
         style="stop-opacity:1;stop-color:#ffffff"
         offset="0"
         id="stop378" /><stop
         style="stop-opacity:1;stop-color:#feec62"
         offset="1"
         id="stop380" /></linearGradient><clipPath
       clipPathUnits="userSpaceOnUse"
       id="clipPath392"><path
         d="m 199.971,139.454 c 0,-13.544 10.979,-24.523 24.523,-24.523 v 0 c 13.544,0 24.523,10.979 24.523,24.523 v 0 c 0,13.544 -10.979,24.523 -24.523,24.523 v 0 c -13.544,0 -24.523,-10.979 -24.523,-24.523"
         id="path390"
         inkscape:connector-curvature="0" /></clipPath><linearGradient
       x1="0"
       y1="0"
       x2="1"
       y2="0"
       gradientUnits="userSpaceOnUse"
       gradientTransform="matrix(-2.4e-6,54.1605,54.1605,2.4e-6,224.49414,117.39258)"
       spreadMethod="pad"
       id="linearGradient402"><stop
         style="stop-opacity:1;stop-color:#ffffff"
         offset="0"
         id="stop398" /><stop
         style="stop-opacity:1;stop-color:#feec62"
         offset="1"
         id="stop400" /></linearGradient><clipPath
       clipPathUnits="userSpaceOnUse"
       id="clipPath412"><path
         d="m 320.923,90.562 c 0,-33.804 27.402,-61.206 61.205,-61.206 v 0 c 33.802,0 61.205,27.402 61.205,61.206 v 0 c 0,33.803 -27.403,61.205 -61.205,61.205 v 0 c -33.803,0 -61.205,-27.402 -61.205,-61.205"
         id="path410"
         inkscape:connector-curvature="0" /></clipPath><linearGradient
       x1="0"
       y1="0"
       x2="1"
       y2="0"
       gradientUnits="userSpaceOnUse"
       gradientTransform="matrix(-5.9e-6,135.17317,135.17317,5.9e-6,382.12793,35.500977)"
       spreadMethod="pad"
       id="linearGradient422"><stop
         style="stop-opacity:1;stop-color:#ffffff"
         offset="0"
         id="stop418" /><stop
         style="stop-opacity:1;stop-color:#feec62"
         offset="1"
         id="stop420" /></linearGradient><clipPath
       clipPathUnits="userSpaceOnUse"
       id="clipPath432"><path
         d="m 273.333,140.453 c 0,-26.208 21.246,-47.454 47.454,-47.454 v 0 c 26.208,0 47.454,21.246 47.454,47.454 v 0 c 0,26.208 -21.246,47.454 -47.454,47.454 v 0 c -26.208,0 -47.454,-21.246 -47.454,-47.454"
         id="path430"
         inkscape:connector-curvature="0" /></clipPath><linearGradient
       x1="0"
       y1="0"
       x2="1"
       y2="0"
       gradientUnits="userSpaceOnUse"
       gradientTransform="matrix(-4.6e-6,104.80333,104.80333,4.6e-6,320.78711,97.763184)"
       spreadMethod="pad"
       id="linearGradient442"><stop
         style="stop-opacity:1;stop-color:#ffffff"
         offset="0"
         id="stop438" /><stop
         style="stop-opacity:1;stop-color:#feec62"
         offset="1"
         id="stop440" /></linearGradient><clipPath
       clipPathUnits="userSpaceOnUse"
       id="clipPath452"><path
         d="m 405.5,97.907 c 0,-34.563 28.019,-62.583 62.583,-62.583 v 0 c 15.385,0 29.476,5.554 40.374,14.763 v 0 95.64 c -10.898,9.209 -24.989,14.763 -40.374,14.763 v 0 c -34.564,0 -62.583,-28.019 -62.583,-62.583"
         id="path450"
         inkscape:connector-curvature="0" /></clipPath><linearGradient
       x1="0"
       y1="0"
       x2="1"
       y2="0"
       gradientUnits="userSpaceOnUse"
       gradientTransform="matrix(-6e-6,138.21635,138.21635,6e-6,468.08301,41.607422)"
       spreadMethod="pad"
       id="linearGradient462"><stop
         style="stop-opacity:1;stop-color:#ffffff"
         offset="0"
         id="stop458" /><stop
         style="stop-opacity:1;stop-color:#feec62"
         offset="1"
         id="stop460" /></linearGradient><clipPath
       clipPathUnits="userSpaceOnUse"
       id="clipPath472"><path
         d="m 460.666,155.376 c 0,-13.008 10.544,-23.552 23.551,-23.552 v 0 c 13.008,0 23.551,10.544 23.551,23.552 v 0 c 0,13.007 -10.543,23.551 -23.551,23.551 v 0 c -13.007,0 -23.551,-10.544 -23.551,-23.551"
         id="path470"
         inkscape:connector-curvature="0" /></clipPath><linearGradient
       x1="0"
       y1="0"
       x2="1"
       y2="0"
       gradientUnits="userSpaceOnUse"
       gradientTransform="matrix(-2.3e-6,52.013447,52.013447,2.3e-6,484.2168,134.18848)"
       spreadMethod="pad"
       id="linearGradient482"><stop
         style="stop-opacity:1;stop-color:#ffffff"
         offset="0"
         id="stop478" /><stop
         style="stop-opacity:1;stop-color:#feec62"
         offset="1"
         id="stop480" /></linearGradient><clipPath
       clipPathUnits="userSpaceOnUse"
       id="clipPath492"><path
         d="m 36.166,64.565 c 0,-26.693 21.64,-48.333 48.334,-48.333 v 0 c 26.693,0 48.333,21.64 48.333,48.333 v 0 c 0,26.695 -21.64,48.335 -48.333,48.335 v 0 C 57.806,112.9 36.166,91.26 36.166,64.565"
         id="path490"
         inkscape:connector-curvature="0" /></clipPath><linearGradient
       x1="0"
       y1="0"
       x2="1"
       y2="0"
       gradientUnits="userSpaceOnUse"
       gradientTransform="matrix(-4.7e-6,106.74495,106.74495,4.7e-6,84.5,21.084961)"
       spreadMethod="pad"
       id="linearGradient502"><stop
         style="stop-opacity:1;stop-color:#ffffff"
         offset="0"
         id="stop498" /><stop
         style="stop-opacity:1;stop-color:#feec62"
         offset="1"
         id="stop500" /></linearGradient><clipPath
       clipPathUnits="userSpaceOnUse"
       id="clipPath512"><path
         d="m 66.088,225.915 c 0,-21.024 84.049,-38.065 187.73,-38.065 v 0 c 103.684,0 187.733,17.041 187.733,38.065 v 0 c 0,21.022 -84.049,38.066 -187.733,38.066 v 0 c -103.681,0 -187.73,-17.044 -187.73,-38.066"
         id="path510"
         inkscape:connector-curvature="0" /></clipPath><linearGradient
       x1="0"
       y1="0"
       x2="1"
       y2="0"
       gradientUnits="userSpaceOnUse"
       gradientTransform="matrix(1.1541106,59.40477,59.40477,-1.1541106,253.27344,197.86084)"
       spreadMethod="pad"
       id="linearGradient522"><stop
         style="stop-opacity:1;stop-color:#ffffff"
         offset="0"
         id="stop518" /><stop
         style="stop-opacity:1;stop-color:#c6c8ca"
         offset="1"
         id="stop520" /></linearGradient><clipPath
       clipPathUnits="userSpaceOnUse"
       id="clipPath532"><path
         d="M 0,464.834 H 508.457 V 0 H 0 Z"
         id="path530"
         inkscape:connector-curvature="0" /></clipPath><clipPath
       clipPathUnits="userSpaceOnUse"
       id="clipPath708"><path
         d="m 253.818,187.85 c -103.681,0 -187.73,17.041 -187.73,38.065 v 0 c 0,-103.681 84.049,-187.733 187.73,-187.733 v 0 c 103.684,0 187.733,84.052 187.733,187.733 v 0 c 0,-21.024 -84.049,-38.065 -187.733,-38.065"
         id="path706"
         inkscape:connector-curvature="0" /></clipPath><linearGradient
       x1="0"
       y1="0"
       x2="1"
       y2="0"
       gradientUnits="userSpaceOnUse"
       gradientTransform="matrix(375.46289,0,0,-375.46289,66.087891,132.04834)"
       spreadMethod="pad"
       id="linearGradient718"><stop
         style="stop-opacity:1;stop-color:#ffffff"
         offset="0"
         id="stop714" /><stop
         style="stop-opacity:1;stop-color:#a9a8a8"
         offset="1"
         id="stop716" /></linearGradient><clipPath
       clipPathUnits="userSpaceOnUse"
       id="clipPath728"><path
         d="M 0,464.834 H 508.457 V 0 H 0 Z"
         id="path726"
         inkscape:connector-curvature="0" /></clipPath><clipPath
       clipPathUnits="userSpaceOnUse"
       id="clipPath788"><path
         d="M 0,464.834 H 508.457 V 0 H 0 Z"
         id="path786"
         inkscape:connector-curvature="0" /></clipPath></defs><sodipodi:namedview
     pagecolor="#ffffff"
     bordercolor="#666666"
     borderopacity="1"
     objecttolerance="10"
     gridtolerance="10"
     guidetolerance="10"
     inkscape:pageopacity="0"
     inkscape:pageshadow="2"
     inkscape:window-width="1920"
     inkscape:window-height="1036"
     id="namedview4"
     showgrid="false"
     inkscape:zoom="0.38078108"
     inkscape:cx="-423.9342"
     inkscape:cy="309.88934"
     inkscape:window-x="0"
     inkscape:window-y="20"
     inkscape:window-maximized="0"
     inkscape:current-layer="g10" /><g
     id="g10"
     inkscape:groupmode="layer"
     inkscape:label="fruitface"
     transform="matrix(1.3333333,0,0,-1.3333333,0,619.77867)"><g
       id="g12"><g
         id="g14"
         clip-path="url(#clipPath18)"><g
           id="g20"><g
             id="g22"><path
               d="m 0,120.184 h 508.457 v 344.65 H 0 Z"
               style="fill:url(#linearGradient30);stroke:none"
               id="path32"
               inkscape:connector-curvature="0" /></g></g></g></g><g
       id="g34"><g
         id="g36"
         clip-path="url(#clipPath40)"><g
           id="g42"
           transform="translate(253.9883,464.8154)"><path
             d="m 0,0 c -35.683,0 -70.324,-7 -102.963,-20.805 -31.501,-13.323 -59.78,-32.386 -84.054,-56.659 -24.272,-24.273 -43.336,-52.553 -56.659,-84.054 -13.804,-32.638 -20.804,-67.28 -20.804,-102.962 0,-35.683 7,-70.325 20.804,-102.963 13.323,-31.501 32.387,-59.781 56.659,-84.054 24.274,-24.274 52.553,-43.336 84.054,-56.659 32.639,-13.805 67.28,-20.805 102.963,-20.805 35.683,0 70.324,7 102.963,20.805 31.501,13.323 59.78,32.385 84.054,56.659 24.272,24.273 43.336,52.553 56.659,84.054 13.804,32.638 20.804,67.28 20.804,102.963 0,35.682 -7,70.324 -20.804,102.962 -13.323,31.501 -32.387,59.781 -56.659,84.054 -24.274,24.273 -52.553,43.336 -84.054,56.659 C 70.324,-7 35.683,0 0,0 m 0,-50 c 118.455,0 214.48,-96.025 214.48,-214.48 0,-118.456 -96.025,-214.481 -214.48,-214.481 -118.455,0 -214.48,96.025 -214.48,214.481 0,118.455 96.025,214.48 214.48,214.48"
             style="fill:#a083bc;fill-opacity:1;fill-rule:nonzero;stroke:none"
             id="path44"
             inkscape:connector-curvature="0" /></g><g
           id="g46"
           transform="translate(253.9883,454.8154)"><path
             d="m 0,0 c -34.337,0 -67.668,-6.734 -99.067,-20.015 -30.309,-12.819 -57.52,-31.162 -80.878,-54.52 -23.359,-23.359 -41.701,-50.569 -54.521,-80.878 -13.28,-31.399 -20.014,-64.731 -20.014,-99.067 0,-34.337 6.734,-67.669 20.014,-99.068 12.82,-30.308 31.162,-57.519 54.521,-80.878 23.358,-23.358 50.569,-41.701 80.878,-54.52 31.399,-13.282 64.73,-20.015 99.067,-20.015 34.337,0 67.668,6.733 99.068,20.015 30.308,12.819 57.519,31.162 80.877,54.52 23.358,23.359 41.701,50.57 54.521,80.878 13.28,31.399 20.014,64.731 20.014,99.068 0,34.336 -6.734,67.668 -20.014,99.067 -12.82,30.309 -31.163,57.519 -54.521,80.878 -23.358,23.358 -50.569,41.701 -80.877,54.52 C 67.668,-6.734 34.337,0 0,0 m 0,-40 c 118.455,0 214.48,-96.025 214.48,-214.48 0,-118.456 -96.025,-214.481 -214.48,-214.481 -118.455,0 -214.48,96.025 -214.48,214.481 0,118.455 96.025,214.48 214.48,214.48"
             style="fill:#71cfec;fill-opacity:1;fill-rule:nonzero;stroke:none"
             id="path48"
             inkscape:connector-curvature="0" /></g><g
           id="g50"
           transform="translate(253.9883,444.8154)"><path
             d="m 0,0 c -32.991,0 -65.013,-6.468 -95.172,-19.225 -29.116,-12.315 -55.26,-29.938 -77.702,-52.381 -22.443,-22.444 -40.066,-48.586 -52.382,-77.702 -12.757,-30.16 -19.224,-62.181 -19.224,-95.172 0,-32.992 6.467,-65.013 19.224,-95.173 12.316,-29.116 29.939,-55.258 52.382,-77.701 22.442,-22.444 48.586,-40.067 77.702,-52.382 30.159,-12.757 62.181,-19.225 95.172,-19.225 32.991,0 65.012,6.468 95.172,19.225 29.116,12.315 55.26,29.938 77.702,52.382 22.443,22.443 40.066,48.585 52.382,77.701 12.757,30.16 19.224,62.181 19.224,95.173 0,32.991 -6.467,65.012 -19.224,95.172 -12.316,29.116 -29.939,55.258 -52.382,77.702 -22.442,22.443 -48.586,40.066 -77.702,52.381 C 65.012,-6.468 32.991,0 0,0 m 0,-30 c 118.455,0 214.48,-96.025 214.48,-214.48 0,-118.456 -96.025,-214.481 -214.48,-214.481 -118.455,0 -214.48,96.025 -214.48,214.481 0,118.455 96.025,214.48 214.48,214.48"
             style="fill:#9cce6b;fill-opacity:1;fill-rule:nonzero;stroke:none"
             id="path52"
             inkscape:connector-curvature="0" /></g><g
           id="g54"
           transform="translate(253.9883,434.8154)"><path
             d="m 0,0 c -31.646,0 -62.356,-6.202 -91.276,-18.435 -27.925,-11.81 -52.999,-28.714 -74.527,-50.243 -21.528,-21.527 -38.432,-46.601 -50.243,-74.526 -12.232,-28.92 -18.434,-59.63 -18.434,-91.276 0,-31.647 6.202,-62.357 18.434,-91.277 11.811,-27.925 28.715,-52.999 50.243,-74.526 21.528,-21.529 46.602,-38.433 74.527,-50.243 28.92,-12.233 59.63,-18.435 91.276,-18.435 31.646,0 62.355,6.202 91.276,18.435 27.925,11.81 52.999,28.714 74.527,50.243 21.528,21.527 38.432,46.601 50.243,74.526 12.232,28.92 18.434,59.63 18.434,91.277 0,31.646 -6.202,62.356 -18.434,91.276 -11.811,27.925 -28.715,52.999 -50.243,74.526 -21.528,21.529 -46.602,38.433 -74.527,50.243 C 62.355,-6.202 31.646,0 0,0 m 0,-20 c 118.455,0 214.48,-96.025 214.48,-214.48 0,-118.456 -96.025,-214.481 -214.48,-214.481 -118.455,0 -214.48,96.025 -214.48,214.481 0,118.455 96.025,214.48 214.48,214.48"
             style="fill:#fed067;fill-opacity:1;fill-rule:nonzero;stroke:none"
             id="path56"
             inkscape:connector-curvature="0" /></g><g
           id="g58"
           transform="translate(253.9883,424.8154)"><path
             d="m 0,0 c -30.301,0 -59.7,-5.937 -87.381,-17.645 -26.732,-11.306 -50.738,-27.491 -71.351,-48.104 -20.613,-20.612 -36.797,-44.618 -48.104,-71.35 -11.708,-27.681 -17.644,-57.081 -17.644,-87.381 0,-30.301 5.936,-59.701 17.644,-87.382 11.307,-26.732 27.491,-50.738 48.104,-71.35 20.613,-20.613 44.619,-36.798 71.351,-48.104 27.681,-11.708 57.08,-17.645 87.381,-17.645 30.301,0 59.699,5.937 87.381,17.645 26.732,11.306 50.738,27.491 71.351,48.104 20.613,20.612 36.797,44.618 48.104,71.35 11.708,27.681 17.644,57.081 17.644,87.382 0,30.3 -5.936,59.7 -17.644,87.381 -11.307,26.732 -27.491,50.738 -48.104,71.35 -20.613,20.613 -44.619,36.798 -71.351,48.104 C 59.699,-5.937 30.301,0 0,0 m 0,-10 c 118.455,0 214.48,-96.025 214.48,-214.48 0,-118.456 -96.025,-214.481 -214.48,-214.481 -118.455,0 -214.48,96.025 -214.48,214.481 0,118.455 96.025,214.48 214.48,214.48"
             style="fill:#f2665b;fill-opacity:1;fill-rule:nonzero;stroke:none"
             id="path60"
             inkscape:connector-curvature="0" /></g><path
           d="M -114,200.421 H 622 V -391.53 h -736 z"
           style="fill:#fff6c1;fill-opacity:1;fill-rule:nonzero;stroke:none"
           id="path62"
           inkscape:connector-curvature="0" /><path
           d="M -145,200.421 H 591 V -391.53 h -736 z"
           style="fill:#fff6c1;fill-opacity:1;fill-rule:nonzero;stroke:none"
           id="path64"
           inkscape:connector-curvature="0" /></g></g><g
       id="g66"><g
         id="g68"
         clip-path="url(#clipPath72)"><g
           id="g74"><g
             id="g76"><path
               d="m 0,187.907 c 0,-23.334 18.916,-42.25 42.25,-42.25 v 0 c 23.334,0 42.25,18.916 42.25,42.25 v 0 c 0,23.334 -18.916,42.25 -42.25,42.25 v 0 C 18.916,230.157 0,211.241 0,187.907"
               style="fill:url(#linearGradient82);stroke:none"
               id="path84"
               inkscape:connector-curvature="0" /></g></g></g></g><g
       id="g86"><g
         id="g88"
         clip-path="url(#clipPath92)"><g
           id="g94"><g
             id="g96"><path
               d="m 52,212.765 c 0,-23.687 19.204,-42.89 42.891,-42.89 v 0 c 23.688,0 42.891,19.203 42.891,42.89 v 0 c 0,23.689 -19.203,42.893 -42.891,42.893 v 0 C 71.204,255.658 52,236.454 52,212.765"
               style="fill:url(#linearGradient102);stroke:none"
               id="path104"
               inkscape:connector-curvature="0" /></g></g></g></g><g
       id="g106"><g
         id="g108"
         clip-path="url(#clipPath112)"><g
           id="g114"><g
             id="g116"><path
               d="m 102.5,238.212 c 0,-14.054 11.392,-25.446 25.445,-25.446 v 0 c 14.054,0 25.446,11.392 25.446,25.446 v 0 c 0,14.053 -11.392,25.445 -25.446,25.445 v 0 c -14.053,0 -25.445,-11.392 -25.445,-25.445"
               style="fill:url(#linearGradient122);stroke:none"
               id="path124"
               inkscape:connector-curvature="0" /></g></g></g></g><g
       id="g126"><g
         id="g128"
         clip-path="url(#clipPath132)"><g
           id="g134"><g
             id="g136"><path
               d="m 118,186.157 c 0,-25.682 20.819,-46.499 46.5,-46.499 v 0 c 25.682,0 46.5,20.817 46.5,46.499 v 0 c 0,25.682 -20.818,46.5 -46.5,46.5 v 0 c -25.681,0 -46.5,-20.818 -46.5,-46.5"
               style="fill:url(#linearGradient142);stroke:none"
               id="path144"
               inkscape:connector-curvature="0" /></g></g></g></g><g
       id="g146"><g
         id="g148"
         clip-path="url(#clipPath152)"><g
           id="g154"><g
             id="g156"><path
               d="m 168.269,226.792 c 0,-26.435 21.431,-47.865 47.866,-47.865 v 0 c 26.436,0 47.865,21.43 47.865,47.865 v 0 c 0,26.436 -21.429,47.866 -47.865,47.866 v 0 c -26.435,0 -47.866,-21.43 -47.866,-47.866"
               style="fill:url(#linearGradient162);stroke:none"
               id="path164"
               inkscape:connector-curvature="0" /></g></g></g></g><g
       id="g166"><g
         id="g168"
         clip-path="url(#clipPath172)"><g
           id="g174"><g
             id="g176"><path
               d="m 220,182.266 c 0,-16.845 13.655,-30.499 30.5,-30.499 v 0 c 16.845,0 30.5,13.654 30.5,30.499 v 0 c 0,16.845 -13.655,30.5 -30.5,30.5 v 0 c -16.845,0 -30.5,-13.655 -30.5,-30.5"
               style="fill:url(#linearGradient182);stroke:none"
               id="path184"
               inkscape:connector-curvature="0" /></g></g></g></g><g
       id="g186"><g
         id="g188"
         clip-path="url(#clipPath192)"><g
           id="g194"><g
             id="g196"><path
               d="m 239.5,228.658 c 0,-30.929 25.072,-56.001 56,-56.001 v 0 c 30.927,0 56,25.072 56,56.001 v 0 c 0,30.927 -25.073,55.999 -56,55.999 v 0 c -30.928,0 -56,-25.072 -56,-55.999"
               style="fill:url(#linearGradient202);stroke:none"
               id="path204"
               inkscape:connector-curvature="0" /></g></g></g></g><g
       id="g206"><g
         id="g208"
         clip-path="url(#clipPath212)"><g
           id="g214"><g
             id="g216"><path
               d="m 319.029,176.781 c 0,-19.875 16.111,-35.986 35.986,-35.986 v 0 c 19.874,0 35.985,16.111 35.985,35.986 v 0 c 0,19.874 -16.111,35.985 -35.985,35.985 v 0 c -19.875,0 -35.986,-16.111 -35.986,-35.985"
               style="fill:url(#linearGradient222);stroke:none"
               id="path224"
               inkscape:connector-curvature="0" /></g></g></g></g><g
       id="g226"><g
         id="g228"
         clip-path="url(#clipPath232)"><g
           id="g234"><g
             id="g236"><path
               d="m 330.982,206.898 c 0,-20.576 16.682,-37.259 37.259,-37.259 v 0 c 20.577,0 37.259,16.683 37.259,37.259 v 0 c 0,20.578 -16.682,37.259 -37.259,37.259 v 0 c -20.577,0 -37.259,-16.681 -37.259,-37.259"
               style="fill:url(#linearGradient242);stroke:none"
               id="path244"
               inkscape:connector-curvature="0" /></g></g></g></g><g
       id="g246"><g
         id="g248"
         clip-path="url(#clipPath252)"><g
           id="g254"><g
             id="g256"><path
               d="m 403.024,184.52 c 0,-19.739 16,-35.74 35.738,-35.74 v 0 c 19.737,0 35.738,16.001 35.738,35.74 v 0 c 0,19.737 -16.001,35.738 -35.738,35.738 v 0 c -19.738,0 -35.738,-16.001 -35.738,-35.738"
               style="fill:url(#linearGradient262);stroke:none"
               id="path264"
               inkscape:connector-curvature="0" /></g></g></g></g><g
       id="g266"><g
         id="g268"
         clip-path="url(#clipPath272)"><g
           id="g274"><g
             id="g276"><path
               d="m 383.348,204.135 c 0,-18.82 15.256,-34.076 34.076,-34.076 v 0 c 18.819,0 34.076,15.256 34.076,34.076 v 0 c 0,18.82 -15.257,34.077 -34.076,34.077 v 0 c -18.82,0 -34.076,-15.257 -34.076,-34.077"
               style="fill:url(#linearGradient282);stroke:none"
               id="path284"
               inkscape:connector-curvature="0" /></g></g></g></g><g
       id="g286"><g
         id="g288"
         clip-path="url(#clipPath292)"><g
           id="g294"><g
             id="g296"><path
               d="m 417.424,217.619 c 0,-25.426 20.612,-46.038 46.038,-46.038 v 0 c 22.066,0 40.507,15.526 44.995,36.248 v 0 19.58 c -4.488,20.722 -22.929,36.248 -44.995,36.248 v 0 c -25.426,0 -46.038,-20.612 -46.038,-46.038"
               style="fill:url(#linearGradient302);stroke:none"
               id="path304"
               inkscape:connector-curvature="0" /></g></g></g></g><g
       id="g306"><g
         id="g308"
         clip-path="url(#clipPath312)"><g
           id="g314"><g
             id="g316"><path
               d="m 2.667,110.678 c 0,-25.467 20.646,-46.113 46.112,-46.113 v 0 c 25.467,0 46.112,20.646 46.112,46.113 v 0 c 0,25.468 -20.645,46.112 -46.112,46.112 v 0 c -25.466,0 -46.112,-20.644 -46.112,-46.112"
               style="fill:url(#linearGradient322);stroke:none"
               id="path324"
               inkscape:connector-curvature="0" /></g></g></g></g><g
       id="g326"><g
         id="g328"
         clip-path="url(#clipPath332)"><g
           id="g334"><g
             id="g336"><path
               d="m 84.5,104.227 c 0,-32.998 26.751,-59.75 59.75,-59.75 v 0 c 32.999,0 59.75,26.752 59.75,59.75 v 0 c 0,33 -26.751,59.75 -59.75,59.75 v 0 c -32.999,0 -59.75,-26.75 -59.75,-59.75"
               style="fill:url(#linearGradient342);stroke:none"
               id="path344"
               inkscape:connector-curvature="0" /></g></g></g></g><g
       id="g346"><g
         id="g348"
         clip-path="url(#clipPath352)"><g
           id="g354"><g
             id="g356"><path
               d="m 62.626,143.707 c 0,-22.54 18.272,-40.812 40.812,-40.812 v 0 c 22.54,0 40.812,18.272 40.812,40.812 v 0 c 0,22.54 -18.272,40.812 -40.812,40.812 v 0 c -22.54,0 -40.812,-18.272 -40.812,-40.812"
               style="fill:url(#linearGradient362);stroke:none"
               id="path364"
               inkscape:connector-curvature="0" /></g></g></g></g><g
       id="g366"><g
         id="g368"
         clip-path="url(#clipPath372)"><g
           id="g374"><g
             id="g376"><path
               d="M 188,80.158 C 188,37.588 221.11,2.754 262.982,0 v 0 h 10.703 c 41.871,2.754 74.981,37.588 74.981,80.158 v 0 c 0,44.366 -35.966,80.332 -80.333,80.332 v 0 C 223.967,160.49 188,124.524 188,80.158"
               style="fill:url(#linearGradient382);stroke:none"
               id="path384"
               inkscape:connector-curvature="0" /></g></g></g></g><g
       id="g386"><g
         id="g388"
         clip-path="url(#clipPath392)"><g
           id="g394"><g
             id="g396"><path
               d="m 199.971,139.454 c 0,-13.544 10.979,-24.523 24.523,-24.523 v 0 c 13.544,0 24.523,10.979 24.523,24.523 v 0 c 0,13.544 -10.979,24.523 -24.523,24.523 v 0 c -13.544,0 -24.523,-10.979 -24.523,-24.523"
               style="fill:url(#linearGradient402);stroke:none"
               id="path404"
               inkscape:connector-curvature="0" /></g></g></g></g><g
       id="g406"><g
         id="g408"
         clip-path="url(#clipPath412)"><g
           id="g414"><g
             id="g416"><path
               d="m 320.923,90.562 c 0,-33.804 27.402,-61.206 61.205,-61.206 v 0 c 33.802,0 61.205,27.402 61.205,61.206 v 0 c 0,33.803 -27.403,61.205 -61.205,61.205 v 0 c -33.803,0 -61.205,-27.402 -61.205,-61.205"
               style="fill:url(#linearGradient422);stroke:none"
               id="path424"
               inkscape:connector-curvature="0" /></g></g></g></g><g
       id="g426"><g
         id="g428"
         clip-path="url(#clipPath432)"><g
           id="g434"><g
             id="g436"><path
               d="m 273.333,140.453 c 0,-26.208 21.246,-47.454 47.454,-47.454 v 0 c 26.208,0 47.454,21.246 47.454,47.454 v 0 c 0,26.208 -21.246,47.454 -47.454,47.454 v 0 c -26.208,0 -47.454,-21.246 -47.454,-47.454"
               style="fill:url(#linearGradient442);stroke:none"
               id="path444"
               inkscape:connector-curvature="0" /></g></g></g></g><g
       id="g446"><g
         id="g448"
         clip-path="url(#clipPath452)"><g
           id="g454"><g
             id="g456"><path
               d="m 405.5,97.907 c 0,-34.563 28.019,-62.583 62.583,-62.583 v 0 c 15.385,0 29.476,5.554 40.374,14.763 v 0 95.64 c -10.898,9.209 -24.989,14.763 -40.374,14.763 v 0 c -34.564,0 -62.583,-28.019 -62.583,-62.583"
               style="fill:url(#linearGradient462);stroke:none"
               id="path464"
               inkscape:connector-curvature="0" /></g></g></g></g><g
       id="g466"><g
         id="g468"
         clip-path="url(#clipPath472)"><g
           id="g474"><g
             id="g476"><path
               d="m 460.666,155.376 c 0,-13.008 10.544,-23.552 23.551,-23.552 v 0 c 13.008,0 23.551,10.544 23.551,23.552 v 0 c 0,13.007 -10.543,23.551 -23.551,23.551 v 0 c -13.007,0 -23.551,-10.544 -23.551,-23.551"
               style="fill:url(#linearGradient482);stroke:none"
               id="path484"
               inkscape:connector-curvature="0" /></g></g></g></g><g
       id="g486"><g
         id="g488"
         clip-path="url(#clipPath492)"><g
           id="g494"><g
             id="g496"><path
               d="m 36.166,64.565 c 0,-26.693 21.64,-48.333 48.334,-48.333 v 0 c 26.693,0 48.333,21.64 48.333,48.333 v 0 c 0,26.695 -21.64,48.335 -48.333,48.335 v 0 C 57.806,112.9 36.166,91.26 36.166,64.565"
               style="fill:url(#linearGradient502);stroke:none"
               id="path504"
               inkscape:connector-curvature="0" /></g></g></g></g><g
       id="g506"><g
         id="g508"
         clip-path="url(#clipPath512)"><g
           id="g514"><g
             id="g516"><path
               d="m 66.088,225.915 c 0,-21.024 84.049,-38.065 187.73,-38.065 v 0 c 103.684,0 187.733,17.041 187.733,38.065 v 0 c 0,21.022 -84.049,38.066 -187.733,38.066 v 0 c -103.681,0 -187.73,-17.044 -187.73,-38.066"
               style="fill:url(#linearGradient522);stroke:none"
               id="path524"
               inkscape:connector-curvature="0" /></g></g></g></g><g
       id="g526"><g
         id="g528"
         clip-path="url(#clipPath532)"><g
           id="g534"
           transform="translate(264.834,386.1445)"><path
             d="m 0,0 c 0,0 7.861,19.16 19.82,22.547 2.514,0.807 3.371,0.994 5.446,1.192 2.07,0.196 7.025,-1.927 6.386,-3.989 -0.636,-2.063 -1.595,-2.08 -2.644,-1.99 -1.043,0.094 -3.594,1.78 -4.707,2.177 -1.11,0.396 -2.811,2.015 -6.994,-0.569 C 13.127,16.787 2.977,8.666 0.371,-0.239 Z"
             style="fill:#3c2415;fill-opacity:1;fill-rule:nonzero;stroke:none"
             id="path536"
             inkscape:connector-curvature="0" /></g><g
           id="g538"
           transform="translate(305.2266,230.4668)"><path
             d="m 0,0 c 0.613,5.814 1.287,25.849 -3.475,38.995 -4.716,13.02 -19.869,33.528 -22.851,41.724 -2.979,8.198 -3.063,22.27 0.746,40.816 3.807,18.544 5.629,32.287 0.662,37.42 -4.969,5.134 -14.072,10.931 -33.283,1.49 -19.207,-9.437 -33.776,-31.956 -41.557,-45.203 -7.783,-13.247 -32.291,-62.754 -38.084,-83.949 -5.795,-21.192 -5.631,-41.723 0.66,-53.481 6.293,-11.756 19.871,-23.18 35.434,-28.15 15.564,-4.966 42.555,-10.595 64.906,0.167 C -14.486,-39.409 -2.73,-25.994 0,0"
             style="fill:#f4dd58;fill-opacity:1;fill-rule:nonzero;stroke:none"
             id="path540"
             inkscape:connector-curvature="0" /></g><g
           id="g542"
           transform="translate(218.873,272.4668)"><path
             d="m 0,0 c 0,-2.003 -1.631,-3.634 -3.635,-3.634 -2.002,0 -3.633,1.631 -3.633,3.634 0,2.003 1.631,3.634 3.633,3.634 C -1.631,3.634 0,2.003 0,0"
             style="fill:#685d26;fill-opacity:1;fill-rule:nonzero;stroke:none"
             id="path544"
             inkscape:connector-curvature="0" /></g><g
           id="g546"
           transform="translate(264.2266,272.4668)"><path
             d="m 0,0 c 0,-2.003 -1.629,-3.634 -3.633,-3.634 -2.006,0 -3.637,1.631 -3.637,3.634 0,2.003 1.631,3.634 3.637,3.634 C -1.629,3.634 0,2.003 0,0"
             style="fill:#685d26;fill-opacity:1;fill-rule:nonzero;stroke:none"
             id="path548"
             inkscape:connector-curvature="0" /></g><g
           id="g550"
           transform="translate(237.916,245.4473)"><path
             d="M 0,0 C 7.795,0 14.113,6.322 14.113,14.114 H -14.115 C -14.115,6.322 -7.797,0 0,0"
             style="fill:#685d26;fill-opacity:1;fill-rule:nonzero;stroke:none"
             id="path552"
             inkscape:connector-curvature="0" /></g><g
           id="g554"
           transform="translate(139.3516,271.8818)"><path
             d="m 0,0 c 0,0 -11.523,12.027 -29.064,10.021 -17.541,-2.003 -36.416,-16.702 -42.428,-40.59 -6.016,-23.892 6.346,-38.423 13.531,-45.776 7.184,-7.347 23.221,-18.541 45.27,-22.047 22.048,-3.511 41.923,1.502 53.785,6.013 0,0 26.228,11.987 31.992,35.292 5.762,23.303 0.125,36.832 -10.523,47.983 C 51.91,2.048 20.631,16.617 0,0"
             style="fill:#f04f6b;fill-opacity:1;fill-rule:nonzero;stroke:none"
             id="path556"
             inkscape:connector-curvature="0" /></g><g
           id="g558"
           transform="translate(122.5645,250.709)"><path
             d="m 0,0 c 0,-2.003 -1.627,-3.632 -3.635,-3.632 -2.002,0 -3.633,1.629 -3.633,3.632 0,2.008 1.631,3.636 3.633,3.636 C -1.627,3.636 0,2.008 0,0"
             style="fill:#491a27;fill-opacity:1;fill-rule:nonzero;stroke:none"
             id="path560"
             inkscape:connector-curvature="0" /></g><g
           id="g562"
           transform="translate(167.918,250.709)"><path
             d="m 0,0 c 0,-2.003 -1.629,-3.632 -3.633,-3.632 -2.006,0 -3.633,1.629 -3.633,3.632 0,2.008 1.627,3.636 3.633,3.636 C -1.629,3.636 0,2.008 0,0"
             style="fill:#491a27;fill-opacity:1;fill-rule:nonzero;stroke:none"
             id="path564"
             inkscape:connector-curvature="0" /></g><g
           id="g566"
           transform="translate(141.6074,223.6934)"><path
             d="m 0,0 c 7.795,0 14.115,6.318 14.115,14.115 h -28.23 C -14.115,6.318 -7.795,0 0,0"
             style="fill:#491a27;fill-opacity:1;fill-rule:nonzero;stroke:none"
             id="path568"
             inkscape:connector-curvature="0" /></g><g
           id="g570"
           transform="translate(149.1855,284.0098)"><path
             d="m 0,0 c 0,0 -1.197,0.453 -1.82,1.445 -0.619,0.995 -5.59,7.082 -9.395,10.349 -3.81,3.271 -10.474,3.769 -13.992,2.649 -3.522,-1.116 -10.848,-4.591 -12.461,-5.836 0.041,0 5.547,-8.111 10.184,-9.602 4.636,-1.49 10.593,-2.649 13.285,-2.732 C -11.506,-3.81 -2.109,-0.623 0,0"
             style="fill:#b0d235;fill-opacity:1;fill-rule:nonzero;stroke:none"
             id="path572"
             inkscape:connector-curvature="0" /></g><g
           id="g574"
           transform="translate(153.6348,286.8047)"><path
             d="m 0,0 c 0,0 1.303,3.307 1.969,4.839 0.66,1.532 2.689,4.597 3.125,6.894 0.433,2.298 0.433,4.596 -0.684,6.271 -1.117,1.678 -6.23,7.07 -7.824,8.386 -1.6,1.318 -4.469,3.103 -5.465,3.849 0,0.062 -3.494,-7.227 -3.93,-10.039 -0.42,-2.702 0.143,-6.604 1.508,-8.591 1.367,-1.986 3.91,-5.463 5.528,-6.89 C -4.158,3.289 0,0 0,0"
             style="fill:#b0d235;fill-opacity:1;fill-rule:nonzero;stroke:none"
             id="path576"
             inkscape:connector-curvature="0" /></g><g
           id="g578"
           transform="translate(139.1562,272.9141)"><path
             d="m 0,0 c 0,0 11.777,17.039 24.18,17.79 2.631,0.251 3.511,0.251 5.576,0 2.066,-0.249 6.453,-3.383 5.389,-5.261 -1.067,-1.881 -2.006,-1.691 -3.006,-1.379 -1.004,0.315 -3.135,2.506 -4.135,3.131 -1.002,0.627 -2.322,2.571 -6.955,0.942 C 16.412,13.594 4.764,7.83 0.316,-0.314 Z"
             style="fill:#3c2415;fill-opacity:1;fill-rule:nonzero;stroke:none"
             id="path580"
             inkscape:connector-curvature="0" /></g><g
           id="g582"
           transform="translate(374.8008,279.3223)"><path
             d="M 0,0 C -16.725,6.539 -24.504,17.467 -21.691,28.396 -0.66,26.325 2.566,13.905 0.498,0"
             style="fill:#b0d235;fill-opacity:1;fill-rule:nonzero;stroke:none"
             id="path584"
             inkscape:connector-curvature="0" /></g><g
           id="g586"
           transform="translate(390.1191,308.0498)"><path
             d="M 0,0 C -11.094,-3.643 -15.234,-14.901 -15.814,-26.245 1.986,-21.772 1.158,-10.515 0.412,0"
             style="fill:#b0d235;fill-opacity:1;fill-rule:nonzero;stroke:none"
             id="path588"
             inkscape:connector-curvature="0" /></g><g
           id="g590"
           transform="translate(374.8008,274.2725)"><path
             d="m 0,0 c 0,0 -12.418,8.942 -26.16,7.283 -13.744,-1.655 -27.817,-17.548 -31.463,-28.312 -3.643,-10.763 -4.799,-34.937 2.816,-48.35 7.618,-13.41 23.02,-32.62 56.465,-33.446 33.444,-0.828 53.647,16.721 62.752,43.547 9.108,26.823 -5.797,54.641 -32.783,65.9 C 12.254,14.901 0,0 0,0"
             style="fill:#a87db7;fill-opacity:1;fill-rule:nonzero;stroke:none"
             id="path592"
             inkscape:connector-curvature="0" /></g><g
           id="g594"
           transform="translate(359.8125,255.9375)"><path
             d="m 0,0 c 0,-2.005 -1.629,-3.633 -3.631,-3.633 -2.006,0 -3.635,1.628 -3.635,3.633 0,2.006 1.629,3.635 3.635,3.635 C -1.629,3.635 0,2.006 0,0"
             style="fill:#3c2844;fill-opacity:1;fill-rule:nonzero;stroke:none"
             id="path596"
             inkscape:connector-curvature="0" /></g><g
           id="g598"
           transform="translate(402.0195,255.5234)"><path
             d="m 0,0 c 0,-2.004 -1.627,-3.635 -3.631,-3.635 -2.006,0 -3.633,1.631 -3.633,3.635 0,2.006 1.627,3.633 3.633,3.633 C -1.627,3.633 0,2.006 0,0"
             style="fill:#3c2844;fill-opacity:1;fill-rule:nonzero;stroke:none"
             id="path600"
             inkscape:connector-curvature="0" /></g><g
           id="g602"
           transform="translate(378.8555,228.9189)"><path
             d="M 0,0 C 7.795,0 14.113,6.322 14.113,14.114 H -14.113 C -14.113,6.322 -7.795,0 0,0"
             style="fill:#3c2844;fill-opacity:1;fill-rule:nonzero;stroke:none"
             id="path604"
             inkscape:connector-curvature="0" /></g><g
           id="g606"
           transform="translate(283.4238,261.4629)"><path
             d="m 0,0 c -24.34,-6.953 -65.734,-18.231 -55.137,-76.746 10.598,-58.511 82.789,-67.804 119.219,-39.986 36.428,27.819 34.438,76.165 7.283,102.327 C 44.211,11.758 0,0 0,0"
             style="fill:#f58345;fill-opacity:1;fill-rule:nonzero;stroke:none"
             id="path608"
             inkscape:connector-curvature="0" /></g><g
           id="g610"
           transform="translate(277.2988,227.7725)"><path
             d="m 0,0 c 0,-2.001 -1.629,-3.631 -3.635,-3.631 -2.004,0 -3.631,1.63 -3.631,3.631 0,2.009 1.627,3.636 3.631,3.636 C -1.629,3.636 0,2.009 0,0"
             style="fill:#702917;fill-opacity:1;fill-rule:nonzero;stroke:none"
             id="path612"
             inkscape:connector-curvature="0" /></g><g
           id="g614"
           transform="translate(322.7305,227.7725)"><path
             d="m 0,0 c 0,-2.001 -1.625,-3.631 -3.631,-3.631 -2.002,0 -3.631,1.63 -3.631,3.631 0,2.009 1.629,3.636 3.631,3.636 C -1.625,3.636 0,2.009 0,0"
             style="fill:#702917;fill-opacity:1;fill-rule:nonzero;stroke:none"
             id="path616"
             inkscape:connector-curvature="0" /></g><g
           id="g618"
           transform="translate(294.4785,200.7549)"><path
             d="M 0,0 C 7.797,0 14.115,6.32 14.115,14.114 H -14.113 C -14.113,6.32 -7.793,0 0,0"
             style="fill:#702917;fill-opacity:1;fill-rule:nonzero;stroke:none"
             id="path620"
             inkscape:connector-curvature="0" /></g><g
           id="g622"
           transform="translate(287.8926,287.2148)"><path
             d="M 0,0 C -2.566,-9.025 -4.471,-25.168 16.311,-25.333 19.621,-1.324 0,0 0,0"
             style="fill:#b0d235;fill-opacity:1;fill-rule:nonzero;stroke:none"
             id="path624"
             inkscape:connector-curvature="0" /></g><g
           id="g626"
           transform="translate(334.668,284.4844)"><path
             d="M 0,0 C -23.016,4.221 -28.48,-13.329 -28.232,-22.023 -6.043,-23.845 0.496,-10.02 0,0"
             style="fill:#b0d235;fill-opacity:1;fill-rule:nonzero;stroke:none"
             id="path628"
             inkscape:connector-curvature="0" /></g><g
           id="g630"
           transform="translate(327.3828,254.0977)"><path
             d="m 0,0 c 0,-0.961 -0.777,-1.739 -1.736,-1.739 -0.963,0 -1.741,0.778 -1.741,1.739 0,0.959 0.778,1.737 1.741,1.737 C -0.777,1.737 0,0.959 0,0"
             style="fill:#b64726;fill-opacity:1;fill-rule:nonzero;stroke:none"
             id="path632"
             inkscape:connector-curvature="0" /></g><g
           id="g634"
           transform="translate(330.2402,247.8887)"><path
             d="m 0,0 c 0,-0.961 -0.779,-1.739 -1.738,-1.739 -0.961,0 -1.739,0.778 -1.739,1.739 0,0.961 0.778,1.74 1.739,1.74 C -0.779,1.74 0,0.961 0,0"
             style="fill:#b64726;fill-opacity:1;fill-rule:nonzero;stroke:none"
             id="path636"
             inkscape:connector-curvature="0" /></g><g
           id="g638"
           transform="translate(345.0801,247.8887)"><path
             d="m 0,0 c 0,-0.961 -0.779,-1.739 -1.738,-1.739 -0.961,0 -1.741,0.778 -1.741,1.739 0,0.961 0.78,1.74 1.741,1.74 C -0.779,1.74 0,0.961 0,0"
             style="fill:#b64726;fill-opacity:1;fill-rule:nonzero;stroke:none"
             id="path640"
             inkscape:connector-curvature="0" /></g><g
           id="g642"
           transform="translate(342.4727,240.748)"><path
             d="m 0,0 c 0,-0.96 -0.779,-1.737 -1.738,-1.737 -0.961,0 -1.739,0.777 -1.739,1.737 0,0.961 0.778,1.739 1.739,1.739 C -0.779,1.739 0,0.961 0,0"
             style="fill:#b64726;fill-opacity:1;fill-rule:nonzero;stroke:none"
             id="path644"
             inkscape:connector-curvature="0" /></g><g
           id="g646"
           transform="translate(350.7285,245.2197)"><path
             d="m 0,0 c 0,-0.961 -0.777,-1.74 -1.738,-1.74 -0.961,0 -1.739,0.779 -1.739,1.74 0,0.96 0.778,1.738 1.739,1.738 C -0.777,1.738 0,0.96 0,0"
             style="fill:#b64726;fill-opacity:1;fill-rule:nonzero;stroke:none"
             id="path648"
             inkscape:connector-curvature="0" /></g><g
           id="g650"
           transform="translate(350.2344,238.1406)"><path
             d="m 0,0 c 0,-0.962 -0.779,-1.74 -1.74,-1.74 -0.959,0 -1.739,0.778 -1.739,1.74 0,0.961 0.78,1.738 1.739,1.738 C -0.779,1.738 0,0.961 0,0"
             style="fill:#b64726;fill-opacity:1;fill-rule:nonzero;stroke:none"
             id="path652"
             inkscape:connector-curvature="0" /></g><g
           id="g654"
           transform="translate(351.6621,231.4082)"><path
             d="m 0,0 c 0,-0.96 -0.777,-1.737 -1.74,-1.737 -0.959,0 -1.739,0.777 -1.739,1.737 0,0.961 0.78,1.738 1.739,1.738 C -0.777,1.738 0,0.961 0,0"
             style="fill:#b64726;fill-opacity:1;fill-rule:nonzero;stroke:none"
             id="path656"
             inkscape:connector-curvature="0" /></g><g
           id="g658"
           transform="translate(360.1699,236.0664)"><path
             d="m 0,0 c 0,-0.961 -0.777,-1.738 -1.742,-1.738 -0.957,0 -1.735,0.777 -1.735,1.738 0,0.959 0.778,1.736 1.735,1.736 C -0.777,1.736 0,0.959 0,0"
             style="fill:#b64726;fill-opacity:1;fill-rule:nonzero;stroke:none"
             id="path660"
             inkscape:connector-curvature="0" /></g><g
           id="g662"
           transform="translate(363.2344,228.6152)"><path
             d="m 0,0 c 0,-0.962 -0.779,-1.739 -1.74,-1.739 -0.961,0 -1.739,0.777 -1.739,1.739 0,0.959 0.778,1.737 1.739,1.737 C -0.779,1.737 0,0.959 0,0"
             style="fill:#b64726;fill-opacity:1;fill-rule:nonzero;stroke:none"
             id="path664"
             inkscape:connector-curvature="0" /></g><g
           id="g666"
           transform="translate(358.4277,221.5762)"><path
             d="m 0,0 c 0,-0.961 -0.777,-1.737 -1.734,-1.737 -0.963,0 -1.741,0.776 -1.741,1.737 0,0.962 0.778,1.739 1.741,1.739 C -0.777,1.739 0,0.962 0,0"
             style="fill:#b64726;fill-opacity:1;fill-rule:nonzero;stroke:none"
             id="path668"
             inkscape:connector-curvature="0" /></g><g
           id="g670"
           transform="translate(367.4531,222.4043)"><path
             d="m 0,0 c 0,-0.963 -0.777,-1.74 -1.738,-1.74 -0.959,0 -1.739,0.777 -1.739,1.74 0,0.959 0.78,1.737 1.739,1.737 C -0.777,1.737 0,0.959 0,0"
             style="fill:#b64726;fill-opacity:1;fill-rule:nonzero;stroke:none"
             id="path672"
             inkscape:connector-curvature="0" /></g><g
           id="g674"
           transform="translate(361.9082,210.6484)"><path
             d="m 0,0 c 0,-0.961 -0.781,-1.738 -1.738,-1.738 -0.961,0 -1.742,0.777 -1.742,1.738 0,0.96 0.781,1.736 1.742,1.736 C -0.781,1.736 0,0.96 0,0"
             style="fill:#b64726;fill-opacity:1;fill-rule:nonzero;stroke:none"
             id="path676"
             inkscape:connector-curvature="0" /></g><g
           id="g678"
           transform="translate(369.1934,212.7158)"><path
             d="m 0,0 c 0,-0.959 -0.777,-1.736 -1.74,-1.736 -0.961,0 -1.739,0.777 -1.739,1.736 0,0.962 0.778,1.739 1.739,1.739 C -0.777,1.739 0,0.962 0,0"
             style="fill:#b64726;fill-opacity:1;fill-rule:nonzero;stroke:none"
             id="path680"
             inkscape:connector-curvature="0" /></g><g
           id="g682"
           transform="translate(371.5117,208.4951)"><path
             d="m 0,0 c 0,-0.961 -0.777,-1.74 -1.74,-1.74 -0.961,0 -1.739,0.779 -1.739,1.74 0,0.958 0.778,1.739 1.739,1.739 C -0.777,1.739 0,0.958 0,0"
             style="fill:#b64726;fill-opacity:1;fill-rule:nonzero;stroke:none"
             id="path684"
             inkscape:connector-curvature="0" /></g><g
           id="g686"
           transform="translate(369.7715,201.5293)"><path
             d="m 0,0 c 0,-0.964 -0.777,-1.74 -1.738,-1.74 -0.959,0 -1.739,0.776 -1.739,1.74 0,0.957 0.78,1.739 1.739,1.739 C -0.777,1.739 0,0.957 0,0"
             style="fill:#b64726;fill-opacity:1;fill-rule:nonzero;stroke:none"
             id="path688"
             inkscape:connector-curvature="0" /></g><g
           id="g690"
           transform="translate(363.6445,199.7891)"><path
             d="m 0,0 c 0,-0.959 -0.777,-1.74 -1.736,-1.74 -0.961,0 -1.739,0.781 -1.739,1.74 0,0.958 0.778,1.74 1.739,1.74 C -0.777,1.74 0,0.958 0,0"
             style="fill:#b64726;fill-opacity:1;fill-rule:nonzero;stroke:none"
             id="path692"
             inkscape:connector-curvature="0" /></g><g
           id="g694"
           transform="translate(364.9707,192.834)"><path
             d="m 0,0 c 0,-0.959 -0.777,-1.739 -1.736,-1.739 -0.963,0 -1.741,0.78 -1.741,1.739 0,0.96 0.778,1.74 1.741,1.74 C -0.777,1.74 0,0.96 0,0"
             style="fill:#b64726;fill-opacity:1;fill-rule:nonzero;stroke:none"
             id="path696"
             inkscape:connector-curvature="0" /></g><g
           id="g698"
           transform="translate(336.6973,251.3662)"><path
             d="m 0,0 c 0,-0.961 -0.777,-1.737 -1.738,-1.737 -0.963,0 -1.739,0.776 -1.739,1.737 0,0.961 0.776,1.738 1.739,1.738 C -0.777,1.738 0,0.961 0,0"
             style="fill:#b64726;fill-opacity:1;fill-rule:nonzero;stroke:none"
             id="path700"
             inkscape:connector-curvature="0" /></g></g></g><g
       id="g702"><g
         id="g704"
         clip-path="url(#clipPath708)"><g
           id="g710"><g
             id="g712"><path
               d="m 253.818,187.85 c -103.681,0 -187.73,17.041 -187.73,38.065 v 0 c 0,-103.681 84.049,-187.733 187.73,-187.733 v 0 c 103.684,0 187.733,84.052 187.733,187.733 v 0 c 0,-21.024 -84.049,-38.065 -187.733,-38.065"
               style="fill:url(#linearGradient718);stroke:none"
               id="path720"
               inkscape:connector-curvature="0" /></g></g></g></g><g
       id="g722"><g
         id="g724"
         clip-path="url(#clipPath728)"><g
           id="g730"
           transform="translate(386.6621,119.2139)"><path
             d="m 0,0 c 3.588,3.964 4.585,8.214 2.96,12.643 -1.013,2.757 -3.87,7.451 -11.651,7.924 -0.525,0.034 -1.055,0.048 -1.576,0.048 -5.771,0 -11.119,-1.952 -15.935,-5.8 -1.622,2.694 -4.336,4.493 -8.112,5.352 -1.102,0.25 -2.117,0.345 -2.858,0.415 -0.185,0.019 -0.357,0.033 -0.51,0.053 l -0.448,0.054 -0.45,-0.01 c -5.909,-0.146 -11.171,-2.061 -16.009,-5.834 -0.334,0.365 -0.699,0.724 -1.107,1.071 -3.566,3.038 -7.992,4.634 -13.157,4.741 l -0.137,0.003 -0.138,-0.005 c -1.487,-0.035 -2.953,-0.189 -4.388,-0.445 1.398,0.885 2.411,1.986 3.053,2.687 3.538,3.855 5.737,7.862 6.727,12.244 0.548,2.43 0.084,4.947 -1.241,6.73 -1.225,1.652 -3.192,2.602 -5.394,2.602 -1.102,0 -2.317,-0.231 -3.334,-0.632 -2.164,-0.854 -4.593,-1.268 -7.427,-1.268 -1.071,0 -2.204,0.057 -3.461,0.173 -4.717,0.438 -8.907,0.649 -12.808,0.649 -4.208,0 -8.09,-0.241 -11.867,-0.736 -5.353,-0.703 -11.546,-1.988 -16.894,-6.18 -2.33,-1.829 -4.114,-4.284 -5.242,-6.997 -2.075,1.335 -4.297,2.08 -6.637,2.214 -0.241,0.016 -0.467,0.022 -0.681,0.022 -1.196,0 -2.206,-0.216 -3.052,-0.543 -0.275,0.361 -0.57,0.708 -0.892,1.035 -1.968,1.988 -4.641,3.083 -7.527,3.083 -1.704,0 -3.391,-0.378 -5.013,-1.126 -4.952,-2.28 -8.172,-8.1 -7.491,-13.535 0.032,-0.251 0.076,-0.5 0.126,-0.748 -1.16,-0.526 -2.252,-1.361 -3.072,-2.438 -2.488,1.858 -5.418,2.92 -8.742,3.163 -0.314,0.021 -0.605,0.034 -0.889,0.034 -2.394,0 -4.975,-0.966 -6.474,-3.432 -1.18,1.029 -2.589,1.879 -4.206,2.494 -1.064,0.405 -2.044,0.672 -2.997,0.814 -0.683,0.098 -1.297,0.149 -1.879,0.149 -0.855,0 -2.724,-0.149 -4.467,-1.259 -1.444,0.807 -3.117,1.237 -4.904,1.237 -0.217,0 -0.437,-0.007 -0.66,-0.022 -2.52,-0.145 -4.898,-0.862 -7.189,-2.17 -0.782,0.543 -1.688,1.014 -2.729,1.38 1.736,0.927 2.963,2.259 3.702,3.063 3.537,3.855 5.738,7.862 6.725,12.244 0.549,2.43 0.085,4.947 -1.239,6.73 -1.226,1.652 -3.192,2.602 -5.395,2.602 -1.1,0 -2.316,-0.231 -3.333,-0.632 -2.164,-0.854 -4.594,-1.268 -7.427,-1.268 -1.072,0 -2.204,0.057 -3.461,0.173 -4.716,0.438 -8.906,0.649 -12.81,0.649 -4.208,0 -8.089,-0.241 -11.866,-0.736 -5.352,-0.703 -11.547,-1.988 -16.893,-6.18 -5.499,-4.313 -7.977,-12.122 -5.892,-18.571 1.837,-5.681 7.049,-10.248 12.772,-11.524 -0.666,-1.845 -1.325,-3.679 -1.979,-5.498 l -1.197,-3.333 c -0.501,-1.391 -0.778,-2.718 -1.02,-3.886 -0.066,-0.314 -0.132,-0.63 -0.201,-0.94 -0.816,-3.652 0.761,-7.21 4.021,-9.068 2.909,-1.656 6.257,-2.462 10.235,-2.462 0.391,0 0.799,0.009 1.214,0.024 1.668,0.059 5.695,0.788 7.062,6.242 l 0.034,0.14 c 0.245,0.944 0.473,1.884 0.694,2.793 0.453,1.864 0.881,3.626 1.411,5.299 0.753,2.38 1.589,4.715 2.472,7.189 0.038,0.106 0.075,0.212 0.113,0.317 1.261,-0.268 2.564,-0.653 3.932,-1.153 0.355,-0.131 0.73,-0.269 1.125,-0.392 -0.001,-0.004 -0.003,-0.008 -0.004,-0.012 -0.73,-1.891 -1.483,-3.846 -2.135,-5.896 -0.381,-1.195 -1.54,-4.839 0.397,-8.312 1.951,-3.498 5.753,-4.449 7.002,-4.761 1.531,-0.383 2.978,-0.53 4.255,-0.659 0.301,-0.033 0.602,-0.062 0.903,-0.096 0.332,-0.038 0.663,-0.057 0.986,-0.057 3.93,0 7.003,2.819 7.473,6.857 0.284,2.428 1.017,4.918 2.313,7.774 0.724,-0.38 1.482,-0.617 2.221,-0.737 -0.631,-3.401 0.159,-6.783 2.21,-9.36 2.311,-2.901 5.886,-4.501 10.068,-4.501 h 0.001 c 0.21,0 0.424,0.005 0.641,0.013 3.041,0.058 6.17,0.971 9.34,2.725 2.557,-1.725 5.587,-2.663 8.926,-2.747 0.079,-0.003 0.158,-0.003 0.237,-0.003 1.775,0 3.364,0.513 4.626,1.47 0.925,-0.381 1.859,-0.659 2.727,-0.878 1.087,-0.275 2.1,-0.389 2.913,-0.48 0.269,-0.029 0.536,-0.059 0.802,-0.097 l 0.37,-0.052 0.374,-0.007 c 0.162,-0.002 0.315,-0.004 0.459,-0.004 3.22,0 5.131,1.173 6.293,2.605 0.793,-0.522 1.656,-0.921 2.534,-1.196 2.472,-0.777 4.919,-1.025 7.077,-1.245 l 0.213,-0.021 c 0.215,-0.023 0.433,-0.034 0.649,-0.034 3.505,0 6.827,2.949 7.254,6.437 0.325,2.654 1.41,5.361 2.558,8.228 0.3,0.748 0.6,1.494 0.889,2.246 0.345,0.897 0.749,1.814 1.179,2.786 0.007,0.019 0.016,0.04 0.025,0.059 2.025,0.435 3.778,1.262 5.308,2.497 1.362,1.102 2.412,2.418 3.133,3.906 1.419,-0.787 2.931,-1.374 4.482,-1.72 -0.665,-1.845 -1.325,-3.679 -1.98,-5.498 l -1.198,-3.333 c -0.5,-1.391 -0.775,-2.718 -1.02,-3.886 -0.064,-0.314 -0.129,-0.63 -0.199,-0.94 -0.818,-3.652 0.761,-7.21 4.019,-9.068 2.91,-1.656 6.259,-2.462 10.236,-2.462 0.391,0 0.8,0.009 1.214,0.024 1.668,0.059 5.695,0.788 7.063,6.242 l 0.035,0.14 c 0.244,0.944 0.472,1.884 0.693,2.793 0.452,1.864 0.88,3.626 1.409,5.299 0.755,2.38 1.589,4.715 2.474,7.189 0.037,0.106 0.075,0.212 0.113,0.317 0.441,-0.095 0.889,-0.207 1.341,-0.329 -0.314,-0.799 -0.592,-1.612 -0.826,-2.445 -0.697,-2.477 -1.466,-6.253 -0.1,-10.444 1.538,-4.713 5.237,-7.638 10.149,-8.025 0.522,-0.04 1.052,-0.062 1.576,-0.062 3.524,0 6.934,0.91 10.358,2.767 2.606,-1.746 5.604,-2.678 8.948,-2.779 0.093,-0.002 0.184,-0.004 0.275,-0.004 2.262,0 4.238,0.871 5.598,2.451 2.554,-1.783 5.79,-2.787 9.45,-2.882 0.246,-0.007 0.492,-0.011 0.737,-0.011 6.031,0 11.369,1.993 15.683,5.805 2.11,-2.732 5.284,-4.592 9.229,-5.183 1.392,-0.209 2.777,-0.315 4.114,-0.315 6.559,0 12.416,2.539 16.942,7.347 1.092,1.16 1.785,2.375 2.342,3.349 0.085,0.15 0.17,0.3 0.254,0.444 C 0.75,-5.232 1.031,-3.024 0.42,-1.05 0.307,-0.687 0.166,-0.334 0,0"
             style="fill:#d71975;fill-opacity:1;fill-rule:nonzero;stroke:none"
             id="path732"
             inkscape:connector-curvature="0" /></g><g
           id="g734"
           transform="translate(149.5889,151.2314)"><path
             d="m 0,0 c -0.102,-0.245 -0.115,-0.393 -0.192,-0.445 -3.523,-2.401 -5.099,-6.171 -6.527,-9.919 -3.304,-8.675 -6.422,-17.421 -9.565,-26.157 -0.474,-1.316 -0.7,-2.723 -1.007,-4.097 -0.242,-1.08 0.172,-1.934 1.098,-2.459 2.554,-1.456 5.365,-1.752 8.223,-1.649 1.065,0.038 1.224,1.012 1.437,1.834 0.725,2.802 1.32,5.649 2.193,8.404 1.213,3.831 2.642,7.592 3.954,11.394 0.223,0.643 0.578,0.835 1.242,0.803 3.18,-0.147 6.228,-0.886 9.207,-1.978 1.879,-0.691 1.887,-0.655 2.993,0.991 1.366,2.033 2.781,4.034 4.17,6.054 0.272,0.398 0.542,0.801 0.763,1.228 0.648,1.247 0.25,2.071 -1.158,2.097 -1.307,0.022 -2.649,-0.075 -3.923,-0.362 -3.607,-0.816 -7.186,-1.754 -10.791,-2.646 0,-0.006 -0.027,0.228 0.05,0.423 1.622,4.112 3.201,8.243 4.904,12.324 1.167,2.793 2.397,3.399 5.195,2.186 2.36,-1.02 4.561,-2.451 6.753,-3.829 3.048,-1.918 4.044,-1.886 6.502,0.788 2.5,2.727 4.448,5.801 5.276,9.476 0.129,0.57 0.114,1.358 -0.193,1.775 -0.19,0.253 -1.12,0.135 -1.622,-0.063 C 24.55,4.425 19.977,4.247 15.306,4.681 7.532,5.399 -0.248,5.638 -8.019,4.617 c -4.983,-0.652 -9.837,-1.723 -13.935,-4.936 -3.484,-2.732 -5.155,-7.92 -3.86,-11.92 1.326,-4.102 5.83,-7.582 9.988,-7.675 0.439,-0.008 1.066,0.078 1.273,0.366 0.178,0.245 -0.022,0.901 -0.228,1.277 -2.345,4.265 -1.74,9.031 1.813,12.522 C -9.404,-2.248 -4.965,-0.638 0,0"
             style="fill:#231f20;fill-opacity:1;fill-rule:evenodd;stroke:none"
             id="path736"
             inkscape:connector-curvature="0" /></g><g
           id="g738"
           transform="translate(286.2041,151.2314)"><path
             d="m 0,0 c -0.103,-0.245 -0.115,-0.393 -0.193,-0.445 -3.523,-2.401 -5.098,-6.171 -6.526,-9.919 -3.305,-8.675 -6.422,-17.421 -9.566,-26.157 -0.473,-1.316 -0.7,-2.723 -1.008,-4.097 -0.241,-1.08 0.174,-1.934 1.099,-2.459 2.554,-1.456 5.364,-1.752 8.224,-1.649 1.065,0.038 1.224,1.012 1.436,1.834 0.726,2.802 1.321,5.649 2.192,8.404 1.214,3.831 2.644,7.592 3.956,11.394 0.222,0.643 0.578,0.835 1.241,0.803 3.18,-0.147 6.229,-0.886 9.207,-1.978 1.879,-0.691 1.887,-0.655 2.993,0.991 1.367,2.033 2.782,4.034 4.169,6.054 0.273,0.398 0.543,0.801 0.765,1.228 0.648,1.247 0.25,2.071 -1.159,2.097 -1.308,0.022 -2.649,-0.075 -3.922,-0.362 -3.607,-0.816 -7.188,-1.754 -10.791,-2.646 0,-0.006 -0.027,0.228 0.049,0.423 1.622,4.112 3.202,8.243 4.905,12.324 1.166,2.793 2.397,3.399 5.194,2.186 2.36,-1.02 4.56,-2.451 6.753,-3.829 3.049,-1.918 4.045,-1.886 6.501,0.788 2.501,2.727 4.448,5.801 5.276,9.476 0.129,0.57 0.115,1.358 -0.193,1.775 C 30.413,6.489 29.483,6.371 28.981,6.173 24.549,4.425 19.976,4.247 15.306,4.681 7.532,5.399 -0.249,5.638 -8.019,4.617 c -4.984,-0.652 -9.839,-1.723 -13.936,-4.936 -3.485,-2.732 -5.154,-7.92 -3.861,-11.92 1.326,-4.102 5.831,-7.582 9.989,-7.675 0.44,-0.008 1.066,0.078 1.274,0.366 0.177,0.245 -0.022,0.901 -0.229,1.277 -2.344,4.265 -1.739,9.031 1.814,12.522 C -9.405,-2.248 -4.965,-0.638 0,0"
             style="fill:#231f20;fill-opacity:1;fill-rule:evenodd;stroke:none"
             id="path740"
             inkscape:connector-curvature="0" /></g><g
           id="g742"
           transform="translate(306.6074,115.9238)"><path
             d="m 0,0 c 0.012,0.2 0.008,0.405 0.035,0.604 0.029,0.199 0.083,0.393 0.132,0.589 0.963,3.925 3.054,7.168 6.055,9.778 0.907,0.791 2.09,1.294 3.211,1.775 0.433,0.186 1.255,0.138 1.517,-0.154 0.264,-0.294 0.202,-1.08 0.025,-1.553 C 9.496,7.13 7.444,3.548 4.658,0.439 3.953,-0.345 3.033,-1.01 2.09,-1.478 0.857,-2.09 -0.013,-1.393 0,0 M 11.076,17.873 C 1.221,17.63 -7.496,10.981 -10.005,2.07 c -0.64,-2.271 -0.929,-4.591 -0.172,-6.912 0.771,-2.359 2.434,-3.664 4.85,-3.853 3.821,-0.301 7.214,0.986 10.364,3.074 1.622,1.076 1.645,1.071 3.056,-0.249 2.026,-1.896 4.432,-2.8 7.17,-2.883 0.977,-0.029 1.466,0.408 1.235,1.399 -1.052,4.509 0.081,8.714 1.819,12.797 0.8,1.883 1.841,3.662 2.797,5.475 0.879,1.663 0.782,2.407 -0.696,3.664 -2.822,2.407 -6.182,3.228 -9.342,3.291"
             style="fill:#f38bb8;fill-opacity:1;fill-rule:nonzero;stroke:none"
             id="path744"
             inkscape:connector-curvature="0" /></g><g
           id="g746"
           transform="translate(194.8379,107.1943)"><path
             d="m 0,0 c 3.028,0.04 6.019,1.416 8.777,3.35 0.956,0.671 1.574,0.717 2.425,-0.195 1.982,-2.126 4.514,-3.104 7.394,-3.176 0.85,-0.021 1.544,0.283 1.278,1.247 -1.119,4.076 0.088,7.81 1.575,11.493 0.918,2.273 2.004,4.477 2.957,6.737 0.777,1.838 0.528,2.975 -0.919,4.351 -1.815,1.723 -4.02,2.584 -6.486,2.761 -1.626,0.119 -1.983,-0.317 -2.11,-1.99 C 14.458,18.859 12.619,13.645 9.141,9.089 8.529,8.286 7.636,7.639 6.752,7.138 6.273,6.868 5.371,6.819 4.969,7.108 4.591,7.381 4.363,8.309 4.515,8.812 c 0.613,2.031 1.389,4.012 2.125,6.005 0.361,0.979 0.828,1.921 1.138,2.916 1.161,3.715 -0.42,6.925 -4.07,8.316 C 3.151,26.26 2.57,26.441 1.983,26.528 -0.142,26.843 -0.815,26.325 -1.098,24.21 -1.612,20.357 -3.412,16.954 -4.748,13.385 -5.533,11.288 -6.215,9.135 -6.716,6.952 -7.617,3.034 -4.936,-0.218 0,0"
             style="fill:#f38bb8;fill-opacity:1;fill-rule:nonzero;stroke:none"
             id="path748"
             inkscape:connector-curvature="0" /></g><g
           id="g750"
           transform="translate(368.5781,120.5703)"><path
             d="M 0,0 C 1.212,3.688 3.098,6.424 6.36,8.051 6.603,8.172 6.9,8.194 7.177,8.229 8.183,8.347 8.811,7.831 8.561,6.847 8.332,5.951 7.891,5.017 7.287,4.33 5.42,2.204 3.025,0.879 0,0 m 0.045,-4.34 c 1.362,0.418 2.747,0.783 4.09,1.268 3.254,1.173 6.336,2.689 8.84,5.162 1.967,1.939 3.442,4.169 2.366,7.104 -1.064,2.895 -3.56,3.786 -6.317,3.954 -5.989,0.366 -10.978,-1.993 -15.229,-6.08 -3.119,-2.998 -5.282,-6.554 -5.708,-10.996 -0.48,-5.006 1.974,-8.622 6.895,-9.361 5.996,-0.9 11.425,0.615 15.73,5.187 0.727,0.774 1.233,1.769 1.779,2.701 0.383,0.655 0.391,1.45 -0.328,1.788 -0.402,0.187 -1.181,0.018 -1.56,-0.283 -2.198,-1.752 -4.561,-2.965 -7.451,-2.8 -1.65,0.092 -2.675,0.858 -3.107,2.356"
             style="fill:#f38bb8;fill-opacity:1;fill-rule:nonzero;stroke:none"
             id="path752"
             inkscape:connector-curvature="0" /></g><g
           id="g754"
           transform="translate(348.2305,133.8193)"><path
             d="m 0,0 c -5.79,-0.142 -10.322,-2.47 -14.271,-6.124 -2.636,-2.438 -4.753,-5.286 -5.706,-8.797 -1.917,-7.059 1.657,-11.973 8.914,-12.165 6.134,-0.16 11.187,2.242 14.948,7.219 0.359,0.477 0.753,1.016 0.851,1.574 0.08,0.461 -0.134,1.106 -0.452,1.452 -0.18,0.196 -0.901,0.086 -1.251,-0.112 -1.175,-0.674 -2.217,-1.657 -3.455,-2.13 -1.346,-0.514 -2.851,-0.78 -4.296,-0.812 -1.926,-0.044 -3.235,1.251 -3.31,3.124 -0.18,4.488 1.646,8.141 4.902,11.077 1.177,1.06 2.614,1.265 3.146,0.599 0.816,-1.022 0.303,-2.097 -0.207,-3.043 -0.592,-1.09 -1.375,-2.074 -1.998,-3.15 -0.217,-0.376 -0.409,-0.999 -0.243,-1.304 0.17,-0.308 0.801,-0.519 1.22,-0.503 2.694,0.102 5.068,1.076 7.007,2.978 1.689,1.659 2.493,3.655 1.744,6.037 -0.731,2.326 -2.63,3.231 -4.772,3.719 C 1.766,-0.133 0.718,-0.089 0,0"
             style="fill:#f38bb8;fill-opacity:1;fill-rule:nonzero;stroke:none"
             id="path756"
             inkscape:connector-curvature="0" /></g><g
           id="g758"
           transform="translate(252.8672,132.9199)"><path
             d="m 0,0 c 0.684,1.72 1.22,3.232 1.883,4.687 0.775,1.701 0.444,3.125 -0.828,4.39 -1.576,1.569 -3.375,2.718 -5.652,2.849 -1.576,0.091 -1.872,-0.418 -2.324,-1.916 -0.964,-3.19 -2.143,-6.309 -3.27,-9.442 -0.082,-0.228 -0.463,-0.493 -0.706,-0.493 -1.641,-0.013 -2.535,-1.015 -3.19,-2.349 -0.301,-0.611 -0.579,-1.239 -0.809,-1.881 -0.529,-1.464 -0.369,-1.741 1.111,-2.085 0.189,-0.043 0.38,-0.085 0.798,-0.178 -0.25,-0.85 -0.423,-1.656 -0.722,-2.413 -1.34,-3.402 -2.726,-6.787 -4.07,-10.19 -0.236,-0.593 -0.382,-1.227 -0.528,-1.853 -0.477,-2.056 -0.098,-3.172 1.875,-3.793 1.948,-0.61 4.039,-0.81 6.084,-1.017 0.397,-0.04 1.204,0.666 1.258,1.097 0.518,4.229 2.309,8.026 3.808,11.918 0.691,1.801 1.534,3.54 2.265,5.323 0.293,0.719 0.701,1.028 1.508,1.061 1.65,0.065 3.251,0.423 4.59,1.503 1.287,1.039 1.95,2.398 2.027,4.069 C 5.145,0.084 4.831,0.398 4.057,0.329 2.789,0.213 1.521,0.122 0,0"
             style="fill:#f38bb8;fill-opacity:1;fill-rule:nonzero;stroke:none"
             id="path760"
             inkscape:connector-curvature="0" /></g><g
           id="g762"
           transform="translate(177.418,129.04)"><path
             d="m 0,0 c -0.943,3.723 -3.503,4.741 -6.691,4.741 -1.574,-0.002 -1.73,-0.443 -2.11,-1.959 -0.739,-2.951 -1.652,-5.867 -2.638,-8.748 -1.146,-3.343 -2.577,-6.589 -3.648,-9.955 -1.013,-3.183 -0.175,-4.521 3.086,-5.337 1.418,-0.355 2.905,-0.448 4.365,-0.613 1.049,-0.118 1.613,0.343 1.743,1.469 0.58,4.965 2.545,9.452 4.928,13.754 0.604,1.09 1.523,2.073 2.488,2.868 1.048,0.866 2.042,0.452 2.521,-0.854 0.205,-0.562 0.32,-1.165 0.425,-1.757 0.304,-1.715 1.177,-2.159 2.693,-1.204 2.233,1.406 3.795,3.43 4.81,5.862 0.32,0.767 0.547,1.606 0.636,2.432 0.275,2.515 -1.357,4.182 -3.87,4.036 C 5.798,4.562 3.436,3.14 1.317,1.2 0.939,0.854 0.559,0.509 0,0"
             style="fill:#f38bb8;fill-opacity:1;fill-rule:nonzero;stroke:none"
             id="path764"
             inkscape:connector-curvature="0" /></g><g
           id="g766"
           transform="translate(225.4336,107.1289)"><path
             d="m 0,0 c 2.128,-0.038 2.14,0.196 2.55,2.25 0.476,2.382 1.216,4.74 2.101,7.003 1.243,3.179 2.759,6.245 4.094,9.387 0.831,1.955 0.794,3.843 -0.754,5.505 -1.798,1.931 -4.012,2.74 -6.586,2.378 C 0.955,26.461 0.264,25.833 0.229,25.419 -0.081,21.674 -1.73,18.396 -3.134,15.026 -4.321,12.172 -5.638,9.356 -6.599,6.426 -7.767,2.867 -7.338,1.532 -3.072,0.45 -2.073,0.196 -1.024,0.144 0,0"
             style="fill:#f38bb8;fill-opacity:1;fill-rule:nonzero;stroke:none"
             id="path768"
             inkscape:connector-curvature="0" /></g><g
           id="g770"
           transform="translate(240.9229,143.874)"><path
             d="m 0,0 c 0.04,3.617 -3.413,5.606 -6.926,3.989 -2.518,-1.16 -4.351,-4.484 -4.004,-7.26 0.414,-3.303 4.329,-4.996 7.332,-3.169 C -1.39,-5.102 -0.028,-2.661 0,0"
             style="fill:#f38bb8;fill-opacity:1;fill-rule:nonzero;stroke:none"
             id="path772"
             inkscape:connector-curvature="0" /></g><g
           id="g774"
           transform="translate(149.5889,151.2314)"><path
             d="m 0,0 c -0.102,-0.245 -0.115,-0.393 -0.192,-0.445 -3.523,-2.401 -5.099,-6.171 -6.527,-9.919 -3.304,-8.675 -6.422,-17.421 -9.565,-26.157 -0.474,-1.316 -0.7,-2.723 -1.007,-4.097 -0.242,-1.08 0.172,-1.934 1.098,-2.459 2.554,-1.456 5.365,-1.752 8.223,-1.649 1.065,0.038 1.224,1.012 1.437,1.834 0.725,2.802 1.32,5.649 2.193,8.404 1.213,3.831 2.642,7.592 3.954,11.394 0.223,0.643 0.578,0.835 1.242,0.803 3.18,-0.147 6.228,-0.886 9.207,-1.978 1.879,-0.691 1.887,-0.655 2.993,0.991 1.366,2.033 2.781,4.034 4.17,6.054 0.272,0.398 0.542,0.801 0.763,1.228 0.648,1.247 0.25,2.071 -1.158,2.097 -1.307,0.022 -2.649,-0.075 -3.923,-0.362 -3.607,-0.816 -7.186,-1.754 -10.791,-2.646 0,-0.006 -0.027,0.228 0.05,0.423 1.622,4.112 3.201,8.243 4.904,12.324 1.167,2.793 2.397,3.399 5.195,2.186 2.36,-1.02 4.561,-2.451 6.753,-3.829 3.048,-1.918 4.044,-1.886 6.502,0.788 2.5,2.727 4.448,5.801 5.276,9.476 0.129,0.57 0.114,1.358 -0.193,1.775 -0.19,0.253 -1.12,0.135 -1.622,-0.063 C 24.55,4.425 19.977,4.247 15.306,4.681 7.532,5.399 -0.248,5.638 -8.019,4.617 c -4.983,-0.652 -9.837,-1.723 -13.935,-4.936 -3.484,-2.732 -5.155,-7.92 -3.86,-11.92 1.326,-4.102 5.83,-7.582 9.988,-7.675 0.439,-0.008 1.066,0.078 1.273,0.366 0.178,0.245 -0.022,0.901 -0.228,1.277 -2.345,4.265 -1.74,9.031 1.813,12.522 C -9.404,-2.248 -4.965,-0.638 0,0"
             style="fill:#f38bb8;fill-opacity:1;fill-rule:nonzero;stroke:none"
             id="path776"
             inkscape:connector-curvature="0" /></g><g
           id="g778"
           transform="translate(286.2041,151.2314)"><path
             d="m 0,0 c -0.103,-0.245 -0.115,-0.393 -0.193,-0.445 -3.523,-2.401 -5.098,-6.171 -6.526,-9.919 -3.305,-8.675 -6.422,-17.421 -9.566,-26.157 -0.473,-1.316 -0.7,-2.723 -1.008,-4.097 -0.241,-1.08 0.174,-1.934 1.099,-2.459 2.554,-1.456 5.364,-1.752 8.224,-1.649 1.065,0.038 1.224,1.012 1.436,1.834 0.726,2.802 1.321,5.649 2.192,8.404 1.214,3.831 2.644,7.592 3.956,11.394 0.222,0.643 0.578,0.835 1.241,0.803 3.18,-0.147 6.229,-0.886 9.207,-1.978 1.879,-0.691 1.887,-0.655 2.993,0.991 1.367,2.033 2.782,4.034 4.169,6.054 0.273,0.398 0.543,0.801 0.765,1.228 0.648,1.247 0.25,2.071 -1.159,2.097 -1.308,0.022 -2.649,-0.075 -3.922,-0.362 -3.607,-0.816 -7.188,-1.754 -10.791,-2.646 0,-0.006 -0.027,0.228 0.049,0.423 1.622,4.112 3.202,8.243 4.905,12.324 1.166,2.793 2.397,3.399 5.194,2.186 2.36,-1.02 4.56,-2.451 6.753,-3.829 3.049,-1.918 4.045,-1.886 6.501,0.788 2.501,2.727 4.448,5.801 5.276,9.476 0.129,0.57 0.115,1.358 -0.193,1.775 C 30.413,6.489 29.483,6.371 28.981,6.173 24.549,4.425 19.976,4.247 15.306,4.681 7.532,5.399 -0.249,5.638 -8.019,4.617 c -4.984,-0.652 -9.839,-1.723 -13.936,-4.936 -3.485,-2.732 -5.154,-7.92 -3.861,-11.92 1.326,-4.102 5.831,-7.582 9.989,-7.675 0.44,-0.008 1.066,0.078 1.274,0.366 0.177,0.245 -0.022,0.901 -0.229,1.277 -2.344,4.265 -1.739,9.031 1.814,12.522 C -9.405,-2.248 -4.965,-0.638 0,0"
             style="fill:#f38bb8;fill-opacity:1;fill-rule:nonzero;stroke:none"
             id="path780"
             inkscape:connector-curvature="0" /></g></g></g><g
       id="g782"><g
         id="g784"
         clip-path="url(#clipPath788)"><g
           id="g790"
           transform="translate(265.7617,441.5762)"><path
             d="m 0,0 v -2.253 c -0.026,-0.051 -0.069,-0.101 -0.077,-0.154 -0.212,-1.349 -0.731,-2.583 -1.579,-3.633 -0.827,-1.023 -1.719,-2.009 -2.677,-2.91 -2.54,-2.391 -5.261,-4.602 -7.179,-7.617 -1.393,2.05 -3.107,3.746 -4.886,5.385 -1.467,1.353 -2.966,2.682 -4.313,4.149 -1.81,1.97 -2.648,4.338 -2.264,7.041 0.37,2.591 2.339,4.564 5.024,5.096 2.312,0.459 4.873,-0.755 6.157,-2.921 0.089,-0.152 0.179,-0.303 0.286,-0.484 0.088,0.156 0.151,0.273 0.219,0.386 1.277,2.106 3.158,3.245 5.609,3.079 2.615,-0.178 4.416,-1.63 5.368,-4.089 C -0.18,0.729 -0.104,0.359 0,0"
             style="fill:#bf1e2d;fill-opacity:1;fill-rule:evenodd;stroke:none"
             id="path792"
             inkscape:connector-curvature="0" /></g></g></g></g></svg>