<?xml version="1.0" encoding="UTF-8" standalone="no"?>
<!-- Created with Inkscape (http://www.inkscape.org/) -->

<svg
   xmlns:dc="http://purl.org/dc/elements/1.1/"
   xmlns:cc="http://creativecommons.org/ns#"
   xmlns:rdf="http://www.w3.org/1999/02/22-rdf-syntax-ns#"
   xmlns:svg="http://www.w3.org/2000/svg"
   xmlns="http://www.w3.org/2000/svg"
   xmlns:sodipodi="http://sodipodi.sourceforge.net/DTD/sodipodi-0.dtd"
   xmlns:inkscape="http://www.inkscape.org/namespaces/inkscape"
   width="210mm"
   height="297mm"
   viewBox="0 0 210 297"
   version="1.1"
   id="svg8"
   sodipodi:docname="New document 1.2018_12_17_10_51_40.0.svg"
   inkscape:version="0.92.2 2405546, 2018-03-11">
  <defs
     id="defs2" />
  <sodipodi:namedview
     id="base"
     pagecolor="#ffffff"
     bordercolor="#666666"
     borderopacity="1.0"
     inkscape:pageopacity="0.0"
     inkscape:pageshadow="2"
     inkscape:zoom="0.99667969"
     inkscape:cx="759.39526"
     inkscape:cy="271.55227"
     inkscape:document-units="mm"
     inkscape:current-layer="g891"
     showgrid="false"
     inkscape:window-width="1920"
     inkscape:window-height="1036"
     inkscape:window-x="0"
     inkscape:window-y="20"
     inkscape:window-maximized="0"
     showguides="true"
     inkscape:guide-bbox="true"
     inkscape:snap-bbox="true"
     inkscape:snap-global="false"
     inkscape:object-paths="true"
     inkscape:snap-intersection-paths="true"
     inkscape:snap-smooth-nodes="true"
     inkscape:snap-midpoints="true">
    <sodipodi:guide
       position="68.819665,-25.926367"
       orientation="0,1"
       id="guide66"
       inkscape:locked="false" />
    <sodipodi:guide
       position="69.883596,-10.919312"
       orientation="0,1"
       id="guide349"
       inkscape:locked="false" />
    <sodipodi:guide
       position="78.962101,-13.75632"
       orientation="1,0"
       id="guide355"
       inkscape:locked="false" />
    <sodipodi:guide
       position="13.987845,-10.68174"
       orientation="1,0"
       id="guide868"
       inkscape:locked="false" />
    <sodipodi:guide
       position="8.6939707,-7.7648444"
       orientation="1,0"
       id="guide893"
       inkscape:locked="false" />
  </sodipodi:namedview>
  <metadata
     id="metadata5">
    <rdf:RDF>
      <cc:Work
         rdf:about="">
        <dc:format>image/svg+xml</dc:format>
        <dc:type
           rdf:resource="http://purl.org/dc/dcmitype/StillImage" />
      </cc:Work>
    </rdf:RDF>
  </metadata>
  <g
     inkscape:label="Layer 1"
     inkscape:groupmode="layer"
     id="layer1">
    <text
       id="text20"
       y="111.61401"
       x="82.21405"
       style="font-style:normal;font-weight:normal;font-size:21.23381042px;line-height:33.17782974px;font-family:sans-serif;text-align:center;letter-spacing:0px;word-spacing:0px;text-anchor:middle;fill:#000000;fill-opacity:1;stroke:none;stroke-width:0.26458329px;stroke-linecap:butt;stroke-linejoin:miter;stroke-opacity:1"
       xml:space="preserve"><tspan
         style="font-style:normal;font-variant:normal;font-weight:normal;font-stretch:normal;font-family:'Optician Sans';-inkscape-font-specification:'Optician Sans';stroke-width:0.26458329px"
         y="111.61401"
         x="82.21405"
         id="tspan16"
         sodipodi:role="line">The H4X0R</tspan><tspan
         id="tspan18"
         style="font-style:normal;font-variant:normal;font-weight:normal;font-stretch:normal;font-family:'Optician Sans';-inkscape-font-specification:'Optician Sans';stroke-width:0.26458329px"
         y="145.17432"
         x="82.21405"
         sodipodi:role="line">ROYALE</tspan></text>
    <text
       id="text3853"
       y="191.57698"
       x="56.455673"
       style="font-style:normal;font-weight:normal;font-size:21.23381042px;line-height:33.17782974px;font-family:sans-serif;text-align:center;letter-spacing:0px;word-spacing:0px;text-anchor:middle;fill:#000000;fill-opacity:1;stroke:none;stroke-width:0.26458329px;stroke-linecap:butt;stroke-linejoin:miter;stroke-opacity:1"
       xml:space="preserve"><tspan
         id="tspan3851"
         style="font-style:normal;font-variant:normal;font-weight:normal;font-stretch:normal;line-height:18.36208344px;font-family:Gotham;-inkscape-font-specification:Gotham;stroke-width:0.26458329px"
         y="191.57698"
         x="56.455673"
         sodipodi:role="line">SOLMAZ</tspan></text>
    <g
       aria-label="SOLMAZ"
       style="font-style:normal;font-weight:normal;font-size:21.23381042px;line-height:33.17782974px;font-family:sans-serif;text-align:center;letter-spacing:0px;word-spacing:0px;text-anchor:middle;fill:#333333;fill-opacity:1;stroke:none;stroke-width:0.26458329px;stroke-linecap:butt;stroke-linejoin:miter;stroke-opacity:1"
       id="text3857">
      <path
         d="m 14.497456,322.97015 c 3.206306,0 5.45709,-1.65624 5.45709,-4.60774 v -0.0425 c 0,-2.59053 -1.698705,-3.67345 -4.713906,-4.4591 -2.569291,-0.65825 -3.206306,-0.97676 -3.206306,-1.95351 v -0.0425 c 0,-0.72195 0.658248,-1.29526 1.911043,-1.29526 1.019223,0 2.038446,0.36097 3.12137,0.99798 0.254806,0.14864 0.509612,0.23358 0.828119,0.23358 0.849352,0 1.528834,-0.65825 1.528834,-1.5076 0,-0.63702 -0.360974,-1.08293 -0.721949,-1.29527 -1.33773,-0.84935 -2.909032,-1.31649 -4.713906,-1.31649 -3.036435,0 -5.2022837,1.78364 -5.2022837,4.48033 v 0.0425 c 0,2.9515 1.9322767,3.77962 4.9262437,4.54403 2.484356,0.63702 2.993968,1.06169 2.993968,1.88981 v 0.0425 c 0,0.87059 -0.806885,1.40143 -2.144615,1.40143 -1.443899,0 -2.67546,-0.50961 -3.800852,-1.33773 -0.212338,-0.14863 -0.509612,-0.29727 -0.934288,-0.29727 -0.8493524,0 -1.5288344,0.65825 -1.5288344,1.5076 0,0.50961 0.2548058,0.97675 0.6157805,1.23156 1.6562369,1.18909 3.6309819,1.78364 5.5844919,1.78364 z"
         style="font-style:normal;font-variant:normal;font-weight:normal;font-stretch:normal;line-height:18.36208344px;font-family:'Gotham Rounded';-inkscape-font-specification:'Gotham Rounded';stroke-width:0.26458329px;fill:#333333"
         id="path3859" />
      <path
         d="m 30.032643,323.01262 c 4.586503,0 7.920211,-3.46111 7.920211,-7.68664 v -0.0425 c 0,-4.22553 -3.29124,-7.64417 -7.877743,-7.64417 -4.586503,0 -7.920212,3.46111 -7.920212,7.68664 v 0.0425 c 0,4.22552 3.291241,7.64417 7.877744,7.64417 z m 0.04247,-3.0152 c -2.632993,0 -4.501568,-2.12338 -4.501568,-4.67144 v -0.0425 c 0,-2.54806 1.826108,-4.62897 4.4591,-4.62897 2.632993,0 4.501568,2.12338 4.501568,4.67144 v 0.0425 c 0,2.54805 -1.826108,4.62897 -4.4591,4.62897 z"
         style="font-style:normal;font-variant:normal;font-weight:normal;font-stretch:normal;line-height:18.36208344px;font-family:'Gotham Rounded';-inkscape-font-specification:'Gotham Rounded';stroke-width:0.26458329px;fill:#333333"
         id="path3861" />
      <path
         d="m 40.853594,321.12281 c 0,0.91305 0.721949,1.635 1.635003,1.635 h 7.68664 c 0.828118,0 1.486366,-0.65825 1.486366,-1.48636 0,-0.82812 -0.658248,-1.48637 -1.486366,-1.48637 h -6.051636 v -10.38333 c 0,-0.91306 -0.72195,-1.63501 -1.635004,-1.63501 -0.913054,0 -1.635003,0.72195 -1.635003,1.63501 z"
         style="font-style:normal;font-variant:normal;font-weight:normal;font-stretch:normal;line-height:18.36208344px;font-family:'Gotham Rounded';-inkscape-font-specification:'Gotham Rounded';stroke-width:0.26458329px;fill:#333333"
         id="path3863" />
      <path
         d="m 54.000307,321.29268 c 0,0.89182 0.700716,1.59254 1.592536,1.59254 0.89182,0 1.613769,-0.70072 1.613769,-1.59254 v -7.38937 l 2.824097,4.35293 c 0.339741,0.50962 0.764417,0.82812 1.358964,0.82812 0.594547,0 1.019223,-0.3185 1.358964,-0.82812 l 2.866564,-4.41663 v 7.4106 c 0,0.89182 0.72195,1.63501 1.61377,1.63501 0.913054,0 1.635003,-0.72195 1.635003,-1.63501 v -11.806 c 0,-0.91305 -0.721949,-1.635 -1.635003,-1.635 h -0.360975 c -0.658248,0 -1.125392,0.27604 -1.465133,0.82812 l -3.970722,6.45508 -3.949489,-6.43385 c -0.297273,-0.48838 -0.785651,-0.84935 -1.486367,-0.84935 H 55.63531 c -0.913053,0 -1.635003,0.72195 -1.635003,1.635 z"
         style="font-style:normal;font-variant:normal;font-weight:normal;font-stretch:normal;line-height:18.36208344px;font-family:'Gotham Rounded';-inkscape-font-specification:'Gotham Rounded';stroke-width:0.26458329px;fill:#333333"
         id="path3865" />
      <path
         d="m 89.417311,322.75781 h 9.746319 c 0.785651,0 1.4439,-0.63701 1.4439,-1.42266 0,-0.78565 -0.658249,-1.4439 -1.4439,-1.4439 h -6.858521 l 7.707871,-8.96067 c 0.38221,-0.46714 0.59455,-0.95552 0.59455,-1.52883 v -0.0637 c 0,-0.78565 -0.658249,-1.44389 -1.4439,-1.44389 h -9.491514 c -0.785651,0 -1.443899,0.65824 -1.443899,1.44389 0,0.78566 0.658248,1.42267 1.443899,1.42267 h 6.603715 l -7.707873,8.96067 c -0.382208,0.44591 -0.594547,0.95552 -0.594547,1.52883 v 0.0637 c 0,0.78565 0.658249,1.4439 1.4439,1.4439 z"
         style="font-style:normal;font-variant:normal;font-weight:normal;font-stretch:normal;line-height:18.36208344px;font-family:'Gotham Rounded';-inkscape-font-specification:'Gotham Rounded';stroke-width:0.26458329px;fill:#333333"
         id="path3869" />
    </g>
    <text
       id="text866"
       y="365.42712"
       x="54.622059"
       style="font-style:normal;font-weight:normal;font-size:21.23381042px;line-height:33.17782974px;font-family:sans-serif;text-align:center;letter-spacing:0px;word-spacing:0px;text-anchor:middle;fill:#000000;fill-opacity:1;stroke:none;stroke-width:0.26458329px;stroke-linecap:butt;stroke-linejoin:miter;stroke-opacity:1"
       xml:space="preserve"><tspan
         id="tspan864"
         style="font-style:normal;font-variant:normal;font-weight:normal;font-stretch:normal;line-height:18.36208344px;font-family:'Gotham Rounded';-inkscape-font-specification:'Gotham Rounded';stroke-width:0.26458329px"
         y="365.42712"
         x="54.622059"
         sodipodi:role="line">SOLMAZ</tspan></text>
    <g
       id="g891"
       style="fill:#333333"
       transform="translate(2.500213)">
      <path
         d="m 14.071501,304.89052 c 4.586503,0 7.920212,-3.46111 7.920212,-7.68664 v -0.0425 c 0,-4.22553 -3.291241,-7.64417 -7.877744,-7.64417 -4.5865031,0 -7.9202113,3.46111 -7.9202113,7.68664 v 0.0425 c 0,4.22552 3.2912406,7.64417 7.8777433,7.64417 z m 0.04247,-3.0152 c -2.632992,0 -4.5015678,-2.12338 -4.5015678,-4.67144 v -0.0425 c 0,-2.54806 1.8261078,-4.62897 4.4590998,-4.62897 2.632993,0 4.501568,2.12338 4.501568,4.67144 v 0.0425 c 0,2.54805 -1.826108,4.62897 -4.4591,4.62897 z"
         style="font-style:normal;font-variant:normal;font-weight:normal;font-stretch:normal;font-size:medium;line-height:18.36208344px;font-family:'Gotham Rounded';-inkscape-font-specification:'Gotham Rounded';text-align:center;letter-spacing:0px;word-spacing:0px;text-anchor:middle;fill:#333333;fill-opacity:1;stroke:none;stroke-width:0.26458329px;stroke-linecap:butt;stroke-linejoin:miter;stroke-opacity:1"
         id="path870"
         inkscape:connector-curvature="0" />
      <path
         d="m 24.494254,303.14934 c 0,0.89182 0.72195,1.61377 1.61377,1.61377 0.89182,0 1.613769,-0.72195 1.613769,-1.61377 v -7.96267 l 6.540014,8.57846 c 0.44591,0.57331 0.913054,0.95552 1.698705,0.95552 h 0.106169 c 0.913054,0 1.635003,-0.72195 1.635003,-1.63501 v -11.82723 c 0,-0.89182 -0.721949,-1.61377 -1.613769,-1.61377 -0.89182,0 -1.61377,0.72195 -1.61377,1.61377 v 7.66541 l -6.306442,-8.28119 c -0.44591,-0.57331 -0.913053,-0.95552 -1.698704,-0.95552 h -0.339741 c -0.913054,0 -1.635004,0.72195 -1.635004,1.635 z"
         style="font-style:normal;font-variant:normal;font-weight:normal;font-stretch:normal;font-size:medium;line-height:18.36208344px;font-family:'Gotham Rounded';-inkscape-font-specification:'Gotham Rounded';text-align:center;letter-spacing:0px;word-spacing:0px;text-anchor:middle;fill:#333333;fill-opacity:1;stroke:none;stroke-width:0.26458329px;stroke-linecap:butt;stroke-linejoin:miter;stroke-opacity:1"
         id="path872"
         inkscape:connector-curvature="0" />
      <path
         d="m 47.449331,304.86928 c 3.991957,0 6.51878,-2.20831 6.51878,-6.70988 v -6.87976 c 0,-0.91305 -0.721949,-1.635 -1.635003,-1.635 -0.913054,0 -1.635004,0.72195 -1.635004,1.635 v 7.00716 c 0,2.35696 -1.210327,3.56728 -3.206305,3.56728 -1.995978,0 -3.206305,-1.25279 -3.206305,-3.67345 v -6.90099 c 0,-0.91305 -0.72195,-1.635 -1.635004,-1.635 -0.913054,0 -1.635003,0.72195 -1.635003,1.635 v 6.98593 c 0,4.37416 2.441888,6.60371 6.433844,6.60371 z"
         style="font-style:normal;font-variant:normal;font-weight:normal;font-stretch:normal;font-size:medium;line-height:18.36208344px;font-family:'Gotham Rounded';-inkscape-font-specification:'Gotham Rounded';text-align:center;letter-spacing:0px;word-spacing:0px;text-anchor:middle;fill:#333333;fill-opacity:1;stroke:none;stroke-width:0.26458329px;stroke-linecap:butt;stroke-linejoin:miter;stroke-opacity:1"
         id="path874"
         inkscape:connector-curvature="0" />
      <path
         d="m 57.298833,303.12811 c 0,0.91305 0.721949,1.635 1.635003,1.635 0.913054,0 1.635004,-0.72195 1.635004,-1.635 v -3.24877 h 2.611758 l 3.185072,4.03442 c 0.382209,0.48838 0.870586,0.84935 1.61377,0.84935 0.785651,0 1.550068,-0.59454 1.550068,-1.5076 0,-0.50961 -0.212338,-0.84935 -0.530846,-1.25279 l -2.272017,-2.7604 c 1.804874,-0.74318 2.972733,-2.18708 2.972733,-4.5228 v -0.0425 c 0,-1.40143 -0.44591,-2.56929 -1.274028,-3.39741 -0.976756,-0.97675 -2.441889,-1.5076 -4.331698,-1.5076 h -5.159816 c -0.913054,0 -1.635003,0.72195 -1.635003,1.63501 z m 3.270007,-6.13657 v -4.268 h 3.248773 c 1.592536,0 2.569291,0.72195 2.569291,2.12339 v 0.0425 c 0,1.2528 -0.913054,2.10215 -2.50559,2.10215 z"
         style="font-style:normal;font-variant:normal;font-weight:normal;font-stretch:normal;font-size:medium;line-height:18.36208344px;font-family:'Gotham Rounded';-inkscape-font-specification:'Gotham Rounded';text-align:center;letter-spacing:0px;word-spacing:0px;text-anchor:middle;fill:#333333;fill-opacity:1;stroke:none;stroke-width:0.26458329px;stroke-linecap:butt;stroke-linejoin:miter;stroke-opacity:1"
         id="path876"
         inkscape:connector-curvature="0" />
    </g>
    <text
       id="text30"
       y="196.50467"
       x="143.92216"
       style="font-style:normal;font-weight:normal;font-size:21.23381042px;line-height:33.17782974px;font-family:sans-serif;text-align:center;letter-spacing:0px;word-spacing:0px;text-anchor:middle;fill:#000000;fill-opacity:1;stroke:none;stroke-width:0.26458329px;stroke-linecap:butt;stroke-linejoin:miter;stroke-opacity:1"
       xml:space="preserve"><tspan
         id="tspan28"
         style="font-style:normal;font-variant:normal;font-weight:normal;font-stretch:normal;line-height:18.36208344px;font-family:'Optician Sans';-inkscape-font-specification:'Optician Sans';stroke-width:0.26458329px"
         y="196.50467"
         x="143.92216"
         sodipodi:role="line">SOLMAZ</tspan></text>
    <path
       d="m 25.409266,233.75007 c -1.78364,0 -2.972734,-0.59455 -2.972734,-1.48637 h -2.123381 c 0,2.03845 2.038446,3.39741 5.096115,3.39741 3.312474,0 5.096114,-1.21032 5.096114,-3.46111 0,-2.16585 -1.486366,-3.12137 -4.989945,-3.12137 -2.017212,0 -2.866565,-0.3185 -2.866565,-1.12539 0,-0.93429 0.955522,-1.42266 2.760396,-1.42266 1.656237,0 2.760395,0.59454 2.760395,1.48636 h 2.123381 c 0,-2.03844 -1.95351,-3.39741 -4.883776,-3.39741 -3.185072,0 -4.883777,1.16786 -4.883777,3.33371 0,2.14462 1.4439,3.03644 4.798842,3.03644 2.123381,0 3.057668,0.36097 3.057668,1.21032 0,0.99799 -1.040456,1.55007 -2.972733,1.55007 z"
       style="font-style:normal;font-variant:normal;font-weight:normal;font-stretch:normal;font-size:medium;line-height:18.36208344px;font-family:'Optician Sans';-inkscape-font-specification:'Optician Sans';text-align:center;letter-spacing:0px;word-spacing:0px;text-anchor:middle;fill:#000000;fill-opacity:1;stroke:none;stroke-width:0.26458329px;stroke-linecap:butt;stroke-linejoin:miter;stroke-opacity:1"
       id="path134"
       inkscape:connector-curvature="0" />
    <path
       inkscape:connector-curvature="0"
       id="path32"
       style="font-style:normal;font-variant:normal;font-weight:normal;font-stretch:normal;font-size:medium;line-height:18.36208344px;font-family:'Optician Sans';-inkscape-font-specification:'Optician Sans';text-align:center;letter-spacing:0px;word-spacing:0px;text-anchor:middle;fill:#000000;fill-opacity:1;stroke:none;stroke-width:0.26458329px;stroke-linecap:butt;stroke-linejoin:miter;stroke-opacity:1"
       d="m 25.409266,282.53171 c -1.78364,0 -2.972734,-0.59455 -2.972734,-1.48637 h -2.123381 c 0,2.03845 2.038446,3.39741 5.096115,3.39741 3.312474,0 5.096114,-1.21032 5.096114,-3.46111 0,-2.16585 -1.486366,-3.12137 -4.989945,-3.12137 -2.017212,0 -2.866565,-0.3185 -2.866565,-1.12539 0,-0.93429 0.955522,-1.42266 2.760396,-1.42266 1.656237,0 2.760395,0.59454 2.760395,1.48636 h 2.123381 c 0,-2.03844 -1.95351,-3.39741 -4.883776,-3.39741 -3.185072,0 -4.883777,1.16786 -4.883777,3.33371 0,2.14462 1.4439,3.03644 4.798842,3.03644 2.123381,0 3.057668,0.36097 3.057668,1.21032 0,0.99799 -1.040456,1.55007 -2.972733,1.55007 z" />
    <path
       d="m 38.151211,224.61953 c -3.185071,0 -5.52079,2.33572 -5.52079,5.52079 0,3.18508 2.335719,5.52079 5.52079,5.52079 3.185072,0 5.520791,-2.33571 5.520791,-5.52079 0,-3.18507 -2.335719,-5.52079 -5.520791,-5.52079 z m 0,9.02437 c -1.911043,0 -3.29124,-1.48636 -3.29124,-3.50358 0,-2.01721 1.380197,-3.50358 3.29124,-3.50358 1.911043,0 3.291241,1.48637 3.291241,3.50358 0,2.01722 -1.380198,3.50358 -3.291241,3.50358 z"
       style="font-style:normal;font-variant:normal;font-weight:normal;font-stretch:normal;font-size:medium;line-height:18.36208344px;font-family:'Optician Sans';-inkscape-font-specification:'Optician Sans';text-align:center;letter-spacing:0px;word-spacing:0px;text-anchor:middle;fill:#000000;fill-opacity:1;stroke:none;stroke-width:0.26458329px;stroke-linecap:butt;stroke-linejoin:miter;stroke-opacity:1"
       id="path136"
       inkscape:connector-curvature="0" />
    <path
       inkscape:connector-curvature="0"
       id="path34"
       style="font-style:normal;font-variant:normal;font-weight:normal;font-stretch:normal;font-size:medium;line-height:18.36208344px;font-family:'Optician Sans';-inkscape-font-specification:'Optician Sans';text-align:center;letter-spacing:0px;word-spacing:0px;text-anchor:middle;fill:#000000;fill-opacity:1;stroke:none;stroke-width:0.26458329px;stroke-linecap:butt;stroke-linejoin:miter;stroke-opacity:1"
       d="m 38.151211,273.40117 c -3.185071,0 -5.52079,2.33572 -5.52079,5.52079 0,3.18508 2.335719,5.52079 5.52079,5.52079 3.185072,0 5.520791,-2.33571 5.520791,-5.52079 0,-3.18507 -2.335719,-5.52079 -5.520791,-5.52079 z m 0,9.02437 c -1.911043,0 -3.29124,-1.48636 -3.29124,-3.50358 0,-2.01721 1.380197,-3.50358 3.29124,-3.50358 1.911043,0 3.291241,1.48637 3.291241,3.50358 0,2.01722 -1.380198,3.50358 -3.291241,3.50358 z" />
    <path
       d="m 46.30798,235.44878 h 8.493524 v -1.91105 h -6.370143 v -8.70586 H 46.30798 Z"
       style="font-style:normal;font-variant:normal;font-weight:normal;font-stretch:normal;font-size:medium;line-height:18.36208344px;font-family:'Optician Sans';-inkscape-font-specification:'Optician Sans';text-align:center;letter-spacing:0px;word-spacing:0px;text-anchor:middle;fill:#000000;fill-opacity:1;stroke:none;stroke-width:0.26458329px;stroke-linecap:butt;stroke-linejoin:miter;stroke-opacity:1"
       id="path138"
       inkscape:connector-curvature="0" />
    <path
       inkscape:connector-curvature="0"
       id="path36"
       style="font-style:normal;font-variant:normal;font-weight:normal;font-stretch:normal;font-size:medium;line-height:18.36208344px;font-family:'Optician Sans';-inkscape-font-specification:'Optician Sans';text-align:center;letter-spacing:0px;word-spacing:0px;text-anchor:middle;fill:#000000;fill-opacity:1;stroke:none;stroke-width:0.26458329px;stroke-linecap:butt;stroke-linejoin:miter;stroke-opacity:1"
       d="m 46.30798,284.23042 h 8.493524 v -1.91105 h -6.370143 v -8.70586 H 46.30798 Z" />
    <path
       d="m 59.167706,224.83187 h -1.911043 v 10.61691 h 2.123381 v -7.43184 h 0.04247 c 0,0 0.212338,0.67948 0.594546,1.1891 l 1.486367,1.99597 h 2.123381 l 1.486367,-1.99597 c 0.382208,-0.50962 0.594546,-1.1891 0.594546,-1.1891 h 0.04247 v 7.43184 h 2.123381 v -10.61691 h -1.911043 l -3.312474,4.4591 h -0.148637 z"
       style="font-style:normal;font-variant:normal;font-weight:normal;font-stretch:normal;font-size:medium;line-height:18.36208344px;font-family:'Optician Sans';-inkscape-font-specification:'Optician Sans';text-align:center;letter-spacing:0px;word-spacing:0px;text-anchor:middle;fill:#000000;fill-opacity:1;stroke:none;stroke-width:0.26458329px;stroke-linecap:butt;stroke-linejoin:miter;stroke-opacity:1"
       id="path140"
       inkscape:connector-curvature="0" />
    <path
       inkscape:connector-curvature="0"
       id="path38"
       style="font-style:normal;font-variant:normal;font-weight:normal;font-stretch:normal;font-size:medium;line-height:18.36208344px;font-family:'Optician Sans';-inkscape-font-specification:'Optician Sans';text-align:center;letter-spacing:0px;word-spacing:0px;text-anchor:middle;fill:#000000;fill-opacity:1;stroke:none;stroke-width:0.26458329px;stroke-linecap:butt;stroke-linejoin:miter;stroke-opacity:1"
       d="m 59.167706,273.61351 h -1.911043 v 10.61691 h 2.123381 v -7.43184 h 0.04247 c 0,0 0.212338,0.67948 0.594546,1.1891 l 1.486367,1.99597 h 2.123381 l 1.486367,-1.99597 c 0.382208,-0.50962 0.594546,-1.1891 0.594546,-1.1891 h 0.04247 v 7.43184 h 2.123381 v -10.61691 h -1.911043 l -3.312474,4.4591 h -0.148637 z" />
    <path
       inkscape:connector-curvature="0"
       id="path40"
       style="font-style:normal;font-variant:normal;font-weight:normal;font-stretch:normal;font-size:medium;line-height:18.36208344px;font-family:'Optician Sans';-inkscape-font-specification:'Optician Sans';text-align:center;letter-spacing:0px;word-spacing:0px;text-anchor:middle;fill:#000000;fill-opacity:1;stroke:none;stroke-width:0.26458329px;stroke-linecap:butt;stroke-linejoin:miter;stroke-opacity:1"
       d="m 72.362198,218.76183 0.870586,-2.12338 h 5.605726 l 0.870586,2.12338 h 2.293251 l -4.352931,-10.61691 h -3.185071 l -4.352931,10.61691 z m 1.656237,-4.03443 1.911043,-4.67144 h 0.212338 l 1.911043,4.67144 z" />
    <path
       d="m 84.107479,226.74291 h 6.879755 l -7.092093,7.00716 v 1.69871 h 10.404567 v -1.91105 h -7.325664 l 7.113326,-7.00715 v -1.69871 h -9.979891 z"
       style="font-style:normal;font-variant:normal;font-weight:normal;font-stretch:normal;font-size:medium;line-height:18.36208344px;font-family:'Optician Sans';-inkscape-font-specification:'Optician Sans';text-align:center;letter-spacing:0px;word-spacing:0px;text-anchor:middle;fill:#000000;fill-opacity:1;stroke:none;stroke-width:0.26458329px;stroke-linecap:butt;stroke-linejoin:miter;stroke-opacity:1"
       id="path142"
       inkscape:connector-curvature="0" />
    <path
       inkscape:connector-curvature="0"
       id="path42"
       style="font-style:normal;font-variant:normal;font-weight:normal;font-stretch:normal;font-size:medium;line-height:18.36208344px;font-family:'Optician Sans';-inkscape-font-specification:'Optician Sans';text-align:center;letter-spacing:0px;word-spacing:0px;text-anchor:middle;fill:#000000;fill-opacity:1;stroke:none;stroke-width:0.26458329px;stroke-linecap:butt;stroke-linejoin:miter;stroke-opacity:1"
       d="m 84.107479,275.52455 h 6.879755 l -7.092093,7.00716 v 1.69871 h 10.404567 v -1.91105 h -7.325664 l 7.113326,-7.00715 v -1.69871 h -9.979891 z" />
    <path
       sodipodi:nodetypes="ccccccccccccccccccccssss"
       inkscape:connector-curvature="0"
       d="m 70.803006,236.211 2.053262,-0.68208 c 0.249502,0.46308 0.544471,0.9095 0.88212,1.33503 l 0.195188,0.24511 4.162838,7.9e-4 0.196443,-0.2441 c 0.337647,-0.42554 0.632615,-0.87194 0.882116,-1.33502 l 2.053267,0.68207 c 0.08801,0.0295 0.184963,-0.0229 0.183931,-0.0994 v -1.46059 c 3.5e-5,-0.482 -0.25408,-0.94149 -0.699441,-1.26471 l -0.616852,-0.443 c 0.440431,-2.35062 -0.03629,-5.46969 -3.378316,-8.89816 -0.352791,-0.37398 -1.052257,-0.37555 -1.407632,-0.003 -3.337027,3.43049 -3.813744,6.55157 -3.378317,8.89816 l -0.613102,0.444 c -0.446065,0.32116 -0.702367,0.77867 -0.705693,1.25969 v 1.4606 c -0.0083,0.0822 0.0978,0.14043 0.190188,0.10446 z m 3.618549,-6.46517 c 0.0024,-1.13808 1.716342,-1.70647 2.7186,-0.90181 1.002259,0.80464 0.294294,2.18061 -1.123282,2.18259 -0.881703,0.002 -1.596848,-0.57291 -1.595318,-1.28078 z"
       id="path144"
       style="stroke-width:0.26458332" />
    <path
       inkscape:connector-curvature="0"
       d="m 109.96714,238.85611 2.09843,-0.86828 a 12.116475,12.116475 0 0 0 0.90152,1.69947 l 0.19948,0.31202 4.25442,10e-4 0.20076,-0.31073 a 12.116475,12.116475 0 0 0 0.90152,-1.69946 l 2.09843,0.86827 a 0.13563219,0.13563219 0 0 0 0.18798,-0.12659 v -1.85931 a 2.170115,2.170115 0 0 0 -0.71482,-1.60995 l -0.63043,-0.56393 c 0.45012,-2.99229 -0.0371,-6.96281 -3.45263,-11.3272 a 0.9042146,0.9042146 0 0 0 -1.4386,-0.004 c -3.41043,4.36695 -3.89763,8.34003 -3.45263,11.32719 l -0.62659,0.56521 a 2.170115,2.170115 0 0 0 -0.72121,1.60356 v 1.85931 a 0.13563219,0.13563219 0 0 0 0.19437,0.13298 z m 3.69815,-8.23005 a 1.6275862,1.6275862 0 1 1 1.63041,1.63041 1.6275862,1.6275862 0 0 1 -1.63041,-1.63041 z m 0.4936,12.97678 a 2.1357548,2.1357548 0 0 0 -0.82863,0.70587 0.19531035,0.19531035 0 0 1 -0.16625,0.0895 0.19711877,0.19711877 0 0 1 -0.18542,-0.12916 c -0.3133,-0.85804 -0.76853,-2.75826 1.49102,-3.11504 a 0.09222989,0.09222989 0 0 1 0.0972,0.0972 2.0091648,2.0091648 0 0 0 0.62276,1.70457 0.14648276,0.14648276 0 0 0 0.19949,0 2.0073564,2.0073564 0 0 0 0.63426,-1.69307 0.09222989,0.09222989 0 0 1 0.10102,-0.10102 c 0.39769,0.0345 1.60355,0.24041 1.73143,1.47569 a 2.0344828,2.0344828 0 0 1 -0.45268,1.47567 c -0.47953,0.59462 -1.29666,1.76212 -1.23911,2.63039 a 0.19711877,0.19711877 0 0 1 -0.29156,0.18927 c -0.6317,-0.34527 -1.94626,-1.21482 -1.71352,-3.32988 z"
       id="path4"
       style="stroke-width:0.26458332" />
    <path
       sodipodi:nodetypes="sszcs"
       inkscape:connector-curvature="0"
       id="path146"
       d="m 76.021471,226.3459 c -1.596439,0 -2.670046,3.59867 -2.433098,4.81217 0.189021,0.96806 1.776882,1.24555 2.433098,1.24555 0.656215,0 2.244076,-0.27749 2.433094,-1.24555 0.236948,-1.2135 -0.836657,-4.81217 -2.433094,-4.81217 z"
       style="fill:#ffffff;fill-rule:evenodd;stroke:none;stroke-width:0.26458329px;stroke-linecap:butt;stroke-linejoin:miter;stroke-opacity:1" />
    <g
       style="stroke-width:0.88717854"
       transform="matrix(1.2705096,0,0,1,-18.530532,31.861993)"
       id="g3884">
      <path
         inkscape:connector-curvature="0"
         d="m 75.160086,254.19699 c 0,-0.14616 -0.118392,-0.26455 -0.264555,-0.26455 -0.146163,0 -0.264555,0.11839 -0.264555,0.26455 v 1.25518 c 0,0.0731 0.0296,0.13922 0.07747,0.18709 0.04787,0.0479 0.114008,0.0775 0.187089,0.0775 0.146163,0 0.264555,-0.11839 0.264555,-0.26455 z"
         id="path3872"
         style="stroke-width:0.23473267" />
      <path
         inkscape:connector-curvature="0"
         d="m 73.85686,254.8487 c 0,-0.14616 -0.118392,-0.26456 -0.264555,-0.26456 -0.146163,0 -0.264555,0.1184 -0.264555,0.26456 v 1.25517 c 0,0.0731 0.0296,0.13922 0.07747,0.18709 0.04787,0.0479 0.114008,0.0775 0.187089,0.0775 0.146163,0 0.264555,-0.11839 0.264555,-0.26456 z"
         id="path3874"
         style="stroke-width:0.23473267" />
      <path
         inkscape:connector-curvature="0"
         d="m 76.463312,254.8487 c 0,-0.14616 -0.118392,-0.26456 -0.264555,-0.26456 -0.146163,0 -0.264555,0.1184 -0.264555,0.26456 v 1.25517 c 0,0.0731 0.0296,0.13922 0.07747,0.18709 0.04787,0.0479 0.114008,0.0775 0.187089,0.0775 0.146163,0 0.264555,-0.11839 0.264555,-0.26456 z"
         id="path3876"
         style="stroke-width:0.23473267" />
      <path
         inkscape:connector-curvature="0"
         d="m 79.331396,254.15095 c 0.757707,-2.67349 0.140317,-4.01304 -0.510748,-4.6641 -0.131547,-0.13155 -0.266314,-0.23661 -0.3952,-0.32094 -0.134481,1.07555 -0.435863,2.13926 -0.913154,3.15014 0.176732,0.0591 0.344877,0.1661 0.505747,0.32697 0.551914,0.55191 0.800734,1.49297 0.802607,1.50232 0.02993,0.116 0.132825,0.19645 0.252565,0.20019 0.119739,0 0.224508,-0.0786 0.258183,-0.19458 z"
         id="path3878"
         style="stroke-width:0.23473267" />
      <path
         inkscape:connector-curvature="0"
         d="m 72.09668,252.3942 c 0.05972,-0.0334 0.120539,-0.0578 0.181939,-0.0786 -0.477051,-1.01052 -0.778501,-2.07375 -0.91296,-3.14891 -0.252062,0.16526 -0.526849,0.41036 -0.756337,0.77475 -0.613645,0.97661 -0.664162,2.39286 -0.149669,4.2095 0.0131,0.0468 0.03555,0.0842 0.06735,0.116 0.04865,0.0486 0.117878,0.0767 0.190835,0.0786 0.119728,-0.004 0.222624,-0.0842 0.252565,-0.20017 0.09355,-0.3667 0.477074,-1.39382 1.126277,-1.75115 z"
         id="path3880"
         style="stroke-width:0.23473267" />
      <path
         inkscape:connector-curvature="0"
         d="m 76.646678,252.82825 c 2.246926,-3.87836 1.601478,-8.80065 -1.56407,-11.9662 -0.102896,-0.1029 -0.271269,-0.10291 -0.374177,0 -3.165537,3.16554 -3.810996,8.08784 -1.564059,11.96618 0.0094,0.0206 0.02433,0.0393 0.04116,0.0561 0.04865,0.0486 0.114122,0.0767 0.187089,0.0748 h 3.045809 c 0.09542,0.002 0.183343,-0.0487 0.228243,-0.13095 z m -1.751159,-4.90922 c -0.355462,1e-5 -0.690346,-0.13657 -0.942923,-0.38915 -0.250692,-0.25069 -0.389147,-0.58745 -0.389147,-0.94292 1.1e-5,-0.73339 0.598697,-1.33207 1.33207,-1.33207 0.355473,0 0.690369,0.14032 0.941062,0.39101 0.252576,0.25257 0.39102,0.5856 0.391009,0.94106 0.0019,0.73526 -0.596802,1.33394 -1.332071,1.33207 z"
         id="path3882"
         style="stroke-width:0.23473267" />
    </g>
    <path
       sodipodi:nodetypes="sszcs"
       inkscape:connector-curvature="0"
       id="path3886"
       d="m 76.623401,275.4033 c -1.596439,0 -2.670046,3.35169 -2.433098,4.4819 0.189021,0.90163 1.776882,1.16007 2.433098,1.16007 0.656215,0 2.244076,-0.25844 2.433094,-1.16007 0.236948,-1.13021 -0.836657,-4.4819 -2.433094,-4.4819 z"
       style="fill:#ffffff;fill-rule:evenodd;stroke:none;stroke-width:0.26458329px;stroke-linecap:butt;stroke-linejoin:miter;stroke-opacity:1" />
    <g
       id="g369"
       transform="translate(0,-1.9947397)">
      <path
         style="fill:#333333;stroke-width:0.26458335"
         id="path4-9"
         d="m 79.383508,323.38066 c 0,-0.1824 -0.187712,-0.33014 -0.419456,-0.33014 -0.231744,0 -0.419457,0.14774 -0.419457,0.33014 v 1.56639 c 0,0.0912 0.04693,0.17374 0.12283,0.23347 0.0759,0.0598 0.180762,0.0967 0.296633,0.0967 0.231744,0 0.419456,-0.14774 0.419456,-0.33014 z"
         inkscape:connector-curvature="0" />
      <path
         style="fill:#333333;stroke-width:0.26458335"
         id="path8"
         d="m 77.317222,324.39194 c 0,-0.1824 -0.187713,-0.33016 -0.419457,-0.33016 -0.231744,0 -0.419456,0.14776 -0.419456,0.33016 v 1.56637 c 0,0.0912 0.04693,0.17374 0.12283,0.23348 0.0759,0.0598 0.180761,0.0967 0.296633,0.0967 0.231743,0 0.419456,-0.14774 0.419456,-0.33015 z"
         inkscape:connector-curvature="0" />
      <path
         style="fill:#333333;stroke-width:0.26458335"
         id="path12"
         d="m 81.449794,324.39194 c 0,-0.1824 -0.187712,-0.33016 -0.419456,-0.33016 -0.231744,0 -0.419456,0.14776 -0.419456,0.33016 v 1.56637 c 0,0.0912 0.04693,0.17374 0.12283,0.23348 0.0759,0.0598 0.180761,0.0967 0.296632,0.0967 0.231744,0 0.419457,-0.14774 0.419457,-0.33015 z"
         inkscape:connector-curvature="0" />
      <path
         sodipodi:nodetypes="cccccccccc"
         style="fill:#333333;stroke-width:0.26458335"
         id="path20"
         d="m 74.557529,320.77944 c -0.528281,-0.97614 -0.894555,-1.98726 -1.104938,-3.01055 -0.06331,-0.29072 -0.358208,-0.32245 -0.555526,-0.18325 -0.253403,0.17864 -0.504759,0.40225 -0.728869,0.68233 -0.972944,1.21875 -1.05304,2.98614 -0.237303,5.25319 0.02077,0.0584 0.05637,0.10508 0.106785,0.14477 0.07713,0.0606 0.186898,0.0957 0.302572,0.0981 0.189831,-0.005 0.352974,-0.10507 0.400446,-0.2498 0.139515,-0.43044 0.685797,-1.59005 1.606789,-2.09737 0.279801,-0.16154 0.322203,-0.43359 0.210044,-0.63742 z"
         inkscape:connector-curvature="0" />
      <path
         sodipodi:nodetypes="cccccccscscs"
         inkscape:connector-curvature="0"
         id="path24"
         transform="scale(0.26458333)"
         d="m 295.50391,1161.5801 c -16.91492,14.5517 -20.39129,36.0559 -8.56446,53.5039 0.73418,1.2716 1.85284,2.0508 3.45703,2.0508 5.36198,0 10.72396,0 16.08594,0 1.60419,0 2.72285,-0.7792 3.45703,-2.0508 11.82683,-17.448 8.35047,-38.9522 -8.56445,-53.5039 -1.87858,-1.1693 -4.2146,-1.1855 -5.87109,0 z m 2.93554,12.9316 c 6.75467,0 11.29747,13.6738 10.29493,18.2852 -0.79976,3.6786 -7.51842,4.7343 -10.29493,4.7343 -2.77651,0 -9.49516,-1.0557 -10.29492,-4.7343 -1.00255,-4.6113 3.54025,-18.2852 10.29492,-18.2852 z"
         style="fill:#333333;stroke-width:1.00000012" />
      <circle
         r="0.41946468"
         cy="323.34921"
         cx="76.898148"
         id="circle64"
         style="opacity:1;vector-effect:none;fill:#333333;fill-opacity:1;stroke:none;stroke-width:0.86500001;stroke-linecap:round;stroke-linejoin:round;stroke-miterlimit:4;stroke-dasharray:none;stroke-dashoffset:0;stroke-opacity:1;paint-order:normal" />
      <circle
         style="opacity:1;vector-effect:none;fill:#333333;fill-opacity:1;stroke:none;stroke-width:0.86500001;stroke-linecap:round;stroke-linejoin:round;stroke-miterlimit:4;stroke-dasharray:none;stroke-dashoffset:0;stroke-opacity:1;paint-order:normal"
         id="circle60"
         cx="81.024879"
         cy="323.35272"
         r="0.41946468" />
      <path
         inkscape:connector-curvature="0"
         d="m 83.374069,320.77944 c 0.528281,-0.97614 0.894555,-1.98726 1.104938,-3.01055 0.06331,-0.29072 0.358208,-0.32245 0.555526,-0.18325 0.253403,0.17864 0.504759,0.40225 0.728869,0.68233 0.972944,1.21875 1.05304,2.98614 0.237303,5.25319 -0.02077,0.0584 -0.05637,0.10508 -0.106785,0.14477 -0.07713,0.0606 -0.186898,0.0957 -0.302572,0.0981 -0.189831,-0.005 -0.352974,-0.10507 -0.400446,-0.2498 -0.139515,-0.43044 -0.685797,-1.59005 -1.606789,-2.09737 -0.279801,-0.16154 -0.322203,-0.43359 -0.210044,-0.63742 z"
         id="path351"
         style="fill:#333333;stroke-width:0.26458335"
         sodipodi:nodetypes="cccccccccc" />
    </g>
  </g>
</svg>
