<?xml version="1.0" encoding="UTF-8" standalone="no"?>
<!-- Created with Inkscape (http://www.inkscape.org/) -->

<svg
   xmlns:dc="http://purl.org/dc/elements/1.1/"
   xmlns:cc="http://creativecommons.org/ns#"
   xmlns:rdf="http://www.w3.org/1999/02/22-rdf-syntax-ns#"
   xmlns:svg="http://www.w3.org/2000/svg"
   xmlns="http://www.w3.org/2000/svg"
   xmlns:sodipodi="http://sodipodi.sourceforge.net/DTD/sodipodi-0.dtd"
   xmlns:inkscape="http://www.inkscape.org/namespaces/inkscape"
   width="297mm"
   height="210mm"
   viewBox="0 0 297 210"
   version="1.1"
   id="svg377"
   inkscape:version="0.92.2 2405546, 2018-03-11"
   sodipodi:docname="personal-logo.svg.2018_12_17_15_05_47.0.svg"
   inkscape:export-filename="/home/onur/Dropbox/design/d00025-personal-logo/personal-logo.png"
   inkscape:export-xdpi="149.918"
   inkscape:export-ydpi="149.918">
  <defs
     id="defs371" />
  <sodipodi:namedview
     id="base"
     pagecolor="#ffffff"
     bordercolor="#666666"
     borderopacity="1.0"
     inkscape:pageopacity="0.0"
     inkscape:pageshadow="2"
     inkscape:zoom="0.17859354"
     inkscape:cx="3755.6079"
     inkscape:cy="851.97477"
     inkscape:document-units="mm"
     inkscape:current-layer="g451"
     showgrid="false"
     inkscape:window-width="1920"
     inkscape:window-height="1036"
     inkscape:window-x="0"
     inkscape:window-y="20"
     inkscape:window-maximized="0"
     inkscape:snap-global="false"
     inkscape:snap-page="true"
     showguides="true"
     inkscape:guide-bbox="true">
    <sodipodi:guide
       position="384.82956,-91.62608"
       orientation="1,0"
       id="guide1183"
       inkscape:locked="false" />
    <sodipodi:guide
       position="420.68898,-106.25989"
       orientation="1,0"
       id="guide1185"
       inkscape:locked="false" />
    <sodipodi:guide
       position="771.18924,-106.28711"
       orientation="0,1"
       id="guide891"
       inkscape:locked="false" />
    <sodipodi:guide
       position="797.70577,-99.878945"
       orientation="1,0"
       id="guide893"
       inkscape:locked="false" />
  </sodipodi:namedview>
  <metadata
     id="metadata374">
    <rdf:RDF>
      <cc:Work
         rdf:about="">
        <dc:format>image/svg+xml</dc:format>
        <dc:type
           rdf:resource="http://purl.org/dc/dcmitype/StillImage" />
        <dc:title />
      </cc:Work>
    </rdf:RDF>
  </metadata>
  <g
     inkscape:label="Layer 1"
     inkscape:groupmode="layer"
     id="layer1"
     transform="translate(0,-87)">
    <g
       id="g451"
       transform="matrix(2.0724883,0,0,2.0724883,5.9881009,-32.665771)"
       style="stroke-width:0.48251179">
      <rect
         y="57.740143"
         x="-2.8893292"
         height="101.32747"
         width="143.30598"
         id="rect1109"
         style="opacity:1;vector-effect:none;fill:#f9f9f9;fill-opacity:1;stroke:none;stroke-width:0.41737267;stroke-linecap:round;stroke-linejoin:round;stroke-miterlimit:4;stroke-dasharray:none;stroke-dashoffset:0;stroke-opacity:1;paint-order:normal" />
      <rect
         y="57.740143"
         x="151.81618"
         height="101.32747"
         width="143.30598"
         id="rect894"
         style="opacity:1;vector-effect:none;fill:#f9f9f9;fill-opacity:1;stroke:none;stroke-width:0.41737267;stroke-linecap:round;stroke-linejoin:round;stroke-miterlimit:4;stroke-dasharray:none;stroke-dashoffset:0;stroke-opacity:1;paint-order:normal" />
      <rect
         style="opacity:1;vector-effect:none;fill:#f9f9f9;fill-opacity:1;stroke:none;stroke-width:0.41737267;stroke-linecap:round;stroke-linejoin:round;stroke-miterlimit:4;stroke-dasharray:none;stroke-dashoffset:0;stroke-opacity:1;paint-order:normal"
         id="rect826"
         width="143.30598"
         height="101.32747"
         x="389.38394"
         y="57.740143" />
      <path
         id="path1111"
         style="font-style:normal;font-variant:normal;font-weight:normal;font-stretch:normal;font-size:medium;line-height:18.36208344px;font-family:'Gotham Rounded';-inkscape-font-specification:'Gotham Rounded';text-align:center;letter-spacing:0px;word-spacing:0px;text-anchor:middle;fill:#184578;fill-opacity:1;stroke:none;stroke-width:0.12766455px;stroke-linecap:butt;stroke-linejoin:miter;stroke-opacity:1"
         d="m 419.25894,124.63056 c 3.2063,0 5.45709,-1.65624 5.45709,-4.60774 v -0.0425 c 0,-2.59053 -1.69871,-3.67345 -4.71391,-4.4591 -2.56929,-0.65825 -3.20631,-0.97676 -3.20631,-1.95351 v -0.0425 c 0,-0.72195 0.65825,-1.29526 1.91105,-1.29526 1.01922,0 2.03844,0.36097 3.12137,0.99798 0.2548,0.14864 0.50961,0.23358 0.82812,0.23358 0.84935,0 1.52883,-0.65825 1.52883,-1.5076 0,-0.63702 -0.36097,-1.08293 -0.72195,-1.29527 -1.33773,-0.84935 -2.90903,-1.31649 -4.71391,-1.31649 -3.03643,0 -5.20228,1.78364 -5.20228,4.48033 v 0.0425 c 0,2.9515 1.93228,3.77962 4.92624,4.54403 2.48436,0.63702 2.99397,1.06169 2.99397,1.88981 v 0.0425 c 0,0.87059 -0.80688,1.40143 -2.14461,1.40143 -1.4439,0 -2.67546,-0.50961 -3.80085,-1.33773 -0.21234,-0.14863 -0.50962,-0.29727 -0.93429,-0.29727 -0.84935,0 -1.52884,0.65825 -1.52884,1.5076 0,0.50961 0.25481,0.97675 0.61578,1.23156 1.65624,1.18909 3.63099,1.78364 5.5845,1.78364 z"
         inkscape:connector-curvature="0" />
      <path
         id="path1113"
         style="font-style:normal;font-variant:normal;font-weight:normal;font-stretch:normal;font-size:medium;line-height:18.36208344px;font-family:'Gotham Rounded';-inkscape-font-specification:'Gotham Rounded';text-align:center;letter-spacing:0px;word-spacing:0px;text-anchor:middle;fill:#184578;fill-opacity:1;stroke:none;stroke-width:0.12766455px;stroke-linecap:butt;stroke-linejoin:miter;stroke-opacity:1"
         d="m 435.25484,124.67303 c 4.58651,0 7.92022,-3.46111 7.92022,-7.68664 v -0.0425 c 0,-4.22553 -3.29124,-7.64417 -7.87775,-7.64417 -4.5865,0 -7.92021,3.46111 -7.92021,7.68664 v 0.0425 c 0,4.22552 3.29124,7.64417 7.87774,7.64417 z m 0.0425,-3.0152 c -2.63299,0 -4.50156,-2.12338 -4.50156,-4.67144 v -0.0425 c 0,-2.54806 1.8261,-4.62897 4.4591,-4.62897 2.63299,0 4.50156,2.12338 4.50156,4.67144 v 0.0425 c 0,2.54805 -1.8261,4.62897 -4.4591,4.62897 z"
         inkscape:connector-curvature="0" />
      <path
         id="path1115"
         style="font-style:normal;font-variant:normal;font-weight:normal;font-stretch:normal;font-size:medium;line-height:18.36208344px;font-family:'Gotham Rounded';-inkscape-font-specification:'Gotham Rounded';text-align:center;letter-spacing:0px;word-spacing:0px;text-anchor:middle;fill:#184578;fill-opacity:1;stroke:none;stroke-width:0.12766455px;stroke-linecap:butt;stroke-linejoin:miter;stroke-opacity:1"
         d="m 446.2448,122.78322 c 0,0.91305 0.72195,1.635 1.63501,1.635 h 7.68664 c 0.82812,0 1.48636,-0.65825 1.48636,-1.48636 0,-0.82812 -0.65824,-1.48637 -1.48636,-1.48637 h -6.05164 v -10.38333 c 0,-0.91306 -0.72195,-1.63501 -1.635,-1.63501 -0.91306,0 -1.63501,0.72195 -1.63501,1.63501 z"
         inkscape:connector-curvature="0" />
      <path
         id="path1117"
         style="font-style:normal;font-variant:normal;font-weight:normal;font-stretch:normal;font-size:medium;line-height:18.36208344px;font-family:'Gotham Rounded';-inkscape-font-specification:'Gotham Rounded';text-align:center;letter-spacing:0px;word-spacing:0px;text-anchor:middle;fill:#184578;fill-opacity:1;stroke:none;stroke-width:0.12766455px;stroke-linecap:butt;stroke-linejoin:miter;stroke-opacity:1"
         d="m 459.39152,122.95309 c 0,0.89182 0.70071,1.59254 1.59253,1.59254 0.89182,0 1.61377,-0.70072 1.61377,-1.59254 v -7.38937 l 2.8241,4.35293 c 0.33974,0.50962 0.76442,0.82812 1.35896,0.82812 0.59455,0 1.01923,-0.3185 1.35897,-0.82812 l 2.86656,-4.41663 v 7.4106 c 0,0.89182 0.72195,1.63501 1.61377,1.63501 0.91306,0 1.635,-0.72195 1.635,-1.63501 v -11.806 c 0,-0.91305 -0.72194,-1.635 -1.635,-1.635 h -0.36097 c -0.65825,0 -1.1254,0.27604 -1.46514,0.82812 l -3.97072,6.45508 -3.94949,-6.43385 c -0.29727,-0.48838 -0.78565,-0.84935 -1.48636,-0.84935 h -0.36098 c -0.91305,0 -1.635,0.72195 -1.635,1.635 z"
         inkscape:connector-curvature="0" />
      <path
         id="path1119"
         style="font-style:normal;font-variant:normal;font-weight:normal;font-stretch:normal;font-size:medium;line-height:18.36208344px;font-family:'Gotham Rounded';-inkscape-font-specification:'Gotham Rounded';text-align:center;letter-spacing:0px;word-spacing:0px;text-anchor:middle;fill:#184578;fill-opacity:1;stroke:none;stroke-width:0.12766455px;stroke-linecap:butt;stroke-linejoin:miter;stroke-opacity:1"
         d="m 494.80852,124.41822 h 9.74632 c 0.78565,0 1.4439,-0.63701 1.4439,-1.42266 0,-0.78565 -0.65825,-1.4439 -1.4439,-1.4439 h -6.85852 l 7.70787,-8.96067 c 0.38221,-0.46714 0.59455,-0.95552 0.59455,-1.52883 v -0.0637 c 0,-0.78565 -0.65825,-1.44389 -1.4439,-1.44389 h -9.49151 c -0.78565,0 -1.4439,0.65824 -1.4439,1.44389 0,0.78566 0.65825,1.42267 1.4439,1.42267 h 6.60371 l -7.70787,8.96067 c -0.38221,0.44591 -0.59455,0.95552 -0.59455,1.52883 v 0.0637 c 0,0.78565 0.65825,1.4439 1.4439,1.4439 z"
         inkscape:connector-curvature="0" />
      <g
         transform="translate(391.0799,7.9566063)"
         id="g1137">
        <path
           style="fill:#b80c09;fill-opacity:1;stroke-width:0.12766458"
           id="path1121"
           d="m 93.69482,115.08975 c 0,-0.1824 -0.187712,-0.33014 -0.419456,-0.33014 -0.231744,0 -0.419457,0.14774 -0.419457,0.33014 v 1.56639 c 0,0.0912 0.04693,0.17374 0.12283,0.23347 0.0759,0.0598 0.180762,0.0967 0.296633,0.0967 0.231744,0 0.419456,-0.14774 0.419456,-0.33014 z"
           inkscape:connector-curvature="0" />
        <path
           style="fill:#b80c09;fill-opacity:1;stroke-width:0.12766458"
           id="path1123"
           d="m 91.628534,116.10103 c 0,-0.1824 -0.187713,-0.33016 -0.419457,-0.33016 -0.231744,0 -0.419456,0.14776 -0.419456,0.33016 v 1.56637 c 0,0.0912 0.04693,0.17374 0.12283,0.23348 0.0759,0.0598 0.180761,0.0967 0.296633,0.0967 0.231743,0 0.419456,-0.14774 0.419456,-0.33015 z"
           inkscape:connector-curvature="0" />
        <path
           style="fill:#b80c09;fill-opacity:1;stroke-width:0.12766458"
           id="path1125"
           d="m 95.761106,116.10103 c 0,-0.1824 -0.187712,-0.33016 -0.419456,-0.33016 -0.231744,0 -0.419456,0.14776 -0.419456,0.33016 v 1.56637 c 0,0.0912 0.04693,0.17374 0.12283,0.23348 0.0759,0.0598 0.180761,0.0967 0.296632,0.0967 0.231744,0 0.419457,-0.14774 0.419457,-0.33015 z"
           inkscape:connector-curvature="0" />
        <path
           sodipodi:nodetypes="cccccccccc"
           style="fill:#b80c09;fill-opacity:1;stroke:none;stroke-width:0.65862888;stroke-miterlimit:4;stroke-dasharray:none;paint-order:normal"
           id="path1127"
           d="m 88.868841,112.48853 c -0.528281,-0.97614 -0.894555,-1.98726 -1.104938,-3.01055 -0.06331,-0.29072 -0.358208,-0.32245 -0.555526,-0.18325 -0.253403,0.17864 -0.504759,0.40225 -0.728869,0.68233 -0.972944,1.21875 -1.05304,2.98614 -0.237303,5.25319 0.02077,0.0584 0.05637,0.10508 0.106785,0.14477 0.07713,0.0606 0.186898,0.0957 0.302572,0.0981 0.189831,-0.005 0.352974,-0.10507 0.400446,-0.2498 0.139515,-0.43044 0.685797,-1.59005 1.606789,-2.09737 0.279801,-0.16154 0.322203,-0.43359 0.210044,-0.63742 z"
           inkscape:connector-curvature="0" />
        <path
           sodipodi:nodetypes="cccccccscscs"
           inkscape:connector-curvature="0"
           id="path1129"
           d="m 92.496721,99.043821 c -4.475406,3.850139 -5.395196,9.539789 -2.266014,14.156239 0.194252,0.33645 0.490231,0.54261 0.914673,0.54261 1.41869,0 2.837381,0 4.256071,0 0.424442,0 0.720421,-0.20616 0.914673,-0.54261 3.129182,-4.61645 2.209395,-10.3061 -2.266011,-14.156239 -0.497041,-0.309377 -1.115113,-0.313664 -1.553392,0 z m 0.776694,3.421489 c 1.787174,0 2.989123,3.61786 2.723867,4.83796 -0.211603,0.97329 -1.989248,1.25261 -2.723867,1.25261 -0.734618,0 -2.512261,-0.27932 -2.723864,-1.25261 -0.265258,-1.22008 0.936691,-4.83796 2.723864,-4.83796 z"
           style="fill:#b80c09;fill-opacity:1;stroke-width:0.1276646" />
        <circle
           r="0.41946468"
           cy="115.0583"
           cx="91.209457"
           id="circle1131"
           style="opacity:1;vector-effect:none;fill:#b80c09;fill-opacity:1;stroke:none;stroke-width:0.4173727;stroke-linecap:round;stroke-linejoin:round;stroke-miterlimit:4;stroke-dasharray:none;stroke-dashoffset:0;stroke-opacity:1;paint-order:normal" />
        <circle
           style="opacity:1;vector-effect:none;fill:#b80c09;fill-opacity:1;stroke:none;stroke-width:0.4173727;stroke-linecap:round;stroke-linejoin:round;stroke-miterlimit:4;stroke-dasharray:none;stroke-dashoffset:0;stroke-opacity:1;paint-order:normal"
           id="circle1133"
           cx="95.336189"
           cy="115.06181"
           r="0.41946468" />
        <path
           inkscape:connector-curvature="0"
           d="m 97.685381,112.48853 c 0.528281,-0.97614 0.894555,-1.98726 1.104938,-3.01055 0.06331,-0.29072 0.358208,-0.32245 0.555526,-0.18325 0.253403,0.17864 0.504759,0.40225 0.728865,0.68233 0.97295,1.21875 1.05304,2.98614 0.23731,5.25319 -0.0208,0.0584 -0.0564,0.10508 -0.10679,0.14477 -0.0771,0.0606 -0.1869,0.0957 -0.30257,0.0981 -0.189831,-0.005 -0.352974,-0.10507 -0.400446,-0.2498 -0.139515,-0.43044 -0.685797,-1.59005 -1.606789,-2.09737 -0.279801,-0.16154 -0.322203,-0.43359 -0.210044,-0.63742 z"
           id="path1135"
           style="fill:#b80c09;fill-opacity:1;stroke:none;stroke-width:0.65862888;stroke-miterlimit:4;stroke-dasharray:none;paint-order:normal"
           sodipodi:nodetypes="cccccccccc" />
      </g>
      <g
         style="fill:#184578;fill-opacity:1;stroke-width:0.46446729"
         transform="matrix(1.0388499,0,0,1.0388499,377.56805,-109.33635)"
         id="g1147">
        <path
           d="m 40.888662,108.05155 c 4.40908,0 7.613828,-3.32721 7.613828,-7.38928 v -0.0409 c 0,-4.062074 -3.163924,-7.348467 -7.573003,-7.348467 -4.409077,0 -7.613825,3.32722 -7.613825,7.389287 v 0.0409 c 0,4.06206 3.163921,7.34846 7.573,7.34846 z m 0.04082,-2.89855 c -2.531136,0 -4.327428,-2.04124 -4.327428,-4.49073 v -0.0409 c 0,-2.449495 1.755465,-4.449906 4.286603,-4.449906 2.531138,0 4.327429,2.041237 4.327429,4.490726 v 0.0409 c 0,2.44949 -1.755466,4.44991 -4.286604,4.44991 z"
           style="font-style:normal;font-variant:normal;font-weight:normal;font-stretch:normal;font-size:medium;line-height:18.36208344px;font-family:'Gotham Rounded';-inkscape-font-specification:'Gotham Rounded';text-align:center;letter-spacing:0px;word-spacing:0px;text-anchor:middle;fill:#184578;fill-opacity:1;stroke:none;stroke-width:0.12289026px;stroke-linecap:butt;stroke-linejoin:miter;stroke-opacity:1"
           id="path1139"
           inkscape:connector-curvature="0" />
        <path
           d="m 50.908221,106.37773 c 0,0.85733 0.694022,1.55134 1.551343,1.55134 0.857322,0 1.551343,-0.69401 1.551343,-1.55134 v -7.654639 l 6.28702,8.246619 c 0.428659,0.55113 0.877731,0.91855 1.63299,0.91855 h 0.102067 c 0.877733,0 1.571756,-0.69402 1.571756,-1.57176 V 94.946793 c 0,-0.857321 -0.694023,-1.551342 -1.551345,-1.551342 -0.857319,0 -1.551343,0.694021 -1.551343,1.551342 v 7.368877 l -6.062486,-7.960836 c -0.428659,-0.551132 -0.877731,-0.918557 -1.63299,-0.918557 h -0.326599 c -0.877734,0 -1.571756,0.694021 -1.571756,1.571752 z"
           style="font-style:normal;font-variant:normal;font-weight:normal;font-stretch:normal;font-size:medium;line-height:18.36208344px;font-family:'Gotham Rounded';-inkscape-font-specification:'Gotham Rounded';text-align:center;letter-spacing:0px;word-spacing:0px;text-anchor:middle;fill:#184578;fill-opacity:1;stroke:none;stroke-width:0.12289026px;stroke-linecap:butt;stroke-linejoin:miter;stroke-opacity:1"
           id="path1141"
           inkscape:connector-curvature="0" />
        <path
           d="m 72.975304,108.03113 c 3.837531,0 6.266607,-2.12287 6.266607,-6.4503 v -6.613629 c 0,-0.877729 -0.694021,-1.57175 -1.571754,-1.57175 -0.877733,0 -1.571754,0.694021 -1.571754,1.57175 v 6.736099 c 0,2.26578 -1.163509,3.42928 -3.082275,3.42928 -1.918765,0 -3.082272,-1.20433 -3.082272,-3.53135 v -6.634029 c 0,-0.877729 -0.694021,-1.57175 -1.571754,-1.57175 -0.877735,0 -1.571754,0.694021 -1.571754,1.57175 v 6.715689 c 0,4.20495 2.347424,6.34824 6.184956,6.34824 z"
           style="font-style:normal;font-variant:normal;font-weight:normal;font-stretch:normal;font-size:medium;line-height:18.36208344px;font-family:'Gotham Rounded';-inkscape-font-specification:'Gotham Rounded';text-align:center;letter-spacing:0px;word-spacing:0px;text-anchor:middle;fill:#184578;fill-opacity:1;stroke:none;stroke-width:0.12289026px;stroke-linecap:butt;stroke-linejoin:miter;stroke-opacity:1"
           id="path1143"
           inkscape:connector-curvature="0" />
        <path
           d="m 82.443786,106.35733 c 0,0.87773 0.694023,1.57174 1.571754,1.57174 0.877733,0 1.571756,-0.69401 1.571756,-1.57174 v -3.1231 h 2.510727 l 3.061859,3.87834 c 0.367423,0.46949 0.836908,0.8165 1.551343,0.8165 0.755259,0 1.490107,-0.57154 1.490107,-1.44927 0,-0.4899 -0.204125,-0.8165 -0.510312,-1.20433 l -2.184126,-2.65362 c 1.735054,-0.71443 2.857734,-2.10247 2.857734,-4.347837 v -0.04086 c 0,-1.347216 -0.428659,-2.469901 -1.224742,-3.265984 -0.938973,-0.938967 -2.347429,-1.449281 -4.16413,-1.449281 H 84.01554 c -0.877731,0 -1.571754,0.694022 -1.571754,1.571762 z m 3.14351,-5.89919 v -4.102895 h 3.123097 c 1.530934,0 2.469902,0.694022 2.469902,2.04125 v 0.04086 c 0,1.204335 -0.877734,2.020835 -2.408664,2.020835 z"
           style="font-style:normal;font-variant:normal;font-weight:normal;font-stretch:normal;font-size:medium;line-height:18.36208344px;font-family:'Gotham Rounded';-inkscape-font-specification:'Gotham Rounded';text-align:center;letter-spacing:0px;word-spacing:0px;text-anchor:middle;fill:#184578;fill-opacity:1;stroke:none;stroke-width:0.12289026px;stroke-linecap:butt;stroke-linejoin:miter;stroke-opacity:1"
           id="path1145"
           inkscape:connector-curvature="0" />
      </g>
      <g
         id="g1082">
        <path
           inkscape:connector-curvature="0"
           d="m 181.69118,124.63056 c 3.2063,0 5.45709,-1.65624 5.45709,-4.60774 v -0.0425 c 0,-2.59053 -1.69871,-3.67345 -4.71391,-4.4591 -2.56929,-0.65825 -3.20631,-0.97676 -3.20631,-1.95351 v -0.0425 c 0,-0.72195 0.65825,-1.29526 1.91105,-1.29526 1.01922,0 2.03844,0.36097 3.12137,0.99798 0.2548,0.14864 0.50961,0.23358 0.82812,0.23358 0.84935,0 1.52883,-0.65825 1.52883,-1.5076 0,-0.63702 -0.36097,-1.08293 -0.72195,-1.29527 -1.33773,-0.84935 -2.90903,-1.31649 -4.7139,-1.31649 -3.03644,0 -5.20229,1.78364 -5.20229,4.48033 v 0.0425 c 0,2.9515 1.93228,3.77962 4.92625,4.54403 2.48435,0.63702 2.99396,1.06169 2.99396,1.88981 v 0.0425 c 0,0.87059 -0.80688,1.40143 -2.14461,1.40143 -1.4439,0 -2.67546,-0.50961 -3.80085,-1.33773 -0.21234,-0.14863 -0.50962,-0.29727 -0.93429,-0.29727 -0.84935,0 -1.52884,0.65825 -1.52884,1.5076 0,0.50961 0.25481,0.97675 0.61578,1.23156 1.65624,1.18909 3.63099,1.78364 5.5845,1.78364 z"
           style="font-style:normal;font-variant:normal;font-weight:normal;font-stretch:normal;font-size:medium;line-height:18.36208344px;font-family:'Gotham Rounded';-inkscape-font-specification:'Gotham Rounded';text-align:center;letter-spacing:0px;word-spacing:0px;text-anchor:middle;fill:#184578;fill-opacity:1;stroke:none;stroke-width:0.12766455px;stroke-linecap:butt;stroke-linejoin:miter;stroke-opacity:1"
           id="path1038" />
        <path
           inkscape:connector-curvature="0"
           d="m 197.68709,124.67303 c 4.5865,0 7.92021,-3.46111 7.92021,-7.68664 v -0.0425 c 0,-4.22553 -3.29124,-7.64417 -7.87775,-7.64417 -4.5865,0 -7.92021,3.46111 -7.92021,7.68664 v 0.0425 c 0,4.22552 3.29124,7.64417 7.87775,7.64417 z m 0.0425,-3.0152 c -2.633,0 -4.50157,-2.12338 -4.50157,-4.67144 v -0.0425 c 0,-2.54806 1.82611,-4.62897 4.4591,-4.62897 2.63299,0 4.50157,2.12338 4.50157,4.67144 v 0.0425 c 0,2.54805 -1.82611,4.62897 -4.4591,4.62897 z"
           style="font-style:normal;font-variant:normal;font-weight:normal;font-stretch:normal;font-size:medium;line-height:18.36208344px;font-family:'Gotham Rounded';-inkscape-font-specification:'Gotham Rounded';text-align:center;letter-spacing:0px;word-spacing:0px;text-anchor:middle;fill:#184578;fill-opacity:1;stroke:none;stroke-width:0.12766455px;stroke-linecap:butt;stroke-linejoin:miter;stroke-opacity:1"
           id="path1040" />
        <path
           inkscape:connector-curvature="0"
           d="m 208.67705,122.78322 c 0,0.91305 0.72194,1.635 1.635,1.635 h 7.68664 c 0.82812,0 1.48636,-0.65825 1.48636,-1.48636 0,-0.82812 -0.65824,-1.48637 -1.48636,-1.48637 h -6.05164 v -10.38333 c 0,-0.91306 -0.72195,-1.63501 -1.635,-1.63501 -0.91306,0 -1.635,0.72195 -1.635,1.63501 z"
           style="font-style:normal;font-variant:normal;font-weight:normal;font-stretch:normal;font-size:medium;line-height:18.36208344px;font-family:'Gotham Rounded';-inkscape-font-specification:'Gotham Rounded';text-align:center;letter-spacing:0px;word-spacing:0px;text-anchor:middle;fill:#184578;fill-opacity:1;stroke:none;stroke-width:0.12766455px;stroke-linecap:butt;stroke-linejoin:miter;stroke-opacity:1"
           id="path1042" />
        <path
           inkscape:connector-curvature="0"
           d="m 221.82376,122.95309 c 0,0.89182 0.70071,1.59254 1.59253,1.59254 0.89182,0 1.61377,-0.70072 1.61377,-1.59254 v -7.38937 l 2.8241,4.35293 c 0.33974,0.50962 0.76442,0.82812 1.35896,0.82812 0.59455,0 1.01923,-0.3185 1.35897,-0.82812 l 2.86656,-4.41663 v 7.4106 c 0,0.89182 0.72195,1.63501 1.61377,1.63501 0.91306,0 1.63501,-0.72195 1.63501,-1.63501 v -11.806 c 0,-0.91305 -0.72195,-1.635 -1.63501,-1.635 h -0.36097 c -0.65825,0 -1.12539,0.27604 -1.46514,0.82812 l -3.97072,6.45508 -3.94949,-6.43385 c -0.29727,-0.48838 -0.78565,-0.84935 -1.48636,-0.84935 h -0.36098 c -0.91305,0 -1.635,0.72195 -1.635,1.635 z"
           style="font-style:normal;font-variant:normal;font-weight:normal;font-stretch:normal;font-size:medium;line-height:18.36208344px;font-family:'Gotham Rounded';-inkscape-font-specification:'Gotham Rounded';text-align:center;letter-spacing:0px;word-spacing:0px;text-anchor:middle;fill:#184578;fill-opacity:1;stroke:none;stroke-width:0.12766455px;stroke-linecap:butt;stroke-linejoin:miter;stroke-opacity:1"
           id="path1044" />
        <path
           inkscape:connector-curvature="0"
           d="m 257.24076,124.41822 h 9.74632 c 0.78565,0 1.4439,-0.63701 1.4439,-1.42266 0,-0.78565 -0.65825,-1.4439 -1.4439,-1.4439 h -6.85852 l 7.70787,-8.96067 c 0.38221,-0.46714 0.59455,-0.95552 0.59455,-1.52883 v -0.0637 c 0,-0.78565 -0.65825,-1.44389 -1.4439,-1.44389 h -9.49151 c -0.78565,0 -1.4439,0.65824 -1.4439,1.44389 0,0.78566 0.65825,1.42267 1.4439,1.42267 h 6.60371 l -7.70787,8.96067 c -0.38221,0.44591 -0.59455,0.95552 -0.59455,1.52883 v 0.0637 c 0,0.78565 0.65825,1.4439 1.4439,1.4439 z"
           style="font-style:normal;font-variant:normal;font-weight:normal;font-stretch:normal;font-size:medium;line-height:18.36208344px;font-family:'Gotham Rounded';-inkscape-font-specification:'Gotham Rounded';text-align:center;letter-spacing:0px;word-spacing:0px;text-anchor:middle;fill:#184578;fill-opacity:1;stroke:none;stroke-width:0.12766455px;stroke-linecap:butt;stroke-linejoin:miter;stroke-opacity:1"
           id="path1046" />
        <g
           id="g1064"
           transform="translate(153.51214,7.9566063)">
          <path
             inkscape:connector-curvature="0"
             d="m 93.69482,115.08975 c 0,-0.1824 -0.187712,-0.33014 -0.419456,-0.33014 -0.231744,0 -0.419457,0.14774 -0.419457,0.33014 v 1.56639 c 0,0.0912 0.04693,0.17374 0.12283,0.23347 0.0759,0.0598 0.180762,0.0967 0.296633,0.0967 0.231744,0 0.419456,-0.14774 0.419456,-0.33014 z"
             id="path1048"
             style="fill:#b80c09;fill-opacity:1;stroke-width:0.12766458" />
          <path
             inkscape:connector-curvature="0"
             d="m 91.628534,116.10103 c 0,-0.1824 -0.187713,-0.33016 -0.419457,-0.33016 -0.231744,0 -0.419456,0.14776 -0.419456,0.33016 v 1.56637 c 0,0.0912 0.04693,0.17374 0.12283,0.23348 0.0759,0.0598 0.180761,0.0967 0.296633,0.0967 0.231743,0 0.419456,-0.14774 0.419456,-0.33015 z"
             id="path1050"
             style="fill:#b80c09;fill-opacity:1;stroke-width:0.12766458" />
          <path
             inkscape:connector-curvature="0"
             d="m 95.761106,116.10103 c 0,-0.1824 -0.187712,-0.33016 -0.419456,-0.33016 -0.231744,0 -0.419456,0.14776 -0.419456,0.33016 v 1.56637 c 0,0.0912 0.04693,0.17374 0.12283,0.23348 0.0759,0.0598 0.180761,0.0967 0.296632,0.0967 0.231744,0 0.419457,-0.14774 0.419457,-0.33015 z"
             id="path1052"
             style="fill:#b80c09;fill-opacity:1;stroke-width:0.12766458" />
          <path
             inkscape:connector-curvature="0"
             d="m 88.868841,112.48853 c -0.528281,-0.97614 -0.894555,-1.98726 -1.104938,-3.01055 -0.06331,-0.29072 -0.358208,-0.32245 -0.555526,-0.18325 -0.253403,0.17864 -0.504759,0.40225 -0.728869,0.68233 -0.972944,1.21875 -1.05304,2.98614 -0.237303,5.25319 0.02077,0.0584 0.05637,0.10508 0.106785,0.14477 0.07713,0.0606 0.186898,0.0957 0.302572,0.0981 0.189831,-0.005 0.352974,-0.10507 0.400446,-0.2498 0.139515,-0.43044 0.685797,-1.59005 1.606789,-2.09737 0.279801,-0.16154 0.322203,-0.43359 0.210044,-0.63742 z"
             id="path1054"
             style="fill:#b80c09;fill-opacity:1;stroke:none;stroke-width:0.65862888;stroke-miterlimit:4;stroke-dasharray:none;paint-order:normal"
             sodipodi:nodetypes="cccccccccc" />
          <path
             style="fill:#b80c09;fill-opacity:1;stroke-width:0.1276646"
             d="m 92.496721,99.043821 c -4.475406,3.850139 -5.395196,9.539789 -2.266014,14.156239 0.194252,0.33645 0.490231,0.54261 0.914673,0.54261 1.41869,0 2.837381,0 4.256071,0 0.424442,0 0.720421,-0.20616 0.914673,-0.54261 3.129182,-4.61645 2.209395,-10.3061 -2.266011,-14.156239 -0.497041,-0.309377 -1.115113,-0.313664 -1.553392,0 z m 0.776694,3.421489 c 1.787174,0 2.989123,3.61786 2.723867,4.83796 -0.211603,0.97329 -1.989248,1.25261 -2.723867,1.25261 -0.734618,0 -2.512261,-0.27932 -2.723864,-1.25261 -0.265258,-1.22008 0.936691,-4.83796 2.723864,-4.83796 z"
             id="path1056"
             inkscape:connector-curvature="0"
             sodipodi:nodetypes="cccccccscscs" />
          <circle
             style="opacity:1;vector-effect:none;fill:#b80c09;fill-opacity:1;stroke:none;stroke-width:0.4173727;stroke-linecap:round;stroke-linejoin:round;stroke-miterlimit:4;stroke-dasharray:none;stroke-dashoffset:0;stroke-opacity:1;paint-order:normal"
             id="circle1058"
             cx="91.209457"
             cy="115.0583"
             r="0.41946468" />
          <circle
             r="0.41946468"
             cy="115.06181"
             cx="95.336189"
             id="circle1060"
             style="opacity:1;vector-effect:none;fill:#b80c09;fill-opacity:1;stroke:none;stroke-width:0.4173727;stroke-linecap:round;stroke-linejoin:round;stroke-miterlimit:4;stroke-dasharray:none;stroke-dashoffset:0;stroke-opacity:1;paint-order:normal" />
          <path
             sodipodi:nodetypes="cccccccccc"
             style="fill:#b80c09;fill-opacity:1;stroke:none;stroke-width:0.65862888;stroke-miterlimit:4;stroke-dasharray:none;paint-order:normal"
             id="path1062"
             d="m 97.685381,112.48853 c 0.528281,-0.97614 0.894555,-1.98726 1.104938,-3.01055 0.06331,-0.29072 0.358208,-0.32245 0.555526,-0.18325 0.253403,0.17864 0.504759,0.40225 0.728865,0.68233 0.97295,1.21875 1.05304,2.98614 0.23731,5.25319 -0.0208,0.0584 -0.0564,0.10508 -0.10679,0.14477 -0.0771,0.0606 -0.1869,0.0957 -0.30257,0.0981 -0.189831,-0.005 -0.352974,-0.10507 -0.400446,-0.2498 -0.139515,-0.43044 -0.685797,-1.59005 -1.606789,-2.09737 -0.279801,-0.16154 -0.322203,-0.43359 -0.210044,-0.63742 z"
             inkscape:connector-curvature="0" />
        </g>
        <g
           id="g1074"
           transform="matrix(1.0388499,0,0,1.0388499,140.00029,-6.0429742)"
           style="fill:#184578;fill-opacity:1;stroke-width:0.46446729">
          <path
             inkscape:connector-curvature="0"
             id="path1066"
             style="font-style:normal;font-variant:normal;font-weight:normal;font-stretch:normal;font-size:medium;line-height:18.36208344px;font-family:'Gotham Rounded';-inkscape-font-specification:'Gotham Rounded';text-align:center;letter-spacing:0px;word-spacing:0px;text-anchor:middle;fill:#184578;fill-opacity:1;stroke:none;stroke-width:0.12289026px;stroke-linecap:butt;stroke-linejoin:miter;stroke-opacity:1"
             d="m 40.888662,108.05155 c 4.40908,0 7.613828,-3.32721 7.613828,-7.38928 v -0.0409 c 0,-4.062074 -3.163924,-7.348467 -7.573003,-7.348467 -4.409077,0 -7.613825,3.32722 -7.613825,7.389287 v 0.0409 c 0,4.06206 3.163921,7.34846 7.573,7.34846 z m 0.04082,-2.89855 c -2.531136,0 -4.327428,-2.04124 -4.327428,-4.49073 v -0.0409 c 0,-2.449495 1.755465,-4.449906 4.286603,-4.449906 2.531138,0 4.327429,2.041237 4.327429,4.490726 v 0.0409 c 0,2.44949 -1.755466,4.44991 -4.286604,4.44991 z" />
          <path
             inkscape:connector-curvature="0"
             id="path1068"
             style="font-style:normal;font-variant:normal;font-weight:normal;font-stretch:normal;font-size:medium;line-height:18.36208344px;font-family:'Gotham Rounded';-inkscape-font-specification:'Gotham Rounded';text-align:center;letter-spacing:0px;word-spacing:0px;text-anchor:middle;fill:#184578;fill-opacity:1;stroke:none;stroke-width:0.12289026px;stroke-linecap:butt;stroke-linejoin:miter;stroke-opacity:1"
             d="m 50.908221,106.37773 c 0,0.85733 0.694022,1.55134 1.551343,1.55134 0.857322,0 1.551343,-0.69401 1.551343,-1.55134 v -7.654639 l 6.28702,8.246619 c 0.428659,0.55113 0.877731,0.91855 1.63299,0.91855 h 0.102067 c 0.877733,0 1.571756,-0.69402 1.571756,-1.57176 V 94.946793 c 0,-0.857321 -0.694023,-1.551342 -1.551345,-1.551342 -0.857319,0 -1.551343,0.694021 -1.551343,1.551342 v 7.368877 l -6.062486,-7.960836 c -0.428659,-0.551132 -0.877731,-0.918557 -1.63299,-0.918557 h -0.326599 c -0.877734,0 -1.571756,0.694021 -1.571756,1.571752 z" />
          <path
             inkscape:connector-curvature="0"
             id="path1070"
             style="font-style:normal;font-variant:normal;font-weight:normal;font-stretch:normal;font-size:medium;line-height:18.36208344px;font-family:'Gotham Rounded';-inkscape-font-specification:'Gotham Rounded';text-align:center;letter-spacing:0px;word-spacing:0px;text-anchor:middle;fill:#184578;fill-opacity:1;stroke:none;stroke-width:0.12289026px;stroke-linecap:butt;stroke-linejoin:miter;stroke-opacity:1"
             d="m 72.975304,108.03113 c 3.837531,0 6.266607,-2.12287 6.266607,-6.4503 v -6.613629 c 0,-0.877729 -0.694021,-1.57175 -1.571754,-1.57175 -0.877733,0 -1.571754,0.694021 -1.571754,1.57175 v 6.736099 c 0,2.26578 -1.163509,3.42928 -3.082275,3.42928 -1.918765,0 -3.082272,-1.20433 -3.082272,-3.53135 v -6.634029 c 0,-0.877729 -0.694021,-1.57175 -1.571754,-1.57175 -0.877735,0 -1.571754,0.694021 -1.571754,1.57175 v 6.715689 c 0,4.20495 2.347424,6.34824 6.184956,6.34824 z" />
          <path
             inkscape:connector-curvature="0"
             id="path1072"
             style="font-style:normal;font-variant:normal;font-weight:normal;font-stretch:normal;font-size:medium;line-height:18.36208344px;font-family:'Gotham Rounded';-inkscape-font-specification:'Gotham Rounded';text-align:center;letter-spacing:0px;word-spacing:0px;text-anchor:middle;fill:#184578;fill-opacity:1;stroke:none;stroke-width:0.12289026px;stroke-linecap:butt;stroke-linejoin:miter;stroke-opacity:1"
             d="m 82.443786,106.35733 c 0,0.87773 0.694023,1.57174 1.571754,1.57174 0.877733,0 1.571756,-0.69401 1.571756,-1.57174 v -3.1231 h 2.510727 l 3.061859,3.87834 c 0.367423,0.46949 0.836908,0.8165 1.551343,0.8165 0.755259,0 1.490107,-0.57154 1.490107,-1.44927 0,-0.4899 -0.204125,-0.8165 -0.510312,-1.20433 l -2.184126,-2.65362 c 1.735054,-0.71443 2.857734,-2.10247 2.857734,-4.347837 v -0.04086 c 0,-1.347216 -0.428659,-2.469901 -1.224742,-3.265984 -0.938973,-0.938967 -2.347429,-1.449281 -4.16413,-1.449281 H 84.01554 c -0.877731,0 -1.571754,0.694022 -1.571754,1.571762 z m 3.14351,-5.89919 v -4.102895 h 3.123097 c 1.530934,0 2.469902,0.694022 2.469902,2.04125 v 0.04086 c 0,1.204335 -0.877734,2.020835 -2.408664,2.020835 z" />
        </g>
        <g
           id="g1080"
           transform="translate(182.57922,28.786614)">
          <path
             id="path1076"
             transform="matrix(0.12766457,0,0,0.12766457,-2.8893292,57.740143)"
             d="m 730.33594,260.55859 c -10.16332,0 -18.17383,8.26013 -18.17383,18.12305 v 0.0996 c 0,9.86293 7.90894,18.02344 18.07227,18.02344 10.16332,0 18.17382,-8.26013 18.17382,-18.12305 v -0.0996 c 0,-9.86293 -7.90894,-18.02344 -18.07226,-18.02344 z m -0.006,3.67969 c 8.16319,0 14.30859,6.41459 14.30859,14.35352 v 0.0898 c 0,7.93893 -6.19039,14.44335 -14.39844,14.44336 -8.16318,0 -14.30859,-6.41459 -14.30859,-14.35352 v -0.0898 c 0,-7.93893 6.19038,-14.44336 14.39844,-14.44336 z"
             style="font-style:normal;font-variant:normal;font-weight:normal;font-stretch:normal;font-size:medium;line-height:9.98688412px;font-family:'Gotham Rounded';-inkscape-font-specification:'Gotham Rounded';text-align:center;letter-spacing:0px;word-spacing:0px;text-anchor:middle;fill:#184578;fill-opacity:1;stroke:none;stroke-width:0.99999982px;stroke-linecap:butt;stroke-linejoin:miter;stroke-opacity:1"
             inkscape:connector-curvature="0" />
          <path
             style="font-style:normal;font-variant:normal;font-weight:normal;font-stretch:normal;font-size:medium;line-height:9.98688412px;font-family:'Gotham Rounded';-inkscape-font-specification:'Gotham Rounded';text-align:center;letter-spacing:0px;word-spacing:0px;text-anchor:middle;fill:#184578;fill-opacity:1;stroke:none;stroke-width:0.12766455px;stroke-linecap:butt;stroke-linejoin:miter;stroke-opacity:1"
             d="m 90.367759,94.557895 c 0.415454,0 0.671118,-0.127832 0.907608,-0.338756 0.04474,-0.03835 0.08309,-0.102265 0.08309,-0.185356 0,-0.140614 -0.121441,-0.262056 -0.262056,-0.262056 -0.0767,0 -0.127832,0.03196 -0.166182,0.06392 -0.15979,0.134224 -0.31958,0.210923 -0.543286,0.210923 -0.415455,0 -0.703077,-0.345147 -0.703077,-0.754209 v -0.01278 c 0,-0.415454 0.294014,-0.754209 0.703077,-0.754209 0.191748,0 0.370713,0.0767 0.504937,0.178965 0.05752,0.04474 0.12144,0.07031 0.178965,0.07031 0.147006,0 0.268447,-0.12144 0.268447,-0.274839 0,-0.102265 -0.05113,-0.178965 -0.121441,-0.230097 -0.204531,-0.153399 -0.44102,-0.255665 -0.830908,-0.255665 -0.75421,0 -1.278321,0.575245 -1.278321,1.27193 v 0.01278 c 0,0.703077 0.536894,1.259147 1.259146,1.259147 z"
             id="path1078"
             inkscape:connector-curvature="0" />
        </g>
      </g>
      <g
         id="g1010"
         transform="translate(478.1683)">
        <path
           id="path896"
           style="font-style:normal;font-variant:normal;font-weight:normal;font-stretch:normal;font-size:medium;line-height:18.36208344px;font-family:'Gotham Rounded';-inkscape-font-specification:'Gotham Rounded';text-align:center;letter-spacing:0px;word-spacing:0px;text-anchor:middle;fill:#184578;fill-opacity:1;stroke:none;stroke-width:0.12766455px;stroke-linecap:butt;stroke-linejoin:miter;stroke-opacity:1"
           d="m 181.69118,124.63056 c 3.2063,0 5.45709,-1.65624 5.45709,-4.60774 v -0.0425 c 0,-2.59053 -1.69871,-3.67345 -4.71391,-4.4591 -2.56929,-0.65825 -3.20631,-0.97676 -3.20631,-1.95351 v -0.0425 c 0,-0.72195 0.65825,-1.29526 1.91105,-1.29526 1.01922,0 2.03844,0.36097 3.12137,0.99798 0.2548,0.14864 0.50961,0.23358 0.82812,0.23358 0.84935,0 1.52883,-0.65825 1.52883,-1.5076 0,-0.63702 -0.36097,-1.08293 -0.72195,-1.29527 -1.33773,-0.84935 -2.90903,-1.31649 -4.7139,-1.31649 -3.03644,0 -5.20229,1.78364 -5.20229,4.48033 v 0.0425 c 0,2.9515 1.93228,3.77962 4.92625,4.54403 2.48435,0.63702 2.99396,1.06169 2.99396,1.88981 v 0.0425 c 0,0.87059 -0.80688,1.40143 -2.14461,1.40143 -1.4439,0 -2.67546,-0.50961 -3.80085,-1.33773 -0.21234,-0.14863 -0.50962,-0.29727 -0.93429,-0.29727 -0.84935,0 -1.52884,0.65825 -1.52884,1.5076 0,0.50961 0.25481,0.97675 0.61578,1.23156 1.65624,1.18909 3.63099,1.78364 5.5845,1.78364 z"
           inkscape:connector-curvature="0" />
        <path
           id="path898"
           style="font-style:normal;font-variant:normal;font-weight:normal;font-stretch:normal;font-size:medium;line-height:18.36208344px;font-family:'Gotham Rounded';-inkscape-font-specification:'Gotham Rounded';text-align:center;letter-spacing:0px;word-spacing:0px;text-anchor:middle;fill:#184578;fill-opacity:1;stroke:none;stroke-width:0.12766455px;stroke-linecap:butt;stroke-linejoin:miter;stroke-opacity:1"
           d="m 197.68709,124.67303 c 4.5865,0 7.92021,-3.46111 7.92021,-7.68664 v -0.0425 c 0,-4.22553 -3.29124,-7.64417 -7.87775,-7.64417 -4.5865,0 -7.92021,3.46111 -7.92021,7.68664 v 0.0425 c 0,4.22552 3.29124,7.64417 7.87775,7.64417 z m 0.0425,-3.0152 c -2.633,0 -4.50157,-2.12338 -4.50157,-4.67144 v -0.0425 c 0,-2.54806 1.82611,-4.62897 4.4591,-4.62897 2.63299,0 4.50157,2.12338 4.50157,4.67144 v 0.0425 c 0,2.54805 -1.82611,4.62897 -4.4591,4.62897 z"
           inkscape:connector-curvature="0" />
        <path
           id="path900"
           style="font-style:normal;font-variant:normal;font-weight:normal;font-stretch:normal;font-size:medium;line-height:18.36208344px;font-family:'Gotham Rounded';-inkscape-font-specification:'Gotham Rounded';text-align:center;letter-spacing:0px;word-spacing:0px;text-anchor:middle;fill:#184578;fill-opacity:1;stroke:none;stroke-width:0.12766455px;stroke-linecap:butt;stroke-linejoin:miter;stroke-opacity:1"
           d="m 208.67705,122.78322 c 0,0.91305 0.72194,1.635 1.635,1.635 h 7.68664 c 0.82812,0 1.48636,-0.65825 1.48636,-1.48636 0,-0.82812 -0.65824,-1.48637 -1.48636,-1.48637 h -6.05164 v -10.38333 c 0,-0.91306 -0.72195,-1.63501 -1.635,-1.63501 -0.91306,0 -1.635,0.72195 -1.635,1.63501 z"
           inkscape:connector-curvature="0" />
        <path
           id="path902"
           style="font-style:normal;font-variant:normal;font-weight:normal;font-stretch:normal;font-size:medium;line-height:18.36208344px;font-family:'Gotham Rounded';-inkscape-font-specification:'Gotham Rounded';text-align:center;letter-spacing:0px;word-spacing:0px;text-anchor:middle;fill:#184578;fill-opacity:1;stroke:none;stroke-width:0.12766455px;stroke-linecap:butt;stroke-linejoin:miter;stroke-opacity:1"
           d="m 221.82376,122.95309 c 0,0.89182 0.70071,1.59254 1.59253,1.59254 0.89182,0 1.61377,-0.70072 1.61377,-1.59254 v -7.38937 l 2.8241,4.35293 c 0.33974,0.50962 0.76442,0.82812 1.35896,0.82812 0.59455,0 1.01923,-0.3185 1.35897,-0.82812 l 2.86656,-4.41663 v 7.4106 c 0,0.89182 0.72195,1.63501 1.61377,1.63501 0.91306,0 1.63501,-0.72195 1.63501,-1.63501 v -11.806 c 0,-0.91305 -0.72195,-1.635 -1.63501,-1.635 h -0.36097 c -0.65825,0 -1.12539,0.27604 -1.46514,0.82812 l -3.97072,6.45508 -3.94949,-6.43385 c -0.29727,-0.48838 -0.78565,-0.84935 -1.48636,-0.84935 h -0.36098 c -0.91305,0 -1.635,0.72195 -1.635,1.635 z"
           inkscape:connector-curvature="0" />
        <path
           id="path904"
           style="font-style:normal;font-variant:normal;font-weight:normal;font-stretch:normal;font-size:medium;line-height:18.36208344px;font-family:'Gotham Rounded';-inkscape-font-specification:'Gotham Rounded';text-align:center;letter-spacing:0px;word-spacing:0px;text-anchor:middle;fill:#184578;fill-opacity:1;stroke:none;stroke-width:0.12766455px;stroke-linecap:butt;stroke-linejoin:miter;stroke-opacity:1"
           d="m 257.24076,124.41822 h 9.74632 c 0.78565,0 1.4439,-0.63701 1.4439,-1.42266 0,-0.78565 -0.65825,-1.4439 -1.4439,-1.4439 h -6.85852 l 7.70787,-8.96067 c 0.38221,-0.46714 0.59455,-0.95552 0.59455,-1.52883 v -0.0637 c 0,-0.78565 -0.65825,-1.44389 -1.4439,-1.44389 h -9.49151 c -0.78565,0 -1.4439,0.65824 -1.4439,1.44389 0,0.78566 0.65825,1.42267 1.4439,1.42267 h 6.60371 l -7.70787,8.96067 c -0.38221,0.44591 -0.59455,0.95552 -0.59455,1.52883 v 0.0637 c 0,0.78565 0.65825,1.4439 1.4439,1.4439 z"
           inkscape:connector-curvature="0" />
        <g
           transform="translate(153.51214,7.9566063)"
           id="g922">
          <path
             style="fill:#b80c09;fill-opacity:1;stroke-width:0.12766458"
             id="path906"
             d="m 93.69482,115.08975 c 0,-0.1824 -0.187712,-0.33014 -0.419456,-0.33014 -0.231744,0 -0.419457,0.14774 -0.419457,0.33014 v 1.56639 c 0,0.0912 0.04693,0.17374 0.12283,0.23347 0.0759,0.0598 0.180762,0.0967 0.296633,0.0967 0.231744,0 0.419456,-0.14774 0.419456,-0.33014 z"
             inkscape:connector-curvature="0" />
          <path
             style="fill:#b80c09;fill-opacity:1;stroke-width:0.12766458"
             id="path908"
             d="m 91.628534,116.10103 c 0,-0.1824 -0.187713,-0.33016 -0.419457,-0.33016 -0.231744,0 -0.419456,0.14776 -0.419456,0.33016 v 1.56637 c 0,0.0912 0.04693,0.17374 0.12283,0.23348 0.0759,0.0598 0.180761,0.0967 0.296633,0.0967 0.231743,0 0.419456,-0.14774 0.419456,-0.33015 z"
             inkscape:connector-curvature="0" />
          <path
             style="fill:#b80c09;fill-opacity:1;stroke-width:0.12766458"
             id="path910"
             d="m 95.761106,116.10103 c 0,-0.1824 -0.187712,-0.33016 -0.419456,-0.33016 -0.231744,0 -0.419456,0.14776 -0.419456,0.33016 v 1.56637 c 0,0.0912 0.04693,0.17374 0.12283,0.23348 0.0759,0.0598 0.180761,0.0967 0.296632,0.0967 0.231744,0 0.419457,-0.14774 0.419457,-0.33015 z"
             inkscape:connector-curvature="0" />
          <path
             sodipodi:nodetypes="cccccccccc"
             style="fill:#b80c09;fill-opacity:1;stroke:none;stroke-width:0.65862888;stroke-miterlimit:4;stroke-dasharray:none;paint-order:normal"
             id="path912"
             d="m 88.868841,112.48853 c -0.528281,-0.97614 -0.894555,-1.98726 -1.104938,-3.01055 -0.06331,-0.29072 -0.358208,-0.32245 -0.555526,-0.18325 -0.253403,0.17864 -0.504759,0.40225 -0.728869,0.68233 -0.972944,1.21875 -1.05304,2.98614 -0.237303,5.25319 0.02077,0.0584 0.05637,0.10508 0.106785,0.14477 0.07713,0.0606 0.186898,0.0957 0.302572,0.0981 0.189831,-0.005 0.352974,-0.10507 0.400446,-0.2498 0.139515,-0.43044 0.685797,-1.59005 1.606789,-2.09737 0.279801,-0.16154 0.322203,-0.43359 0.210044,-0.63742 z"
             inkscape:connector-curvature="0" />
          <path
             sodipodi:nodetypes="cccccccscscs"
             inkscape:connector-curvature="0"
             id="path914"
             d="m 92.496721,99.043821 c -4.475406,3.850139 -5.395196,9.539789 -2.266014,14.156239 0.194252,0.33645 0.490231,0.54261 0.914673,0.54261 1.41869,0 2.837381,0 4.256071,0 0.424442,0 0.720421,-0.20616 0.914673,-0.54261 3.129182,-4.61645 2.209395,-10.3061 -2.266011,-14.156239 -0.497041,-0.309377 -1.115113,-0.313664 -1.553392,0 z m 0.776694,3.421489 c 1.787174,0 2.989123,3.61786 2.723867,4.83796 -0.211603,0.97329 -1.989248,1.25261 -2.723867,1.25261 -0.734618,0 -2.512261,-0.27932 -2.723864,-1.25261 -0.265258,-1.22008 0.936691,-4.83796 2.723864,-4.83796 z"
             style="fill:#b80c09;fill-opacity:1;stroke-width:0.1276646" />
          <circle
             r="0.41946468"
             cy="115.0583"
             cx="91.209457"
             id="circle916"
             style="opacity:1;vector-effect:none;fill:#b80c09;fill-opacity:1;stroke:none;stroke-width:0.4173727;stroke-linecap:round;stroke-linejoin:round;stroke-miterlimit:4;stroke-dasharray:none;stroke-dashoffset:0;stroke-opacity:1;paint-order:normal" />
          <circle
             style="opacity:1;vector-effect:none;fill:#b80c09;fill-opacity:1;stroke:none;stroke-width:0.4173727;stroke-linecap:round;stroke-linejoin:round;stroke-miterlimit:4;stroke-dasharray:none;stroke-dashoffset:0;stroke-opacity:1;paint-order:normal"
             id="circle918"
             cx="95.336189"
             cy="115.06181"
             r="0.41946468" />
          <path
             inkscape:connector-curvature="0"
             d="m 97.685381,112.48853 c 0.528281,-0.97614 0.894555,-1.98726 1.104938,-3.01055 0.06331,-0.29072 0.358208,-0.32245 0.555526,-0.18325 0.253403,0.17864 0.504759,0.40225 0.728865,0.68233 0.97295,1.21875 1.05304,2.98614 0.23731,5.25319 -0.0208,0.0584 -0.0564,0.10508 -0.10679,0.14477 -0.0771,0.0606 -0.1869,0.0957 -0.30257,0.0981 -0.189831,-0.005 -0.352974,-0.10507 -0.400446,-0.2498 -0.139515,-0.43044 -0.685797,-1.59005 -1.606789,-2.09737 -0.279801,-0.16154 -0.322203,-0.43359 -0.210044,-0.63742 z"
             id="path920"
             style="fill:#b80c09;fill-opacity:1;stroke:none;stroke-width:0.65862888;stroke-miterlimit:4;stroke-dasharray:none;paint-order:normal"
             sodipodi:nodetypes="cccccccccc" />
        </g>
        <g
           style="fill:#184578;fill-opacity:1;stroke-width:0.46446729"
           transform="matrix(1.0388499,0,0,1.0388499,65.798443,12.363978)"
           id="g932">
          <path
             d="m 40.888662,108.05155 c 4.40908,0 7.613828,-3.32721 7.613828,-7.38928 v -0.0409 c 0,-4.062074 -3.163924,-7.348467 -7.573003,-7.348467 -4.409077,0 -7.613825,3.32722 -7.613825,7.389287 v 0.0409 c 0,4.06206 3.163921,7.34846 7.573,7.34846 z m 0.04082,-2.89855 c -2.531136,0 -4.327428,-2.04124 -4.327428,-4.49073 v -0.0409 c 0,-2.449495 1.755465,-4.449906 4.286603,-4.449906 2.531138,0 4.327429,2.041237 4.327429,4.490726 v 0.0409 c 0,2.44949 -1.755466,4.44991 -4.286604,4.44991 z"
             style="font-style:normal;font-variant:normal;font-weight:normal;font-stretch:normal;font-size:medium;line-height:18.36208344px;font-family:'Gotham Rounded';-inkscape-font-specification:'Gotham Rounded';text-align:center;letter-spacing:0px;word-spacing:0px;text-anchor:middle;fill:#184578;fill-opacity:1;stroke:none;stroke-width:0.12289026px;stroke-linecap:butt;stroke-linejoin:miter;stroke-opacity:1"
             id="path924"
             inkscape:connector-curvature="0" />
          <path
             d="m 50.908221,106.37773 c 0,0.85733 0.694022,1.55134 1.551343,1.55134 0.857322,0 1.551343,-0.69401 1.551343,-1.55134 v -7.654639 l 6.28702,8.246619 c 0.428659,0.55113 0.877731,0.91855 1.63299,0.91855 h 0.102067 c 0.877733,0 1.571756,-0.69402 1.571756,-1.57176 V 94.946793 c 0,-0.857321 -0.694023,-1.551342 -1.551345,-1.551342 -0.857319,0 -1.551343,0.694021 -1.551343,1.551342 v 7.368877 l -6.062486,-7.960836 c -0.428659,-0.551132 -0.877731,-0.918557 -1.63299,-0.918557 h -0.326599 c -0.877734,0 -1.571756,0.694021 -1.571756,1.571752 z"
             style="font-style:normal;font-variant:normal;font-weight:normal;font-stretch:normal;font-size:medium;line-height:18.36208344px;font-family:'Gotham Rounded';-inkscape-font-specification:'Gotham Rounded';text-align:center;letter-spacing:0px;word-spacing:0px;text-anchor:middle;fill:#184578;fill-opacity:1;stroke:none;stroke-width:0.12289026px;stroke-linecap:butt;stroke-linejoin:miter;stroke-opacity:1"
             id="path926"
             inkscape:connector-curvature="0" />
          <path
             d="m 72.975304,108.03113 c 3.837531,0 6.266607,-2.12287 6.266607,-6.4503 v -6.613629 c 0,-0.877729 -0.694021,-1.57175 -1.571754,-1.57175 -0.877733,0 -1.571754,0.694021 -1.571754,1.57175 v 6.736099 c 0,2.26578 -1.163509,3.42928 -3.082275,3.42928 -1.918765,0 -3.082272,-1.20433 -3.082272,-3.53135 v -6.634029 c 0,-0.877729 -0.694021,-1.57175 -1.571754,-1.57175 -0.877735,0 -1.571754,0.694021 -1.571754,1.57175 v 6.715689 c 0,4.20495 2.347424,6.34824 6.184956,6.34824 z"
             style="font-style:normal;font-variant:normal;font-weight:normal;font-stretch:normal;font-size:medium;line-height:18.36208344px;font-family:'Gotham Rounded';-inkscape-font-specification:'Gotham Rounded';text-align:center;letter-spacing:0px;word-spacing:0px;text-anchor:middle;fill:#184578;fill-opacity:1;stroke:none;stroke-width:0.12289026px;stroke-linecap:butt;stroke-linejoin:miter;stroke-opacity:1"
             id="path928"
             inkscape:connector-curvature="0" />
          <path
             d="m 82.443786,106.35733 c 0,0.87773 0.694023,1.57174 1.571754,1.57174 0.877733,0 1.571756,-0.69401 1.571756,-1.57174 v -3.1231 h 2.510727 l 3.061859,3.87834 c 0.367423,0.46949 0.836908,0.8165 1.551343,0.8165 0.755259,0 1.490107,-0.57154 1.490107,-1.44927 0,-0.4899 -0.204125,-0.8165 -0.510312,-1.20433 l -2.184126,-2.65362 c 1.735054,-0.71443 2.857734,-2.10247 2.857734,-4.347837 v -0.04086 c 0,-1.347216 -0.428659,-2.469901 -1.224742,-3.265984 -0.938973,-0.938967 -2.347429,-1.449281 -4.16413,-1.449281 H 84.01554 c -0.877731,0 -1.571754,0.694022 -1.571754,1.571762 z m 3.14351,-5.89919 v -4.102895 h 3.123097 c 1.530934,0 2.469902,0.694022 2.469902,2.04125 v 0.04086 c 0,1.204335 -0.877734,2.020835 -2.408664,2.020835 z"
             style="font-style:normal;font-variant:normal;font-weight:normal;font-stretch:normal;font-size:medium;line-height:18.36208344px;font-family:'Gotham Rounded';-inkscape-font-specification:'Gotham Rounded';text-align:center;letter-spacing:0px;word-spacing:0px;text-anchor:middle;fill:#184578;fill-opacity:1;stroke:none;stroke-width:0.12289026px;stroke-linecap:butt;stroke-linejoin:miter;stroke-opacity:1"
             id="path930"
             inkscape:connector-curvature="0" />
        </g>
        <g
           transform="translate(182.57922,28.786614)"
           id="g938">
          <path
             inkscape:connector-curvature="0"
             style="font-style:normal;font-variant:normal;font-weight:normal;font-stretch:normal;font-size:medium;line-height:9.98688412px;font-family:'Gotham Rounded';-inkscape-font-specification:'Gotham Rounded';text-align:center;letter-spacing:0px;word-spacing:0px;text-anchor:middle;fill:#184578;fill-opacity:1;stroke:none;stroke-width:0.99999982px;stroke-linecap:butt;stroke-linejoin:miter;stroke-opacity:1"
             d="m 730.33594,260.55859 c -10.16332,0 -18.17383,8.26013 -18.17383,18.12305 v 0.0996 c 0,9.86293 7.90894,18.02344 18.07227,18.02344 10.16332,0 18.17382,-8.26013 18.17382,-18.12305 v -0.0996 c 0,-9.86293 -7.90894,-18.02344 -18.07226,-18.02344 z m -0.006,3.67969 c 8.16319,0 14.30859,6.41459 14.30859,14.35352 v 0.0898 c 0,7.93893 -6.19039,14.44335 -14.39844,14.44336 -8.16318,0 -14.30859,-6.41459 -14.30859,-14.35352 v -0.0898 c 0,-7.93893 6.19038,-14.44336 14.39844,-14.44336 z"
             transform="matrix(0.12766457,0,0,0.12766457,-2.8893292,57.740143)"
             id="path934" />
          <path
             inkscape:connector-curvature="0"
             id="path936"
             d="m 90.367759,94.557895 c 0.415454,0 0.671118,-0.127832 0.907608,-0.338756 0.04474,-0.03835 0.08309,-0.102265 0.08309,-0.185356 0,-0.140614 -0.121441,-0.262056 -0.262056,-0.262056 -0.0767,0 -0.127832,0.03196 -0.166182,0.06392 -0.15979,0.134224 -0.31958,0.210923 -0.543286,0.210923 -0.415455,0 -0.703077,-0.345147 -0.703077,-0.754209 v -0.01278 c 0,-0.415454 0.294014,-0.754209 0.703077,-0.754209 0.191748,0 0.370713,0.0767 0.504937,0.178965 0.05752,0.04474 0.12144,0.07031 0.178965,0.07031 0.147006,0 0.268447,-0.12144 0.268447,-0.274839 0,-0.102265 -0.05113,-0.178965 -0.121441,-0.230097 -0.204531,-0.153399 -0.44102,-0.255665 -0.830908,-0.255665 -0.75421,0 -1.278321,0.575245 -1.278321,1.27193 v 0.01278 c 0,0.703077 0.536894,1.259147 1.259146,1.259147 z"
             style="font-style:normal;font-variant:normal;font-weight:normal;font-stretch:normal;font-size:medium;line-height:9.98688412px;font-family:'Gotham Rounded';-inkscape-font-specification:'Gotham Rounded';text-align:center;letter-spacing:0px;word-spacing:0px;text-anchor:middle;fill:#184578;fill-opacity:1;stroke:none;stroke-width:0.12766455px;stroke-linecap:butt;stroke-linejoin:miter;stroke-opacity:1" />
        </g>
      </g>
      <g
         transform="translate(420.14698,28.786614)"
         id="g1153">
        <path
           inkscape:connector-curvature="0"
           style="font-style:normal;font-variant:normal;font-weight:normal;font-stretch:normal;font-size:medium;line-height:9.98688412px;font-family:'Gotham Rounded';-inkscape-font-specification:'Gotham Rounded';text-align:center;letter-spacing:0px;word-spacing:0px;text-anchor:middle;fill:#184578;fill-opacity:1;stroke:none;stroke-width:0.99999982px;stroke-linecap:butt;stroke-linejoin:miter;stroke-opacity:1"
           d="m 730.33594,260.55859 c -10.16332,0 -18.17383,8.26013 -18.17383,18.12305 v 0.0996 c 0,9.86293 7.90894,18.02344 18.07227,18.02344 10.16332,0 18.17382,-8.26013 18.17382,-18.12305 v -0.0996 c 0,-9.86293 -7.90894,-18.02344 -18.07226,-18.02344 z m -0.006,3.67969 c 8.16319,0 14.30859,6.41459 14.30859,14.35352 v 0.0898 c 0,7.93893 -6.19039,14.44335 -14.39844,14.44336 -8.16318,0 -14.30859,-6.41459 -14.30859,-14.35352 v -0.0898 c 0,-7.93893 6.19038,-14.44336 14.39844,-14.44336 z"
           transform="matrix(0.12766457,0,0,0.12766457,-2.8893292,57.740143)"
           id="path1149" />
        <path
           inkscape:connector-curvature="0"
           id="path1151"
           d="m 90.367759,94.557895 c 0.415454,0 0.671118,-0.127832 0.907608,-0.338756 0.04474,-0.03835 0.08309,-0.102265 0.08309,-0.185356 0,-0.140614 -0.121441,-0.262056 -0.262056,-0.262056 -0.0767,0 -0.127832,0.03196 -0.166182,0.06392 -0.15979,0.134224 -0.31958,0.210923 -0.543286,0.210923 -0.415455,0 -0.703077,-0.345147 -0.703077,-0.754209 v -0.01278 c 0,-0.415454 0.294014,-0.754209 0.703077,-0.754209 0.191748,0 0.370713,0.0767 0.504937,0.178965 0.05752,0.04474 0.12144,0.07031 0.178965,0.07031 0.147006,0 0.268447,-0.12144 0.268447,-0.274839 0,-0.102265 -0.05113,-0.178965 -0.121441,-0.230097 -0.204531,-0.153399 -0.44102,-0.255665 -0.830908,-0.255665 -0.75421,0 -1.278321,0.575245 -1.278321,1.27193 v 0.01278 c 0,0.703077 0.536894,1.259147 1.259146,1.259147 z"
           style="font-style:normal;font-variant:normal;font-weight:normal;font-stretch:normal;font-size:medium;line-height:9.98688412px;font-family:'Gotham Rounded';-inkscape-font-specification:'Gotham Rounded';text-align:center;letter-spacing:0px;word-spacing:0px;text-anchor:middle;fill:#184578;fill-opacity:1;stroke:none;stroke-width:0.12766455px;stroke-linecap:butt;stroke-linejoin:miter;stroke-opacity:1" />
      </g>
      <path
         inkscape:connector-curvature="0"
         d="m 181.75479,226.3469 c 3.2063,0 5.45709,-1.65624 5.45709,-4.60774 v -0.0425 c 0,-2.59053 -1.69871,-3.67345 -4.71391,-4.4591 -2.56929,-0.65825 -3.20631,-0.97676 -3.20631,-1.95351 v -0.0425 c 0,-0.72195 0.65825,-1.29526 1.91105,-1.29526 1.01922,0 2.03844,0.36097 3.12137,0.99798 0.2548,0.14864 0.50961,0.23358 0.82812,0.23358 0.84935,0 1.52883,-0.65825 1.52883,-1.5076 0,-0.63702 -0.36097,-1.08293 -0.72195,-1.29527 -1.33773,-0.84935 -2.90903,-1.31649 -4.7139,-1.31649 -3.03644,0 -5.20229,1.78364 -5.20229,4.48033 v 0.0425 c 0,2.9515 1.93228,3.77962 4.92625,4.54403 2.48435,0.63702 2.99396,1.06169 2.99396,1.88981 v 0.0425 c 0,0.87059 -0.80688,1.40143 -2.14461,1.40143 -1.4439,0 -2.67546,-0.50961 -3.80085,-1.33773 -0.21234,-0.14863 -0.50962,-0.29727 -0.93429,-0.29727 -0.84935,0 -1.52884,0.65825 -1.52884,1.5076 0,0.50961 0.25481,0.97675 0.61578,1.23156 1.65624,1.18909 3.63099,1.78364 5.5845,1.78364 z"
         style="font-style:normal;font-variant:normal;font-weight:normal;font-stretch:normal;font-size:medium;line-height:18.36208344px;font-family:'Gotham Rounded';-inkscape-font-specification:'Gotham Rounded';text-align:center;letter-spacing:0px;word-spacing:0px;text-anchor:middle;fill:#ffffff;fill-opacity:1;stroke:#ff6600;stroke-width:6.59352335;stroke-linecap:butt;stroke-linejoin:miter;stroke-miterlimit:4;stroke-dasharray:none;stroke-opacity:1;paint-order:stroke fill markers"
         id="path3859" />
      <path
         inkscape:connector-curvature="0"
         d="m 198.19598,226.38937 c 4.5865,0 7.92021,-3.46111 7.92021,-7.68664 v -0.0425 c 0,-4.22553 -3.29124,-7.64417 -7.87775,-7.64417 -4.5865,0 -7.92021,3.46111 -7.92021,7.68664 v 0.0425 c 0,4.22552 3.29124,7.64417 7.87775,7.64417 z m 0.0425,-3.0152 c -2.633,0 -4.50157,-2.12338 -4.50157,-4.67144 v -0.0425 c 0,-2.54806 1.82611,-4.62897 4.4591,-4.62897 2.63299,0 4.50157,2.12338 4.50157,4.67144 v 0.0425 c 0,2.54805 -1.82611,4.62897 -4.4591,4.62897 z"
         style="font-style:normal;font-variant:normal;font-weight:normal;font-stretch:normal;font-size:medium;line-height:18.36208344px;font-family:'Gotham Rounded';-inkscape-font-specification:'Gotham Rounded';text-align:center;letter-spacing:0px;word-spacing:0px;text-anchor:middle;fill:#ffffff;fill-opacity:1;stroke:#ff6600;stroke-width:6.59352335;stroke-linecap:butt;stroke-linejoin:miter;stroke-miterlimit:4;stroke-dasharray:none;stroke-opacity:1;paint-order:stroke fill markers"
         id="path3861" />
      <path
         d="m 182.47747,209.51301 c 4.58037,0 7.90963,-3.45647 7.90963,-7.67635 v -0.0425 c 0,-4.21988 -3.28685,-7.63395 -7.86722,-7.63395 -4.58037,0 -7.90962,3.45648 -7.90962,7.67636 v 0.0425 c 0,4.21987 3.28684,7.63394 7.86721,7.63394 z m 0.0424,-3.01115 c -2.62947,0 -4.49555,-2.12055 -4.49555,-4.6652 v -0.0425 c 0,-2.54465 1.82366,-4.62278 4.45314,-4.62278 2.62947,0 4.49555,2.12054 4.49555,4.66519 v 0.0425 c 0,2.54465 -1.82367,4.62279 -4.45314,4.62279 z"
         style="font-style:normal;font-variant:normal;font-weight:normal;font-stretch:normal;font-size:medium;line-height:18.36208344px;font-family:'Gotham Rounded';-inkscape-font-specification:'Gotham Rounded';text-align:center;letter-spacing:0px;word-spacing:0px;text-anchor:middle;fill:#ffffff;fill-opacity:1;stroke:#ff6600;stroke-width:6.59352335;stroke-linecap:butt;stroke-linejoin:miter;stroke-opacity:1;stroke-miterlimit:4;stroke-dasharray:none;paint-order:stroke fill markers"
         id="path870"
         inkscape:connector-curvature="0" />
      <path
         d="m 192.50461,207.77417 c 0,0.89063 0.72098,1.61161 1.61161,1.61161 0.89063,0 1.61162,-0.72098 1.61162,-1.61161 v -7.95202 l 6.53127,8.567 c 0.44531,0.57254 0.91183,0.95423 1.69643,0.95423 h 0.10603 c 0.91183,0 1.63282,-0.72098 1.63282,-1.63282 v -11.81142 c 0,-0.89063 -0.72099,-1.61161 -1.61162,-1.61161 -0.89062,0 -1.61161,0.72098 -1.61161,1.61161 v 7.65516 l -6.29801,-8.27012 c -0.44531,-0.57254 -0.91183,-0.95424 -1.69643,-0.95424 h -0.33929 c -0.91184,0 -1.63282,0.72098 -1.63282,1.63281 z"
         style="font-style:normal;font-variant:normal;font-weight:normal;font-stretch:normal;font-size:medium;line-height:18.36208344px;font-family:'Gotham Rounded';-inkscape-font-specification:'Gotham Rounded';text-align:center;letter-spacing:0px;word-spacing:0px;text-anchor:middle;fill:#ffffff;fill-opacity:1;stroke:#ff6600;stroke-width:6.59352335;stroke-linecap:butt;stroke-linejoin:round;stroke-miterlimit:4;stroke-dasharray:none;stroke-opacity:1;paint-order:stroke fill markers"
         id="path872"
         inkscape:connector-curvature="0" />
      <g
         id="g1107">
        <path
           id="path3859-6"
           style="font-style:normal;font-variant:normal;font-weight:normal;font-stretch:normal;font-size:medium;line-height:18.36208344px;font-family:'Gotham Rounded';-inkscape-font-specification:'Gotham Rounded';text-align:center;letter-spacing:0px;word-spacing:0px;text-anchor:middle;fill:#184578;fill-opacity:1;stroke:none;stroke-width:0.12766455px;stroke-linecap:butt;stroke-linejoin:miter;stroke-opacity:1"
           d="m 28.808768,116.67396 c 3.206305,0 5.457089,-1.65624 5.457089,-4.60774 v -0.0425 c 0,-2.59053 -1.698705,-3.67345 -4.713906,-4.4591 -2.569291,-0.65825 -3.206306,-0.97676 -3.206306,-1.95351 v -0.0425 c 0,-0.72195 0.658248,-1.29526 1.911043,-1.29526 1.019223,0 2.038446,0.36097 3.12137,0.99798 0.254806,0.14864 0.509612,0.23358 0.828119,0.23358 0.849352,0 1.528834,-0.65825 1.528834,-1.5076 0,-0.63702 -0.360974,-1.08293 -0.721949,-1.29527 -1.33773,-0.84935 -2.909032,-1.31649 -4.713906,-1.31649 -3.036434,0 -5.202284,1.78364 -5.202284,4.48033 v 0.0425 c 0,2.9515 1.932277,3.77962 4.926244,4.54403 2.484356,0.63702 2.993968,1.06169 2.993968,1.88981 v 0.0425 c 0,0.87059 -0.806885,1.40143 -2.144615,1.40143 -1.443899,0 -2.675459,-0.50961 -3.800852,-1.33773 -0.212337,-0.14863 -0.509611,-0.29727 -0.934288,-0.29727 -0.849352,0 -1.528834,0.65825 -1.528834,1.5076 0,0.50961 0.254805,0.97675 0.61578,1.23156 1.656238,1.18909 3.630982,1.78364 5.584493,1.78364 z"
           inkscape:connector-curvature="0" />
        <path
           id="path3861-0"
           style="font-style:normal;font-variant:normal;font-weight:normal;font-stretch:normal;font-size:medium;line-height:18.36208344px;font-family:'Gotham Rounded';-inkscape-font-specification:'Gotham Rounded';text-align:center;letter-spacing:0px;word-spacing:0px;text-anchor:middle;fill:#184578;fill-opacity:1;stroke:none;stroke-width:0.12766455px;stroke-linecap:butt;stroke-linejoin:miter;stroke-opacity:1"
           d="m 44.343955,116.71643 c 4.586503,0 7.92021,-3.46111 7.92021,-7.68664 v -0.0425 c 0,-4.22553 -3.29124,-7.64417 -7.877742,-7.64417 -4.586503,0 -7.920212,3.46111 -7.920212,7.68664 v 0.0425 c 0,4.22552 3.291241,7.64417 7.877744,7.64417 z m 0.04247,-3.0152 c -2.632994,0 -4.501568,-2.12338 -4.501568,-4.67144 v -0.0425 c 0,-2.54806 1.826108,-4.62897 4.459099,-4.62897 2.632994,0 4.501569,2.12338 4.501569,4.67144 v 0.0425 c 0,2.54805 -1.826109,4.62897 -4.4591,4.62897 z"
           inkscape:connector-curvature="0" />
        <path
           id="path3863-7"
           style="font-style:normal;font-variant:normal;font-weight:normal;font-stretch:normal;font-size:medium;line-height:18.36208344px;font-family:'Gotham Rounded';-inkscape-font-specification:'Gotham Rounded';text-align:center;letter-spacing:0px;word-spacing:0px;text-anchor:middle;fill:#184578;fill-opacity:1;stroke:none;stroke-width:0.12766455px;stroke-linecap:butt;stroke-linejoin:miter;stroke-opacity:1"
           d="m 55.164906,114.82662 c 0,0.91305 0.721948,1.635 1.635003,1.635 h 7.686639 c 0.828118,0 1.486367,-0.65825 1.486367,-1.48636 0,-0.82812 -0.658249,-1.48637 -1.486367,-1.48637 h -6.051635 v -10.38333 c 0,-0.91306 -0.721951,-1.63501 -1.635004,-1.63501 -0.913055,0 -1.635003,0.72195 -1.635003,1.63501 z"
           inkscape:connector-curvature="0" />
        <path
           id="path3865-4"
           style="font-style:normal;font-variant:normal;font-weight:normal;font-stretch:normal;font-size:medium;line-height:18.36208344px;font-family:'Gotham Rounded';-inkscape-font-specification:'Gotham Rounded';text-align:center;letter-spacing:0px;word-spacing:0px;text-anchor:middle;fill:#184578;fill-opacity:1;stroke:none;stroke-width:0.12766455px;stroke-linecap:butt;stroke-linejoin:miter;stroke-opacity:1"
           d="m 68.311619,114.99649 c 0,0.89182 0.700716,1.59254 1.592536,1.59254 0.891819,0 1.613768,-0.70072 1.613768,-1.59254 v -7.38937 l 2.824098,4.35293 c 0.339741,0.50962 0.764417,0.82812 1.358964,0.82812 0.594546,0 1.019223,-0.3185 1.358964,-0.82812 l 2.866563,-4.41663 v 7.4106 c 0,0.89182 0.721951,1.63501 1.613771,1.63501 0.913053,0 1.635003,-0.72195 1.635003,-1.63501 v -11.806 c 0,-0.91305 -0.72195,-1.635 -1.635003,-1.635 h -0.360975 c -0.658249,0 -1.125393,0.27604 -1.465134,0.82812 l -3.970722,6.45508 -3.949488,-6.43385 c -0.297274,-0.48838 -0.785652,-0.84935 -1.486367,-0.84935 h -0.360975 c -0.913054,0 -1.635003,0.72195 -1.635003,1.635 z"
           inkscape:connector-curvature="0" />
        <path
           id="path3869-3"
           style="font-style:normal;font-variant:normal;font-weight:normal;font-stretch:normal;font-size:medium;line-height:18.36208344px;font-family:'Gotham Rounded';-inkscape-font-specification:'Gotham Rounded';text-align:center;letter-spacing:0px;word-spacing:0px;text-anchor:middle;fill:#184578;fill-opacity:1;stroke:none;stroke-width:0.12766455px;stroke-linecap:butt;stroke-linejoin:miter;stroke-opacity:1"
           d="m 103.72862,116.46162 h 9.74632 c 0.78565,0 1.4439,-0.63701 1.4439,-1.42266 0,-0.78565 -0.65825,-1.4439 -1.4439,-1.4439 h -6.85852 l 7.70787,-8.96067 c 0.38221,-0.46714 0.59455,-0.95552 0.59455,-1.52883 v -0.0637 c 0,-0.78565 -0.65825,-1.44389 -1.4439,-1.44389 h -9.49151 c -0.78565,0 -1.4439,0.65824 -1.4439,1.44389 0,0.78566 0.65825,1.42267 1.4439,1.42267 h 6.60371 l -7.70787,8.96067 c -0.38221,0.44591 -0.59455,0.95552 -0.59455,1.52883 v 0.0637 c 0,0.78565 0.65825,1.4439 1.4439,1.4439 z"
           inkscape:connector-curvature="0" />
        <path
           inkscape:connector-curvature="0"
           d="m 93.69482,115.08975 c 0,-0.1824 -0.187713,-0.33014 -0.419456,-0.33014 -0.231745,0 -0.419457,0.14774 -0.419457,0.33014 v 1.56639 c 0,0.0912 0.04693,0.17374 0.122829,0.23347 0.0759,0.0598 0.180762,0.0967 0.296633,0.0967 0.231744,0 0.419456,-0.14774 0.419456,-0.33014 z"
           id="path4-9-8"
           style="fill:#b80c09;fill-opacity:1;stroke-width:0.12766457" />
        <path
           inkscape:connector-curvature="0"
           d="m 91.628533,116.10103 c 0,-0.1824 -0.187713,-0.33016 -0.419456,-0.33016 -0.231744,0 -0.419456,0.14776 -0.419456,0.33016 v 1.56637 c 0,0.0912 0.04693,0.17374 0.12283,0.23348 0.0759,0.0598 0.18076,0.0967 0.296632,0.0967 0.231743,0 0.419456,-0.14774 0.419456,-0.33015 z"
           id="path8-0"
           style="fill:#b80c09;fill-opacity:1;stroke-width:0.12766457" />
        <path
           inkscape:connector-curvature="0"
           d="m 95.761105,116.10103 c 0,-0.1824 -0.187711,-0.33016 -0.419456,-0.33016 -0.231744,0 -0.419456,0.14776 -0.419456,0.33016 v 1.56637 c 0,0.0912 0.04693,0.17374 0.12283,0.23348 0.0759,0.0598 0.180762,0.0967 0.296633,0.0967 0.231743,0 0.419456,-0.14774 0.419456,-0.33015 z"
           id="path12-3"
           style="fill:#b80c09;fill-opacity:1;stroke-width:0.12766457" />
        <path
           inkscape:connector-curvature="0"
           d="m 88.86884,112.48853 c -0.52828,-0.97614 -0.894555,-1.98726 -1.104937,-3.01055 -0.06331,-0.29072 -0.358209,-0.32245 -0.555526,-0.18325 -0.253404,0.17864 -0.504759,0.40225 -0.728869,0.68233 -0.972945,1.21875 -1.05304,2.98614 -0.237303,5.25319 0.02077,0.0584 0.05637,0.10508 0.106784,0.14477 0.07713,0.0606 0.186898,0.0957 0.302573,0.0981 0.18983,-0.005 0.352973,-0.10507 0.400445,-0.2498 0.139516,-0.43044 0.685797,-1.59005 1.606789,-2.09737 0.279801,-0.16154 0.322204,-0.43359 0.210044,-0.63742 z"
           id="path20-7"
           style="fill:#b80c09;fill-opacity:1;stroke:none;stroke-width:0.65862888;stroke-miterlimit:4;stroke-dasharray:none;paint-order:normal"
           sodipodi:nodetypes="cccccccccc" />
        <path
           style="fill:#b80c09;fill-opacity:1;stroke-width:0.12766458"
           d="m 92.496721,99.043821 c -4.475407,3.850139 -5.395197,9.539789 -2.266014,14.156239 0.194252,0.33645 0.49023,0.54261 0.914673,0.54261 1.418689,0 2.837381,0 4.25607,0 0.424443,0 0.720421,-0.20616 0.914673,-0.54261 3.129183,-4.61645 2.209395,-10.3061 -2.26601,-14.156239 -0.497042,-0.309377 -1.115113,-0.313664 -1.553392,0 z m 0.776693,3.421489 c 1.787174,0 2.989123,3.61786 2.723867,4.83796 -0.211603,0.97329 -1.989248,1.25261 -2.723867,1.25261 -0.734617,0 -2.512261,-0.27932 -2.723864,-1.25261 -0.265257,-1.22008 0.936692,-4.83796 2.723864,-4.83796 z"
           id="path24-5"
           inkscape:connector-curvature="0"
           sodipodi:nodetypes="cccccccscscs" />
        <circle
           style="opacity:1;vector-effect:none;fill:#b80c09;fill-opacity:1;stroke:none;stroke-width:0.4173727;stroke-linecap:round;stroke-linejoin:round;stroke-miterlimit:4;stroke-dasharray:none;stroke-dashoffset:0;stroke-opacity:1;paint-order:normal"
           id="circle64-3"
           cx="91.209457"
           cy="115.0583"
           r="0.41946468" />
        <circle
           r="0.41946468"
           cy="115.06181"
           cx="95.336189"
           id="circle60-5"
           style="opacity:1;vector-effect:none;fill:#b80c09;fill-opacity:1;stroke:none;stroke-width:0.4173727;stroke-linecap:round;stroke-linejoin:round;stroke-miterlimit:4;stroke-dasharray:none;stroke-dashoffset:0;stroke-opacity:1;paint-order:normal" />
        <path
           sodipodi:nodetypes="cccccccccc"
           style="fill:#b80c09;fill-opacity:1;stroke:none;stroke-width:0.65862888;stroke-miterlimit:4;stroke-dasharray:none;paint-order:normal"
           id="path351-6"
           d="m 97.685381,112.48853 c 0.528281,-0.97614 0.894554,-1.98726 1.104938,-3.01055 0.06331,-0.29072 0.358208,-0.32245 0.555526,-0.18325 0.253403,0.17864 0.504759,0.40225 0.728865,0.68233 0.97295,1.21875 1.05304,2.98614 0.23731,5.25319 -0.0208,0.0584 -0.0564,0.10508 -0.10679,0.14477 -0.0771,0.0606 -0.1869,0.0957 -0.302571,0.0981 -0.189831,-0.005 -0.352973,-0.10507 -0.400445,-0.2498 -0.139516,-0.43044 -0.685798,-1.59005 -1.606789,-2.09737 -0.279801,-0.16154 -0.322204,-0.43359 -0.210044,-0.63742 z"
           inkscape:connector-curvature="0" />
      </g>
      <rect
         style="opacity:1;vector-effect:none;fill:none;fill-opacity:1;stroke:#000000;stroke-width:0.17021944;stroke-linecap:round;stroke-linejoin:round;stroke-miterlimit:4;stroke-dasharray:none;stroke-dashoffset:0;stroke-opacity:1;paint-order:stroke fill markers"
         id="rect1197"
         width="37.731174"
         height="37.731174"
         x="171.8289"
         y="191.5174" />
      <path
         style="fill:#ff6600;fill-opacity:1;fill-rule:evenodd;stroke:none;stroke-width:0.12766457px;stroke-linecap:butt;stroke-linejoin:miter;stroke-opacity:1"
         d="m 215.61948,203.65994 -1.33585,2.54451 3.18062,2.79894 -1.59032,4.32565 2.4809,2.48089 2.16281,-3.24424 3.11702,-5.85235 4.1348,-0.25444 5.40707,-1.90838 -3.05341,-3.18063 -1.97198,-0.57251 -1.71753,3.81675 -4.5165,-1.39947 -1.90836,-2.73534 z"
         id="path1199"
         inkscape:connector-curvature="0" />
      <path
         style="fill:#ff6600;fill-rule:evenodd;stroke:none;stroke-width:0.12766457px;stroke-linecap:butt;stroke-linejoin:miter;stroke-opacity:1;fill-opacity:1"
         d="m 196.47214,215.49187 -0.89058,4.19843 2.41728,2.86256 c 0,0 2.29005,-1.78115 2.60811,-2.0356 0.31805,-0.25445 0.38166,-3.81675 0.0636,-4.0076 -0.31806,-0.19083 -4.19841,-1.01779 -4.19841,-1.01779 z"
         id="path1201"
         inkscape:connector-curvature="0" />
      <path
         inkscape:connector-curvature="0"
         id="path1203"
         d="m 180.9507,198.44373 -0.89058,4.19843 2.41728,2.86256 c 0,0 2.29005,-1.78115 2.60811,-2.0356 0.31805,-0.25445 0.38166,-3.81675 0.0636,-4.0076 -0.31806,-0.19083 -4.19841,-1.01779 -4.19841,-1.01779 z"
         style="fill:#ff6600;fill-opacity:1;fill-rule:evenodd;stroke:none;stroke-width:0.12766457px;stroke-linecap:butt;stroke-linejoin:miter;stroke-opacity:1" />
      <text
         xml:space="preserve"
         style="font-style:normal;font-weight:normal;font-size:13.98645115px;line-height:21.85383224px;font-family:sans-serif;text-align:center;letter-spacing:0px;word-spacing:0px;text-anchor:middle;fill:#184578;fill-opacity:1;stroke:none;stroke-width:0.1276646px;stroke-linecap:butt;stroke-linejoin:miter;stroke-opacity:1"
         x="429.54736"
         y="106.81487"
         id="text1207"><tspan
           sodipodi:role="line"
           id="tspan1205"
           x="429.54736"
           y="106.81487"
           style="font-style:normal;font-variant:normal;font-weight:normal;font-stretch:normal;font-family:'Gotham Rounded';-inkscape-font-specification:'Gotham Rounded';fill:#184578;fill-opacity:1;stroke-width:0.1276646px">onur</tspan></text>
      <path
         inkscape:connector-curvature="0"
         d="m 275.7929,218.51119 c 3.2063,0 5.45709,-1.65624 5.45709,-4.60774 v -0.0425 c 0,-2.59053 -1.69871,-3.67345 -4.71391,-4.4591 -2.56929,-0.65825 -3.20631,-0.97676 -3.20631,-1.95351 v -0.0425 c 0,-0.72195 0.65825,-1.29526 1.91105,-1.29526 1.01922,0 2.03844,0.36097 3.12137,0.99798 0.2548,0.14864 0.50961,0.23358 0.82812,0.23358 0.84935,0 1.52883,-0.65825 1.52883,-1.5076 0,-0.63702 -0.36097,-1.08293 -0.72195,-1.29527 -1.33773,-0.84935 -2.90903,-1.31649 -4.7139,-1.31649 -3.03644,0 -5.20229,1.78364 -5.20229,4.48033 v 0.0425 c 0,2.9515 1.93228,3.77962 4.92625,4.54403 2.48435,0.63702 2.99396,1.06169 2.99396,1.88981 v 0.0425 c 0,0.87059 -0.80688,1.40143 -2.14461,1.40143 -1.4439,0 -2.67546,-0.50961 -3.80085,-1.33773 -0.21234,-0.14863 -0.50962,-0.29727 -0.93429,-0.29727 -0.84935,0 -1.52884,0.65825 -1.52884,1.5076 0,0.50961 0.25481,0.97675 0.61578,1.23156 1.65624,1.18909 3.63099,1.78364 5.5845,1.78364 z"
         style="font-style:normal;font-variant:normal;font-weight:normal;font-stretch:normal;font-size:medium;line-height:18.36208344px;font-family:'Gotham Rounded';-inkscape-font-specification:'Gotham Rounded';text-align:center;letter-spacing:0px;word-spacing:0px;text-anchor:middle;fill:#ffffff;fill-opacity:1;stroke:#ff6600;stroke-width:6.5935235;stroke-linecap:butt;stroke-linejoin:miter;stroke-miterlimit:4;stroke-dasharray:none;stroke-opacity:1;paint-order:stroke fill markers"
         id="path1223" />
      <path
         inkscape:connector-curvature="0"
         d="m 382.22896,204.57241 c 3.2063,0 5.45709,-1.65624 5.45709,-4.60774 v -0.0425 c 0,-2.59053 -1.69871,-3.67345 -4.71391,-4.4591 -2.56929,-0.65825 -3.20631,-0.97676 -3.20631,-1.95351 v -0.0425 c 0,-0.72195 0.65825,-1.29526 1.91105,-1.29526 1.01922,0 2.03844,0.36097 3.12137,0.99798 0.2548,0.14864 0.50961,0.23358 0.82812,0.23358 0.84935,0 1.52883,-0.65825 1.52883,-1.5076 0,-0.63702 -0.36097,-1.08293 -0.72195,-1.29527 -1.33773,-0.84935 -2.90903,-1.31649 -4.7139,-1.31649 -3.03644,0 -5.20229,1.78364 -5.20229,4.48033 v 0.0425 c 0,2.9515 1.93228,3.77962 4.92625,4.54403 2.48435,0.63702 2.99396,1.06169 2.99396,1.88981 v 0.0425 c 0,0.87059 -0.80688,1.40143 -2.14461,1.40143 -1.4439,0 -2.67546,-0.50961 -3.80085,-1.33773 -0.21234,-0.14863 -0.50962,-0.29727 -0.93429,-0.29727 -0.84935,0 -1.52884,0.65825 -1.52884,1.5076 0,0.50961 0.25481,0.97675 0.61578,1.23156 1.65624,1.18909 3.63099,1.78364 5.5845,1.78364 z"
         style="font-style:normal;font-variant:normal;font-weight:normal;font-stretch:normal;font-size:medium;line-height:18.36208344px;font-family:'Gotham Rounded';-inkscape-font-specification:'Gotham Rounded';text-align:center;letter-spacing:0px;word-spacing:0px;text-anchor:middle;fill:#ffffff;fill-opacity:1;stroke:#ff6600;stroke-width:6.5935235;stroke-linecap:butt;stroke-linejoin:miter;stroke-miterlimit:4;stroke-dasharray:none;stroke-opacity:1;paint-order:stroke fill markers"
         id="path1237" />
      <path
         id="path1209"
         style="font-style:normal;font-variant:normal;font-weight:normal;font-stretch:normal;font-size:medium;line-height:18.36208344px;font-family:'Gotham Rounded';-inkscape-font-specification:'Gotham Rounded';text-align:center;letter-spacing:0px;word-spacing:0px;text-anchor:middle;fill:#ffffff;fill-opacity:1;stroke:#ff6600;stroke-width:6.5935235;stroke-linecap:butt;stroke-linejoin:miter;stroke-miterlimit:4;stroke-dasharray:none;stroke-opacity:1;paint-order:stroke fill markers"
         d="m 510.34308,230.78789 c 3.2063,0 5.45709,-1.65624 5.45709,-4.60774 v -0.0425 c 0,-2.59053 -1.69871,-3.67345 -4.71391,-4.4591 -2.56929,-0.65825 -3.20631,-0.97676 -3.20631,-1.95351 v -0.0425 c 0,-0.72195 0.65825,-1.29526 1.91105,-1.29526 1.01922,0 2.03844,0.36097 3.12137,0.99798 0.2548,0.14864 0.50961,0.23358 0.82812,0.23358 0.84935,0 1.52883,-0.65825 1.52883,-1.5076 0,-0.63702 -0.36097,-1.08293 -0.72195,-1.29527 -1.33773,-0.84935 -2.90903,-1.31649 -4.7139,-1.31649 -3.03644,0 -5.20229,1.78364 -5.20229,4.48033 v 0.0425 c 0,2.9515 1.93228,3.77962 4.92625,4.54403 2.48435,0.63702 2.99396,1.06169 2.99396,1.88981 v 0.0425 c 0,0.87059 -0.80688,1.40143 -2.14461,1.40143 -1.4439,0 -2.67546,-0.50961 -3.80085,-1.33773 -0.21234,-0.14863 -0.50962,-0.29727 -0.93429,-0.29727 -0.84935,0 -1.52884,0.65825 -1.52884,1.5076 0,0.50961 0.25481,0.97675 0.61578,1.23156 1.65624,1.18909 3.63099,1.78364 5.5845,1.78364 z"
         inkscape:connector-curvature="0" />
      <path
         inkscape:connector-curvature="0"
         d="m 288.78733,231.78707 c 4.5865,0 7.92021,-3.46111 7.92021,-7.68664 v -0.0425 c 0,-4.22553 -3.29124,-7.64417 -7.87775,-7.64417 -4.5865,0 -7.92021,3.46111 -7.92021,7.68664 v 0.0425 c 0,4.22552 3.29124,7.64417 7.87775,7.64417 z m 0.0425,-3.0152 c -2.633,0 -4.50157,-2.12338 -4.50157,-4.67144 v -0.0425 c 0,-2.54806 1.82611,-4.62897 4.4591,-4.62897 2.63299,0 4.50157,2.12338 4.50157,4.67144 v 0.0425 c 0,2.54805 -1.82611,4.62897 -4.4591,4.62897 z"
         style="font-style:normal;font-variant:normal;font-weight:normal;font-stretch:normal;font-size:medium;line-height:18.36208344px;font-family:'Gotham Rounded';-inkscape-font-specification:'Gotham Rounded';text-align:center;letter-spacing:0px;word-spacing:0px;text-anchor:middle;fill:#ffffff;fill-opacity:1;stroke:#ff6600;stroke-width:6.5935235;stroke-linecap:butt;stroke-linejoin:miter;stroke-miterlimit:4;stroke-dasharray:none;stroke-opacity:1;paint-order:stroke fill markers"
         id="path1225" />
      <path
         inkscape:connector-curvature="0"
         d="m 396.48993,218.25411 c 4.5865,0 7.92021,-3.46111 7.92021,-7.68664 v -0.0425 c 0,-4.22553 -3.29124,-7.64417 -7.87775,-7.64417 -4.5865,0 -7.92021,3.46111 -7.92021,7.68664 v 0.0425 c 0,4.22552 3.29124,7.64417 7.87775,7.64417 z m 0.0425,-3.0152 c -2.633,0 -4.50157,-2.12338 -4.50157,-4.67144 v -0.0425 c 0,-2.54806 1.82611,-4.62897 4.4591,-4.62897 2.63299,0 4.50157,2.12338 4.50157,4.67144 v 0.0425 c 0,2.54805 -1.82611,4.62897 -4.4591,4.62897 z"
         style="font-style:normal;font-variant:normal;font-weight:normal;font-stretch:normal;font-size:medium;line-height:18.36208344px;font-family:'Gotham Rounded';-inkscape-font-specification:'Gotham Rounded';text-align:center;letter-spacing:0px;word-spacing:0px;text-anchor:middle;fill:#ffffff;fill-opacity:1;stroke:#ff6600;stroke-width:6.5935235;stroke-linecap:butt;stroke-linejoin:miter;stroke-miterlimit:4;stroke-dasharray:none;stroke-opacity:1;paint-order:stroke fill markers"
         id="path1239" />
      <path
         id="path1211"
         style="font-style:normal;font-variant:normal;font-weight:normal;font-stretch:normal;font-size:medium;line-height:18.36208344px;font-family:'Gotham Rounded';-inkscape-font-specification:'Gotham Rounded';text-align:center;letter-spacing:0px;word-spacing:0px;text-anchor:middle;fill:#ffffff;fill-opacity:1;stroke:#ff6600;stroke-width:6.5935235;stroke-linecap:butt;stroke-linejoin:miter;stroke-miterlimit:4;stroke-dasharray:none;stroke-opacity:1;paint-order:stroke fill markers"
         d="m 525.05053,217.79233 c 4.5865,0 7.92021,-3.46111 7.92021,-7.68664 v -0.0425 c 0,-4.22553 -3.29124,-7.64417 -7.87775,-7.64417 -4.5865,0 -7.92021,3.46111 -7.92021,7.68664 v 0.0425 c 0,4.22552 3.29124,7.64417 7.87775,7.64417 z m 0.0425,-3.0152 c -2.633,0 -4.50157,-2.12338 -4.50157,-4.67144 v -0.0425 c 0,-2.54806 1.82611,-4.62897 4.4591,-4.62897 2.63299,0 4.50157,2.12338 4.50157,4.67144 v 0.0425 c 0,2.54805 -1.82611,4.62897 -4.4591,4.62897 z"
         inkscape:connector-curvature="0" />
      <path
         d="m 288.90206,205.37478 c 4.58037,0 7.90963,-3.45647 7.90963,-7.67635 v -0.0425 c 0,-4.21988 -3.28685,-7.63395 -7.86722,-7.63395 -4.58037,0 -7.90962,3.45648 -7.90962,7.67636 v 0.0425 c 0,4.21987 3.28684,7.63394 7.86721,7.63394 z m 0.0424,-3.01115 c -2.62947,0 -4.49555,-2.12055 -4.49555,-4.6652 v -0.0425 c 0,-2.54465 1.82366,-4.62278 4.45314,-4.62278 2.62947,0 4.49555,2.12054 4.49555,4.66519 v 0.0425 c 0,2.54465 -1.82367,4.62279 -4.45314,4.62279 z"
         style="font-style:normal;font-variant:normal;font-weight:normal;font-stretch:normal;font-size:medium;line-height:18.36208344px;font-family:'Gotham Rounded';-inkscape-font-specification:'Gotham Rounded';text-align:center;letter-spacing:0px;word-spacing:0px;text-anchor:middle;fill:#ffffff;fill-opacity:1;stroke:#ff6600;stroke-width:6.5935235;stroke-linecap:butt;stroke-linejoin:miter;stroke-miterlimit:4;stroke-dasharray:none;stroke-opacity:1;paint-order:stroke fill markers"
         id="path1227"
         inkscape:connector-curvature="0" />
      <path
         d="m 367.59738,218.2245 c 4.58037,0 7.90963,-3.45647 7.90963,-7.67635 v -0.0425 c 0,-4.21988 -3.28685,-7.63395 -7.86722,-7.63395 -4.58037,0 -7.90962,3.45648 -7.90962,7.67636 v 0.0425 c 0,4.21987 3.28684,7.63394 7.86721,7.63394 z m 0.0424,-3.01115 c -2.62947,0 -4.49555,-2.12055 -4.49555,-4.6652 v -0.0425 c 0,-2.54465 1.82366,-4.62278 4.45314,-4.62278 2.62947,0 4.49555,2.12054 4.49555,4.66519 v 0.0425 c 0,2.54465 -1.82367,4.62279 -4.45314,4.62279 z"
         style="font-style:normal;font-variant:normal;font-weight:normal;font-stretch:normal;font-size:medium;line-height:18.36208344px;font-family:'Gotham Rounded';-inkscape-font-specification:'Gotham Rounded';text-align:center;letter-spacing:0px;word-spacing:0px;text-anchor:middle;fill:#ffffff;fill-opacity:1;stroke:#ff6600;stroke-width:6.5935235;stroke-linecap:butt;stroke-linejoin:miter;stroke-miterlimit:4;stroke-dasharray:none;stroke-opacity:1;paint-order:stroke fill markers"
         id="path1241"
         inkscape:connector-curvature="0" />
      <path
         inkscape:connector-curvature="0"
         id="path1213"
         style="font-style:normal;font-variant:normal;font-weight:normal;font-stretch:normal;font-size:medium;line-height:18.36208344px;font-family:'Gotham Rounded';-inkscape-font-specification:'Gotham Rounded';text-align:center;letter-spacing:0px;word-spacing:0px;text-anchor:middle;fill:#ffffff;fill-opacity:1;stroke:#ff6600;stroke-width:6.5935235;stroke-linecap:butt;stroke-linejoin:miter;stroke-miterlimit:4;stroke-dasharray:none;stroke-opacity:1;paint-order:stroke fill markers"
         d="m 496.15798,218.2245 c 4.58037,0 7.90963,-3.45647 7.90963,-7.67635 v -0.0425 c 0,-4.21988 -3.28685,-7.63395 -7.86722,-7.63395 -4.58037,0 -7.90962,3.45648 -7.90962,7.67636 v 0.0425 c 0,4.21987 3.28684,7.63394 7.86721,7.63394 z m 0.0424,-3.01115 c -2.62947,0 -4.49555,-2.12055 -4.49555,-4.6652 v -0.0425 c 0,-2.54465 1.82366,-4.62278 4.45314,-4.62278 2.62947,0 4.49555,2.12054 4.49555,4.66519 v 0.0425 c 0,2.54465 -1.82367,4.62279 -4.45314,4.62279 z" />
      <path
         d="m 296.37753,217.0466 c 0,0.89063 0.72098,1.61161 1.61161,1.61161 0.89063,0 1.61162,-0.72098 1.61162,-1.61161 v -7.95202 l 6.53127,8.567 c 0.44531,0.57254 0.91183,0.95423 1.69643,0.95423 h 0.10603 c 0.91183,0 1.63282,-0.72098 1.63282,-1.63282 v -11.81142 c 0,-0.89063 -0.72099,-1.61161 -1.61162,-1.61161 -0.89062,0 -1.61161,0.72098 -1.61161,1.61161 v 7.65516 l -6.29801,-8.27012 c -0.44531,-0.57254 -0.91183,-0.95424 -1.69643,-0.95424 h -0.33929 c -0.91184,0 -1.63282,0.72098 -1.63282,1.63281 z"
         style="font-style:normal;font-variant:normal;font-weight:normal;font-stretch:normal;font-size:medium;line-height:18.36208344px;font-family:'Gotham Rounded';-inkscape-font-specification:'Gotham Rounded';text-align:center;letter-spacing:0px;word-spacing:0px;text-anchor:middle;fill:#ffffff;fill-opacity:1;stroke:#ff6600;stroke-width:6.5935235;stroke-linecap:butt;stroke-linejoin:round;stroke-miterlimit:4;stroke-dasharray:none;stroke-opacity:1;paint-order:stroke fill markers"
         id="path1229"
         inkscape:connector-curvature="0" />
      <path
         d="m 375.36395,231.42627 c 0,0.89063 0.72098,1.61161 1.61161,1.61161 0.89063,0 1.61162,-0.72098 1.61162,-1.61161 v -7.95202 l 6.53127,8.567 c 0.44531,0.57254 0.91183,0.95423 1.69643,0.95423 h 0.10603 c 0.91183,0 1.63282,-0.72098 1.63282,-1.63282 v -11.81142 c 0,-0.89063 -0.72099,-1.61161 -1.61162,-1.61161 -0.89062,0 -1.61161,0.72098 -1.61161,1.61161 v 7.65516 l -6.29801,-8.27012 c -0.44531,-0.57254 -0.91183,-0.95424 -1.69643,-0.95424 h -0.33929 c -0.91184,0 -1.63282,0.72098 -1.63282,1.63281 z"
         style="font-style:normal;font-variant:normal;font-weight:normal;font-stretch:normal;font-size:medium;line-height:18.36208344px;font-family:'Gotham Rounded';-inkscape-font-specification:'Gotham Rounded';text-align:center;letter-spacing:0px;word-spacing:0px;text-anchor:middle;fill:#ffffff;fill-opacity:1;stroke:#ff6600;stroke-width:6.5935235;stroke-linecap:butt;stroke-linejoin:round;stroke-miterlimit:4;stroke-dasharray:none;stroke-opacity:1;paint-order:stroke fill markers"
         id="path1243"
         inkscape:connector-curvature="0" />
      <path
         inkscape:connector-curvature="0"
         id="path1215"
         style="font-style:normal;font-variant:normal;font-weight:normal;font-stretch:normal;font-size:medium;line-height:18.36208344px;font-family:'Gotham Rounded';-inkscape-font-specification:'Gotham Rounded';text-align:center;letter-spacing:0px;word-spacing:0px;text-anchor:middle;fill:#ffffff;fill-opacity:1;stroke:#ff6600;stroke-width:6.5935235;stroke-linecap:butt;stroke-linejoin:round;stroke-miterlimit:4;stroke-dasharray:none;stroke-opacity:1;paint-order:stroke fill markers"
         d="m 503.70797,200.69605 c 0,0.89063 0.72098,1.61161 1.61161,1.61161 0.89063,0 1.61162,-0.72098 1.61162,-1.61161 v -7.95202 l 6.53127,8.567 c 0.44531,0.57254 0.91183,0.95423 1.69643,0.95423 h 0.10603 c 0.91183,0 1.63282,-0.72098 1.63282,-1.63282 v -11.81142 c 0,-0.89063 -0.72099,-1.61161 -1.61162,-1.61161 -0.89062,0 -1.61161,0.72098 -1.61161,1.61161 v 7.65516 l -6.29801,-8.27012 c -0.44531,-0.57254 -0.91183,-0.95424 -1.69643,-0.95424 h -0.33929 c -0.91184,0 -1.63282,0.72098 -1.63282,1.63281 z" />
      <rect
         transform="rotate(45)"
         style="opacity:1;vector-effect:none;fill:none;fill-opacity:1;stroke:#000000;stroke-width:0.17021944;stroke-linecap:round;stroke-linejoin:round;stroke-miterlimit:4;stroke-dasharray:none;stroke-dashoffset:0;stroke-opacity:1;paint-order:stroke fill markers"
         id="rect1231"
         width="37.731174"
         height="37.731174"
         x="334.45828"
         y="-74.662979" />
      <rect
         transform="rotate(45)"
         style="opacity:1;vector-effect:none;fill:none;fill-opacity:1;stroke:#000000;stroke-width:0.0595768;stroke-linecap:round;stroke-linejoin:round;stroke-miterlimit:4;stroke-dasharray:none;stroke-dashoffset:0;stroke-opacity:1;paint-order:stroke fill markers"
         id="rect1245"
         width="37.731174"
         height="37.731174"
         x="400.13025"
         y="-140.33496" />
      <rect
         y="-230.75098"
         x="490.54626"
         height="37.731174"
         width="37.731174"
         id="rect1217"
         style="opacity:1;vector-effect:none;fill:none;fill-opacity:1;stroke:#000000;stroke-width:0.17021944;stroke-linecap:round;stroke-linejoin:round;stroke-miterlimit:4;stroke-dasharray:none;stroke-dashoffset:0;stroke-opacity:1;paint-order:stroke fill markers"
         transform="rotate(45)" />
      <path
         style="fill:#ff6600;fill-opacity:1;fill-rule:evenodd;stroke:none;stroke-width:0.12766457px;stroke-linecap:butt;stroke-linejoin:miter;stroke-opacity:1"
         d="m 287.06349,220.88957 -0.89058,4.19843 2.41728,2.86256 c 0,0 2.29005,-1.78115 2.60811,-2.0356 0.31805,-0.25445 0.38166,-3.81675 0.0636,-4.0076 -0.31806,-0.19083 -4.19841,-1.01779 -4.19841,-1.01779 z"
         id="path1233"
         inkscape:connector-curvature="0" />
      <path
         style="fill:#ff6600;fill-opacity:1;fill-rule:evenodd;stroke:none;stroke-width:0.12766457px;stroke-linecap:butt;stroke-linejoin:miter;stroke-opacity:1"
         d="m 394.76609,206.89483 -0.89058,4.19843 2.41728,2.86256 c 0,0 2.29005,-1.78115 2.60811,-2.0356 0.31805,-0.25445 0.38166,-3.81675 0.0636,-4.0076 -0.31806,-0.19083 -4.19841,-1.01779 -4.19841,-1.01779 z"
         id="path1247"
         inkscape:connector-curvature="0" />
      <path
         inkscape:connector-curvature="0"
         id="path1219"
         d="m 523.32669,206.89483 -0.89058,4.19843 2.41728,2.86256 c 0,0 2.29005,-1.78115 2.60811,-2.0356 0.31805,-0.25445 0.38166,-3.81675 0.0636,-4.0076 -0.31806,-0.19083 -4.19841,-1.01779 -4.19841,-1.01779 z"
         style="fill:#ff6600;fill-opacity:1;fill-rule:evenodd;stroke:none;stroke-width:0.12766457px;stroke-linecap:butt;stroke-linejoin:miter;stroke-opacity:1" />
      <path
         inkscape:connector-curvature="0"
         id="path1235"
         d="m 287.37529,194.3055 -0.89058,4.19843 2.41728,2.86256 c 0,0 2.29005,-1.78115 2.60811,-2.0356 0.31805,-0.25445 0.38166,-3.81675 0.0636,-4.0076 -0.31806,-0.19083 -4.19841,-1.01779 -4.19841,-1.01779 z"
         style="fill:#ff6600;fill-opacity:1;fill-rule:evenodd;stroke:none;stroke-width:0.12766457px;stroke-linecap:butt;stroke-linejoin:miter;stroke-opacity:1" />
      <path
         inkscape:connector-curvature="0"
         id="path1249"
         d="m 366.07061,207.15522 -0.89058,4.19843 2.41728,2.86256 c 0,0 2.29005,-1.78115 2.60811,-2.0356 0.31805,-0.25445 0.38166,-3.81675 0.0636,-4.0076 -0.31806,-0.19083 -4.19841,-1.01779 -4.19841,-1.01779 z"
         style="fill:#ff6600;fill-opacity:1;fill-rule:evenodd;stroke:none;stroke-width:0.12766457px;stroke-linecap:butt;stroke-linejoin:miter;stroke-opacity:1" />
      <path
         style="fill:#ff6600;fill-opacity:1;fill-rule:evenodd;stroke:none;stroke-width:0.12766457px;stroke-linecap:butt;stroke-linejoin:miter;stroke-opacity:1"
         d="m 494.63121,207.15522 -0.89058,4.19843 2.41728,2.86256 c 0,0 2.29005,-1.78115 2.60811,-2.0356 0.31805,-0.25445 0.38166,-3.81675 0.0636,-4.0076 -0.31806,-0.19083 -4.19841,-1.01779 -4.19841,-1.01779 z"
         id="path1221"
         inkscape:connector-curvature="0" />
      <path
         style="fill:#ff6600;fill-opacity:1;fill-rule:evenodd;stroke:none;stroke-width:0.12766457px;stroke-linecap:butt;stroke-linejoin:miter;stroke-opacity:1"
         d="m 377.29142,205.17615 -0.045,8.09654 c 0,0 1.16949,3.2836 1.34941,3.41855 0.17993,0.13495 4.58805,1.43938 4.76797,1.34942 0.17993,-0.09 2.47394,-1.66429 2.69885,-1.79923 0.22491,-0.13494 1.79923,-5.89249 1.79923,-5.89249 l -0.85464,-5.03784 z"
         id="path1263"
         inkscape:connector-curvature="0" />
      <circle
         style="opacity:1;vector-effect:none;fill:#ffffff;fill-opacity:1;stroke:none;stroke-width:0.4173727;stroke-linecap:round;stroke-linejoin:round;stroke-miterlimit:4;stroke-dasharray:none;stroke-dashoffset:0;stroke-opacity:1;paint-order:normal"
         id="path889"
         cx="382.11975"
         cy="212.83134"
         r="3.8733795" />
      <path
         style="fill:#ff6600;fill-opacity:1;fill-rule:evenodd;stroke:none;stroke-width:0.12766457px;stroke-linecap:butt;stroke-linejoin:miter;stroke-opacity:1"
         d="m 369.76938,199.76712 c 1.96386,0.64421 4.61606,-1.17422 3.84501,-3.42528 2.63875,3.76962 1.7407,6.15188 1.7407,6.15188 0,0 -4.1466,0.98011 -4.44816,0.75392 -0.30157,-0.22618 -1.13755,-3.48052 -1.13755,-3.48052 z"
         id="path897"
         inkscape:connector-curvature="0"
         sodipodi:nodetypes="ccccc" />
      <path
         sodipodi:nodetypes="ccccc"
         inkscape:connector-curvature="0"
         id="path899"
         d="m 394.26564,199.79641 c -2.92345,0.67087 -3.1004,-0.37044 -3.50697,-1.75582 -2.63875,3.76962 -2.07874,4.48242 -2.07874,4.48242 0,0 4.1466,0.98011 4.44816,0.75392 0.30157,-0.22618 1.13755,-3.48052 1.13755,-3.48052 z"
         style="fill:#ff6600;fill-opacity:1;fill-rule:evenodd;stroke:none;stroke-width:0.12766457px;stroke-linecap:butt;stroke-linejoin:miter;stroke-opacity:1" />
      <path
         style="fill:#ff6600;fill-opacity:1;fill-rule:evenodd;stroke:none;stroke-width:0.12766457px;stroke-linecap:butt;stroke-linejoin:miter;stroke-opacity:1"
         d="m 372.07065,223.36017 c 0.0133,-1.42605 -0.9929,-2.22571 -2.77214,-1.95917 -0.17993,-0.81963 0.45313,-1.60597 0.45313,-1.60597 l 3.5918,0.0333 0.39317,1.90586 z"
         id="path905"
         inkscape:connector-curvature="0"
         sodipodi:nodetypes="cccccc" />
      <path
         sodipodi:nodetypes="cccccc"
         inkscape:connector-curvature="0"
         id="path907"
         d="m 391.83881,223.36017 c -0.0133,-1.42605 0.9929,-2.22571 2.77214,-1.95917 0.17993,-0.81963 -0.45313,-1.60597 -0.45313,-1.60597 l -3.5918,0.0333 -0.39317,1.90586 z"
         style="fill:#ff6600;fill-opacity:1;fill-rule:evenodd;stroke:none;stroke-width:0.12766457px;stroke-linecap:butt;stroke-linejoin:miter;stroke-opacity:1" />
      <path
         style="fill:#ff6600;fill-opacity:1;fill-rule:evenodd;stroke:none;stroke-width:0.12766457px;stroke-linecap:butt;stroke-linejoin:miter;stroke-opacity:1"
         d="m 369.4384,199.7431 c 2.92345,0.67087 4.6532,-1.33624 4.10002,-3.62103 2.63875,3.76962 1.48569,6.34763 1.48569,6.34763 0,0 -4.1466,0.98011 -4.44816,0.75392 -0.30157,-0.22618 -1.13755,-3.48052 -1.13755,-3.48052 z"
         id="path909"
         inkscape:connector-curvature="0"
         sodipodi:nodetypes="ccccc" />
    </g>
  </g>
</svg>
