<?xml version="1.0" encoding="UTF-8" standalone="no"?>
<!-- Created with Inkscape (http://www.inkscape.org/) -->

<svg
   xmlns:dc="http://purl.org/dc/elements/1.1/"
   xmlns:cc="http://creativecommons.org/ns#"
   xmlns:rdf="http://www.w3.org/1999/02/22-rdf-syntax-ns#"
   xmlns:svg="http://www.w3.org/2000/svg"
   xmlns="http://www.w3.org/2000/svg"
   xmlns:sodipodi="http://sodipodi.sourceforge.net/DTD/sodipodi-0.dtd"
   xmlns:inkscape="http://www.inkscape.org/namespaces/inkscape"
   width="297mm"
   height="210mm"
   viewBox="0 0 297 210"
   version="1.1"
   id="svg1426"
   inkscape:version="0.92.2 2405546, 2018-03-11"
   sodipodi:docname="personal_logo_it4.svg"
   inkscape:export-filename="/home/onur/Dropbox/design/d00025-personal-logo/personal_logo_it4.png"
   inkscape:export-xdpi="149.918"
   inkscape:export-ydpi="149.918">
  <defs
     id="defs1420" />
  <sodipodi:namedview
     id="base"
     pagecolor="#ffffff"
     bordercolor="#666666"
     borderopacity="1.0"
     inkscape:pageopacity="0.0"
     inkscape:pageshadow="2"
     inkscape:zoom="0.59104958"
     inkscape:cx="994.89599"
     inkscape:cy="121.77722"
     inkscape:document-units="mm"
     inkscape:current-layer="layer1"
     showgrid="false"
     inkscape:window-width="1920"
     inkscape:window-height="1036"
     inkscape:window-x="0"
     inkscape:window-y="20"
     inkscape:window-maximized="0"
     inkscape:snap-global="true"
     inkscape:snap-bbox="true"
     inkscape:snap-page="true"
     inkscape:bbox-paths="false"
     inkscape:bbox-nodes="false"
     inkscape:snap-bbox-edge-midpoints="false"
     inkscape:object-paths="true"
     inkscape:snap-intersection-paths="true"
     inkscape:snap-smooth-nodes="true"
     inkscape:snap-midpoints="true" />
  <metadata
     id="metadata1423">
    <rdf:RDF>
      <cc:Work
         rdf:about="">
        <dc:format>image/svg+xml</dc:format>
        <dc:type
           rdf:resource="http://purl.org/dc/dcmitype/StillImage" />
        <dc:title />
      </cc:Work>
    </rdf:RDF>
  </metadata>
  <g
     inkscape:label="Layer 1"
     inkscape:groupmode="layer"
     id="layer1"
     transform="translate(0,-87)">
    <rect
       style="opacity:1;vector-effect:none;fill:#f9f9f9;fill-opacity:1;stroke:none;stroke-width:0.12347222;stroke-linecap:round;stroke-linejoin:round;stroke-miterlimit:4;stroke-dasharray:none;stroke-dashoffset:0;stroke-opacity:1;paint-order:normal"
       id="rect918"
       width="297"
       height="210"
       x="0"
       y="87" />
    <g
       style="fill:#1a535c;fill-opacity:1;stroke-width:1.53715026"
       id="g901"
       transform="matrix(0.65055448,0,0,0.65055448,-337.65701,-80.666681)">
      <path
         style="opacity:1;vector-effect:none;fill:#119da4;fill-opacity:1;stroke:none;stroke-width:37.71141434;stroke-linecap:round;stroke-linejoin:round;stroke-miterlimit:4;stroke-dasharray:none;stroke-dashoffset:0;stroke-opacity:1;paint-order:normal"
         d="m 1255.9941,1261.2539 a 24.000002,24.000002 0 0 0 -24,24 24.000002,24.000002 0 0 0 24,24 h 46.3067 a 40.000006,40.000006 0 0 1 40,40 40.000006,40.000006 0 0 1 -40,40 h -139.9531 a 83.999995,83.999591 0 0 1 -17.7793,8 h 157.7324 a 48.000004,48.000004 0 0 0 48,-48 48.000004,48.000004 0 0 0 -48,-48 h -46.3067 a 16.000003,16.000003 0 0 1 -16,-16 16.000003,16.000003 0 0 1 16,-16 v 0.014 h 81.8379 v -8 h -81.8379 z"
         id="path889"
         transform="scale(0.26458333)"
         inkscape:connector-curvature="0" />
      <path
         style="opacity:1;vector-effect:none;fill:#4ecdc4;fill-opacity:1;stroke:none;stroke-width:37.71141434;stroke-linecap:round;stroke-linejoin:round;stroke-miterlimit:4;stroke-dasharray:none;stroke-dashoffset:0;stroke-opacity:1;paint-order:normal"
         d="m 1255.9941,1249.2539 a 35.999995,35.999995 0 0 0 -36,36 35.999995,35.999995 0 0 0 36,36 h 46.3067 a 27.999986,27.999986 0 0 1 28,28 27.999986,27.999986 0 0 1 -28,28 h -124.2891 a 83.999995,83.999591 0 0 1 -9.6211,8 h 133.9102 a 35.999995,35.999995 0 0 0 36,-36 35.999995,35.999995 0 0 0 -36,-36 h -46.3067 a 27.999986,27.999986 0 0 1 -28,-28 27.999986,27.999986 0 0 1 28,-28 v 0.014 h 81.8379 v -8 h -81.8379 z"
         transform="scale(0.26458333)"
         id="path891"
         inkscape:connector-curvature="0" />
      <path
         style="opacity:1;vector-effect:none;fill:#7ac74f;fill-opacity:1;stroke:none;stroke-width:37.71141434;stroke-linecap:round;stroke-linejoin:round;stroke-miterlimit:4;stroke-dasharray:none;stroke-dashoffset:0;stroke-opacity:1;paint-order:normal"
         d="m 1255.9941,1237.2539 a 48.000004,48.000004 0 0 0 -48,48 48.000004,48.000004 0 0 0 48,48 h 46.3067 a 16.000003,16.000003 0 0 1 16,16 16.000003,16.000003 0 0 1 -16,16 h -114.1602 a 83.999995,83.999591 0 0 1 -6.4023,8 h 120.5625 a 24.000002,24.000002 0 0 0 24,-24 24.000002,24.000002 0 0 0 -24,-24 h -46.3067 a 40.000006,40.000006 0 0 1 -40,-40 40.000006,40.000006 0 0 1 40,-40 v 0.014 h 81.8379 v -8 h -81.8379 z"
         transform="scale(0.26458333)"
         id="path893"
         inkscape:connector-curvature="0" />
      <path
         style="opacity:1;vector-effect:none;fill:#119da4;fill-opacity:1;stroke:none;stroke-width:37.71142197;stroke-linecap:round;stroke-linejoin:round;stroke-miterlimit:4;stroke-dasharray:none;stroke-dashoffset:0;stroke-opacity:1;paint-order:normal"
         d="m 1119.2363,1237.2676 c -44.1829,0 -80.0002,35.8173 -80,80 0.021,15.642 4.6268,30.9347 13.2481,43.9863 h 9.8008 c -9.7421,-12.5947 -15.0344,-28.0635 -15.0489,-43.9863 -2e-4,-39.7644 32.2354,-72 72,-72 39.7646,0 72.0002,32.2356 72,72 -0.018,39.2565 -31.4802,71.262 -70.7285,71.9551 -0.01,10e-5 -0.013,-2e-4 -0.02,0 h -102.6231 v 7.9804 h 102.6231 c 0.01,-10e-5 0.013,10e-5 0.02,0 43.659,-0.6938 78.6988,-36.2687 78.7285,-79.9355 2e-4,-44.1827 -35.8171,-80 -80,-80 z"
         transform="scale(0.26458333)"
         id="path895"
         inkscape:connector-curvature="0" />
      <path
         style="opacity:1;vector-effect:none;fill:#4ecdc4;fill-opacity:1;stroke:none;stroke-width:37.71142197;stroke-linecap:round;stroke-linejoin:round;stroke-miterlimit:4;stroke-dasharray:none;stroke-dashoffset:0;stroke-opacity:1;paint-order:normal"
         d="m 1119.2363,1249.2676 c -37.5555,0 -68.0002,30.4447 -68,68 0,16.1134 5.7307,31.7017 16.1582,43.9863 h 11.1446 c -12.2788,-11.3344 -19.2746,-27.2759 -19.3028,-43.9863 -2e-4,-33.137 26.8628,-60 60,-60 33.1372,0 60.0002,26.863 60,60 -0.017,32.6367 -26.1182,59.2741 -58.748,59.9551 h -102.6426 v 7.9824 h 102.6426 c 37.0414,-0.6821 66.7204,-30.8901 66.748,-67.9375 2e-4,-37.5553 -30.4445,-68 -68,-68 z"
         transform="scale(0.26458333)"
         id="path897"
         inkscape:connector-curvature="0" />
      <path
         style="opacity:1;vector-effect:none;fill:#7ac74f;fill-opacity:1;stroke:none;stroke-width:37.71142197;stroke-linecap:round;stroke-linejoin:round;stroke-miterlimit:4;stroke-dasharray:none;stroke-dashoffset:0;stroke-opacity:1;paint-order:normal"
         d="m 1119.2363,1261.2676 c -30.9281,0 -56.0002,25.0721 -56,56 0,17.1603 7.8762,33.3713 21.3594,43.9863 h 15.4844 c -17.5075,-7.6202 -28.8337,-24.8924 -28.8438,-43.9863 0,-26.5096 21.4903,-47.9999 48,-48 26.5097,1e-4 48,21.4904 48,48 -0.015,26.0108 -20.7459,47.2765 -46.748,47.9551 h -102.6426 v 7.9824 h 2.2793 100.3633 c 30.4138,-0.6801 54.7218,-25.5163 54.748,-55.9375 2e-4,-30.9279 -25.0719,-56 -56,-56 z"
         transform="scale(0.26458333)"
         id="path899"
         inkscape:connector-curvature="0" />
    </g>
    <text
       id="text905"
       y="182.56578"
       x="-112.9411"
       style="font-style:normal;font-weight:normal;font-size:20.29969406px;line-height:31.71827316px;font-family:sans-serif;text-align:center;letter-spacing:0px;word-spacing:0px;text-anchor:middle;fill:#1a1a1a;fill-opacity:1;stroke:none;stroke-width:0.26458341px;stroke-linecap:butt;stroke-linejoin:miter;stroke-opacity:1"
       xml:space="preserve"><tspan
         id="tspan903"
         style="font-style:normal;font-variant:normal;font-weight:bold;font-stretch:normal;line-height:0px;font-family:'Avenir LT Std';-inkscape-font-specification:'Avenir LT Std weight=760';text-align:start;text-anchor:start;fill:#1a1a1a;stroke-width:0.26458341px"
         y="182.56578"
         x="-112.9411"
         sodipodi:role="line">onur</tspan></text>
    <path
       style="opacity:1;vector-effect:none;fill:#119da4;fill-opacity:1;stroke:none;stroke-width:24.53333092;stroke-linecap:round;stroke-linejoin:round;stroke-miterlimit:4;stroke-dasharray:none;stroke-dashoffset:0;stroke-opacity:1;paint-order:normal"
       d="m 649.03516,294.98242 c -15.58164,-2.1e-4 -28.2131,12.63125 -28.21289,28.21289 -2.1e-4,15.58164 12.63125,28.2131 28.21289,28.21289 h 54.43359 c 25.9694,-3.5e-4 47.02184,21.05209 47.02148,47.02149 -7.2e-4,25.96863 -21.05285,47.01988 -47.02148,47.01953 H 538.95117 c -6.57815,3.93538 -13.59218,7.0914 -20.90039,9.4043 h 185.41797 c 31.16251,4.3e-4 56.42513,-25.26132 56.42578,-56.42383 4.3e-4,-31.16328 -25.2625,-56.42621 -56.42578,-56.42578 h -54.43359 c -10.38776,1.5e-4 -18.80875,-8.42084 -18.8086,-18.8086 -1.4e-4,-10.38776 8.42084,-18.80874 18.8086,-18.80859 v 0.0156 l 91.46912,0 c 2.59694,5.8e-4 4.70262,-2.10423 4.70312,-4.70117 5.8e-4,-2.5977 -2.10542,-4.7037 -4.70312,-4.70312 l -91.46912,0 z"
       transform="matrix(0.26458333,0,0,0.26458333,0,87)"
       id="path885"
       inkscape:connector-curvature="0"
       sodipodi:nodetypes="cccccccccccccccccccc" />
    <path
       style="opacity:1;vector-effect:none;fill:#4ecdc4;fill-opacity:1;stroke:none;stroke-width:24.53333092;stroke-linecap:round;stroke-linejoin:round;stroke-miterlimit:4;stroke-dasharray:none;stroke-dashoffset:0;stroke-opacity:1;paint-order:normal"
       d="m 649.03516,280.87695 c -23.3717,2.1e-4 -42.31815,18.94666 -42.31836,42.31836 2.1e-4,23.3717 18.94666,42.31815 42.31836,42.31836 h 54.43359 c 18.17935,-8e-4 32.91682,14.73667 32.91602,32.91602 -2.8e-4,18.17858 -14.73744,32.91486 -32.91602,32.91406 H 557.36523 c -3.53112,3.41161 -7.31179,6.5551 -11.31054,9.4043 h 157.41406 c 23.37246,8.6e-4 42.3201,-18.9459 42.32031,-42.31836 8.6e-4,-23.37322 -18.94709,-42.32117 -42.32031,-42.32031 h -54.43359 c -18.17782,-2.8e-4 -32.91379,-14.73625 -32.91407,-32.91407 2.8e-4,-18.17782 14.73625,-32.91378 32.91407,-32.91406 v 0.0156 h 86.52559 c 2.5977,5.8e-4 4.7037,-2.10543 4.70312,-4.70313 -5e-4,-2.59694 -2.10618,-4.70175 -4.70312,-4.70117 h -86.52559 z"
       transform="matrix(0.26458333,0,0,0.26458333,0,87)"
       id="path887"
       inkscape:connector-curvature="0"
       sodipodi:nodetypes="cccccccccccccccccccc" />
    <path
       style="opacity:1;vector-effect:none;fill:#7ac74f;fill-opacity:1;stroke:none;stroke-width:24.53333092;stroke-linecap:round;stroke-linejoin:round;stroke-miterlimit:4;stroke-dasharray:none;stroke-dashoffset:0;stroke-opacity:1;paint-order:normal"
       d="m 649.03516,266.77148 c -31.16251,-4.3e-4 -56.42513,25.26132 -56.42578,56.42383 -4.3e-4,31.16328 25.2625,56.42621 56.42578,56.42578 h 54.43359 c 10.38776,-1.4e-4 18.80874,8.42084 18.80859,18.8086 1.4e-4,10.38776 -8.42083,18.80873 -18.80859,18.80859 H 569.27148 c -2.31482,3.28431 -4.82796,6.42426 -7.52539,9.40234 h 141.72266 c 15.58087,2.1e-4 28.21202,-12.63006 28.21289,-28.21093 2.1e-4,-15.58164 -12.63125,-28.2131 -28.21289,-28.21289 h -54.43359 c -25.9694,3.6e-4 -47.02185,-21.05209 -47.02149,-47.02149 -3.5e-4,-25.9694 21.05209,-47.02184 47.02149,-47.02148 v 0.0156 h 81.52918 c 2.59694,5.8e-4 4.70262,-2.10423 4.70312,-4.70117 5.8e-4,-2.5977 -2.10542,-4.7037 -4.70312,-4.70312 h -81.52918 z"
       transform="matrix(0.26458333,0,0,0.26458333,0,87)"
       id="path890"
       inkscape:connector-curvature="0"
       sodipodi:nodetypes="cccccccccccccccccccc" />
    <path
       style="opacity:1;vector-effect:none;fill:#119da4;fill-opacity:1;stroke:none;stroke-width:24.53333473;stroke-linecap:round;stroke-linejoin:round;stroke-miterlimit:4;stroke-dasharray:none;stroke-dashoffset:0;stroke-opacity:1;paint-order:normal"
       d="m 488.27148,266.78711 c -51.93702,0.001 -94.03928,42.104 -94.03906,94.04101 0.0265,18.38752 5.43773,36.36461 15.57227,51.70704 h 11.52148 c -11.45204,-14.80532 -17.67241,-32.98945 -17.68945,-51.70704 -2.7e-4,-46.74387 37.89258,-84.63671 84.63672,-84.63671 46.7441,0 84.63694,37.89284 84.63672,84.63671 -0.0227,46.14686 -37.0054,83.77119 -83.14258,84.58594 -0.0113,1.2e-4 -0.0139,-2.2e-4 -0.0215,0 l -106.07045,0 c -2.59092,1.9e-4 -4.69122,2.10049 -4.69141,4.69141 1.9e-4,2.59092 2.10049,4.69122 4.69141,4.69141 40.20684,-0.004 65.85787,-0.002 106.06851,-0.002 0.0113,-1.1e-4 0.0159,1.2e-4 0.0234,0 51.32205,-0.81558 92.51195,-42.63556 92.54687,-93.9668 2.3e-4,-51.93701 -42.10398,-94.03995 -94.04101,-94.04101 z"
       transform="matrix(0.26458333,0,0,0.26458333,0,87)"
       id="path892"
       inkscape:connector-curvature="0"
       sodipodi:nodetypes="cccccsccccccccccc" />
    <path
       style="opacity:1;vector-effect:none;fill:#4ecdc4;fill-opacity:1;stroke:none;stroke-width:24.53333473;stroke-linecap:round;stroke-linejoin:round;stroke-miterlimit:4;stroke-dasharray:none;stroke-dashoffset:0;stroke-opacity:1;paint-order:normal"
       d="m 488.27344,280.89258 c -44.14727,0 -79.93578,35.78851 -79.93555,79.93554 0,18.94167 6.73638,37.26626 18.99414,51.70704 h 13.10156 c -14.43397,-13.32382 -22.65826,-32.06358 -22.6914,-51.70704 -2.7e-4,-38.9532 31.57777,-70.53125 70.53125,-70.53124 38.95347,0 70.53151,31.57804 70.53125,70.53124 -0.0189,38.36516 -30.70352,69.67802 -69.06055,70.47852 l -111.03549,0 c -2.59091,1.9e-4 -4.69122,2.10049 -4.69141,4.69141 2e-4,2.59091 2.1005,4.69121 4.69141,4.6914 l 111.03549,0 c 43.54295,-0.80179 78.43238,-36.3113 78.46484,-79.86133 2.3e-4,-44.14703 -35.78828,-79.93554 -79.93554,-79.93554 z"
       transform="matrix(0.26458333,0,0,0.26458333,0,87)"
       id="path894"
       inkscape:connector-curvature="0"
       sodipodi:nodetypes="sccccscccccccs" />
    <path
       style="opacity:1;vector-effect:none;fill:#7ac74f;fill-opacity:1;stroke:none;stroke-width:24.53333473;stroke-linecap:round;stroke-linejoin:round;stroke-miterlimit:4;stroke-dasharray:none;stroke-dashoffset:0;stroke-opacity:1;paint-order:normal"
       d="m 488.27344,295 c -36.35664,0 -65.83031,29.47175 -65.83008,65.82812 0,20.17233 9.25959,39.22889 25.10937,51.70704 h 18.20118 c -20.58044,-8.95767 -33.89435,-29.26174 -33.90625,-51.70704 0,-31.16258 25.26308,-56.42371 56.42578,-56.42382 31.16269,1.1e-4 56.42578,25.26124 56.42578,56.42382 -0.0189,30.57627 -24.38906,55.57534 -54.95508,56.37305 l -115.87328,0 c -2.59092,1.9e-4 -4.69122,2.10049 -4.69141,4.69141 2e-4,2.59091 2.1005,4.69121 4.69141,4.6914 l 115.87328,0 c 35.75206,-0.79948 64.32662,-29.9951 64.35742,-65.75586 C 554.10179,324.47175 524.63007,295 488.27344,295 Z"
       transform="matrix(0.26458333,0,0,0.26458333,0,87)"
       id="path896"
       inkscape:connector-curvature="0"
       sodipodi:nodetypes="sccccccccccccs" />
    <g
       style="fill:#1a535c;fill-opacity:1;stroke-width:0.85068673"
       id="g851"
       transform="matrix(1.1755209,0,0,1.1755209,175.01247,-227.23164)">
      <path
         style="opacity:1;vector-effect:none;fill:#119da4;fill-opacity:1;stroke:none;stroke-width:20.87017822;stroke-linecap:round;stroke-linejoin:round;stroke-miterlimit:4;stroke-dasharray:none;stroke-dashoffset:0;stroke-opacity:1;paint-order:normal"
         d="m 1255.9941,1261.2539 a 24.000002,24.000002 0 0 0 -24,24 24.000002,24.000002 0 0 0 24,24 h 46.3067 a 40.000006,40.000006 0 0 1 40,40 40.000006,40.000006 0 0 1 -40,40 h -139.9531 a 83.999995,83.999591 0 0 1 -17.7793,8 h 157.7324 a 48.000004,48.000004 0 0 0 48,-48 48.000004,48.000004 0 0 0 -48,-48 h -46.3067 a 16.000003,16.000003 0 0 1 -16,-16 16.000003,16.000003 0 0 1 16,-16 v 0.014 h 81.8379 v -8 h -81.8379 z"
         id="path839"
         transform="scale(0.26458333)"
         inkscape:connector-curvature="0" />
      <path
         style="opacity:1;vector-effect:none;fill:#4ecdc4;fill-opacity:1;stroke:none;stroke-width:20.87017822;stroke-linecap:round;stroke-linejoin:round;stroke-miterlimit:4;stroke-dasharray:none;stroke-dashoffset:0;stroke-opacity:1;paint-order:normal"
         d="m 1255.9941,1249.2539 a 35.999995,35.999995 0 0 0 -36,36 35.999995,35.999995 0 0 0 36,36 h 46.3067 a 27.999986,27.999986 0 0 1 28,28 27.999986,27.999986 0 0 1 -28,28 h -124.2891 a 83.999995,83.999591 0 0 1 -9.6211,8 h 133.9102 a 35.999995,35.999995 0 0 0 36,-36 35.999995,35.999995 0 0 0 -36,-36 h -46.3067 a 27.999986,27.999986 0 0 1 -28,-28 27.999986,27.999986 0 0 1 28,-28 v 0.014 h 81.8379 v -8 h -81.8379 z"
         transform="scale(0.26458333)"
         id="path841"
         inkscape:connector-curvature="0" />
      <path
         style="opacity:1;vector-effect:none;fill:#7ac74f;fill-opacity:1;stroke:none;stroke-width:20.87017822;stroke-linecap:round;stroke-linejoin:round;stroke-miterlimit:4;stroke-dasharray:none;stroke-dashoffset:0;stroke-opacity:1;paint-order:normal"
         d="m 1255.9941,1237.2539 a 48.000004,48.000004 0 0 0 -48,48 48.000004,48.000004 0 0 0 48,48 h 46.3067 a 16.000003,16.000003 0 0 1 16,16 16.000003,16.000003 0 0 1 -16,16 h -114.1602 a 83.999995,83.999591 0 0 1 -6.4023,8 h 120.5625 a 24.000002,24.000002 0 0 0 24,-24 24.000002,24.000002 0 0 0 -24,-24 h -46.3067 a 40.000006,40.000006 0 0 1 -40,-40 40.000006,40.000006 0 0 1 40,-40 v 0.014 h 81.8379 v -8 h -81.8379 z"
         transform="scale(0.26458333)"
         id="path843"
         inkscape:connector-curvature="0" />
      <path
         style="opacity:1;vector-effect:none;fill:#119da4;fill-opacity:1;stroke:none;stroke-width:20.87018204;stroke-linecap:round;stroke-linejoin:round;stroke-miterlimit:4;stroke-dasharray:none;stroke-dashoffset:0;stroke-opacity:1;paint-order:normal"
         d="m 1119.2363,1237.2676 c -44.1829,0 -80.0002,35.8173 -80,80 0.021,15.642 4.6268,30.9347 13.2481,43.9863 h 9.8008 c -9.7421,-12.5947 -15.0344,-28.0635 -15.0489,-43.9863 -2e-4,-39.7644 32.2354,-72 72,-72 39.7646,0 72.0002,32.2356 72,72 -0.018,39.2565 -31.4802,71.262 -70.7285,71.9551 -0.01,10e-5 -0.013,-2e-4 -0.02,0 h -102.6231 v 7.9804 h 102.6231 c 0.01,-10e-5 0.013,10e-5 0.02,0 43.659,-0.6938 78.6988,-36.2687 78.7285,-79.9355 2e-4,-44.1827 -35.8171,-80 -80,-80 z"
         transform="scale(0.26458333)"
         id="path845"
         inkscape:connector-curvature="0" />
      <path
         style="opacity:1;vector-effect:none;fill:#4ecdc4;fill-opacity:1;stroke:none;stroke-width:20.87018204;stroke-linecap:round;stroke-linejoin:round;stroke-miterlimit:4;stroke-dasharray:none;stroke-dashoffset:0;stroke-opacity:1;paint-order:normal"
         d="m 1119.2363,1249.2676 c -37.5555,0 -68.0002,30.4447 -68,68 0,16.1134 5.7307,31.7017 16.1582,43.9863 h 11.1446 c -12.2788,-11.3344 -19.2746,-27.2759 -19.3028,-43.9863 -2e-4,-33.137 26.8628,-60 60,-60 33.1372,0 60.0002,26.863 60,60 -0.017,32.6367 -26.1182,59.2741 -58.748,59.9551 h -102.6426 v 7.9824 h 102.6426 c 37.0414,-0.6821 66.7204,-30.8901 66.748,-67.9375 2e-4,-37.5553 -30.4445,-68 -68,-68 z"
         transform="scale(0.26458333)"
         id="path847"
         inkscape:connector-curvature="0" />
      <path
         style="opacity:1;vector-effect:none;fill:#7ac74f;fill-opacity:1;stroke:none;stroke-width:20.87018204;stroke-linecap:round;stroke-linejoin:round;stroke-miterlimit:4;stroke-dasharray:none;stroke-dashoffset:0;stroke-opacity:1;paint-order:normal"
         d="m 1119.2363,1261.2676 c -30.9281,0 -56.0002,25.0721 -56,56 0,17.1603 7.8762,33.3713 21.3594,43.9863 h 15.4844 c -17.5075,-7.6202 -28.8337,-24.8924 -28.8438,-43.9863 0,-26.5096 21.4903,-47.9999 48,-48 26.5097,1e-4 48,21.4904 48,48 -0.015,26.0108 -20.7459,47.2765 -46.748,47.9551 h -102.6426 v 7.9824 h 2.2793 100.3633 c 30.4138,-0.6801 54.7218,-25.5163 54.748,-55.9375 2e-4,-30.9279 -25.0719,-56 -56,-56 z"
         transform="scale(0.26458333)"
         id="path849"
         inkscape:connector-curvature="0" />
    </g>
    <g
       transform="matrix(1.1755209,0,0,1.1755209,43.403378,-227.23164)"
       id="g869"
       style="fill:#1a535c;fill-opacity:1;stroke-width:0.85068673">
      <path
         inkscape:connector-curvature="0"
         transform="scale(0.26458333)"
         id="path857"
         d="m 1255.9941,1261.2539 a 24.000002,24.000002 0 0 0 -24,24 24.000002,24.000002 0 0 0 24,24 h 46.3067 a 40.000006,40.000006 0 0 1 40,40 40.000006,40.000006 0 0 1 -40,40 h -139.9531 a 83.999995,83.999591 0 0 1 -17.7793,8 h 157.7324 a 48.000004,48.000004 0 0 0 48,-48 48.000004,48.000004 0 0 0 -48,-48 h -46.3067 a 16.000003,16.000003 0 0 1 -16,-16 16.000003,16.000003 0 0 1 16,-16 v 0.014 h 81.8379 v -8 h -81.8379 z"
         style="opacity:1;vector-effect:none;fill:#119da4;fill-opacity:1;stroke:none;stroke-width:20.87017822;stroke-linecap:round;stroke-linejoin:round;stroke-miterlimit:4;stroke-dasharray:none;stroke-dashoffset:0;stroke-opacity:1;paint-order:normal" />
      <path
         inkscape:connector-curvature="0"
         id="path859"
         transform="scale(0.26458333)"
         d="m 1255.9941,1249.2539 a 35.999995,35.999995 0 0 0 -36,36 35.999995,35.999995 0 0 0 36,36 h 46.3067 a 27.999986,27.999986 0 0 1 28,28 27.999986,27.999986 0 0 1 -28,28 h -124.2891 a 83.999995,83.999591 0 0 1 -9.6211,8 h 133.9102 a 35.999995,35.999995 0 0 0 36,-36 35.999995,35.999995 0 0 0 -36,-36 h -46.3067 a 27.999986,27.999986 0 0 1 -28,-28 27.999986,27.999986 0 0 1 28,-28 v 0.014 h 81.8379 v -8 h -81.8379 z"
         style="opacity:1;vector-effect:none;fill:#4ecdc4;fill-opacity:1;stroke:none;stroke-width:20.87017822;stroke-linecap:round;stroke-linejoin:round;stroke-miterlimit:4;stroke-dasharray:none;stroke-dashoffset:0;stroke-opacity:1;paint-order:normal" />
      <path
         inkscape:connector-curvature="0"
         id="path861"
         transform="scale(0.26458333)"
         d="m 1255.9941,1237.2539 a 48.000004,48.000004 0 0 0 -48,48 48.000004,48.000004 0 0 0 48,48 h 46.3067 a 16.000003,16.000003 0 0 1 16,16 16.000003,16.000003 0 0 1 -16,16 h -114.1602 a 83.999995,83.999591 0 0 1 -6.4023,8 h 120.5625 a 24.000002,24.000002 0 0 0 24,-24 24.000002,24.000002 0 0 0 -24,-24 h -46.3067 a 40.000006,40.000006 0 0 1 -40,-40 40.000006,40.000006 0 0 1 40,-40 v 0.014 h 81.8379 v -8 h -81.8379 z"
         style="opacity:1;vector-effect:none;fill:#7ac74f;fill-opacity:1;stroke:none;stroke-width:20.87017822;stroke-linecap:round;stroke-linejoin:round;stroke-miterlimit:4;stroke-dasharray:none;stroke-dashoffset:0;stroke-opacity:1;paint-order:normal" />
      <path
         inkscape:connector-curvature="0"
         id="path863"
         transform="scale(0.26458333)"
         d="m 1119.2363,1237.2676 c -44.1829,0 -80.0002,35.8173 -80,80 0.021,15.642 4.6268,30.9347 13.2481,43.9863 h 9.8008 c -9.7421,-12.5947 -15.0344,-28.0635 -15.0489,-43.9863 -2e-4,-39.7644 32.2354,-72 72,-72 39.7646,0 72.0002,32.2356 72,72 -0.018,39.2565 -31.4802,71.262 -70.7285,71.9551 -0.01,10e-5 -0.013,-2e-4 -0.02,0 h -102.6231 v 7.9804 h 102.6231 c 0.01,-10e-5 0.013,10e-5 0.02,0 43.659,-0.6938 78.6988,-36.2687 78.7285,-79.9355 2e-4,-44.1827 -35.8171,-80 -80,-80 z"
         style="opacity:1;vector-effect:none;fill:#119da4;fill-opacity:1;stroke:none;stroke-width:20.87018204;stroke-linecap:round;stroke-linejoin:round;stroke-miterlimit:4;stroke-dasharray:none;stroke-dashoffset:0;stroke-opacity:1;paint-order:normal" />
      <path
         inkscape:connector-curvature="0"
         id="path865"
         transform="scale(0.26458333)"
         d="m 1119.2363,1249.2676 c -37.5555,0 -68.0002,30.4447 -68,68 0,16.1134 5.7307,31.7017 16.1582,43.9863 h 11.1446 c -12.2788,-11.3344 -19.2746,-27.2759 -19.3028,-43.9863 -2e-4,-33.137 26.8628,-60 60,-60 33.1372,0 60.0002,26.863 60,60 -0.017,32.6367 -26.1182,59.2741 -58.748,59.9551 h -102.6426 v 7.9824 h 102.6426 c 37.0414,-0.6821 66.7204,-30.8901 66.748,-67.9375 2e-4,-37.5553 -30.4445,-68 -68,-68 z"
         style="opacity:1;vector-effect:none;fill:#4ecdc4;fill-opacity:1;stroke:none;stroke-width:20.87018204;stroke-linecap:round;stroke-linejoin:round;stroke-miterlimit:4;stroke-dasharray:none;stroke-dashoffset:0;stroke-opacity:1;paint-order:normal" />
      <path
         inkscape:connector-curvature="0"
         id="path867"
         transform="scale(0.26458333)"
         d="m 1119.2363,1261.2676 c -30.9281,0 -56.0002,25.0721 -56,56 0,17.1603 7.8762,33.3713 21.3594,43.9863 h 15.4844 c -17.5075,-7.6202 -28.8337,-24.8924 -28.8438,-43.9863 0,-26.5096 21.4903,-47.9999 48,-48 26.5097,1e-4 48,21.4904 48,48 -0.015,26.0108 -20.7459,47.2765 -46.748,47.9551 h -102.6426 v 7.9824 h 2.2793 100.3633 c 30.4138,-0.6801 54.7218,-25.5163 54.748,-55.9375 2e-4,-30.9279 -25.0719,-56 -56,-56 z"
         style="opacity:1;vector-effect:none;fill:#7ac74f;fill-opacity:1;stroke:none;stroke-width:20.87018204;stroke-linecap:round;stroke-linejoin:round;stroke-miterlimit:4;stroke-dasharray:none;stroke-dashoffset:0;stroke-opacity:1;paint-order:normal" />
    </g>
    <text
       xml:space="preserve"
       style="font-style:normal;font-weight:normal;font-size:16.18436432px;line-height:25.28807068px;font-family:sans-serif;text-align:center;letter-spacing:0px;word-spacing:0px;text-anchor:middle;fill:#333333;fill-opacity:1;stroke:none;stroke-width:0.26458341px;stroke-linecap:butt;stroke-linejoin:miter;stroke-opacity:1"
       x="148.53224"
       y="226.22272"
       id="text925"><tspan
         sodipodi:role="line"
         x="148.48196"
         y="226.22272"
         style="font-style:normal;font-variant:normal;font-weight:bold;font-stretch:normal;line-height:0px;font-family:'Gotham Rounded';-inkscape-font-specification:'Gotham Rounded Bold';text-align:center;letter-spacing:-0.10054167px;text-anchor:middle;fill:#333333;stroke-width:0.26458341px"
         id="tspan881">ONUR SOLMAZ</tspan></text>
    <text
       xml:space="preserve"
       style="font-style:normal;font-weight:normal;font-size:4.23333311px;line-height:6.61458302px;font-family:sans-serif;text-align:center;letter-spacing:0px;word-spacing:0px;text-anchor:middle;fill:#000000;fill-opacity:1;stroke:none;stroke-width:0.26458332px;stroke-linecap:butt;stroke-linejoin:miter;stroke-opacity:1"
       x="-54.436459"
       y="57.479572"
       id="text875"><tspan
         sodipodi:role="line"
         id="tspan873"
         x="-54.436459"
         y="57.479572"
         style="stroke-width:0.26458332px">Blue Green</tspan><tspan
         sodipodi:role="line"
         x="-54.436459"
         y="64.094154"
         style="stroke-width:0.26458332px"
         id="tspan877">Medium Turquoise</tspan><tspan
         sodipodi:role="line"
         x="-54.436459"
         y="70.70874"
         style="stroke-width:0.26458332px"
         id="tspan879">Mantis</tspan></text>
    <text
       id="text887"
       y="203.64305"
       x="-112.9411"
       style="font-style:normal;font-weight:normal;font-size:20.29969406px;line-height:31.71827316px;font-family:sans-serif;text-align:center;letter-spacing:0px;word-spacing:0px;text-anchor:middle;fill:#1a1a1a;fill-opacity:1;stroke:none;stroke-width:0.26458341px;stroke-linecap:butt;stroke-linejoin:miter;stroke-opacity:1"
       xml:space="preserve"><tspan
         id="tspan885"
         style="font-style:normal;font-variant:normal;font-weight:bold;font-stretch:normal;line-height:0px;font-family:'Avenir LT Std';-inkscape-font-specification:'Avenir LT Std weight=760';text-align:start;text-anchor:start;fill:#1a1a1a;stroke-width:0.26458341px"
         y="203.64305"
         x="-112.9411"
         sodipodi:role="line">solmaz</tspan></text>
    <path
       style="opacity:1;vector-effect:none;fill:#f9f9f9;fill-opacity:1;stroke:none;stroke-width:0.12347222;stroke-linecap:round;stroke-linejoin:round;stroke-miterlimit:4;stroke-dasharray:none;stroke-dashoffset:0;stroke-opacity:1;paint-order:normal"
       d="m 345.22635,195.88741 v 13.37179 h 19.90008 v -1.93373 a 4.9737816,4.9737816 0 0 1 -0.1757,0.006 4.9737816,4.9737816 0 0 1 -4.97386,-4.97334 4.9737816,4.9737816 0 0 1 4.97386,-4.97386 4.9737816,4.9737816 0 0 1 0.1757,0.009 v -1.50585 z"
       id="rect847"
       inkscape:connector-curvature="0" />
    <path
       inkscape:connector-curvature="0"
       style="opacity:1;vector-effect:none;fill:#f9f9f9;fill-opacity:1;stroke:none;stroke-width:0.12347222;stroke-linecap:round;stroke-linejoin:round;stroke-miterlimit:4;stroke-dasharray:none;stroke-dashoffset:0;stroke-opacity:1;paint-order:normal"
       d="m 592.1807,157.20178 v 3.36373 h -5.00595 v -0.48644 a 1.2511769,1.2511769 0 0 0 0.0442,0.002 1.2511769,1.2511769 0 0 0 1.25119,-1.25108 1.2511769,1.2511769 0 0 0 -1.25119,-1.25119 1.2511769,1.2511769 0 0 0 -0.0442,0.002 v -0.3788 z"
       id="path855" />
    <path
       id="path854"
       d="m 474.22771,156.08811 v 13.37179 h -19.90008 v -1.93373 a 4.9737816,4.9737816 0 0 0 0.1757,0.006 4.9737816,4.9737816 0 0 0 4.97386,-4.97334 4.9737816,4.9737816 0 0 0 -4.97386,-4.97386 4.9737816,4.9737816 0 0 0 -0.1757,0.009 v -1.50585 z"
       style="opacity:1;vector-effect:none;fill:#f9f9f9;fill-opacity:1;stroke:none;stroke-width:0.12347222;stroke-linecap:round;stroke-linejoin:round;stroke-miterlimit:4;stroke-dasharray:none;stroke-dashoffset:0;stroke-opacity:1;paint-order:normal"
       inkscape:connector-curvature="0" />
    <path
       id="path858"
       d="m 593.49568,160.9411 v 3.36373 h -5.00595 v -0.48644 a 1.2511769,1.2511769 0 0 0 0.0442,0.002 1.2511769,1.2511769 0 0 0 1.25119,-1.25108 1.2511769,1.2511769 0 0 0 -1.25119,-1.25119 1.2511769,1.2511769 0 0 0 -0.0442,0.002 v -0.3788 z"
       style="opacity:1;vector-effect:none;fill:#f9f9f9;fill-opacity:1;stroke:none;stroke-width:0.12347222;stroke-linecap:round;stroke-linejoin:round;stroke-miterlimit:4;stroke-dasharray:none;stroke-dashoffset:0;stroke-opacity:1;paint-order:normal"
       inkscape:connector-curvature="0" />
    <path
       inkscape:connector-curvature="0"
       style="opacity:1;vector-effect:none;fill:#f9f9f9;fill-opacity:1;stroke:none;stroke-width:0.12347222;stroke-linecap:round;stroke-linejoin:round;stroke-miterlimit:4;stroke-dasharray:none;stroke-dashoffset:0;stroke-opacity:1;paint-order:normal"
       d="m 594.81065,164.66588 v 3.36373 h -5.00595 v -0.48644 a 1.2511769,1.2511769 0 0 0 0.0442,0.002 1.2511769,1.2511769 0 0 0 1.25119,-1.25108 1.2511769,1.2511769 0 0 0 -1.25119,-1.25119 1.2511769,1.2511769 0 0 0 -0.0442,0.002 v -0.3788 z"
       id="path860" />
    <path
       inkscape:connector-curvature="0"
       style="opacity:1;vector-effect:none;fill:#f9f9f9;fill-opacity:1;stroke:none;stroke-width:0.12347222;stroke-linecap:round;stroke-linejoin:round;stroke-miterlimit:4;stroke-dasharray:none;stroke-dashoffset:0;stroke-opacity:1;paint-order:normal"
       d="m 487.89201,197.00918 v 3.36373 h 5.00595 v -0.48644 a 1.2511769,1.2511769 0 0 1 -0.0442,0.002 1.2511769,1.2511769 0 0 1 -1.25119,-1.25108 1.2511769,1.2511769 0 0 1 1.25119,-1.25119 1.2511769,1.2511769 0 0 1 0.0442,0.002 v -0.3788 z"
       id="path855-0" />
    <path
       id="path877"
       d="m 489.17396,200.72848 v 3.36373 h 5.00595 v -0.48644 a 1.2511769,1.2511769 0 0 1 -0.0442,0.002 1.2511769,1.2511769 0 0 1 -1.25119,-1.25108 1.2511769,1.2511769 0 0 1 1.25119,-1.25119 1.2511769,1.2511769 0 0 1 0.0442,0.002 v -0.3788 z"
       style="opacity:1;vector-effect:none;fill:#f9f9f9;fill-opacity:1;stroke:none;stroke-width:0.12347222;stroke-linecap:round;stroke-linejoin:round;stroke-miterlimit:4;stroke-dasharray:none;stroke-dashoffset:0;stroke-opacity:1;paint-order:normal"
       inkscape:connector-curvature="0" />
    <path
       inkscape:connector-curvature="0"
       style="opacity:1;vector-effect:none;fill:#f9f9f9;fill-opacity:1;stroke:none;stroke-width:0.12347222;stroke-linecap:round;stroke-linejoin:round;stroke-miterlimit:4;stroke-dasharray:none;stroke-dashoffset:0;stroke-opacity:1;paint-order:normal"
       d="m 490.49548,204.4725 v 3.36373 h 5.00595 v -0.48644 a 1.2511769,1.2511769 0 0 1 -0.0442,0.002 1.2511769,1.2511769 0 0 1 -1.25119,-1.25108 1.2511769,1.2511769 0 0 1 1.25119,-1.25119 1.2511769,1.2511769 0 0 1 0.0442,0.002 v -0.3788 z"
       id="path879" />
    <path
       style="fill:none;fill-rule:evenodd;stroke:#000000;stroke-width:0.26458332px;stroke-linecap:butt;stroke-linejoin:miter;stroke-opacity:1"
       d="m 306.86219,192.48366 7.35947,20.8914"
       id="path881"
       inkscape:connector-curvature="0" />
    <path
       inkscape:connector-curvature="0"
       id="path883"
       d="m 403.9571,151.9799 7.35947,20.8914"
       style="fill:none;fill-rule:evenodd;stroke:#000000;stroke-width:0.26458332px;stroke-linecap:butt;stroke-linejoin:miter;stroke-opacity:1" />
  </g>
</svg>
