<?xml version="1.0" encoding="UTF-8" standalone="no"?>
<!-- Created with Inkscape (http://www.inkscape.org/) -->

<svg
   xmlns:dc="http://purl.org/dc/elements/1.1/"
   xmlns:cc="http://creativecommons.org/ns#"
   xmlns:rdf="http://www.w3.org/1999/02/22-rdf-syntax-ns#"
   xmlns:svg="http://www.w3.org/2000/svg"
   xmlns="http://www.w3.org/2000/svg"
   xmlns:sodipodi="http://sodipodi.sourceforge.net/DTD/sodipodi-0.dtd"
   xmlns:inkscape="http://www.inkscape.org/namespaces/inkscape"
   width="1400"
   height="900"
   viewBox="0 0 370.41666 238.12501"
   version="1.1"
   id="svg1236"
   inkscape:version="0.92.2 5c3e80d, 2017-08-06"
   sodipodi:docname="p2.svg">
  <defs
     id="defs1230">
    <clipPath
       clipPathUnits="userSpaceOnUse"
       id="clipPath18">
      <path
         d="M 0,491.213 H 491.215 V 0 H 0 Z"
         id="path16"
         inkscape:connector-curvature="0" />
    </clipPath>
  </defs>
  <sodipodi:namedview
     id="base"
     pagecolor="#ffffff"
     bordercolor="#666666"
     borderopacity="1.0"
     inkscape:pageopacity="0.0"
     inkscape:pageshadow="2"
     inkscape:zoom="0.66"
     inkscape:cx="861.45279"
     inkscape:cy="594.39204"
     inkscape:document-units="mm"
     inkscape:current-layer="layer1"
     showgrid="false"
     units="px"
     inkscape:window-width="1920"
     inkscape:window-height="1036"
     inkscape:window-x="0"
     inkscape:window-y="20"
     inkscape:window-maximized="0"
     inkscape:snap-page="true"
     showguides="true"
     inkscape:guide-bbox="true"
     inkscape:snap-global="false">
    <sodipodi:guide
       position="52.916667,107.03599"
       orientation="1,0"
       id="guide2997"
       inkscape:locked="false"
       inkscape:label=""
       inkscape:color="rgb(0,0,255)" />
    <sodipodi:guide
       position="317.5,107.83776"
       orientation="1,0"
       id="guide2999"
       inkscape:locked="false"
       inkscape:label=""
       inkscape:color="rgb(0,0,255)" />
    <sodipodi:guide
       position="220.08522,39.6875"
       orientation="0,1"
       id="guide3001"
       inkscape:locked="false"
       inkscape:label=""
       inkscape:color="rgb(0,0,255)" />
    <sodipodi:guide
       position="231.71085,198.4375"
       orientation="0,1"
       id="guide3003"
       inkscape:locked="false"
       inkscape:label=""
       inkscape:color="rgb(0,0,255)" />
  </sodipodi:namedview>
  <metadata
     id="metadata1233">
    <rdf:RDF>
      <cc:Work
         rdf:about="">
        <dc:format>image/svg+xml</dc:format>
        <dc:type
           rdf:resource="http://purl.org/dc/dcmitype/StillImage" />
        <dc:title></dc:title>
      </cc:Work>
    </rdf:RDF>
  </metadata>
  <g
     inkscape:label="Layer 1"
     inkscape:groupmode="layer"
     id="layer1"
     transform="translate(0,-58.874983)"
     style="display:inline">
    <rect
       style="fill:#f2f2f2;fill-opacity:1;stroke:none;stroke-width:5.19999981;stroke-linecap:round;stroke-linejoin:round;stroke-miterlimit:4;stroke-dasharray:none;stroke-dashoffset:0;stroke-opacity:1;paint-order:stroke markers fill"
       id="rect2334"
       width="370.41666"
       height="238.125"
       x="0"
       y="58.874985"
       sodipodi:insensitive="true" />
    <g
       id="g2989"
       transform="translate(-75.767068,-7e-6)">
      <path
         d="m 236.66941,156.19699 c -2.81317,-6.651 -6.83998,-12.62391 -11.96831,-17.75201 -5.12856,-5.12834 -11.101,-9.15514 -17.75201,-11.96832 -6.88751,-2.91322 -14.20207,-4.39019 -21.74085,-4.39019 -7.53855,0 -14.85312,1.47697 -21.74062,4.39019 -6.651,2.81318 -12.62368,6.83998 -17.75224,11.96832 -5.12811,5.1281 -9.15491,11.10101 -11.96831,17.75201 -2.913,6.88727 -4.38996,14.20161 -4.38996,21.74039 0,7.53856 1.47696,14.85312 4.38996,21.74062 2.8134,6.651 6.8402,12.62368 11.96831,17.75201 5.12856,5.12834 11.10124,9.15514 17.75224,11.96832 6.8875,2.91322 14.20207,4.39018 21.74062,4.39018 7.53878,0 14.85334,-1.47696 21.74085,-4.39018 6.65101,-2.81318 12.62345,-6.83998 17.75201,-11.96832 5.12833,-5.12833 9.15514,-11.10101 11.96831,-17.75201 2.91322,-6.8875 4.39019,-14.20206 4.39019,-21.74062 0,-7.53878 -1.47697,-14.85312 -4.39019,-21.74039"
         style="fill:#d40000;fill-opacity:1;fill-rule:nonzero;stroke:none;stroke-width:0.35277775"
         id="path22"
         inkscape:connector-curvature="0" />
      <g
         id="g2921">
        <path
           inkscape:connector-curvature="0"
           id="path26"
           style="fill:#e6e6e6;fill-opacity:1;fill-rule:nonzero;stroke:none;stroke-width:0.35277775"
           d="m 235.02386,198.98194 c -2.72331,6.43817 -6.62124,12.22015 -11.58616,17.18484 -4.96491,4.96491 -10.74667,8.86284 -17.18483,11.58616 -6.66589,2.81939 -13.74642,4.24891 -21.04447,4.24891 -7.29828,0 -14.37882,-1.42952 -21.0447,-4.24891 -6.43817,-2.72332 -12.21992,-6.62125 -17.18483,-11.58616 -4.96492,-4.96469 -8.86285,-10.74667 -11.58617,-17.18484 -2.81939,-6.66611 -4.24913,-13.74642 -4.24913,-21.0447 0,-7.29805 1.42974,-14.37836 4.24913,-21.04447 2.72332,-6.43816 6.62125,-12.21992 11.58617,-17.1846 4.96491,-4.96492 10.74666,-8.86285 17.18483,-11.58594 6.66588,-2.81961 13.74664,-4.24914 21.0447,-4.24914 7.29782,0 14.37858,1.42953 21.04447,4.24914 6.43816,2.72309 12.21992,6.62102 17.18483,11.58594 4.96492,4.96468 8.86285,10.74644 11.58616,17.1846 2.81939,6.66611 4.24914,13.74642 4.24914,21.04447 0,7.29828 -1.42975,14.37859 -4.24914,21.0447 m 0.41737,-42.26568 c -2.74597,-6.49232 -6.67676,-12.32233 -11.68314,-17.32871 -5.00615,-5.00593 -10.83639,-8.93671 -17.32849,-11.68269 -6.7223,-2.8434 -13.8622,-4.28493 -21.2212,-4.28493 -7.35924,0 -14.49913,1.44153 -21.22144,4.28493 -6.49209,2.74598 -12.32233,6.67676 -17.32849,11.68269 -5.00638,5.00638 -8.93716,10.83639 -11.68314,17.32871 -2.8434,6.72231 -4.28493,13.86198 -4.28493,21.22098 0,7.35924 1.44153,14.49891 4.28493,21.22121 2.74598,6.49232 6.67676,12.32234 11.68314,17.32872 5.00616,5.00638 10.8364,8.93693 17.32849,11.68291 6.72231,2.84341 13.8622,4.28494 21.22144,4.28494 7.359,0 14.4989,-1.44153 21.2212,-4.28494 6.4921,-2.74598 12.32234,-6.67653 17.32849,-11.68291 5.00638,-5.00638 8.93717,-10.8364 11.68314,-17.32872 2.84341,-6.7223 4.28494,-13.86197 4.28494,-21.22121 0,-7.359 -1.44153,-14.49867 -4.28494,-21.22098" />
        <path
           inkscape:connector-curvature="0"
           id="path30"
           style="fill:#e6e6e6;fill-opacity:1;fill-rule:nonzero;stroke:none;stroke-width:0.35277775"
           d="m 185.20828,124.55276 c -7.20674,0 -14.198,1.41139 -20.77982,4.19543 -6.35727,2.68888 -12.06652,6.53809 -16.96912,11.4407 -4.90238,4.9026 -8.75182,10.61162 -11.4407,16.96867 -2.78381,6.58182 -4.19521,13.57308 -4.19521,20.77959 0,7.20674 1.4114,14.19823 4.19521,20.78005 2.68888,6.35705 6.53832,12.06629 11.4407,16.9689 4.9026,4.9026 10.61185,8.75182 16.96912,11.44069 6.58182,2.78382 13.57308,4.19544 20.77982,4.19544 7.20674,0 14.198,-1.41162 20.77982,-4.19544 6.35728,-2.68887 12.06652,-6.53809 16.96913,-11.44069 4.90238,-4.90261 8.75182,-10.61185 11.44069,-16.9689 2.78382,-6.58182 4.19521,-13.57331 4.19521,-20.78005 0,-7.20651 -1.41139,-14.19777 -4.19521,-20.77959 -2.68887,-6.35705 -6.53831,-12.06607 -11.44069,-16.96867 -4.90261,-4.90261 -10.61185,-8.75182 -16.96913,-11.4407 -6.58182,-2.78404 -13.57308,-4.19543 -20.77982,-4.19543 m 0,0.45317 c 29.23346,0 52.93168,23.69845 52.93168,52.93122 0,29.23346 -23.69822,52.93191 -52.93168,52.93191 -29.23345,0 -52.93168,-23.69845 -52.93168,-52.93191 0,-29.23277 23.69823,-52.93122 52.93168,-52.93122" />
        <path
           inkscape:connector-curvature="0"
           id="path34"
           style="fill:#e6e6e6;fill-opacity:1;fill-rule:nonzero;stroke:none;stroke-width:0.35277775"
           d="m 185.20828,217.37223 c -21.77905,0 -39.43496,-17.65545 -39.43496,-39.43496 0,-21.77906 17.65591,-39.43451 39.43496,-39.43451 21.77906,0 39.43496,17.65545 39.43496,39.43451 0,21.77951 -17.6559,39.43496 -39.43496,39.43496 m 37.17071,-55.13771 c -2.03201,-4.80381 -4.94067,-9.11798 -8.6451,-12.82263 -3.70466,-3.70443 -8.01882,-6.61309 -12.82263,-8.64487 -4.97421,-2.10384 -10.25748,-3.1706 -15.70298,-3.1706 -5.4455,0 -10.72876,1.06676 -15.70297,3.1706 -4.80381,2.03178 -9.11798,4.94044 -12.82263,8.64487 -3.70443,3.70465 -6.61309,8.01882 -8.6451,12.82263 -2.10383,4.97398 -3.17059,10.25725 -3.17059,15.70275 0,5.44572 1.06676,10.72899 3.17059,15.70297 2.03201,4.80404 4.94067,9.1182 8.6451,12.82286 3.70465,3.70443 8.01882,6.61309 12.82263,8.64487 4.97421,2.10383 10.25747,3.17059 15.70297,3.17059 5.4455,0 10.72877,-1.06676 15.70298,-3.17059 4.80381,-2.03178 9.11797,-4.94044 12.82263,-8.64487 3.70443,-3.70466 6.61309,-8.01882 8.6451,-12.82286 2.10383,-4.97398 3.17059,-10.25725 3.17059,-15.70297 0,-5.4455 -1.06676,-10.72877 -3.17059,-15.70275" />
        <path
           inkscape:connector-curvature="0"
           id="path38"
           style="fill:#e6e6e6;fill-opacity:1;fill-rule:nonzero;stroke:none;stroke-width:0.35277775"
           d="m 223.00495,193.90505 c -2.066,4.88516 -5.0236,9.27183 -8.79057,13.03857 -3.76673,3.76673 -8.15341,6.72434 -13.03856,8.79056 -5.05827,2.13941 -10.43036,3.22407 -15.96763,3.22407 -5.53704,0 -10.90913,-1.08466 -15.96739,-3.22407 -4.88516,-2.06622 -9.27183,-5.02383 -13.03857,-8.79056 -3.76697,-3.76674 -6.72457,-8.15341 -8.79057,-13.03857 -2.13941,-5.05827 -3.22452,-10.43058 -3.22452,-15.96785 0,-5.53704 1.08511,-10.90913 3.22452,-15.9674 2.066,-4.88493 5.02383,-9.2716 8.79057,-13.03834 3.76674,-3.76674 8.15341,-6.72434 13.03857,-8.79056 5.05826,-2.13964 10.43035,-3.2243 15.96739,-3.2243 5.53727,0 10.90936,1.08466 15.96763,3.2243 4.88515,2.06622 9.27183,5.02382 13.03856,8.79056 3.76674,3.76674 6.72457,8.15341 8.79057,13.03834 2.13941,5.05827 3.22429,10.43036 3.22429,15.9674 0,5.53727 -1.08488,10.90958 -3.22429,15.96785 m 0.41737,-32.11198 c -2.08888,-4.93886 -5.07912,-9.37402 -8.88755,-13.182 -3.80797,-3.80843 -8.24336,-6.79843 -13.18245,-8.88754 -5.11446,-2.1632 -10.54591,-3.2601 -16.14413,-3.2601 -5.59799,0 -11.02944,1.0969 -16.14413,3.2601 -4.93886,2.08911 -9.37425,5.07911 -13.18222,8.88754 -3.80843,3.80798 -6.79866,8.24314 -8.88754,13.182 -2.16343,5.11468 -3.26033,10.54614 -3.26033,16.14413 0,5.59822 1.0969,11.0299 3.2601,16.14436 2.08911,4.93908 5.07934,9.37424 8.88777,13.18245 3.80797,3.80843 8.24336,6.79843 13.18222,8.88754 5.11469,2.1632 10.54614,3.25987 16.14413,3.25987 5.59822,0 11.02967,-1.09667 16.14413,-3.25987 4.93909,-2.08911 9.37448,-5.07911 13.18245,-8.88754 3.80843,-3.80821 6.79867,-8.24337 8.88777,-13.18245 2.1632,-5.11446 3.25987,-10.54614 3.25987,-16.14436 0,-5.59799 -1.09667,-11.02945 -3.26009,-16.14413" />
        <path
           inkscape:connector-curvature="0"
           id="path42"
           style="fill:#e6e6e6;fill-opacity:1;fill-rule:nonzero;stroke:none;stroke-width:0.35277775"
           d="m 197.96294,159.45295 -5.34898,11.32876 1.92325,13.07165 h -9.5861 l -1.74266,-11.1484 -1.65293,11.1484 h -9.3457 l 3.63645,-24.40041 h 9.34525 l -1.47235,9.85642 4.53735,-9.85642 z" />
        <path
           inkscape:connector-curvature="0"
           id="path46"
           style="fill:#e6e6e6;fill-opacity:1;fill-rule:nonzero;stroke:none;stroke-width:0.35277775"
           d="m 218.67639,159.45295 -0.81162,5.55925 h -4.89807 l -2.82438,18.84116 h -9.52583 l 2.82438,-18.84116 h -4.89808 l 0.81163,-5.55925 z" />
        <path
           inkscape:connector-curvature="0"
           id="path50"
           style="fill:#e6e6e6;fill-opacity:1;fill-rule:nonzero;stroke:none;stroke-width:0.35277775"
           d="m 192.24921,204.49453 c 0,1.66925 -1.35339,3.02219 -3.02264,3.02219 -1.66924,0 -3.02218,-1.35294 -3.02218,-3.02219 0,-1.66924 1.35294,-3.02263 3.02218,-3.02263 1.66925,0 3.02264,1.35339 3.02264,3.02263" />
        <path
           inkscape:connector-curvature="0"
           id="path54"
           style="fill:#e6e6e6;fill-opacity:1;fill-rule:nonzero;stroke:none;stroke-width:0.35277775"
           d="m 156.90163,173.3768 c 0,1.66925 -1.35339,3.02264 -3.02264,3.02264 -1.66879,0 -3.02218,-1.35339 -3.02218,-3.02264 0,-1.66924 1.35339,-3.02218 3.02218,-3.02218 1.66925,0 3.02264,1.35294 3.02264,3.02218" />
        <path
           inkscape:connector-curvature="0"
           id="path58"
           style="fill:#e6e6e6;fill-opacity:1;fill-rule:nonzero;stroke:none;stroke-width:0.35277775"
           d="m 165.80965,185.8531 c 3.00496,0.42711 6.0208,0.68814 9.03686,0.82182 1.50815,0.0673 3.01584,0.10219 4.52331,0.10831 0.75362,0.003 1.50678,0.003 2.25995,-0.0229 0.75362,-0.031 1.50611,-0.0743 2.25791,-0.0725 -0.75226,9.1e-4 -1.50384,-0.0555 -2.25429,-0.11465 l -2.24998,-0.15 c -1.49885,-0.10718 -2.99431,-0.24267 -4.48523,-0.41035 -2.98095,-0.33625 -5.94648,-0.7876 -8.86421,-1.41569 -2.91093,-0.63897 -5.79376,-1.44312 -8.48445,-2.57604 -1.33956,-0.56216 -2.64016,-1.21608 -3.74226,-2.01048 -0.54879,-0.39335 -1.04003,-0.83474 -1.38738,-1.28836 -0.17334,-0.22613 -0.30521,-0.45408 -0.38633,-0.66775 -0.0831,-0.21502 -0.11102,-0.41057 -0.10445,-0.59999 0.008,-0.19033 0.0541,-0.37749 0.14479,-0.583 0.0911,-0.20393 0.22885,-0.42077 0.40309,-0.63852 0.34962,-0.43776 0.83768,-0.86736 1.37378,-1.26978 1.08013,-0.81026 2.36758,-1.49001 3.69174,-2.09409 1.32891,-0.60588 2.70972,-1.1515 4.10684,-1.69394 l 1.05407,-0.39743 c 0.0872,-0.0351 0.17923,-0.0505 0.25581,-0.13731 0.0766,-0.0836 0.14343,-0.21458 0.2182,-0.3111 0.073,-0.10446 0.0687,-0.12485 -0.0421,-0.18852 -0.10876,-0.0562 -0.22568,-0.14547 -0.33195,-0.18806 -0.10695,-0.0451 -0.19871,-0.0186 -0.29365,-0.0111 -0.3793,0.0403 -0.75951,0.0829 -1.13881,0.13233 -1.51835,0.1969 -3.02649,0.50596 -4.51696,0.94984 -1.48753,0.45362 -2.96916,1.00354 -4.39732,1.86139 -0.70944,0.43527 -1.40551,0.96072 -2.0123,1.68737 -0.30136,0.36322 -0.57643,0.78421 -0.78104,1.27273 -0.20755,0.48466 -0.3256,1.04659 -0.31993,1.6092 0.009,0.56283 0.14524,1.11638 0.36027,1.59175 0.21457,0.47832 0.49554,0.88731 0.79735,1.24305 0.60951,0.71034 1.30218,1.22468 1.9996,1.66924 1.40596,0.8728 2.87423,1.44901 4.34612,1.945 1.47687,0.48376 2.96825,0.85513 4.46416,1.16895 1.49432,0.31676 2.99545,0.57122 4.49883,0.78058" />
        <path
           inkscape:connector-curvature="0"
           id="path62"
           style="fill:#e6e6e6;fill-opacity:1;fill-rule:nonzero;stroke:none;stroke-width:0.35277775"
           d="m 171.56986,178.21873 0.10445,-0.8293 c -0.0646,-0.0807 -0.13096,-0.15883 -0.19509,-0.2395 -1.86977,-2.34583 -3.64755,-4.76167 -5.26695,-7.26928 -1.60626,-2.51055 -3.07656,-5.11718 -4.17753,-7.82101 -0.55015,-1.34455 -1.00717,-2.72671 -1.22447,-4.06809 -0.11034,-0.66593 -0.14569,-1.32529 -0.0705,-1.89175 0.0372,-0.28233 0.10536,-0.53678 0.19916,-0.74524 0.0934,-0.21072 0.21163,-0.36911 0.35053,-0.49781 0.1398,-0.12938 0.30498,-0.22885 0.51457,-0.30996 0.20846,-0.08 0.45906,-0.13573 0.7364,-0.16677 0.55672,-0.0619 1.20566,-0.0208 1.86887,0.0739 1.33707,0.19078 2.72785,0.62039 4.09143,1.12952 1.36834,0.5114 2.73057,1.10188 4.10163,1.70595 l 1.02665,0.46427 c 0.0868,0.0372 0.16292,0.0911 0.2778,0.0841 0.11329,-0.005 0.25332,-0.0505 0.37454,-0.0659 0.1253,-0.0222 0.13663,-0.0394 0.10355,-0.16291 -0.0372,-0.11692 -0.0566,-0.26239 -0.10174,-0.3673 -0.0439,-0.10808 -0.12711,-0.15407 -0.20007,-0.21593 -0.2966,-0.2395 -0.59569,-0.47855 -0.89886,-0.7117 -1.21268,-0.93421 -2.49764,-1.78254 -3.8653,-2.52256 -1.3722,-0.73097 -2.80919,-1.38942 -4.42542,-1.79319 -0.80936,-0.19328 -1.67378,-0.31405 -2.61637,-0.22908 -0.46994,0.0437 -0.96208,0.14637 -1.4524,0.34735 -0.48897,0.196 -0.97001,0.50982 -1.36382,0.91155 -0.39176,0.404 -0.687,0.89229 -0.87053,1.38035 -0.18671,0.48988 -0.27757,0.97794 -0.31563,1.44312 -0.0711,0.9333 0.0548,1.78662 0.2336,2.59371 0.37727,1.61192 1.0083,3.0573 1.69825,4.44898 0.70219,1.38602 1.49387,2.70315 2.32997,3.98245 0.83292,1.28133 1.71388,2.52211 2.6286,3.73343 1.82333,2.4274 3.77105,4.74399 5.80895,6.97132 0.19644,0.2148 0.39743,0.42462 0.59569,0.63738" />
        <path
           inkscape:connector-curvature="0"
           id="path66"
           style="fill:#e6e6e6;fill-opacity:1;fill-rule:nonzero;stroke:none;stroke-width:0.35277775"
           d="m 189.2554,185.05387 c -0.17085,0.14819 -0.34215,0.29569 -0.5139,0.44207 l -1.69711,1.48526 c -1.13564,0.98383 -2.28873,1.94545 -3.46108,2.88147 -2.34605,1.87023 -4.76189,3.64733 -7.26928,5.26673 -2.51055,1.60648 -5.11718,3.07656 -7.82123,4.17798 -1.34433,0.5497 -2.72649,1.00695 -4.06787,1.22469 -0.66593,0.10967 -1.32552,0.14502 -1.89198,0.0698 -0.28232,-0.0372 -0.53678,-0.10536 -0.74524,-0.19917 -0.21049,-0.0934 -0.3691,-0.2114 -0.4978,-0.35052 -0.12916,-0.13981 -0.22885,-0.30476 -0.30974,-0.51412 -0.0802,-0.20891 -0.13595,-0.45952 -0.16677,-0.73685 -0.0625,-0.55672 -0.0208,-1.20543 0.0739,-1.86887 0.19078,-1.33708 0.62039,-2.72785 1.12929,-4.09143 0.51118,-1.36835 1.10143,-2.73057 1.70596,-4.10141 l 0.46427,-1.02688 c 0.0372,-0.0866 0.0913,-0.16269 0.0841,-0.27779 -0.005,-0.11329 -0.0503,-0.25309 -0.0659,-0.37454 -0.022,-0.12508 -0.0392,-0.13663 -0.16268,-0.10355 -0.11692,0.0374 -0.26261,0.0566 -0.36775,0.10196 -0.10763,0.0437 -0.15362,0.12689 -0.21571,0.19985 -0.23972,0.2966 -0.47832,0.59569 -0.71147,0.89886 -0.93421,1.21268 -1.78254,2.49786 -2.52257,3.8653 -0.73118,1.37242 -1.38964,2.80919 -1.79318,4.42542 -0.19351,0.80936 -0.31428,1.67378 -0.22931,2.61637 0.044,0.46993 0.1466,0.96207 0.34736,1.4524 0.19577,0.48897 0.50981,0.97001 0.91132,1.36404 0.40445,0.39154 0.89251,0.68678 1.3808,0.87031 0.48988,0.18693 0.97794,0.27757 1.44312,0.31563 0.93285,0.0714 1.78662,-0.0548 2.59371,-0.23361 1.61124,-0.37703 3.05708,-1.00807 4.44853,-1.69802 1.38647,-0.70241 2.70338,-1.4941 3.9829,-2.33019 1.28111,-0.8327 2.52211,-1.71389 3.73343,-2.62861 2.42672,-1.82332 4.74399,-3.77104 6.97132,-5.80894 1.11389,-1.01918 2.20489,-2.06101 3.27482,-3.1221 0.53519,-0.53112 1.06744,-1.06336 1.58179,-1.61442 0.17696,-0.19214 0.35301,-0.38496 0.52975,-0.57711 z" />
        <path
           inkscape:connector-curvature="0"
           id="path70"
           style="fill:#e6e6e6;fill-opacity:1;fill-rule:nonzero;stroke:none;stroke-width:0.35277775"
           d="m 192.58777,185.05387 c -0.046,0.46337 -0.0895,0.92719 -0.14116,1.38964 -0.3367,2.98095 -0.78829,5.94648 -1.41615,8.86421 -0.63897,2.91115 -1.44312,5.79421 -2.57604,8.48445 -0.5617,1.33956 -1.21608,2.64038 -2.01048,3.74272 -0.39358,0.54833 -0.83474,1.03957 -1.28836,1.38692 -0.22613,0.17356 -0.45408,0.30544 -0.66774,0.38633 -0.21503,0.0831 -0.4108,0.11102 -0.6,0.10445 -0.19033,-0.008 -0.37726,-0.0539 -0.583,-0.14479 -0.20393,-0.0911 -0.42031,-0.22885 -0.63852,-0.40309 -0.43776,-0.34962 -0.86736,-0.83723 -1.26977,-1.37378 -0.81027,-1.08013 -1.49002,-2.36758 -2.0941,-3.69174 -0.60634,-1.32891 -1.1515,-2.70972 -1.69394,-4.10639 l -0.39743,-1.05407 c -0.0356,-0.0877 -0.0505,-0.17968 -0.13731,-0.25626 -0.0836,-0.0766 -0.21457,-0.14343 -0.3111,-0.2182 -0.10446,-0.073 -0.12485,-0.0684 -0.18897,0.0421 -0.0557,0.10876 -0.14501,0.22568 -0.18761,0.33195 -0.0451,0.10695 -0.0186,0.19871 -0.0111,0.29388 0.0403,0.37907 0.0827,0.75928 0.13233,1.13858 0.1969,1.51834 0.50596,3.02649 0.94939,4.51719 0.45407,1.4873 1.00399,2.96893 1.86139,4.39709 0.43572,0.70944 0.96117,1.40551 1.68782,2.0123 0.36322,0.30136 0.78421,0.57666 1.27273,0.78149 0.48466,0.2071 1.04659,0.32515 1.6092,0.31948 0.56284,-0.009 1.11638,-0.14524 1.59176,-0.36027 0.47831,-0.21457 0.8873,-0.49554 1.24304,-0.79735 0.71079,-0.60951 1.22469,-1.30195 1.66924,-1.9996 0.87281,-1.40596 1.44901,-2.87423 1.945,-4.34612 0.48376,-1.47687 0.85513,-2.96825 1.16895,-4.46394 0.31677,-1.49455 0.57122,-2.99567 0.78104,-4.49905 0.42666,-3.00496 0.68768,-6.0208 0.82137,-9.03687 0.0213,-0.48058 0.034,-0.96117 0.0492,-1.4413 z" />
        <path
           inkscape:connector-curvature="0"
           id="path74"
           style="fill:#e6e6e6;fill-opacity:1;fill-rule:nonzero;stroke:none;stroke-width:0.35277775"
           d="m 207.56844,192.0147 c -0.70196,-1.38647 -1.49365,-2.7036 -2.32951,-3.9829 -0.66072,-1.01646 -1.35339,-2.00708 -2.06759,-2.978 h -1.59288 c 1.60036,2.50217 3.06432,5.10042 4.16235,7.79518 0.54947,1.34433 1.00671,2.72695 1.22446,4.06787 0.10967,0.66593 0.14524,1.32529 0.0698,1.89175 -0.0372,0.28233 -0.10514,0.53724 -0.19894,0.74569 -0.0936,0.21073 -0.21163,0.36866 -0.35053,0.49758 -0.1398,0.12916 -0.30498,0.22863 -0.51434,0.3102 -0.20891,0.0795 -0.45929,0.13549 -0.7364,0.16631 -0.55717,0.0625 -1.20543,0.0208 -1.86932,-0.0739 -1.33685,-0.19033 -2.72785,-0.62038 -4.09121,-1.12929 -1.36857,-0.51118 -2.73011,-1.10166 -4.10163,-1.70618 l -1.0262,-0.46405 c -0.0872,-0.0374 -0.16291,-0.0913 -0.27847,-0.0843 -0.11329,0.005 -0.2531,0.0505 -0.37432,0.0659 -0.1253,0.0222 -0.1364,0.0394 -0.10355,0.16291 0.0372,0.11692 0.0566,0.26239 0.10219,0.36775 0.0437,0.10763 0.12689,0.15362 0.19962,0.21548 0.29683,0.23995 0.59569,0.47855 0.89886,0.7117 1.21245,0.93421 2.49764,1.78254 3.86508,2.52257 1.37287,0.73096 2.80987,1.38964 4.42542,1.79318 0.81003,0.19328 1.67377,0.31428 2.61636,0.22931 0.47017,-0.0435 0.96208,-0.1466 1.45241,-0.34713 0.4892,-0.196 0.97023,-0.50981 1.36404,-0.91155 0.39176,-0.40445 0.68677,-0.89251 0.87099,-1.3808 0.18625,-0.48988 0.27688,-0.97749 0.31495,-1.44312 0.0714,-0.93285 -0.0548,-1.78662 -0.23361,-2.59371 -0.37658,-1.61147 -1.00807,-3.05708 -1.69802,-4.44853" />
        <path
           inkscape:connector-curvature="0"
           id="path78"
           style="fill:#e6e6e6;fill-opacity:1;fill-rule:nonzero;stroke:none;stroke-width:0.35277775"
           d="m 157.69599,211.79789 -0.9401,-0.84539 -2.80602,1.13791 -0.0154,-0.0136 1.8206,-2.02431 -0.94032,-0.84561 -4.92254,5.4745 0.94009,0.84539 1.74538,-1.94092 0.87915,-0.3068 0.0149,0.0138 -1.52491,3.23608 0.95551,0.85921 1.94364,-4.46439 z" />
        <path
           inkscape:connector-curvature="0"
           id="path82"
           style="fill:#e6e6e6;fill-opacity:1;fill-rule:nonzero;stroke:none;stroke-width:0.35277775"
           d="m 158.54391,212.40971 -4.42315,5.88372 1.01011,0.75951 4.42361,-5.88349 z" />
        <path
           inkscape:connector-curvature="0"
           id="path86"
           style="fill:#e6e6e6;fill-opacity:1;fill-rule:nonzero;stroke:none;stroke-width:0.35277775"
           d="m 163.66397,215.83438 -2.97755,3.23245 -0.0177,-0.0106 1.43768,-4.15284 -1.42635,-0.85286 -3.77694,6.31807 0.94509,0.56488 2.95035,-4.93523 0.0175,0.0104 -1.97038,5.52118 0.52522,0.31382 3.93034,-4.34951 0.0177,0.0104 -2.95035,4.93523 0.94508,0.5651 3.77671,-6.31785 z" />
        <path
           inkscape:connector-curvature="0"
           id="path90"
           style="fill:#e6e6e6;fill-opacity:1;fill-rule:nonzero;stroke:none;stroke-width:0.35277775"
           d="m 168.50478,218.20642 -1.9024,2.22687 -0.0188,-0.008 0.31564,-2.92362 -1.1762,-0.51684 -0.33014,4.55457 -1.23012,2.80036 1.15739,0.50868 1.23035,-2.80081 3.13049,-3.32422 z" />
        <path
           inkscape:connector-curvature="0"
           id="path94"
           style="fill:#e6e6e6;fill-opacity:1;fill-rule:nonzero;stroke:none;stroke-width:0.35277775"
           d="m 171.07708,220.72033 -0.51706,3.1579 -0.9682,-0.32016 1.466,-2.84409 z m -3.89113,4.92073 1.1617,0.38383 0.72461,-1.47846 1.31668,0.43481 -0.29863,1.61918 1.16147,0.38383 1.02144,-7.41474 -1.4907,-0.4926 z" />
        <path
           inkscape:connector-curvature="0"
           id="path98"
           style="fill:#e6e6e6;fill-opacity:1;fill-rule:nonzero;stroke:none;stroke-width:0.35277775"
           d="m 176.18785,221.74283 1.20769,0.19509 -0.99765,6.17964 1.24803,0.20143 0.99765,-6.17963 1.20769,0.19509 0.17538,-1.08716 -3.66342,-0.59138 z" />
        <path
           inkscape:connector-curvature="0"
           id="path102"
           style="fill:#e6e6e6;fill-opacity:1;fill-rule:nonzero;stroke:none;stroke-width:0.35277775"
           d="m 183.37746,223.29439 -0.20257,3.72663 c -0.0297,0.5497 -0.2071,0.80574 -0.71623,0.7781 -0.50913,-0.0276 -0.65755,-0.30136 -0.62764,-0.85106 l 0.20234,-3.72663 c 0.0299,-0.54992 0.2071,-0.80573 0.71623,-0.77809 0.50937,0.0276 0.65778,0.30113 0.62787,0.85105 m -0.56805,-1.95066 c -1.3237,-0.0721 -1.98057,0.7398 -2.03699,1.77846 l -0.20574,3.78781 c -0.0564,1.03866 0.50868,1.91668 1.83239,1.98873 1.32348,0.0718 1.98035,-0.7398 2.03676,-1.77846 l 0.20574,-3.78781 c 0.0564,-1.03866 -0.50845,-1.9169 -1.83216,-1.98873" />
        <path
           inkscape:connector-curvature="0"
           id="path106"
           style="fill:#e6e6e6;fill-opacity:1;fill-rule:nonzero;stroke:none;stroke-width:0.35277775"
           d="m 187.96513,224.73445 -0.48851,0.0304 -0.13958,-2.25972 0.48852,-0.0304 c 0.82431,-0.0507 1.09463,0.18784 1.14878,1.06336 0.0539,0.8753 -0.18467,1.14539 -1.00921,1.19637 m -0.14274,-3.30156 -1.81177,0.11216 0.4543,7.34881 1.26207,-0.0779 -0.18625,-3.01289 0.5497,-0.0342 c 1.55731,-0.0961 2.24273,-0.74139 2.14598,-2.3089 -0.0968,-1.56751 -0.85672,-2.12332 -2.41403,-2.02702" />
        <path
           inkscape:connector-curvature="0"
           id="path110"
           style="fill:#e6e6e6;fill-opacity:1;fill-rule:nonzero;stroke:none;stroke-width:0.35277775"
           d="m 193.41888,227.09877 -1.04432,-6.17329 -1.2469,0.21117 1.22832,7.25908 3.20707,-0.54289 -0.18376,-1.08579 z" />
        <path
           inkscape:connector-curvature="0"
           id="path114"
           style="fill:#e6e6e6;fill-opacity:1;fill-rule:nonzero;stroke:none;stroke-width:0.35277775"
           d="m 198.91663,219.35706 -1.21698,0.34305 1.50724,5.34943 c 0.14683,0.52046 0.0125,0.83383 -0.42915,0.95822 -0.44184,0.12417 -0.71986,-0.0727 -0.86646,-0.5932 l -1.50747,-5.34942 -1.21698,0.34304 1.49364,5.30026 c 0.34305,1.21722 1.23761,1.68579 2.39591,1.35906 1.15807,-0.32606 1.67672,-1.19274 1.3339,-2.40995 z" />
        <path
           inkscape:connector-curvature="0"
           id="path118"
           style="fill:#e6e6e6;fill-opacity:1;fill-rule:nonzero;stroke:none;stroke-width:0.35277775"
           d="m 203.60743,224.26513 -2.33314,-5.81031 -1.17348,0.4713 2.74348,6.8322 3.01878,-1.212 -0.41034,-1.02235 z" />
        <path
           inkscape:connector-curvature="0"
           id="path122"
           style="fill:#e6e6e6;fill-opacity:1;fill-rule:nonzero;stroke:none;stroke-width:0.35277775"
           d="m 207.33544,215.53454 -1.11638,0.59319 2.60799,4.90691 c 0.25354,0.47719 0.18897,0.81163 -0.21616,1.02711 -0.40514,0.21526 -0.71873,0.0816 -0.97228,-0.39539 l -2.60798,-4.90691 -1.11638,0.5932 2.58419,4.86182 c 0.5932,1.11638 1.56683,1.3842 2.62906,0.81955 1.06245,-0.56464 1.38511,-1.52128 0.79191,-2.63789 z" />
        <path
           inkscape:connector-curvature="0"
           id="path126"
           style="fill:#e6e6e6;fill-opacity:1;fill-rule:nonzero;stroke:none;stroke-width:0.35277775"
           d="m 211.94016,216.84868 0.57008,0.82092 0.6614,-0.45952 0.40695,0.58618 c 0.41873,0.60294 0.43096,0.94213 0.0122,1.23284 -0.36027,0.25015 -0.66026,0.0861 -0.92786,-0.29909 l -2.15731,-3.1067 c -0.3546,-0.51072 -0.25015,-0.80709 0.001,-0.98133 0.41035,-0.28505 0.75748,-0.17855 1.38534,0.72597 l 0.98813,-0.68632 -0.26736,-0.38519 c -0.6281,-0.90453 -1.67061,-1.29743 -2.70905,-0.57644 -1.02167,0.70944 -1.04138,1.75354 -0.44818,2.60754 l 2.1632,3.11508 c 0.66888,0.96298 1.64546,1.15377 2.46614,0.58391 0.48535,-0.33739 0.62039,-0.6793 0.67432,-1.26299 l 0.50687,0.31858 0.50233,-0.34916 -2.12853,-3.06456 z" />
        <path
           inkscape:connector-curvature="0"
           id="path130"
           style="fill:#e6e6e6;fill-opacity:1;fill-rule:nonzero;stroke:none;stroke-width:0.35277775"
           d="m 215.53585,209.28512 -0.94667,0.8379 3.6838,4.16077 c 0.35823,0.40445 0.37364,0.74478 0.0301,1.04909 -0.3435,0.30407 -0.67953,0.24743 -1.03776,-0.15703 l -3.6838,-4.16031 -0.94667,0.83791 3.65004,4.12225 c 0.83814,0.94667 1.84735,0.97929 2.74824,0.18172 0.90068,-0.79758 0.99086,-1.80339 0.1525,-2.75006 z" />
        <path
           inkscape:connector-curvature="0"
           id="path134"
           style="fill:#e6e6e6;fill-opacity:1;fill-rule:nonzero;stroke:none;stroke-width:0.35277775"
           d="m 141.29386,171.49067 c -0.0734,0.5046 -0.35936,0.62787 -0.90407,0.54834 l -3.69241,-0.53769 c -0.54471,-0.0795 -0.78353,-0.27915 -0.71012,-0.7833 0.0734,-0.5046 0.35914,-0.62787 0.90385,-0.54834 l 3.69264,0.53769 c 0.54493,0.0793 0.78353,0.2787 0.71011,0.7833 m -0.49757,-2.02997 -3.75315,-0.54652 c -1.02892,-0.15 -1.95451,0.33353 -2.14552,1.645 -0.19101,1.3117 0.55807,2.03881 1.58722,2.18881 l 3.75314,0.54652 c 1.02892,0.14977 1.95452,-0.33376 2.14553,-1.645 0.19078,-1.3117 -0.55808,-2.03881 -1.58722,-2.18881" />
        <path
           inkscape:connector-curvature="0"
           id="path138"
           style="fill:#e6e6e6;fill-opacity:1;fill-rule:nonzero;stroke:none;stroke-width:0.35277775"
           d="m 139.39865,165.56982 -0.11873,0.43255 -2.18292,-0.59932 0.11873,-0.43277 c 0.18104,-0.65868 0.49441,-0.83701 1.3398,-0.60476 0.84583,0.23203 1.02416,0.54539 0.84312,1.2043 m -0.50823,-2.42355 c -1.51427,-0.41578 -2.28601,0.12281 -2.66124,1.4898 l -0.47016,1.71093 7.09957,1.94931 0.33466,-1.21925 -2.91047,-0.79916 c 0.0594,-0.21639 0.11986,-0.47493 0.14343,-0.63716 l 3.17761,-0.058 0.34033,-1.23919 -3.49914,0.14955 c -0.0732,-0.46427 -0.41397,-1.03368 -1.55459,-1.34682" />
        <path
           inkscape:connector-curvature="0"
           id="path142"
           style="fill:#e6e6e6;fill-opacity:1;fill-rule:nonzero;stroke:none;stroke-width:0.35277775"
           d="m 139.75667,157.86464 -1.02325,-0.40717 -1.37288,3.44838 1.02303,0.40718 0.45249,-1.13678 5.81665,2.31615 0.46789,-1.17484 -5.81664,-2.31592 z" />
        <path
           inkscape:connector-curvature="0"
           id="path146"
           style="fill:#e6e6e6;fill-opacity:1;fill-rule:nonzero;stroke:none;stroke-width:0.35277775"
           d="m 144.02459,157.16674 -2.57468,-1.89991 0.009,-0.0181 3.0351,1.01329 z m 3.08245,-0.007 0.56397,-1.08579 -7.15757,-2.18903 -0.72348,1.39349 5.90773,4.59581 0.56374,-1.08602 -1.34432,-0.95052 0.63896,-1.23081 z" />
        <path
           inkscape:connector-curvature="0"
           id="path150"
           style="fill:#e6e6e6;fill-opacity:1;fill-rule:nonzero;stroke:none;stroke-width:0.35277775"
           d="m 145.35666,148.22484 0.26714,-0.34758 c 0.40966,-0.53384 0.75475,-0.56465 1.36948,-0.0927 l 2.55541,1.96222 c 0.6145,0.47198 0.67409,0.81321 0.26397,1.34682 l -0.26691,0.34781 z m 5.38636,3.36477 c 0.79486,-1.03526 0.6512,-2.01954 -0.54584,-2.9388 l -2.31275,-1.77596 c -1.19682,-0.91903 -2.18518,-0.8037 -2.98003,0.23134 l -1.14244,1.48798 5.83862,4.48342 z" />
        <path
           inkscape:connector-curvature="0"
           id="path154"
           style="fill:#e6e6e6;fill-opacity:1;fill-rule:nonzero;stroke:none;stroke-width:0.35277775"
           d="m 149.73279,143.06939 c 0.35733,-0.36367 0.66072,-0.29434 1.05317,0.0915 l 2.66146,2.61568 c 0.39244,0.38588 0.46721,0.68791 0.10989,1.05181 -0.35732,0.36321 -0.66072,0.29388 -1.05339,-0.092 l -2.66123,-2.61547 c -0.39245,-0.38587 -0.46722,-0.68813 -0.1099,-1.05157 m 1.90671,4.59014 c 0.74161,0.72892 1.77393,0.88595 2.70315,-0.0594 0.92877,-0.94531 0.7543,-1.97469 0.0125,-2.70361 l -2.70451,-2.65851 c -0.74183,-0.72915 -1.77393,-0.88572 -2.70315,0.0596 -0.92877,0.94508 -0.7543,1.97468 -0.0125,2.70338 z" />
        <path
           inkscape:connector-curvature="0"
           id="path158"
           style="fill:#e6e6e6;fill-opacity:1;fill-rule:nonzero;stroke:none;stroke-width:0.35277775"
           d="m 153.23932,140.80708 2.36124,2.9687 c 0.73028,0.91722 1.71705,1.04433 2.499,0.42236 0.46291,-0.3682 0.57529,-0.71827 0.59138,-1.30422 l 0.52613,0.28482 0.47877,-0.38089 -2.32339,-2.92067 -1.61963,1.28881 0.62198,0.78194 0.63035,-0.50143 0.44433,0.55853 c 0.45725,0.57439 0.49124,0.91223 0.0922,1.22967 -0.34304,0.27281 -0.65346,0.1287 -0.94531,-0.23837 l -2.35489,-2.96032 c -0.38723,-0.48693 -0.30203,-0.78919 -0.0628,-0.97975 0.39108,-0.3111 0.74456,-0.22704 1.42997,0.63466 l 0.94146,-0.74886 -0.29184,-0.36729 c -0.68564,-0.8617 -1.7515,-1.1864 -2.74099,-0.39902 -0.97363,0.77424 -0.92537,1.81744 -0.27802,2.63133" />
        <path
           inkscape:connector-curvature="0"
           id="path162"
           style="fill:#e6e6e6;fill-opacity:1;fill-rule:nonzero;stroke:none;stroke-width:0.35277775"
           d="m 162.63459,141.00579 c 1.02598,-0.62832 1.28995,-1.60286 0.62968,-2.6814 l -2.8749,-4.6955 -1.07831,0.66026 2.90186,4.73879 c 0.2821,0.46132 0.23769,0.79893 -0.1534,1.03866 -0.39131,0.2395 -0.71238,0.1253 -0.99447,-0.33557 l -2.90164,-4.73901 -1.07832,0.66026 2.8749,4.69551 c 0.66027,1.07809 1.64863,1.28587 2.6746,0.658" />
        <path
           inkscape:connector-curvature="0"
           id="path166"
           style="fill:#e6e6e6;fill-opacity:1;fill-rule:nonzero;stroke:none;stroke-width:0.35277775"
           d="m 166.24954,132.04178 2.31796,5.81664 1.17484,-0.46835 -2.31796,-5.81642 1.13655,-0.45294 -0.40785,-1.02325 -3.44794,1.374 0.4074,1.02326 z" />
        <path
           inkscape:connector-curvature="0"
           id="path170"
           style="fill:#e6e6e6;fill-opacity:1;fill-rule:nonzero;stroke:none;stroke-width:0.35277775"
           d="m 175.22752,135.66867 -0.29864,-1.06019 -2.17929,0.61404 -0.58617,-2.08072 1.57045,-0.44252 -0.29864,-1.06019 -1.57068,0.44252 -0.51434,-1.82582 2.04152,-0.57529 -0.29864,-1.05974 -3.25873,0.91812 1.99711,7.08688 z" />
        <path
           inkscape:connector-curvature="0"
           id="path174"
           style="fill:#e6e6e6;fill-opacity:1;fill-rule:nonzero;stroke:none;stroke-width:0.35277775"
           d="m 177.63056,135.21416 -0.42666,-2.57558 0.30951,-0.87802 0.0202,-0.004 1.57589,3.21251 1.26774,-0.21027 -2.274,-4.30601 0.89999,-2.92951 -1.24757,0.20665 -0.86306,2.90277 -0.0202,0.003 -0.44502,-2.68639 -1.24734,0.20688 1.20293,7.26384 z" />
        <path
           inkscape:connector-curvature="0"
           id="path178"
           style="fill:#e6e6e6;fill-opacity:1;fill-rule:nonzero;stroke:none;stroke-width:0.35277775"
           d="m 182.29411,134.64593 -0.22137,-4.59354 0.0204,-9.1e-4 1.83058,4.51605 1.10029,-0.053 -0.3546,-7.35402 -1.14085,0.0551 0.20302,4.20631 -0.0204,0.001 -1.74084,-4.13245 -1.17145,0.0564 0.35461,7.35402 z" />
        <path
           inkscape:connector-curvature="0"
           id="path182"
           style="fill:#e6e6e6;fill-opacity:1;fill-rule:nonzero;stroke:none;stroke-width:0.35277775"
           d="m 187.95097,134.63798 0.35212,-7.35402 -1.26321,-0.0605 -0.35189,7.35379 z" />
        <path
           inkscape:connector-curvature="0"
           id="path186"
           style="fill:#e6e6e6;fill-opacity:1;fill-rule:nonzero;stroke:none;stroke-width:0.35277775"
           d="m 191.17515,132.32877 0.55718,-0.74592 0.0204,0.003 0.54584,3.53562 1.2725,0.17764 -0.88595,-4.78772 1.73292,-2.52778 -1.25256,-0.17492 -1.68941,2.51327 -0.0202,-0.003 0.37659,-2.6968 -1.25234,-0.17493 -1.01827,7.29171 1.25211,0.17493 z" />
        <path
           inkscape:connector-curvature="0"
           id="path190"
           style="fill:#e6e6e6;fill-opacity:1;fill-rule:nonzero;stroke:none;stroke-width:0.35277775"
           d="m 202.76304,128.58569 -1.04659,-0.34215 -0.34215,1.0466 1.0466,0.34214 z" />
        <path
           inkscape:connector-curvature="0"
           id="path194"
           style="fill:#e6e6e6;fill-opacity:1;fill-rule:nonzero;stroke:none;stroke-width:0.35277775"
           d="m 198.65554,136.78942 c 1.14357,0.37364 2.05671,-0.0573 2.4496,-1.2589 l 1.70981,-5.23319 -1.20158,-0.3929 -1.72589,5.28191 c -0.1679,0.51344 -0.45362,0.69901 -0.8898,0.55649 -0.43617,-0.14252 -0.55739,-0.46088 -0.3895,-0.97477 l 1.7259,-5.28145 -1.20181,-0.3929 -1.7098,5.23319 c -0.3929,1.20203 0.0895,2.08888 1.23307,2.46252" />
        <path
           inkscape:connector-curvature="0"
           id="path198"
           style="fill:#e6e6e6;fill-opacity:1;fill-rule:nonzero;stroke:none;stroke-width:0.35277775"
           d="m 201.23183,128.08518 -1.0466,-0.34214 -0.34214,1.04659 1.04682,0.34215 z" />
        <path
           inkscape:connector-curvature="0"
           id="path202"
           style="fill:#e6e6e6;fill-opacity:1;fill-rule:nonzero;stroke:none;stroke-width:0.35277775"
           d="m 202.9093,138.31334 1.95542,-4.16168 0.0183,0.009 -0.49735,4.84687 0.99652,0.46812 3.13026,-6.66226 -1.03345,-0.4858 -1.79047,3.81093 -0.0183,-0.008 0.3972,-4.46597 -1.06132,-0.49849 -3.13049,6.66249 z" />
        <path
           inkscape:connector-curvature="0"
           id="path206"
           style="fill:#e6e6e6;fill-opacity:1;fill-rule:nonzero;stroke:none;stroke-width:0.35277775"
           d="m 207.90943,140.95889 3.76696,-6.32556 -1.08647,-0.64667 -3.76674,6.32533 z" />
        <path
           inkscape:connector-curvature="0"
           id="path210"
           style="fill:#e6e6e6;fill-opacity:1;fill-rule:nonzero;stroke:none;stroke-width:0.35277775"
           d="m 211.17698,143.17892 5.56966,-5.05419 -1.00671,-0.73051 -3.74295,3.59567 -0.0165,-0.012 2.25746,-4.67376 -1.00694,-0.73051 -3.07724,6.86302 z" />
        <path
           inkscape:connector-curvature="0"
           id="path214"
           style="fill:#e6e6e6;fill-opacity:1;fill-rule:nonzero;stroke:none;stroke-width:0.35277775"
           d="m 215.75912,147.08285 0.74071,-0.81525 -1.67582,-1.52174 1.45354,-1.60036 1.20769,1.09712 0.74048,-0.81525 -1.2077,-1.09713 1.27545,-1.40368 1.56955,1.42589 0.7407,-0.81502 -2.50602,-2.27627 -4.94974,5.44935 z" />
        <path
           inkscape:connector-curvature="0"
           id="path218"
           style="fill:#e6e6e6;fill-opacity:1;fill-rule:nonzero;stroke:none;stroke-width:0.35277775"
           d="m 222.21897,144.75418 0.29524,0.33806 c 0.44932,0.5148 0.42507,0.87462 -0.23565,1.45127 -0.66072,0.57689 -1.02053,0.55264 -1.47008,0.0378 l -0.29478,-0.33806 z m -4.76303,4.15872 2.274,-1.98533 c 0.14751,0.16903 0.32968,0.36186 0.45227,0.47152 l -1.70664,2.68163 0.84494,0.96774 1.80791,-2.99997 c 0.42757,0.19508 1.09055,0.22567 1.98193,-0.55219 1.18278,-1.033 1.15989,-1.97423 0.2275,-3.04212 l -1.16691,-1.33662 -5.54656,4.84256 z" />
        <path
           inkscape:connector-curvature="0"
           id="path222"
           style="fill:#e6e6e6;fill-opacity:1;fill-rule:nonzero;stroke:none;stroke-width:0.35277775"
           d="m 222.77481,153.04839 c -0.36163,0.24833 -0.72235,0.13708 -0.97046,-0.2241 -0.23112,-0.33625 -0.0959,-0.78806 0.48874,-1.25142 l -0.82409,-0.89365 c -0.87892,0.6657 -1.27114,1.7515 -0.60702,2.7181 0.66978,0.97522 1.68647,1.26638 2.68661,0.57915 1.6475,-1.13156 0.68814,-3.59045 1.72204,-4.30057 0.37817,-0.25966 0.72371,-0.22499 0.95483,0.11126 0.16133,0.23542 0.20075,0.61653 -0.29162,1.01668 l 0.79078,0.91676 c 0.79396,-0.68134 1.06087,-1.60716 0.47764,-2.45617 -0.70422,-1.02552 -1.65497,-1.23851 -2.62135,-0.57439 -1.73994,1.195 -0.60407,3.53245 -1.8061,4.35835" />
        <path
           inkscape:connector-curvature="0"
           id="path226"
           style="fill:#e6e6e6;fill-opacity:1;fill-rule:nonzero;stroke:none;stroke-width:0.35277775"
           d="m 223.38862,157.31653 6.42276,-3.59725 -0.61789,-1.10279 -6.42276,3.59703 z" />
        <path
           inkscape:connector-curvature="0"
           id="path230"
           style="fill:#e6e6e6;fill-opacity:1;fill-rule:nonzero;stroke:none;stroke-width:0.35277775"
           d="m 225.00172,160.62591 5.702,-2.58329 0.50505,1.11434 1.00264,-0.45453 -1.53126,-3.38018 -1.00309,0.4543 0.50483,1.11457 -5.70199,2.58329 z" />
        <path
           inkscape:connector-curvature="0"
           id="path234"
           style="fill:#e6e6e6;fill-opacity:1;fill-rule:nonzero;stroke:none;stroke-width:0.35277775"
           d="m 232.86821,163.91115 1.04455,-0.34735 -1.06744,-3.21161 -6.98446,2.32136 1.11253,3.34733 1.04478,-0.34758 -0.71397,-2.14734 2.05105,-0.68179 0.51457,1.5478 1.04455,-0.34713 -0.51457,-1.5478 1.79953,-0.59818 z" />
        <path
           inkscape:connector-curvature="0"
           id="path238"
           style="fill:#e6e6e6;fill-opacity:1;fill-rule:nonzero;stroke:none;stroke-width:0.35277775"
           d="m 233.19327,168.32114 0.38066,1.14878 c 0.99357,-0.3265 1.59402,-1.0799 1.37922,-2.08706 -0.25944,-1.21653 -1.05657,-1.7762 -2.20308,-1.53149 -2.06396,0.44003 -1.90716,3.03351 -3.33306,3.33759 -0.42892,0.0913 -0.71986,-0.14887 -0.81117,-0.57756 -0.085,-0.39879 0.21208,-0.76473 0.92945,-0.96956 l -0.42031,-1.1404 c -1.06631,0.27916 -1.84327,1.13315 -1.59878,2.27967 0.24652,1.15671 1.07469,1.81403 2.26153,1.56116 1.95429,-0.41691 2.00663,-3.05503 3.23314,-3.31651 0.44886,-0.0958 0.75475,0.0682 0.83972,0.46722 0.0596,0.27915 -0.0496,0.64644 -0.65732,0.82816" />
        <path
           inkscape:connector-curvature="0"
           id="path242"
           style="fill:#e6e6e6;fill-opacity:1;fill-rule:nonzero;stroke:none;stroke-width:0.35277775"
           d="m 235.5151,171.24462 -7.30893,0.87145 0.14954,1.25527 7.30916,-0.87121 z" />
        <path
           inkscape:connector-curvature="0"
           id="path246"
           style="fill:#e6e6e6;fill-opacity:1;fill-rule:nonzero;stroke:none;stroke-width:0.35277775"
           d="m 152.87665,137.49285 c -0.41963,0.33535 -0.68247,0.29388 -0.87326,0.0548 l -0.50573,0.33467 c 0.5762,0.72167 1.02575,0.50981 1.67944,-0.0129 0.6537,-0.52227 0.96072,-0.91426 0.38406,-1.63616 l -0.43799,0.41963 c 0.19079,0.23905 0.17357,0.50461 -0.24652,0.83995" />
        <path
           inkscape:connector-curvature="0"
           id="path250"
           style="fill:#e6e6e6;fill-opacity:1;fill-rule:nonzero;stroke:none;stroke-width:0.35277775"
           d="m 209.43599,213.02906 c -0.44161,0.30679 -0.70105,0.24743 -0.87484,-0.004 l -0.52749,0.30022 c 0.52658,0.75884 0.9895,0.57711 1.67673,0.0995 0.68723,-0.47696 1.01962,-0.84742 0.49304,-1.60648 l -0.46517,0.3895 c 0.17401,0.25083 0.13889,0.51457 -0.30227,0.82137" />
        <path
           inkscape:connector-curvature="0"
           id="path254"
           style="fill:#e6e6e6;fill-opacity:1;fill-rule:nonzero;stroke:none;stroke-width:0.35277775"
           d="m 188.30478,126.8394 0.0451,-0.92401 -1.22627,-0.0598 -0.0451,0.92447 z" />
        <path
           inkscape:connector-curvature="0"
           id="path258"
           style="fill:#e6e6e6;fill-opacity:1;fill-rule:nonzero;stroke:none;stroke-width:0.35277775"
           d="m 211.8616,134.23171 0.4722,-0.79576 -1.05588,-0.62651 -0.4722,0.79554 z" />
        <path
           inkscape:connector-curvature="0"
           id="path262"
           style="fill:#e6e6e6;fill-opacity:1;fill-rule:nonzero;stroke:none;stroke-width:0.35277775"
           d="m 230.18926,153.49757 0.808,-0.45136 -0.59909,-1.07197 -0.80778,0.45158 z" />
        <path
           inkscape:connector-curvature="0"
           id="path266"
           style="fill:#e6e6e6;fill-opacity:1;fill-rule:nonzero;stroke:none;stroke-width:0.35277775"
           d="m 236.87349,171.08885 -0.91834,0.11102 0.1466,1.2188 0.91902,-0.11057 z" />
        <path
           inkscape:connector-curvature="0"
           id="path270"
           style="fill:#e6e6e6;fill-opacity:1;fill-rule:nonzero;stroke:none;stroke-width:0.35277775"
           d="m 158.81654,212.06077 0.98201,0.73731 0.55581,-0.74003 -0.98156,-0.7373 z" />
        <path
           inkscape:connector-curvature="0"
           id="path274"
           style="fill:#e6e6e6;fill-opacity:1;fill-rule:nonzero;stroke:none;stroke-width:0.35277775"
           d="m 138.11681,176.22859 c -0.94395,0 -1.70912,0.76518 -1.70912,1.70868 0,0.94395 0.76517,1.70912 1.70912,1.70912 0.9435,0 1.70868,-0.76517 1.70868,-1.70912 0,-0.9435 -0.76518,-1.70868 -1.70868,-1.70868" />
        <path
           inkscape:connector-curvature="0"
           id="path278"
           style="fill:#e6e6e6;fill-opacity:1;fill-rule:nonzero;stroke:none;stroke-width:0.35277775"
           d="m 232.29978,176.22859 c -0.94395,0 -1.70913,0.76518 -1.70913,1.70868 0,0.94395 0.76518,1.70912 1.70913,1.70912 0.94349,0 1.70867,-0.76517 1.70867,-1.70912 0,-0.9435 -0.76518,-1.70868 -1.70867,-1.70868" />
      </g>
    </g>
    <text
       xml:space="preserve"
       style="font-style:normal;font-weight:normal;font-size:4.23333311px;line-height:6.61458302px;font-family:sans-serif;text-align:start;letter-spacing:0px;word-spacing:0px;text-anchor:start;fill:#000000;fill-opacity:1;stroke:none;stroke-width:0.26458332px;stroke-linecap:butt;stroke-linejoin:miter;stroke-opacity:1"
       x="184.40656"
       y="176.34747"
       id="text2993"><tspan
         sodipodi:role="line"
         id="tspan2991"
         x="184.40656"
         y="176.34747"
         style="font-style:normal;font-variant:normal;font-weight:normal;font-stretch:normal;font-size:8.46666622px;font-family:'Gotham Bold';-inkscape-font-specification:'Gotham Bold, ';text-align:start;text-anchor:start;stroke-width:0.26458332px">Logo for METU Chemistry Club</tspan><tspan
         sodipodi:role="line"
         x="184.40656"
         y="184.57362"
         style="font-style:normal;font-variant:normal;font-weight:normal;font-stretch:normal;font-size:8.46666622px;font-family:'Gotham Bold';-inkscape-font-specification:'Gotham Bold, ';text-align:start;text-anchor:start;stroke-width:0.26458332px"
         id="tspan3005">(2010)</tspan></text>
  </g>
</svg>
