<?xml version="1.0" encoding="UTF-8" standalone="no"?>
<!-- Created with Inkscape (http://www.inkscape.org/) -->

<svg
   xmlns:dc="http://purl.org/dc/elements/1.1/"
   xmlns:cc="http://creativecommons.org/ns#"
   xmlns:rdf="http://www.w3.org/1999/02/22-rdf-syntax-ns#"
   xmlns:svg="http://www.w3.org/2000/svg"
   xmlns="http://www.w3.org/2000/svg"
   xmlns:sodipodi="http://sodipodi.sourceforge.net/DTD/sodipodi-0.dtd"
   xmlns:inkscape="http://www.inkscape.org/namespaces/inkscape"
   version="1.1"
   id="svg2"
   xml:space="preserve"
   width="793.70801"
   height="1122.5212"
   viewBox="0 0 793.70801 1122.5212"
   sodipodi:docname="kbd.svg"
   inkscape:version="0.92.2 5c3e80d, 2017-08-06"><metadata
     id="metadata8"><rdf:RDF><cc:Work
         rdf:about=""><dc:format>image/svg+xml</dc:format><dc:type
           rdf:resource="http://purl.org/dc/dcmitype/StillImage" /><dc:title></dc:title></cc:Work></rdf:RDF></metadata><defs
     id="defs6"><clipPath
       clipPathUnits="userSpaceOnUse"
       id="clipPath22"><path
         d="M 0,841.891 H 595.281 V 0 H 0 Z"
         id="path20"
         inkscape:connector-curvature="0" /></clipPath><clipPath
       clipPathUnits="userSpaceOnUse"
       id="clipPath96"><path
         d="M 0,841.891 H 595.281 V 0 H 0 Z"
         id="path94"
         inkscape:connector-curvature="0" /></clipPath></defs><sodipodi:namedview
     pagecolor="#ffffff"
     bordercolor="#666666"
     borderopacity="1"
     objecttolerance="10"
     gridtolerance="10"
     guidetolerance="10"
     inkscape:pageopacity="0"
     inkscape:pageshadow="2"
     inkscape:window-width="1920"
     inkscape:window-height="1036"
     id="namedview4"
     showgrid="false"
     inkscape:zoom="1.1893028"
     inkscape:cx="244.40654"
     inkscape:cy="964.70028"
     inkscape:window-x="0"
     inkscape:window-y="20"
     inkscape:window-maximized="0"
     inkscape:current-layer="g10" /><g
     id="g10"
     inkscape:groupmode="layer"
     inkscape:label="kbd"
     transform="matrix(1.3333333,0,0,-1.3333333,0,1122.5213)"><g
       id="g12"
       transform="translate(204.1908,528.3174)"><path
         d="M 0,0 -8.247,-8.247 -16.494,0 -8.247,8.247 Z"
         style="fill:#5190cd;fill-opacity:1;fill-rule:nonzero;stroke:none"
         id="path14"
         inkscape:connector-curvature="0" /></g><g
       id="g16"><g
         id="g18"
         clip-path="url(#clipPath22)"><g
           id="g24"
           transform="translate(232.3636,564.7373)"><path
             d="m 0,0 c -9.063,9.063 -23.757,9.063 -32.819,0.001 -7.639,-7.639 -8.839,-19.278 -3.601,-28.174 l 8.247,8.247 8.246,-8.247 -8.246,-8.247 C -19.277,-41.657 -7.638,-40.458 0,-32.819 9.063,-23.756 9.063,-9.063 0,0"
             style="fill:#5190cd;fill-opacity:1;fill-rule:nonzero;stroke:none"
             id="path26"
             inkscape:connector-curvature="0" /></g><g
           id="g28"
           transform="translate(272.0111,544.1631)"><path
             d="m 0,0 -5.52,-4.114 -1.957,-9.634 H -21.626 L -14.2,22.078 H -0.05 L -2.66,9.434 13.095,22.078 H 31.861 L 12.995,8.229 25.791,-13.748 H 6.974 Z"
             style="fill:#231f20;fill-opacity:1;fill-rule:nonzero;stroke:none"
             id="path30"
             inkscape:connector-curvature="0" /></g><g
           id="g32"
           transform="translate(320.6322,552.8945)"><path
             d="m 0,0 h 10.688 c 2.859,0 3.712,0.952 3.963,2.359 0.352,1.354 -0.15,2.257 -3.009,2.257 H 0.954 Z M -2.859,-13.749 H 9.232 c 2.81,0 3.864,1.204 4.215,2.811 0.352,1.555 -0.251,2.81 -3.06,2.81 H -1.706 Z m -8.23,27.096 h 32.214 c 7.375,0 9.934,-3.161 8.729,-8.932 -0.651,-3.211 -2.758,-5.92 -5.719,-6.975 v -0.1 c 4.315,-1.203 4.968,-5.519 4.416,-8.178 -1.455,-7.024 -5.971,-11.641 -16.407,-11.641 h -30.659 z"
             style="fill:#231f20;fill-opacity:1;fill-rule:nonzero;stroke:none"
             id="path34"
             inkscape:connector-curvature="0" /></g><g
           id="g36"
           transform="translate(370.8099,539.4473)"><path
             d="m 0,0 h 8.129 c 6.473,0 9.733,3.211 10.937,8.882 1.155,5.669 -0.752,8.88 -7.224,8.88 H 3.714 Z m -8.58,26.794 h 27.547 c 12.192,0 17.511,-4.717 14.851,-17.912 C 31.21,-3.713 23.733,-9.032 11.842,-9.032 h -27.848 z"
             style="fill:#231f20;fill-opacity:1;fill-rule:nonzero;stroke:none"
             id="path38"
             inkscape:connector-curvature="0" /></g><g
           id="g40"
           transform="translate(325.264,417.5869)"><path
             d="m 0,0 h 17.527 c 4.691,0 6.193,2.129 6.754,5.266 0.722,3.024 -0.004,5.04 -4.694,5.04 l -17.527,0 z m -3.824,-17.942 h 18.587 c 4.607,0 7.8,3.037 8.666,7.086 0.857,3.923 0.095,7.085 -4.512,7.085 H -0.915 Z m -1.913,31.193 h 30.608 c 7.009,0 9.441,-3.004 8.296,-8.486 -0.619,-3.052 -2.622,-5.626 -5.435,-6.627 v -0.096 c 4.101,-1.145 4.72,-5.244 4.196,-7.771 -1.383,-6.675 -5.674,-11.061 -15.591,-11.061 h -29.131 z"
             style="fill:#231f20;fill-opacity:1;fill-rule:nonzero;stroke:none"
             id="path42"
             inkscape:connector-curvature="0" /></g><g
           id="g44"
           transform="translate(325.264,417.5869)"><path
             d="m 0,0 h 17.527 c 4.691,0 6.193,2.129 6.754,5.266 0.722,3.024 -0.004,5.04 -4.694,5.04 l -17.527,0 z m -3.824,-17.942 h 18.587 c 4.607,0 7.8,3.037 8.666,7.086 0.857,3.923 0.095,7.085 -4.512,7.085 H -0.915 Z m -1.913,31.193 h 30.608 c 7.009,0 9.441,-3.004 8.296,-8.486 -0.619,-3.052 -2.622,-5.626 -5.435,-6.627 v -0.096 c 4.101,-1.145 4.72,-5.244 4.196,-7.771 -1.383,-6.675 -5.674,-11.061 -15.591,-11.061 h -29.131 z"
             style="fill:none;stroke:#231f20;stroke-width:1;stroke-linecap:butt;stroke-linejoin:miter;stroke-miterlimit:10;stroke-dasharray:none;stroke-opacity:1"
             id="path46"
             inkscape:connector-curvature="0" /></g><g
           id="g48"
           transform="translate(371.5502,399.7041)"><path
             d="m 0,0 h 12.917 c 10.286,0 15.469,5.103 17.382,14.112 1.834,9.011 -1.195,14.115 -11.482,14.115 H 5.9 Z m -1.961,31.134 h 26.176 c 11.584,0 16.639,-4.482 14.111,-17.022 C 35.848,2.146 28.743,-2.907 17.443,-2.907 h -26.46 z"
             style="fill:#231f20;fill-opacity:1;fill-rule:nonzero;stroke:none"
             id="path50"
             inkscape:connector-curvature="0" /></g><g
           id="g52"
           transform="translate(313.1302,430.8379)"><path
             d="M 0,0 H -10.281 L -37.922,-17.501 -34.295,0 h -8.465 l -7.056,-34.041 h 8.464 l 1.936,9.333 11.835,7.419 13.367,-16.752 h 9.453 l -16.925,20.447 z"
             style="fill:#231f20;fill-opacity:1;fill-rule:nonzero;stroke:none"
             id="path54"
             inkscape:connector-curvature="0" /></g><g
           id="g56"
           transform="translate(216.0111,438.3369)"><path
             d="M 0,0 C 6.16,0 11.841,-2.053 16.396,-5.51 11.438,1.023 3.591,5.244 -5.244,5.244 c -14.995,0 -27.151,-12.155 -27.151,-27.15 0,-5.859 1.864,-11.277 5.02,-15.713 0.005,-0.019 0.008,-0.028 0.008,-0.028 l 0.044,-0.045 c 1.593,-2.225 3.506,-4.204 5.682,-5.856 0,0 -1.29,17.765 5.769,21.798 0,0 -7.959,-2.386 -11.256,-6.503 -0.015,0.365 -0.023,0.733 -0.023,1.102 C -27.151,-12.155 -14.994,0 0,0"
             style="fill:#00aeef;fill-opacity:1;fill-rule:nonzero;stroke:none"
             id="path58"
             inkscape:connector-curvature="0" /></g><g
           id="g60"
           transform="translate(238.142,426.8984)"><path
             d="m 0,0 c -0.005,0.019 -0.007,0.028 -0.007,0.028 l -0.044,0.045 c -1.594,2.225 -3.506,4.203 -5.683,5.856 0,0 1.291,-17.765 -5.768,-21.798 0,0 7.959,2.386 11.255,6.503 0.015,-0.365 0.023,-0.733 0.023,-1.102 0,-14.995 -12.155,-27.151 -27.151,-27.151 -6.16,0 -11.841,2.053 -16.396,5.51 4.958,-6.534 12.806,-10.754 21.64,-10.754 14.995,0 27.152,12.156 27.152,27.15 C 5.021,-9.854 3.156,-4.437 0,0"
             style="fill:#231f20;fill-opacity:1;fill-rule:nonzero;stroke:none"
             id="path62"
             inkscape:connector-curvature="0" /></g><g
           id="g64"
           transform="translate(344.8802,258.9121)"><path
             d="m 0,0 c -5.395,0 -9.769,4.373 -9.769,9.768 0,5.395 4.374,9.769 9.769,9.769 5.396,0 9.769,-4.374 9.769,-9.769 C 9.769,4.373 5.396,0 0,0 m -48.845,0 c -5.395,0 -9.768,4.373 -9.768,9.768 0,5.395 4.373,9.769 9.768,9.769 5.396,0 9.77,-4.374 9.77,-9.769 C -39.075,4.373 -43.449,0 -48.845,0 M 9.769,48.844 V 26.686 C 6.895,28.35 3.561,29.307 0,29.307 c -8.162,0 -15.152,-5.008 -18.074,-12.117 -1.708,1.462 -3.924,2.347 -6.348,2.347 -2.424,0 -4.64,-0.885 -6.348,-2.347 -2.922,7.109 -9.913,12.117 -18.075,12.117 -3.559,0 -6.894,-0.957 -9.768,-2.621 v 22.158 h -9.769 V 9.768 c 0,-10.789 8.747,-19.538 19.537,-19.538 10.791,0 19.538,8.749 19.538,19.538 0,2.698 2.187,4.884 4.885,4.884 2.697,0 4.884,-2.186 4.884,-4.884 0,-10.789 8.748,-19.538 19.538,-19.538 10.791,0 19.538,8.749 19.538,19.538 v 39.076 z"
             style="fill:#cc1443;fill-opacity:1;fill-rule:nonzero;stroke:none"
             id="path66"
             inkscape:connector-curvature="0" /></g><path
           d="m 244.749,307.756 h -9.77 v -58.613 h 9.77 z"
           style="fill:#231f20;fill-opacity:1;fill-rule:nonzero;stroke:none"
           id="path68"
           inkscape:connector-curvature="0" /><g
           id="g70"
           transform="translate(256.9603,288.2178)"><path
             d="M 0,0 H 12.211 L 0,-19.538 12.211,-39.075 H 0 l -10.685,17.096 c -1.041,1.672 -0.961,3.334 0,4.884 z"
             style="fill:#231f20;fill-opacity:1;fill-rule:nonzero;stroke:none"
             id="path72"
             inkscape:connector-curvature="0" /></g></g></g><text
       transform="matrix(1,0,0,-1,167.6406,790.2827)"
       style="font-variant:normal;font-weight:bold;font-stretch:normal;font-size:14px;font-family:'HelveticaNeueLT Com 55 Roman';-inkscape-font-specification:HelveticaNeueLTCom-Bd;writing-mode:lr-tb;fill:#000000;fill-opacity:1;fill-rule:nonzero;stroke:none"
       id="text76"><tspan
         x="0 10.122 18.256001 31.01 39.312 43.203999 53.144001 61.208 69.832001 73.528 86.281998 93.926003 97.636002 104.902 108.794 119.252 127.386 135.8 143.836 148.974 152.67 165.354 169.246 174.944 178.836 187.138 195.67799 204.25999 212.814"
         y="0"
         sodipodi:role="line"
         id="tspan74">Kamu Bağımsız Denetim - Logo </tspan></text>
<text
       transform="matrix(1,0,0,-1,167.6406,768.2887)"
       style="font-variant:normal;font-weight:500;font-stretch:normal;font-size:14px;font-family:'HelveticaNeueLT Com 65 Md';-inkscape-font-specification:HelveticaNeueLTCom-Md;writing-mode:lr-tb;fill:#000000;fill-opacity:1;fill-rule:nonzero;stroke:none"
       id="text80"><tspan
         x="0 10.71 18.690001 26.712 31.639999 35.532001 44.646 52.919998 56.251999 68.445999 76.510002 83.510002 87.402 92.848 96.739998 105.042 113.022 121.044 126.238 133.51801 141.79201 145.12399 157.31799 165.382 172.256 183.274 191.604 203.798 211.65199 214.95599 218.218 221.89999 229.67 237.972"
         y="0"
         sodipodi:role="line"
         id="tspan78">Onur Solmaz - onursolmaz@gmail.com</tspan></text>
<text
       transform="matrix(1,0,0,-1,92.0337,548.0854)"
       style="font-variant:normal;font-weight:normal;font-stretch:normal;font-size:12px;font-family:'HelveticaNeueLT Com 55 Roman';-inkscape-font-specification:HelveticaNeueLTCom-Roman;writing-mode:lr-tb;fill:#231f20;fill-opacity:1;fill-rule:nonzero;stroke:none"
       id="text88"><tspan
         x="0"
         y="0"
         id="tspan82">1</tspan><tspan
         x="0"
         y="135"
         id="tspan84">2</tspan><tspan
         x="0"
         y="270"
         id="tspan86">3</tspan></text>
<g
       id="g90"><g
         id="g92"
         clip-path="url(#clipPath96)"><g
           id="g98"
           transform="translate(32.64,745.9492)"><path
             d="M 0,0 H 530.001"
             style="fill:none;stroke:#000000;stroke-width:0.25;stroke-linecap:butt;stroke-linejoin:miter;stroke-miterlimit:4;stroke-dasharray:none;stroke-opacity:1"
             id="path100"
             inkscape:connector-curvature="0" /></g></g></g></g></svg>