<?xml version="1.0" encoding="UTF-8" standalone="no"?>
<!-- Created with Inkscape (http://www.inkscape.org/) -->

<svg
   xmlns:dc="http://purl.org/dc/elements/1.1/"
   xmlns:cc="http://creativecommons.org/ns#"
   xmlns:rdf="http://www.w3.org/1999/02/22-rdf-syntax-ns#"
   xmlns:svg="http://www.w3.org/2000/svg"
   xmlns="http://www.w3.org/2000/svg"
   xmlns:sodipodi="http://sodipodi.sourceforge.net/DTD/sodipodi-0.dtd"
   xmlns:inkscape="http://www.inkscape.org/namespaces/inkscape"
   version="1.1"
   id="svg2"
   xml:space="preserve"
   width="376.35327"
   height="376.35327"
   viewBox="0 0 376.35327 376.35329"
   sodipodi:docname="kimya1.svg"
   inkscape:version="0.92.2 5c3e80d, 2017-08-06"><metadata
     id="metadata8"><rdf:RDF><cc:Work
         rdf:about=""><dc:format>image/svg+xml</dc:format><dc:type
           rdf:resource="http://purl.org/dc/dcmitype/StillImage" /><dc:title></dc:title></cc:Work></rdf:RDF></metadata><defs
     id="defs6" /><sodipodi:namedview
     pagecolor="#ffffff"
     bordercolor="#666666"
     borderopacity="1"
     objecttolerance="10"
     gridtolerance="10"
     guidetolerance="10"
     inkscape:pageopacity="0"
     inkscape:pageshadow="2"
     inkscape:window-width="1920"
     inkscape:window-height="1036"
     id="namedview4"
     showgrid="false"
     inkscape:zoom="1.6819305"
     inkscape:cx="137.04027"
     inkscape:cy="180.59947"
     inkscape:window-x="0"
     inkscape:window-y="20"
     inkscape:window-maximized="0"
     inkscape:current-layer="g10"
     fit-margin-top="0"
     fit-margin-left="0"
     fit-margin-right="0"
     fit-margin-bottom="0" /><g
     id="g10"
     inkscape:groupmode="layer"
     inkscape:label="Chemistry Dept 1"
     transform="matrix(1.3333333,0,0,-1.3333333,-186.69024,780.05613)"><rect
       style="fill:#f9f9f9;fill-opacity:1;stroke:none;stroke-width:3.01889777;stroke-linecap:round;stroke-linejoin:round;stroke-miterlimit:4;stroke-dasharray:none;stroke-dashoffset:0;stroke-opacity:1;paint-order:stroke fill markers"
       id="rect825"
       width="282.26495"
       height="282.26495"
       x="140.01768"
       y="-585.04211"
       transform="scale(1,-1)" /><g
       id="g838"
       transform="translate(0.89511384,-8.8585182)"><path
         inkscape:connector-curvature="0"
         id="path12"
         style="fill:#e31c1c;fill-opacity:1;fill-rule:evenodd;stroke:none"
         d="m 299.7281,517.0535 27.879,-16.0713 27.8793,-16.0716 V 452.768 420.6257 l -27.8793,-16.0716 -27.879,-16.0713 -27.8793,16.0713 -27.8791,16.0716 v 32.1423 32.1426 l 27.8791,16.0716 z" /><path
         inkscape:connector-curvature="0"
         id="path14"
         style="fill:#ffffff;fill-opacity:1;fill-rule:evenodd;stroke:none"
         d="m 299.7281,512.839 26.0112,-15.0177 26.0116,-15.0179 V 452.768 422.733 l -26.0116,-15.018 -26.0112,-15.0176 -26.0116,15.0176 -26.0113,15.018 v 30.035 30.0354 l 26.0113,15.0179 z" /><path
         inkscape:connector-curvature="0"
         id="path16"
         style="fill:#e31c1c;fill-opacity:1;fill-rule:evenodd;stroke:none"
         d="m 260.782,517.0535 27.879,-16.0713 27.8793,-16.0716 V 452.768 420.6257 l -27.8793,-16.0716 -27.879,-16.0713 -27.8793,16.0713 -27.879,16.0716 v 32.1423 32.1426 l 27.879,16.0716 z" /><path
         inkscape:connector-curvature="0"
         id="path18"
         style="fill:#e31c1c;fill-opacity:1;fill-rule:evenodd;stroke:none"
         d="m 260.782,512.839 26.0113,-15.0177 26.0116,-15.0179 V 452.768 422.733 l -26.0116,-15.018 -26.0113,-15.0176 -26.0115,15.0176 -26.0113,15.018 v 30.035 30.0354 l 26.0113,15.0179 z" /><path
         inkscape:connector-curvature="0"
         id="path20"
         style="fill:#ffffff;fill-opacity:1;fill-rule:evenodd;stroke:none"
         d="m 280.2552,501.5959 -32.5497,-18.7928 v -60.0704 l 32.5497,-18.7926 z" /><path
         inkscape:connector-curvature="0"
         id="path22"
         style="fill:#e31c1c;fill-opacity:1;fill-rule:evenodd;stroke:none"
         d="m 251.8483,480.2176 h 3.8897 v -55.0712 h -3.8897 z" /><path
         inkscape:connector-curvature="0"
         id="path24"
         style="fill:#e31c1c;fill-opacity:1;fill-rule:evenodd;stroke:none"
         d="m 347.44,480.5082 -1.9449,-3.3685 -47.6932,27.5355 1.9449,3.3687 z" /><path
         inkscape:connector-curvature="0"
         id="path26"
         style="fill:#e31c1c;fill-opacity:1;fill-rule:evenodd;stroke:none"
         d="m 299.8959,397.5783 -1.9449,3.3684 47.6932,27.5358 1.9449,-3.3687 z" /><path
         inkscape:connector-curvature="0"
         id="path28"
         style="fill:#ffffff;fill-opacity:1;fill-rule:evenodd;stroke:none"
         d="m 260.3466,508.466 1.9449,-3.3687 -47.6932,-27.5355 -1.9449,3.3684 z" /><path
         inkscape:connector-curvature="0"
         id="path30"
         style="fill:#ffffff;fill-opacity:1;fill-rule:evenodd;stroke:none"
         d="m 308.3941,425.8264 h -3.8897 v 55.0712 h 3.8897 z" /><path
         inkscape:connector-curvature="0"
         id="path32"
         style="fill:#ffffff;fill-opacity:1;fill-rule:evenodd;stroke:none"
         d="m 212.8025,425.5359 1.9449,3.3687 47.6929,-27.5358 -1.9449,-3.3687 z" /></g></g></svg>