<?xml version="1.0" encoding="UTF-8" standalone="no"?>
<!-- Created with Inkscape (http://www.inkscape.org/) -->

<svg
   xmlns:dc="http://purl.org/dc/elements/1.1/"
   xmlns:cc="http://creativecommons.org/ns#"
   xmlns:rdf="http://www.w3.org/1999/02/22-rdf-syntax-ns#"
   xmlns:svg="http://www.w3.org/2000/svg"
   xmlns="http://www.w3.org/2000/svg"
   xmlns:sodipodi="http://sodipodi.sourceforge.net/DTD/sodipodi-0.dtd"
   xmlns:inkscape="http://www.inkscape.org/namespaces/inkscape"
   version="1.1"
   id="svg2"
   xml:space="preserve"
   width="1060.1201"
   height="532.38153"
   viewBox="0 0 1060.1201 532.38153"
   sodipodi:docname="banden.svg"
   inkscape:version="0.92.2 5c3e80d, 2017-08-06"><metadata
     id="metadata8"><rdf:RDF><cc:Work
         rdf:about=""><dc:format>image/svg+xml</dc:format><dc:type
           rdf:resource="http://purl.org/dc/dcmitype/StillImage" /><dc:title></dc:title></cc:Work></rdf:RDF></metadata><defs
     id="defs6"><clipPath
       clipPathUnits="userSpaceOnUse"
       id="clipPath38"><path
         d="M 0,527.843 H 791.608 V 0 H 0 Z"
         id="path36"
         inkscape:connector-curvature="0" /></clipPath></defs><sodipodi:namedview
     pagecolor="#ffffff"
     bordercolor="#666666"
     borderopacity="1"
     objecttolerance="10"
     gridtolerance="10"
     guidetolerance="10"
     inkscape:pageopacity="0"
     inkscape:pageshadow="2"
     inkscape:window-width="1920"
     inkscape:window-height="1036"
     id="namedview4"
     showgrid="false"
     fit-margin-top="0"
     fit-margin-left="0"
     fit-margin-right="0"
     fit-margin-bottom="0"
     inkscape:zoom="0.64615317"
     inkscape:cx="1014.4495"
     inkscape:cy="213.42047"
     inkscape:window-x="0"
     inkscape:window-y="20"
     inkscape:window-maximized="0"
     inkscape:current-layer="g10" /><g
     id="g10"
     inkscape:groupmode="layer"
     inkscape:label="banden"
     transform="matrix(1.3333333,0,0,-1.3333333,3.0952415,674.76264)"><rect
       style="fill:#e6e6e6;fill-opacity:1;stroke:none;stroke-width:0.56692916;stroke-linecap:round;stroke-linejoin:round;stroke-miterlimit:4;stroke-dasharray:none;stroke-dashoffset:0;stroke-opacity:1;paint-order:stroke fill markers"
       id="rect989"
       width="795.09009"
       height="399.28616"
       x="-2.3214312"
       y="-506.07199"
       transform="scale(1,-1)" /><g
       id="g32"><g
         id="g34"
         clip-path="url(#clipPath38)"><g
           id="g40"
           transform="translate(313.4824,325.7529)"><path
             d="m 0,0 c 0,0.875 -0.412,1.574 -1.243,2.101 -0.835,0.524 -1.776,0.919 -2.826,1.181 -1.049,0.263 -2.08,0.415 -3.086,0.46 -1.005,0.042 -1.686,0.066 -2.033,0.066 -0.44,0 -1.164,-0.024 -2.171,-0.066 -1.004,-0.045 -2.032,-0.197 -3.085,-0.46 -1.05,-0.262 -1.968,-0.636 -2.755,-1.116 -0.787,-0.482 -1.182,-1.115 -1.182,-1.903 v -29.939 c 0,-0.88 0.395,-1.558 1.182,-2.038 0.787,-0.484 1.705,-0.832 2.755,-1.051 1.053,-0.218 2.081,-0.35 3.085,-0.393 1.007,-0.044 1.731,-0.067 2.171,-0.067 0.347,0 1.028,0.023 2.033,0.067 1.006,0.043 2.037,0.196 3.086,0.46 1.05,0.262 1.991,0.633 2.826,1.117 0.831,0.479 1.243,1.201 1.243,2.164 z m 22.851,-30.07 c 0,-2.454 -0.481,-5.104 -1.445,-7.947 -0.964,-2.844 -2.758,-5.538 -5.385,-8.075 -1.309,-1.314 -2.754,-2.409 -4.33,-3.283 -1.576,-0.877 -3.177,-1.577 -4.795,-2.102 -1.62,-0.525 -3.172,-0.896 -4.661,-1.116 -1.488,-0.218 -2.804,-0.327 -3.94,-0.327 -1.228,0 -2.582,0.086 -4.068,0.261 -1.493,0.179 -3.044,0.505 -4.664,0.984 -1.624,0.485 -3.238,1.159 -4.857,2.036 -1.624,0.873 -3.134,2.057 -4.532,3.547 v -4.99 H -41.23 v 98.488 h 22.849 V 17.99 c 2.802,2.274 5.732,3.763 8.8,4.465 3.062,0.699 5.687,1.049 7.876,1.049 1.136,0 2.452,-0.109 3.94,-0.328 1.489,-0.219 3.041,-0.589 4.661,-1.114 1.618,-0.525 3.219,-1.228 4.795,-2.102 1.576,-0.875 3.021,-1.97 4.33,-3.284 2.627,-2.626 4.421,-5.363 5.385,-8.206 0.964,-2.847 1.445,-5.45 1.445,-7.814 z"
             style="fill:#231f20;fill-opacity:1;fill-rule:nonzero;stroke:none"
             id="path42"
             inkscape:connector-curvature="0" /></g><g
           id="g44"
           transform="translate(367.4941,295.6826)"><path
             d="m 0,0 c 0,-1.228 0.264,-2.192 0.787,-2.892 0.527,-0.702 1.181,-1.248 1.97,-1.642 0.79,-0.393 1.62,-0.654 2.499,-0.784 0.874,-0.133 1.662,-0.199 2.359,-0.199 2.189,0 3.875,0.15 5.058,0.457 1.181,0.309 2.384,1.031 3.611,2.168 1.399,1.314 2.1,3.677 2.1,7.094 V 8.664 H 9.192 7.026 C 6.02,8.664 4.99,8.489 3.939,8.141 2.892,7.788 1.968,7.221 1.183,6.434 0.393,5.646 0,4.462 0,2.886 Z m 34.273,44.776 c 2.629,-2.54 4.42,-5.231 5.384,-8.073 0.963,-2.849 1.445,-5.452 1.445,-7.814 V -21.012 H 19.829 v 4.991 c -1.4,-1.491 -2.911,-2.674 -4.531,-3.547 -1.619,-0.877 -3.238,-1.552 -4.857,-2.036 -1.62,-0.48 -3.196,-0.806 -4.73,-0.985 -1.53,-0.175 -2.868,-0.261 -4.003,-0.261 -1.139,0 -2.45,0.11 -3.942,0.328 -1.488,0.219 -3.042,0.59 -4.657,1.116 -1.625,0.524 -3.219,1.224 -4.796,2.101 -1.578,0.874 -3.021,1.969 -4.331,3.284 -2.628,2.537 -4.424,5.23 -5.385,8.075 -0.966,2.842 -1.446,5.492 -1.446,7.946 0,2.361 0.48,4.965 1.446,7.813 0.961,2.842 2.757,5.534 5.385,8.075 1.31,1.311 2.753,2.406 4.331,3.283 1.577,0.875 3.171,1.576 4.796,2.101 1.615,0.524 3.169,0.896 4.657,1.116 1.492,0.216 2.803,0.328 3.942,0.328 h 16.676 v 6.173 c 0,1.399 -0.35,2.514 -1.049,3.347 -0.702,0.831 -1.509,1.446 -2.431,1.839 -0.918,0.395 -1.884,0.634 -2.887,0.722 -1.007,0.087 -1.818,0.132 -2.43,0.132 C 8.975,34.929 8.12,34.84 7.026,34.666 5.929,34.49 4.861,34.184 3.807,33.747 2.757,33.309 1.859,32.695 1.119,31.907 0.374,31.121 0,30.113 0,28.889 v -0.527 h -20.879 v 0.527 c 0,2.362 0.503,4.965 1.51,7.814 1.006,2.842 2.779,5.533 5.318,8.073 1.314,1.315 2.78,2.409 4.401,3.285 1.62,0.873 3.239,1.576 4.857,2.099 1.621,0.526 3.172,0.899 4.664,1.117 1.486,0.217 2.8,0.33 3.936,0.33 H 16.68 c 1.134,0 2.447,-0.113 3.936,-0.33 1.49,-0.218 3.021,-0.591 4.597,-1.117 1.575,-0.523 3.153,-1.226 4.728,-2.099 1.577,-0.876 3.022,-1.97 4.332,-3.285"
             style="fill:#231f20;fill-opacity:1;fill-rule:nonzero;stroke:none"
             id="path46"
             inkscape:connector-curvature="0" /></g><g
           id="g48"
           transform="translate(477.5508,342.4287)"><path
             d="m 0,0 c 2.626,-2.626 4.421,-5.363 5.383,-8.206 0.96,-2.847 1.446,-5.45 1.446,-7.814 V -67.758 H -16.02 v 51.082 c 0,0.875 -0.418,1.574 -1.25,2.101 -0.83,0.524 -1.771,0.919 -2.82,1.181 -1.055,0.263 -2.084,0.415 -3.088,0.46 -1.007,0.042 -1.689,0.066 -2.037,0.066 -0.434,0 -1.16,-0.024 -2.165,-0.066 -1.006,-0.045 -2.037,-0.197 -3.087,-0.46 -1.048,-0.262 -1.971,-0.636 -2.758,-1.116 -0.788,-0.482 -1.182,-1.115 -1.182,-1.903 v -51.345 h -22.85 V 4.861 H -35.85 V 0 c 1.401,1.399 2.912,2.563 4.53,3.479 1.619,0.921 3.239,1.622 4.858,2.103 1.619,0.481 3.173,0.809 4.662,0.985 1.487,0.174 2.845,0.261 4.071,0.261 1.139,0 2.45,-0.109 3.941,-0.328 1.486,-0.219 3.038,-0.589 4.662,-1.114 C -7.509,4.861 -5.911,4.158 -4.335,3.284 -2.759,2.409 -1.314,1.314 0,0"
             style="fill:#231f20;fill-opacity:1;fill-rule:nonzero;stroke:none"
             id="path50"
             inkscape:connector-curvature="0" /></g><g
           id="g52"
           transform="translate(516.7461,296.3359)"><path
             d="m 0,0 c 0,-0.963 0.412,-1.685 1.248,-2.164 0.831,-0.484 1.773,-0.855 2.823,-1.117 1.05,-0.264 2.077,-0.417 3.083,-0.46 1.007,-0.044 1.729,-0.067 2.169,-0.067 0.349,0 1.029,0.023 2.035,0.067 1.006,0.043 2.037,0.175 3.086,0.393 1.053,0.219 1.989,0.567 2.825,1.051 0.83,0.48 1.248,1.158 1.248,2.038 V 29.68 c 0,0.788 -0.418,1.421 -1.248,1.903 -0.836,0.48 -1.772,0.854 -2.825,1.116 -1.049,0.263 -2.08,0.415 -3.086,0.46 -1.006,0.042 -1.686,0.066 -2.035,0.066 -0.44,0 -1.162,-0.024 -2.169,-0.066 C 6.148,33.114 5.121,32.962 4.071,32.699 3.021,32.437 2.079,32.042 1.248,31.518 0.412,30.991 0,30.292 0,29.417 Z m -15.891,-16.675 c -2.624,2.537 -4.42,5.231 -5.384,8.075 -0.963,2.843 -1.443,5.493 -1.443,7.947 v 30.726 c 0,2.364 0.48,4.967 1.443,7.814 0.964,2.842 2.76,5.58 5.384,8.206 1.317,1.314 2.76,2.409 4.337,3.284 1.573,0.874 3.173,1.577 4.791,2.102 1.618,0.525 3.172,0.895 4.662,1.114 1.488,0.219 2.802,0.328 3.937,0.328 2.19,0 4.817,-0.35 7.883,-1.049 3.061,-0.702 5.993,-2.191 8.798,-4.465 V 76.823 H 41.232 V -21.665 H 19.96 v 4.99 c -1.401,-1.49 -2.91,-2.674 -4.528,-3.547 -1.622,-0.877 -3.244,-1.551 -4.862,-2.036 -1.62,-0.479 -3.195,-0.805 -4.725,-0.984 -1.534,-0.175 -2.868,-0.261 -4.009,-0.261 -1.135,0 -2.449,0.109 -3.937,0.327 -1.49,0.22 -3.044,0.591 -4.662,1.116 -1.618,0.525 -3.218,1.225 -4.791,2.102 -1.577,0.874 -3.02,1.969 -4.337,3.283"
             style="fill:#231f20;fill-opacity:1;fill-rule:nonzero;stroke:none"
             id="path54"
             inkscape:connector-curvature="0" /></g><g
           id="g56"
           transform="translate(610.2051,316.2959)"><path
             d="m 0,0 v 7.617 c 0,0.875 -0.418,1.576 -1.25,2.103 -0.834,0.524 -1.77,0.918 -2.823,1.182 -1.049,0.263 -2.078,0.413 -3.083,0.459 -1.01,0.042 -1.732,0.063 -2.168,0.063 -0.438,0 -1.161,-0.021 -2.168,-0.063 -1.005,-0.046 -2.034,-0.196 -3.085,-0.459 -1.051,-0.264 -1.971,-0.658 -2.757,-1.182 -0.789,-0.527 -1.184,-1.228 -1.184,-2.103 V 0 Z m 15.889,24.163 c 2.626,-2.54 4.419,-5.231 5.384,-8.073 0.96,-2.849 1.444,-5.452 1.444,-7.815 v -18.384 h -41.235 v -8.01 c 0,-0.878 0.395,-1.577 1.184,-2.1 0.786,-0.527 1.706,-0.922 2.757,-1.183 1.051,-0.264 2.08,-0.417 3.085,-0.46 1.007,-0.046 1.73,-0.067 2.168,-0.067 0.436,0 1.158,0.021 2.168,0.067 1.005,0.043 2.034,0.196 3.083,0.46 1.053,0.261 1.989,0.656 2.823,1.183 0.832,0.523 1.25,1.222 1.25,2.1 v 0.525 h 22.717 v -1.183 c 0,-2.452 -0.484,-5.101 -1.444,-7.944 -0.965,-2.845 -2.758,-5.54 -5.384,-8.077 -1.314,-1.311 -2.758,-2.409 -4.335,-3.283 -1.573,-0.875 -3.172,-1.574 -4.792,-2.101 -1.623,-0.525 -3.176,-0.898 -4.663,-1.116 -1.49,-0.22 -2.803,-0.327 -3.938,-0.327 h -14.838 c -1.138,0 -2.453,0.107 -3.94,0.327 -1.489,0.218 -3.044,0.591 -4.662,1.116 -1.619,0.527 -3.216,1.226 -4.793,2.101 -1.575,0.874 -3.021,1.972 -4.334,3.283 -2.626,2.537 -4.421,5.232 -5.386,8.077 -0.963,2.843 -1.442,5.492 -1.442,7.944 V 8.275 c 0,2.363 0.479,4.966 1.442,7.815 0.965,2.842 2.76,5.533 5.386,8.073 1.313,1.315 2.759,2.408 4.334,3.284 1.577,0.873 3.174,1.576 4.793,2.1 1.618,0.525 3.173,0.898 4.662,1.117 1.487,0.217 2.802,0.33 3.94,0.33 h 14.838 c 1.135,0 2.448,-0.113 3.938,-0.33 1.487,-0.219 3.04,-0.592 4.663,-1.117 1.62,-0.524 3.219,-1.227 4.792,-2.1 1.577,-0.876 3.021,-1.969 4.335,-3.284"
             style="fill:#231f20;fill-opacity:1;fill-rule:nonzero;stroke:none"
             id="path58"
             inkscape:connector-curvature="0" /></g><g
           id="g60"
           transform="translate(700.9287,342.4287)"><path
             d="m 0,0 c 2.627,-2.626 4.423,-5.363 5.386,-8.206 0.962,-2.847 1.443,-5.45 1.443,-7.814 v -51.738 h -22.85 v 51.082 c 0,0.875 -0.412,1.574 -1.245,2.101 -0.835,0.524 -1.775,0.919 -2.823,1.181 -1.051,0.263 -2.081,0.415 -3.087,0.46 -1.009,0.042 -1.685,0.066 -2.035,0.066 -0.438,0 -1.16,-0.024 -2.167,-0.066 -1.009,-0.045 -2.034,-0.197 -3.087,-0.46 -1.051,-0.262 -1.967,-0.636 -2.756,-1.116 -0.789,-0.482 -1.18,-1.115 -1.18,-1.903 V -67.758 H -57.252 V 4.861 h 21.405 V 0 c 1.399,1.399 2.908,2.563 4.532,3.479 1.619,0.921 3.236,1.622 4.857,2.103 1.62,0.481 3.172,0.809 4.664,0.985 1.486,0.174 2.84,0.261 4.069,0.261 1.136,0 2.449,-0.109 3.941,-0.328 1.487,-0.219 3.038,-0.589 4.658,-1.114 C -7.505,4.861 -5.907,4.158 -4.332,3.284 -2.753,2.409 -1.311,1.314 0,0"
             style="fill:#231f20;fill-opacity:1;fill-rule:nonzero;stroke:none"
             id="path62"
             inkscape:connector-curvature="0" /></g><g
           id="g64"
           transform="translate(196.3745,358.4219)"><path
             d="m 0,0 c -19.796,-10.599 -65.789,-18.028 -119.375,-18.028 v -24.334 c 60.489,0 112.348,6.386 134.334,15.475 C 10.914,-17.362 5.883,-8.36 0,0"
             style="fill:#231f20;fill-opacity:1;fill-rule:nonzero;stroke:none"
             id="path66"
             inkscape:connector-curvature="0" /></g><g
           id="g68"
           transform="translate(77,420.4424)"><path
             d="m 0,0 v -60.322 c 50.06,0 92.477,5.658 107.097,13.48 C 80.449,-18.039 42.333,0 0,0"
             style="fill:#231f20;fill-opacity:1;fill-rule:nonzero;stroke:none"
             id="path70"
             inkscape:connector-curvature="0" /></g><g
           id="g72"
           transform="translate(218.9194,308.4316)"><path
             d="m 0,0 c -29.746,-10.749 -82.181,-17.889 -141.919,-17.889 v -15.98 H 3.961 C 3.961,-22.208 2.584,-10.87 0,0"
             style="fill:#231f20;fill-opacity:1;fill-rule:nonzero;stroke:none"
             id="path74"
             inkscape:connector-curvature="0" /></g><g
           id="g76"
           transform="translate(163.5366,392.0059)"><path
             d="m 0,0 c 16.042,-3.371 25.681,-7.692 25.681,-12.404 0,-2.051 -1.835,-4.031 -5.226,-5.89 4.421,-4.767 8.531,-9.825 12.287,-15.153 6.498,3.537 10.093,7.426 10.093,11.507 0,8.779 -16.63,16.666 -43.055,22.099 C -0.146,0.105 -0.073,0.052 0,0"
             style="fill:#231f20;fill-opacity:1;fill-rule:nonzero;stroke:none"
             id="path78"
             inkscape:connector-curvature="0" /></g><g
           id="g80"
           transform="translate(198.4995,355.3135)"><path
             d="m 0,0 c 0.071,-0.106 0.141,-0.213 0.211,-0.319 14.824,-3.952 23.444,-8.669 23.444,-13.736 0,-3.394 -3.875,-6.631 -10.882,-9.586 3.155,-7.404 5.707,-15.127 7.614,-23.101 16.124,5.899 25.457,12.875 25.457,20.351 C 45.844,-16.167 28.411,-6.877 0,0"
             style="fill:#231f20;fill-opacity:1;fill-rule:nonzero;stroke:none"
             id="path82"
             inkscape:connector-curvature="0" /></g></g></g><g
       aria-label="Bağımsız Denetim Hizmetleri A.Ş."
       transform="scale(1,-1)"
       style="font-variant:normal;font-weight:bold;font-stretch:condensed;font-size:45.59810257px;font-family:'HelveticaNeueLT Com 57 Cn';-inkscape-font-specification:HelveticaNeueLTCom-BdCn;writing-mode:lr-tb;fill:#231f20;fill-opacity:1;fill-rule:nonzero;stroke:none;stroke-width:0.99999994"
       id="text894"><path
         d="m 87.313481,-222.23491 h 2.325503 q 2.325504,0 3.237466,-1.23115 0.911962,-1.27675 0.911962,-3.00948 0,-2.4623 -1.139953,-3.51105 -1.094354,-1.04876 -2.87268,-1.04876 h -2.462298 z m 0,-13.90743 h 2.097513 q 2.051914,0 2.87268,-1.04875 0.866364,-1.04876 0.866364,-2.78149 0,-0.59277 -0.182392,-1.23114 -0.182393,-0.63838 -0.638374,-1.13996 -0.410383,-0.50158 -1.139952,-0.82076 -0.683972,-0.31919 -1.732728,-0.31919 H 87.313481 Z M 79.653,-249.13779 h 11.901105 q 4.195025,0 6.702921,2.00631 2.553494,1.96072 2.553494,6.01895 0,2.87268 -1.413542,4.879 -1.367943,2.00631 -3.693446,2.4623 v 0.0912 q 0.911962,0.1368 1.960718,0.50158 1.048757,0.31919 1.960719,1.18555 0.911961,0.86637 1.504741,2.3711 0.59277,1.50474 0.59277,4.01264 0,1.45914 -0.41038,3.05507 -0.41038,1.55033 -1.595935,2.91828 -1.139953,1.32234 -3.237465,2.18871 -2.097513,0.86636 -5.517371,0.86636 H 79.653 Z"
         style="font-style:normal;font-variant:normal;font-weight:800;font-stretch:normal;font-family:'Helvetica Neue LT Com';-inkscape-font-specification:'Helvetica Neue LT Com Ultra-Bold';stroke-width:0.99999994"
         id="path914"
         inkscape:connector-curvature="0" /><path
         d="m 111.80964,-224.19563 q 0,1.45914 0.54717,2.3255 0.54718,0.82077 1.59594,0.82077 1.18555,0 2.05191,-0.72957 0.91196,-0.72957 0.91196,-2.64469 0,-1.55034 0,-2.5535 0.0456,-1.00316 0.0456,-1.77832 -1.73273,0.91196 -2.64469,1.18555 -0.86636,0.22799 -1.36794,0.63837 -0.59278,0.45598 -0.86637,1.09436 -0.27358,0.59277 -0.27358,1.64153 z m -6.42934,-9.48441 q 0.0456,-2.59909 0.72957,-4.14943 0.72957,-1.55033 2.05192,-2.46229 1.32234,-0.91196 2.91828,-1.23115 1.64153,-0.36479 3.96703,-0.36479 4.55981,0 6.65732,1.68713 2.09752,1.64154 2.09752,5.60857 v 12.67627 q 0,1.41354 0.0912,2.96388 0.1368,1.55033 0.77517,2.3711 h -7.1133 q -0.22799,-0.63837 -0.31919,-1.36794 -0.0456,-0.72957 -0.0912,-1.45914 h -0.0912 q -0.77517,1.64153 -2.32551,2.55349 -1.55033,0.91196 -3.46545,0.91196 -3.14627,0 -4.879,-1.73272 -1.68713,-1.77833 -1.68713,-5.79096 0,-2.18871 0.82077,-3.83024 0.82076,-1.68713 2.18871,-2.4623 1.36794,-0.77517 3.19186,-1.18555 1.86953,-0.41038 3.41986,-0.82077 0.82077,-0.22799 1.32235,-0.41038 0.54717,-0.22799 0.82076,-0.50158 0.31919,-0.31919 0.41039,-0.77517 0.0912,-0.45598 0.0912,-1.13995 0,-1.13995 -0.54718,-1.77833 -0.54717,-0.68397 -1.77832,-0.68397 -1.55034,0 -2.09751,0.91196 -0.54718,0.86637 -0.59278,2.4623 z"
         style="font-style:normal;font-variant:normal;font-weight:800;font-stretch:normal;font-family:'Helvetica Neue LT Com';-inkscape-font-specification:'Helvetica Neue LT Com Ultra-Bold';stroke-width:0.99999994"
         id="path916"
         inkscape:connector-curvature="0" /><path
         d="m 135.29266,-229.34822 q 0,1.91512 0.1368,3.23747 0.13679,1.32234 0.45598,2.09751 0.31918,0.77517 0.82076,1.13995 0.50158,0.31919 1.27675,0.31919 0.72957,0 1.27675,-0.31919 0.54717,-0.31918 0.86636,-1.09435 0.31919,-0.82077 0.45598,-2.14311 0.18239,-1.36795 0.18239,-3.46546 0,-3.41986 -0.54717,-5.01579 -0.54718,-1.64153 -2.14311,-1.64153 -0.91197,0 -1.45914,0.50158 -0.54718,0.50158 -0.86637,1.41354 -0.27359,0.91196 -0.36478,2.18871 -0.0912,1.27674 -0.0912,2.78148 z m 5.74536,-11.9011 h 6.83972 v 23.80221 q 0,2.09751 -0.50158,3.78464 -0.50158,1.73273 -1.73273,2.91828 -1.18555,1.23115 -3.14627,1.86952 -1.96072,0.68397 -4.879,0.68397 -2.69028,0 -4.46861,-0.54718 -1.77833,-0.54717 -2.87268,-1.50473 -1.04876,-0.91197 -1.50474,-2.18871 -0.41038,-1.23115 -0.41038,-2.59909 h 6.83971 q 0.1824,1.00315 0.77517,1.50473 0.77517,0.50158 1.82393,0.50158 0.91196,0 1.45914,-0.31918 0.59277,-0.31919 0.91196,-1.09436 0.36478,-0.72957 0.45598,-1.91512 0.13679,-1.18555 0.13679,-2.96388 v -1.50473 h -0.0912 q -0.77517,2.14311 -2.3711,2.91828 -1.55034,0.72957 -3.46546,0.72957 -2.00632,0 -3.32866,-0.91197 -1.32235,-0.95756 -2.14311,-2.55349 -0.77517,-1.64153 -1.13996,-3.83024 -0.31918,-2.23431 -0.31918,-4.7878 0,-2.18871 0.22799,-4.42302 0.22799,-2.2799 0.95756,-4.05823 0.77517,-1.82392 2.18871,-2.96388 1.41354,-1.18555 3.83024,-1.18555 2.50789,0 3.83024,1.13996 1.36794,1.13995 2.00632,2.82708 h 0.0912 z m -2.3255,-6.20134 q 1.13995,0 2.14311,-0.77517 1.00316,-0.82077 1.18555,-2.14311 h 3.28306 q 0,1.36794 -0.41038,2.55349 -0.36478,1.13995 -1.18555,2.05191 -0.82077,0.86637 -2.09751,1.36795 -1.23115,0.50158 -2.91828,0.50158 -1.73273,0 -2.96388,-0.50158 -1.23115,-0.50158 -2.05191,-1.36795 -0.82077,-0.91196 -1.23115,-2.05191 -0.36479,-1.18555 -0.36479,-2.55349 h 3.28307 q 0.18239,1.32234 1.18555,2.14311 1.00316,0.77517 2.14311,0.77517 z"
         style="font-style:normal;font-variant:normal;font-weight:800;font-stretch:normal;font-family:'Helvetica Neue LT Com';-inkscape-font-specification:'Helvetica Neue LT Com Ultra-Bold';stroke-width:0.99999994"
         id="path918"
         inkscape:connector-curvature="0" /><path
         d="m 152.18818,-241.24932 h 7.38689 v 24.66857 h -7.38689 z"
         style="font-style:normal;font-variant:normal;font-weight:800;font-stretch:normal;font-family:'Helvetica Neue LT Com';-inkscape-font-specification:'Helvetica Neue LT Com Ultra-Bold';stroke-width:0.99999994"
         id="path920"
         inkscape:connector-curvature="0" /><path
         d="m 164.0786,-241.24932 h 7.11331 v 2.91828 h 0.0912 q 0.77517,-1.64154 2.32551,-2.5991 1.55033,-0.95756 3.60225,-0.95756 0.82076,0 1.68713,0.1368 0.91196,0.0912 1.73272,0.50158 0.82077,0.36478 1.50474,1.13995 0.72957,0.72957 1.13995,2.00632 1.27675,-2.14311 2.64469,-2.96388 1.41355,-0.82077 3.46546,-0.82077 3.14627,0 4.7878,1.64154 1.64153,1.64153 1.64153,5.19818 v 18.46723 H 188.428 v -16.8257 q 0,-1.32234 -0.54718,-2.05191 -0.54717,-0.77517 -1.59593,-0.77517 -1.04876,0 -1.86952,0.86636 -0.77517,0.82077 -0.77517,2.64469 v 16.14173 h -7.38689 v -16.8257 q 0,-1.32234 -0.54718,-2.05191 -0.54718,-0.77517 -1.59593,-0.77517 -1.04876,0 -1.86953,0.86636 -0.77516,0.82077 -0.77516,2.64469 v 16.14173 h -7.3869 z"
         style="font-style:normal;font-variant:normal;font-weight:800;font-stretch:normal;font-family:'Helvetica Neue LT Com';-inkscape-font-specification:'Helvetica Neue LT Com Ultra-Bold';stroke-width:0.99999994"
         id="path922"
         inkscape:connector-curvature="0" /><path
         d="m 205.84076,-224.42362 q 0.0456,0.82076 0.1368,1.55033 0.0912,0.68397 0.36478,1.23115 0.31919,0.50158 0.82077,0.82077 0.54717,0.31918 1.45914,0.31918 1.32234,0 1.96071,-0.72957 0.68398,-0.72957 0.68398,-1.77832 0,-0.86637 -0.54718,-1.64153 -0.54718,-0.77517 -2.27991,-1.36795 -2.2799,-0.77516 -3.96703,-1.45914 -1.68713,-0.68397 -2.82708,-1.55033 -1.09436,-0.91196 -1.64154,-2.18871 -0.54717,-1.27675 -0.54717,-3.23747 0,-3.69344 2.4167,-5.56296 2.46229,-1.86953 6.97651,-1.86953 2.59909,0 4.28622,0.59278 1.73273,0.59277 2.73588,1.55033 1.04876,0.95756 1.45914,2.23431 0.45598,1.23115 0.45598,2.5535 v 0.82076 h -6.56612 v -0.45598 q 0,-1.59593 -0.63838,-2.14311 -0.59277,-0.59278 -1.77832,-0.59278 -1.45914,0 -2.00632,0.63838 -0.50158,0.63837 -0.50158,1.64153 0,1.09435 0.86637,1.68713 0.86636,0.54718 2.1887,1.00316 1.32235,0.41038 2.82709,0.86636 1.55033,0.45598 2.87268,1.32235 1.32234,0.86636 2.18871,2.3255 0.86636,1.45914 0.86636,3.83024 0,3.73904 -2.4167,5.92775 -2.3711,2.14311 -7.02211,2.14311 -4.97019,0 -7.2045,-1.82392 -2.18871,-1.86952 -2.18871,-5.56297 v -1.09435 z"
         style="font-style:normal;font-variant:normal;font-weight:800;font-stretch:normal;font-family:'Helvetica Neue LT Com';-inkscape-font-specification:'Helvetica Neue LT Com Ultra-Bold';stroke-width:0.99999994"
         id="path924"
         inkscape:connector-curvature="0" /><path
         d="m 221.47592,-241.24932 h 7.38689 v 24.66857 h -7.38689 z"
         style="font-style:normal;font-variant:normal;font-weight:800;font-stretch:normal;font-family:'Helvetica Neue LT Com';-inkscape-font-specification:'Helvetica Neue LT Com Ultra-Bold';stroke-width:0.99999994"
         id="path926"
         inkscape:connector-curvature="0" /><path
         d="m 232.49997,-222.23491 9.30202,-13.36025 h -8.89163 v -5.65416 h 17.64646 v 5.65416 l -9.5756,13.36025 h 9.80359 v 5.65416 h -18.28484 z"
         style="font-style:normal;font-variant:normal;font-weight:800;font-stretch:normal;font-family:'Helvetica Neue LT Com';-inkscape-font-specification:'Helvetica Neue LT Com Ultra-Bold';stroke-width:0.99999994"
         id="path928"
         inkscape:connector-curvature="0" /><path
         d="m 274.06977,-222.23491 h 2.05191 q 1.32235,0 2.23431,-0.36479 0.91196,-0.36478 1.45914,-1.55033 0.59277,-1.18556 0.82076,-3.37426 0.27359,-2.23431 0.27359,-5.88216 0,-2.96388 -0.18239,-4.92459 -0.13679,-1.96072 -0.63837,-3.10068 -0.50158,-1.13995 -1.45914,-1.59593 -0.91196,-0.45598 -2.4167,-0.45598 h -2.14311 z m -7.66048,-26.90288 h 11.35392 q 2.82709,0 4.879,0.82076 2.05192,0.77517 3.37426,2.55349 1.32235,1.77833 1.91512,4.69661 0.63837,2.91828 0.63837,7.1589 0,4.42302 -0.41038,7.70608 -0.36478,3.23747 -1.59593,5.38058 -1.23115,2.14311 -3.51106,3.19186 -2.2799,1.04876 -6.06454,1.04876 h -10.57876 z"
         style="font-style:normal;font-variant:normal;font-weight:800;font-stretch:normal;font-family:'Helvetica Neue LT Com';-inkscape-font-specification:'Helvetica Neue LT Com Ultra-Bold';stroke-width:0.99999994"
         id="path930"
         inkscape:connector-curvature="0" /><path
         d="m 304.17449,-231.99291 q 0,-2.59909 -0.50158,-3.96703 -0.45598,-1.36795 -2.00631,-1.36795 -1.82393,0 -2.32551,1.41354 -0.50157,1.41355 -0.50157,3.92144 z m -5.33497,4.28622 v 1.50474 q 0,2.87268 0.54717,4.28622 0.54718,1.41354 2.14311,1.41354 1.45914,0 2.00632,-1.09435 0.54718,-1.09436 0.68397,-3.41986 h 6.83972 q -0.0912,4.65101 -2.5079,6.88532 -2.4167,2.1887 -7.0677,2.1887 -3.51106,0 -5.51738,-1.13995 -1.96071,-1.13995 -3.00947,-3.05507 -1.00316,-1.91512 -1.27675,-4.42302 -0.22799,-2.50789 -0.22799,-5.24378 0,-2.59909 0.41039,-4.7878 0.45598,-2.23431 1.59593,-3.83024 1.13995,-1.64153 3.05507,-2.55349 1.96072,-0.91197 4.9702,-0.91197 3.41985,0 5.38057,1.04876 1.96072,1.00316 2.91828,2.91828 1.00316,1.86952 1.23115,4.46861 0.27359,2.59909 0.27359,5.74536 z"
         style="font-style:normal;font-variant:normal;font-weight:800;font-stretch:normal;font-family:'Helvetica Neue LT Com';-inkscape-font-specification:'Helvetica Neue LT Com Ultra-Bold';stroke-width:0.99999994"
         id="path932"
         inkscape:connector-curvature="0" /><path
         d="m 314.18185,-241.24932 h 7.1133 v 2.91828 h 0.0912 q 0.77517,-1.64154 2.3255,-2.5991 1.55034,-0.95756 3.60225,-0.95756 3.14627,0 4.78781,1.64154 1.64153,1.64153 1.64153,5.19818 v 18.46723 h -7.3869 v -16.8257 q 0,-1.32234 -0.54717,-2.05191 -0.54718,-0.77517 -1.59594,-0.77517 -1.04875,0 -1.86952,0.86636 -0.77517,0.82077 -0.77517,2.64469 v 16.14173 h -7.38689 z"
         style="font-style:normal;font-variant:normal;font-weight:800;font-stretch:normal;font-family:'Helvetica Neue LT Com';-inkscape-font-specification:'Helvetica Neue LT Com Ultra-Bold';stroke-width:0.99999994"
         id="path934"
         inkscape:connector-curvature="0" /><path
         d="m 349.77261,-231.99291 q 0,-2.59909 -0.50158,-3.96703 -0.45598,-1.36795 -2.00632,-1.36795 -1.82392,0 -2.3255,1.41354 -0.50158,1.41355 -0.50158,3.92144 z m -5.33498,4.28622 v 1.50474 q 0,2.87268 0.54718,4.28622 0.54717,1.41354 2.14311,1.41354 1.45914,0 2.00631,-1.09435 0.54718,-1.09436 0.68398,-3.41986 h 6.83971 q -0.0912,4.65101 -2.5079,6.88532 -2.41669,2.1887 -7.0677,2.1887 -3.51105,0 -5.51737,-1.13995 -1.96072,-1.13995 -3.00948,-3.05507 -1.00315,-1.91512 -1.27674,-4.42302 -0.22799,-2.50789 -0.22799,-5.24378 0,-2.59909 0.41038,-4.7878 0.45598,-2.23431 1.59593,-3.83024 1.13996,-1.64153 3.05508,-2.55349 1.96071,-0.91197 4.97019,-0.91197 3.41986,0 5.38058,1.04876 1.96071,1.00316 2.91827,2.91828 1.00316,1.86952 1.23115,4.46861 0.27359,2.59909 0.27359,5.74536 z"
         style="font-style:normal;font-variant:normal;font-weight:800;font-stretch:normal;font-family:'Helvetica Neue LT Com';-inkscape-font-specification:'Helvetica Neue LT Com Ultra-Bold';stroke-width:0.99999994"
         id="path936"
         inkscape:connector-curvature="0" /><path
         d="m 360.73751,-236.14234 h -3.05507 v -5.10698 h 3.05507 v -7.2501 h 7.38689 v 7.2501 h 3.41986 v 5.10698 h -3.41986 v 12.44829 q 0,1.32234 0.50158,1.82392 0.54718,0.45598 1.86952,0.45598 0.22799,0 0.50158,0 0.31919,-0.0456 0.54718,-0.0912 v 4.92459 q -2.14311,0.27359 -4.24062,0.27359 -1.91512,0 -3.19187,-0.22799 -1.27675,-0.22799 -2.05192,-0.91196 -0.72956,-0.72957 -1.04875,-2.05192 -0.27359,-1.32234 -0.27359,-3.46545 z"
         style="font-style:normal;font-variant:normal;font-weight:800;font-stretch:normal;font-family:'Helvetica Neue LT Com';-inkscape-font-specification:'Helvetica Neue LT Com Ultra-Bold';stroke-width:0.99999994"
         id="path938"
         inkscape:connector-curvature="0" /><path
         d="m 374.30081,-249.50258 h 7.3869 v 5.65417 h -7.3869 z m 0,8.25326 h 7.3869 v 24.66857 h -7.3869 z"
         style="font-style:normal;font-variant:normal;font-weight:800;font-stretch:normal;font-family:'Helvetica Neue LT Com';-inkscape-font-specification:'Helvetica Neue LT Com Ultra-Bold';stroke-width:0.99999994"
         id="path940"
         inkscape:connector-curvature="0" /><path
         d="m 386.19123,-241.24932 h 7.1133 v 2.91828 h 0.0912 q 0.77517,-1.64154 2.3255,-2.5991 1.55034,-0.95756 3.60225,-0.95756 0.82077,0 1.68713,0.1368 0.91196,0.0912 1.73273,0.50158 0.82077,0.36478 1.50474,1.13995 0.72957,0.72957 1.13995,2.00632 1.27675,-2.14311 2.64469,-2.96388 1.41354,-0.82077 3.46546,-0.82077 3.14626,0 4.7878,1.64154 1.64153,1.64153 1.64153,5.19818 v 18.46723 h -7.38689 v -16.8257 q 0,-1.32234 -0.54718,-2.05191 -0.54718,-0.77517 -1.59594,-0.77517 -1.04875,0 -1.86952,0.86636 -0.77517,0.82077 -0.77517,2.64469 v 16.14173 h -7.38689 v -16.8257 q 0,-1.32234 -0.54718,-2.05191 -0.54717,-0.77517 -1.59593,-0.77517 -1.04876,0 -1.86952,0.86636 -0.77517,0.82077 -0.77517,2.64469 v 16.14173 h -7.38689 z"
         style="font-style:normal;font-variant:normal;font-weight:800;font-stretch:normal;font-family:'Helvetica Neue LT Com';-inkscape-font-specification:'Helvetica Neue LT Com Ultra-Bold';stroke-width:0.99999994"
         id="path942"
         inkscape:connector-curvature="0" /><path
         d="m 434.46324,-249.13779 h 7.66048 v 12.17469 h 6.11015 v -12.17469 h 7.66048 v 32.55704 h -7.66048 v -13.90742 h -6.11015 v 13.90742 h -7.66048 z"
         style="font-style:normal;font-variant:normal;font-weight:800;font-stretch:normal;font-family:'Helvetica Neue LT Com';-inkscape-font-specification:'Helvetica Neue LT Com Ultra-Bold';stroke-width:0.99999994"
         id="path944"
         inkscape:connector-curvature="0" /><path
         d="m 460.50974,-249.50258 h 7.38689 v 5.65417 h -7.38689 z m 0,8.25326 h 7.38689 v 24.66857 h -7.38689 z"
         style="font-style:normal;font-variant:normal;font-weight:800;font-stretch:normal;font-family:'Helvetica Neue LT Com';-inkscape-font-specification:'Helvetica Neue LT Com Ultra-Bold';stroke-width:0.99999994"
         id="path946"
         inkscape:connector-curvature="0" /><path
         d="m 471.53379,-222.23491 9.30201,-13.36025 h -8.89163 v -5.65416 h 17.64647 v 5.65416 l -9.5756,13.36025 h 9.80359 v 5.65416 h -18.28484 z"
         style="font-style:normal;font-variant:normal;font-weight:800;font-stretch:normal;font-family:'Helvetica Neue LT Com';-inkscape-font-specification:'Helvetica Neue LT Com Ultra-Bold';stroke-width:0.99999994"
         id="path948"
         inkscape:connector-curvature="0" /><path
         d="m 493.50709,-241.24932 h 7.1133 v 2.91828 h 0.0912 q 0.77516,-1.64154 2.3255,-2.5991 1.55033,-0.95756 3.60225,-0.95756 0.82076,0 1.68713,0.1368 0.91196,0.0912 1.73273,0.50158 0.82076,0.36478 1.50473,1.13995 0.72957,0.72957 1.13996,2.00632 1.27674,-2.14311 2.64469,-2.96388 1.41354,-0.82077 3.46545,-0.82077 3.14627,0 4.7878,1.64154 1.64153,1.64153 1.64153,5.19818 v 18.46723 h -7.38689 v -16.8257 q 0,-1.32234 -0.54717,-2.05191 -0.54718,-0.77517 -1.59594,-0.77517 -1.04875,0 -1.86952,0.86636 -0.77517,0.82077 -0.77517,2.64469 v 16.14173 h -7.38689 v -16.8257 q 0,-1.32234 -0.54718,-2.05191 -0.54718,-0.77517 -1.59593,-0.77517 -1.04876,0 -1.86952,0.86636 -0.77517,0.82077 -0.77517,2.64469 v 16.14173 h -7.38689 z"
         style="font-style:normal;font-variant:normal;font-weight:800;font-stretch:normal;font-family:'Helvetica Neue LT Com';-inkscape-font-specification:'Helvetica Neue LT Com Ultra-Bold';stroke-width:0.99999994"
         id="path950"
         inkscape:connector-curvature="0" /><path
         d="m 541.51617,-231.99291 q 0,-2.59909 -0.50158,-3.96703 -0.45598,-1.36795 -2.00632,-1.36795 -1.82392,0 -2.3255,1.41354 -0.50158,1.41355 -0.50158,3.92144 z m -5.33498,4.28622 v 1.50474 q 0,2.87268 0.54718,4.28622 0.54717,1.41354 2.14311,1.41354 1.45914,0 2.00631,-1.09435 0.54718,-1.09436 0.68398,-3.41986 h 6.83971 q -0.0912,4.65101 -2.50789,6.88532 -2.4167,2.1887 -7.06771,2.1887 -3.51105,0 -5.51737,-1.13995 -1.96072,-1.13995 -3.00948,-3.05507 -1.00315,-1.91512 -1.27674,-4.42302 -0.22799,-2.50789 -0.22799,-5.24378 0,-2.59909 0.41038,-4.7878 0.45598,-2.23431 1.59593,-3.83024 1.13996,-1.64153 3.05508,-2.55349 1.96072,-0.91197 4.97019,-0.91197 3.41986,0 5.38058,1.04876 1.96071,1.00316 2.91827,2.91828 1.00316,1.86952 1.23115,4.46861 0.27359,2.59909 0.27359,5.74536 z"
         style="font-style:normal;font-variant:normal;font-weight:800;font-stretch:normal;font-family:'Helvetica Neue LT Com';-inkscape-font-specification:'Helvetica Neue LT Com Ultra-Bold';stroke-width:0.99999994"
         id="path952"
         inkscape:connector-curvature="0" /><path
         d="m 552.4811,-236.14234 h -3.05507 v -5.10698 h 3.05507 v -7.2501 h 7.38689 v 7.2501 h 3.41986 v 5.10698 h -3.41986 v 12.44829 q 0,1.32234 0.50158,1.82392 0.54718,0.45598 1.86953,0.45598 0.22799,0 0.50157,0 0.31919,-0.0456 0.54718,-0.0912 v 4.92459 q -2.14311,0.27359 -4.24062,0.27359 -1.91512,0 -3.19187,-0.22799 -1.27675,-0.22799 -2.05191,-0.91196 -0.72957,-0.72957 -1.04876,-2.05192 -0.27359,-1.32234 -0.27359,-3.46545 z"
         style="font-style:normal;font-variant:normal;font-weight:800;font-stretch:normal;font-family:'Helvetica Neue LT Com';-inkscape-font-specification:'Helvetica Neue LT Com Ultra-Bold';stroke-width:0.99999994"
         id="path954"
         inkscape:connector-curvature="0" /><path
         d="m 566.0444,-249.13779 h 7.3869 v 32.55704 h -7.3869 z"
         style="font-style:normal;font-variant:normal;font-weight:800;font-stretch:normal;font-family:'Helvetica Neue LT Com';-inkscape-font-specification:'Helvetica Neue LT Com Ultra-Bold';stroke-width:0.99999994"
         id="path956"
         inkscape:connector-curvature="0" /><path
         d="m 589.60793,-231.99291 q 0,-2.59909 -0.50157,-3.96703 -0.45599,-1.36795 -2.00632,-1.36795 -1.82393,0 -2.3255,1.41354 -0.50158,1.41355 -0.50158,3.92144 z m -5.33497,4.28622 v 1.50474 q 0,2.87268 0.54717,4.28622 0.54718,1.41354 2.14311,1.41354 1.45914,0 2.00632,-1.09435 0.54718,-1.09436 0.68397,-3.41986 h 6.83972 q -0.0912,4.65101 -2.5079,6.88532 -2.4167,2.1887 -7.0677,2.1887 -3.51106,0 -5.51737,-1.13995 -1.96072,-1.13995 -3.00948,-3.05507 -1.00316,-1.91512 -1.27675,-4.42302 -0.22799,-2.50789 -0.22799,-5.24378 0,-2.59909 0.41039,-4.7878 0.45598,-2.23431 1.59593,-3.83024 1.13995,-1.64153 3.05507,-2.55349 1.96072,-0.91197 4.9702,-0.91197 3.41985,0 5.38057,1.04876 1.96072,1.00316 2.91828,2.91828 1.00316,1.86952 1.23115,4.46861 0.27359,2.59909 0.27359,5.74536 z"
         style="font-style:normal;font-variant:normal;font-weight:800;font-stretch:normal;font-family:'Helvetica Neue LT Com';-inkscape-font-specification:'Helvetica Neue LT Com Ultra-Bold';stroke-width:0.99999994"
         id="path958"
         inkscape:connector-curvature="0" /><path
         d="m 599.61531,-241.24932 h 7.1133 v 3.46545 h 0.0912 q 0.72957,-1.64153 2.14311,-2.87268 1.45914,-1.23115 3.78464,-1.23115 h 0.54718 q 0.18239,0 0.63837,0.0912 v 6.93091 q -0.54718,-0.0912 -1.04875,-0.13679 -0.45599,-0.0456 -1.00316,-0.0456 -2.23431,0 -3.55666,1.00316 -1.32234,1.00316 -1.32234,3.46545 v 13.99862 h -7.38689 z"
         style="font-style:normal;font-variant:normal;font-weight:800;font-stretch:normal;font-family:'Helvetica Neue LT Com';-inkscape-font-specification:'Helvetica Neue LT Com Ultra-Bold';stroke-width:0.99999994"
         id="path960"
         inkscape:connector-curvature="0" /><path
         d="m 616.62979,-249.50258 h 7.38689 v 5.65417 h -7.38689 z m 0,8.25326 h 7.38689 v 24.66857 h -7.38689 z"
         style="font-style:normal;font-variant:normal;font-weight:800;font-stretch:normal;font-family:'Helvetica Neue LT Com';-inkscape-font-specification:'Helvetica Neue LT Com Ultra-Bold';stroke-width:0.99999994"
         id="path962"
         inkscape:connector-curvature="0" /><path
         d="m 646.47517,-249.13779 h 9.5756 l 8.11647,32.55704 h -7.93407 l -1.18555,-6.20134 h -7.79728 l -1.13995,6.20134 h -7.93407 z m 4.65101,5.92775 h -0.0912 l -2.69029,14.5002 h 5.56297 z"
         style="font-style:normal;font-variant:normal;font-weight:800;font-stretch:normal;font-family:'Helvetica Neue LT Com';-inkscape-font-specification:'Helvetica Neue LT Com Ultra-Bold';stroke-width:0.99999994"
         id="path964"
         inkscape:connector-curvature="0" /><path
         d="m 666.63951,-224.78841 h 7.11331 v 8.20766 h -7.11331 z"
         style="font-style:normal;font-variant:normal;font-weight:800;font-stretch:normal;font-family:'Helvetica Neue LT Com';-inkscape-font-specification:'Helvetica Neue LT Com Ultra-Bold';stroke-width:0.99999994"
         id="path966"
         inkscape:connector-curvature="0" /><path
         d="m 683.3177,-209.60424 q 0.63837,0.27359 1.50473,0.45598 0.86637,0.22799 1.82393,0.22799 1.18555,0 1.64153,-0.45598 0.45598,-0.45598 0.45598,-1.09435 0,-0.59278 -0.63837,-1.00316 -0.59278,-0.41038 -1.45914,-0.41038 -0.50158,0 -0.86636,0.0912 -0.36479,0.1368 -0.45599,0.18239 l -1.04875,-0.86636 2.00631,-3.55665 q -1.09435,-0.0456 -2.1887,-0.27359 -1.41355,-0.27359 -2.64469,-0.86636 -1.23115,-0.59278 -2.14312,-1.55034 -0.86636,-1.00316 -1.36794,-2.3711 -0.50158,-1.41354 -0.50158,-3.32866 v -2.09752 h 7.38689 v 1.13996 q 0,1.86952 0.63838,3.10067 0.68397,1.23115 2.69029,1.23115 1.00315,0 1.64153,-0.31919 0.68397,-0.36479 1.09435,-0.91196 0.41039,-0.54718 0.54718,-1.23115 0.18239,-0.72957 0.18239,-1.41354 0,-1.73273 -1.04875,-2.69029 -1.00316,-1.00316 -2.5991,-1.68713 -1.55033,-0.68397 -3.37426,-1.32235 -1.77832,-0.63837 -3.37426,-1.73272 -1.55033,-1.13996 -2.59909,-2.96388 -1.00316,-1.82392 -1.00316,-4.879 0,-1.96072 0.54718,-3.69344 0.54718,-1.73273 1.82393,-3.00948 1.27674,-1.32234 3.28306,-2.09751 2.05191,-0.77517 5.01579,-0.77517 2.87268,0 4.8334,0.68397 2.00632,0.68397 3.23746,1.91512 1.23115,1.18555 1.77833,2.82709 0.54718,1.59593 0.54718,3.46545 v 0.77517 h -7.38689 q 0,-2.3711 -0.63838,-3.41986 -0.68397,-1.13995 -2.3255,-1.13995 -3.05507,0 -3.05507,3.51105 0,1.73273 1.00315,2.69029 1.04876,0.95756 2.5991,1.64153 1.59593,0.68397 3.37426,1.36795 1.82392,0.63837 3.37426,1.73272 1.59593,1.04876 2.59909,2.82709 1.04875,1.73272 1.04875,4.6054 0,4.14943 -1.68713,6.56613 -1.64153,2.3711 -4.7422,3.19187 -0.86636,0.22799 -1.86952,0.36478 -0.95756,0.1824 -2.00632,0.22799 l -1.23115,2.09752 q 0.41039,-0.1824 1.18555,-0.1824 2.18871,0 3.14627,1.09436 0.95756,1.09435 0.95756,2.4167 0,1.68713 -1.36794,2.91828 -1.32234,1.23115 -4.10383,1.23115 -1.68713,0 -2.96388,-0.27359 -1.27674,-0.22799 -2.2343,-0.59278 z"
         style="font-style:normal;font-variant:normal;font-weight:800;font-stretch:normal;font-family:'Helvetica Neue LT Com';-inkscape-font-specification:'Helvetica Neue LT Com Ultra-Bold';stroke-width:0.99999994"
         id="path968"
         inkscape:connector-curvature="0" /><path
         d="m 702.97551,-224.78841 h 7.1133 v 8.20766 h -7.1133 z"
         style="font-style:normal;font-variant:normal;font-weight:800;font-stretch:normal;font-family:'Helvetica Neue LT Com';-inkscape-font-specification:'Helvetica Neue LT Com Ultra-Bold';stroke-width:0.99999994"
         id="path970"
         inkscape:connector-curvature="0" /></g></g></svg>