<?xml version="1.0" encoding="UTF-8" standalone="no"?>
<!-- Created with Inkscape (http://www.inkscape.org/) -->

<svg
   xmlns:dc="http://purl.org/dc/elements/1.1/"
   xmlns:cc="http://creativecommons.org/ns#"
   xmlns:rdf="http://www.w3.org/1999/02/22-rdf-syntax-ns#"
   xmlns:svg="http://www.w3.org/2000/svg"
   xmlns="http://www.w3.org/2000/svg"
   xmlns:sodipodi="http://sodipodi.sourceforge.net/DTD/sodipodi-0.dtd"
   xmlns:inkscape="http://www.inkscape.org/namespaces/inkscape"
   version="1.1"
   id="svg2"
   xml:space="preserve"
   width="1659.92"
   height="710.08264"
   viewBox="0 0 1659.92 710.08264"
   sodipodi:docname="kt2.svg"
   inkscape:version="0.92.2 5c3e80d, 2017-08-06"><metadata
     id="metadata8"><rdf:RDF><cc:Work
         rdf:about=""><dc:format>image/svg+xml</dc:format><dc:type
           rdf:resource="http://purl.org/dc/dcmitype/StillImage" /><dc:title></dc:title></cc:Work></rdf:RDF></metadata><defs
     id="defs6"><clipPath
       clipPathUnits="userSpaceOnUse"
       id="clipPath18"><path
         d="M 0,532.562 H 1244.938 V 0 H 0 Z"
         id="path16"
         inkscape:connector-curvature="0" /></clipPath></defs><sodipodi:namedview
     pagecolor="#ffffff"
     bordercolor="#666666"
     borderopacity="1"
     objecttolerance="10"
     gridtolerance="10"
     guidetolerance="10"
     inkscape:pageopacity="0"
     inkscape:pageshadow="2"
     inkscape:window-width="1920"
     inkscape:window-height="1036"
     id="namedview4"
     showgrid="false"
     inkscape:zoom="0.20302183"
     inkscape:cx="108.36273"
     inkscape:cy="355.04132"
     inkscape:window-x="0"
     inkscape:window-y="20"
     inkscape:window-maximized="0"
     inkscape:current-layer="g10" /><g
     id="g10"
     inkscape:groupmode="layer"
     inkscape:label="result"
     transform="matrix(1.3333333,0,0,-1.3333333,0,710.08267)"><g
       id="g12"><g
         id="g14"
         clip-path="url(#clipPath18)"><g
           id="g20"
           transform="translate(495.2158,361.1709)"><path
             d="m 0,0 c -12.371,29.248 -30.079,55.514 -52.631,78.065 -22.553,22.552 -48.817,40.26 -78.065,52.631 -30.288,12.811 -62.454,19.306 -95.606,19.306 -33.151,0 -65.317,-6.495 -95.605,-19.306 -29.248,-12.371 -55.513,-30.079 -78.066,-52.631 C -422.524,55.514 -440.232,29.248 -452.604,0 c -12.81,-30.287 -19.305,-62.452 -19.305,-95.604 0,-33.151 6.495,-65.317 19.305,-95.605 12.372,-29.248 30.08,-55.513 52.631,-78.065 22.553,-22.552 48.818,-40.26 78.066,-52.631 30.288,-12.811 62.454,-19.306 95.605,-19.306 33.152,0 65.318,6.495 95.606,19.306 29.248,12.371 55.512,30.079 78.065,52.631 22.552,22.552 40.26,48.817 52.631,78.065 12.811,30.288 19.306,62.454 19.306,95.605 C 19.306,-62.452 12.811,-30.287 0,0"
             style="fill:#d12026;fill-opacity:1;fill-rule:nonzero;stroke:none"
             id="path22"
             inkscape:connector-curvature="0" /></g><g
           id="g24"
           transform="translate(488.7686,172.6895)"><path
             d="m 0,0 c -12.019,-28.414 -29.222,-53.932 -51.134,-75.843 -21.912,-21.912 -47.429,-39.115 -75.843,-51.134 -29.419,-12.443 -60.668,-18.752 -92.877,-18.752 -32.21,0 -63.459,6.309 -92.878,18.752 -28.414,12.019 -53.931,29.222 -75.843,51.134 -21.912,21.911 -39.115,47.429 -51.134,75.843 -12.443,29.42 -18.753,60.668 -18.753,92.878 0,32.209 6.31,63.457 18.753,92.877 12.019,28.414 29.222,53.931 51.134,75.842 21.912,21.912 47.429,39.115 75.843,51.133 29.419,12.444 60.669,18.753 92.878,18.753 32.208,0 63.458,-6.309 92.877,-18.753 28.414,-12.018 53.931,-29.221 75.843,-51.133 C -29.222,239.686 -12.019,214.169 0,185.755 12.443,156.335 18.753,125.087 18.753,92.878 18.753,60.668 12.443,29.42 0,0 m 1.842,186.534 c -12.119,28.653 -29.467,54.383 -51.562,76.478 -22.094,22.093 -47.825,39.441 -76.477,51.56 -29.668,12.549 -61.179,18.911 -93.657,18.911 -32.479,0 -63.99,-6.362 -93.658,-18.911 -28.652,-12.119 -54.383,-29.467 -76.477,-51.56 -22.095,-22.095 -39.443,-47.825 -51.562,-76.478 -12.549,-29.668 -18.911,-61.178 -18.911,-93.656 0,-32.479 6.362,-63.989 18.911,-93.657 12.119,-28.653 29.467,-54.383 51.562,-76.478 22.094,-22.095 47.825,-39.442 76.477,-51.561 29.668,-12.549 61.179,-18.911 93.658,-18.911 32.478,0 63.989,6.362 93.657,18.911 28.652,12.119 54.383,29.466 76.477,51.561 22.095,22.095 39.443,47.825 51.562,76.478 12.549,29.668 18.911,61.178 18.911,93.657 0,32.478 -6.362,63.988 -18.911,93.656"
             style="fill:#eebdbc;fill-opacity:1;fill-rule:nonzero;stroke:none"
             id="path26"
             inkscape:connector-curvature="0" /></g><g
           id="g28"
           transform="translate(268.9141,501.1729)"><path
             d="m 0,0 c -31.806,0 -62.661,-6.229 -91.709,-18.516 -28.057,-11.867 -53.254,-28.855 -74.891,-50.492 -21.636,-21.637 -38.625,-46.833 -50.492,-74.889 -12.286,-29.048 -18.515,-59.903 -18.515,-91.708 0,-31.806 6.229,-62.662 18.515,-91.71 11.867,-28.056 28.856,-53.253 50.492,-74.89 21.637,-21.637 46.834,-38.625 74.891,-50.492 29.048,-12.286 59.903,-18.516 91.709,-18.516 31.806,0 62.661,6.23 91.709,18.516 28.057,11.867 53.254,28.855 74.891,50.492 21.636,21.637 38.625,46.834 50.492,74.89 12.286,29.048 18.515,59.904 18.515,91.71 0,31.805 -6.229,62.66 -18.515,91.708 -11.867,28.056 -28.856,53.252 -50.492,74.889 -21.637,21.637 -46.834,38.625 -74.891,50.492 C 62.661,-6.229 31.806,0 0,0 m 0,-2 c 129.018,0 233.607,-104.59 233.607,-233.605 0,-129.018 -104.589,-233.608 -233.607,-233.608 -129.018,0 -233.607,104.59 -233.607,233.608 C -233.607,-106.59 -129.018,-2 0,-2"
             style="fill:#eebdbc;fill-opacity:1;fill-rule:nonzero;stroke:none"
             id="path30"
             inkscape:connector-curvature="0" /></g><g
           id="g32"
           transform="translate(268.9141,91.5264)"><path
             d="m 0,0 c -96.119,0 -174.041,77.92 -174.041,174.041 0,96.119 77.922,174.039 174.041,174.039 96.119,0 174.041,-77.92 174.041,-174.039 C 174.041,77.92 96.119,0 0,0 m 164.048,243.343 c -8.968,21.201 -21.805,40.241 -38.154,56.591 -16.35,16.349 -35.39,29.186 -56.591,38.153 C 47.35,347.372 24.033,352.08 0,352.08 c -24.033,0 -47.35,-4.708 -69.303,-13.993 -21.201,-8.967 -40.241,-21.804 -56.591,-38.153 -16.349,-16.35 -29.186,-35.39 -38.154,-56.591 -9.285,-21.952 -13.993,-45.269 -13.993,-69.302 0,-24.034 4.708,-47.351 13.993,-69.303 8.968,-21.202 21.805,-40.242 38.154,-56.592 16.35,-16.349 35.39,-29.186 56.591,-38.153 C -47.35,0.708 -24.033,-4 0,-4 c 24.033,0 47.35,4.708 69.303,13.993 21.201,8.967 40.241,21.804 56.591,38.153 16.349,16.35 29.186,35.39 38.154,56.592 9.285,21.952 13.993,45.269 13.993,69.303 0,24.033 -4.708,47.35 -13.993,69.302"
             style="fill:#eebdbc;fill-opacity:1;fill-rule:nonzero;stroke:none"
             id="path34"
             inkscape:connector-curvature="0" /></g><g
           id="g36"
           transform="translate(435.7246,195.0957)"><path
             d="M 0,0 C -9.118,-21.56 -22.171,-40.92 -38.796,-57.544 -55.42,-74.168 -74.78,-87.221 -96.34,-96.34 c -22.324,-9.442 -46.033,-14.229 -70.471,-14.229 -24.437,0 -48.146,4.787 -70.47,14.229 -21.56,9.119 -40.92,22.172 -57.544,38.796 -16.625,16.624 -29.678,35.984 -38.796,57.544 -9.442,22.324 -14.231,46.034 -14.231,70.472 0,24.437 4.789,48.146 14.231,70.47 9.118,21.559 22.172,40.919 38.796,57.543 16.624,16.624 35.984,29.677 57.544,38.796 22.324,9.443 46.033,14.23 70.47,14.23 24.438,0 48.147,-4.787 70.471,-14.23 21.56,-9.119 40.92,-22.172 57.544,-38.796 C -22.172,181.861 -9.118,162.501 0,140.942 9.442,118.618 14.23,94.909 14.23,70.472 14.23,46.034 9.442,22.324 0,0 m 1.842,141.722 c -9.219,21.797 -22.416,41.371 -39.224,58.177 -16.806,16.808 -36.381,30.004 -58.179,39.224 -22.572,9.547 -46.543,14.388 -71.25,14.388 -24.706,0 -48.677,-4.841 -71.25,-14.388 -21.797,-9.22 -41.372,-22.416 -58.178,-39.224 -16.808,-16.806 -30.005,-36.38 -39.224,-58.177 -9.548,-22.573 -14.389,-46.544 -14.389,-71.25 0,-24.707 4.841,-48.679 14.388,-71.251 9.22,-21.798 22.417,-41.372 39.225,-58.179 16.806,-16.808 36.381,-30.004 58.178,-39.224 22.573,-9.547 46.544,-14.387 71.25,-14.387 24.707,0 48.678,4.84 71.25,14.387 21.798,9.22 41.373,22.416 58.179,39.224 16.808,16.807 30.005,36.381 39.225,58.179 9.547,22.572 14.387,46.544 14.387,71.251 0,24.706 -4.84,48.677 -14.388,71.25"
             style="fill:#eebdbc;fill-opacity:1;fill-rule:nonzero;stroke:none"
             id="path38"
             inkscape:connector-curvature="0" /></g><g
           id="g40"
           transform="translate(325.2051,347.1455)"><path
             d="m 0,0 -23.607,-49.998 8.488,-57.69 h -42.307 l -7.691,49.202 -7.295,-49.202 h -41.246 L -97.609,0 h 41.244 L -62.863,-43.5 -42.838,0 Z"
             style="fill:#eee2e2;fill-opacity:1;fill-rule:nonzero;stroke:none"
             id="path42"
             inkscape:connector-curvature="0" /></g><g
           id="g44"
           transform="translate(416.6211,347.1455)"><path
             d="m 0,0 -3.582,-24.535 h -21.617 l -12.465,-83.153 h -42.041 l 12.465,83.153 H -88.857 L -85.275,0 Z"
             style="fill:#eee2e2;fill-opacity:1;fill-rule:nonzero;stroke:none"
             id="path46"
             inkscape:connector-curvature="0" /></g><g
           id="g48"
           transform="translate(299.9883,148.3604)"><path
             d="m 0,0 c 0,-7.367 -5.973,-13.338 -13.34,-13.338 -7.367,0 -13.338,5.971 -13.338,13.338 0,7.367 5.971,13.34 13.338,13.34 C -5.973,13.34 0,7.367 0,0"
             style="fill:#eee2e2;fill-opacity:1;fill-rule:nonzero;stroke:none"
             id="path50"
             inkscape:connector-curvature="0" /></g><g
           id="g52"
           transform="translate(143.9863,285.6943)"><path
             d="m 0,0 c 0,-7.367 -5.973,-13.34 -13.34,-13.34 -7.365,0 -13.338,5.973 -13.338,13.34 0,7.367 5.973,13.338 13.338,13.338 C -5.973,13.338 0,7.367 0,0"
             style="fill:#eee2e2;fill-opacity:1;fill-rule:nonzero;stroke:none"
             id="path54"
             inkscape:connector-curvature="0" /></g><g
           id="g56"
           transform="translate(183.3008,230.6318)"><path
             d="m 0,0 c 13.262,-1.885 26.572,-3.037 39.883,-3.627 6.656,-0.297 13.31,-0.451 19.963,-0.478 3.326,-0.012 6.65,-0.012 9.974,0.101 3.326,0.137 6.647,0.328 9.965,0.32 -3.32,-0.004 -6.637,0.245 -9.949,0.506 l -9.93,0.662 C 53.291,-2.043 46.691,-1.445 40.111,-0.705 26.955,0.779 13.867,2.771 0.99,5.543 c -12.847,2.82 -25.57,6.369 -37.445,11.369 -5.912,2.481 -11.652,5.367 -16.516,8.873 -2.422,1.736 -4.59,3.684 -6.123,5.686 -0.765,0.998 -1.347,2.004 -1.705,2.947 -0.367,0.949 -0.49,1.812 -0.461,2.648 0.035,0.84 0.239,1.666 0.639,2.573 0.402,0.9 1.01,1.857 1.779,2.818 1.543,1.932 3.697,3.828 6.063,5.604 4.767,3.576 10.449,6.576 16.293,9.242 5.865,2.674 11.959,5.082 18.125,7.476 l 4.652,1.754 c 0.385,0.155 0.791,0.223 1.129,0.606 0.338,0.369 0.633,0.947 0.963,1.373 0.322,0.461 0.303,0.551 -0.186,0.832 -0.48,0.248 -0.996,0.642 -1.465,0.83 -0.472,0.199 -0.877,0.082 -1.296,0.049 -1.674,-0.178 -3.352,-0.366 -5.026,-0.584 -6.701,-0.869 -13.357,-2.233 -19.935,-4.192 -6.565,-2.002 -13.104,-4.429 -19.407,-8.215 -3.131,-1.921 -6.203,-4.24 -8.881,-7.447 -1.33,-1.603 -2.544,-3.461 -3.447,-5.617 -0.916,-2.139 -1.437,-4.619 -1.412,-7.102 0.039,-2.484 0.641,-4.927 1.59,-7.025 0.947,-2.111 2.187,-3.916 3.519,-5.486 2.69,-3.135 5.747,-5.405 8.825,-7.367 6.205,-3.852 12.685,-6.395 19.181,-8.584 6.518,-2.135 13.1,-3.774 19.702,-5.159 C -13.26,2.047 -6.635,0.924 0,0"
             style="fill:#eee2e2;fill-opacity:1;fill-rule:nonzero;stroke:none"
             id="path58"
             inkscape:connector-curvature="0" /></g><g
           id="g60"
           transform="translate(208.7227,264.3252)"><path
             d="M 0,0 0.461,3.66 C 0.176,4.016 -0.117,4.361 -0.4,4.717 -8.652,15.07 -16.498,25.732 -23.645,36.799 c -7.089,11.08 -13.578,22.584 -18.437,34.517 -2.428,5.934 -4.445,12.034 -5.404,17.954 -0.487,2.939 -0.643,5.849 -0.311,8.349 0.164,1.246 0.465,2.369 0.879,3.289 0.412,0.93 0.934,1.629 1.547,2.197 0.617,0.571 1.346,1.01 2.271,1.368 0.92,0.353 2.026,0.599 3.25,0.736 2.457,0.273 5.321,0.092 8.248,-0.326 5.901,-0.842 12.039,-2.738 18.057,-4.985 6.039,-2.257 12.051,-4.863 18.102,-7.529 L 9.088,90.32 c 0.383,-0.164 0.719,-0.402 1.226,-0.371 0.5,0.022 1.118,0.223 1.653,0.291 0.553,0.098 0.603,0.174 0.457,0.719 -0.164,0.516 -0.25,1.158 -0.449,1.621 -0.194,0.477 -0.561,0.68 -0.883,0.953 -1.309,1.057 -2.629,2.112 -3.967,3.141 -5.352,4.123 -11.023,7.867 -17.059,11.133 -6.056,3.226 -12.398,6.132 -19.531,7.914 -3.572,0.853 -7.387,1.386 -11.547,1.011 -2.074,-0.193 -4.246,-0.646 -6.41,-1.533 -2.158,-0.865 -4.281,-2.25 -6.019,-4.023 -1.729,-1.783 -3.032,-3.938 -3.842,-6.092 -0.824,-2.162 -1.225,-4.316 -1.393,-6.369 -0.314,-4.119 0.242,-7.885 1.031,-11.447 1.665,-7.114 4.45,-13.493 7.495,-19.635 3.099,-6.117 6.593,-11.93 10.283,-17.576 3.676,-5.655 7.564,-11.131 11.601,-16.477 C -20.219,22.867 -11.623,12.643 -2.629,2.813 -1.762,1.865 -0.875,0.939 0,0"
             style="fill:#eee2e2;fill-opacity:1;fill-rule:nonzero;stroke:none"
             id="path62"
             inkscape:connector-curvature="0" /></g><g
           id="g64"
           transform="translate(286.7754,234.1592)"><path
             d="m 0,0 c -0.754,-0.654 -1.51,-1.305 -2.268,-1.951 l -7.49,-6.555 c -5.012,-4.342 -10.101,-8.586 -15.275,-12.717 -10.354,-8.254 -21.016,-16.097 -32.082,-23.244 -11.08,-7.09 -22.584,-13.578 -34.518,-18.439 -5.933,-2.426 -12.033,-4.444 -17.953,-5.405 -2.939,-0.484 -5.85,-0.64 -8.35,-0.308 -1.246,0.164 -2.369,0.465 -3.289,0.879 -0.929,0.412 -1.629,0.933 -2.197,1.547 -0.57,0.617 -1.01,1.345 -1.367,2.269 -0.354,0.922 -0.6,2.028 -0.736,3.252 -0.276,2.457 -0.092,5.32 0.326,8.248 0.842,5.901 2.738,12.039 4.984,18.057 2.256,6.039 4.861,12.051 7.529,18.101 l 2.049,4.532 c 0.164,0.382 0.403,0.718 0.371,1.226 -0.021,0.5 -0.222,1.117 -0.291,1.653 -0.097,0.552 -0.173,0.603 -0.718,0.457 -0.516,-0.165 -1.159,-0.25 -1.623,-0.45 -0.475,-0.193 -0.678,-0.56 -0.952,-0.882 -1.058,-1.309 -2.111,-2.629 -3.14,-3.967 -4.123,-5.352 -7.867,-11.024 -11.133,-17.059 -3.227,-6.057 -6.133,-12.398 -7.914,-19.531 -0.854,-3.572 -1.387,-7.387 -1.012,-11.547 0.194,-2.074 0.647,-4.246 1.533,-6.41 0.864,-2.158 2.25,-4.281 4.022,-6.02 1.785,-1.728 3.939,-3.031 6.094,-3.841 2.162,-0.825 4.316,-1.225 6.369,-1.393 4.117,-0.315 7.885,0.242 11.447,1.031 7.111,1.664 13.492,4.449 19.633,7.494 6.119,3.1 11.931,6.594 17.578,10.284 5.654,3.675 11.131,7.564 16.477,11.601 10.71,8.047 20.937,16.643 30.767,25.637 4.916,4.498 9.731,9.096 14.453,13.779 2.362,2.344 4.711,4.693 6.981,7.125 0.781,0.848 1.558,1.699 2.338,2.547 z"
             style="fill:#eee2e2;fill-opacity:1;fill-rule:nonzero;stroke:none"
             id="path66"
             inkscape:connector-curvature="0" /></g><g
           id="g68"
           transform="translate(301.4824,234.1592)"><path
             d="m 0,0 c -0.203,-2.045 -0.395,-4.092 -0.623,-6.133 -1.486,-13.156 -3.479,-26.244 -6.25,-39.121 -2.82,-12.848 -6.369,-25.572 -11.369,-37.445 -2.479,-5.912 -5.367,-11.653 -8.873,-16.518 -1.737,-2.42 -3.684,-4.588 -5.686,-6.121 -0.998,-0.766 -2.004,-1.348 -2.947,-1.705 -0.949,-0.367 -1.813,-0.49 -2.648,-0.461 -0.84,0.035 -1.665,0.238 -2.573,0.639 -0.9,0.402 -1.855,1.01 -2.818,1.779 -1.932,1.543 -3.828,3.695 -5.604,6.063 -3.576,4.767 -6.576,10.449 -9.242,16.293 -2.676,5.865 -5.082,11.959 -7.476,18.123 l -1.754,4.652 c -0.157,0.387 -0.223,0.793 -0.606,1.131 -0.369,0.338 -0.947,0.633 -1.373,0.963 -0.461,0.322 -0.551,0.302 -0.834,-0.186 -0.246,-0.48 -0.64,-0.996 -0.828,-1.465 -0.199,-0.472 -0.082,-0.877 -0.049,-1.297 0.178,-1.673 0.365,-3.351 0.584,-5.025 0.869,-6.701 2.233,-13.357 4.19,-19.936 2.004,-6.564 4.431,-13.103 8.215,-19.406 1.923,-3.131 4.242,-6.203 7.449,-8.881 1.603,-1.33 3.461,-2.545 5.617,-3.449 2.139,-0.914 4.619,-1.435 7.102,-1.41 2.484,0.039 4.927,0.641 7.025,1.59 2.111,0.947 3.916,2.187 5.486,3.519 3.137,2.69 5.405,5.746 7.367,8.825 3.852,6.205 6.395,12.685 8.584,19.181 2.135,6.518 3.774,13.1 5.159,19.701 1.398,6.596 2.521,13.221 3.447,19.856 1.883,13.262 3.035,26.572 3.625,39.883 0.094,2.121 0.15,4.242 0.217,6.361 z"
             style="fill:#eee2e2;fill-opacity:1;fill-rule:nonzero;stroke:none"
             id="path70"
             inkscape:connector-curvature="0" /></g><g
           id="g72"
           transform="translate(367.5977,203.4385)"><path
             d="m 0,0 c -3.098,6.119 -6.592,11.932 -10.281,17.578 -2.916,4.486 -5.973,8.858 -9.125,13.143 h -7.03 c 7.063,-11.043 13.524,-22.51 18.37,-34.403 2.425,-5.933 4.443,-12.035 5.404,-17.953 0.484,-2.939 0.641,-5.849 0.308,-8.349 -0.164,-1.246 -0.464,-2.371 -0.878,-3.291 -0.413,-0.93 -0.934,-1.627 -1.547,-2.196 -0.617,-0.57 -1.346,-1.009 -2.27,-1.369 -0.922,-0.351 -2.027,-0.598 -3.25,-0.734 -2.459,-0.276 -5.32,-0.092 -8.25,0.326 -5.9,0.84 -12.039,2.738 -18.056,4.984 -6.04,2.256 -12.049,4.862 -18.102,7.53 l -4.529,2.048 c -0.385,0.165 -0.719,0.403 -1.229,0.372 -0.5,-0.024 -1.117,-0.223 -1.652,-0.291 -0.553,-0.098 -0.602,-0.174 -0.457,-0.719 0.164,-0.516 0.25,-1.158 0.451,-1.623 0.193,-0.475 0.56,-0.678 0.881,-0.951 1.31,-1.059 2.629,-2.112 3.967,-3.141 5.351,-4.123 11.023,-7.867 17.058,-11.133 6.059,-3.226 12.401,-6.133 19.531,-7.914 3.575,-0.853 7.387,-1.387 11.547,-1.012 2.075,0.192 4.246,0.647 6.41,1.532 2.159,0.865 4.282,2.25 6.02,4.023 1.729,1.785 3.031,3.939 3.844,6.094 0.822,2.162 1.222,4.314 1.39,6.369 0.315,4.117 -0.242,7.885 -1.031,11.447 C 5.832,-12.521 3.045,-6.141 0,0"
             style="fill:#eee2e2;fill-opacity:1;fill-rule:nonzero;stroke:none"
             id="path74"
             inkscape:connector-curvature="0" /></g><g
           id="g76"
           transform="translate(147.4922,116.1279)"><path
             d="m 0,0 -4.149,3.731 -12.384,-5.022 -0.068,0.06 8.035,8.934 -4.15,3.732 -21.725,-24.161 4.149,-3.731 7.703,8.566 3.88,1.354 0.066,-0.061 -6.73,-14.282 4.217,-3.792 8.578,19.703 z"
             style="fill:#eee2e2;fill-opacity:1;fill-rule:nonzero;stroke:none"
             id="path78"
             inkscape:connector-curvature="0" /></g><g
           id="g80"
           transform="translate(151.2344,113.4277)"><path
             d="m 0,0 -19.521,-25.967 4.458,-3.352 19.523,25.966 z"
             style="fill:#eee2e2;fill-opacity:1;fill-rule:nonzero;stroke:none"
             id="path82"
             inkscape:connector-curvature="0" /></g><g
           id="g84"
           transform="translate(173.8311,98.3135)"><path
             d="m 0,0 -13.141,-14.266 -0.078,0.047 6.345,18.328 -6.295,3.764 -16.669,-27.884 4.171,-2.493 13.021,21.781 0.077,-0.046 -8.696,-24.367 2.318,-1.385 17.346,19.196 0.078,-0.046 -13.021,-21.781 4.171,-2.494 16.668,27.883 z"
             style="fill:#eee2e2;fill-opacity:1;fill-rule:nonzero;stroke:none"
             id="path86"
             inkscape:connector-curvature="0" /></g><g
           id="g88"
           transform="translate(195.1953,87.8447)"><path
             d="m 0,0 -8.396,-9.828 -0.083,0.037 1.393,12.903 -5.191,2.281 -1.457,-20.101 -5.429,-12.359 5.108,-2.245 5.43,12.361 13.816,14.671 z"
             style="fill:#eee2e2;fill-opacity:1;fill-rule:nonzero;stroke:none"
             id="path90"
             inkscape:connector-curvature="0" /></g><g
           id="g92"
           transform="translate(206.5479,76.75)"><path
             d="m 0,0 -2.282,-13.937 -4.273,1.413 6.47,12.552 z m -17.173,-21.717 5.127,-1.694 3.198,6.525 5.811,-1.919 -1.318,-7.146 5.126,-1.694 L 5.279,5.079 -1.3,7.253 Z"
             style="fill:#eee2e2;fill-opacity:1;fill-rule:nonzero;stroke:none"
             id="path94"
             inkscape:connector-curvature="0" /></g><g
           id="g96"
           transform="translate(229.1035,72.2373)"><path
             d="m 0,0 5.33,-0.861 -4.403,-27.273 5.508,-0.889 4.403,27.273 5.33,-0.861 0.774,4.798 -16.168,2.61 z"
             style="fill:#eee2e2;fill-opacity:1;fill-rule:nonzero;stroke:none"
             id="path98"
             inkscape:connector-curvature="0" /></g><g
           id="g100"
           transform="translate(260.834,65.3896)"><path
             d="m 0,0 -0.894,-16.447 c -0.131,-2.426 -0.914,-3.556 -3.161,-3.434 -2.247,0.122 -2.902,1.33 -2.77,3.756 L -5.932,0.322 C -5.8,2.749 -5.018,3.878 -2.771,3.756 -0.523,3.634 0.132,2.427 0,0 m -2.507,8.609 c -5.842,0.318 -8.741,-3.265 -8.99,-7.849 l -0.908,-16.717 c -0.249,-4.584 2.245,-8.459 8.087,-8.777 5.841,-0.317 8.74,3.265 8.989,7.849 l 0.908,16.717 c 0.249,4.584 -2.244,8.46 -8.086,8.777"
             style="fill:#eee2e2;fill-opacity:1;fill-rule:nonzero;stroke:none"
             id="path102"
             inkscape:connector-curvature="0" /></g><g
           id="g104"
           transform="translate(281.0811,59.0342)"><path
             d="m 0,0 -2.156,-0.134 -0.616,9.973 2.156,0.134 C 3.022,10.197 4.215,9.144 4.454,5.28 4.692,1.417 3.639,0.225 0,0 m -0.63,14.571 -7.996,-0.495 2.005,-32.433 5.57,0.344 -0.822,13.297 2.426,0.151 c 6.873,0.424 9.898,3.272 9.471,10.19 -0.427,6.918 -3.781,9.371 -10.654,8.946"
             style="fill:#eee2e2;fill-opacity:1;fill-rule:nonzero;stroke:none"
             id="path106"
             inkscape:connector-curvature="0" /></g><g
           id="g108"
           transform="translate(305.1504,48.5996)"><path
             d="M 0,0 -4.609,27.245 -10.112,26.313 -4.691,-5.724 9.463,-3.328 8.652,1.464 Z"
             style="fill:#eee2e2;fill-opacity:1;fill-rule:nonzero;stroke:none"
             id="path110"
             inkscape:connector-curvature="0" /></g><g
           id="g112"
           transform="translate(329.4141,82.7666)"><path
             d="m 0,0 -5.371,-1.514 6.652,-23.609 c 0.648,-2.297 0.055,-3.68 -1.894,-4.229 -1.95,-0.548 -3.177,0.321 -3.824,2.618 l -6.653,23.609 -5.371,-1.514 6.592,-23.392 c 1.514,-5.372 5.462,-7.44 10.574,-5.998 5.111,1.439 7.4,5.264 5.887,10.636 z"
             style="fill:#eee2e2;fill-opacity:1;fill-rule:nonzero;stroke:none"
             id="path114"
             inkscape:connector-curvature="0" /></g><g
           id="g116"
           transform="translate(350.1162,61.1055)"><path
             d="M 0,0 -10.297,25.643 -15.476,23.563 -3.368,-6.59 9.955,-1.241 8.144,3.271 Z"
             style="fill:#eee2e2;fill-opacity:1;fill-rule:nonzero;stroke:none"
             id="path118"
             inkscape:connector-curvature="0" /></g><g
           id="g120"
           transform="translate(366.5693,99.6367)"><path
             d="m 0,0 -4.927,-2.618 11.51,-21.656 c 1.119,-2.106 0.834,-3.582 -0.954,-4.533 -1.788,-0.95 -3.172,-0.36 -4.291,1.745 l -11.51,21.656 -4.927,-2.618 11.405,-21.457 c 2.618,-4.927 6.915,-6.109 11.603,-3.617 4.689,2.492 6.113,6.714 3.495,11.642 z"
             style="fill:#eee2e2;fill-opacity:1;fill-rule:nonzero;stroke:none"
             id="path122"
             inkscape:connector-curvature="0" /></g><g
           id="g124"
           transform="translate(386.8916,93.8369)"><path
             d="m 0,0 2.516,-3.623 2.919,2.028 1.796,-2.587 c 1.848,-2.661 1.902,-4.158 0.054,-5.441 -1.59,-1.104 -2.914,-0.38 -4.095,1.32 L -6.331,5.408 c -1.565,2.254 -1.104,3.562 0.005,4.331 1.811,1.258 3.343,0.788 6.114,-3.204 l 4.361,3.029 -1.18,1.7 C 0.197,15.256 -4.404,16.99 -8.987,13.808 -13.496,10.677 -13.583,6.069 -10.965,2.3 l 9.547,-13.748 c 2.952,-4.25 7.262,-5.092 10.884,-2.577 2.142,1.489 2.738,2.998 2.976,5.574 l 2.237,-1.406 2.217,1.541 -9.394,13.525 z"
             style="fill:#eee2e2;fill-opacity:1;fill-rule:nonzero;stroke:none"
             id="path126"
             inkscape:connector-curvature="0" /></g><g
           id="g128"
           transform="translate(402.7607,127.2178)"><path
             d="M 0,0 -4.178,-3.698 12.08,-22.061 c 1.581,-1.785 1.649,-3.287 0.133,-4.63 -1.516,-1.342 -2.999,-1.092 -4.58,0.693 l -16.258,18.361 -4.178,-3.698 16.109,-18.193 c 3.699,-4.178 8.153,-4.322 12.129,-0.802 3.975,3.52 4.373,7.959 0.673,12.137 z"
             style="fill:#eee2e2;fill-opacity:1;fill-rule:nonzero;stroke:none"
             id="path130"
             inkscape:connector-curvature="0" /></g><g
           id="g132"
           transform="translate(75.1035,294.0186)"><path
             d="m 0,0 c -0.324,-2.227 -1.586,-2.771 -3.99,-2.42 l -16.296,2.373 c -2.404,0.351 -3.458,1.232 -3.134,3.457 0.324,2.227 1.585,2.771 3.989,2.42 L -3.134,3.457 C -0.729,3.107 0.324,2.227 0,0 m -2.196,8.959 -16.564,2.412 c -4.541,0.662 -8.626,-1.472 -9.469,-7.26 -0.843,-5.789 2.463,-8.998 7.005,-9.66 L -4.66,-7.961 c 4.541,-0.661 8.626,1.473 9.469,7.26 0.842,5.789 -2.463,8.998 -7.005,9.66"
             style="fill:#eee2e2;fill-opacity:1;fill-rule:nonzero;stroke:none"
             id="path134"
             inkscape:connector-curvature="0" /></g><g
           id="g136"
           transform="translate(66.7393,320.1494)"><path
             d="m 0,0 -0.524,-1.909 -9.634,2.645 0.524,1.91 C -8.835,5.553 -7.452,6.34 -3.721,5.315 0.012,4.291 0.799,2.908 0,0 m -2.243,10.696 c -6.683,1.835 -10.089,-0.542 -11.745,-6.575 l -2.075,-7.551 31.333,-8.603 1.477,5.381 -12.845,3.527 c 0.262,0.955 0.529,2.096 0.633,2.812 L 18.559,-0.057 20.061,5.412 4.618,4.752 C 4.295,6.801 2.791,9.314 -2.243,10.696"
             style="fill:#eee2e2;fill-opacity:1;fill-rule:nonzero;stroke:none"
             id="path138"
             inkscape:connector-curvature="0" /></g><g
           id="g140"
           transform="translate(68.3193,354.1553)"><path
             d="m 0,0 -4.516,1.797 -6.059,-15.219 4.515,-1.797 1.997,5.017 25.671,-10.222 2.065,5.185 -25.671,10.221 z"
             style="fill:#eee2e2;fill-opacity:1;fill-rule:nonzero;stroke:none"
             id="path142"
             inkscape:connector-curvature="0" /></g><g
           id="g144"
           transform="translate(87.1553,357.2354)"><path
             d="m 0,0 -11.363,8.385 0.041,0.08 13.395,-4.472 z m 13.604,0.033 2.489,4.792 -31.589,9.661 -3.193,-6.15 26.073,-20.283 2.488,4.793 -5.933,4.195 2.82,5.432 z"
             style="fill:#eee2e2;fill-opacity:1;fill-rule:nonzero;stroke:none"
             id="path146"
             inkscape:connector-curvature="0" /></g><g
           id="g148"
           transform="translate(93.0342,396.6992)"><path
             d="M 0,0 1.179,1.534 C 2.987,3.89 4.51,4.026 7.223,1.943 l 11.278,-8.66 c 2.712,-2.083 2.975,-3.589 1.165,-5.944 l -1.178,-1.535 z m 23.772,-14.85 c 3.508,4.569 2.874,8.913 -2.409,12.97 L 11.156,5.958 C 5.874,10.014 1.512,9.505 -1.996,4.937 L -7.038,-1.63 18.73,-21.417 Z"
             style="fill:#eee2e2;fill-opacity:1;fill-rule:nonzero;stroke:none"
             id="path150"
             inkscape:connector-curvature="0" /></g><g
           id="g152"
           transform="translate(112.3477,419.4521)"><path
             d="m 0,0 c 1.577,1.605 2.916,1.299 4.648,-0.404 l 11.746,-11.544 c 1.732,-1.703 2.062,-3.036 0.485,-4.642 -1.577,-1.603 -2.916,-1.297 -4.649,0.406 L 0.485,-4.641 C -1.247,-2.938 -1.577,-1.604 0,0 m 8.415,-20.258 c 3.273,-3.217 7.829,-3.91 11.93,0.262 4.099,4.172 3.329,8.715 0.055,11.932 L 8.464,3.669 C 5.19,6.887 0.635,7.578 -3.466,3.406 -7.565,-0.765 -6.795,-5.309 -3.521,-8.525 Z"
             style="fill:#eee2e2;fill-opacity:1;fill-rule:nonzero;stroke:none"
             id="path154"
             inkscape:connector-curvature="0" /></g><g
           id="g156"
           transform="translate(127.8232,429.4365)"><path
             d="m 0,0 10.421,-13.102 c 3.223,-4.048 7.578,-4.609 11.029,-1.864 2.043,1.625 2.539,3.17 2.61,5.756 l 2.322,-1.257 2.113,1.681 -10.254,12.89 -7.148,-5.688 2.745,-3.451 2.782,2.213 1.961,-2.465 c 2.018,-2.535 2.168,-4.026 0.407,-5.427 -1.514,-1.204 -2.884,-0.568 -4.172,1.052 L 4.423,3.403 C 2.714,5.552 3.09,6.886 4.146,7.727 5.872,9.1 7.432,8.729 10.457,4.926 l 4.155,3.305 -1.288,1.621 C 10.298,13.655 5.594,15.088 1.227,11.613 -3.07,8.196 -2.857,3.592 0,0"
             style="fill:#eee2e2;fill-opacity:1;fill-rule:nonzero;stroke:none"
             id="path158"
             inkscape:connector-curvature="0" /></g><g
           id="g160"
           transform="translate(169.2881,428.5596)"><path
             d="M 0,0 C 4.528,2.773 5.693,7.074 2.779,11.834 L -9.909,32.557 -14.668,29.643 -1.861,8.729 C -0.616,6.693 -0.812,5.203 -2.538,4.145 -4.265,3.088 -5.682,3.592 -6.927,5.626 L -19.733,26.541 -24.492,23.627 -11.804,2.904 C -8.89,-1.854 -4.528,-2.771 0,0"
             style="fill:#eee2e2;fill-opacity:1;fill-rule:nonzero;stroke:none"
             id="path162"
             inkscape:connector-curvature="0" /></g><g
           id="g164"
           transform="translate(185.2422,468.1211)"><path
             d="m 0,0 10.23,-25.671 5.185,2.067 -10.23,25.67 5.016,1.999 -1.8,4.516 -15.217,-6.064 1.798,-4.516 z"
             style="fill:#eee2e2;fill-opacity:1;fill-rule:nonzero;stroke:none"
             id="path166"
             inkscape:connector-curvature="0" /></g><g
           id="g168"
           transform="translate(224.8652,452.1143)"><path
             d="m 0,0 -1.318,4.679 -9.618,-2.71 -2.587,9.183 6.931,1.953 -1.318,4.679 -6.932,-1.953 -2.27,8.058 9.01,2.539 -1.318,4.677 -14.382,-4.052 8.814,-31.277 z"
             style="fill:#eee2e2;fill-opacity:1;fill-rule:nonzero;stroke:none"
             id="path170"
             inkscape:connector-curvature="0" /></g><g
           id="g172"
           transform="translate(235.4707,454.1201)"><path
             d="m 0,0 -1.883,11.367 1.366,3.875 0.089,0.016 L 6.527,1.08 12.122,2.008 2.086,21.012 6.058,33.941 0.552,33.029 -3.257,20.218 -3.346,20.203 -5.31,32.059 -10.815,31.146 -5.506,-0.912 Z"
             style="fill:#eee2e2;fill-opacity:1;fill-rule:nonzero;stroke:none"
             id="path174"
             inkscape:connector-curvature="0" /></g><g
           id="g176"
           transform="translate(256.0527,456.6279)"><path
             d="m 0,0 -0.977,20.273 0.09,0.004 L 7.192,0.346 12.048,0.58 10.483,33.036 5.448,32.793 6.344,14.229 6.254,14.224 -1.429,32.462 -6.599,32.213 -5.034,-0.243 Z"
             style="fill:#eee2e2;fill-opacity:1;fill-rule:nonzero;stroke:none"
             id="path178"
             inkscape:connector-curvature="0" /></g><g
           id="g180"
           transform="translate(281.0186,456.6631)"><path
             d="M 0,0 1.554,32.456 -4.021,32.723 -5.574,0.268 Z"
             style="fill:#eee2e2;fill-opacity:1;fill-rule:nonzero;stroke:none"
             id="path182"
             inkscape:connector-curvature="0" /></g><g
           id="g184"
           transform="translate(295.248,466.8545)"><path
             d="m 0,0 2.459,3.292 0.09,-0.013 2.409,-15.604 5.616,-0.784 -3.91,21.13 7.648,11.156 L 8.784,19.949 1.328,8.857 1.239,8.869 2.901,20.771 -2.626,21.543 -7.12,-10.638 -1.594,-11.41 Z"
             style="fill:#eee2e2;fill-opacity:1;fill-rule:nonzero;stroke:none"
             id="path186"
             inkscape:connector-curvature="0" /></g><g
           id="g188"
           transform="translate(346.3896,483.374)"><path
             d="m 0,0 -4.619,1.51 -1.51,-4.619 4.619,-1.51 z"
             style="fill:#eee2e2;fill-opacity:1;fill-rule:nonzero;stroke:none"
             id="path190"
             inkscape:connector-curvature="0" /></g><g
           id="g192"
           transform="translate(328.2617,447.168)"><path
             d="M 0,0 C 5.047,-1.649 9.077,0.253 10.811,5.556 L 18.357,28.652 13.054,30.386 5.437,7.075 C 4.696,4.809 3.435,3.99 1.51,4.619 -0.415,5.248 -0.95,6.653 -0.209,8.921 L 7.408,32.23 2.104,33.964 -5.442,10.868 C -7.176,5.563 -5.047,1.649 0,0"
             style="fill:#eee2e2;fill-opacity:1;fill-rule:nonzero;stroke:none"
             id="path194"
             inkscape:connector-curvature="0" /></g><g
           id="g196"
           transform="translate(339.6318,485.583)"><path
             d="m 0,0 -4.619,1.51 -1.51,-4.619 4.62,-1.51 z"
             style="fill:#eee2e2;fill-opacity:1;fill-rule:nonzero;stroke:none"
             id="path198"
             inkscape:connector-curvature="0" /></g><g
           id="g200"
           transform="translate(347.0352,440.4424)"><path
             d="M 0,0 8.63,18.367 8.711,18.329 6.516,-3.062 10.914,-5.128 24.729,24.275 20.168,26.419 12.266,9.6 12.185,9.637 13.938,29.347 9.254,31.547 -4.562,2.143 Z"
             style="fill:#eee2e2;fill-opacity:1;fill-rule:nonzero;stroke:none"
             id="path202"
             inkscape:connector-curvature="0" /></g><g
           id="g204"
           transform="translate(369.1025,428.7666)"><path
             d="M 0,0 16.625,27.917 11.83,30.771 -4.794,2.855 Z"
             style="fill:#eee2e2;fill-opacity:1;fill-rule:nonzero;stroke:none"
             id="path206"
             inkscape:connector-curvature="0" /></g><g
           id="g208"
           transform="translate(383.5234,418.9688)"><path
             d="M 0,0 24.581,22.306 20.138,25.53 3.619,9.661 3.546,9.714 13.509,30.341 9.065,33.565 -4.516,3.276 Z"
             style="fill:#eee2e2;fill-opacity:1;fill-rule:nonzero;stroke:none"
             id="path210"
             inkscape:connector-curvature="0" /></g><g
           id="g212"
           transform="translate(403.7461,401.7393)"><path
             d="m 0,0 3.269,3.598 -7.396,6.716 6.415,7.063 5.33,-4.842 3.268,3.598 -5.33,4.842 5.629,6.195 6.927,-6.293 3.269,3.597 -11.06,10.046 -21.845,-24.05 z"
             style="fill:#eee2e2;fill-opacity:1;fill-rule:nonzero;stroke:none"
             id="path214"
             inkscape:connector-curvature="0" /></g><g
           id="g216"
           transform="translate(432.2559,412.0166)"><path
             d="m 0,0 1.303,-1.492 c 1.983,-2.272 1.876,-3.86 -1.04,-6.405 -2.916,-2.546 -4.504,-2.439 -6.488,-0.167 l -1.301,1.492 z m -21.021,-18.354 10.036,8.762 c 0.651,-0.746 1.455,-1.597 1.996,-2.081 l -7.532,-11.835 3.729,-4.271 7.979,13.24 c 1.887,-0.861 4.813,-0.996 8.747,2.437 5.22,4.559 5.119,8.713 1.004,13.426 l -5.15,5.899 -24.479,-21.372 z"
             style="fill:#eee2e2;fill-opacity:1;fill-rule:nonzero;stroke:none"
             id="path218"
             inkscape:connector-curvature="0" /></g><g
           id="g220"
           transform="translate(434.709,375.4111)"><path
             d="m 0,0 c -1.596,-1.096 -3.188,-0.605 -4.283,0.989 -1.02,1.484 -0.423,3.478 2.157,5.523 l -3.637,3.944 c -3.879,-2.938 -5.61,-7.73 -2.679,-11.996 2.956,-4.304 7.443,-5.589 11.857,-2.556 7.271,4.994 3.037,15.846 7.6,18.98 1.669,1.146 3.194,0.993 4.214,-0.491 0.712,-1.039 0.886,-2.721 -1.287,-4.487 l 3.49,-4.046 c 3.504,3.007 4.682,7.093 2.108,10.84 -3.108,4.526 -7.304,5.466 -11.569,2.535 C 0.292,13.961 5.305,3.645 0,0"
             style="fill:#eee2e2;fill-opacity:1;fill-rule:nonzero;stroke:none"
             id="path222"
             inkscape:connector-curvature="0" /></g><g
           id="g224"
           transform="translate(437.418,356.5742)"><path
             d="M 0,0 28.346,15.876 25.619,20.743 -2.727,4.868 Z"
             style="fill:#eee2e2;fill-opacity:1;fill-rule:nonzero;stroke:none"
             id="path226"
             inkscape:connector-curvature="0" /></g><g
           id="g228"
           transform="translate(444.5371,341.9688)"><path
             d="M 0,0 25.165,11.401 27.394,6.483 31.819,8.489 25.061,23.407 20.634,21.402 22.862,16.483 -2.303,5.082 Z"
             style="fill:#eee2e2;fill-opacity:1;fill-rule:nonzero;stroke:none"
             id="path230"
             inkscape:connector-curvature="0" /></g><g
           id="g232"
           transform="translate(479.2549,327.4697)"><path
             d="m 0,0 4.61,1.533 -4.711,14.174 -30.825,-10.245 4.91,-14.773 4.611,1.534 -3.151,9.477 9.052,3.009 2.271,-6.831 4.61,1.532 -2.271,6.831 7.942,2.64 z"
             style="fill:#eee2e2;fill-opacity:1;fill-rule:nonzero;stroke:none"
             id="path234"
             inkscape:connector-curvature="0" /></g><g
           id="g236"
           transform="translate(480.6895,308.0068)"><path
             d="m 0,0 1.68,-5.07 c 4.385,1.441 7.035,4.766 6.087,9.211 -1.145,5.369 -4.663,7.839 -9.723,6.759 -9.109,-1.942 -8.417,-13.388 -14.71,-14.73 -1.893,-0.403 -3.177,0.657 -3.58,2.549 -0.375,1.76 0.936,3.375 4.102,4.279 l -1.855,5.033 c -4.706,-1.232 -8.135,-5.001 -7.056,-10.061 1.088,-5.105 4.743,-8.006 9.981,-6.89 8.625,1.84 8.856,13.483 14.269,14.637 C 1.176,6.14 2.526,5.416 2.901,3.655 3.164,2.423 2.682,0.802 0,0"
             style="fill:#eee2e2;fill-opacity:1;fill-rule:nonzero;stroke:none"
             id="path238"
             inkscape:connector-curvature="0" /></g><g
           id="g240"
           transform="translate(490.9365,295.1045)"><path
             d="m 0,0 -32.257,-3.846 0.66,-5.54 32.258,3.845 z"
             style="fill:#eee2e2;fill-opacity:1;fill-rule:nonzero;stroke:none"
             id="path242"
             inkscape:connector-curvature="0" /></g><g
           id="g244"
           transform="translate(126.2227,444.0635)"><path
             d="m 0,0 c -1.852,-1.48 -3.012,-1.297 -3.854,-0.242 l -2.232,-1.477 c 2.543,-3.185 4.527,-2.25 7.412,0.057 2.885,2.305 4.24,4.035 1.695,7.221 L 1.088,3.707 C 1.93,2.652 1.854,1.48 0,0"
             style="fill:#eee2e2;fill-opacity:1;fill-rule:nonzero;stroke:none"
             id="path246"
             inkscape:connector-curvature="0" /></g><g
           id="g248"
           transform="translate(375.8398,110.6943)"><path
             d="m 0,0 c -1.949,-1.354 -3.094,-1.092 -3.861,0.018 l -2.328,-1.325 c 2.324,-3.349 4.367,-2.547 7.4,-0.439 3.033,2.105 4.5,3.74 2.176,7.09 L 1.334,3.625 C 2.102,2.518 1.947,1.354 0,0"
             style="fill:#eee2e2;fill-opacity:1;fill-rule:nonzero;stroke:none"
             id="path250"
             inkscape:connector-curvature="0" /></g><g
           id="g252"
           transform="translate(282.5801,491.0811)"><path
             d="M 0,0 0.199,4.078 -5.213,4.342 -5.412,0.262 Z"
             style="fill:#eee2e2;fill-opacity:1;fill-rule:nonzero;stroke:none"
             id="path254"
             inkscape:connector-curvature="0" /></g><g
           id="g256"
           transform="translate(386.5449,458.4561)"><path
             d="M 0,0 2.084,3.512 -2.576,6.277 -4.66,2.766 Z"
             style="fill:#eee2e2;fill-opacity:1;fill-rule:nonzero;stroke:none"
             id="path258"
             inkscape:connector-curvature="0" /></g><g
           id="g260"
           transform="translate(467.4316,373.4287)"><path
             d="M 0,0 3.566,1.992 0.922,6.723 -2.643,4.73 Z"
             style="fill:#eee2e2;fill-opacity:1;fill-rule:nonzero;stroke:none"
             id="path262"
             inkscape:connector-curvature="0" /></g><g
           id="g264"
           transform="translate(496.9316,295.792)"><path
             d="m 0,0 -4.053,-0.49 0.647,-5.379 4.056,0.488 z"
             style="fill:#eee2e2;fill-opacity:1;fill-rule:nonzero;stroke:none"
             id="path266"
             inkscape:connector-curvature="0" /></g><g
           id="g268"
           transform="translate(152.4375,114.9678)"><path
             d="M 0,0 4.334,-3.254 6.787,0.012 2.455,3.266 Z"
             style="fill:#eee2e2;fill-opacity:1;fill-rule:nonzero;stroke:none"
             id="path270"
             inkscape:connector-curvature="0" /></g><g
           id="g272"
           transform="translate(61.082,273.1084)"><path
             d="m 0,0 c -4.166,0 -7.543,-3.377 -7.543,-7.541 0,-4.166 3.377,-7.543 7.543,-7.543 4.164,0 7.541,3.377 7.541,7.543 C 7.541,-3.377 4.164,0 0,0"
             style="fill:#eee2e2;fill-opacity:1;fill-rule:nonzero;stroke:none"
             id="path274"
             inkscape:connector-curvature="0" /></g><g
           id="g276"
           transform="translate(476.7461,273.1084)"><path
             d="m 0,0 c -4.166,0 -7.543,-3.377 -7.543,-7.541 0,-4.166 3.377,-7.543 7.543,-7.543 4.164,0 7.541,3.377 7.541,7.543 C 7.541,-3.377 4.164,0 0,0"
             style="fill:#eee2e2;fill-opacity:1;fill-rule:nonzero;stroke:none"
             id="path278"
             inkscape:connector-curvature="0" /></g><g
           id="g280"
           transform="translate(602.1094,282.4043)"><path
             d="M 0,0 H -35.631 V 180.181 H 0 v -79.602 l 18.447,79.602 H 53.574 L 31.842,105.526 53.828,0 H 18.447 L 0.506,94.26 Z"
             style="fill:#414142;fill-opacity:1;fill-rule:nonzero;stroke:none"
             id="path282"
             inkscape:connector-curvature="0" /></g><path
           d="M 693.336,282.404 H 661.24 v 144.801 h 32.096 z m 0,152.888 H 661.24 v 27.293 h 32.096 z"
           style="fill:#414142;fill-opacity:1;fill-rule:nonzero;stroke:none"
           id="path284"
           inkscape:connector-curvature="0" /><g
           id="g286"
           transform="translate(733.5137,427.2051)"><path
             d="m 0,0 v -12.887 c 3.199,5.56 5.896,9.18 8.086,10.866 3.201,2.528 7.834,3.79 13.898,3.79 5.897,0 10.362,-1.053 13.395,-3.158 3.033,-2.108 5.475,-6.026 7.328,-11.752 2.527,4.38 4.463,7.329 5.813,8.845 3.539,4.044 8.927,6.065 16.173,6.065 8.928,0 15.164,-3.123 18.702,-9.365 2.357,-4.22 3.537,-10.045 3.537,-17.468 V -144.801 H 54.838 v 112.709 c 0,2.021 -0.467,3.789 -1.391,5.306 -0.926,1.515 -2.4,2.274 -4.422,2.274 -2.021,0 -3.455,-0.759 -4.295,-2.274 -0.845,-1.517 -1.263,-3.285 -1.263,-5.306 V -144.801 H 11.373 v 112.709 c 0,2.021 -0.467,3.789 -1.391,5.306 -0.927,1.515 -2.402,2.274 -4.421,2.274 -2.022,0 -3.456,-0.759 -4.297,-2.274 C 0.42,-28.303 0,-30.071 0,-32.092 V -144.801 H -32.094 V 0 Z"
             style="fill:#414142;fill-opacity:1;fill-rule:nonzero;stroke:none"
             id="path288"
             inkscape:connector-curvature="0" /></g><g
           id="g290"
           transform="translate(876.8008,427.2051)"><path
             d="M 0,0 H 29.818 L 7.074,-145.854 c -2.019,-12.951 -5.306,-21.322 -9.853,-25.109 -4.551,-3.782 -14.576,-5.678 -30.075,-5.678 h -16.173 v 23.755 h 10.109 c 6.064,0 9.098,2.186 9.098,6.557 l -0.252,4.29 L -52.059,0 h 32.094 l 8.844,-110.433 z"
             style="fill:#414142;fill-opacity:1;fill-rule:nonzero;stroke:none"
             id="path292"
             inkscape:connector-curvature="0" /></g><g
           id="g294"
           transform="translate(943.7656,338.5049)"><path
             d="m 0,0 v -26.28 c 0,-2.193 0.418,-4.004 1.264,-5.433 0.84,-1.433 2.273,-2.149 4.295,-2.149 2.021,0 3.496,0.716 4.421,2.149 0.924,1.429 1.391,3.24 1.391,5.433 V 15.416 L 5.559,11.374 C 3.031,9.182 1.471,7.54 0.885,6.445 0.291,5.348 0,3.2 0,0 m -32.096,38.413 v 19.459 c 0,10.442 3.539,18.485 10.616,24.131 7.076,5.643 16.085,8.466 27.039,8.466 10.779,0 19.795,-2.823 27.039,-8.466 7.244,-5.646 10.867,-13.689 10.867,-24.131 v -84.406 c 0,-4.042 0.166,-7.75 0.504,-11.117 1.179,-11.46 1.769,-17.525 1.769,-18.196 H 13.139 l -1.768,14.658 c -4.549,-10.955 -11.877,-16.426 -21.984,-16.426 -7.752,0 -13.268,2.187 -16.553,6.569 -3.287,4.378 -4.93,10.867 -4.93,19.459 v 31.082 c 0,12.466 7.244,22.068 21.735,28.811 14.486,6.735 21.732,15.074 21.732,25.016 v 5.814 c 0,2.02 -0.467,3.789 -1.391,5.306 -0.925,1.515 -2.4,2.274 -4.421,2.274 -2.022,0 -3.455,-0.759 -4.295,-2.274 C 0.418,62.925 0,61.156 0,59.136 V 38.413 Z"
             style="fill:#414142;fill-opacity:1;fill-rule:nonzero;stroke:none"
             id="path296"
             inkscape:connector-curvature="0" /></g><g
           id="g298"
           transform="translate(623.084,224.0039)"><path
             d="M 0,0 V -154.403 H -35.631 V 0 H -59.639 V 25.777 H 24.006 V 0 Z"
             style="fill:#414142;fill-opacity:1;fill-rule:nonzero;stroke:none"
             id="path300"
             inkscape:connector-curvature="0" /></g><g
           id="g302"
           transform="translate(675.9004,99.4209)"><path
             d="m 0,0 v 85.414 c 0,2.023 -0.467,3.791 -1.391,5.309 -0.925,1.514 -2.4,2.273 -4.42,2.273 -2.023,0 -3.457,-0.759 -4.296,-2.273 -0.844,-1.518 -1.264,-3.286 -1.264,-5.309 V 0 c 0,-2.191 0.42,-4.004 1.264,-5.433 0.839,-1.433 2.273,-2.149 4.296,-2.149 2.02,0 3.495,0.716 4.42,2.149 C -0.467,-4.004 0,-2.191 0,0 M 32.094,84.15 V 1.264 c 0,-10.45 -3.791,-18.618 -11.371,-24.514 -6.91,-5.393 -15.756,-8.085 -26.534,-8.085 -10.955,0 -19.798,2.692 -26.535,8.085 -7.416,5.896 -11.119,14.064 -11.119,24.514 V 84.15 c 0,10.446 3.537,18.488 10.615,24.133 7.075,5.645 16.084,8.466 27.039,8.466 10.778,0 19.793,-2.821 27.04,-8.466 7.242,-5.645 10.865,-13.687 10.865,-24.133"
             style="fill:#414142;fill-opacity:1;fill-rule:nonzero;stroke:none"
             id="path304"
             inkscape:connector-curvature="0" /></g><g
           id="g306"
           transform="translate(760.0508,101.9482)"><path
             d="m 0,0 v 80.359 c 0,2.023 -0.467,3.791 -1.391,5.309 -0.927,1.515 -2.4,2.273 -4.423,2.273 -2.02,0 -3.454,-0.758 -4.293,-2.273 -0.848,-1.518 -1.264,-3.286 -1.264,-5.309 V 0 c 0,-2.191 0.416,-4.004 1.264,-5.435 0.839,-1.431 2.273,-2.147 4.293,-2.147 2.023,0 3.496,0.716 4.423,2.147 C -0.467,-4.004 0,-2.191 0,0 M -11.371,112.453 V 97.291 c 1.176,5.055 3.619,9.138 7.328,12.257 3.703,3.116 8,4.674 12.887,4.674 8.927,0 15.246,-3.372 18.953,-10.108 2.863,-5.222 4.297,-12.635 4.297,-22.237 V -2.275 c 0,-9.603 -1.352,-16.848 -4.045,-21.734 -3.707,-6.569 -10.108,-9.853 -19.205,-9.853 -4.717,0 -8.932,1.349 -12.635,4.042 -3.707,2.693 -6.064,6.147 -7.076,10.361 l -0.504,-44.729 h -32.094 v 176.641 z"
             style="fill:#414142;fill-opacity:1;fill-rule:nonzero;stroke:none"
             id="path308"
             inkscape:connector-curvature="0" /></g><path
           d="m 832.576,69.601 h -32.094 v 180.181 h 32.094 z"
           style="fill:#414142;fill-opacity:1;fill-rule:nonzero;stroke:none"
           id="path310"
           inkscape:connector-curvature="0" /><g
           id="g312"
           transform="translate(884.8828,69.8545)"><path
             d="m 0,0 v 16.173 c -0.17,-4.72 -2.443,-8.889 -6.824,-12.509 -4.381,-3.625 -9.096,-5.433 -14.151,-5.433 -7.921,0 -13.646,2.274 -17.183,6.822 -3.539,4.55 -5.307,10.866 -5.307,18.954 v 120.54 h 32.094 V 32.094 c 0,-2.192 0.418,-4.004 1.264,-5.435 0.839,-1.431 2.273,-2.147 4.296,-2.147 2.02,0 3.495,0.716 4.42,2.147 C -0.467,28.09 0,29.902 0,32.094 V 144.547 H 32.094 V 0 Z"
             style="fill:#414142;fill-opacity:1;fill-rule:nonzero;stroke:none"
             id="path314"
             inkscape:connector-curvature="0" /></g><path
           d="M 957.916,69.601 H 925.82 v 180.181 h 32.096 z"
           style="fill:#414142;fill-opacity:1;fill-rule:nonzero;stroke:none"
           id="path316"
           inkscape:connector-curvature="0" /><g
           id="g318"
           transform="translate(1010.2227,69.8545)"><path
             d="m 0,0 v 16.173 c -0.17,-4.72 -2.443,-8.889 -6.824,-12.509 -4.383,-3.625 -9.096,-5.433 -14.151,-5.433 -7.921,0 -13.646,2.274 -17.185,6.822 -3.537,4.55 -5.305,10.866 -5.305,18.954 v 120.54 h 32.094 V 32.094 c 0,-2.192 0.418,-4.004 1.264,-5.435 0.839,-1.431 2.273,-2.147 4.294,-2.147 2.022,0 3.497,0.716 4.422,2.147 C -0.467,28.09 0,29.902 0,32.094 V 144.547 H 32.094 V 0 Z"
             style="fill:#414142;fill-opacity:1;fill-rule:nonzero;stroke:none"
             id="path320"
             inkscape:connector-curvature="0" /></g><g
           id="g322"
           transform="translate(1093.8672,118.626)"><path
             d="m 0,0 v 63.682 c 0,2.022 -0.467,3.791 -1.391,5.308 -0.927,1.515 -2.4,2.274 -4.422,2.274 -2.021,0 -3.455,-0.759 -4.296,-2.274 -0.846,-1.517 -1.262,-3.286 -1.262,-5.308 V 0 c 0,-2.191 0.416,-4.004 1.262,-5.433 0.841,-1.433 2.275,-2.149 4.296,-2.149 2.022,0 3.495,0.716 4.422,2.149 C -0.467,-4.004 0,-2.191 0,0 M 32.094,95.775 V -48.313 c 0,-11.441 -3.455,-19.851 -10.362,-25.237 -6.234,-4.876 -15.332,-7.315 -27.293,-7.315 -11.964,0 -21.06,2.443 -27.293,7.328 -7.074,5.392 -10.611,13.815 -10.611,25.27 V -37.4 h 32.094 v -13.648 c 0,-2.185 0.416,-3.999 1.262,-5.432 0.841,-1.43 2.275,-2.148 4.296,-2.148 2.022,0 3.495,0.714 4.422,2.132 C -0.467,-55.07 0,-53.27 0,-51.095 v 32.142 h -1.264 c -1.857,-3.807 -4.843,-7.032 -8.97,-9.678 -4.131,-2.646 -8.465,-3.968 -13.016,-3.968 -6.91,0 -12.004,2.184 -15.289,6.558 -3.285,4.371 -4.926,10.342 -4.926,17.907 V 71.82 c 0,7.566 1.598,13.743 4.801,18.535 3.197,4.793 8.34,7.189 15.414,7.189 4.551,0 8.846,-1.477 12.889,-4.421 4.043,-2.95 7.076,-6.531 9.097,-10.739 H 0 v 13.391 z"
             style="fill:#414142;fill-opacity:1;fill-rule:nonzero;stroke:none"
             id="path324"
             inkscape:connector-curvature="0" /></g><g
           id="g326"
           transform="translate(1177.5117,69.8545)"><path
             d="m 0,0 v 16.173 c -0.17,-4.72 -2.445,-8.889 -6.822,-12.509 -4.383,-3.625 -9.098,-5.433 -14.155,-5.433 -7.918,0 -13.644,2.274 -17.181,6.822 -3.537,4.55 -5.307,10.866 -5.307,18.954 v 120.54 h 32.094 V 32.094 c 0,-2.192 0.418,-4.004 1.262,-5.435 0.841,-1.431 2.275,-2.147 4.296,-2.147 2.022,0 3.495,0.716 4.422,2.147 C -0.467,28.09 0,29.902 0,32.094 V 144.547 H 32.094 V 0 Z"
             style="fill:#414142;fill-opacity:1;fill-rule:nonzero;stroke:none"
             id="path328"
             inkscape:connector-curvature="0" /></g><g
           id="g330"
           transform="translate(1121.875,250.4648)"><path
             d="m 0,0 c -1.82,-18.051 -12.781,-27.075 -32.877,-27.075 -20.328,0 -31.287,9.024 -32.879,27.075 h 17.748 c 1.44,-7.813 6.485,-11.717 15.131,-11.717 8.721,0 13.766,3.904 15.131,11.717 z"
             style="fill:#414142;fill-opacity:1;fill-rule:nonzero;stroke:none"
             id="path332"
             inkscape:connector-curvature="0" /></g></g></g></g></svg>