<?xml version="1.0" encoding="UTF-8" standalone="no"?>
<!-- Created with Inkscape (http://www.inkscape.org/) -->

<svg
   xmlns:dc="http://purl.org/dc/elements/1.1/"
   xmlns:cc="http://creativecommons.org/ns#"
   xmlns:rdf="http://www.w3.org/1999/02/22-rdf-syntax-ns#"
   xmlns:svg="http://www.w3.org/2000/svg"
   xmlns="http://www.w3.org/2000/svg"
   xmlns:sodipodi="http://sodipodi.sourceforge.net/DTD/sodipodi-0.dtd"
   xmlns:inkscape="http://www.inkscape.org/namespaces/inkscape"
   version="1.1"
   id="svg2"
   xml:space="preserve"
   width="714.66669"
   height="1042.6667"
   viewBox="0 0 714.66669 1042.6667"
   sodipodi:docname="kt3.svg"
   inkscape:version="0.92.2 5c3e80d, 2017-08-06"><metadata
     id="metadata8"><rdf:RDF><cc:Work
         rdf:about=""><dc:format>image/svg+xml</dc:format><dc:type
           rdf:resource="http://purl.org/dc/dcmitype/StillImage" /><dc:title></dc:title></cc:Work></rdf:RDF></metadata><defs
     id="defs6"><clipPath
       clipPathUnits="userSpaceOnUse"
       id="clipPath18"><path
         d="M 0,782 H 536 V 0 H 0 Z"
         id="path16"
         inkscape:connector-curvature="0" /></clipPath></defs><sodipodi:namedview
     pagecolor="#ffffff"
     bordercolor="#666666"
     borderopacity="1"
     objecttolerance="10"
     gridtolerance="10"
     guidetolerance="10"
     inkscape:pageopacity="0"
     inkscape:pageshadow="2"
     inkscape:window-width="1920"
     inkscape:window-height="1036"
     id="namedview4"
     showgrid="false"
     inkscape:zoom="0.22634269"
     inkscape:cx="-289.91529"
     inkscape:cy="521.33337"
     inkscape:window-x="0"
     inkscape:window-y="20"
     inkscape:window-maximized="0"
     inkscape:current-layer="g10" /><g
     id="g10"
     inkscape:groupmode="layer"
     inkscape:label="ktlogo2"
     transform="matrix(1.3333333,0,0,-1.3333333,0,1042.6667)"><g
       id="g12"><g
         id="g14"
         clip-path="url(#clipPath18)"><g
           id="g20"
           transform="translate(366.6855,395.1523)"><path
             d="m 0,0 c 0,-52.174 -42.295,-94.469 -94.469,-94.469 -52.174,0 -94.469,42.295 -94.469,94.469 0,52.174 42.295,94.469 94.469,94.469 C -42.295,94.469 0,52.174 0,0 Z"
             style="fill:none;stroke:#231f20;stroke-width:0.75;stroke-linecap:butt;stroke-linejoin:miter;stroke-miterlimit:10;stroke-dasharray:none;stroke-opacity:1"
             id="path22"
             inkscape:connector-curvature="0" /></g><g
           id="g24"
           transform="translate(402.2168,395.1523)"><path
             d="m 0,0 c 0,-71.797 -58.202,-130 -130,-130 -71.797,0 -130,58.203 -130,130 0,71.797 58.203,130 130,130 C -58.202,130 0,71.797 0,0 Z"
             style="fill:none;stroke:#231f20;stroke-width:0.75;stroke-linecap:butt;stroke-linejoin:miter;stroke-miterlimit:10;stroke-dasharray:none;stroke-opacity:1"
             id="path26"
             inkscape:connector-curvature="0" /></g><g
           id="g28"
           transform="translate(301.3984,436.8984)"><path
             d="m 0,0 -12.039,-25.498 4.328,-29.42 h -21.576 l -3.922,25.092 -3.721,-25.092 H -57.964 L -49.779,0 h 21.033 L -32.06,-22.184 -21.848,0 Z"
             style="fill:#231f20;fill-opacity:1;fill-rule:nonzero;stroke:none"
             id="path30"
             inkscape:connector-curvature="0" /></g><g
           id="g32"
           transform="translate(348.0195,436.8984)"><path
             d="m 0,0 -1.827,-12.512 h -11.025 l -6.357,-42.406 h -21.439 l 6.356,42.406 H -45.316 L -43.49,0 Z"
             style="fill:#231f20;fill-opacity:1;fill-rule:nonzero;stroke:none"
             id="path34"
             inkscape:connector-curvature="0" /></g><g
           id="g36"
           transform="translate(288.5381,335.5215)"><path
             d="m 0,0 c 0,-3.758 -3.046,-6.803 -6.804,-6.803 -3.757,0 -6.8,3.045 -6.8,6.803 0,3.758 3.043,6.803 6.8,6.803 C -3.046,6.803 0,3.758 0,0"
             style="fill:#231f20;fill-opacity:1;fill-rule:nonzero;stroke:none"
             id="path38"
             inkscape:connector-curvature="0" /></g><g
           id="g40"
           transform="translate(208.9785,405.5605)"><path
             d="m 0,0 c 0,-3.758 -3.045,-6.805 -6.803,-6.805 -3.756,0 -6.801,3.047 -6.801,6.805 0,3.756 3.045,6.801 6.801,6.801 C -3.045,6.801 0,3.756 0,0"
             style="fill:#231f20;fill-opacity:1;fill-rule:nonzero;stroke:none"
             id="path42"
             inkscape:connector-curvature="0" /></g><g
           id="g44"
           transform="translate(229.0293,377.4785)"><path
             d="m 0,0 c 6.764,-0.961 13.551,-1.549 20.34,-1.85 3.394,-0.15 6.787,-0.23 10.18,-0.244 1.697,-0.006 3.392,-0.006 5.087,0.053 1.696,0.068 3.389,0.166 5.082,0.162 -1.693,-0.002 -3.384,0.125 -5.074,0.258 l -5.064,0.338 c -3.373,0.242 -6.738,0.547 -10.095,0.924 -6.71,0.757 -13.385,1.773 -19.952,3.185 -6.551,1.44 -13.039,3.25 -19.096,5.799 -3.015,1.266 -5.943,2.738 -8.423,4.525 -1.235,0.885 -2.34,1.879 -3.123,2.901 -0.389,0.508 -0.686,1.021 -0.87,1.502 -0.185,0.484 -0.249,0.924 -0.234,1.351 0.017,0.428 0.121,0.85 0.326,1.311 0.205,0.459 0.515,0.947 0.907,1.437 0.786,0.987 1.886,1.953 3.092,2.86 2.431,1.822 5.329,3.353 8.31,4.713 2.99,1.363 6.098,2.591 9.243,3.812 l 2.372,0.895 c 0.197,0.078 0.404,0.113 0.576,0.308 0.172,0.188 0.322,0.483 0.491,0.699 0.163,0.237 0.154,0.282 -0.095,0.426 -0.245,0.125 -0.507,0.328 -0.748,0.422 -0.24,0.102 -0.445,0.043 -0.66,0.026 -0.853,-0.09 -1.709,-0.186 -2.563,-0.297 -3.417,-0.444 -6.812,-1.139 -10.167,-2.139 -3.348,-1.02 -6.682,-2.258 -9.897,-4.189 -1.597,-0.981 -3.163,-2.163 -4.529,-3.797 -0.678,-0.819 -1.298,-1.766 -1.758,-2.866 -0.467,-1.089 -0.732,-2.355 -0.721,-3.621 0.02,-1.267 0.328,-2.513 0.812,-3.584 0.483,-1.076 1.116,-1.996 1.794,-2.797 1.371,-1.599 2.932,-2.755 4.5,-3.757 3.166,-1.965 6.471,-3.262 9.783,-4.377 3.324,-1.09 6.68,-1.926 10.047,-2.631 C -6.764,1.045 -3.383,0.473 0,0"
             style="fill:#231f20;fill-opacity:1;fill-rule:nonzero;stroke:none"
             id="path46"
             inkscape:connector-curvature="0" /></g><g
           id="g48"
           transform="translate(241.9941,394.6621)"><path
             d="m 0,0 0.234,1.867 c -0.145,0.18 -0.295,0.358 -0.438,0.539 -4.209,5.28 -8.21,10.717 -11.855,16.362 -3.615,5.65 -6.923,11.517 -9.403,17.603 -1.237,3.025 -2.267,6.137 -2.756,9.154 -0.247,1.5 -0.327,2.985 -0.158,4.26 0.083,0.635 0.237,1.207 0.448,1.678 0.211,0.473 0.476,0.83 0.789,1.119 0.315,0.291 0.686,0.516 1.159,0.697 0.468,0.18 1.033,0.305 1.657,0.375 1.253,0.141 2.714,0.047 4.206,-0.166 3.01,-0.429 6.14,-1.396 9.209,-2.541 3.08,-1.152 6.146,-2.48 9.231,-3.84 l 2.312,-1.044 c 0.194,-0.084 0.367,-0.206 0.625,-0.19 0.256,0.01 0.57,0.113 0.842,0.148 0.283,0.049 0.308,0.088 0.234,0.368 -0.084,0.261 -0.127,0.59 -0.229,0.826 -0.099,0.242 -0.287,0.346 -0.451,0.486 -0.668,0.539 -1.34,1.076 -2.022,1.602 -2.73,2.101 -5.622,4.011 -8.7,5.677 -3.089,1.645 -6.324,3.127 -9.961,4.036 -1.822,0.435 -3.768,0.707 -5.889,0.515 -1.059,-0.097 -2.166,-0.33 -3.27,-0.781 -1.099,-0.441 -2.183,-1.148 -3.069,-2.053 -0.882,-0.908 -1.546,-2.008 -1.959,-3.105 -0.421,-1.104 -0.624,-2.201 -0.71,-3.248 -0.16,-2.102 0.123,-4.022 0.526,-5.838 0.848,-3.629 2.269,-6.881 3.822,-10.014 1.58,-3.119 3.363,-6.084 5.244,-8.965 1.875,-2.882 3.857,-5.675 5.916,-8.402 C -10.313,11.662 -5.928,6.447 -1.341,1.434 -0.898,0.951 -0.447,0.479 0,0"
             style="fill:#231f20;fill-opacity:1;fill-rule:nonzero;stroke:none"
             id="path50"
             inkscape:connector-curvature="0" /></g><g
           id="g52"
           transform="translate(281.7988,379.2773)"><path
             d="m 0,0 c -0.385,-0.334 -0.77,-0.664 -1.156,-0.994 l -3.819,-3.344 c -2.556,-2.213 -5.152,-4.379 -7.791,-6.484 -5.281,-4.211 -10.717,-8.209 -16.361,-11.856 -5.65,-3.615 -11.518,-6.924 -17.603,-9.402 -3.027,-1.238 -6.137,-2.268 -9.157,-2.758 -1.498,-0.246 -2.983,-0.326 -4.258,-0.156 -0.636,0.084 -1.208,0.236 -1.677,0.447 -0.475,0.211 -0.83,0.477 -1.12,0.789 -0.291,0.315 -0.515,0.688 -0.699,1.158 -0.179,0.471 -0.304,1.034 -0.375,1.659 -0.14,1.252 -0.047,2.712 0.166,4.205 0.43,3.009 1.397,6.14 2.543,9.209 1.15,3.08 2.479,6.146 3.839,9.232 l 1.046,2.311 c 0.084,0.195 0.205,0.367 0.189,0.625 -0.011,0.255 -0.115,0.57 -0.149,0.843 -0.05,0.282 -0.089,0.309 -0.366,0.233 -0.264,-0.084 -0.591,-0.127 -0.828,-0.229 -0.242,-0.099 -0.346,-0.285 -0.485,-0.451 -0.541,-0.666 -1.076,-1.34 -1.601,-2.021 -2.104,-2.731 -4.013,-5.623 -5.678,-8.7 -1.646,-3.089 -3.128,-6.324 -4.037,-9.962 -0.435,-1.821 -0.707,-3.766 -0.516,-5.889 0.1,-1.057 0.33,-2.164 0.783,-3.268 0.44,-1.101 1.147,-2.183 2.05,-3.07 0.912,-0.883 2.009,-1.545 3.109,-1.959 1.101,-0.42 2.201,-0.625 3.247,-0.711 2.1,-0.16 4.022,0.125 5.839,0.527 3.627,0.848 6.881,2.268 10.011,3.821 3.122,1.582 6.086,3.363 8.965,5.246 2.884,1.873 5.676,3.857 8.403,5.916 5.463,4.103 10.678,8.486 15.691,13.074 2.508,2.293 4.963,4.639 7.371,7.027 1.204,1.196 2.403,2.393 3.561,3.633 0.398,0.432 0.795,0.867 1.191,1.299 z"
             style="fill:#231f20;fill-opacity:1;fill-rule:nonzero;stroke:none"
             id="path54"
             inkscape:connector-curvature="0" /></g><g
           id="g56"
           transform="translate(289.3008,379.2773)"><path
             d="m 0,0 c -0.105,-1.043 -0.202,-2.086 -0.318,-3.127 -0.758,-6.709 -1.774,-13.385 -3.188,-19.951 -1.438,-6.553 -3.248,-13.041 -5.798,-19.098 -1.264,-3.013 -2.737,-5.941 -4.526,-8.422 -0.885,-1.234 -1.878,-2.341 -2.899,-3.123 -0.508,-0.39 -1.023,-0.687 -1.503,-0.869 -0.485,-0.187 -0.924,-0.25 -1.35,-0.234 -0.429,0.017 -0.85,0.121 -1.313,0.324 -0.459,0.205 -0.945,0.516 -1.437,0.908 -0.984,0.787 -1.951,1.885 -2.857,3.092 -1.825,2.432 -3.354,5.328 -4.713,8.309 -1.366,2.992 -2.592,6.099 -3.815,9.244 l -0.892,2.371 c -0.08,0.197 -0.114,0.404 -0.31,0.576 -0.188,0.174 -0.483,0.324 -0.7,0.492 -0.235,0.164 -0.281,0.154 -0.426,-0.096 -0.125,-0.244 -0.326,-0.507 -0.422,-0.746 -0.101,-0.242 -0.042,-0.447 -0.025,-0.662 0.092,-0.853 0.187,-1.709 0.299,-2.562 0.442,-3.418 1.138,-6.813 2.135,-10.166 1.023,-3.348 2.261,-6.684 4.191,-9.899 0.98,-1.595 2.162,-3.162 3.799,-4.529 0.816,-0.678 1.764,-1.297 2.864,-1.758 1.091,-0.467 2.354,-0.732 3.622,-0.719 1.266,0.02 2.512,0.327 3.582,0.811 1.077,0.482 1.998,1.115 2.799,1.795 1.599,1.371 2.756,2.93 3.756,4.5 1.965,3.164 3.261,6.469 4.379,9.781 1.087,3.324 1.923,6.682 2.63,10.049 0.713,3.363 1.286,6.742 1.757,10.125 0.96,6.764 1.548,13.553 1.849,20.34 C 1.219,-2.162 1.248,-1.08 1.281,0 Z"
             style="fill:#231f20;fill-opacity:1;fill-rule:nonzero;stroke:none"
             id="path58"
             inkscape:connector-curvature="0" /></g><g
           id="g60"
           transform="translate(323.0176,363.6113)"><path
             d="m 0,0 c -1.579,3.121 -3.361,6.084 -5.242,8.963 -1.488,2.289 -3.047,4.517 -4.654,6.703 h -3.584 c 3.6,-5.631 6.896,-11.478 9.367,-17.545 1.236,-3.025 2.265,-6.137 2.756,-9.154 0.246,-1.5 0.326,-2.985 0.158,-4.26 -0.084,-0.635 -0.238,-1.209 -0.449,-1.678 -0.21,-0.474 -0.477,-0.83 -0.79,-1.119 -0.314,-0.291 -0.685,-0.515 -1.156,-0.699 -0.47,-0.18 -1.035,-0.305 -1.658,-0.375 -1.254,-0.139 -2.713,-0.047 -4.207,0.168 -3.01,0.428 -6.141,1.396 -9.209,2.541 -3.08,1.15 -6.145,2.478 -9.231,3.84 l -2.31,1.045 c -0.197,0.084 -0.367,0.205 -0.627,0.189 -0.255,-0.012 -0.57,-0.113 -0.842,-0.148 -0.283,-0.051 -0.307,-0.088 -0.234,-0.367 0.084,-0.262 0.128,-0.59 0.23,-0.827 0.098,-0.242 0.286,-0.345 0.45,-0.486 0.668,-0.539 1.34,-1.076 2.023,-1.602 2.729,-2.101 5.621,-4.011 8.699,-5.677 3.09,-1.645 6.324,-3.127 9.961,-4.035 1.822,-0.436 3.768,-0.707 5.889,-0.516 1.057,0.096 2.166,0.328 3.269,0.779 1.1,0.442 2.184,1.149 3.069,2.053 0.883,0.91 1.547,2.01 1.961,3.107 0.42,1.104 0.623,2.202 0.709,3.248 0.16,2.1 -0.123,4.022 -0.526,5.838 C 2.975,-6.387 1.553,-3.133 0,0"
             style="fill:#231f20;fill-opacity:1;fill-rule:nonzero;stroke:none"
             id="path62"
             inkscape:connector-curvature="0" /></g><g
           id="g64"
           transform="translate(397.6865,395.1523)"><path
             d="m 0,0 c 0,-69.295 -56.175,-125.469 -125.47,-125.469 -69.295,0 -125.468,56.174 -125.468,125.469 0,69.295 56.173,125.471 125.468,125.471 C -56.175,125.471 0,69.295 0,0 Z"
             style="fill:none;stroke:#231f20;stroke-width:0.75;stroke-linecap:butt;stroke-linejoin:miter;stroke-miterlimit:10;stroke-dasharray:none;stroke-opacity:1"
             id="path66"
             inkscape:connector-curvature="0" /></g><g
           id="g68"
           transform="translate(393.3135,395.1523)"><path
             d="m 0,0 c 0,-66.879 -54.216,-121.096 -121.097,-121.096 -66.879,0 -121.095,54.217 -121.095,121.096 0,66.879 54.216,121.098 121.095,121.098 C -54.216,121.098 0,66.879 0,0 Z"
             style="fill:none;stroke:#231f20;stroke-width:0.75;stroke-linecap:butt;stroke-linejoin:miter;stroke-miterlimit:10;stroke-dasharray:none;stroke-opacity:1"
             id="path70"
             inkscape:connector-curvature="0" /></g><g
           id="g72"
           transform="translate(389.0938,395.1523)"><path
             d="m 0,0 c 0,-64.549 -52.328,-116.875 -116.877,-116.875 -64.549,0 -116.875,52.326 -116.875,116.875 0,64.549 52.326,116.877 116.875,116.877 C -52.328,116.877 0,64.549 0,0 Z"
             style="fill:none;stroke:#231f20;stroke-width:0.75;stroke-linecap:butt;stroke-linejoin:miter;stroke-miterlimit:10;stroke-dasharray:none;stroke-opacity:1"
             id="path74"
             inkscape:connector-curvature="0" /></g><g
           id="g76"
           transform="translate(385.0195,395.1523)"><path
             d="m 0,0 c 0,-62.299 -50.503,-112.803 -112.803,-112.803 -62.299,0 -112.802,50.504 -112.802,112.803 0,62.299 50.503,112.803 112.802,112.803 C -50.503,112.803 0,62.299 0,0 Z"
             style="fill:none;stroke:#231f20;stroke-width:0.75;stroke-linecap:butt;stroke-linejoin:miter;stroke-miterlimit:10;stroke-dasharray:none;stroke-opacity:1"
             id="path78"
             inkscape:connector-curvature="0" /></g><g
           id="g80"
           transform="translate(381.0879,395.1523)"><path
             d="m 0,0 c 0,-60.127 -48.742,-108.871 -108.871,-108.871 -60.127,0 -108.871,48.744 -108.871,108.871 0,60.127 48.744,108.871 108.871,108.871 C -48.742,108.871 0,60.127 0,0 Z"
             style="fill:none;stroke:#231f20;stroke-width:0.75;stroke-linecap:butt;stroke-linejoin:miter;stroke-miterlimit:10;stroke-dasharray:none;stroke-opacity:1"
             id="path82"
             inkscape:connector-curvature="0" /></g><g
           id="g84"
           transform="translate(377.2939,395.1523)"><path
             d="m 0,0 c 0,-58.031 -47.044,-105.076 -105.077,-105.076 -58.031,0 -105.076,47.045 -105.076,105.076 0,58.031 47.045,105.078 105.076,105.078 C -47.044,105.078 0,58.031 0,0 Z"
             style="fill:none;stroke:#231f20;stroke-width:0.75;stroke-linecap:butt;stroke-linejoin:miter;stroke-miterlimit:10;stroke-dasharray:none;stroke-opacity:1"
             id="path86"
             inkscape:connector-curvature="0" /></g><g
           id="g88"
           transform="translate(373.6318,395.1523)"><path
             d="m 0,0 c 0,-56.01 -45.405,-101.414 -101.415,-101.414 -56.01,0 -101.414,45.404 -101.414,101.414 0,56.01 45.404,101.416 101.414,101.416 C -45.405,101.416 0,56.01 0,0 Z"
             style="fill:none;stroke:#231f20;stroke-width:0.75;stroke-linecap:butt;stroke-linejoin:miter;stroke-miterlimit:10;stroke-dasharray:none;stroke-opacity:1"
             id="path90"
             inkscape:connector-curvature="0" /></g><g
           id="g92"
           transform="translate(370.0977,395.1523)"><path
             d="m 0,0 c 0,-54.057 -43.822,-97.879 -97.881,-97.879 -54.057,0 -97.879,43.822 -97.879,97.879 0,54.057 43.822,97.881 97.879,97.881 C -43.822,97.881 0,54.057 0,0 Z"
             style="fill:none;stroke:#231f20;stroke-width:0.75;stroke-linecap:butt;stroke-linejoin:miter;stroke-miterlimit:10;stroke-dasharray:none;stroke-opacity:1"
             id="path94"
             inkscape:connector-curvature="0" /></g></g></g></g></svg>