<?xml version="1.0" encoding="UTF-8" standalone="no"?>
<!-- Created with Inkscape (http://www.inkscape.org/) -->

<svg
   xmlns:dc="http://purl.org/dc/elements/1.1/"
   xmlns:cc="http://creativecommons.org/ns#"
   xmlns:rdf="http://www.w3.org/1999/02/22-rdf-syntax-ns#"
   xmlns:svg="http://www.w3.org/2000/svg"
   xmlns="http://www.w3.org/2000/svg"
   xmlns:sodipodi="http://sodipodi.sourceforge.net/DTD/sodipodi-0.dtd"
   xmlns:inkscape="http://www.inkscape.org/namespaces/inkscape"
   version="1.1"
   id="svg2"
   xml:space="preserve"
   width="1318.4399"
   height="413.65201"
   viewBox="0 0 1318.4399 413.65201"
   sodipodi:docname="kt5.svg"
   inkscape:version="0.92.2 5c3e80d, 2017-08-06"><metadata
     id="metadata8"><rdf:RDF><cc:Work
         rdf:about=""><dc:format>image/svg+xml</dc:format><dc:type
           rdf:resource="http://purl.org/dc/dcmitype/StillImage" /><dc:title></dc:title></cc:Work></rdf:RDF></metadata><defs
     id="defs6"><clipPath
       clipPathUnits="userSpaceOnUse"
       id="clipPath24"><path
         d="M 0,310.239 H 988.83 V 0 H 0 Z"
         id="path22"
         inkscape:connector-curvature="0" /></clipPath></defs><sodipodi:namedview
     pagecolor="#ffffff"
     bordercolor="#666666"
     borderopacity="1"
     objecttolerance="10"
     gridtolerance="10"
     guidetolerance="10"
     inkscape:pageopacity="0"
     inkscape:pageshadow="2"
     inkscape:window-width="1920"
     inkscape:window-height="1036"
     id="namedview4"
     showgrid="false"
     inkscape:zoom="1.5188605"
     inkscape:cx="226.79757"
     inkscape:cy="99.558804"
     inkscape:window-x="0"
     inkscape:window-y="20"
     inkscape:window-maximized="0"
     inkscape:current-layer="g10" /><g
     id="g10"
     inkscape:groupmode="layer"
     inkscape:label="Untitled-1"
     transform="matrix(1.3333333,0,0,-1.3333333,0,413.652)"><path
       d="m 271.778,35.081 h -238 v 238 h 238 z"
       style="fill:#ed1c24;fill-opacity:1;fill-rule:nonzero;stroke:none"
       id="path12"
       inkscape:connector-curvature="0" /><g
       id="g14"
       transform="translate(201.9403,310.239)"><path
         d="M 0,0 -132.749,-239.919 177.87,-74.899 156.869,0 Z"
         style="fill:#ffffff;fill-opacity:1;fill-rule:nonzero;stroke:none"
         id="path16"
         inkscape:connector-curvature="0" /></g><g
       id="g18"><g
         id="g20"
         clip-path="url(#clipPath24)"><g
           id="g26"
           transform="translate(117.147,116.1934)"><path
             d="m 0,0 -6.731,7.828 c -1.115,1.311 -2.223,2.628 -3.306,3.966 -0.541,0.67 -1.076,1.344 -1.591,2.036 -0.257,0.346 -0.509,0.696 -0.744,1.061 -0.116,0.183 -0.231,0.368 -0.326,0.57 -0.046,0.102 -0.093,0.203 -0.106,0.339 -0.013,0.064 0.043,0.2 0.146,0.213 0.089,0.019 0.146,-0.003 0.207,-0.018 l 0.018,-0.008 c 1.533,-0.95 2.869,-2.136 4.236,-3.281 1.354,-1.161 2.686,-2.346 4.011,-3.537 L 3.72,1.971 11.647,-5.198 c 1.329,-1.184 2.669,-2.357 4.037,-3.49 0.685,-0.565 1.376,-1.124 2.088,-1.639 0.353,-0.249 0.728,-0.517 1.078,-0.669 0.041,-0.017 0.084,-0.03 0.103,-0.032 0.03,-0.014 0.001,0.031 -0.109,-0.071 -0.057,-0.111 -0.022,-0.086 -0.038,-0.06 -0.006,0.027 -0.021,0.069 -0.038,0.11 -0.075,0.173 -0.187,0.361 -0.303,0.541 -2.027,2.876 -4.343,5.615 -6.613,8.348 L 4.927,5.98 c -2.316,2.709 -4.633,5.418 -6.915,8.161 -2.269,2.755 -4.558,5.488 -6.59,8.474 l -0.005,0.007 -0.013,0.023 c -0.126,0.258 -0.272,0.431 -0.341,0.898 -0.024,0.075 0.014,0.453 0.317,0.603 0.273,0.12 0.408,0.059 0.508,0.045 0.202,-0.05 0.329,-0.116 0.46,-0.181 0.5,-0.266 0.91,-0.565 1.329,-0.868 0.827,-0.61 1.613,-1.25 2.395,-1.897 1.559,-1.295 3.082,-2.624 4.599,-3.959 l 9.04,-8.06 c 3.005,-2.696 5.997,-5.402 9.025,-8.06 1.514,-1.327 3.037,-2.645 4.585,-3.921 0.774,-0.637 1.555,-1.264 2.35,-1.855 0.396,-0.295 0.798,-0.581 1.201,-0.837 0.2,-0.128 0.403,-0.249 0.593,-0.343 0.092,-0.044 0.189,-0.089 0.256,-0.108 0.053,-0.037 0.14,0.019 -0.099,-0.048 l -0.366,-0.88 c -0.383,0.867 -1.006,1.775 -1.607,2.64 -0.613,0.873 -1.259,1.731 -1.914,2.583 -1.313,1.705 -2.671,3.382 -4.04,5.052 -2.741,3.338 -5.535,6.641 -8.322,9.952 -2.784,3.307 -5.58,6.636 -8.298,9.991 -1.386,1.675 -2.75,3.369 -4.059,5.122 -0.654,0.879 -1.296,1.765 -1.898,2.716 -0.3,0.487 -0.594,0.949 -0.849,1.588 -0.06,0.174 -0.13,0.342 -0.153,0.669 0.004,0.17 -0.016,0.451 0.26,0.807 0.301,0.36 0.745,0.399 0.898,0.385 0.397,-0.028 0.543,-0.117 0.723,-0.186 0.17,-0.073 0.311,-0.149 0.447,-0.226 1.042,-0.615 1.892,-1.319 2.733,-1.984 0.856,-0.667 1.711,-1.354 2.55,-2.044 1.68,-1.381 3.333,-2.788 4.975,-4.204 3.282,-2.835 6.522,-5.708 9.765,-8.572 3.243,-2.863 6.484,-5.726 9.764,-8.528 3.285,-2.776 6.593,-5.606 10.078,-7.941 l -0.08,0.048 C 38.43,0.919 38.761,0.812 38.662,0.84 38.658,0.838 38.563,0.849 38.518,0.834 38.426,0.822 38.3,0.788 38.161,0.696 37.824,0.455 37.754,0.148 37.755,0.029 37.759,-0.16 37.756,-0.029 37.723,0.034 37.578,0.421 37.258,0.971 36.946,1.463 36.303,2.475 35.573,3.481 34.836,4.478 33.353,6.47 31.799,8.433 30.234,10.387 L 20.731,22.07 c -3.164,3.89 -6.368,7.764 -9.511,11.702 -1.57,1.972 -3.128,3.957 -4.638,6.002 -0.753,1.027 -1.496,2.062 -2.204,3.164 -0.353,0.553 -0.698,1.116 -1.021,1.763 -0.159,0.335 -0.32,0.66 -0.447,1.186 -0.029,0.282 -0.191,0.577 0.098,1.343 0.082,0.187 0.21,0.374 0.4,0.546 0.183,0.173 0.364,0.256 0.57,0.341 0.155,0.051 0.324,0.085 0.465,0.098 0.114,0.006 0.228,0.006 0.342,0 0.143,-0.008 0.278,-0.04 0.403,-0.093 l 0.009,-0.005 c 1.515,-0.656 2.622,-1.455 3.792,-2.259 1.144,-0.809 2.244,-1.648 3.33,-2.5 2.171,-1.703 4.281,-3.454 6.377,-5.217 4.187,-3.531 8.306,-7.117 12.445,-10.668 l 6.225,-5.288 c 2.133,-1.786 4.141,-3.54 6.256,-5.261 2.095,-1.714 4.215,-3.404 6.379,-4.955 1.072,-0.761 2.199,-1.531 3.221,-2.041 0.237,-0.12 0.501,-0.21 0.54,-0.215 C 53.753,9.717 53.745,9.719 53.736,9.718 53.714,9.721 53.667,9.725 53.634,9.72 53.566,9.72 53.495,9.711 53.396,9.684 53.257,9.648 53.16,9.604 52.983,9.492 52.834,9.383 52.696,9.248 52.6,9.081 52.516,8.957 52.464,8.789 52.444,8.704 52.402,8.511 52.418,8.438 52.418,8.404 52.438,8.329 52.353,8.62 52.238,8.84 52.125,9.08 51.974,9.347 51.82,9.61 c -2.784,4.45 -6.143,8.811 -9.454,13.096 -3.342,4.293 -6.756,8.546 -10.161,12.815 -3.407,4.27 -6.814,8.548 -10.143,12.913 -1.664,2.183 -3.307,4.387 -4.901,6.648 -1.589,2.27 -3.148,4.561 -4.531,7.094 l -0.019,0.037 c -0.025,0.046 -0.048,0.098 -0.066,0.145 -0.18,0.499 -0.403,0.918 -0.465,1.877 -0.006,0.113 -0.005,0.247 0.017,0.424 0.018,0.158 0.038,0.314 0.116,0.545 0.035,0.105 0.075,0.208 0.119,0.308 0.058,0.117 0.132,0.24 0.21,0.352 0.15,0.227 0.367,0.429 0.604,0.598 0.233,0.162 0.448,0.246 0.689,0.33 0.184,0.05 0.379,0.086 0.558,0.104 0.142,0.007 0.286,0.008 0.428,0.003 l 0.335,-0.037 c 0.799,-0.14 1.231,-0.359 1.699,-0.563 0.447,-0.21 0.853,-0.428 1.24,-0.652 1.538,-0.895 2.904,-1.858 4.263,-2.838 2.701,-1.964 5.285,-4.009 7.855,-6.068 5.131,-4.136 10.151,-8.294 15.232,-12.465 5.055,-4.175 10.074,-8.372 15.172,-12.422 2.549,-2.02 5.118,-4.01 7.729,-5.867 1.304,-0.924 2.625,-1.818 3.941,-2.597 0.654,-0.387 1.317,-0.744 1.922,-1.007 0.298,-0.13 0.592,-0.236 0.787,-0.28 0.088,-0.022 0.171,-0.033 0.144,-0.027 -0.026,-0.003 -0.144,0.024 -0.468,-0.117 l -1.305,-2.466 c -0.093,0.528 -0.387,1.318 -0.732,2.065 -0.353,0.762 -0.765,1.541 -1.204,2.316 -0.882,1.551 -1.862,3.096 -2.878,4.626 -2.038,3.061 -4.213,6.075 -6.422,9.07 -4.427,5.991 -9.008,11.907 -13.559,17.862 l -6.801,8.977 -3.353,4.547 -3.314,4.542 c -2.223,3.086 -4.379,6.218 -6.335,9.609 -0.486,0.853 -0.959,1.724 -1.404,2.648 -0.441,0.937 -0.87,1.874 -1.198,3.098 -0.141,0.637 -0.344,1.284 -0.187,2.494 0.085,0.582 0.403,1.533 1.238,2.229 0.834,0.692 1.736,0.827 2.294,0.843 1.16,0.003 1.777,-0.25 2.393,-0.453 0.592,-0.22 1.095,-0.461 1.579,-0.708 0.965,-0.495 1.818,-1.026 2.658,-1.567 l 0.619,-0.409 0.527,-0.335 1.212,-0.776 c 1.613,-1.048 3.179,-2.125 4.732,-3.219 3.101,-2.19 6.125,-4.448 9.121,-6.729 5.987,-4.567 11.858,-9.232 17.74,-13.858 5.88,-4.623 11.758,-9.229 17.735,-13.633 2.989,-2.198 6.004,-4.347 9.064,-6.366 3.056,-2.006 6.179,-3.936 9.309,-5.391 l -0.34,0.134 c 0.397,-0.134 0.804,-0.195 0.803,-0.182 -0.009,-0.006 -0.189,0.026 -0.602,-0.185 -0.429,-0.198 -0.829,-0.763 -0.891,-1.022 -0.088,-0.271 -0.055,-0.31 -0.066,-0.245 -0.003,0.061 -0.021,0.209 -0.06,0.383 -0.076,0.358 -0.223,0.818 -0.399,1.287 -0.74,1.92 -1.875,4.002 -3.041,6.017 -2.373,4.057 -5.04,8.062 -7.744,12.037 C 88.436,67.14 82.731,75.033 77.216,83 c -5.555,7.917 -11.233,15.805 -16.654,23.956 -2.704,4.086 -5.36,8.218 -7.797,12.612 -1.211,2.212 -2.378,4.463 -3.353,7.02 -0.474,1.301 -0.934,2.637 -1.133,4.413 -0.073,0.895 -0.128,1.957 0.338,3.349 0.246,0.692 0.672,1.463 1.308,2.097 0.627,0.642 1.397,1.075 2.089,1.328 l 0.027,0.01 c 0.427,0.156 0.883,0.22 1.312,0.205 2.169,-0.09 3.841,-0.614 5.447,-1.157 1.593,-0.562 3.057,-1.218 4.485,-1.904 2.842,-1.383 5.501,-2.915 8.109,-4.496 5.198,-3.176 10.164,-6.559 15.078,-9.988 9.81,-6.867 19.375,-13.952 29.054,-20.776 2.419,-1.705 4.844,-3.394 7.28,-5.051 l 1.829,-1.238 0.917,-0.614 1.023,-0.727 3.595,-2.548 c 4.818,-3.36 9.717,-6.596 14.712,-9.544 2.496,-1.468 5.021,-2.866 7.555,-4.098 2.511,-1.216 5.136,-2.328 7.404,-2.834 0.552,-0.12 1.073,-0.193 1.456,-0.202 0.383,-0.022 0.613,0.066 0.441,0.011 -0.086,-0.029 -0.264,-0.128 -0.426,-0.288 -0.163,-0.154 -0.271,-0.351 -0.311,-0.44 -0.068,-0.21 0.009,0.01 -0.024,0.376 -0.041,0.762 -0.356,1.976 -0.787,3.155 l -0.345,0.907 -0.436,1.103 c -0.26,0.687 -0.502,1.29 -0.78,1.965 -2.172,5.247 -4.86,10.435 -7.686,15.558 -2.838,5.126 -5.85,10.198 -8.926,15.248 -6.161,10.098 -12.583,20.108 -18.915,30.218 -6.33,10.115 -12.612,20.309 -18.44,30.875 -2.908,5.288 -5.701,10.669 -8.234,16.247 -2.517,5.585 -4.828,11.341 -6.396,17.581 -0.052,0.205 -0.088,0.411 -0.11,0.615 l -0.004,0.048 c -0.135,1.379 -0.199,2.833 -0.003,4.458 0.202,1.606 0.652,3.456 1.828,5.255 1.142,1.808 3.07,3.259 4.882,3.939 1.827,0.714 3.516,0.901 5.031,0.935 3.032,0.027 5.58,-0.516 8.016,-1.142 2.423,-0.646 4.705,-1.437 6.925,-2.292 8.832,-3.469 16.882,-7.782 24.871,-12.159 7.962,-4.404 15.757,-8.981 23.532,-13.511 l 11.694,-6.784 11.657,-6.897 c 15.48,-9.194 30.86,-18.433 46.691,-26.343 7.907,-3.917 15.952,-7.538 24.062,-10.079 4.042,-1.252 8.117,-2.226 11.992,-2.567 3.861,-0.354 7.507,0.029 9.979,1.366 l -2.553,-2.636 c 2.245,4.727 2.398,11.196 1.585,17.611 -0.822,6.471 -2.527,13.069 -4.57,19.598 -4.142,13.083 -9.605,25.989 -15.304,38.803 -11.485,25.636 -24.189,50.97 -35.638,77.078 -2.864,6.529 -5.649,13.108 -8.307,19.762 l -1.968,5.005 -0.965,2.514 -0.476,1.261 -0.118,0.314 -0.059,0.158 c 0.046,-0.116 -0.147,0.37 0.095,-0.24 l -0.032,0.077 -0.265,0.607 c -1.444,3.329 -2.82,6.681 -4.129,10.067 -5.21,13.545 -9.456,27.549 -11.785,42.203 -1.132,7.329 -1.785,14.832 -1.432,22.54 0.187,3.853 0.623,7.756 1.481,11.682 0.859,3.92 2.134,7.875 4.062,11.685 1.918,3.801 4.53,7.453 7.832,10.48 3.285,3.04 7.205,5.393 11.264,6.944 4.067,1.562 8.242,2.382 12.308,2.73 4.073,0.343 8.057,0.226 11.935,-0.158 l -0.74,0.039 c 9.191,0.014 18.257,-0.782 27.181,-2.03 8.926,-1.254 17.717,-2.967 26.403,-4.94 17.373,-3.964 34.342,-8.934 51.145,-14.162 33.582,-10.517 66.56,-22.064 99.85,-32.157 33.257,-10.111 66.824,-18.914 100.823,-24.279 33.951,-5.363 68.406,-7.213 102.155,-3.227 l -0.931,-0.154 c 9.76,2.193 19.253,5.254 28.237,9.316 8.981,4.061 17.441,9.125 25.158,15.152 15.487,12.028 27.781,27.941 37.042,45.68 9.296,17.76 15.767,37.215 20.569,57.153 4.789,19.969 7.928,40.479 10.186,61.149 2.246,20.68 3.599,41.541 4.515,62.472 0.912,20.934 1.378,41.942 1.711,62.996 0.661,42.111 0.771,84.405 2.356,126.855 0.234,6.257 5.496,11.141 11.754,10.907 6.258,-0.234 11.141,-5.496 10.908,-11.754 -10e-4,-0.011 -0.004,-0.089 -0.004,-0.101 -1.935,-41.906 -2.417,-84.048 -3.449,-126.341 -0.52,-21.148 -1.175,-42.34 -2.284,-63.57 -1.117,-21.229 -2.679,-42.501 -5.176,-63.769 -2.514,-21.26 -5.942,-42.536 -11.182,-63.583 -5.263,-21.012 -12.341,-41.888 -22.805,-61.48 -5.235,-9.776 -11.339,-19.197 -18.446,-27.911 -7.097,-8.714 -15.213,-16.7 -24.2,-23.579 -8.979,-6.888 -18.811,-12.647 -29.101,-17.188 -10.294,-4.547 -21.026,-7.888 -31.875,-10.225 l -0.072,-0.015 c -0.283,-0.061 -0.576,-0.108 -0.858,-0.139 -35.86,-3.913 -71.931,-1.597 -106.982,4.253 -35.106,5.857 -69.318,15.178 -102.892,25.704 -33.592,10.51 -66.578,22.383 -99.684,33.067 -16.554,5.312 -33.151,10.321 -49.863,14.287 -16.69,3.923 -33.579,6.894 -50.22,7.041 l -0.089,10e-4 c -0.217,0.002 -0.439,0.016 -0.65,0.038 -6.297,0.69 -12.503,0.398 -17.61,-1.523 -5.113,-1.892 -8.997,-5.42 -11.574,-10.442 -2.592,-5.001 -3.835,-11.217 -4.191,-17.62 -0.356,-6.429 0.136,-13.099 1.108,-19.748 1.991,-13.325 5.851,-26.597 10.685,-39.478 1.214,-3.222 2.496,-6.425 3.84,-9.596 l 3.85,-10.098 c 2.533,-6.505 5.206,-12.977 7.969,-19.426 11.048,-25.816 23.499,-51.198 34.924,-77.3 5.673,-13.076 11.165,-26.313 15.449,-40.252 2.11,-6.981 3.932,-14.146 4.834,-21.726 0.438,-3.79 0.631,-7.697 0.315,-11.739 -0.332,-4.026 -1.194,-8.253 -3.142,-12.298 l -0.011,-0.024 c -0.563,-1.169 -1.472,-2.061 -2.542,-2.614 -2.759,-1.424 -5.663,-2.157 -8.418,-2.483 -2.767,-0.328 -5.423,-0.269 -7.972,-0.026 -5.1,0.506 -9.816,1.722 -14.358,3.164 -9.062,2.935 -17.452,6.837 -25.641,10.975 -16.332,8.344 -31.774,17.823 -47.178,27.151 l -11.535,6.962 -11.616,6.874 c -7.747,4.606 -15.446,9.216 -23.209,13.599 -7.753,4.347 -15.603,8.603 -23.524,11.784 -1.974,0.782 -3.949,1.478 -5.873,2.008 -1.908,0.527 -3.82,0.877 -5.301,0.864 -0.731,0 -1.311,-0.115 -1.586,-0.223 -0.287,-0.125 -0.234,-0.109 -0.317,-0.197 -0.076,-0.084 -0.242,-0.466 -0.321,-1.084 -0.086,-0.611 -0.079,-1.422 0,-2.283 l -0.114,0.663 c 1.283,-5.326 3.351,-10.694 5.68,-15.968 2.342,-5.281 4.987,-10.496 7.769,-15.66 5.579,-10.33 11.698,-20.466 17.907,-30.581 6.214,-10.117 12.559,-20.199 18.706,-30.475 3.07,-5.141 6.093,-10.331 8.973,-15.643 2.872,-5.32 5.632,-10.738 7.966,-16.51 0.283,-0.704 0.587,-1.485 0.847,-2.191 l 0.148,-0.4 0.229,-0.576 c 0.15,-0.388 0.298,-0.779 0.437,-1.183 0.549,-1.622 1.079,-3.297 1.219,-5.512 0.041,-1.113 0.028,-2.418 -0.609,-4.011 -0.316,-0.779 -0.837,-1.614 -1.526,-2.295 -0.687,-0.687 -1.507,-1.187 -2.278,-1.505 -1.557,-0.618 -2.846,-0.654 -3.943,-0.624 -1.104,0.048 -2.058,0.215 -2.958,0.416 -3.537,0.849 -6.391,2.178 -9.224,3.556 -2.806,1.394 -5.477,2.909 -8.096,4.479 -5.227,3.149 -10.235,6.524 -15.149,10.015 l -3.664,2.645 -0.789,0.575 -0.932,0.636 -1.856,1.28 c -2.469,1.711 -4.912,3.445 -7.342,5.19 -9.715,6.977 -19.217,14.145 -28.849,21.012 -4.815,3.425 -9.663,6.786 -14.596,9.858 -2.466,1.526 -4.959,2.986 -7.459,4.227 -1.247,0.614 -2.5,1.183 -3.712,1.62 -1.193,0.437 -2.417,0.751 -3.23,0.78 l 1.338,0.214 c 0.127,0.041 0.356,0.168 0.561,0.373 0.202,0.207 0.323,0.438 0.36,0.562 0.069,0.241 -0.007,0.061 0.033,-0.245 0.053,-0.641 0.326,-1.638 0.686,-2.609 0.731,-1.983 1.768,-4.066 2.87,-6.112 2.228,-4.107 4.779,-8.165 7.391,-12.185 5.249,-8.044 10.832,-15.947 16.346,-23.952 5.451,-8.025 11.04,-15.899 16.485,-24.018 2.711,-4.065 5.391,-8.158 7.877,-12.493 1.234,-2.192 2.439,-4.378 3.429,-6.991 0.241,-0.669 0.472,-1.363 0.645,-2.193 0.085,-0.418 0.156,-0.872 0.177,-1.417 0.015,-0.539 0.003,-1.194 -0.281,-2.039 -0.251,-0.835 -1.051,-1.909 -2.015,-2.394 -0.951,-0.501 -1.749,-0.556 -2.361,-0.566 -1.216,0.023 -1.998,0.275 -2.752,0.509 -0.107,0.033 -0.212,0.074 -0.31,0.12 l -0.03,0.014 c -3.648,1.742 -6.887,3.809 -10.072,5.933 -3.172,2.133 -6.237,4.36 -9.262,6.625 -6.042,4.534 -11.914,9.221 -17.766,13.905 -5.85,4.685 -11.667,9.389 -17.549,13.957 -2.942,2.282 -5.9,4.531 -8.898,6.687 -1.499,1.076 -3.01,2.134 -4.528,3.139 l -1.146,0.748 -1.202,0.795 c -0.729,0.481 -1.467,0.943 -2.166,1.307 -0.347,0.183 -0.69,0.346 -0.975,0.454 -0.26,0.114 -0.559,0.138 -0.338,0.129 0.095,0.006 0.514,0.027 0.987,0.414 0.471,0.395 0.595,0.887 0.608,1.01 0.02,0.278 -0.004,-0.016 0.081,-0.282 0.145,-0.59 0.469,-1.378 0.824,-2.133 0.36,-0.767 0.773,-1.547 1.207,-2.324 1.758,-3.115 3.822,-6.183 5.95,-9.188 l 3.267,-4.561 3.275,-4.524 6.687,-8.989 c 4.491,-5.984 9.029,-11.951 13.452,-18.045 2.208,-3.052 4.391,-6.131 6.476,-9.322 1.041,-1.598 2.056,-3.225 3.01,-4.938 0.475,-0.858 0.935,-1.739 1.36,-2.679 0.416,-0.958 0.827,-1.921 1.063,-3.242 l 10e-4,-0.006 c 0.186,-1.044 -0.379,-2.048 -1.306,-2.459 -0.701,-0.311 -1.238,-0.316 -1.67,-0.307 -0.437,0.018 -0.758,0.09 -1.067,0.163 -0.601,0.153 -1.074,0.345 -1.525,0.543 -0.892,0.398 -1.667,0.836 -2.419,1.286 -1.495,0.903 -2.879,1.863 -4.239,2.844 -2.71,1.963 -5.303,4.011 -7.87,6.081 -5.125,4.146 -10.122,8.398 -15.13,12.611 -5.01,4.186 -10.044,8.43 -15.077,12.56 -2.524,2.058 -5.063,4.101 -7.644,6.013 -1.287,0.949 -2.599,1.88 -3.886,2.644 -0.321,0.189 -0.637,0.359 -0.93,0.501 -0.272,0.137 -0.602,0.248 -0.612,0.243 -0.01,0.041 0.144,-0.131 0.82,0.249 0.161,0.102 0.288,0.249 0.39,0.381 0.051,0.07 0.095,0.151 0.127,0.225 0.028,0.05 0.052,0.105 0.07,0.162 0.037,0.136 0.047,0.189 0.055,0.246 l 0.006,0.117 c -0.026,0.137 0.046,-0.226 0.163,-0.485 l -0.085,0.181 c 1.211,-2.272 2.704,-4.522 4.227,-6.734 1.532,-2.215 3.132,-4.402 4.758,-6.576 3.256,-4.346 6.613,-8.639 9.978,-12.934 3.367,-4.295 6.75,-8.586 10.077,-12.938 3.318,-4.383 6.613,-8.705 9.582,-13.542 0.187,-0.327 0.37,-0.657 0.547,-1.034 C 55.44,9.871 55.632,9.527 55.742,8.773 55.761,8.571 55.78,8.325 55.703,7.965 55.668,7.797 55.577,7.549 55.457,7.35 55.309,7.115 55.123,6.907 54.897,6.757 54.656,6.587 54.472,6.525 54.255,6.458 54.074,6.412 53.916,6.395 53.764,6.386 53.646,6.384 53.513,6.388 53.407,6.397 l -0.28,0.042 c -0.628,0.14 -0.997,0.326 -1.371,0.504 -1.414,0.729 -2.528,1.535 -3.677,2.357 -2.26,1.649 -4.394,3.385 -6.509,5.144 -2.106,1.744 -4.194,3.599 -6.233,5.335 l -6.21,5.369 c -4.115,3.596 -8.2,7.215 -12.33,10.758 -2.066,1.77 -4.142,3.524 -6.252,5.209 -1.054,0.842 -2.119,1.667 -3.196,2.444 -1.062,0.758 -2.206,1.542 -3.2,1.974 l 0.412,-0.097 c 0.035,-0.006 0.071,-0.006 0.106,10e-4 0.064,0.002 0.156,0.018 0.235,0.051 0.14,0.043 0.236,0.112 0.37,0.219 0.129,0.121 0.211,0.246 0.265,0.357 0.162,0.475 0.055,0.44 0.088,0.42 0.016,-0.088 0.111,-0.34 0.225,-0.57 0.232,-0.478 0.537,-0.994 0.855,-1.5 0.641,-1.018 1.352,-2.031 2.076,-3.035 1.455,-2.008 2.982,-3.989 4.524,-5.96 3.088,-3.94 6.252,-7.836 9.392,-11.766 l 9.411,-11.777 c 1.557,-1.98 3.104,-3.97 4.602,-6.02 0.748,-1.028 1.485,-2.062 2.18,-3.175 0.346,-0.575 0.686,-1.105 0.983,-1.895 0.065,-0.232 0.164,-0.407 0.15,-0.913 -0.026,-0.178 -0.025,-0.281 -0.13,-0.51 -0.092,-0.21 -0.249,-0.407 -0.479,-0.561 -0.202,-0.136 -0.41,-0.189 -0.576,-0.216 -0.122,-0.015 -0.297,-0.02 -0.379,-0.007 -0.724,0.113 -0.96,0.311 -1.312,0.477 l -0.06,0.034 -0.02,0.014 c -3.686,2.521 -6.939,5.372 -10.237,8.204 -3.276,2.848 -6.497,5.744 -9.716,8.636 -3.219,2.894 -6.43,5.791 -9.673,8.642 -1.623,1.425 -3.253,2.838 -4.903,4.219 -0.828,0.691 -1.653,1.367 -2.497,2.037 -0.846,0.687 -1.674,1.365 -2.494,1.856 -0.099,0.058 -0.196,0.11 -0.275,0.145 -0.065,0.038 -0.177,0.053 -0.052,0.037 0.021,-0.003 0.318,-0.001 0.53,0.256 0.19,0.25 0.156,0.386 0.161,0.424 -0.007,0.055 0.006,-0.038 0.039,-0.118 0.139,-0.369 0.409,-0.838 0.676,-1.27 0.548,-0.883 1.167,-1.756 1.797,-2.618 1.266,-1.726 2.602,-3.416 3.96,-5.087 2.7,-3.393 5.443,-6.716 8.203,-10.054 2.757,-3.335 5.524,-6.665 8.247,-10.039 1.359,-1.688 2.709,-3.387 4.023,-5.122 0.655,-0.869 1.303,-1.745 1.927,-2.648 0.617,-0.918 1.237,-1.8 1.725,-2.917 l 0.019,-0.044 C 28.664,-6.67 28.521,-7.033 28.208,-7.17 l -0.065,-0.024 c -0.484,-0.149 -0.657,-0.023 -0.84,0.013 -0.174,0.057 -0.305,0.122 -0.44,0.188 -0.261,0.132 -0.489,0.273 -0.714,0.418 -0.446,0.29 -0.863,0.594 -1.274,0.904 -0.818,0.62 -1.605,1.265 -2.384,1.916 C 20.936,-2.45 19.418,-1.113 17.91,0.232 14.896,2.927 11.925,5.66 8.945,8.38 l -8.962,8.133 c -1.501,1.344 -3.007,2.682 -4.541,3.979 -0.768,0.647 -1.542,1.287 -2.334,1.882 -0.394,0.293 -0.803,0.589 -1.193,0.799 -0.093,0.051 -0.196,0.095 -0.239,0.104 -0.02,0.015 -0.02,-0.025 0.139,0.038 0.188,0.094 0.187,0.325 0.183,0.278 -0.003,-0.035 0.109,-0.314 0.218,-0.497 l -0.018,0.029 c 1.953,-2.927 4.223,-5.69 6.459,-8.453 C 0.91,11.917 3.201,9.188 5.493,6.46 l 6.857,-8.206 c 2.257,-2.768 4.531,-5.497 6.584,-8.465 0.122,-0.196 0.241,-0.392 0.341,-0.628 0.025,-0.062 0.049,-0.125 0.066,-0.206 0.006,-0.081 0.063,-0.179 -0.062,-0.384 -0.18,-0.198 -0.344,-0.14 -0.418,-0.136 -0.091,0.015 -0.153,0.041 -0.215,0.066 -0.466,0.211 -0.813,0.478 -1.186,0.742 -0.726,0.536 -1.417,1.105 -2.102,1.679 -1.366,1.152 -2.698,2.339 -4.02,3.536 L 3.471,1.7 -4.37,8.966 c -1.314,1.202 -2.634,2.397 -3.976,3.567 -1.35,1.154 -2.686,2.355 -4.177,3.298 l 0.018,-0.008 c -0.043,0.012 -0.093,0.023 -0.11,0.016 -0.011,-0.004 -0.005,0.009 -0.011,-0.032 0.006,-0.079 0.044,-0.181 0.087,-0.273 0.086,-0.188 0.197,-0.372 0.31,-0.553 0.228,-0.36 0.476,-0.71 0.729,-1.057 0.505,-0.694 1.035,-1.372 1.568,-2.045 1.071,-1.347 2.167,-2.672 3.27,-3.993 z"
             style="fill:#ed1c24;fill-opacity:1;fill-rule:nonzero;stroke:none"
             id="path28"
             inkscape:connector-curvature="0" /></g><g
           id="g30"
           transform="translate(116.2036,40.6064)"><path
             d="M 0,0 C 0.382,-0.2 0.771,-0.39 1.165,-0.57 0.937,-1.149 0.726,-1.737 0.542,-2.338 0.398,-1.544 0.217,-0.765 0,0 m 48.519,-9.54 c 0,9.632 -5.558,17.964 -13.639,21.976 0.656,2.076 1.012,4.285 1.012,6.577 0,0.441 -0.017,0.879 -0.043,1.314 0.026,0.466 0.043,0.936 0.043,1.408 0,10.519 -6.627,19.491 -15.933,22.974 0.04,0.538 0.067,1.081 0.067,1.63 0,0.441 -0.017,0.879 -0.043,1.314 0.026,0.466 0.043,0.936 0.043,1.409 0,13.542 -10.981,24.525 -24.527,24.525 -0.52,0 -1.035,-0.022 -1.547,-0.054 -0.755,12.863 -11.424,23.068 -24.48,23.068 -0.718,0 -1.426,-0.038 -2.127,-0.098 -2.479,10.92 -12.24,19.078 -23.912,19.078 -3.439,0 -6.711,-0.711 -9.682,-1.988 -4.43,7.187 -12.45,11.898 -21.5,11.674 -13.542,-0.336 -24.247,-11.588 -23.912,-25.126 0.192,-7.703 3.915,-14.484 9.581,-18.84 -0.345,-1.639 -0.53,-3.337 -0.53,-5.078 0,-0.847 0.043,-1.684 0.127,-2.509 -8.126,-3.996 -13.721,-12.354 -13.721,-22.018 0,-13.549 10.981,-24.527 24.528,-24.527 0,-7.042 2.971,-13.384 7.722,-17.856 -3.136,-4.122 -5.002,-9.261 -5.002,-14.837 0,-13.549 10.981,-24.528 24.528,-24.528 0.472,0 0.941,0.017 1.407,0.043 0.435,-0.026 0.872,-0.043 1.313,-0.043 7.436,0 13.999,3.724 17.935,9.406 4.425,-6.402 11.814,-10.598 20.185,-10.598 0.473,0 0.941,0.016 1.407,0.043 0.435,-0.026 0.872,-0.043 1.313,-0.043 10.023,0 18.461,6.764 21.012,15.973 2.582,-10.782 12.275,-18.796 23.848,-18.796 0.472,0 0.941,0.016 1.406,0.043 0.435,-0.027 0.873,-0.043 1.314,-0.043 12.044,0 21.807,9.762 21.807,21.804 0,0.442 -0.017,0.879 -0.043,1.315 0.026,0.466 0.043,0.935 0.043,1.408"
             style="fill:#ffffff;fill-opacity:1;fill-rule:nonzero;stroke:none"
             id="path32"
             inkscape:connector-curvature="0" /></g><g
           id="g34"
           transform="translate(116.2036,40.6064)"><path
             d="M 0,0 C 0.382,-0.2 0.771,-0.39 1.165,-0.57 0.937,-1.149 0.726,-1.737 0.542,-2.338 0.398,-1.544 0.217,-0.765 0,0 Z m 48.519,-9.54 c 0,9.632 -5.558,17.964 -13.639,21.976 0.656,2.076 1.012,4.285 1.012,6.577 0,0.441 -0.017,0.879 -0.043,1.314 0.026,0.466 0.043,0.936 0.043,1.408 0,10.519 -6.627,19.491 -15.933,22.974 0.04,0.538 0.067,1.081 0.067,1.63 0,0.441 -0.017,0.879 -0.043,1.314 0.026,0.466 0.043,0.936 0.043,1.409 0,13.542 -10.981,24.525 -24.527,24.525 -0.52,0 -1.035,-0.022 -1.547,-0.054 -0.755,12.863 -11.424,23.068 -24.48,23.068 -0.718,0 -1.426,-0.038 -2.127,-0.098 -2.479,10.92 -12.24,19.078 -23.912,19.078 -3.439,0 -6.711,-0.711 -9.682,-1.988 -4.43,7.187 -12.45,11.898 -21.5,11.674 -13.542,-0.336 -24.247,-11.588 -23.912,-25.126 0.192,-7.703 3.915,-14.484 9.581,-18.84 -0.345,-1.639 -0.53,-3.337 -0.53,-5.078 0,-0.847 0.043,-1.684 0.127,-2.509 -8.126,-3.996 -13.721,-12.354 -13.721,-22.018 0,-13.549 10.981,-24.527 24.528,-24.527 0,-7.042 2.971,-13.384 7.722,-17.856 -3.136,-4.122 -5.002,-9.261 -5.002,-14.837 0,-13.549 10.981,-24.528 24.528,-24.528 0.472,0 0.941,0.017 1.407,0.043 0.435,-0.026 0.872,-0.043 1.313,-0.043 7.436,0 13.999,3.724 17.935,9.406 4.425,-6.402 11.814,-10.598 20.185,-10.598 0.473,0 0.941,0.016 1.407,0.043 0.435,-0.026 0.872,-0.043 1.313,-0.043 10.023,0 18.461,6.764 21.012,15.973 2.582,-10.782 12.275,-18.796 23.848,-18.796 0.472,0 0.941,0.016 1.406,0.043 0.435,-0.027 0.873,-0.043 1.314,-0.043 12.044,0 21.807,9.762 21.807,21.804 0,0.442 -0.017,0.879 -0.043,1.315 0.026,0.466 0.043,0.935 0.043,1.408 z"
             style="fill:none;stroke:#ffffff;stroke-width:8.50399971;stroke-linecap:butt;stroke-linejoin:miter;stroke-miterlimit:10;stroke-dasharray:none;stroke-opacity:1"
             id="path36"
             inkscape:connector-curvature="0" /></g><g
           id="g38"
           transform="translate(53.583,141.9639)"><path
             d="m 0,0 c 0.336,-13.545 -10.37,-24.792 -23.912,-25.128 -13.542,-0.336 -24.792,10.366 -25.128,23.911 -0.335,13.538 10.37,24.79 23.912,25.126 C -11.586,24.245 -0.336,13.538 0,0"
             style="fill:#ed1c24;fill-opacity:1;fill-rule:nonzero;stroke:none"
             id="path40"
             inkscape:connector-curvature="0" /></g><g
           id="g42"
           transform="translate(53.6504,139.2422)"><path
             d="m 0,0 c 0.298,-12.038 -9.219,-22.04 -21.26,-22.339 -12.039,-0.299 -22.042,9.219 -22.341,21.257 -0.298,12.039 9.22,22.039 21.26,22.338 C -10.301,21.555 -0.299,12.039 0,0"
             style="fill:#ffffff;fill-opacity:1;fill-rule:nonzero;stroke:none"
             id="path44"
             inkscape:connector-curvature="0" /></g><g
           id="g46"
           transform="translate(84.1636,131.6621)"><path
             d="m 0,0 c 0,-13.549 -10.981,-24.527 -24.527,-24.527 -13.547,0 -24.528,10.978 -24.528,24.527 0,13.542 10.981,24.525 24.528,24.525 C -10.981,24.525 0,13.542 0,0"
             style="fill:#ed1c24;fill-opacity:1;fill-rule:nonzero;stroke:none"
             id="path48"
             inkscape:connector-curvature="0" /></g><g
           id="g50"
           transform="translate(84.1636,128.9395)"><path
             d="m 0,0 c 0,-12.042 -9.763,-21.805 -21.807,-21.805 -12.044,0 -21.807,9.763 -21.807,21.805 0,12.043 9.763,21.804 21.807,21.804 C -9.763,21.804 0,12.043 0,0"
             style="fill:#ffffff;fill-opacity:1;fill-rule:nonzero;stroke:none"
             id="path52"
             inkscape:connector-curvature="0" /></g><g
           id="g54"
           transform="translate(110.2026,112.6816)"><path
             d="m 0,0 c 0,-13.549 -10.981,-24.527 -24.527,-24.527 -13.547,0 -24.528,10.978 -24.528,24.527 0,13.542 10.981,24.525 24.528,24.525 C -10.981,24.525 0,13.542 0,0"
             style="fill:#ed1c24;fill-opacity:1;fill-rule:nonzero;stroke:none"
             id="path56"
             inkscape:connector-curvature="0" /></g><g
           id="g58"
           transform="translate(110.2026,109.959)"><path
             d="m 0,0 c 0,-12.042 -9.763,-21.805 -21.807,-21.805 -12.044,0 -21.807,9.763 -21.807,21.805 0,12.043 9.763,21.804 21.807,21.804 C -9.763,21.804 0,12.043 0,0"
             style="fill:#ffffff;fill-opacity:1;fill-rule:nonzero;stroke:none"
             id="path60"
             inkscape:connector-curvature="0" /></g><g
           id="g62"
           transform="translate(49.0547,92.3027)"><path
             d="m 0,0 c 0,-13.549 -10.981,-24.527 -24.527,-24.527 -13.547,0 -24.528,10.978 -24.528,24.527 0,13.542 10.981,24.525 24.528,24.525 C -10.981,24.525 0,13.542 0,0"
             style="fill:#ed1c24;fill-opacity:1;fill-rule:nonzero;stroke:none"
             id="path64"
             inkscape:connector-curvature="0" /></g><g
           id="g66"
           transform="translate(49.0547,89.5801)"><path
             d="m 0,0 c 0,-12.042 -9.763,-21.805 -21.807,-21.805 -12.044,0 -21.807,9.763 -21.807,21.805 0,12.043 9.763,21.804 21.807,21.804 C -9.763,21.804 0,12.043 0,0"
             style="fill:#ffffff;fill-opacity:1;fill-rule:nonzero;stroke:none"
             id="path68"
             inkscape:connector-curvature="0" /></g><g
           id="g70"
           transform="translate(136.2295,89.668)"><path
             d="m 0,0 c 0,-13.549 -10.981,-24.527 -24.527,-24.527 -13.547,0 -24.528,10.978 -24.528,24.527 0,13.542 10.981,24.525 24.528,24.525 C -10.981,24.525 0,13.542 0,0"
             style="fill:#ed1c24;fill-opacity:1;fill-rule:nonzero;stroke:none"
             id="path72"
             inkscape:connector-curvature="0" /></g><g
           id="g74"
           transform="translate(136.2295,86.9453)"><path
             d="m 0,0 c 0,-12.042 -9.763,-21.805 -21.807,-21.805 -12.044,0 -21.807,9.763 -21.807,21.805 0,12.043 9.763,21.804 21.807,21.804 C -9.763,21.804 0,12.043 0,0"
             style="fill:#ffffff;fill-opacity:1;fill-rule:nonzero;stroke:none"
             id="path76"
             inkscape:connector-curvature="0" /></g><g
           id="g78"
           transform="translate(62.3564,108.75)"><path
             d="m 0,0 c 0,-13.549 -10.981,-24.527 -24.527,-24.527 -13.547,0 -24.528,10.978 -24.528,24.527 0,13.542 10.981,24.525 24.528,24.525 C -10.981,24.525 0,13.542 0,0"
             style="fill:#ed1c24;fill-opacity:1;fill-rule:nonzero;stroke:none"
             id="path80"
             inkscape:connector-curvature="0" /></g><g
           id="g82"
           transform="translate(62.3564,106.0273)"><path
             d="m 0,0 c 0,-12.042 -9.763,-21.805 -21.807,-21.805 -12.044,0 -21.807,9.763 -21.807,21.805 0,12.043 9.763,21.804 21.807,21.804 C -9.763,21.804 0,12.043 0,0"
             style="fill:#ffffff;fill-opacity:1;fill-rule:nonzero;stroke:none"
             id="path84"
             inkscape:connector-curvature="0" /></g><g
           id="g86"
           transform="translate(152.0952,62.3418)"><path
             d="m 0,0 c 0,-13.549 -10.981,-24.527 -24.527,-24.527 -13.547,0 -24.528,10.978 -24.528,24.527 0,13.542 10.981,24.525 24.528,24.525 C -10.981,24.525 0,13.542 0,0"
             style="fill:#ed1c24;fill-opacity:1;fill-rule:nonzero;stroke:none"
             id="path88"
             inkscape:connector-curvature="0" /></g><g
           id="g90"
           transform="translate(152.0952,59.6191)"><path
             d="m 0,0 c 0,-12.042 -9.763,-21.805 -21.807,-21.805 -12.044,0 -21.807,9.763 -21.807,21.805 0,12.043 9.763,21.804 21.807,21.804 C -9.763,21.804 0,12.043 0,0"
             style="fill:#ffffff;fill-opacity:1;fill-rule:nonzero;stroke:none"
             id="path92"
             inkscape:connector-curvature="0" /></g><g
           id="g94"
           transform="translate(93.2217,88.1553)"><path
             d="m 0,0 c 0,-13.549 -10.981,-24.527 -24.527,-24.527 -13.547,0 -24.528,10.978 -24.528,24.527 0,13.542 10.981,24.525 24.528,24.525 C -10.981,24.525 0,13.542 0,0"
             style="fill:#ed1c24;fill-opacity:1;fill-rule:nonzero;stroke:none"
             id="path96"
             inkscape:connector-curvature="0" /></g><g
           id="g98"
           transform="translate(93.2217,85.4326)"><path
             d="m 0,0 c 0,-12.042 -9.763,-21.805 -21.807,-21.805 -12.044,0 -21.807,9.763 -21.807,21.805 0,12.043 9.763,21.804 21.807,21.804 C -9.763,21.804 0,12.043 0,0"
             style="fill:#ffffff;fill-opacity:1;fill-rule:nonzero;stroke:none"
             id="path100"
             inkscape:connector-curvature="0" /></g><g
           id="g102"
           transform="translate(112.9233,63.6289)"><path
             d="m 0,0 c 0,-13.549 -10.981,-24.527 -24.527,-24.527 -13.547,0 -24.528,10.978 -24.528,24.527 0,13.542 10.981,24.525 24.528,24.525 C -10.981,24.525 0,13.542 0,0"
             style="fill:#ed1c24;fill-opacity:1;fill-rule:nonzero;stroke:none"
             id="path104"
             inkscape:connector-curvature="0" /></g><g
           id="g106"
           transform="translate(112.9233,60.9063)"><path
             d="m 0,0 c 0,-12.042 -9.763,-21.805 -21.807,-21.805 -12.044,0 -21.807,9.763 -21.807,21.805 0,12.043 9.763,21.804 21.807,21.804 C -9.763,21.804 0,12.043 0,0"
             style="fill:#ffffff;fill-opacity:1;fill-rule:nonzero;stroke:none"
             id="path108"
             inkscape:connector-curvature="0" /></g><g
           id="g110"
           transform="translate(71.415,65.1416)"><path
             d="m 0,0 c 0,-13.549 -10.981,-24.527 -24.527,-24.527 -13.547,0 -24.528,10.978 -24.528,24.527 0,13.542 10.981,24.525 24.528,24.525 C -10.981,24.525 0,13.542 0,0"
             style="fill:#ed1c24;fill-opacity:1;fill-rule:nonzero;stroke:none"
             id="path112"
             inkscape:connector-curvature="0" /></g><g
           id="g114"
           transform="translate(71.415,62.4189)"><path
             d="m 0,0 c 0,-12.042 -9.763,-21.805 -21.807,-21.805 -12.044,0 -21.807,9.763 -21.807,21.805 0,12.043 9.763,21.804 21.807,21.804 C -9.763,21.804 0,12.043 0,0"
             style="fill:#ffffff;fill-opacity:1;fill-rule:nonzero;stroke:none"
             id="path116"
             inkscape:connector-curvature="0" /></g><g
           id="g118"
           transform="translate(164.7227,31.0664)"><path
             d="m 0,0 c 0,-13.549 -10.981,-24.527 -24.527,-24.527 -13.547,0 -24.528,10.978 -24.528,24.527 0,13.542 10.981,24.525 24.528,24.525 C -10.981,24.525 0,13.542 0,0"
             style="fill:#ed1c24;fill-opacity:1;fill-rule:nonzero;stroke:none"
             id="path120"
             inkscape:connector-curvature="0" /></g><g
           id="g122"
           transform="translate(164.7227,28.3438)"><path
             d="m 0,0 c 0,-12.042 -9.763,-21.805 -21.807,-21.805 -12.044,0 -21.807,9.763 -21.807,21.805 0,12.043 9.763,21.804 21.807,21.804 C -9.763,21.804 0,12.043 0,0"
             style="fill:#ffffff;fill-opacity:1;fill-rule:nonzero;stroke:none"
             id="path124"
             inkscape:connector-curvature="0" /></g><g
           id="g126"
           transform="translate(122.584,33.8896)"><path
             d="m 0,0 c 0,-13.549 -10.981,-24.527 -24.527,-24.527 -13.547,0 -24.528,10.978 -24.528,24.527 0,13.542 10.981,24.525 24.528,24.525 C -10.981,24.525 0,13.542 0,0"
             style="fill:#ed1c24;fill-opacity:1;fill-rule:nonzero;stroke:none"
             id="path128"
             inkscape:connector-curvature="0" /></g><g
           id="g130"
           transform="translate(122.584,31.167)"><path
             d="m 0,0 c 0,-12.042 -9.763,-21.805 -21.807,-21.805 -12.044,0 -21.807,9.763 -21.807,21.805 0,12.043 9.763,21.804 21.807,21.804 C -9.763,21.804 0,12.043 0,0"
             style="fill:#ffffff;fill-opacity:1;fill-rule:nonzero;stroke:none"
             id="path132"
             inkscape:connector-curvature="0" /></g><g
           id="g134"
           transform="translate(86.8838,35.082)"><path
             d="m 0,0 c 0,-13.549 -10.981,-24.527 -24.527,-24.527 -13.547,0 -24.528,10.978 -24.528,24.527 0,13.542 10.981,24.525 24.528,24.525 C -10.981,24.525 0,13.542 0,0"
             style="fill:#ed1c24;fill-opacity:1;fill-rule:nonzero;stroke:none"
             id="path136"
             inkscape:connector-curvature="0" /></g><g
           id="g138"
           transform="translate(86.8838,32.3594)"><path
             d="m 0,0 c 0,-12.042 -9.763,-21.805 -21.807,-21.805 -12.044,0 -21.807,9.763 -21.807,21.805 0,12.043 9.763,21.804 21.807,21.804 C -9.763,21.804 0,12.043 0,0"
             style="fill:#ffffff;fill-opacity:1;fill-rule:nonzero;stroke:none"
             id="path140"
             inkscape:connector-curvature="0" /></g><path
           d="m 271.778,35.081 h -238 v 238 h 238 z M -58.055,-71.283 H 428.612 V 386.748 H -58.055 Z"
           style="fill:#ffffff;fill-opacity:1;fill-rule:nonzero;stroke:none"
           id="path142"
           inkscape:connector-curvature="0" /><g
           id="g144"
           transform="translate(246.8232,304.2622)"><path
             d="m 0,0 h -188.09 c -30.954,0 -56.136,-25.182 -56.136,-56.136 v -188.091 c 0,-30.953 25.183,-56.135 56.136,-56.135 H 0 c 30.954,0 56.136,25.182 56.136,56.135 V -56.135 C 56.136,-25.182 30.954,0 0,0 m 0,-31.181 c 13.783,0 24.955,-11.172 24.955,-24.954 v -188.092 c 0,-13.782 -11.173,-24.954 -24.955,-24.954 h -188.09 c -13.782,0 -24.955,11.172 -24.955,24.954 v 188.091 c 0,13.782 11.172,24.955 24.955,24.955 H 0"
             style="fill:#ffffff;fill-opacity:1;fill-rule:nonzero;stroke:none"
             id="path146"
             inkscape:connector-curvature="0" /></g><g
           id="g148"
           transform="translate(246.8232,281.585)"><path
             d="m 0,0 h -188.09 c -18.45,0 -33.459,-15.009 -33.459,-33.458 V -221.55 c 0,-18.449 15.01,-33.458 33.459,-33.458 H 0 c 18.449,0 33.459,15.009 33.459,33.458 V -33.458 C 33.459,-15.009 18.449,0 0,0 m 0,-8.504 c 13.783,0 24.955,-11.172 24.955,-24.954 V -221.55 c 0,-13.782 -11.173,-24.954 -24.955,-24.954 h -188.09 c -13.782,0 -24.955,11.172 -24.955,24.954 v 188.092 c 0,13.782 11.172,24.954 24.955,24.954 H 0"
             style="fill:#ed1c24;fill-opacity:1;fill-rule:nonzero;stroke:none"
             id="path150"
             inkscape:connector-curvature="0" /></g><g
           id="g152"
           transform="translate(246.8232,273.0811)"><path
             d="m 0,0 h -188.09 c -13.783,0 -24.955,-11.172 -24.955,-24.955 v -188.091 c 0,-13.782 11.173,-24.954 24.955,-24.954 H 0 c 13.782,0 24.955,11.172 24.955,24.954 V -24.954 C 24.955,-11.172 13.783,0 0,0 Z"
             style="fill:none;stroke:#ffffff;stroke-width:4.25199986;stroke-linecap:butt;stroke-linejoin:miter;stroke-miterlimit:10;stroke-dasharray:none;stroke-opacity:1"
             id="path154"
             inkscape:connector-curvature="0" /></g></g></g><text
       transform="matrix(1,0,0,-1,300.7734,181.5967)"
       style="font-variant:normal;font-weight:normal;font-stretch:normal;font-size:98.93650055px;font-family:'Myriad Pro';-inkscape-font-specification:MyriadPro-Regular;writing-mode:lr-tb;fill:#231f20;fill-opacity:1;fill-rule:nonzero;stroke:none"
       id="text160"><tspan
         x="0 66.287453 127.82596 175.1176"
         y="0"
         sodipodi:role="line"
         id="tspan156">ODTÜ</tspan><tspan
         x="0 52.733154 74.004501 153.35158 197.67513 243.48273 258.52109 298.78824 351.22458 405.63965 427.10886 479.7431 501.21231 553.8465 607.27222"
         y="117.04188"
         sodipodi:role="line"
         id="tspan158">Kimya Topluluğu</tspan></text>
<text
       transform="matrix(1,0,0,-1,169.4541,44.8496)"
       style="font-variant:normal;font-weight:normal;font-stretch:semi-condensed;font-size:64.5821991px;font-family:'Compacta ICG Black';-inkscape-font-specification:CompactaICGBlackItalic;writing-mode:lr-tb;fill:#ffffff;fill-opacity:1;fill-rule:nonzero;stroke:none"
       id="text164"><tspan
         x="0 45.917946"
         y="0"
         sodipodi:role="line"
         id="tspan162">KT</tspan></text>
</g></svg>