<?xml version="1.0" encoding="UTF-8" standalone="no"?>
<!-- Created with Inkscape (http://www.inkscape.org/) -->

<svg
   xmlns:dc="http://purl.org/dc/elements/1.1/"
   xmlns:cc="http://creativecommons.org/ns#"
   xmlns:rdf="http://www.w3.org/1999/02/22-rdf-syntax-ns#"
   xmlns:svg="http://www.w3.org/2000/svg"
   xmlns="http://www.w3.org/2000/svg"
   xmlns:sodipodi="http://sodipodi.sourceforge.net/DTD/sodipodi-0.dtd"
   xmlns:inkscape="http://www.inkscape.org/namespaces/inkscape"
   version="1.1"
   id="svg2"
   xml:space="preserve"
   width="793.70667"
   height="1122.52"
   viewBox="0 0 793.70667 1122.52"
   sodipodi:docname="arniti.svg"
   inkscape:version="0.92.2 5c3e80d, 2017-08-06"><metadata
     id="metadata8"><rdf:RDF><cc:Work
         rdf:about=""><dc:format>image/svg+xml</dc:format><dc:type
           rdf:resource="http://purl.org/dc/dcmitype/StillImage" /><dc:title></dc:title></cc:Work></rdf:RDF></metadata><defs
     id="defs6"><clipPath
       clipPathUnits="userSpaceOnUse"
       id="clipPath24"><path
         d="M 0,841.89 H 595.28 V 0 H 0 Z"
         id="path22"
         inkscape:connector-curvature="0" /></clipPath></defs><sodipodi:namedview
     pagecolor="#ffffff"
     bordercolor="#666666"
     borderopacity="1"
     objecttolerance="10"
     gridtolerance="10"
     guidetolerance="10"
     inkscape:pageopacity="0"
     inkscape:pageshadow="2"
     inkscape:window-width="1920"
     inkscape:window-height="1036"
     id="namedview4"
     showgrid="false"
     inkscape:zoom="0.84096496"
     inkscape:cx="462.11638"
     inkscape:cy="645.55325"
     inkscape:window-x="0"
     inkscape:window-y="20"
     inkscape:window-maximized="0"
     inkscape:current-layer="g10" /><g
     id="g10"
     inkscape:groupmode="layer"
     inkscape:label="arniti"
     transform="matrix(1.3333333,0,0,-1.3333333,0,1122.52)"><path
       d="M 336.749,420.945 H 256.12 v 80.629 h 80.629 z"
       style="fill:#e82c2e;fill-opacity:1;fill-rule:nonzero;stroke:none"
       id="path12"
       inkscape:connector-curvature="0" /><g
       id="g14"
       transform="translate(268.2275,434.8604)"><path
         d="M 0,0 H 4.16 L 2.131,6.419 H 2.08 Z M -0.309,11.503 H 4.545 L 11.4,-6.83 H 6.42 L 5.289,-3.543 H -1.104 L -2.26,-6.83 h -4.904 z"
         style="fill:#ffffff;fill-opacity:1;fill-rule:nonzero;stroke:none"
         id="path16"
         inkscape:connector-curvature="0" /></g><g
       id="g18"><g
         id="g20"
         clip-path="url(#clipPath24)"><g
           id="g26"
           transform="translate(280.9893,441.3569)"><path
             d="m 0,0 h 4.236 v -2.337 h 0.051 c 0.326,0.856 0.838,1.502 1.541,1.939 0.701,0.436 1.524,0.655 2.465,0.655 0.17,0 0.342,-0.009 0.514,-0.026 C 8.977,0.214 9.148,0.188 9.32,0.154 v -3.98 C 9.029,-3.74 8.75,-3.677 8.484,-3.633 8.221,-3.591 7.941,-3.569 7.65,-3.569 7.104,-3.569 6.627,-3.655 6.227,-3.826 5.824,-3.997 5.48,-4.229 5.199,-4.519 4.916,-4.811 4.707,-5.148 4.57,-5.534 4.432,-5.919 4.365,-6.316 4.365,-6.728 v -6.598 H 0 Z"
             style="fill:#ffffff;fill-opacity:1;fill-rule:nonzero;stroke:none"
             id="path28"
             inkscape:connector-curvature="0" /></g><g
           id="g30"
           transform="translate(291.7725,441.3569)"><path
             d="m 0,0 h 4.236 v -1.823 h 0.051 c 0.207,0.342 0.463,0.65 0.772,0.924 0.308,0.274 0.65,0.504 1.027,0.693 0.375,0.188 0.769,0.334 1.18,0.437 0.412,0.102 0.814,0.154 1.207,0.154 1.113,0 1.99,-0.18 2.632,-0.539 0.643,-0.36 1.122,-0.801 1.438,-1.323 0.316,-0.522 0.518,-1.083 0.603,-1.681 0.086,-0.6 0.129,-1.139 0.129,-1.618 v -8.55 H 8.91 v 6.444 1.336 c 0,0.444 -0.064,0.838 -0.193,1.181 C 8.59,-4.023 8.375,-3.745 8.076,-3.531 7.775,-3.317 7.326,-3.21 6.727,-3.21 6.316,-3.21 5.961,-3.292 5.662,-3.454 5.361,-3.617 5.117,-3.831 4.93,-4.096 4.742,-4.361 4.6,-4.665 4.506,-5.007 4.412,-5.35 4.365,-5.7 4.365,-6.06 v -7.266 H 0 Z"
             style="fill:#ffffff;fill-opacity:1;fill-rule:nonzero;stroke:none"
             id="path32"
             inkscape:connector-curvature="0" /></g><path
           d="m 308.103,441.357 h 4.365 v -13.326 h -4.365 z m 4.365,1.668 h -4.365 v 3.338 h 4.365 z"
           style="fill:#ffffff;fill-opacity:1;fill-rule:nonzero;stroke:none"
           id="path34"
           inkscape:connector-curvature="0" /><g
           id="g36"
           transform="translate(323.585,438.5322)"><path
             d="m 0,0 h -2.695 v -6.06 c 0,-0.53 0.14,-0.877 0.424,-1.039 0.281,-0.163 0.662,-0.244 1.142,-0.244 0.188,0 0.375,0.008 0.565,0.025 0.187,0.017 0.375,0.026 0.564,0.026 v -3.209 c -0.395,-0.018 -0.791,-0.043 -1.193,-0.078 -0.405,-0.034 -0.801,-0.051 -1.196,-0.051 -0.924,0 -1.689,0.077 -2.297,0.231 -0.607,0.154 -1.087,0.411 -1.437,0.771 -0.352,0.359 -0.596,0.837 -0.732,1.437 -0.137,0.6 -0.206,1.352 -0.206,2.26 V 0 H -9.27 v 2.825 h 2.209 v 4.03 h 4.366 v -4.03 l 2.695,0 z"
             style="fill:#ffffff;fill-opacity:1;fill-rule:nonzero;stroke:none"
             id="path38"
             inkscape:connector-curvature="0" /></g><path
           d="m 325.69,441.357 h 4.365 v -13.326 h -4.365 z m 4.366,1.668 h -4.365 v 3.338 h 4.365 z"
           style="fill:#ffffff;fill-opacity:1;fill-rule:nonzero;stroke:none"
           id="path40"
           inkscape:connector-curvature="0" /><g
           id="g42"
           transform="translate(424.2891,651.2305)"><path
             d="M 0,0 -7.402,-12.521 H 7.404 Z m -1.857,2.438 h 3.716 l 13.1,-22.058 h -3.381 l -2.742,4.661 h -17.67 l -2.742,-4.661 h -3.381 z"
             style="fill:#ed1c24;fill-opacity:1;fill-rule:nonzero;stroke:none"
             id="path44"
             inkscape:connector-curvature="0" /></g><g
           id="g46"
           transform="translate(459.8262,642.7607)"><path
             d="M 0,0 C 3.32,0 4.723,0.884 4.723,3.199 V 5.21 c 0,2.468 -1.067,3.26 -5.455,3.26 H -14.32 V 0 Z M -17.305,10.907 H 0.336 c 6.367,0 7.371,-2.102 7.371,-6.246 V 2.864 c 0,-3.108 -1.766,-3.961 -4.051,-4.174 V -1.371 C 6.703,-1.919 7.434,-3.504 7.434,-5.515 V -11.15 H 4.631 v 4.843 c 0,3.444 -1.676,3.869 -4.387,3.869 H -14.32 v -8.712 h -2.985 z"
             style="fill:#ed1c24;fill-opacity:1;fill-rule:nonzero;stroke:none"
             id="path48"
             inkscape:connector-curvature="0" /></g><g
           id="g50"
           transform="translate(471.7422,653.668)"><path
             d="M 0,0 H 4.447 L 24.646,-19.377 V 0 h 2.987 V -22.058 H 23.184 L 2.984,-2.682 V -22.058 H 0 Z"
             style="fill:#ed1c24;fill-opacity:1;fill-rule:nonzero;stroke:none"
             id="path52"
             inkscape:connector-curvature="0" /></g><path
           d="m 504.082,653.668 h 2.986 V 631.61 h -2.986 z"
           style="fill:#ed1c24;fill-opacity:1;fill-rule:nonzero;stroke:none"
           id="path54"
           inkscape:connector-curvature="0" /><g
           id="g56"
           transform="translate(521.5391,651.2305)"><path
             d="M 0,0 H -11.15 V 2.438 H 14.135 V 0 H 2.984 V -19.62 H 0 Z"
             style="fill:#ed1c24;fill-opacity:1;fill-rule:nonzero;stroke:none"
             id="path58"
             inkscape:connector-curvature="0" /></g><path
           d="m 539.063,653.668 h 2.986 V 631.61 h -2.986 z"
           style="fill:#ed1c24;fill-opacity:1;fill-rule:nonzero;stroke:none"
           id="path60"
           inkscape:connector-curvature="0" /><g
           id="g62"
           transform="translate(256.7383,294.4961)"><path
             d="m 0,0 -3.09,-9.989 h 6.098 z m 6.098,-20.259 -1.244,3.972 h -9.87 l -1.242,-3.972 h -9.629 L -5.055,8.063 h 10.19 l 10.59,-28.322 z"
             style="fill:#ed1c24;fill-opacity:1;fill-rule:nonzero;stroke:none"
             id="path64"
             inkscape:connector-curvature="0" /></g><g
           id="g66"
           transform="translate(287.9492,288.5591)"><path
             d="m 0,0 c -0.643,0.04 -4.172,0.241 -5.176,-2.567 -0.24,-0.683 -0.24,-1.244 -0.24,-1.966 v -9.789 h -8.225 v 20.78 h 7.944 V 4.653 c 0.402,0.362 0.681,0.602 1.123,0.883 C -2.729,6.82 -0.963,6.9 1.203,6.9 V -0.081 C 0.803,-0.04 0.4,0 0,0"
             style="fill:#ed1c24;fill-opacity:1;fill-rule:nonzero;stroke:none"
             id="path68"
             inkscape:connector-curvature="0" /></g><g
           id="g70"
           transform="translate(305.0781,274.2373)"><path
             d="m 0,0 v 11.353 c 0,0.481 0,0.923 -0.119,1.404 -0.201,0.722 -0.803,1.725 -2.69,1.725 -3.048,0 -3.007,-2.527 -3.007,-3.41 V 0 h -8.225 v 20.78 h 7.783 v -2.767 c 0.522,0.761 0.602,0.842 1.004,1.243 1.524,1.524 3.731,2.086 5.856,2.086 0.763,0 3.33,-0.04 5.296,-1.725 1.082,-0.883 1.764,-2.246 2.086,-3.61 0.161,-0.682 0.28,-1.404 0.28,-2.889 V 0 Z"
             style="fill:#ed1c24;fill-opacity:1;fill-rule:nonzero;stroke:none"
             id="path72"
             inkscape:connector-curvature="0" /></g><path
           d="m 316.994,295.018 h 8.264 v -20.78 h -8.264 z m 0,7.542 h 8.264 v -5.496 h -8.264 z"
           style="fill:#ed1c24;fill-opacity:1;fill-rule:nonzero;stroke:none"
           id="path74"
           inkscape:connector-curvature="0" /><g
           id="g76"
           transform="translate(336.6094,273.9565)"><path
             d="m 0,0 c -4.371,0 -6.018,1.685 -6.619,3.771 -0.199,0.762 -0.24,1.524 -0.24,2.247 l 0.121,10.069 h -2.85 v 4.493 h 2.889 l 0.08,6.539 H 1.686 L 1.645,20.58 H 5.176 V 16.087 H 1.564 L 1.445,8.104 c 0,-0.843 0.119,-2.166 2.287,-2.166 0.481,0 0.682,0 1.483,0.16 V 0.441 C 4.533,0.361 2.248,0 0,0"
             style="fill:#ed1c24;fill-opacity:1;fill-rule:nonzero;stroke:none"
             id="path78"
             inkscape:connector-curvature="0" /></g><path
           d="m 343.752,295.018 h 8.264 v -20.78 h -8.264 z m 0,7.542 h 8.264 v -5.496 h -8.264 z"
           style="fill:#ed1c24;fill-opacity:1;fill-rule:nonzero;stroke:none"
           id="path80"
           inkscape:connector-curvature="0" /><g
           id="g82"
           transform="translate(344.1953,645.6392)"><path
             d="m 0,0 c 0,-26.378 -21.385,-47.761 -47.762,-47.761 -26.377,0 -47.759,21.383 -47.759,47.761 0,26.377 21.382,47.761 47.759,47.761 C -21.385,47.761 0,26.377 0,0"
             style="fill:#e82c2e;fill-opacity:1;fill-rule:nonzero;stroke:none"
             id="path84"
             inkscape:connector-curvature="0" /></g><g
           id="g86"
           transform="translate(264.7324,648.7031)"><path
             d="M 0,0 -1.582,-4.664 H 1.619 Z M 3.395,-9.953 2.654,-7.709 H -2.615 L -3.357,-9.953 H -8.783 L -2.83,3.825 H 2.791 L 8.762,-9.953 Z"
             style="fill:#ffffff;fill-opacity:1;fill-rule:nonzero;stroke:none"
             id="path88"
             inkscape:connector-curvature="0" /></g><g
           id="g90"
           transform="translate(285.0664,648.8398)"><path
             d="m 0,0 c -0.332,0.488 -0.879,0.566 -1.404,0.566 h -4.1 v -2.537 h 3.709 c 0.936,0 1.424,0.117 1.736,0.488 0.254,0.312 0.274,0.624 0.274,0.78 0,0.118 -0.02,0.43 -0.215,0.703 m -0.039,-10.09 -2.85,5.016 h -2.615 v -5.016 h -4.957 V 3.688 H -0.313 C 1.543,3.688 3.318,3.552 4.43,1.795 4.684,1.386 5.133,0.566 5.133,-0.683 5.133,-1.327 4.996,-3.162 3.26,-4.118 2.928,-4.313 2.674,-4.411 1.971,-4.586 l 3.435,-5.504 z"
             style="fill:#ffffff;fill-opacity:1;fill-rule:nonzero;stroke:none"
             id="path92"
             inkscape:connector-curvature="0" /></g><g
           id="g94"
           transform="translate(303.1582,638.75)"><path
             d="M 0,0 -6.539,7.377 V 0 h -4.879 v 13.778 h 4.078 l 6.578,-7.259 v 7.259 h 4.86 L 4.098,0 Z"
             style="fill:#ffffff;fill-opacity:1;fill-rule:nonzero;stroke:none"
             id="path96"
             inkscape:connector-curvature="0" /></g><path
           d="m 309.615,652.528 h 4.939 V 638.75 h -4.939 z"
           style="fill:#ffffff;fill-opacity:1;fill-rule:nonzero;stroke:none"
           id="path98"
           inkscape:connector-curvature="0" /><g
           id="g100"
           transform="translate(325.7559,649.4453)"><path
             d="M 0,0 V -10.695 H -4.957 V 0 H -9.855 V 3.083 H 4.879 V 0 Z"
             style="fill:#ffffff;fill-opacity:1;fill-rule:nonzero;stroke:none"
             id="path102"
             inkscape:connector-curvature="0" /></g><path
           d="m 331.98,652.528 h 4.938 V 638.75 h -4.938 z"
           style="fill:#ffffff;fill-opacity:1;fill-rule:nonzero;stroke:none"
           id="path104"
           inkscape:connector-curvature="0" /><g
           id="g106"
           transform="translate(432.9561,466.6973)"><path
             d="M 0,0 H 0.063 L 0.031,-8.475 H -3.77 Z m -6.262,-13.959 h 6.45 l 0.093,-3.614 H 9.504 L 7.043,4.922 H -4.518 L -16.48,-17.573 h 8.537 z"
             style="fill:#ed1c24;fill-opacity:1;fill-rule:nonzero;stroke:none"
             id="path108"
             inkscape:connector-curvature="0" /></g><g
           id="g110"
           transform="translate(455.8916,466.5103)"><path
             d="M 0,0 H 0.811 C 2.555,0 3.613,-0.343 3.271,-1.994 2.928,-3.676 1.525,-4.269 -0.188,-4.269 h -0.748 z m -1.994,-9.378 h 1.027 c 1.434,0 1.901,-0.436 1.838,-1.558 -0.094,-1.932 -0.435,-4.768 -0.248,-6.45 h 8.723 c -0.311,3.396 0.437,6.574 0.343,8.506 -0.062,1.713 -1.06,2.679 -3.177,2.866 v 0.063 c 3.551,0.81 5.047,2.773 5.607,5.359 0.873,4.237 -1.65,5.701 -6.48,5.701 H -7.666 l -4.768,-22.495 h 8.725 z"
             style="fill:#ed1c24;fill-opacity:1;fill-rule:nonzero;stroke:none"
             id="path112"
             inkscape:connector-curvature="0" /></g><g
           id="g114"
           transform="translate(493.0029,449.124)"><path
             d="m 0,0 h 8.912 l 4.766,22.496 h -8.91 z"
             style="fill:#ed1c24;fill-opacity:1;fill-rule:nonzero;stroke:none"
             id="path116"
             inkscape:connector-curvature="0" /></g><g
           id="g118"
           transform="translate(528.3682,471.6196)"><path
             d="m 0,0 h -20.004 l -1.277,-6.044 h 5.547 l -3.491,-16.452 h 8.912 l 3.489,16.452 h 5.547 z"
             style="fill:#ed1c24;fill-opacity:1;fill-rule:nonzero;stroke:none"
             id="path120"
             inkscape:connector-curvature="0" /></g><g
           id="g122"
           transform="translate(525.2861,449.124)"><path
             d="m 0,0 h 8.91 l 4.768,22.496 H 4.766 Z"
             style="fill:#ed1c24;fill-opacity:1;fill-rule:nonzero;stroke:none"
             id="path124"
             inkscape:connector-curvature="0" /></g><g
           id="g126"
           transform="translate(496.5986,480.7134)"><path
             d="M 0,0 0.408,1.909 H -6.82 l -5.284,-24.618 h -0.062 l -1.9,13.615 h -10.688 l -5.291,-24.696 h -50.744 l -1.418,-6.685 h 50.728 l -0.369,-1.726 h 7.229 l 5.256,24.322 h 0.062 l 1.838,-13.71 h 10.688 l 5.339,24.904 h 44.241 0.07 L 44.291,0 Z"
             style="fill:#ed1c24;fill-opacity:1;fill-rule:nonzero;stroke:none"
             id="path128"
             inkscape:connector-curvature="0" /></g><path
           d="m 436.613,297.476 h 28.211 v -28.212 h -28.211 z"
           style="fill:#ed1c24;fill-opacity:1;fill-rule:nonzero;stroke:none"
           id="path130"
           inkscape:connector-curvature="0" /><g
           id="g132"
           transform="translate(457.5957,285.251)"><path
             d="M 0,0 H -0.088 C -0.379,-0.437 -0.83,-0.757 -1.441,-0.96 -2.053,-1.164 -2.752,-1.316 -3.537,-1.418 -4.322,-1.521 -5.166,-1.593 -6.068,-1.637 -6.971,-1.681 -7.873,-1.731 -8.775,-1.79 -9.648,-1.849 -10.5,-1.964 -11.33,-2.139 c -0.828,-0.174 -1.565,-0.465 -2.203,-0.873 -0.641,-0.408 -1.151,-0.982 -1.53,-1.724 -0.378,-0.743 -0.566,-1.71 -0.566,-2.903 0,-0.641 0.109,-1.274 0.328,-1.899 0.217,-0.626 0.588,-1.179 1.113,-1.659 0.524,-0.481 1.2,-0.873 2.03,-1.179 0.828,-0.306 1.855,-0.458 3.078,-0.458 1.453,0 2.75,0.247 3.885,0.742 1.134,0.494 2.088,1.142 2.859,1.943 0.77,0.799 1.354,1.724 1.746,2.772 0.393,1.047 0.59,2.124 0.59,3.23 z m -15.105,2.314 c 0.058,1.048 0.275,2.03 0.654,2.947 0.379,0.916 0.924,1.709 1.637,2.379 0.712,0.67 1.585,1.193 2.621,1.572 1.031,0.378 2.248,0.567 3.644,0.567 0.988,0 1.928,-0.102 2.817,-0.305 C -2.846,9.27 -2.068,8.913 -1.396,8.404 -0.729,7.895 -0.189,7.232 0.217,6.418 0.625,5.603 0.842,4.584 0.873,3.362 v -14.276 c 0,-0.436 0.086,-0.757 0.262,-0.96 0.174,-0.204 0.406,-0.342 0.697,-0.415 0.291,-0.072 0.598,-0.102 0.918,-0.087 0.32,0.015 0.639,0.036 0.961,0.065 v -0.873 c -0.438,-0.028 -0.875,-0.043 -1.311,-0.043 -0.435,0 -0.83,0.072 -1.179,0.218 -0.348,0.145 -0.639,0.371 -0.873,0.677 C 0.115,-12.027 0,-11.583 0,-11.001 v 2.925 h -0.088 c -0.234,-0.728 -0.603,-1.426 -1.113,-2.095 -0.51,-0.67 -1.151,-1.266 -1.922,-1.79 -0.77,-0.524 -1.65,-0.946 -2.641,-1.266 -0.988,-0.32 -2.066,-0.481 -3.23,-0.481 -2.24,0 -4.053,0.51 -5.436,1.528 -1.383,1.019 -2.074,2.533 -2.074,4.541 0,1.397 0.227,2.516 0.678,3.361 0.451,0.843 1.041,1.506 1.767,1.986 0.729,0.481 1.557,0.815 2.489,1.004 0.931,0.189 1.863,0.313 2.795,0.372 1.541,0.087 2.867,0.166 3.972,0.24 1.106,0.072 2.014,0.218 2.729,0.437 0.713,0.218 1.236,0.552 1.572,1.003 C -0.168,1.215 0,1.862 0,2.707 c 0,0.669 -0.059,1.368 -0.176,2.095 -0.117,0.727 -0.4,1.397 -0.851,2.009 -0.452,0.611 -1.114,1.113 -1.987,1.506 -0.873,0.393 -2.05,0.589 -3.535,0.589 -2.357,0 -4.191,-0.575 -5.5,-1.724 -1.31,-1.15 -2.039,-2.772 -2.183,-4.868 z"
             style="fill:#ffffff;fill-opacity:1;fill-rule:nonzero;stroke:none"
             id="path134"
             inkscape:connector-curvature="0" /></g><g
           id="g136"
           transform="translate(469.3379,272.0674)"><path
             d="M 0,0 H -0.873 V 22.438 H 0 v -5.543 h 0.086 c 0.205,0.814 0.525,1.6 0.961,2.357 0.437,0.756 1.019,1.419 1.748,1.986 0.726,0.568 1.592,1.004 2.596,1.31 1.004,0.306 2.175,0.443 3.515,0.415 V 22.09 C 7.363,22.177 6.031,21.966 4.91,21.457 3.791,20.947 2.865,20.249 2.139,19.361 1.412,18.473 0.873,17.447 0.523,16.283 0.174,15.119 0,13.926 0,12.704 Z"
             style="fill:#ed1c24;fill-opacity:1;fill-rule:nonzero;stroke:none"
             id="path138"
             inkscape:connector-curvature="0" /></g><g
           id="g140"
           transform="translate(479.7715,294.5059)"><path
             d="m 0,0 h 0.871 v -5.544 h 0.088 c 0.203,0.873 0.531,1.673 0.982,2.401 0.452,0.727 1.018,1.368 1.704,1.921 0.683,0.553 1.476,0.982 2.378,1.288 0.903,0.306 1.907,0.458 3.012,0.458 1.164,0 2.235,-0.174 3.209,-0.524 0.975,-0.349 1.819,-0.866 2.531,-1.549 0.715,-0.684 1.268,-1.529 1.661,-2.532 0.392,-1.004 0.589,-2.161 0.589,-3.471 v -14.886 h -0.873 v 14.755 c 0,1.31 -0.189,2.423 -0.568,3.339 -0.379,0.917 -0.895,1.674 -1.549,2.271 -0.656,0.596 -1.412,1.032 -2.271,1.309 -0.858,0.277 -1.768,0.415 -2.729,0.415 C 7.697,-0.349 6.518,-0.604 5.5,-1.113 4.48,-1.622 3.629,-2.307 2.945,-3.165 2.262,-4.023 1.746,-5.02 1.396,-6.155 1.047,-7.29 0.871,-8.484 0.871,-9.735 V -22.438 H 0 Z"
             style="fill:#ed1c24;fill-opacity:1;fill-rule:nonzero;stroke:none"
             id="path142"
             inkscape:connector-curvature="0" /></g><path
           d="m 502.473,272.067 h -0.875 v 22.438 h 0.875 z m 0,26.761 h -0.875 v 4.409 h 0.875 z"
           style="fill:#ed1c24;fill-opacity:1;fill-rule:nonzero;stroke:none"
           id="path144"
           inkscape:connector-curvature="0" /><g
           id="g146"
           transform="translate(509.6738,293.6328)"><path
             d="m 0,0 v -17.2 c 0,-0.844 0.094,-1.499 0.283,-1.964 0.19,-0.466 0.43,-0.815 0.721,-1.048 0.291,-0.233 0.611,-0.371 0.961,-0.415 0.349,-0.043 0.699,-0.065 1.047,-0.065 0.437,0 0.83,0.006 1.179,0.022 0.35,0.014 0.596,0.05 0.743,0.108 v -0.873 c -0.262,-0.029 -0.518,-0.058 -0.764,-0.086 -0.248,-0.03 -0.707,-0.044 -1.375,-0.044 -1.02,0 -1.885,0.297 -2.598,0.895 -0.715,0.596 -1.07,1.694 -1.07,3.296 V 0 H -5.02 v 0.873 h 4.147 V 7.945 H 0 V 0.873 H 5.064 V 0 Z"
             style="fill:#ed1c24;fill-opacity:1;fill-rule:nonzero;stroke:none"
             id="path148"
             inkscape:connector-curvature="0" /></g><path
           d="m 518.668,272.067 h -0.873 v 22.438 h 0.873 z m 0,26.761 h -0.873 v 4.409 h 0.873 z"
           style="fill:#ed1c24;fill-opacity:1;fill-rule:nonzero;stroke:none"
           id="path150"
           inkscape:connector-curvature="0" /><path
           d="m 382.641,380.948 h -170 v 170 h 170 z"
           style="fill:none;stroke:#bcbec0;stroke-width:0.25;stroke-linecap:butt;stroke-linejoin:miter;stroke-miterlimit:4;stroke-dasharray:none;stroke-opacity:1"
           id="path152"
           inkscape:connector-curvature="0" /><path
           d="M 202.641,380.948 H 32.639 v 170 h 170.002 z"
           style="fill:none;stroke:#bcbec0;stroke-width:0.25;stroke-linecap:butt;stroke-linejoin:miter;stroke-miterlimit:4;stroke-dasharray:none;stroke-opacity:1"
           id="path154"
           inkscape:connector-curvature="0" /><path
           d="m 562.641,380.948 h -170 v 170 h 170 z"
           style="fill:none;stroke:#bcbec0;stroke-width:0.25;stroke-linecap:butt;stroke-linejoin:miter;stroke-miterlimit:4;stroke-dasharray:none;stroke-opacity:1"
           id="path156"
           inkscape:connector-curvature="0" /><path
           d="m 382.641,560.948 h -170 v 170.001 h 170 z"
           style="fill:none;stroke:#bcbec0;stroke-width:0.25;stroke-linecap:butt;stroke-linejoin:miter;stroke-miterlimit:4;stroke-dasharray:none;stroke-opacity:1"
           id="path158"
           inkscape:connector-curvature="0" /><path
           d="M 202.641,560.948 H 32.639 v 170.001 h 170.002 z"
           style="fill:none;stroke:#bcbec0;stroke-width:0.25;stroke-linecap:butt;stroke-linejoin:miter;stroke-miterlimit:4;stroke-dasharray:none;stroke-opacity:1"
           id="path160"
           inkscape:connector-curvature="0" /><path
           d="m 562.641,560.948 h -170 v 170.001 h 170 z"
           style="fill:none;stroke:#bcbec0;stroke-width:0.25;stroke-linecap:butt;stroke-linejoin:miter;stroke-miterlimit:4;stroke-dasharray:none;stroke-opacity:1"
           id="path162"
           inkscape:connector-curvature="0" /><path
           d="m 382.641,740.948 h -170 v 70 h 170 z"
           style="fill:none;stroke:#bcbec0;stroke-width:0.25;stroke-linecap:butt;stroke-linejoin:miter;stroke-miterlimit:4;stroke-dasharray:none;stroke-opacity:1"
           id="path164"
           inkscape:connector-curvature="0" /><path
           d="M 202.641,740.948 H 32.639 v 70 h 170.002 z"
           style="fill:none;stroke:#bcbec0;stroke-width:0.25;stroke-linecap:butt;stroke-linejoin:miter;stroke-miterlimit:4;stroke-dasharray:none;stroke-opacity:1"
           id="path166"
           inkscape:connector-curvature="0" /><path
           d="m 562.641,740.948 h -170 v 70 h 170 z"
           style="fill:none;stroke:#bcbec0;stroke-width:0.25;stroke-linecap:butt;stroke-linejoin:miter;stroke-miterlimit:4;stroke-dasharray:none;stroke-opacity:1"
           id="path168"
           inkscape:connector-curvature="0" /><path
           d="m 382.641,200.956 h -170 v 170.001 h 170 z"
           style="fill:none;stroke:#bcbec0;stroke-width:0.25;stroke-linecap:butt;stroke-linejoin:miter;stroke-miterlimit:4;stroke-dasharray:none;stroke-opacity:1"
           id="path170"
           inkscape:connector-curvature="0" /><path
           d="M 202.641,200.956 H 32.639 v 170.001 h 170.002 z"
           style="fill:none;stroke:#bcbec0;stroke-width:0.25;stroke-linecap:butt;stroke-linejoin:miter;stroke-miterlimit:4;stroke-dasharray:none;stroke-opacity:1"
           id="path172"
           inkscape:connector-curvature="0" /><path
           d="m 562.641,200.956 h -170 v 170.001 h 170 z"
           style="fill:none;stroke:#bcbec0;stroke-width:0.25;stroke-linecap:butt;stroke-linejoin:miter;stroke-miterlimit:4;stroke-dasharray:none;stroke-opacity:1"
           id="path174"
           inkscape:connector-curvature="0" /><path
           d="m 382.641,30.948 h -170 v 160 h 170 z"
           style="fill:none;stroke:#bcbec0;stroke-width:0.25;stroke-linecap:butt;stroke-linejoin:miter;stroke-miterlimit:4;stroke-dasharray:none;stroke-opacity:1"
           id="path176"
           inkscape:connector-curvature="0" /><path
           d="M 202.641,30.948 H 32.639 v 160 h 170.002 z"
           style="fill:none;stroke:#bcbec0;stroke-width:0.25;stroke-linecap:butt;stroke-linejoin:miter;stroke-miterlimit:4;stroke-dasharray:none;stroke-opacity:1"
           id="path178"
           inkscape:connector-curvature="0" /><path
           d="m 562.633,30.941 h -170 v 160 h 170 z"
           style="fill:none;stroke:#bcbec0;stroke-width:0.25;stroke-linecap:butt;stroke-linejoin:miter;stroke-miterlimit:4;stroke-dasharray:none;stroke-opacity:1"
           id="path180"
           inkscape:connector-curvature="0" /><g
           id="g182"
           transform="translate(27.6401,810.9453)"><path
             d="M 0,0 V -780.001"
             style="fill:#231f20;fill-opacity:1;fill-rule:nonzero;stroke:#231f20;stroke-width:0.5;stroke-linecap:butt;stroke-linejoin:miter;stroke-miterlimit:10;stroke-dasharray:none;stroke-opacity:1"
             id="path184"
             inkscape:connector-curvature="0" /></g><g
           id="g186"
           transform="translate(567.6406,810.9453)"><path
             d="M 0,0 V -780.001"
             style="fill:#231f20;fill-opacity:1;fill-rule:nonzero;stroke:#231f20;stroke-width:0.5;stroke-linecap:butt;stroke-linejoin:miter;stroke-miterlimit:10;stroke-dasharray:none;stroke-opacity:1"
             id="path188"
             inkscape:connector-curvature="0" /></g></g></g><text
       transform="matrix(1,0,0,-1,218.5,766.2227)"
       style="font-variant:normal;font-weight:300;font-stretch:normal;font-size:16px;font-family:'HelveticaNeueLT Com 45 Lt';-inkscape-font-specification:HelveticaNeueLTCom-Lt;writing-mode:lr-tb;fill:#231f20;fill-opacity:1;fill-rule:nonzero;stroke:none"
       id="text196"><tspan
         x="0 10.08 15.408 24 26.959999 31.695999 34.655998 39.104 49.472 58.063999 63.104 71.695999 85.024002 92.720001 101.024 103.984"
         y="0"
         sodipodi:role="line"
         id="tspan190">Arniti Kurumsal </tspan><tspan
         x="0 10.368 13.328 26.656 29.615999 32.576 40.576 45.023998 55.104 64 69.040001 73.776001 77.919998 86.816002 89.776001 97.183998 106.08 113.776"
         y="19.200001"
         sodipodi:role="line"
         id="tspan192">Kimlik Portfolyosu</tspan><tspan
         x="180 190.08 198.384 206.688 209.64799 212.608 217.056 227.136 236.032 238.992 252.32001 260.62399"
         y="20.992001"
         sodipodi:role="line"
         id="tspan194">Seçil Solmaz</tspan></text>
<text
       transform="matrix(1,0,0,-1,218.5,713.5562)"
       style="font-variant:normal;font-weight:300;font-stretch:normal;font-size:14px;font-family:'HelveticaNeueLT Com 45 Lt';-inkscape-font-specification:HelveticaNeueLTCom-Lt;writing-mode:lr-tb;fill:#231f20;fill-opacity:1;fill-rule:nonzero;stroke:none"
       id="text204"><tspan
         x="0 179.998"
         y="0"
         sodipodi:role="line"
         id="tspan198">12</tspan><tspan
         x="0 179.998"
         y="179.998"
         sodipodi:role="line"
         id="tspan200">34</tspan><tspan
         x="0 179.998"
         y="361.99799"
         sodipodi:role="line"
         id="tspan202">56</tspan></text>
</g></svg>