<?xml version="1.0" encoding="UTF-8" standalone="no"?>
<!-- Created with Inkscape (http://www.inkscape.org/) -->

<svg
   xmlns:dc="http://purl.org/dc/elements/1.1/"
   xmlns:cc="http://creativecommons.org/ns#"
   xmlns:rdf="http://www.w3.org/1999/02/22-rdf-syntax-ns#"
   xmlns:svg="http://www.w3.org/2000/svg"
   xmlns="http://www.w3.org/2000/svg"
   xmlns:sodipodi="http://sodipodi.sourceforge.net/DTD/sodipodi-0.dtd"
   xmlns:inkscape="http://www.inkscape.org/namespaces/inkscape"
   version="1.1"
   id="svg2"
   xml:space="preserve"
   width="793.70667"
   height="1122.52"
   viewBox="0 0 793.70667 1122.52"
   sodipodi:docname="luxina.svg"
   inkscape:version="0.92.2 5c3e80d, 2017-08-06"><metadata
     id="metadata8"><rdf:RDF><cc:Work
         rdf:about=""><dc:format>image/svg+xml</dc:format><dc:type
           rdf:resource="http://purl.org/dc/dcmitype/StillImage" /><dc:title></dc:title></cc:Work></rdf:RDF></metadata><defs
     id="defs6"><clipPath
       clipPathUnits="userSpaceOnUse"
       id="clipPath24"><path
         d="M 0,841.89 H 595.28 V 0 H 0 Z"
         id="path22"
         inkscape:connector-curvature="0" /></clipPath></defs><sodipodi:namedview
     pagecolor="#ffffff"
     bordercolor="#666666"
     borderopacity="1"
     objecttolerance="10"
     gridtolerance="10"
     guidetolerance="10"
     inkscape:pageopacity="0"
     inkscape:pageshadow="2"
     inkscape:window-width="1920"
     inkscape:window-height="1036"
     id="namedview4"
     showgrid="false"
     inkscape:zoom="0.84096496"
     inkscape:cx="199.84912"
     inkscape:cy="789.49006"
     inkscape:window-x="0"
     inkscape:window-y="20"
     inkscape:window-maximized="0"
     inkscape:current-layer="g10" /><g
     id="g10"
     inkscape:groupmode="layer"
     inkscape:label="luxina"
     transform="matrix(1.3333333,0,0,-1.3333333,0,1122.52)"><g
       id="g12"
       transform="translate(187.3828,306.7002)"><path
         d="M 0,0 V 55.128 H -13.782 V 0 -13.782 H 0 20.672 V 0 Z"
         style="fill:#231f20;fill-opacity:1;fill-rule:nonzero;stroke:none"
         id="path14"
         inkscape:connector-curvature="0" /></g><path
       d="m 325.204,292.918 h -13.781 v 68.91 h 13.781 z"
       style="fill:#231f20;fill-opacity:1;fill-rule:nonzero;stroke:none"
       id="path16"
       inkscape:connector-curvature="0" /><g
       id="g18"><g
         id="g20"
         clip-path="url(#clipPath24)"><g
           id="g26"
           transform="translate(242.5103,361.8281)"><path
             d="m 0,0 v -51.683 c 0,-1.902 -1.543,-3.445 -3.445,-3.445 h -6.891 c -1.903,0 -3.446,1.543 -3.446,3.445 V 0 h -13.782 v -55.128 c 0,-7.612 6.17,-13.782 13.782,-13.782 H 0 c 7.612,0 13.782,6.17 13.782,13.782 V 0 Z"
             style="fill:#231f20;fill-opacity:1;fill-rule:nonzero;stroke:none"
             id="path28"
             inkscape:connector-curvature="0" /></g><g
           id="g30"
           transform="translate(359.6592,361.8281)"><path
             d="m 0,0 h -13.782 c -7.612,0 -13.782,-6.17 -13.782,-13.782 V -68.91 h 13.782 v 51.69 c 0.004,1.9 1.545,3.438 3.445,3.438 h 6.891 c 1.902,0 3.446,-1.543 3.446,-3.446 v 3.446 0 -55.128 h 13.782 v 55.128 C 13.782,-6.17 7.612,0 0,0"
             style="fill:#231f20;fill-opacity:1;fill-rule:nonzero;stroke:none"
             id="path32"
             inkscape:connector-curvature="0" /></g><g
           id="g34"
           transform="translate(407.8975,334.2637)"><path
             d="m 0,0 h -13.782 v 10.352 c 0.008,1.895 1.547,3.43 3.444,3.43 h 6.891 c 1.902,0 3.446,-1.543 3.446,-3.445 z m 0,27.564 h -13.784 c -7.612,0 -13.782,-6.169 -13.782,-13.782 h 0.002 v -55.128 h 13.782 v 27.565 H 0 v -27.565 h 13.782 v 55.128 c 0,7.613 -6.17,13.782 -13.782,13.782"
             style="fill:#231f20;fill-opacity:1;fill-rule:nonzero;stroke:none"
             id="path36"
             inkscape:connector-curvature="0" /></g><g
           id="g38"
           transform="translate(297.7725,329.3242)"><path
             d="M 0,0 C 4.038,2.403 6.758,6.791 6.758,11.831 V 30.547 H -7.024 V 11.831 8.386 c 0,-1.904 -1.543,-3.447 -3.446,-3.447 h -6.891 c -1.902,0 -3.445,1.544 -3.445,3.447 v 3.445 20.673 H -34.588 V 11.831 c 0,-5.04 2.72,-9.428 6.758,-11.831 0.771,-0.313 1.317,-1.066 1.317,-1.951 0,-0.885 -0.546,-1.639 -1.317,-1.951 -4.038,-2.404 -6.758,-6.79 -6.758,-11.831 v -20.673 h 13.782 v 20.673 3.446 c 0,1.902 1.543,3.445 3.445,3.445 h 6.891 c 1.903,0 3.446,-1.544 3.446,-3.445 v -3.446 -20.673 H 6.758 v 20.673 c 0,5.041 -2.72,9.427 -6.758,11.831 -0.771,0.312 -1.317,1.066 -1.317,1.951 0,0.885 0.546,1.638 1.317,1.951"
             style="fill:#231f20;fill-opacity:1;fill-rule:nonzero;stroke:none"
             id="path40"
             inkscape:connector-curvature="0" /></g><g
           id="g42"
           transform="translate(313.5796,528.1631)"><path
             d="M 0,0 C -3.623,0.605 -6.395,1.152 -8.442,1.597 L -8.654,0.592 c 4.849,-1.161 12.295,-2.867 15.609,-3.216 1.178,-0.124 2.529,-0.19 3.913,-0.22 l 0.476,2.242 C 7.86,-0.725 3.814,-0.637 0,0"
             style="fill:#231f20;fill-opacity:1;fill-rule:nonzero;stroke:none"
             id="path44"
             inkscape:connector-curvature="0" /></g><g
           id="g46"
           transform="translate(313.5796,531.0264)"><path
             d="M 0,0 C -3.291,0.551 -5.88,1.052 -7.861,1.473 L -8.077,0.454 C -3.232,-0.7 3.77,-2.288 6.955,-2.623 8.304,-2.766 9.881,-2.832 11.473,-2.854 l 0.483,2.278 C 8.34,-0.732 4.04,-0.674 0,0"
             style="fill:#231f20;fill-opacity:1;fill-rule:nonzero;stroke:none"
             id="path48"
             inkscape:connector-curvature="0" /></g><g
           id="g50"
           transform="translate(313.5796,525.2988)"><path
             d="M 0,0 C -3.979,0.665 -6.93,1.259 -9.022,1.725 L -9.232,0.73 c 4.814,-1.159 12.737,-2.991 16.187,-3.354 1.005,-0.105 2.139,-0.17 3.31,-0.204 l 0.467,2.208 C 7.392,-0.712 3.592,-0.6 0,0"
             style="fill:#231f20;fill-opacity:1;fill-rule:nonzero;stroke:none"
             id="path52"
             inkscape:connector-curvature="0" /></g><g
           id="g54"
           transform="translate(313.5796,533.8906)"><path
             d="M 0,0 C -2.978,0.498 -5.382,0.956 -7.28,1.351 L -7.499,0.318 c 4.809,-1.139 11.394,-2.62 14.454,-2.942 1.52,-0.16 3.33,-0.224 5.124,-0.236 l 0.489,2.312 C 8.833,-0.737 4.271,-0.713 0,0"
             style="fill:#231f20;fill-opacity:1;fill-rule:nonzero;stroke:none"
             id="path56"
             inkscape:connector-curvature="0" /></g><g
           id="g58"
           transform="translate(313.5796,536.7549)"><path
             d="M 0,0 C -2.682,0.448 -4.897,0.864 -6.699,1.23 L -6.921,0.182 c 4.746,-1.12 10.937,-2.496 13.876,-2.805 1.692,-0.179 3.742,-0.239 5.73,-0.24 l 0.498,2.348 C 9.341,-0.738 4.507,-0.753 0,0"
             style="fill:#231f20;fill-opacity:1;fill-rule:nonzero;stroke:none"
             id="path60"
             inkscape:connector-curvature="0" /></g><g
           id="g62"
           transform="translate(313.5796,522.4346)"><path
             d="M 0,0 C -4.36,0.729 -7.488,1.372 -9.601,1.854 L -9.81,0.87 C -5.078,-0.275 3.363,-2.245 6.955,-2.624 7.788,-2.711 8.707,-2.77 9.662,-2.808 l 0.461,2.173 C 6.934,-0.697 3.375,-0.563 0,0"
             style="fill:#231f20;fill-opacity:1;fill-rule:nonzero;stroke:none"
             id="path64"
             inkscape:connector-curvature="0" /></g><g
           id="g66"
           transform="translate(322.04,513.959)"><path
             d="m 0,0 0.445,2.099 c -2.862,-0.008 -5.954,0.156 -8.905,0.65 -5.241,0.875 -8.702,1.626 -10.758,2.125 L -19.425,3.899 C -15.058,2.831 -5.413,0.535 -1.505,0.124 -1.028,0.073 -0.523,0.033 0,0"
             style="fill:#231f20;fill-opacity:1;fill-rule:nonzero;stroke:none"
             id="path68"
             inkscape:connector-curvature="0" /></g><g
           id="g70"
           transform="translate(320.5347,511.2197)"><path
             d="M 0,0 C 0.293,-0.031 0.597,-0.059 0.908,-0.082 L 1.344,1.977 C -1.346,1.99 -4.21,2.164 -6.955,2.624 -12.721,3.587 -16.334,4.4 -18.29,4.893 L -18.496,3.917 C -14.469,2.926 -4.09,0.43 0,0"
             style="fill:#231f20;fill-opacity:1;fill-rule:nonzero;stroke:none"
             id="path72"
             inkscape:connector-curvature="0" /></g><g
           id="g74"
           transform="translate(309.355,510.5342)"><path
             d="M 0,0 H 7.827 C 6.619,0.102 5.411,0.247 4.225,0.445 -2.164,1.513 -5.91,2.396 -7.685,2.861 L -7.893,1.881 C -6.348,1.498 -3.299,0.752 0,0"
             style="fill:#231f20;fill-opacity:1;fill-rule:nonzero;stroke:none"
             id="path76"
             inkscape:connector-curvature="0" /></g><g
           id="g78"
           transform="translate(313.5796,519.5713)"><path
             d="M 0,0 C -4.775,0.799 -8.076,1.494 -10.18,1.988 L -10.387,1.01 c 4.59,-1.116 13.599,-3.24 17.342,-3.634 0.656,-0.069 1.366,-0.121 2.106,-0.157 l 0.453,2.137 C 6.485,-0.678 3.163,-0.529 0,0"
             style="fill:#231f20;fill-opacity:1;fill-rule:nonzero;stroke:none"
             id="path80"
             inkscape:connector-curvature="0" /></g><g
           id="g82"
           transform="translate(320.5347,559.9072)"><path
             d="m 0,0 c 3.436,-0.36 8.351,-0.238 11.218,-0.117 l 0.396,1.868 H -8.638 L -8.666,1.614 C -5.262,0.867 -1.93,0.203 0,0"
             style="fill:#231f20;fill-opacity:1;fill-rule:nonzero;stroke:none"
             id="path84"
             inkscape:connector-curvature="0" /></g><g
           id="g86"
           transform="translate(313.5796,556.8047)"><path
             d="M 0,0 C -0.927,0.154 -1.796,0.306 -2.615,0.451 L -2.87,-0.752 c 3.789,-0.851 7.677,-1.646 9.825,-1.873 2.986,-0.314 7.089,-0.263 9.994,-0.165 l 0.559,2.637 C 13.59,-0.584 6.459,-1.081 0,0"
             style="fill:#231f20;fill-opacity:1;fill-rule:nonzero;stroke:none"
             id="path88"
             inkscape:connector-curvature="0" /></g><g
           id="g90"
           transform="translate(313.5796,559.668)"><path
             d="M 0,0 C -0.71,0.118 -1.385,0.234 -2.03,0.348 L -2.291,-0.88 c 3.602,-0.802 7.207,-1.529 9.246,-1.744 3.201,-0.338 7.689,-0.253 10.606,-0.143 l 0.569,2.684 C 14.383,-0.523 6.817,-1.139 0,0"
             style="fill:#231f20;fill-opacity:1;fill-rule:nonzero;stroke:none"
             id="path92"
             inkscape:connector-curvature="0" /></g><g
           id="g94"
           transform="translate(313.5796,553.9404)"><path
             d="m 0,0 c -1.152,0.191 -2.216,0.378 -3.2,0.558 l -0.25,-1.181 c 3.968,-0.896 8.146,-1.764 10.405,-2.002 2.782,-0.293 6.533,-0.268 9.383,-0.184 l 0.549,2.589 C 12.868,-0.63 6.132,-1.025 0,0"
             style="fill:#231f20;fill-opacity:1;fill-rule:nonzero;stroke:none"
             id="path96"
             inkscape:connector-curvature="0" /></g><g
           id="g98"
           transform="translate(301.0957,510.6846)"><path
             d="M 0,0 -0.032,-0.15 H 0.566 C 0.349,-0.094 0.159,-0.043 0,0"
             style="fill:#231f20;fill-opacity:1;fill-rule:nonzero;stroke:none"
             id="path100"
             inkscape:connector-curvature="0" /></g><g
           id="g102"
           transform="translate(313.5796,548.2109)"><path
             d="m 0,0 c -1.624,0.272 -3.073,0.531 -4.367,0.775 l -0.24,-1.132 c 4.288,-0.985 9.082,-2.005 11.562,-2.266 2.399,-0.253 5.521,-0.27 8.163,-0.215 l 0.53,2.504 C 11.57,-0.692 5.539,-0.926 0,0"
             style="fill:#231f20;fill-opacity:1;fill-rule:nonzero;stroke:none"
             id="path104"
             inkscape:connector-curvature="0" /></g><g
           id="g106"
           transform="translate(313.5796,551.0752)"><path
             d="m 0,0 c -1.385,0.232 -2.641,0.454 -3.784,0.666 l -0.245,-1.155 c 4.134,-0.943 8.615,-1.886 10.984,-2.135 2.587,-0.272 6.013,-0.269 8.773,-0.2 l 0.539,2.545 C 12.199,-0.665 5.827,-0.974 0,0"
             style="fill:#231f20;fill-opacity:1;fill-rule:nonzero;stroke:none"
             id="path108"
             inkscape:connector-curvature="0" /></g><g
           id="g110"
           transform="translate(313.5796,545.3467)"><path
             d="m 0,0 c -1.873,0.314 -3.515,0.611 -4.951,0.887 l -0.235,-1.111 c 4.429,-1.024 9.549,-2.128 12.141,-2.399 2.218,-0.233 5.051,-0.265 7.554,-0.226 l 0.521,2.462 C 10.976,-0.712 5.265,-0.879 0,0"
             style="fill:#231f20;fill-opacity:1;fill-rule:nonzero;stroke:none"
             id="path112"
             inkscape:connector-curvature="0" /></g><g
           id="g114"
           transform="translate(313.5796,542.4834)"><path
             d="m 0,0 c -2.131,0.355 -3.965,0.691 -5.534,0.998 l -0.231,-1.089 c 4.554,-1.059 10.014,-2.248 12.72,-2.533 2.04,-0.215 4.6,-0.258 6.945,-0.233 l 0.514,2.422 C 10.409,-0.727 5.003,-0.836 0,0"
             style="fill:#231f20;fill-opacity:1;fill-rule:nonzero;stroke:none"
             id="path116"
             inkscape:connector-curvature="0" /></g><g
           id="g118"
           transform="translate(313.5796,539.6191)"><path
             d="M 0,0 C -2.4,0.401 -4.426,0.776 -6.117,1.112 L -6.343,0.045 C -1.684,-1.046 4.133,-2.327 6.955,-2.623 8.82,-2.82 11.12,-2.872 13.292,-2.862 l 0.505,2.384 C 9.865,-0.735 4.75,-0.793 0,0"
             style="fill:#231f20;fill-opacity:1;fill-rule:nonzero;stroke:none"
             id="path120"
             inkscape:connector-curvature="0" /></g><g
           id="g122"
           transform="translate(163.8462,561.6582)"><path
             d="M 0,0 H 20.251 L 12.32,-37.388 h 18.623 l -2.902,-13.736 h -38.874 z"
             style="fill:#231f20;fill-opacity:1;fill-rule:nonzero;stroke:none"
             id="path124"
             inkscape:connector-curvature="0" /></g><g
           id="g126"
           transform="translate(245.02,527.6689)"><path
             d="m 0,0 c -2.62,-12.32 -12.746,-18.48 -28.182,-18.48 -15.436,0 -23.013,6.16 -20.393,18.48 l 7.222,33.989 h 20.252 l -7.01,-33.138 c -0.849,-4.038 0.708,-5.594 2.832,-5.594 2.124,0 4.39,1.556 5.24,5.594 l 7.01,33.138 H 7.222 Z"
             style="fill:#231f20;fill-opacity:1;fill-rule:nonzero;stroke:none"
             id="path128"
             inkscape:connector-curvature="0" /></g><g
           id="g130"
           transform="translate(273.583,525.9697)"><path
             d="M 0,0 -11.116,-15.436 H -31.368 L -9.275,10.692 -19.472,35.688 H 1.913 L 5.523,21.173 15.649,35.688 H 35.901 L 14.799,10.692 25.704,-15.436 H 4.32 Z"
             style="fill:#231f20;fill-opacity:1;fill-rule:nonzero;stroke:none"
             id="path132"
             inkscape:connector-curvature="0" /></g><g
           id="g134"
           transform="translate(340.3472,561.6582)"><path
             d="m 0,0 h 24.287 l 4.319,-30.944 h 0.142 L 35.263,0 H 51.69 L 40.856,-51.124 H 16.569 l -4.178,31.155 H 12.25 L 5.594,-51.124 h -16.428 z"
             style="fill:#231f20;fill-opacity:1;fill-rule:nonzero;stroke:none"
             id="path136"
             inkscape:connector-curvature="0" /></g><g
           id="g138"
           transform="translate(420.7417,531.21)"><path
             d="M 0,0 0.071,19.26 H -0.071 L -8.639,0 Z m -10.338,30.448 h 26.27 l 5.594,-51.124 H 0.567 l -0.213,8.213 h -14.657 l -3.824,-8.213 h -19.401 z"
             style="fill:#231f20;fill-opacity:1;fill-rule:nonzero;stroke:none"
             id="path140"
             inkscape:connector-curvature="0" /></g><g
           id="g142"
           transform="translate(320.7163,577.9131)"><path
             d="m 0,0 c -5.27,0.749 -9.014,1.406 -11.502,1.893 0.15,-0.383 0.311,-0.762 0.486,-1.132 5.653,-1.157 15.109,-3.02 19.205,-3.386 3.498,-0.312 8.296,-0.263 11.714,-0.165 0.68,0.856 1.288,1.774 1.809,2.745 C 17.447,-0.487 8.258,-1.173 0,0"
             style="fill:#231f20;fill-opacity:1;fill-rule:nonzero;stroke:none"
             id="path144"
             inkscape:connector-curvature="0" /></g><g
           id="g146"
           transform="translate(320.7163,583.6406)"><path
             d="m 0,0 c -6.246,0.888 -10.347,1.646 -12.755,2.146 0.013,-0.349 0.034,-0.697 0.067,-1.04 5.241,-1.087 16.343,-3.325 20.877,-3.73 4.809,-0.429 12.076,-0.174 14.83,-0.054 0.293,0.924 0.515,1.878 0.659,2.859 C 21.308,-0.121 9.975,-1.416 0,0"
             style="fill:#231f20;fill-opacity:1;fill-rule:nonzero;stroke:none"
             id="path148"
             inkscape:connector-curvature="0" /></g><g
           id="g150"
           transform="translate(320.7163,572.1846)"><path
             d="m 0,0 c -2.79,0.397 -5.151,0.768 -7.126,1.101 0.542,-0.519 1.112,-1.01 1.715,-1.461 5.045,-0.984 10.682,-2.003 13.6,-2.264 1.161,-0.103 2.467,-0.167 3.817,-0.202 1.564,0.59 3.025,1.385 4.352,2.355 C 11.713,-0.733 5.639,-0.801 0,0"
             style="fill:#231f20;fill-opacity:1;fill-rule:nonzero;stroke:none"
             id="path152"
             inkscape:connector-curvature="0" /></g><g
           id="g154"
           transform="translate(320.7163,580.7764)"><path
             d="m 0,0 c -5.953,0.846 -9.959,1.575 -12.408,2.074 0.075,-0.364 0.161,-0.723 0.256,-1.078 5.428,-1.122 15.956,-3.227 20.341,-3.619 4.214,-0.378 10.317,-0.228 13.616,-0.103 0.469,0.9 0.867,1.843 1.184,2.823 C 19.594,-0.303 9.217,-1.308 0,0"
             style="fill:#231f20;fill-opacity:1;fill-rule:nonzero;stroke:none"
             id="path156"
             inkscape:connector-curvature="0" /></g><g
           id="g158"
           transform="translate(320.7163,586.5039)"><path
             d="m 0,0 c -6.155,0.875 -10.226,1.626 -12.648,2.125 -0.039,-0.333 -0.069,-0.669 -0.089,-1.008 5.219,-1.084 16.377,-3.333 20.926,-3.74 5.268,-0.471 13.491,-0.119 15.494,-0.023 0.125,0.866 0.193,1.751 0.193,2.653 0,0.066 -0.004,0.132 -0.005,0.199 C 22.007,-0.038 10.282,-1.459 0,0"
             style="fill:#231f20;fill-opacity:1;fill-rule:nonzero;stroke:none"
             id="path160"
             inkscape:connector-curvature="0" /></g><g
           id="g162"
           transform="translate(320.7163,600.8252)"><path
             d="M 0,0 C -1.81,0.257 -3.437,0.503 -4.898,0.735 -5.33,0.436 -5.749,0.119 -6.152,-0.215 -0.928,-1.241 5.128,-2.35 8.189,-2.624 c 3.461,-0.31 8.197,-0.264 11.608,-0.168 -0.701,0.865 -1.481,1.664 -2.327,2.39 C 12.712,-0.717 6.103,-0.866 0,0"
             style="fill:#231f20;fill-opacity:1;fill-rule:nonzero;stroke:none"
             id="path164"
             inkscape:connector-curvature="0" /></g><g
           id="g166"
           transform="translate(320.7163,575.0488)"><path
             d="m 0,0 c -4.23,0.601 -7.478,1.144 -9.882,1.586 0.271,-0.421 0.557,-0.832 0.86,-1.231 5.677,-1.143 13.566,-2.653 17.211,-2.979 2.584,-0.231 5.878,-0.264 8.801,-0.226 0.973,0.779 1.868,1.653 2.664,2.613 C 14.898,-0.642 7.105,-1.009 0,0"
             style="fill:#231f20;fill-opacity:1;fill-rule:nonzero;stroke:none"
             id="path168"
             inkscape:connector-curvature="0" /></g><g
           id="g170"
           transform="translate(320.7163,603.6895)"><path
             d="m 0,0 c -0.203,0.028 -0.398,0.057 -0.597,0.085 -0.755,-0.269 -1.486,-0.587 -2.192,-0.949 4.27,-0.806 8.559,-1.544 10.978,-1.76 2.577,-0.23 5.861,-0.264 8.779,-0.228 -1.105,0.883 -2.312,1.641 -3.604,2.251 C 9.261,-0.727 4.493,-0.638 0,0"
             style="fill:#231f20;fill-opacity:1;fill-rule:nonzero;stroke:none"
             id="path172"
             inkscape:connector-curvature="0" /></g><g
           id="g174"
           transform="translate(328.9053,603.9287)"><path
             d="M 0,0 C 1.11,-0.099 2.353,-0.161 3.64,-0.198 1.682,0.517 -0.432,0.906 -2.637,0.906 -3.505,0.906 -4.357,0.842 -5.193,0.725 -3.121,0.381 -1.293,0.116 0,0"
             style="fill:#231f20;fill-opacity:1;fill-rule:nonzero;stroke:none"
             id="path176"
             inkscape:connector-curvature="0" /></g><g
           id="g178"
           transform="translate(320.7163,569.3213)"><path
             d="m 0,0 c -0.437,0.062 -0.859,0.123 -1.275,0.184 2.11,-0.848 4.413,-1.32 6.827,-1.32 1.443,0 2.847,0.172 4.194,0.489 C 6.587,-0.631 3.223,-0.458 0,0"
             style="fill:#231f20;fill-opacity:1;fill-rule:nonzero;stroke:none"
             id="path180"
             inkscape:connector-curvature="0" /></g><g
           id="g182"
           transform="translate(320.7163,592.2324)"><path
             d="m 0,0 c -5.027,0.715 -8.662,1.346 -11.146,1.825 -0.142,-0.314 -0.276,-0.632 -0.4,-0.954 5.572,-1.146 15.508,-3.117 19.735,-3.494 5.213,-0.466 13.318,-0.126 15.426,-0.026 -0.159,0.939 -0.39,1.854 -0.685,2.738 C 19.473,-0.313 9.162,-1.3 0,0"
             style="fill:#231f20;fill-opacity:1;fill-rule:nonzero;stroke:none"
             id="path184"
             inkscape:connector-curvature="0" /></g><g
           id="g186"
           transform="translate(320.7163,597.9619)"><path
             d="M 0,0 C -3.067,0.435 -5.613,0.839 -7.701,1.197 -7.991,0.893 -8.273,0.582 -8.542,0.258 -2.909,-0.873 4.646,-2.309 8.189,-2.624 12.345,-2.996 18.343,-2.856 21.672,-2.732 21.19,-1.843 20.633,-1 20.016,-0.207 15.3,-0.623 7.287,-1.035 0,0"
             style="fill:#231f20;fill-opacity:1;fill-rule:nonzero;stroke:none"
             id="path188"
             inkscape:connector-curvature="0" /></g><g
           id="g190"
           transform="translate(320.7163,589.3682)"><path
             d="M 0,0 C -5.723,0.813 -9.644,1.519 -12.114,2.016 -12.202,1.692 -12.284,1.367 -12.355,1.038 -6.99,-0.072 3.749,-2.227 8.189,-2.623 13.642,-3.11 22.264,-2.717 23.871,-2.637 23.859,-1.681 23.774,-0.742 23.622,0.174 21.131,-0.141 9.896,-1.403 0,0"
             style="fill:#231f20;fill-opacity:1;fill-rule:nonzero;stroke:none"
             id="path192"
             inkscape:connector-curvature="0" /></g><g
           id="g194"
           transform="translate(320.7163,595.0967)"><path
             d="M 0,0 C -4.133,0.588 -7.324,1.118 -9.71,1.555 -9.916,1.248 -10.108,0.934 -10.294,0.614 -4.588,-0.548 4.263,-2.272 8.189,-2.623 12.927,-3.047 20.055,-2.806 22.898,-2.682 22.587,-1.766 22.207,-0.883 21.761,-0.039 17.517,-0.481 8.289,-1.176 0,0"
             style="fill:#231f20;fill-opacity:1;fill-rule:nonzero;stroke:none"
             id="path196"
             inkscape:connector-curvature="0" /></g></g></g></g></svg>