<?xml version="1.0" encoding="UTF-8" standalone="no"?>
<!-- Created with Inkscape (http://www.inkscape.org/) -->

<svg
   xmlns:dc="http://purl.org/dc/elements/1.1/"
   xmlns:cc="http://creativecommons.org/ns#"
   xmlns:rdf="http://www.w3.org/1999/02/22-rdf-syntax-ns#"
   xmlns:svg="http://www.w3.org/2000/svg"
   xmlns="http://www.w3.org/2000/svg"
   xmlns:sodipodi="http://sodipodi.sourceforge.net/DTD/sodipodi-0.dtd"
   xmlns:inkscape="http://www.inkscape.org/namespaces/inkscape"
   id="svg2"
   version="1.1"
   inkscape:version="0.48.5 r10040"
   width="135"
   height="135"
   xml:space="preserve"
   sodipodi:docname="zenhek.svg"
   inkscape:export-filename="/home/onur/Dropbox/lab/zenhek/zenhek.png"
   inkscape:export-xdpi="90"
   inkscape:export-ydpi="90"><metadata
     id="metadata8"><rdf:RDF><cc:Work
         rdf:about=""><dc:format>image/svg+xml</dc:format><dc:type
           rdf:resource="http://purl.org/dc/dcmitype/StillImage" /></cc:Work></rdf:RDF></metadata><defs
     id="defs6"><clipPath
       clipPathUnits="userSpaceOnUse"
       id="clipPath18"><path
         d="M 0,360 640,360 640,0 0,0 0,360 z"
         id="path20"
         inkscape:connector-curvature="0" /></clipPath></defs><sodipodi:namedview
     pagecolor="#ffffff"
     bordercolor="#666666"
     borderopacity="1"
     objecttolerance="10"
     gridtolerance="10"
     guidetolerance="10"
     inkscape:pageopacity="0"
     inkscape:pageshadow="2"
     inkscape:window-width="1920"
     inkscape:window-height="1032"
     id="namedview4"
     showgrid="false"
     inkscape:zoom="0.7675"
     inkscape:cx="-260.19905"
     inkscape:cy="106.24353"
     inkscape:window-x="0"
     inkscape:window-y="22"
     inkscape:window-maximized="0"
     inkscape:current-layer="g3400" /><g
     id="g10"
     inkscape:groupmode="layer"
     inkscape:label="zenhek"
     transform="matrix(1.25,0,0,-1.25,0,135)"><g
       transform="translate(25.016286,278.30619)"
       id="g3362"><g
         id="g3364"><path
           sodipodi:nodetypes="cscsccccccscsccc"
           inkscape:connector-curvature="0"
           id="path3366"
           transform="matrix(0.8,0,0,-0.8,0,360)"
           d="m 153.875,164.6875 c -9.96625,0 -20.0575,2.4725 -29.375,7.6875 -29.06,16.265 -39.4525,53.0025 -23.1875,82.0625 11.0475,19.74375 31.56375,30.875 52.6875,30.875 9.96625,0 20.0575,-2.4725 29.375,-7.6875 29.0625,-16.265 39.45125,-53 23.1875,-82.0625 -11.05,-19.7425 -31.565,-30.8775 -52.6875,-30.875 z m 13.53125,8.4375 c 13.95327,3.63735 26.09745,12.79546 33.3125,25.6875 14.43125,25.79 5.1975,58.535 -20.59375,72.96875 -5.15511,2.54992 -9.17069,4.44108 -15.66902,5.31738 -5.00337,0.67471 -16.36507,0.80086 -22.04973,-9.28613 -10.415,-18.66 12.29125,-33.34875 23.65625,-43.78125 9.85625,-9.0475 14.0775,-16.2975 15.09375,-24.34375 0.98125,-7.77625 -1.99875,-16.22125 -7.875,-22.15625 -1.65443,-1.6713 -3.64223,-3.13295 -5.875,-4.40625 z"
           style="fill:#393768;fill-opacity:1;fill-rule:nonzero;stroke:none" /><path
           d="m 138.8809,211.3437 c 4.879,-8.717 1.768,-19.74 -6.951,-24.621 -8.717,-4.877 -19.742,-1.766 -24.619,6.953 -4.881,8.719 -1.768,19.742 6.951,24.619 8.719,4.879 19.74,1.768 24.619,-6.951"
           style="fill:#ffffff;fill-opacity:1;fill-rule:nonzero;stroke:none"
           id="path3368"
           inkscape:connector-curvature="0" /><path
           d="m 138.4102,208.584 c 3.252,-5.811 1.178,-13.16 -4.635,-16.412 -5.812,-3.254 -13.16,-1.178 -16.412,4.635 -3.254,5.812 -1.18,13.16 4.633,16.412 5.812,3.254 13.16,1.179 16.414,-4.635"
           style="fill:#3bade2;fill-opacity:1;fill-rule:nonzero;stroke:none"
           id="path3370"
           inkscape:connector-curvature="0" /><path
           d="m 134.3223,204.5703 c 1.221,-2.18 0.443,-4.934 -1.738,-6.154 -2.18,-1.221 -4.934,-0.442 -6.153,1.738 -1.22,2.178 -0.443,4.934 1.737,6.152 2.179,1.223 4.935,0.444 6.154,-1.736"
           style="fill:#373535;fill-opacity:1;fill-rule:nonzero;stroke:none"
           id="path3372"
           inkscape:connector-curvature="0" /></g><g
         id="g3374"><path
           d="m 299.7324,201.6992 c 8.541,-3.367 9.846,-13.146 5.248,-17.049 -7.162,-6.076 -33.738,-1.451 -33.738,-1.451 2.226,9.008 11.148,25.332 28.49,18.5 m 9.258,1.211 c -3.994,4.176 -8.377,7.062 -16.869,6.822 -7.313,-0.209 -13.76,-2.775 -19.332,-8.326 -5.575,-5.551 -9.049,-12.666 -10.422,-21.344 -1.414,-8.925 0.09,-16.187 4.511,-21.795 4.422,-5.603 12.124,-8.379 20.598,-8.379 4.961,0 11.998,1.077 18.533,3.702 l 1.35,7.714 c -8.076,-3.148 -13.691,-4.234 -18.016,-4.234 -11.248,0 -21.345,5.024 -19.172,19.365 0,0 30.131,-6.472 39.293,3.053 5.825,6.055 6.696,15.926 -0.474,23.422"
           style="fill:#343434;fill-opacity:1;fill-rule:nonzero;stroke:none"
           id="path3376"
           inkscape:connector-curvature="0" /><path
           sodipodi:nodetypes="ccccccccccccccc"
           inkscape:connector-curvature="0"
           id="path3378"
           transform="matrix(0.8,0,0,-0.8,0,360)"
           d="m 258.96875,188.09375 -1.6875,15.03125 8.8125,0 0.8125,-7.21875 49.15625,0 -64.375,56.5625 -1.125,10.15625 69.4375,0 1.71875,-15 -8.84375,0 -0.8125,7.21875 -49.84375,0 65.15625,-57.25 1.0625,-9.5 z"
           style="fill:#343434;fill-opacity:1;fill-rule:nonzero;stroke:none" /><path
           sodipodi:nodetypes="sccccccccccccccccccccccccs"
           inkscape:connector-curvature="0"
           transform="matrix(0.8,0,0,-0.8,0,360)"
           id="path3380"
           d="m 437.6875,187.09375 c -8.27432,-0.007 -17.78008,3.09949 -24.8125,12.46875 l 1.3125,-11.53125 -3.53125,0 c 0,0 -2.33,4.3125 -12.5625,4.3125 l -0.375,3.28125 5,0 -7.125,62.96875 -3.1875,0 -0.375,4 c 5.60417,0 11.20833,0 16.8125,0 l 0.40625,-4 -3.0625,0 5.65625,-49.90625 c 12.7,-16.565 29.3025,-17.9125 34.625,-10.625 3.57625,4.9 2.1,12.96125 0.9375,23.3125 -1.29662,12.09064 -2.74187,24.51096 -4.1875,37.21875 l -2.90625,0 -0.375,4 16.84375,0 0.375,-4 -3.375,0 2.34375,-20.65625 2.03125,-17.4375 c 1.6825,-13.91625 3.86375,-20.805 -4.03125,-28.3125 -2.79902,-2.66191 -9.13663,-5.08768 -16.4375,-5.09375 z"
           style="fill:#343434;fill-opacity:1;fill-rule:nonzero;stroke:none" /><path
           d="m 474.752,197.125 c 3.51,-0.98 5.908,-4.918 3.527,-8.059 -3.367,-4.441 -21.423,-2.076 -21.423,-2.076 1.681,7.461 10.171,12.291 17.896,10.135 m 12.148,6.479 c -4.523,3.595 -9.304,6.128 -16.232,6.128 -7.314,0 -13.76,-2.775 -19.332,-8.326 -5.574,-5.551 -9.049,-12.666 -10.422,-21.343 -1.414,-8.926 0.09,-16.188 4.512,-21.795 4.422,-5.604 12.123,-8.379 20.597,-8.379 4.961,0 11.18,1.271 18.479,3.382 l 2.344,14.108 c -8.076,-3.149 -11.973,-3.524 -16.506,-3.99 -8.582,-0.883 -16.014,2.209 -15.307,11.64 0,0 23.176,-5.566 33.133,4.235 6.475,6.373 6.559,18.119 -1.266,24.34"
           style="fill:#343434;fill-opacity:1;fill-rule:nonzero;stroke:none"
           id="path3382"
           inkscape:connector-curvature="0" /><path
           sodipodi:nodetypes="ccccccccccccccccccccccccccccc"
           inkscape:connector-curvature="0"
           id="path3384"
           transform="matrix(0.8,0,0,-0.8,0,360)"
           d="m 474.0625,188.03125 -0.6875,7.125 3.46875,0 -6.8125,60.3125 -3.40625,0 -0.6875,7.125 28.90625,0 0.6875,-7.125 -3.4375,0 2.59375,-22.84375 20.40625,0 -2.59375,22.84375 -3.40625,0 -0.6875,7.125 28.90625,0 0.6875,-7.125 -3.4375,0 6.8125,-60.3125 3.40625,0 0.6875,-7.125 -28.9375,0 -0.6875,7.125 3.46875,0 -2.59375,22.84375 -20.40625,0 2.59375,-22.84375 3.40625,0 0.6875,-7.125 z"
           style="fill:#343434;fill-opacity:1;fill-rule:nonzero;stroke:none" /><path
           sodipodi:nodetypes="cccccccccccccccccccccccccccccc"
           inkscape:connector-curvature="0"
           id="path3386"
           transform="matrix(0.8,0,0,-0.8,0,360)"
           d="m 626.15625,187.96875 -0.6875,7.09375 3.46875,0 -6.8125,60.3125 -3.40625,0 -0.6875,7.125 28.90625,0 0.6875,-7.125 -3.46875,0 1.34375,-12 10.75,-9.75 14.25,21.8125 -6.75,0 -0.6875,7.125 39.71875,0.0312 -0.21875,-0.28125 0.65625,-6.84375 -5.9375,0 -26.78125,-34.8125 28.03125,-25.46875 7.15625,0 0.6875,-7.125 -39.46875,-0.0312 -0.6875,7.125 6,0 -23.84375,22.875 2.59375,-22.96875 3.40625,0 0.6875,-7.09375 z"
           style="fill:#343434;fill-opacity:1;fill-rule:nonzero;stroke:none" /></g></g><g
       id="g3400"
       transform="matrix(1.1006548,0,0,1.1006548,-5.4079319,-3.806913)"><g
         transform="matrix(0.71994731,0,0,0.7234792,-34.661502,-68.381935)"
         id="g3334"><path
           style="fill:#393768;fill-opacity:1;fill-rule:nonzero;stroke:none"
           d="m 153.875,164.6875 c -9.96625,0 -20.0575,2.4725 -29.375,7.6875 -29.06,16.265 -39.4525,53.0025 -23.1875,82.0625 11.0475,19.74375 31.56375,30.875 52.6875,30.875 9.96625,0 20.0575,-2.4725 29.375,-7.6875 29.0625,-16.265 39.45125,-53 23.1875,-82.0625 -11.05,-19.7425 -31.565,-30.8775 -52.6875,-30.875 z m 13.53125,8.4375 c 13.95327,3.63735 26.09745,12.79546 33.3125,25.6875 14.43125,25.79 5.1975,58.535 -20.59375,72.96875 -5.15511,2.54992 -9.17069,4.44108 -15.66902,5.31738 -5.00337,0.67471 -16.36507,0.80086 -22.04973,-9.28613 -10.415,-18.66 12.29125,-33.34875 23.65625,-43.78125 9.85625,-9.0475 14.0775,-16.2975 15.09375,-24.34375 0.98125,-7.77625 -1.99875,-16.22125 -7.875,-22.15625 -1.65443,-1.6713 -3.64223,-3.13295 -5.875,-4.40625 z"
           transform="matrix(0.8,0,0,-0.8,0,360)"
           id="path24"
           inkscape:connector-curvature="0"
           sodipodi:nodetypes="cscsccccccscsccc" /><path
           inkscape:connector-curvature="0"
           id="path32"
           style="fill:#ffffff;fill-opacity:1;fill-rule:nonzero;stroke:none"
           d="m 138.8809,211.3437 c 4.879,-8.717 1.768,-19.74 -6.951,-24.621 -8.717,-4.877 -19.742,-1.766 -24.619,6.953 -4.881,8.719 -1.768,19.742 6.951,24.619 8.719,4.879 19.74,1.768 24.619,-6.951" /><path
           inkscape:connector-curvature="0"
           id="path36"
           style="fill:#3bade2;fill-opacity:1;fill-rule:nonzero;stroke:none"
           d="m 138.4102,208.584 c 3.252,-5.811 1.178,-13.16 -4.635,-16.412 -5.812,-3.254 -13.16,-1.178 -16.412,4.635 -3.254,5.812 -1.18,13.16 4.633,16.412 5.812,3.254 13.16,1.179 16.414,-4.635" /><path
           inkscape:connector-curvature="0"
           id="path40"
           style="fill:#373535;fill-opacity:1;fill-rule:nonzero;stroke:none"
           d="m 134.3223,204.5703 c 1.221,-2.18 0.443,-4.934 -1.738,-6.154 -2.18,-1.221 -4.934,-0.442 -6.153,1.738 -1.22,2.178 -0.443,4.934 1.737,6.152 2.179,1.223 4.935,0.444 6.154,-1.736" /></g><g
         transform="matrix(0.22829255,0,0,0.22829255,-33.657172,-28.490596)"
         id="g3340"><path
           inkscape:connector-curvature="0"
           id="path44"
           style="fill:#343434;fill-opacity:1;fill-rule:nonzero;stroke:none"
           d="m 299.7324,201.6992 c 8.541,-3.367 9.846,-13.146 5.248,-17.049 -7.162,-6.076 -33.738,-1.451 -33.738,-1.451 2.226,9.008 11.148,25.332 28.49,18.5 m 9.258,1.211 c -3.994,4.176 -8.377,7.062 -16.869,6.822 -7.313,-0.209 -13.76,-2.775 -19.332,-8.326 -5.575,-5.551 -9.049,-12.666 -10.422,-21.344 -1.414,-8.925 0.09,-16.187 4.511,-21.795 4.422,-5.603 12.124,-8.379 20.598,-8.379 4.961,0 11.998,1.077 18.533,3.702 l 1.35,7.714 c -8.076,-3.148 -13.691,-4.234 -18.016,-4.234 -11.248,0 -21.345,5.024 -19.172,19.365 0,0 30.131,-6.472 39.293,3.053 5.825,6.055 6.696,15.926 -0.474,23.422" /><path
           style="fill:#343434;fill-opacity:1;fill-rule:nonzero;stroke:none"
           d="m 258.96875,188.09375 -1.6875,15.03125 8.8125,0 0.8125,-7.21875 49.15625,0 -64.375,56.5625 -1.125,10.15625 69.4375,0 1.71875,-15 -8.84375,0 -0.8125,7.21875 -49.84375,0 65.15625,-57.25 1.0625,-9.5 z"
           transform="matrix(0.8,0,0,-0.8,0,360)"
           id="path48"
           inkscape:connector-curvature="0"
           sodipodi:nodetypes="ccccccccccccccc" /><path
           style="fill:#343434;fill-opacity:1;fill-rule:nonzero;stroke:none"
           d="m 437.6875,187.09375 c -8.27432,-0.007 -17.78008,3.09949 -24.8125,12.46875 l 1.3125,-11.53125 -3.53125,0 c 0,0 -2.33,4.3125 -12.5625,4.3125 l -0.375,3.28125 5,0 -7.125,62.96875 -3.1875,0 -0.375,4 c 5.60417,0 11.20833,0 16.8125,0 l 0.40625,-4 -3.0625,0 5.65625,-49.90625 c 12.7,-16.565 29.3025,-17.9125 34.625,-10.625 3.57625,4.9 2.1,12.96125 0.9375,23.3125 -1.29662,12.09064 -2.74187,24.51096 -4.1875,37.21875 l -2.90625,0 -0.375,4 16.84375,0 0.375,-4 -3.375,0 2.34375,-20.65625 2.03125,-17.4375 c 1.6825,-13.91625 3.86375,-20.805 -4.03125,-28.3125 -2.79902,-2.66191 -9.13663,-5.08768 -16.4375,-5.09375 z"
           id="path80"
           transform="matrix(0.8,0,0,-0.8,0,360)"
           inkscape:connector-curvature="0"
           sodipodi:nodetypes="sccccccccccccccccccccccccs" /><path
           inkscape:connector-curvature="0"
           id="path100"
           style="fill:#343434;fill-opacity:1;fill-rule:nonzero;stroke:none"
           d="m 474.752,197.125 c 3.51,-0.98 5.908,-4.918 3.527,-8.059 -3.367,-4.441 -21.423,-2.076 -21.423,-2.076 1.681,7.461 10.171,12.291 17.896,10.135 m 12.148,6.479 c -4.523,3.595 -9.304,6.128 -16.232,6.128 -7.314,0 -13.76,-2.775 -19.332,-8.326 -5.574,-5.551 -9.049,-12.666 -10.422,-21.343 -1.414,-8.926 0.09,-16.188 4.512,-21.795 4.422,-5.604 12.123,-8.379 20.597,-8.379 4.961,0 11.18,1.271 18.479,3.382 l 2.344,14.108 c -8.076,-3.149 -11.973,-3.524 -16.506,-3.99 -8.582,-0.883 -16.014,2.209 -15.307,11.64 0,0 23.176,-5.566 33.133,4.235 6.475,6.373 6.559,18.119 -1.266,24.34" /><path
           style="fill:#343434;fill-opacity:1;fill-rule:nonzero;stroke:none"
           d="m 474.0625,188.03125 -0.6875,7.125 3.46875,0 -6.8125,60.3125 -3.40625,0 -0.6875,7.125 28.90625,0 0.6875,-7.125 -3.4375,0 2.59375,-22.84375 20.40625,0 -2.59375,22.84375 -3.40625,0 -0.6875,7.125 28.90625,0 0.6875,-7.125 -3.4375,0 6.8125,-60.3125 3.40625,0 0.6875,-7.125 -28.9375,0 -0.6875,7.125 3.46875,0 -2.59375,22.84375 -20.40625,0 2.59375,-22.84375 3.40625,0 0.6875,-7.125 z"
           transform="matrix(0.8,0,0,-0.8,0,360)"
           id="path104"
           inkscape:connector-curvature="0"
           sodipodi:nodetypes="ccccccccccccccccccccccccccccc" /><path
           style="fill:#343434;fill-opacity:1;fill-rule:nonzero;stroke:none"
           d="m 626.15625,187.96875 -0.6875,7.09375 3.46875,0 -6.8125,60.3125 -3.40625,0 -0.6875,7.125 28.90625,0 0.6875,-7.125 -3.46875,0 1.34375,-12 10.75,-9.75 14.25,21.8125 -6.75,0 -0.6875,7.125 39.71875,0.0312 -0.21875,-0.28125 0.65625,-6.84375 -5.9375,0 -26.78125,-34.8125 28.03125,-25.46875 7.15625,0 0.6875,-7.125 -39.46875,-0.0312 -0.6875,7.125 6,0 -23.84375,22.875 2.59375,-22.96875 3.40625,0 0.6875,-7.09375 z"
           transform="matrix(0.8,0,0,-0.8,0,360)"
           id="path130"
           inkscape:connector-curvature="0"
           sodipodi:nodetypes="cccccccccccccccccccccccccccccc" /></g></g></g></svg>