<?xml version="1.0" encoding="UTF-8" standalone="no"?>
<!-- Created with Inkscape (http://www.inkscape.org/) -->

<svg
   xmlns:dc="http://purl.org/dc/elements/1.1/"
   xmlns:cc="http://creativecommons.org/ns#"
   xmlns:rdf="http://www.w3.org/1999/02/22-rdf-syntax-ns#"
   xmlns:svg="http://www.w3.org/2000/svg"
   xmlns="http://www.w3.org/2000/svg"
   xmlns:sodipodi="http://sodipodi.sourceforge.net/DTD/sodipodi-0.dtd"
   xmlns:inkscape="http://www.inkscape.org/namespaces/inkscape"
   id="svg2"
   version="1.1"
   inkscape:version="0.91 r13725"
   width="594.00983"
   height="594.65881"
   xml:space="preserve"
   sodipodi:docname="zenhek_alt.svg"
   inkscape:export-filename="/home/onur/Dropbox/lab/zenhek/zenhek3.png"
   inkscape:export-xdpi="151.49864"
   inkscape:export-ydpi="151.49864"><metadata
     id="metadata8"><rdf:RDF><cc:Work
         rdf:about=""><dc:format>image/svg+xml</dc:format><dc:type
           rdf:resource="http://purl.org/dc/dcmitype/StillImage" /><dc:title></dc:title></cc:Work></rdf:RDF></metadata><defs
     id="defs6"><clipPath
       clipPathUnits="userSpaceOnUse"
       id="clipPath18"><path
         d="M 0,360 640,360 640,0 0,0 0,360 Z"
         id="path20"
         inkscape:connector-curvature="0" /></clipPath></defs><sodipodi:namedview
     pagecolor="#ffffff"
     bordercolor="#666666"
     borderopacity="1"
     objecttolerance="10"
     gridtolerance="10"
     guidetolerance="10"
     inkscape:pageopacity="0"
     inkscape:pageshadow="2"
     inkscape:window-width="1920"
     inkscape:window-height="1032"
     id="namedview4"
     showgrid="false"
     inkscape:zoom="1.4142136"
     inkscape:cx="140.04184"
     inkscape:cy="244.61692"
     inkscape:window-x="0"
     inkscape:window-y="22"
     inkscape:window-maximized="0"
     inkscape:current-layer="g4407"
     inkscape:snap-bbox="true"
     inkscape:bbox-nodes="true"
     inkscape:bbox-paths="true"
     inkscape:snap-bbox-edge-midpoints="true"
     inkscape:snap-bbox-midpoints="true"
     inkscape:object-paths="true"
     inkscape:snap-intersection-paths="true"
     inkscape:object-nodes="true"
     inkscape:snap-smooth-nodes="true"
     inkscape:snap-midpoints="true"
     inkscape:snap-object-midpoints="true"
     inkscape:snap-center="true"
     inkscape:snap-text-baseline="true"
     inkscape:snap-page="true"
     showguides="true"
     inkscape:guide-bbox="true"
     inkscape:snap-global="true"
     fit-margin-top="0"
     fit-margin-left="0"
     fit-margin-right="0"
     fit-margin-bottom="0"><sodipodi:guide
       position="-1518.8104,299.51165"
       orientation="1,0"
       id="guide4455" /><sodipodi:guide
       position="-1353.8247,508.90875"
       orientation="0,1"
       id="guide4457" /><sodipodi:guide
       position="-1184.1191,90.114559"
       orientation="0,1"
       id="guide4459" /><sodipodi:guide
       position="-1100.0195,254.10085"
       orientation="1,0"
       id="guide4461" /></sodipodi:namedview><g
     id="g10"
     inkscape:groupmode="layer"
     inkscape:label="zenhek"
     transform="matrix(1.25,0,0,-1.25,-1783.7456,995.33882)"><rect
       transform="scale(1,-1)"
       y="-796.27106"
       x="1426.9965"
       height="475.72705"
       width="475.20786"
       id="rect4285"
       style="color:#000000;display:inline;overflow:visible;visibility:visible;opacity:1;fill:#4d347c;fill-opacity:1;fill-rule:nonzero;stroke:none;stroke-width:14;stroke-linecap:butt;stroke-linejoin:miter;stroke-miterlimit:4;stroke-dasharray:none;stroke-dashoffset:0;stroke-opacity:1;marker:none;enable-background:accumulate" /><rect
       style="color:#000000;display:inline;overflow:visible;visibility:visible;opacity:1;fill:#4d347c;fill-opacity:1;fill-rule:nonzero;stroke:none;stroke-width:14;stroke-linecap:butt;stroke-linejoin:miter;stroke-miterlimit:4;stroke-dasharray:none;stroke-dashoffset:0;stroke-opacity:1;marker:none;enable-background:accumulate"
       id="rect4780"
       width="475.20786"
       height="475.72705"
       x="2278.1965"
       y="-197.87108"
       transform="scale(1,-1)" /><g
       id="g4161"
       transform="translate(-800.47905,620.29712)"><g
         id="g4163"><path
           style="fill:#393768;fill-opacity:1;fill-rule:nonzero;stroke:none"
           d="m 153.875,164.6875 c -9.96625,0 -20.0575,2.4725 -29.375,7.6875 -29.06,16.265 -39.4525,53.0025 -23.1875,82.0625 11.0475,19.74375 31.56375,30.875 52.6875,30.875 9.96625,0 20.0575,-2.4725 29.375,-7.6875 29.0625,-16.265 39.45125,-53 23.1875,-82.0625 -11.05,-19.7425 -31.565,-30.8775 -52.6875,-30.875 z m 13.53125,8.4375 c 13.95327,3.63735 26.09745,12.79546 33.3125,25.6875 14.43125,25.79 5.1975,58.535 -20.59375,72.96875 -5.15511,2.54992 -9.17069,4.44108 -15.66902,5.31738 -5.00337,0.67471 -16.36507,0.80086 -22.04973,-9.28613 -10.415,-18.66 12.29125,-33.34875 23.65625,-43.78125 9.85625,-9.0475 14.0775,-16.2975 15.09375,-24.34375 0.98125,-7.77625 -1.99875,-16.22125 -7.875,-22.15625 -1.65443,-1.6713 -3.64223,-3.13295 -5.875,-4.40625 z"
           transform="matrix(0.8,0,0,-0.8,0,360)"
           id="path4165"
           inkscape:connector-curvature="0"
           sodipodi:nodetypes="cscsccccccscsccc" /><path
           inkscape:connector-curvature="0"
           id="path4167"
           style="fill:#ffffff;fill-opacity:1;fill-rule:nonzero;stroke:none"
           d="m 138.8809,211.3437 c 4.879,-8.717 1.768,-19.74 -6.951,-24.621 -8.717,-4.877 -19.742,-1.766 -24.619,6.953 -4.881,8.719 -1.768,19.742 6.951,24.619 8.719,4.879 19.74,1.768 24.619,-6.951" /><path
           inkscape:connector-curvature="0"
           id="path4169"
           style="fill:#3bade2;fill-opacity:1;fill-rule:nonzero;stroke:none"
           d="m 138.4102,208.584 c 3.252,-5.811 1.178,-13.16 -4.635,-16.412 -5.812,-3.254 -13.16,-1.178 -16.412,4.635 -3.254,5.812 -1.18,13.16 4.633,16.412 5.812,3.254 13.16,1.179 16.414,-4.635" /><path
           inkscape:connector-curvature="0"
           id="path4171"
           style="fill:#373535;fill-opacity:1;fill-rule:nonzero;stroke:none"
           d="m 134.3223,204.5703 c 1.221,-2.18 0.443,-4.934 -1.738,-6.154 -2.18,-1.221 -4.934,-0.442 -6.153,1.738 -1.22,2.178 -0.443,4.934 1.737,6.152 2.179,1.223 4.935,0.444 6.154,-1.736" /></g><g
         id="g4173"><path
           inkscape:connector-curvature="0"
           id="path4175"
           style="fill:#343434;fill-opacity:1;fill-rule:nonzero;stroke:none"
           d="m 299.7324,201.6992 c 8.541,-3.367 9.846,-13.146 5.248,-17.049 -7.162,-6.076 -33.738,-1.451 -33.738,-1.451 2.226,9.008 11.148,25.332 28.49,18.5 m 9.258,1.211 c -3.994,4.176 -8.377,7.062 -16.869,6.822 -7.313,-0.209 -13.76,-2.775 -19.332,-8.326 -5.575,-5.551 -9.049,-12.666 -10.422,-21.344 -1.414,-8.925 0.09,-16.187 4.511,-21.795 4.422,-5.603 12.124,-8.379 20.598,-8.379 4.961,0 11.998,1.077 18.533,3.702 l 1.35,7.714 c -8.076,-3.148 -13.691,-4.234 -18.016,-4.234 -11.248,0 -21.345,5.024 -19.172,19.365 0,0 30.131,-6.472 39.293,3.053 5.825,6.055 6.696,15.926 -0.474,23.422" /><path
           style="fill:#343434;fill-opacity:1;fill-rule:nonzero;stroke:none"
           d="m 258.96875,188.09375 -1.6875,15.03125 8.8125,0 0.8125,-7.21875 49.15625,0 -64.375,56.5625 -1.125,10.15625 69.4375,0 1.71875,-15 -8.84375,0 -0.8125,7.21875 -49.84375,0 65.15625,-57.25 1.0625,-9.5 z"
           transform="matrix(0.8,0,0,-0.8,0,360)"
           id="path4177"
           inkscape:connector-curvature="0"
           sodipodi:nodetypes="ccccccccccccccc" /><path
           style="fill:#343434;fill-opacity:1;fill-rule:nonzero;stroke:none"
           d="m 437.6875,187.09375 c -8.27432,-0.007 -17.78008,3.09949 -24.8125,12.46875 l 1.3125,-11.53125 -3.53125,0 c 0,0 -2.33,4.3125 -12.5625,4.3125 l -0.375,3.28125 5,0 -7.125,62.96875 -3.1875,0 -0.375,4 c 5.60417,0 11.20833,0 16.8125,0 l 0.40625,-4 -3.0625,0 5.65625,-49.90625 c 12.7,-16.565 29.3025,-17.9125 34.625,-10.625 3.57625,4.9 2.1,12.96125 0.9375,23.3125 -1.29662,12.09064 -2.74187,24.51096 -4.1875,37.21875 l -2.90625,0 -0.375,4 16.84375,0 0.375,-4 -3.375,0 2.34375,-20.65625 2.03125,-17.4375 c 1.6825,-13.91625 3.86375,-20.805 -4.03125,-28.3125 -2.79902,-2.66191 -9.13663,-5.08768 -16.4375,-5.09375 z"
           id="path4179"
           transform="matrix(0.8,0,0,-0.8,0,360)"
           inkscape:connector-curvature="0"
           sodipodi:nodetypes="sccccccccccccccccccccccccs" /><path
           inkscape:connector-curvature="0"
           id="path4181"
           style="fill:#343434;fill-opacity:1;fill-rule:nonzero;stroke:none"
           d="m 474.752,197.125 c 3.51,-0.98 5.908,-4.918 3.527,-8.059 -3.367,-4.441 -21.423,-2.076 -21.423,-2.076 1.681,7.461 10.171,12.291 17.896,10.135 m 12.148,6.479 c -4.523,3.595 -9.304,6.128 -16.232,6.128 -7.314,0 -13.76,-2.775 -19.332,-8.326 -5.574,-5.551 -9.049,-12.666 -10.422,-21.343 -1.414,-8.926 0.09,-16.188 4.512,-21.795 4.422,-5.604 12.123,-8.379 20.597,-8.379 4.961,0 11.18,1.271 18.479,3.382 l 2.344,14.108 c -8.076,-3.149 -11.973,-3.524 -16.506,-3.99 -8.582,-0.883 -16.014,2.209 -15.307,11.64 0,0 23.176,-5.566 33.133,4.235 6.475,6.373 6.559,18.119 -1.266,24.34" /><path
           style="fill:#343434;fill-opacity:1;fill-rule:nonzero;stroke:none"
           d="m 474.0625,188.03125 -0.6875,7.125 3.46875,0 -6.8125,60.3125 -3.40625,0 -0.6875,7.125 28.90625,0 0.6875,-7.125 -3.4375,0 2.59375,-22.84375 20.40625,0 -2.59375,22.84375 -3.40625,0 -0.6875,7.125 28.90625,0 0.6875,-7.125 -3.4375,0 6.8125,-60.3125 3.40625,0 0.6875,-7.125 -28.9375,0 -0.6875,7.125 3.46875,0 -2.59375,22.84375 -20.40625,0 2.59375,-22.84375 3.40625,0 0.6875,-7.125 z"
           transform="matrix(0.8,0,0,-0.8,0,360)"
           id="path4183"
           inkscape:connector-curvature="0"
           sodipodi:nodetypes="ccccccccccccccccccccccccccccc" /><path
           style="fill:#343434;fill-opacity:1;fill-rule:nonzero;stroke:none"
           d="m 626.15625,187.96875 -0.6875,7.09375 3.46875,0 -6.8125,60.3125 -3.40625,0 -0.6875,7.125 28.90625,0 0.6875,-7.125 -3.46875,0 1.34375,-12 10.75,-9.75 14.25,21.8125 -6.75,0 -0.6875,7.125 39.71875,0.0312 -0.21875,-0.28125 0.65625,-6.84375 -5.9375,0 -26.78125,-34.8125 28.03125,-25.46875 7.15625,0 0.6875,-7.125 -39.46875,-0.0312 -0.6875,7.125 6,0 -23.84375,22.875 2.59375,-22.96875 3.40625,0 0.6875,-7.09375 z"
           transform="matrix(0.8,0,0,-0.8,0,360)"
           id="path4185"
           inkscape:connector-curvature="0"
           sodipodi:nodetypes="cccccccccccccccccccccccccccccc" /></g></g><g
       id="g4214"
       transform="matrix(3.4718689,0,0,3.4718689,-48.096071,-64.783056)"><g
         id="g4226"
         transform="translate(410.59363,367.57906)"><path
           inkscape:connector-curvature="0"
           id="path4238"
           style="fill:#343434;fill-opacity:1;fill-rule:nonzero;stroke:none"
           d="m 312.31166,198.85528 c 3.73166,-1.04189 6.2811,-5.22857 3.74973,-8.56793 -3.57962,-4.72145 -22.77587,-2.20709 -22.77587,-2.20709 1.78717,7.93216 10.81331,13.06717 19.02614,10.77502 m 12.91515,6.88815 c -4.80863,3.82203 -9.89155,6.51498 -17.25705,6.51498 -7.77588,0 -14.62895,-2.95024 -20.55282,-8.85178 -5.926,-5.90155 -9.62044,-13.46586 -11.08015,-22.69081 -1.50329,-9.48969 0.0957,-17.21028 4.79693,-23.17136 4.70125,-5.95789 12.88857,-8.90813 21.8977,-8.90813 5.27429,0 11.88602,1.35126 19.64595,3.59556 l 2.49203,14.99893 c -8.586,-3.34786 -12.72909,-3.74654 -17.54836,-4.24197 -9.12396,-0.93876 -17.02528,2.3485 -16.27364,12.37507 0,0 24.63957,-5.91749 35.22536,4.50244 6.88389,6.77546 6.9732,19.26322 -1.34595,25.87707" /><path
           sodipodi:nodetypes="ccccccccccccccccccccccccccccc"
           inkscape:connector-curvature="0"
           id="path4283"
           d="m 216.61942,209.99958 -0.55,-5.7 2.775,0 -5.45,-48.25 -2.725,0 -0.55,-5.7 23.125,0 0.55,5.7 -2.75,0 2.075,18.275 16.325,0 -2.075,-18.275 -2.725,0 -0.55,-5.7 23.125,0 0.55,5.7 -2.75,0 5.45,48.25 2.725,0 0.55,5.7 -23.15,0 -0.55,-5.7 2.775,0 -2.075,-18.275 -16.325,0 2.075,18.275 2.725,0 0.55,5.7 z"
           style="fill:#343434;fill-opacity:1;fill-rule:nonzero;stroke:none" /><path
           sodipodi:nodetypes="ccccccccccccccccccccccccccccc"
           inkscape:connector-curvature="0"
           id="path4285"
           d="m 216.61942,209.99958 -0.55,-5.7 2.775,0 -5.45,-48.25 -2.725,0 -0.55,-5.7 23.125,0 0.55,5.7 -2.75,0 2.075,18.275 16.325,0 -2.075,-18.275 -2.725,0 -0.55,-5.7 23.125,0 0.55,5.7 -2.75,0 5.45,48.25 2.725,0 0.55,5.7 -23.15,0 -0.55,-5.7 2.775,0 -2.075,-18.275 -16.325,0 2.075,18.275 2.725,0 0.55,5.7 z"
           style="fill:#343434;fill-opacity:1;fill-rule:nonzero;stroke:none" /><path
           style="fill:#343434;fill-opacity:1;fill-rule:nonzero;stroke:none"
           d="m 340.23538,210.04958 -0.55,-5.675 2.775,0 -5.45,-48.25 -2.725,0 -0.55,-5.7 23.125,0 0.55,5.7 -2.775,0 1.075,9.6 8.6,7.8 11.4,-17.45 -5.4,0 -0.55,-5.7 31.775,-0.025 -0.175,0.225 0.525,5.475 -4.75,0 -21.425,27.85 22.425,20.375 5.725,0 0.55,5.7 -31.575,0.025 -0.55,-5.7 4.8,0 -19.075,-18.3 2.075,18.375 2.725,0 0.55,5.675 z"
           id="path4242"
           inkscape:connector-curvature="0"
           sodipodi:nodetypes="cccccccccccccccccccccccccccccc" /><g
           id="g4270"
           transform="translate(70.987019,67.976445)"
           style="fill:#343434;fill-opacity:1"><path
             sodipodi:nodetypes="ccccccccccc"
             inkscape:connector-curvature="0"
             id="path4262"
             d="m 216.61942,209.99957 57.125,0 -1.19339,-12.36788 -41.50607,-35.5057 37.31078,1e-5 -1.13632,-11.77642 -57.1,0 1.13198,11.73144 41.90136,36.40365 -37.83398,0 z"
             style="fill:#343434;fill-opacity:1;fill-rule:evenodd;stroke:none;stroke-width:0.23042345px;stroke-linecap:butt;stroke-linejoin:miter;stroke-opacity:1" /><path
             style="fill:#343434;fill-opacity:1;fill-rule:evenodd;stroke:none;stroke-width:0.23042345px;stroke-linecap:butt;stroke-linejoin:miter;stroke-opacity:1"
             d="m 216.61942,209.99957 -1.89134,-16.74437 13.07593,0 1.89134,16.74437 z"
             id="path4268"
             inkscape:connector-curvature="0"
             sodipodi:nodetypes="ccccc" /><path
             sodipodi:nodetypes="ccccc"
             inkscape:connector-curvature="0"
             id="path4250"
             d="m 256.56363,167.47816 -1.93474,-17.12858 12.59053,0 1.93474,17.12858 z"
             style="fill:#343434;fill-opacity:1;fill-rule:evenodd;stroke:none;stroke-width:0.23042345px;stroke-linecap:butt;stroke-linejoin:miter;stroke-opacity:1" /></g><g
           id="g4339"
           transform="translate(-79.702672,10.497251)"><path
             inkscape:connector-curvature="0"
             id="path4343"
             d="m 344.24499,78.291044 -0.55,-5.69999 23.15,0 0.55,5.69999 z"
             style="fill:#343434;fill-opacity:1;fill-rule:evenodd;stroke:none;stroke-width:0.23042345px;stroke-linecap:butt;stroke-linejoin:miter;stroke-opacity:1" /><path
             inkscape:connector-curvature="0"
             id="path4345"
             d="m 344.24499,78.291044 -0.55,-5.69999 23.15,0 0.55,5.69999 z"
             style="fill:#343434;fill-opacity:1;fill-rule:evenodd;stroke:none;stroke-width:0.23042345px;stroke-linecap:butt;stroke-linejoin:miter;stroke-opacity:1" /><path
             inkscape:connector-curvature="0"
             id="path4347"
             d="m 344.24499,78.291044 -0.55,-5.69999 23.15,0 0.55,5.69999 z"
             style="fill:#343434;fill-opacity:1;fill-rule:evenodd;stroke:none;stroke-width:0.23042345px;stroke-linecap:butt;stroke-linejoin:miter;stroke-opacity:1" /><path
             inkscape:connector-curvature="0"
             id="path4388"
             d="m 344.24499,78.291044 -0.55,-5.69999 23.15,0 0.55,5.69999 z"
             style="fill:#343434;fill-opacity:1;fill-rule:evenodd;stroke:none;stroke-width:0.23042345px;stroke-linecap:butt;stroke-linejoin:miter;stroke-opacity:1" /><path
             inkscape:connector-curvature="0"
             id="path4390"
             d="m 344.24499,78.291044 -0.55,-5.69999 23.15,0 0.55,5.69999 z"
             style="fill:#343434;fill-opacity:1;fill-rule:evenodd;stroke:none;stroke-width:0.23042345px;stroke-linecap:butt;stroke-linejoin:miter;stroke-opacity:1" /><path
             inkscape:connector-curvature="0"
             id="path4392"
             d="m 344.24499,78.34865 -0.55,-5.69999 23.15,0 0.55,5.69999 z"
             style="fill:#343434;fill-opacity:1;fill-rule:evenodd;stroke:none;stroke-width:0.23042345px;stroke-linecap:butt;stroke-linejoin:miter;stroke-opacity:1" /><path
             inkscape:connector-curvature="0"
             id="path4394"
             d="m 344.24499,78.291044 -0.55,-5.69999 23.15,0 0.55,5.69999 z"
             style="fill:#343434;fill-opacity:1;fill-rule:evenodd;stroke:none;stroke-width:0.23042345px;stroke-linecap:butt;stroke-linejoin:miter;stroke-opacity:1" /><g
             id="g4400"><path
               inkscape:connector-curvature="0"
               id="path4363"
               d="m 384.26691,132.24105 -0.55,-5.69999 23.15,0 0.55,5.69999 z"
               style="fill:#343434;fill-opacity:1;fill-rule:evenodd;stroke:none;stroke-width:0.23042345px;stroke-linecap:butt;stroke-linejoin:miter;stroke-opacity:1" /><path
               sodipodi:nodetypes="ccccc"
               style="fill:#343434;fill-opacity:1;fill-rule:evenodd;stroke:none;stroke-width:0.23042345px;stroke-linecap:butt;stroke-linejoin:miter;stroke-opacity:1"
               d="m 350.29191,132.24104 -0.55,-5.69999 14.19813,0 0.55,5.69999 z"
               id="path4349"
               inkscape:connector-curvature="0" /><path
               style="fill:#343434;fill-opacity:1;fill-rule:evenodd;stroke:none;stroke-width:0.23042345px;stroke-linecap:butt;stroke-linejoin:miter;stroke-opacity:1"
               d="m 353.08883,132.24104 -6.73767,-59.649991 17.65,0 5.46783,49.091531 -6.31276,10.55846 z"
               id="path4365"
               inkscape:connector-curvature="0"
               sodipodi:nodetypes="cccccc" /><path
               sodipodi:nodetypes="cccccc"
               inkscape:connector-curvature="0"
               id="path4353"
               d="m 387.06383,132.24105 -5.02482,-44.4858 7.24852,-15.164189 8.68863,0 6.64383,59.649989 z"
               style="fill:#343434;fill-opacity:1;fill-rule:evenodd;stroke:none;stroke-width:0.23042345px;stroke-linecap:butt;stroke-linejoin:miter;stroke-opacity:1" /><path
               sodipodi:nodetypes="ccccccc"
               inkscape:connector-curvature="0"
               id="path4382"
               d="m 362.08472,121.97257 18.17638,-49.381513 16.21012,0 -8.80921,13.169587 -17.94717,46.480366 -7.35005,3e-5 z"
               style="fill:#343434;fill-opacity:1;fill-rule:evenodd;stroke:none;stroke-width:0.23042345px;stroke-linecap:butt;stroke-linejoin:miter;stroke-opacity:1" /></g></g></g></g><g
       transform="matrix(3.4718689,0,0,3.4718689,-48.096071,1568.5184)"
       id="g3362"><g
         id="g3364"><path
           sodipodi:nodetypes="cscsccccccscsccc"
           inkscape:connector-curvature="0"
           id="path3366"
           transform="matrix(0.8,0,0,-0.8,0,360)"
           d="m 153.875,164.6875 c -9.96625,0 -20.0575,2.4725 -29.375,7.6875 -29.06,16.265 -39.4525,53.0025 -23.1875,82.0625 11.0475,19.74375 31.56375,30.875 52.6875,30.875 9.96625,0 20.0575,-2.4725 29.375,-7.6875 29.0625,-16.265 39.45125,-53 23.1875,-82.0625 -11.05,-19.7425 -31.565,-30.8775 -52.6875,-30.875 z m 13.53125,8.4375 c 13.95327,3.63735 26.09745,12.79546 33.3125,25.6875 14.43125,25.79 5.1975,58.535 -20.59375,72.96875 -5.15511,2.54992 -9.17069,4.44108 -15.66902,5.31738 -5.00337,0.67471 -16.36507,0.80086 -22.04973,-9.28613 -10.415,-18.66 12.29125,-33.34875 23.65625,-43.78125 9.85625,-9.0475 14.0775,-16.2975 15.09375,-24.34375 0.98125,-7.77625 -1.99875,-16.22125 -7.875,-22.15625 -1.65443,-1.6713 -3.64223,-3.13295 -5.875,-4.40625 z"
           style="fill:#393768;fill-opacity:1;fill-rule:nonzero;stroke:none" /><path
           d="m 138.8809,211.3437 c 4.879,-8.717 1.768,-19.74 -6.951,-24.621 -8.717,-4.877 -19.742,-1.766 -24.619,6.953 -4.881,8.719 -1.768,19.742 6.951,24.619 8.719,4.879 19.74,1.768 24.619,-6.951"
           style="fill:#ffffff;fill-opacity:1;fill-rule:nonzero;stroke:none"
           id="path3368"
           inkscape:connector-curvature="0" /><path
           d="m 138.4102,208.584 c 3.252,-5.811 1.178,-13.16 -4.635,-16.412 -5.812,-3.254 -13.16,-1.178 -16.412,4.635 -3.254,5.812 -1.18,13.16 4.633,16.412 5.812,3.254 13.16,1.179 16.414,-4.635"
           style="fill:#3bade2;fill-opacity:1;fill-rule:nonzero;stroke:none"
           id="path3370"
           inkscape:connector-curvature="0" /><path
           d="m 134.3223,204.5703 c 1.221,-2.18 0.443,-4.934 -1.738,-6.154 -2.18,-1.221 -4.934,-0.442 -6.153,1.738 -1.22,2.178 -0.443,4.934 1.737,6.152 2.179,1.223 4.935,0.444 6.154,-1.736"
           style="fill:#373535;fill-opacity:1;fill-rule:nonzero;stroke:none"
           id="path3372"
           inkscape:connector-curvature="0" /></g><g
         id="g3374"><g
           id="g4192"><path
             inkscape:connector-curvature="0"
             id="path3376"
             style="fill:#343434;fill-opacity:1;fill-rule:nonzero;stroke:none"
             d="m 299.7324,201.6992 c 8.541,-3.367 9.846,-13.146 5.248,-17.049 -7.162,-6.076 -33.738,-1.451 -33.738,-1.451 2.226,9.008 11.148,25.332 28.49,18.5 m 9.258,1.211 c -3.994,4.176 -8.377,7.062 -16.869,6.822 -7.313,-0.209 -13.76,-2.775 -19.332,-8.326 -5.575,-5.551 -9.049,-12.666 -10.422,-21.344 -1.414,-8.925 0.09,-16.187 4.511,-21.795 4.422,-5.603 12.124,-8.379 20.598,-8.379 4.961,0 11.998,1.077 18.533,3.702 l 1.35,7.714 c -8.076,-3.148 -13.691,-4.234 -18.016,-4.234 -11.248,0 -21.345,5.024 -19.172,19.365 0,0 30.131,-6.472 39.293,3.053 5.825,6.055 6.696,15.926 -0.474,23.422" /><path
             style="fill:#343434;fill-opacity:1;fill-rule:nonzero;stroke:none"
             d="m 258.96875,188.09375 -1.6875,15.03125 8.8125,0 0.8125,-7.21875 49.15625,0 -64.375,56.5625 -1.125,10.15625 69.4375,0 1.71875,-15 -8.84375,0 -0.8125,7.21875 -49.84375,0 65.15625,-57.25 1.0625,-9.5 z"
             transform="matrix(0.8,0,0,-0.8,0,360)"
             id="path3378"
             inkscape:connector-curvature="0"
             sodipodi:nodetypes="ccccccccccccccc" /><path
             style="fill:#343434;fill-opacity:1;fill-rule:nonzero;stroke:none"
             d="m 351.53255,210.325 c -6.61946,0.006 -14.22407,-2.47959 -19.85,-9.975 l 1.05,9.225 -2.825,0 c 0,0 -1.864,-3.45 -10.05,-3.45 l -0.3,-2.625 4,0 -5.7,-50.375 -2.55,0 -0.3,-3.2 c 4.48333,0 8.96666,0 13.45,0 l 0.325,3.2 -2.45,0 4.525,39.925 c 10.16,13.252 23.442,14.33 27.7,8.5 2.861,-3.92 1.68,-10.369 0.75,-18.65 -1.0373,-9.67251 -2.1935,-19.60877 -3.35,-29.775 l -2.325,0 -0.3,-3.2 13.475,0 0.3,3.2 -2.7,0 1.875,16.525 1.625,13.95 c 1.346,11.133 3.091,16.644 -3.225,22.65 -2.23922,2.12953 -7.30931,4.07014 -13.15,4.075 z"
             id="path3380"
             inkscape:connector-curvature="0"
             sodipodi:nodetypes="sccccccccccccccccccccccccs" /></g><g
           id="g4187"><path
             inkscape:connector-curvature="0"
             id="path3382"
             style="fill:#343434;fill-opacity:1;fill-rule:nonzero;stroke:none"
             d="m 484.42985,197.125 c 3.51,-0.98 5.908,-4.918 3.527,-8.059 -3.367,-4.441 -21.423,-2.076 -21.423,-2.076 1.681,7.461 10.171,12.291 17.896,10.135 m 12.148,6.479 c -4.523,3.595 -9.304,6.128 -16.232,6.128 -7.314,0 -13.76,-2.775 -19.332,-8.326 -5.574,-5.551 -9.049,-12.666 -10.422,-21.343 -1.414,-8.926 0.09,-16.188 4.512,-21.795 4.422,-5.604 12.123,-8.379 20.597,-8.379 4.961,0 11.18,1.271 18.479,3.382 l 2.344,14.108 c -8.076,-3.149 -11.973,-3.524 -16.506,-3.99 -8.582,-0.883 -16.014,2.209 -15.307,11.64 0,0 23.176,-5.566 33.133,4.235 6.475,6.373 6.559,18.119 -1.266,24.34" /><path
             style="fill:#343434;fill-opacity:1;fill-rule:nonzero;stroke:none"
             d="m 389.84955,209.575 -0.55,-5.7 2.775,0 -5.45,-48.25 -2.725,0 -0.55,-5.7 23.125,0 0.55,5.7 -2.75,0 2.075,18.275 16.325,0 -2.075,-18.275 -2.725,0 -0.55,-5.7 23.125,0 0.55,5.7 -2.75,0 5.45,48.25 2.725,0 0.55,5.7 -23.15,0 -0.55,-5.7 2.775,0 -2.075,-18.275 -16.325,0 2.075,18.275 2.725,0 0.55,5.7 z"
             id="path3384"
             inkscape:connector-curvature="0"
             sodipodi:nodetypes="ccccccccccccccccccccccccccccc" /><path
             style="fill:#343434;fill-opacity:1;fill-rule:nonzero;stroke:none"
             d="m 510.60285,209.625 -0.55,-5.675 2.775,0 -5.45,-48.25 -2.725,0 -0.55,-5.7 23.125,0 0.55,5.7 -2.775,0 1.075,9.6 8.6,7.8 11.4,-17.45 -5.4,0 -0.55,-5.7 31.775,-0.025 -0.175,0.225 0.525,5.475 -4.75,0 -21.425,27.85 22.425,20.375 5.725,0 0.55,5.7 -31.575,0.025 -0.55,-5.7 4.8,0 -19.075,-18.3 2.075,18.375 2.725,0 0.55,5.675 z"
             id="path3386"
             inkscape:connector-curvature="0"
             sodipodi:nodetypes="cccccccccccccccccccccccccccccc" /></g></g></g><g
       id="g3400"
       transform="matrix(1.1006548,0,0,1.1006548,-5.4079319,-3.806913)"><g
         transform="matrix(0.71994731,0,0,0.7234792,-645.37893,164.65498)"
         id="g3334"><path
           style="fill:#393768;fill-opacity:1;fill-rule:nonzero;stroke:none"
           d="m 153.875,164.6875 c -9.96625,0 -20.0575,2.4725 -29.375,7.6875 -29.06,16.265 -39.4525,53.0025 -23.1875,82.0625 11.0475,19.74375 31.56375,30.875 52.6875,30.875 9.96625,0 20.0575,-2.4725 29.375,-7.6875 29.0625,-16.265 39.45125,-53 23.1875,-82.0625 -11.05,-19.7425 -31.565,-30.8775 -52.6875,-30.875 z m 13.53125,8.4375 c 13.95327,3.63735 26.09745,12.79546 33.3125,25.6875 14.43125,25.79 5.1975,58.535 -20.59375,72.96875 -5.15511,2.54992 -9.17069,4.44108 -15.66902,5.31738 -5.00337,0.67471 -16.36507,0.80086 -22.04973,-9.28613 -10.415,-18.66 12.29125,-33.34875 23.65625,-43.78125 9.85625,-9.0475 14.0775,-16.2975 15.09375,-24.34375 0.98125,-7.77625 -1.99875,-16.22125 -7.875,-22.15625 -1.65443,-1.6713 -3.64223,-3.13295 -5.875,-4.40625 z"
           transform="matrix(0.8,0,0,-0.8,0,360)"
           id="path24"
           inkscape:connector-curvature="0"
           sodipodi:nodetypes="cscsccccccscsccc" /><path
           inkscape:connector-curvature="0"
           id="path32"
           style="fill:#ffffff;fill-opacity:1;fill-rule:nonzero;stroke:none"
           d="m 138.8809,211.3437 c 4.879,-8.717 1.768,-19.74 -6.951,-24.621 -8.717,-4.877 -19.742,-1.766 -24.619,6.953 -4.881,8.719 -1.768,19.742 6.951,24.619 8.719,4.879 19.74,1.768 24.619,-6.951" /><path
           inkscape:connector-curvature="0"
           id="path36"
           style="fill:#3bade2;fill-opacity:1;fill-rule:nonzero;stroke:none"
           d="m 138.4102,208.584 c 3.252,-5.811 1.178,-13.16 -4.635,-16.412 -5.812,-3.254 -13.16,-1.178 -16.412,4.635 -3.254,5.812 -1.18,13.16 4.633,16.412 5.812,3.254 13.16,1.179 16.414,-4.635" /><path
           inkscape:connector-curvature="0"
           id="path40"
           style="fill:#373535;fill-opacity:1;fill-rule:nonzero;stroke:none"
           d="m 134.3223,204.5703 c 1.221,-2.18 0.443,-4.934 -1.738,-6.154 -2.18,-1.221 -4.934,-0.442 -6.153,1.738 -1.22,2.178 -0.443,4.934 1.737,6.152 2.179,1.223 4.935,0.444 6.154,-1.736" /></g><g
         transform="matrix(0.22829255,0,0,0.22829255,-644.3746,204.54632)"
         id="g3340"><path
           inkscape:connector-curvature="0"
           id="path44"
           style="fill:#343434;fill-opacity:1;fill-rule:nonzero;stroke:none"
           d="m 299.7324,201.6992 c 8.541,-3.367 9.846,-13.146 5.248,-17.049 -7.162,-6.076 -33.738,-1.451 -33.738,-1.451 2.226,9.008 11.148,25.332 28.49,18.5 m 9.258,1.211 c -3.994,4.176 -8.377,7.062 -16.869,6.822 -7.313,-0.209 -13.76,-2.775 -19.332,-8.326 -5.575,-5.551 -9.049,-12.666 -10.422,-21.344 -1.414,-8.925 0.09,-16.187 4.511,-21.795 4.422,-5.603 12.124,-8.379 20.598,-8.379 4.961,0 11.998,1.077 18.533,3.702 l 1.35,7.714 c -8.076,-3.148 -13.691,-4.234 -18.016,-4.234 -11.248,0 -21.345,5.024 -19.172,19.365 0,0 30.131,-6.472 39.293,3.053 5.825,6.055 6.696,15.926 -0.474,23.422" /><path
           style="fill:#343434;fill-opacity:1;fill-rule:nonzero;stroke:none"
           d="m 258.96875,188.09375 -1.6875,15.03125 8.8125,0 0.8125,-7.21875 49.15625,0 -64.375,56.5625 -1.125,10.15625 69.4375,0 1.71875,-15 -8.84375,0 -0.8125,7.21875 -49.84375,0 65.15625,-57.25 1.0625,-9.5 z"
           transform="matrix(0.8,0,0,-0.8,0,360)"
           id="path48"
           inkscape:connector-curvature="0"
           sodipodi:nodetypes="ccccccccccccccc" /><path
           style="fill:#343434;fill-opacity:1;fill-rule:nonzero;stroke:none"
           d="m 437.6875,187.09375 c -8.27432,-0.007 -17.78008,3.09949 -24.8125,12.46875 l 1.3125,-11.53125 -3.53125,0 c 0,0 -2.33,4.3125 -12.5625,4.3125 l -0.375,3.28125 5,0 -7.125,62.96875 -3.1875,0 -0.375,4 c 5.60417,0 11.20833,0 16.8125,0 l 0.40625,-4 -3.0625,0 5.65625,-49.90625 c 12.7,-16.565 29.3025,-17.9125 34.625,-10.625 3.57625,4.9 2.1,12.96125 0.9375,23.3125 -1.29662,12.09064 -2.74187,24.51096 -4.1875,37.21875 l -2.90625,0 -0.375,4 16.84375,0 0.375,-4 -3.375,0 2.34375,-20.65625 2.03125,-17.4375 c 1.6825,-13.91625 3.86375,-20.805 -4.03125,-28.3125 -2.79902,-2.66191 -9.13663,-5.08768 -16.4375,-5.09375 z"
           id="path80"
           transform="matrix(0.8,0,0,-0.8,0,360)"
           inkscape:connector-curvature="0"
           sodipodi:nodetypes="sccccccccccccccccccccccccs" /><path
           inkscape:connector-curvature="0"
           id="path100"
           style="fill:#343434;fill-opacity:1;fill-rule:nonzero;stroke:none"
           d="m 474.752,197.125 c 3.51,-0.98 5.908,-4.918 3.527,-8.059 -3.367,-4.441 -21.423,-2.076 -21.423,-2.076 1.681,7.461 10.171,12.291 17.896,10.135 m 12.148,6.479 c -4.523,3.595 -9.304,6.128 -16.232,6.128 -7.314,0 -13.76,-2.775 -19.332,-8.326 -5.574,-5.551 -9.049,-12.666 -10.422,-21.343 -1.414,-8.926 0.09,-16.188 4.512,-21.795 4.422,-5.604 12.123,-8.379 20.597,-8.379 4.961,0 11.18,1.271 18.479,3.382 l 2.344,14.108 c -8.076,-3.149 -11.973,-3.524 -16.506,-3.99 -8.582,-0.883 -16.014,2.209 -15.307,11.64 0,0 23.176,-5.566 33.133,4.235 6.475,6.373 6.559,18.119 -1.266,24.34" /><path
           style="fill:#343434;fill-opacity:1;fill-rule:nonzero;stroke:none"
           d="m 474.0625,188.03125 -0.6875,7.125 3.46875,0 -6.8125,60.3125 -3.40625,0 -0.6875,7.125 28.90625,0 0.6875,-7.125 -3.4375,0 2.59375,-22.84375 20.40625,0 -2.59375,22.84375 -3.40625,0 -0.6875,7.125 28.90625,0 0.6875,-7.125 -3.4375,0 6.8125,-60.3125 3.40625,0 0.6875,-7.125 -28.9375,0 -0.6875,7.125 3.46875,0 -2.59375,22.84375 -20.40625,0 2.59375,-22.84375 3.40625,0 0.6875,-7.125 z"
           transform="matrix(0.8,0,0,-0.8,0,360)"
           id="path104"
           inkscape:connector-curvature="0"
           sodipodi:nodetypes="ccccccccccccccccccccccccccccc" /><path
           style="fill:#343434;fill-opacity:1;fill-rule:nonzero;stroke:none"
           d="m 626.15625,187.96875 -0.6875,7.09375 3.46875,0 -6.8125,60.3125 -3.40625,0 -0.6875,7.125 28.90625,0 0.6875,-7.125 -3.46875,0 1.34375,-12 10.75,-9.75 14.25,21.8125 -6.75,0 -0.6875,7.125 39.71875,0.0312 -0.21875,-0.28125 0.65625,-6.84375 -5.9375,0 -26.78125,-34.8125 28.03125,-25.46875 7.15625,0 0.6875,-7.125 -39.46875,-0.0312 -0.6875,7.125 6,0 -23.84375,22.875 2.59375,-22.96875 3.40625,0 0.6875,-7.09375 z"
           transform="matrix(0.8,0,0,-0.8,0,360)"
           id="path130"
           inkscape:connector-curvature="0"
           sodipodi:nodetypes="cccccccccccccccccccccccccccccc" /></g></g><g
       transform="matrix(1.6775191,0,0,1.7191199,274.73687,249.79692)"
       id="g4656"><path
         inkscape:connector-curvature="0"
         id="path4658"
         style="fill:#343434;fill-opacity:1;fill-rule:nonzero;stroke:none"
         d="m 312.31166,198.85528 c 3.73166,-1.04189 6.2811,-5.22857 3.74973,-8.56793 -3.57962,-4.72145 -22.77587,-2.20709 -22.77587,-2.20709 1.78717,7.93216 10.81331,13.06717 19.02614,10.77502 m 12.91515,6.88815 c -4.80863,3.82203 -9.89155,6.51498 -17.25705,6.51498 -7.77588,0 -14.62895,-2.95024 -20.55282,-8.85178 -5.926,-5.90155 -9.62044,-13.46586 -11.08015,-22.69081 -1.50329,-9.48969 0.0957,-17.21028 4.79693,-23.17136 4.70125,-5.95789 12.88857,-8.90813 21.8977,-8.90813 5.27429,0 11.88602,1.35126 19.64595,3.59556 l 2.49203,14.99893 c -8.586,-3.34786 -12.72909,-3.74654 -17.54836,-4.24197 -9.12396,-0.93876 -17.02528,2.3485 -16.27364,12.37507 0,0 24.63957,-5.91749 35.22536,4.50244 6.88389,6.77546 6.9732,19.26322 -1.34595,25.87707" /><path
         sodipodi:nodetypes="ccccccccccccccccccccccccccccc"
         inkscape:connector-curvature="0"
         id="path4660"
         d="m 216.61942,209.99958 -0.55,-5.7 2.775,0 -5.45,-48.25 -2.725,0 -0.55,-5.7 23.125,0 0.55,5.7 -2.75,0 2.075,18.275 16.325,0 -2.075,-18.275 -2.725,0 -0.55,-5.7 23.125,0 0.55,5.7 -2.75,0 5.45,48.25 2.725,0 0.55,5.7 -23.15,0 -0.55,-5.7 2.775,0 -2.075,-18.275 -16.325,0 2.075,18.275 2.725,0 0.55,5.7 z"
         style="fill:#343434;fill-opacity:1;fill-rule:nonzero;stroke:none" /><path
         sodipodi:nodetypes="ccccccccccccccccccccccccccccc"
         inkscape:connector-curvature="0"
         id="path4662"
         d="m 216.61942,209.99958 -0.55,-5.7 2.775,0 -5.45,-48.25 -2.725,0 -0.55,-5.7 23.125,0 0.55,5.7 -2.75,0 2.075,18.275 16.325,0 -2.075,-18.275 -2.725,0 -0.55,-5.7 23.125,0 0.55,5.7 -2.75,0 5.45,48.25 2.725,0 0.55,5.7 -23.15,0 -0.55,-5.7 2.775,0 -2.075,-18.275 -16.325,0 2.075,18.275 2.725,0 0.55,5.7 z"
         style="fill:#343434;fill-opacity:1;fill-rule:nonzero;stroke:none" /><path
         style="fill:#343434;fill-opacity:1;fill-rule:nonzero;stroke:none"
         d="m 340.23538,210.04958 -0.55,-5.675 2.775,0 -5.45,-48.25 -2.725,0 -0.55,-5.7 23.125,0 0.55,5.7 -2.775,0 1.075,9.6 8.6,7.8 11.4,-17.45 -5.4,0 -0.55,-5.7 31.775,-0.025 -0.175,0.225 0.525,5.475 -4.75,0 -21.425,27.85 22.425,20.375 5.725,0 0.55,5.7 -31.575,0.025 -0.55,-5.7 4.8,0 -19.075,-18.3 2.075,18.375 2.725,0 0.55,5.675 z"
         id="path4664"
         inkscape:connector-curvature="0"
         sodipodi:nodetypes="cccccccccccccccccccccccccccccc" /><g
         id="g4666"
         transform="translate(70.987019,67.976445)"
         style="fill:#343434;fill-opacity:1"><path
           sodipodi:nodetypes="ccccccccccc"
           inkscape:connector-curvature="0"
           id="path4668"
           d="m 216.61942,209.99957 57.125,0 -1.19339,-12.36788 -41.50607,-35.5057 37.31078,1e-5 -1.13632,-11.77642 -57.1,0 1.13198,11.73144 41.90136,36.40365 -37.83398,0 z"
           style="fill:#343434;fill-opacity:1;fill-rule:evenodd;stroke:none;stroke-width:0.23042345px;stroke-linecap:butt;stroke-linejoin:miter;stroke-opacity:1" /><path
           style="fill:#343434;fill-opacity:1;fill-rule:evenodd;stroke:none;stroke-width:0.23042345px;stroke-linecap:butt;stroke-linejoin:miter;stroke-opacity:1"
           d="m 216.61942,209.99957 -1.89134,-16.74437 13.07593,0 1.89134,16.74437 z"
           id="path4670"
           inkscape:connector-curvature="0"
           sodipodi:nodetypes="ccccc" /><path
           sodipodi:nodetypes="ccccc"
           inkscape:connector-curvature="0"
           id="path4672"
           d="m 256.56363,167.47816 -1.93474,-17.12858 12.59053,0 1.93474,17.12858 z"
           style="fill:#343434;fill-opacity:1;fill-rule:evenodd;stroke:none;stroke-width:0.23042345px;stroke-linecap:butt;stroke-linejoin:miter;stroke-opacity:1" /></g><g
         id="g4674"
         transform="translate(-79.702672,10.497251)"><path
           inkscape:connector-curvature="0"
           id="path4676"
           d="m 344.24499,78.291044 -0.55,-5.69999 23.15,0 0.55,5.69999 z"
           style="fill:#343434;fill-opacity:1;fill-rule:evenodd;stroke:none;stroke-width:0.23042345px;stroke-linecap:butt;stroke-linejoin:miter;stroke-opacity:1" /><path
           inkscape:connector-curvature="0"
           id="path4678"
           d="m 344.24499,78.291044 -0.55,-5.69999 23.15,0 0.55,5.69999 z"
           style="fill:#343434;fill-opacity:1;fill-rule:evenodd;stroke:none;stroke-width:0.23042345px;stroke-linecap:butt;stroke-linejoin:miter;stroke-opacity:1" /><path
           inkscape:connector-curvature="0"
           id="path4680"
           d="m 344.24499,78.291044 -0.55,-5.69999 23.15,0 0.55,5.69999 z"
           style="fill:#343434;fill-opacity:1;fill-rule:evenodd;stroke:none;stroke-width:0.23042345px;stroke-linecap:butt;stroke-linejoin:miter;stroke-opacity:1" /><path
           inkscape:connector-curvature="0"
           id="path4682"
           d="m 344.24499,78.291044 -0.55,-5.69999 23.15,0 0.55,5.69999 z"
           style="fill:#343434;fill-opacity:1;fill-rule:evenodd;stroke:none;stroke-width:0.23042345px;stroke-linecap:butt;stroke-linejoin:miter;stroke-opacity:1" /><path
           inkscape:connector-curvature="0"
           id="path4684"
           d="m 344.24499,78.291044 -0.55,-5.69999 23.15,0 0.55,5.69999 z"
           style="fill:#343434;fill-opacity:1;fill-rule:evenodd;stroke:none;stroke-width:0.23042345px;stroke-linecap:butt;stroke-linejoin:miter;stroke-opacity:1" /><path
           inkscape:connector-curvature="0"
           id="path4686"
           d="m 344.24499,78.34865 -0.55,-5.69999 23.15,0 0.55,5.69999 z"
           style="fill:#343434;fill-opacity:1;fill-rule:evenodd;stroke:none;stroke-width:0.23042345px;stroke-linecap:butt;stroke-linejoin:miter;stroke-opacity:1" /><path
           inkscape:connector-curvature="0"
           id="path4688"
           d="m 344.24499,78.291044 -0.55,-5.69999 23.15,0 0.55,5.69999 z"
           style="fill:#343434;fill-opacity:1;fill-rule:evenodd;stroke:none;stroke-width:0.23042345px;stroke-linecap:butt;stroke-linejoin:miter;stroke-opacity:1" /><g
           id="g4690"><path
             inkscape:connector-curvature="0"
             id="path4692"
             d="m 384.26691,132.24105 -0.55,-5.69999 23.15,0 0.55,5.69999 z"
             style="fill:#343434;fill-opacity:1;fill-rule:evenodd;stroke:none;stroke-width:0.23042345px;stroke-linecap:butt;stroke-linejoin:miter;stroke-opacity:1" /><path
             sodipodi:nodetypes="ccccc"
             style="fill:#343434;fill-opacity:1;fill-rule:evenodd;stroke:none;stroke-width:0.23042345px;stroke-linecap:butt;stroke-linejoin:miter;stroke-opacity:1"
             d="m 350.29191,132.24104 -0.55,-5.69999 14.19813,0 0.55,5.69999 z"
             id="path4694"
             inkscape:connector-curvature="0" /><path
             style="fill:#343434;fill-opacity:1;fill-rule:evenodd;stroke:none;stroke-width:0.23042345px;stroke-linecap:butt;stroke-linejoin:miter;stroke-opacity:1"
             d="m 353.08883,132.24104 -6.73767,-59.649991 17.65,0 5.46783,49.091531 -6.31276,10.55846 z"
             id="path4696"
             inkscape:connector-curvature="0"
             sodipodi:nodetypes="cccccc" /><path
             sodipodi:nodetypes="cccccc"
             inkscape:connector-curvature="0"
             id="path4698"
             d="m 387.06383,132.24105 -5.02482,-44.4858 7.24852,-15.164189 8.68863,0 6.64383,59.649989 z"
             style="fill:#343434;fill-opacity:1;fill-rule:evenodd;stroke:none;stroke-width:0.23042345px;stroke-linecap:butt;stroke-linejoin:miter;stroke-opacity:1" /><path
             sodipodi:nodetypes="ccccccc"
             inkscape:connector-curvature="0"
             id="path4700"
             d="m 362.08472,121.97257 18.17638,-49.381513 16.21012,0 -8.80921,13.169587 -17.94717,46.480366 -7.35005,3e-5 z"
             style="fill:#343434;fill-opacity:1;fill-rule:evenodd;stroke:none;stroke-width:0.23042345px;stroke-linecap:butt;stroke-linejoin:miter;stroke-opacity:1" /></g></g></g><g
       transform="matrix(1.6775191,0,0,1.7191199,274.73687,249.79692)"
       id="g4734"><path
         inkscape:connector-curvature="0"
         id="path4736"
         style="fill:#343434;fill-opacity:1;fill-rule:nonzero;stroke:none"
         d="m 312.31166,198.85528 c 3.73166,-1.04189 6.2811,-5.22857 3.74973,-8.56793 -3.57962,-4.72145 -22.77587,-2.20709 -22.77587,-2.20709 1.78717,7.93216 10.81331,13.06717 19.02614,10.77502 m 12.91515,6.88815 c -4.80863,3.82203 -9.89155,6.51498 -17.25705,6.51498 -7.77588,0 -14.62895,-2.95024 -20.55282,-8.85178 -5.926,-5.90155 -9.62044,-13.46586 -11.08015,-22.69081 -1.50329,-9.48969 0.0957,-17.21028 4.79693,-23.17136 4.70125,-5.95789 12.88857,-8.90813 21.8977,-8.90813 5.27429,0 11.88602,1.35126 19.64595,3.59556 l 2.49203,14.99893 c -8.586,-3.34786 -12.72909,-3.74654 -17.54836,-4.24197 -9.12396,-0.93876 -17.02528,2.3485 -16.27364,12.37507 0,0 24.63957,-5.91749 35.22536,4.50244 6.88389,6.77546 6.9732,19.26322 -1.34595,25.87707" /><path
         sodipodi:nodetypes="ccccccccccccccccccccccccccccc"
         inkscape:connector-curvature="0"
         id="path4738"
         d="m 216.61942,209.99958 -0.55,-5.7 2.775,0 -5.45,-48.25 -2.725,0 -0.55,-5.7 23.125,0 0.55,5.7 -2.75,0 2.075,18.275 16.325,0 -2.075,-18.275 -2.725,0 -0.55,-5.7 23.125,0 0.55,5.7 -2.75,0 5.45,48.25 2.725,0 0.55,5.7 -23.15,0 -0.55,-5.7 2.775,0 -2.075,-18.275 -16.325,0 2.075,18.275 2.725,0 0.55,5.7 z"
         style="fill:#343434;fill-opacity:1;fill-rule:nonzero;stroke:none" /><path
         sodipodi:nodetypes="ccccccccccccccccccccccccccccc"
         inkscape:connector-curvature="0"
         id="path4740"
         d="m 216.61942,209.99958 -0.55,-5.7 2.775,0 -5.45,-48.25 -2.725,0 -0.55,-5.7 23.125,0 0.55,5.7 -2.75,0 2.075,18.275 16.325,0 -2.075,-18.275 -2.725,0 -0.55,-5.7 23.125,0 0.55,5.7 -2.75,0 5.45,48.25 2.725,0 0.55,5.7 -23.15,0 -0.55,-5.7 2.775,0 -2.075,-18.275 -16.325,0 2.075,18.275 2.725,0 0.55,5.7 z"
         style="fill:#343434;fill-opacity:1;fill-rule:nonzero;stroke:none" /><path
         style="fill:#343434;fill-opacity:1;fill-rule:nonzero;stroke:none"
         d="m 340.23538,210.04958 -0.55,-5.675 2.775,0 -5.45,-48.25 -2.725,0 -0.55,-5.7 23.125,0 0.55,5.7 -2.775,0 1.075,9.6 8.6,7.8 11.4,-17.45 -5.4,0 -0.55,-5.7 31.775,-0.025 -0.175,0.225 0.525,5.475 -4.75,0 -21.425,27.85 22.425,20.375 5.725,0 0.55,5.7 -31.575,0.025 -0.55,-5.7 4.8,0 -19.075,-18.3 2.075,18.375 2.725,0 0.55,5.675 z"
         id="path4742"
         inkscape:connector-curvature="0"
         sodipodi:nodetypes="cccccccccccccccccccccccccccccc" /><g
         id="g4744"
         transform="translate(70.987019,67.976445)"
         style="fill:#343434;fill-opacity:1"><path
           sodipodi:nodetypes="ccccccccccc"
           inkscape:connector-curvature="0"
           id="path4746"
           d="m 216.61942,209.99957 57.125,0 -1.19339,-12.36788 -41.50607,-35.5057 37.31078,1e-5 -1.13632,-11.77642 -57.1,0 1.13198,11.73144 41.90136,36.40365 -37.83398,0 z"
           style="fill:#343434;fill-opacity:1;fill-rule:evenodd;stroke:none;stroke-width:0.23042345px;stroke-linecap:butt;stroke-linejoin:miter;stroke-opacity:1" /><path
           style="fill:#343434;fill-opacity:1;fill-rule:evenodd;stroke:none;stroke-width:0.23042345px;stroke-linecap:butt;stroke-linejoin:miter;stroke-opacity:1"
           d="m 216.61942,209.99957 -1.89134,-16.74437 13.07593,0 1.89134,16.74437 z"
           id="path4748"
           inkscape:connector-curvature="0"
           sodipodi:nodetypes="ccccc" /><path
           sodipodi:nodetypes="ccccc"
           inkscape:connector-curvature="0"
           id="path4750"
           d="m 256.56363,167.47816 -1.93474,-17.12858 12.59053,0 1.93474,17.12858 z"
           style="fill:#343434;fill-opacity:1;fill-rule:evenodd;stroke:none;stroke-width:0.23042345px;stroke-linecap:butt;stroke-linejoin:miter;stroke-opacity:1" /></g><g
         id="g4752"
         transform="translate(-79.702672,10.497251)"><path
           inkscape:connector-curvature="0"
           id="path4754"
           d="m 344.24499,78.291044 -0.55,-5.69999 23.15,0 0.55,5.69999 z"
           style="fill:#343434;fill-opacity:1;fill-rule:evenodd;stroke:none;stroke-width:0.23042345px;stroke-linecap:butt;stroke-linejoin:miter;stroke-opacity:1" /><path
           inkscape:connector-curvature="0"
           id="path4756"
           d="m 344.24499,78.291044 -0.55,-5.69999 23.15,0 0.55,5.69999 z"
           style="fill:#343434;fill-opacity:1;fill-rule:evenodd;stroke:none;stroke-width:0.23042345px;stroke-linecap:butt;stroke-linejoin:miter;stroke-opacity:1" /><path
           inkscape:connector-curvature="0"
           id="path4758"
           d="m 344.24499,78.291044 -0.55,-5.69999 23.15,0 0.55,5.69999 z"
           style="fill:#343434;fill-opacity:1;fill-rule:evenodd;stroke:none;stroke-width:0.23042345px;stroke-linecap:butt;stroke-linejoin:miter;stroke-opacity:1" /><path
           inkscape:connector-curvature="0"
           id="path4760"
           d="m 344.24499,78.291044 -0.55,-5.69999 23.15,0 0.55,5.69999 z"
           style="fill:#343434;fill-opacity:1;fill-rule:evenodd;stroke:none;stroke-width:0.23042345px;stroke-linecap:butt;stroke-linejoin:miter;stroke-opacity:1" /><path
           inkscape:connector-curvature="0"
           id="path4762"
           d="m 344.24499,78.291044 -0.55,-5.69999 23.15,0 0.55,5.69999 z"
           style="fill:#343434;fill-opacity:1;fill-rule:evenodd;stroke:none;stroke-width:0.23042345px;stroke-linecap:butt;stroke-linejoin:miter;stroke-opacity:1" /><path
           inkscape:connector-curvature="0"
           id="path4764"
           d="m 344.24499,78.34865 -0.55,-5.69999 23.15,0 0.55,5.69999 z"
           style="fill:#343434;fill-opacity:1;fill-rule:evenodd;stroke:none;stroke-width:0.23042345px;stroke-linecap:butt;stroke-linejoin:miter;stroke-opacity:1" /><path
           inkscape:connector-curvature="0"
           id="path4766"
           d="m 344.24499,78.291044 -0.55,-5.69999 23.15,0 0.55,5.69999 z"
           style="fill:#343434;fill-opacity:1;fill-rule:evenodd;stroke:none;stroke-width:0.23042345px;stroke-linecap:butt;stroke-linejoin:miter;stroke-opacity:1" /><g
           id="g4768"><path
             inkscape:connector-curvature="0"
             id="path4770"
             d="m 384.26691,132.24105 -0.55,-5.69999 23.15,0 0.55,5.69999 z"
             style="fill:#343434;fill-opacity:1;fill-rule:evenodd;stroke:none;stroke-width:0.23042345px;stroke-linecap:butt;stroke-linejoin:miter;stroke-opacity:1" /><path
             sodipodi:nodetypes="ccccc"
             style="fill:#343434;fill-opacity:1;fill-rule:evenodd;stroke:none;stroke-width:0.23042345px;stroke-linecap:butt;stroke-linejoin:miter;stroke-opacity:1"
             d="m 350.29191,132.24104 -0.55,-5.69999 14.19813,0 0.55,5.69999 z"
             id="path4772"
             inkscape:connector-curvature="0" /><path
             style="fill:#343434;fill-opacity:1;fill-rule:evenodd;stroke:none;stroke-width:0.23042345px;stroke-linecap:butt;stroke-linejoin:miter;stroke-opacity:1"
             d="m 353.08883,132.24104 -6.73767,-59.649991 17.65,0 5.46783,49.091531 -6.31276,10.55846 z"
             id="path4774"
             inkscape:connector-curvature="0"
             sodipodi:nodetypes="cccccc" /><path
             sodipodi:nodetypes="cccccc"
             inkscape:connector-curvature="0"
             id="path4776"
             d="m 387.06383,132.24105 -5.02482,-44.4858 7.24852,-15.164189 8.68863,0 6.64383,59.649989 z"
             style="fill:#343434;fill-opacity:1;fill-rule:evenodd;stroke:none;stroke-width:0.23042345px;stroke-linecap:butt;stroke-linejoin:miter;stroke-opacity:1" /><path
             sodipodi:nodetypes="ccccccc"
             inkscape:connector-curvature="0"
             id="path4778"
             d="m 362.08472,121.97257 18.17638,-49.381513 16.21012,0 -8.80921,13.169587 -17.94717,46.480366 -7.35005,3e-5 z"
             style="fill:#343434;fill-opacity:1;fill-rule:evenodd;stroke:none;stroke-width:0.23042345px;stroke-linecap:butt;stroke-linejoin:miter;stroke-opacity:1" /></g></g></g><g
       id="g4407"
       transform="matrix(1.6775191,0,0,1.7191199,1154.7369,249.79692)"
       style="fill:#ffffff"><path
         d="m 312.31166,198.85528 c 3.73166,-1.04189 6.2811,-5.22857 3.74973,-8.56793 -3.57962,-4.72145 -22.77587,-2.20709 -22.77587,-2.20709 1.78717,7.93216 10.81331,13.06717 19.02614,10.77502 m 12.91515,6.88815 c -4.80863,3.82203 -9.89155,6.51498 -17.25705,6.51498 -7.77588,0 -14.62895,-2.95024 -20.55282,-8.85178 -5.926,-5.90155 -9.62044,-13.46586 -11.08015,-22.69081 -1.50329,-9.48969 0.0957,-17.21028 4.79693,-23.17136 4.70125,-5.95789 12.88857,-8.90813 21.8977,-8.90813 5.27429,0 11.88602,1.35126 19.64595,3.59556 l 2.49203,14.99893 c -8.586,-3.34786 -12.72909,-3.74654 -17.54836,-4.24197 -9.12396,-0.93876 -17.02528,2.3485 -16.27364,12.37507 0,0 24.63957,-5.91749 35.22536,4.50244 6.88389,6.77546 6.9732,19.26322 -1.34595,25.87707"
         style="fill:#ffffff;fill-opacity:1;fill-rule:nonzero;stroke:none"
         id="path4409"
         inkscape:connector-curvature="0" /><path
         style="fill:#ffffff;fill-opacity:1;fill-rule:nonzero;stroke:none"
         d="m 216.61942,209.99958 -0.55,-5.7 2.775,0 -5.45,-48.25 -2.725,0 -0.55,-5.7 23.125,0 0.55,5.7 -2.75,0 2.075,18.275 16.325,0 -2.075,-18.275 -2.725,0 -0.55,-5.7 23.125,0 0.55,5.7 -2.75,0 5.45,48.25 2.725,0 0.55,5.7 -23.15,0 -0.55,-5.7 2.775,0 -2.075,-18.275 -16.325,0 2.075,18.275 2.725,0 0.55,5.7 z"
         id="path4411"
         inkscape:connector-curvature="0"
         sodipodi:nodetypes="ccccccccccccccccccccccccccccc" /><path
         style="fill:#ffffff;fill-opacity:1;fill-rule:nonzero;stroke:none"
         d="m 216.61942,209.99958 -0.55,-5.7 2.775,0 -5.45,-48.25 -2.725,0 -0.55,-5.7 23.125,0 0.55,5.7 -2.75,0 2.075,18.275 16.325,0 -2.075,-18.275 -2.725,0 -0.55,-5.7 23.125,0 0.55,5.7 -2.75,0 5.45,48.25 2.725,0 0.55,5.7 -23.15,0 -0.55,-5.7 2.775,0 -2.075,-18.275 -16.325,0 2.075,18.275 2.725,0 0.55,5.7 z"
         id="path4413"
         inkscape:connector-curvature="0"
         sodipodi:nodetypes="ccccccccccccccccccccccccccccc" /><path
         sodipodi:nodetypes="cccccccccccccccccccccccccccccc"
         inkscape:connector-curvature="0"
         id="path4415"
         d="m 340.23538,210.04958 -0.55,-5.675 2.775,0 -5.45,-48.25 -2.725,0 -0.55,-5.7 23.125,0 0.55,5.7 -2.775,0 1.075,9.6 8.6,7.8 11.4,-17.45 -5.4,0 -0.55,-5.7 31.775,-0.025 -0.175,0.225 0.525,5.475 -4.75,0 -21.425,27.85 22.425,20.375 5.725,0 0.55,5.7 -31.575,0.025 -0.55,-5.7 4.8,0 -19.075,-18.3 2.075,18.375 2.725,0 0.55,5.675 z"
         style="fill:#ffffff;fill-opacity:1;fill-rule:nonzero;stroke:none" /><g
         style="fill:#ffffff;fill-opacity:1"
         transform="translate(70.987019,67.976445)"
         id="g4417"><path
           style="fill:#ffffff;fill-opacity:1;fill-rule:evenodd;stroke:none;stroke-width:0.23042345px;stroke-linecap:butt;stroke-linejoin:miter;stroke-opacity:1"
           d="m 216.61942,209.99957 57.125,0 -1.19339,-12.36788 -41.50607,-35.5057 37.31078,1e-5 -1.13632,-11.77642 -57.1,0 1.13198,11.73144 41.90136,36.40365 -37.83398,0 z"
           id="path4419"
           inkscape:connector-curvature="0"
           sodipodi:nodetypes="ccccccccccc" /><path
           sodipodi:nodetypes="ccccc"
           inkscape:connector-curvature="0"
           id="path4421"
           d="m 216.61942,209.99957 -1.89134,-16.74437 13.07593,0 1.89134,16.74437 z"
           style="fill:#ffffff;fill-opacity:1;fill-rule:evenodd;stroke:none;stroke-width:0.23042345px;stroke-linecap:butt;stroke-linejoin:miter;stroke-opacity:1" /><path
           style="fill:#ffffff;fill-opacity:1;fill-rule:evenodd;stroke:none;stroke-width:0.23042345px;stroke-linecap:butt;stroke-linejoin:miter;stroke-opacity:1"
           d="m 256.56363,167.47816 -1.93474,-17.12858 12.59053,0 1.93474,17.12858 z"
           id="path4423"
           inkscape:connector-curvature="0"
           sodipodi:nodetypes="ccccc" /></g><g
         transform="translate(-79.702672,10.497251)"
         id="g4425"
         style="fill:#ffffff"><path
           style="fill:#ffffff;fill-opacity:1;fill-rule:evenodd;stroke:none;stroke-width:0.23042345px;stroke-linecap:butt;stroke-linejoin:miter;stroke-opacity:1"
           d="m 344.24499,78.291044 -0.55,-5.69999 23.15,0 0.55,5.69999 z"
           id="path4427"
           inkscape:connector-curvature="0" /><path
           style="fill:#ffffff;fill-opacity:1;fill-rule:evenodd;stroke:none;stroke-width:0.23042345px;stroke-linecap:butt;stroke-linejoin:miter;stroke-opacity:1"
           d="m 344.24499,78.291044 -0.55,-5.69999 23.15,0 0.55,5.69999 z"
           id="path4429"
           inkscape:connector-curvature="0" /><path
           style="fill:#ffffff;fill-opacity:1;fill-rule:evenodd;stroke:none;stroke-width:0.23042345px;stroke-linecap:butt;stroke-linejoin:miter;stroke-opacity:1"
           d="m 344.24499,78.291044 -0.55,-5.69999 23.15,0 0.55,5.69999 z"
           id="path4431"
           inkscape:connector-curvature="0" /><path
           style="fill:#ffffff;fill-opacity:1;fill-rule:evenodd;stroke:none;stroke-width:0.23042345px;stroke-linecap:butt;stroke-linejoin:miter;stroke-opacity:1"
           d="m 344.24499,78.291044 -0.55,-5.69999 23.15,0 0.55,5.69999 z"
           id="path4433"
           inkscape:connector-curvature="0" /><path
           style="fill:#ffffff;fill-opacity:1;fill-rule:evenodd;stroke:none;stroke-width:0.23042345px;stroke-linecap:butt;stroke-linejoin:miter;stroke-opacity:1"
           d="m 344.24499,78.291044 -0.55,-5.69999 23.15,0 0.55,5.69999 z"
           id="path4435"
           inkscape:connector-curvature="0" /><path
           style="fill:#ffffff;fill-opacity:1;fill-rule:evenodd;stroke:none;stroke-width:0.23042345px;stroke-linecap:butt;stroke-linejoin:miter;stroke-opacity:1"
           d="m 344.24499,78.34865 -0.55,-5.69999 23.15,0 0.55,5.69999 z"
           id="path4437"
           inkscape:connector-curvature="0" /><path
           style="fill:#ffffff;fill-opacity:1;fill-rule:evenodd;stroke:none;stroke-width:0.23042345px;stroke-linecap:butt;stroke-linejoin:miter;stroke-opacity:1"
           d="m 344.24499,78.291044 -0.55,-5.69999 23.15,0 0.55,5.69999 z"
           id="path4439"
           inkscape:connector-curvature="0" /><g
           id="g4441"
           style="fill:#ffffff"><path
             style="fill:#ffffff;fill-opacity:1;fill-rule:evenodd;stroke:none;stroke-width:0.23042345px;stroke-linecap:butt;stroke-linejoin:miter;stroke-opacity:1"
             d="m 384.26691,132.24105 -0.55,-5.69999 23.15,0 0.55,5.69999 z"
             id="path4443"
             inkscape:connector-curvature="0" /><path
             inkscape:connector-curvature="0"
             id="path4445"
             d="m 350.29191,132.24104 -0.55,-5.69999 14.19813,0 0.55,5.69999 z"
             style="fill:#ffffff;fill-opacity:1;fill-rule:evenodd;stroke:none;stroke-width:0.23042345px;stroke-linecap:butt;stroke-linejoin:miter;stroke-opacity:1"
             sodipodi:nodetypes="ccccc" /><path
             sodipodi:nodetypes="cccccc"
             inkscape:connector-curvature="0"
             id="path4447"
             d="m 353.08883,132.24104 -6.73767,-59.649991 17.65,0 5.46783,49.091531 -6.31276,10.55846 z"
             style="fill:#ffffff;fill-opacity:1;fill-rule:evenodd;stroke:none;stroke-width:0.23042345px;stroke-linecap:butt;stroke-linejoin:miter;stroke-opacity:1" /><path
             style="fill:#ffffff;fill-opacity:1;fill-rule:evenodd;stroke:none;stroke-width:0.23042345px;stroke-linecap:butt;stroke-linejoin:miter;stroke-opacity:1"
             d="m 387.06383,132.24105 -5.02482,-44.4858 7.24852,-15.164189 8.68863,0 6.64383,59.649989 z"
             id="path4449"
             inkscape:connector-curvature="0"
             sodipodi:nodetypes="cccccc" /><path
             style="fill:#ffffff;fill-opacity:1;fill-rule:evenodd;stroke:none;stroke-width:0.23042345px;stroke-linecap:butt;stroke-linejoin:miter;stroke-opacity:1"
             d="m 362.08472,121.97257 18.17638,-49.381513 16.21012,0 -8.80921,13.169587 -17.94717,46.480366 -7.35005,3e-5 z"
             id="path4451"
             inkscape:connector-curvature="0"
             sodipodi:nodetypes="ccccccc" /></g></g><ellipse
         style="color:#000000;display:inline;overflow:visible;visibility:visible;fill:none;fill-opacity:1;fill-rule:nonzero;stroke:#ffffff;stroke-width:10.87839222;stroke-linecap:butt;stroke-linejoin:miter;stroke-miterlimit:4;stroke-dasharray:none;stroke-dashoffset:0;stroke-opacity:1;marker:none;enable-background:accumulate"
         id="path4782"
         cx="303.93903"
         cy="-179.51666"
         transform="scale(1,-1)"
         rx="118.0111"
         ry="115.15536" /></g><g
       id="g4702"
       transform="matrix(3.4718689,0,0,3.4718689,-48.096068,-64.783054)"><path
         sodipodi:nodetypes="cscsccccccscsccc"
         inkscape:connector-curvature="0"
         id="path4704"
         transform="matrix(0.8,0,0,-0.8,0,360)"
         d="m 153.875,164.6875 c -9.96625,0 -20.0575,2.4725 -29.375,7.6875 -29.06,16.265 -39.4525,53.0025 -23.1875,82.0625 11.0475,19.74375 31.56375,30.875 52.6875,30.875 9.96625,0 20.0575,-2.4725 29.375,-7.6875 29.0625,-16.265 39.45125,-53 23.1875,-82.0625 -11.05,-19.7425 -31.565,-30.8775 -52.6875,-30.875 z m 13.53125,8.4375 c 13.95327,3.63735 26.09745,12.79546 33.3125,25.6875 14.43125,25.79 5.1975,58.535 -20.59375,72.96875 -5.15511,2.54992 -9.17069,4.44108 -15.66902,5.31738 -5.00337,0.67471 -16.36507,0.80086 -22.04973,-9.28613 -10.415,-18.66 12.29125,-33.34875 23.65625,-43.78125 9.85625,-9.0475 14.0775,-16.2975 15.09375,-24.34375 0.98125,-7.77625 -1.99875,-16.22125 -7.875,-22.15625 -1.65443,-1.6713 -3.64223,-3.13295 -5.875,-4.40625 z"
         style="fill:#393768;fill-opacity:1;fill-rule:nonzero;stroke:none" /><path
         d="m 138.8809,211.3437 c 4.879,-8.717 1.768,-19.74 -6.951,-24.621 -8.717,-4.877 -19.742,-1.766 -24.619,6.953 -4.881,8.719 -1.768,19.742 6.951,24.619 8.719,4.879 19.74,1.768 24.619,-6.951"
         style="fill:#ffffff;fill-opacity:1;fill-rule:nonzero;stroke:none"
         id="path4706"
         inkscape:connector-curvature="0" /><path
         d="m 138.4102,208.584 c 3.252,-5.811 1.178,-13.16 -4.635,-16.412 -5.812,-3.254 -13.16,-1.178 -16.412,4.635 -3.254,5.812 -1.18,13.16 4.633,16.412 5.812,3.254 13.16,1.179 16.414,-4.635"
         style="fill:#3bade2;fill-opacity:1;fill-rule:nonzero;stroke:none"
         id="path4708"
         inkscape:connector-curvature="0" /><path
         d="m 134.3223,204.5703 c 1.221,-2.18 0.443,-4.934 -1.738,-6.154 -2.18,-1.221 -4.934,-0.442 -6.153,1.738 -1.22,2.178 -0.443,4.934 1.737,6.152 2.179,1.223 4.935,0.444 6.154,-1.736"
         style="fill:#373535;fill-opacity:1;fill-rule:nonzero;stroke:none"
         id="path4710"
         inkscape:connector-curvature="0" /></g><g
       transform="matrix(3.4718689,0,0,3.4718689,-48.096068,-64.783054)"
       id="g4216"><path
         style="fill:#4d347c;fill-opacity:1;fill-rule:nonzero;stroke:none"
         d="m 153.875,164.6875 c -9.96625,0 -20.0575,2.4725 -29.375,7.6875 -29.06,16.265 -39.4525,53.0025 -23.1875,82.0625 11.0475,19.74375 31.56375,30.875 52.6875,30.875 9.96625,0 20.0575,-2.4725 29.375,-7.6875 29.0625,-16.265 39.45125,-53 23.1875,-82.0625 -11.05,-19.7425 -31.565,-30.8775 -52.6875,-30.875 z m 13.53125,8.4375 c 13.95327,3.63735 26.09745,12.79546 33.3125,25.6875 14.43125,25.79 5.1975,58.535 -20.59375,72.96875 -5.15511,2.54992 -9.17069,4.44108 -15.66902,5.31738 -5.00337,0.67471 -16.36507,0.80086 -22.04973,-9.28613 -10.415,-18.66 12.29125,-33.34875 23.65625,-43.78125 9.85625,-9.0475 14.0775,-16.2975 15.09375,-24.34375 0.98125,-7.77625 -1.99875,-16.22125 -7.875,-22.15625 -1.65443,-1.6713 -3.64223,-3.13295 -5.875,-4.40625 z"
         transform="matrix(0.8,0,0,-0.8,0,360)"
         id="path4218"
         inkscape:connector-curvature="0"
         sodipodi:nodetypes="cscsccccccscsccc" /><path
         inkscape:connector-curvature="0"
         id="path4220"
         style="fill:#ffffff;fill-opacity:1;fill-rule:nonzero;stroke:none"
         d="m 138.8809,211.3437 c 4.879,-8.717 1.768,-19.74 -6.951,-24.621 -8.717,-4.877 -19.742,-1.766 -24.619,6.953 -4.881,8.719 -1.768,19.742 6.951,24.619 8.719,4.879 19.74,1.768 24.619,-6.951" /><path
         inkscape:connector-curvature="0"
         id="path4222"
         style="fill:#3bade2;fill-opacity:1;fill-rule:nonzero;stroke:none"
         d="m 138.4102,208.584 c 3.252,-5.811 1.178,-13.16 -4.635,-16.412 -5.812,-3.254 -13.16,-1.178 -16.412,4.635 -3.254,5.812 -1.18,13.16 4.633,16.412 5.812,3.254 13.16,1.179 16.414,-4.635" /><path
         inkscape:connector-curvature="0"
         id="path4224"
         style="fill:#373535;fill-opacity:1;fill-rule:nonzero;stroke:none"
         d="m 134.3223,204.5703 c 1.221,-2.18 0.443,-4.934 -1.738,-6.154 -2.18,-1.221 -4.934,-0.442 -6.153,1.738 -1.22,2.178 -0.443,4.934 1.737,6.152 2.179,1.223 4.935,0.444 6.154,-1.736" /></g></g></svg>