<?xml version="1.0" encoding="UTF-8" standalone="no"?>
<!-- Created with Inkscape (http://www.inkscape.org/) -->

<svg
   xmlns:dc="http://purl.org/dc/elements/1.1/"
   xmlns:cc="http://creativecommons.org/ns#"
   xmlns:rdf="http://www.w3.org/1999/02/22-rdf-syntax-ns#"
   xmlns:svg="http://www.w3.org/2000/svg"
   xmlns="http://www.w3.org/2000/svg"
   xmlns:sodipodi="http://sodipodi.sourceforge.net/DTD/sodipodi-0.dtd"
   xmlns:inkscape="http://www.inkscape.org/namespaces/inkscape"
   version="1.1"
   id="svg2"
   xml:space="preserve"
   width="1122.52"
   height="793.70135"
   viewBox="0 0 1122.52 793.70135"
   sodipodi:docname="jix_logo.svg"
   inkscape:version="0.92.2 5c3e80d, 2017-08-06"><metadata
     id="metadata8"><rdf:RDF><cc:Work
         rdf:about=""><dc:format>image/svg+xml</dc:format><dc:type
           rdf:resource="http://purl.org/dc/dcmitype/StillImage" /><dc:title></dc:title></cc:Work></rdf:RDF></metadata><defs
     id="defs6"><clipPath
       clipPathUnits="userSpaceOnUse"
       id="clipPath18"><path
         d="M 0,595.276 H 841.89 V 0 H 0 Z"
         id="path16"
         inkscape:connector-curvature="0" /></clipPath></defs><sodipodi:namedview
     pagecolor="#ffffff"
     bordercolor="#666666"
     borderopacity="1"
     objecttolerance="10"
     gridtolerance="10"
     guidetolerance="10"
     inkscape:pageopacity="0"
     inkscape:pageshadow="2"
     inkscape:window-width="1920"
     inkscape:window-height="1036"
     id="namedview4"
     showgrid="false"
     inkscape:zoom="0.29734106"
     inkscape:cx="68.559804"
     inkscape:cy="396.85068"
     inkscape:window-x="0"
     inkscape:window-y="20"
     inkscape:window-maximized="0"
     inkscape:current-layer="g10" /><g
     id="g10"
     inkscape:groupmode="layer"
     inkscape:label="jix_logo"
     transform="matrix(1.3333333,0,0,-1.3333333,0,793.70133)"><g
       id="g12"><g
         id="g14"
         clip-path="url(#clipPath18)"><g
           id="g20"
           transform="translate(398.6592,381.3174)"><path
             d="m 0,0 c 14.517,-0.479 28.435,-2.536 39.89,-12.127 17.944,-15.022 15.611,-44.781 -4.215,-57.198 -12.779,-8.006 -26.762,-9.928 -41.468,-9.012 -12.603,0.78 -24.333,3.917 -34.205,12.151 -17.916,14.95 -15.269,45.434 4.698,57.425 C -24.287,-2.153 -12.259,-0.455 0,0"
             style="fill:#bf1e2d;fill-opacity:1;fill-rule:evenodd;stroke:none"
             id="path22"
             inkscape:connector-curvature="0" /></g><g
           id="g24"
           transform="translate(339.8066,345.2607)"><path
             d="m 0,0 c 0.489,6.325 2.291,12.326 5.16,17.646 h -76.909 v -79.383 c 56.6,0 61.951,-16.384 61.951,-27.969 0,-11.585 -16.338,-19.167 -23.455,-20.325 3.329,4.076 4.976,9.197 4.976,14.698 0,17.212 -20.081,25.817 -36.631,25.817 -16.55,0 -33.762,-11.695 -33.762,-33.542 0,-18.01 18.426,-28.245 52.298,-28.245 31.665,0 56.71,10.592 56.71,41.705 v 58.015 C 2.902,-23.266 -0.917,-11.843 0,0"
             style="fill:#414142;fill-opacity:1;fill-rule:nonzero;stroke:none"
             id="path26"
             inkscape:connector-curvature="0" /></g><path
           d="m 439.734,223.448 h -82.087 v 75.024 h 82.087 z"
           style="fill:#414142;fill-opacity:1;fill-rule:evenodd;stroke:none"
           id="path28"
           inkscape:connector-curvature="0" /><g
           id="g30"
           transform="translate(600.7529,321.0508)"><path
             d="M 0,0 V 41.855 H -62.783 V 10.729 c 0,-15.082 -5.803,-23.83 -13.102,-23.83 -7.299,0 -13.101,8.748 -13.101,23.83 v 31.126 h -59.167 c 3.809,-6.967 5.59,-15.06 5.007,-23.531 -0.579,-8.389 -3.523,-16.276 -8.276,-22.767 1.863,-11.515 11.888,-20.816 42.293,-22.958 v -0.946 c -34.234,-2.412 -42.641,-13.899 -42.641,-27.403 v -41.853 h 62.784 v 31.126 c 0,15.081 5.802,23.83 13.101,23.83 7.299,0 13.102,-8.749 13.102,-23.83 V -97.603 H 0 v 41.853 c 0,13.504 -8.407,24.991 -42.642,27.403 v 0.946 C -8.407,-24.989 0,-13.504 0,0"
             style="fill:#414142;fill-opacity:1;fill-rule:nonzero;stroke:none"
             id="path32"
             inkscape:connector-curvature="0" /></g></g></g></g></svg>