<?xml version="1.0" encoding="UTF-8" standalone="no"?>
<!-- Created with Inkscape (http://www.inkscape.org/) -->

<svg
   xmlns:dc="http://purl.org/dc/elements/1.1/"
   xmlns:cc="http://creativecommons.org/ns#"
   xmlns:rdf="http://www.w3.org/1999/02/22-rdf-syntax-ns#"
   xmlns:svg="http://www.w3.org/2000/svg"
   xmlns="http://www.w3.org/2000/svg"
   xmlns:sodipodi="http://sodipodi.sourceforge.net/DTD/sodipodi-0.dtd"
   xmlns:inkscape="http://www.inkscape.org/namespaces/inkscape"
   version="1.1"
   id="svg2"
   xml:space="preserve"
   width="1440"
   height="900"
   viewBox="0 0 1440 899.99999"
   sodipodi:docname="kreix_logo_showcase.svg"
   inkscape:version="0.92.2 5c3e80d, 2017-08-06"><metadata
     id="metadata8"><rdf:RDF><cc:Work
         rdf:about=""><dc:format>image/svg+xml</dc:format><dc:type
           rdf:resource="http://purl.org/dc/dcmitype/StillImage" /><dc:title></dc:title></cc:Work></rdf:RDF></metadata><defs
     id="defs6"><clipPath
       clipPathUnits="userSpaceOnUse"
       id="clipPath20"><path
         d="M 0,595.276 H 841.89 V 0 H 0 Z"
         id="path18"
         inkscape:connector-curvature="0" /></clipPath><clipPath
       clipPathUnits="userSpaceOnUse"
       id="clipPath48"><path
         d="M 0,595.276 H 841.89 V 0 H 0 Z"
         id="path46"
         inkscape:connector-curvature="0" /></clipPath></defs><sodipodi:namedview
     pagecolor="#ffffff"
     bordercolor="#666666"
     borderopacity="1"
     objecttolerance="10"
     gridtolerance="10"
     guidetolerance="10"
     inkscape:pageopacity="0"
     inkscape:pageshadow="2"
     inkscape:window-width="1920"
     inkscape:window-height="1036"
     id="namedview4"
     showgrid="false"
     inkscape:zoom="0.59468211"
     inkscape:cx="419.40124"
     inkscape:cy="456.43135"
     inkscape:window-x="0"
     inkscape:window-y="20"
     inkscape:window-maximized="0"
     inkscape:current-layer="g10"
     inkscape:snap-page="true" /><g
     id="g10"
     inkscape:groupmode="layer"
     inkscape:label="kreix_logo"
     transform="matrix(1.3333333,0,0,-1.3333333,0,899.99998)"><path
       d="M 0,0 H 1080.0001 V 675.00002 H 0 Z"
       style="fill:#f2f2f2;fill-opacity:1;fill-rule:nonzero;stroke:none;stroke-width:1"
       id="path12"
       inkscape:connector-curvature="0" /><g
       id="g14"><g
         id="g16"
         clip-path="url(#clipPath20)"><text
           transform="matrix(1,0,0,-1,-608.709,191.542)"
           style="font-variant:normal;font-weight:900;font-stretch:expanded;font-size:36px;font-family:'HelveticaNeueLT Pro 93 BlkEx';-inkscape-font-specification:HelveticaNeueLTPro-BlkEx;writing-mode:lr-tb;fill:#414142;fill-opacity:1;fill-rule:nonzero;stroke:none"
           id="text26"><tspan
             x="0 60.875999 110.448 165.34801 198.936 255.20399 288.79199 349.73999 406.008 460.90799 495.14401 542.70001"
             y="0"
             sodipodi:role="line"
             id="tspan22">WEB &amp; MOBILE</tspan><tspan
             x="8.7840004 64.367996 113.94 163.51199 213.084 260.64001 316.90799 369.79199 430.73999 480.31201 535.896"
             y="43.200001"
             sodipodi:role="line"
             id="tspan24">DEVELOPMENT</tspan></text>
<text
           transform="matrix(1,0,0,-1,-616.773,93.55)"
           style="font-variant:normal;font-weight:900;font-stretch:normal;font-size:36px;font-family:'Univers LT Std 93 XBlk Ext';-inkscape-font-specification:UniversLTStd-XBlackEx;writing-mode:lr-tb;fill:#414142;fill-opacity:1;fill-rule:nonzero;stroke:none"
           id="text32"><tspan
             x="0 69.624001 118.764 172.332 206.35201 264.384 298.40399 367.09201 424.224 477.79199 513.612 559.224"
             y="0"
             sodipodi:role="line"
             id="tspan28">WEB &amp; MOBILE</tspan><tspan
             x="8.5679998 65.699997 114.84 170.172 219.312 264.92401 322.056 374.76001 443.448 492.58801 551.48401"
             y="43.200001"
             sodipodi:role="line"
             id="tspan30">DEVELOPMENT</tspan></text>
</g></g><g
       id="g1192"
       transform="translate(119.05561,39.594893)"><path
         d="m 180.5889,226.334 h -3.073 l -8.206,23.795 -8.133,-23.795 h -2.998 l -8.769,26.455 h 2.661 l 7.72,-23.76 8.169,23.76 h 2.734 l 8.358,-23.76 7.42,23.76 h 2.512 z"
         style="fill:#414142;fill-opacity:1;fill-rule:nonzero;stroke:none"
         id="path36"
         inkscape:connector-curvature="0" /><path
         d="m 211.8877,226.334 v 26.455 h 25.333 v -2.175 h -22.746 v -9.292 h 21.022 v -2.249 h -21.022 v -10.529 h 23.833 v -2.21 z"
         style="fill:#414142;fill-opacity:1;fill-rule:nonzero;stroke:none"
         id="path40"
         inkscape:connector-curvature="0" /><path
         d="m 288.1924,236.7871 c -1.574,2.174 -4.611,2.25 -6.935,2.25 h -15.924 v -10.493 h 18.062 c 2.024,0 4.047,0.411 5.134,2.397 0.599,1.088 0.674,2.136 0.674,2.586 0,0.451 -0.075,2.024 -1.011,3.26 m -1.163,11.843 c -1.198,1.873 -3.148,2.023 -5.171,2.023 h -16.525 v -9.367 h 16.15 c 1.949,0 3.86,0.147 5.246,1.798 0.413,0.449 1.013,1.386 1.013,2.923 0,0.45 -0.037,1.537 -0.713,2.623 m 2.136,-20.837 c -1.76,-1.273 -3.746,-1.459 -5.807,-1.459 h -20.611 v 26.455 h 20.722 c 2.362,0 4.348,-0.862 5.772,-2.811 0.412,-0.599 1.237,-1.912 1.237,-3.822 0,-0.376 0,-1.012 -0.263,-1.872 -0.486,-1.764 -1.612,-2.661 -2.211,-3.074 -0.9,-0.601 -1.724,-0.749 -2.136,-0.862 0.637,-0.075 1.274,-0.188 1.911,-0.413 2.662,-1.011 4.047,-3.633 4.047,-6.408 0,-0.9 -0.15,-3.934 -2.661,-5.734"
         style="fill:#414142;fill-opacity:1;fill-rule:nonzero;stroke:none"
         id="path52"
         inkscape:connector-curvature="0" /><path
         d="m 362.0264,248.5176 c -0.711,1.199 -2.062,1.761 -3.447,1.761 -0.3,0 -1.012,-0.037 -1.762,-0.3 -1.423,-0.524 -2.286,-1.723 -2.286,-3.223 0,-1.424 0.825,-2.698 2.662,-4.871 0.486,0.188 0.937,0.374 1.424,0.562 2.248,0.973 3.109,1.875 3.558,3.035 0.113,0.262 0.301,0.675 0.301,1.388 0,0.336 -0.038,0.935 -0.45,1.648 m 0.375,-15.777 c -1.461,1.386 -2.886,2.81 -4.197,4.308 -0.637,0.712 -1.275,1.426 -1.874,2.175 -0.187,-0.074 -2.66,-0.862 -4.122,-1.611 -0.675,-0.337 -2.997,-1.498 -2.997,-4.198 0,-0.862 0.26,-1.722 0.711,-2.473 0.788,-1.312 2.773,-2.998 6.484,-2.998 3.223,0 5.695,1.312 6.632,1.948 0.45,0.301 0.9,0.675 1.312,1.05 -0.637,0.6 -1.312,1.199 -1.949,1.799 m 9.331,-6.259 c -2.211,0.451 -4.01,1.799 -5.733,3.074 -0.676,-0.638 -1.087,-1.049 -1.874,-1.574 -2.174,-1.5 -5.171,-2.249 -7.795,-2.249 -1.238,0 -5.883,0.111 -8.468,3.711 -0.413,0.561 -1.313,1.911 -1.313,3.858 0,0.601 0.076,1.874 0.9,3.188 1.611,2.548 4.759,3.633 7.346,4.572 -0.264,0.335 -0.564,0.673 -0.825,1.011 -1.049,1.347 -1.988,2.884 -1.988,4.683 0,1.686 0.826,2.848 1.2,3.336 1.387,1.724 3.373,2.249 5.509,2.249 0.45,0 1.198,0 2.212,-0.338 2.398,-0.751 3.896,-2.884 3.896,-5.358 0,-1.537 -0.562,-2.55 -0.898,-3.035 -1.274,-1.875 -3.262,-2.7 -5.247,-3.524 1.461,-1.65 2.96,-3.259 4.496,-4.797 0.938,-0.899 1.874,-1.761 2.849,-2.623 0.299,0.412 0.599,0.862 0.861,1.274 1.537,2.697 1.838,5.358 1.987,6.445 h 2.436 c -0.188,-0.973 -0.674,-4.871 -2.698,-7.906 -0.263,-0.412 -0.562,-0.825 -0.863,-1.2 2.812,-2.136 3.748,-2.435 5.697,-2.698 v -2.247 c -0.15,0 -1.049,0.038 -1.687,0.148"
         style="fill:#414142;fill-opacity:1;fill-rule:nonzero;stroke:none"
         id="path56"
         inkscape:connector-curvature="0" /><path
         d="m 454.8604,226.334 v 23.57 c -0.298,-0.674 -0.486,-1.161 -0.785,-1.799 l -10.007,-21.771 h -2.623 l -10.118,21.584 c -0.225,0.449 -0.45,1.011 -0.75,1.986 v -23.57 h -2.398 v 26.455 h 3.373 l 10.043,-21.434 c 0.488,-1.013 0.824,-1.725 1.2,-2.811 l 11.129,24.245 h 3.297 v -26.455 z"
         style="fill:#414142;fill-opacity:1;fill-rule:nonzero;stroke:none"
         id="path60"
         inkscape:connector-curvature="0" /><path
         d="m 509.5811,242.6338 c -0.339,1.461 -1.462,4.947 -5.209,6.97 -1.274,0.675 -4.123,1.875 -7.982,1.722 -1.087,-0.035 -4.648,-0.298 -7.534,-2.434 -1.535,-1.124 -4.571,-4.122 -4.571,-9.404 0,-0.712 0.076,-2.587 0.862,-4.536 2.661,-6.709 10.156,-7.083 12.03,-7.083 1.311,0 5.095,0.113 8.356,2.547 4.123,3.112 4.348,7.72 4.348,9.369 0,0.6 0.037,1.501 -0.3,2.849 m 0.149,-11.579 c -4.272,-5.135 -10.641,-5.436 -12.704,-5.436 -2.135,0 -10.006,0.377 -13.79,7.16 -1.611,2.885 -1.724,5.583 -1.724,6.82 0,0.973 0.076,3.072 1.087,5.432 2.473,5.92 8.505,8.621 14.615,8.583 2.174,0 9.443,-0.337 13.416,-6.633 1.911,-3.035 2.137,-6.033 2.137,-7.345 0,-1.5 -0.301,-5.283 -3.037,-8.581"
         style="fill:#414142;fill-opacity:1;fill-rule:nonzero;stroke:none"
         id="path64"
         inkscape:connector-curvature="0" /><path
         d="m 562.501,236.7871 c -1.574,2.174 -4.61,2.25 -6.933,2.25 h -15.926 v -10.493 h 18.062 c 2.025,0 4.047,0.411 5.135,2.397 0.599,1.088 0.674,2.136 0.674,2.586 0,0.451 -0.075,2.024 -1.012,3.26 m -1.162,11.843 c -1.199,1.873 -3.148,2.023 -5.172,2.023 h -16.525 v -9.367 h 16.151 c 1.948,0 3.859,0.147 5.246,1.798 0.412,0.449 1.013,1.386 1.013,2.923 0,0.45 -0.038,1.537 -0.713,2.623 m 2.137,-20.837 c -1.762,-1.273 -3.747,-1.459 -5.809,-1.459 h -20.61 v 26.455 h 20.721 c 2.362,0 4.348,-0.862 5.773,-2.811 0.412,-0.599 1.237,-1.912 1.237,-3.822 0,-0.376 0,-1.012 -0.263,-1.872 -0.487,-1.764 -1.612,-2.661 -2.211,-3.074 -0.9,-0.601 -1.724,-0.749 -2.137,-0.862 0.638,-0.075 1.274,-0.188 1.911,-0.413 2.663,-1.011 4.048,-3.633 4.048,-6.408 0,-0.9 -0.15,-3.934 -2.66,-5.734"
         style="fill:#414142;fill-opacity:1;fill-rule:nonzero;stroke:none"
         id="path68"
         inkscape:connector-curvature="0" /><path
         inkscape:connector-curvature="0"
         id="path70"
         style="fill:#414142;fill-opacity:1;fill-rule:nonzero;stroke:none"
         d="m 591.102,252.789 h 2.511 v -26.455 h -2.511 z" /><path
         d="m 619.3975,226.334 v 26.455 h 2.624 v -24.245 h 19.261 v -2.21 z"
         style="fill:#414142;fill-opacity:1;fill-rule:nonzero;stroke:none"
         id="path74"
         inkscape:connector-curvature="0" /><path
         d="m 664.8594,226.334 v 26.455 h 25.332 v -2.175 h -22.746 v -9.292 h 21.023 v -2.249 h -21.023 v -10.529 h 23.834 v -2.21 z"
         style="fill:#414142;fill-opacity:1;fill-rule:nonzero;stroke:none"
         id="path78"
         inkscape:connector-curvature="0" /><path
         d="m 167.6992,205.0469 c -1.724,0.639 -3.036,0.752 -4.835,0.752 h -10.605 v -22.074 h 8.431 c 3.561,0 7.57,0.075 10.343,2.697 1.425,1.35 2.999,3.749 2.999,8.096 0,4.459 -1.874,8.881 -6.333,10.529 m 8.468,-14.501 c -0.899,-3.336 -3.034,-6.223 -6.22,-7.684 -2.698,-1.237 -5.471,-1.348 -8.319,-1.348 h -11.991 v 26.458 h 13.227 c 0.788,0 1.574,0 2.361,-0.076 2.623,-0.188 4.872,-0.937 6.97,-2.66 4.274,-3.524 4.497,-8.919 4.497,-10.568 0,-0.639 -0.037,-2.324 -0.525,-4.122"
         style="fill:#414142;fill-opacity:1;fill-rule:nonzero;stroke:none"
         id="path82"
         inkscape:connector-curvature="0" /><path
         d="m 202.6689,181.5137 v 26.458 h 25.333 v -2.173 h -22.748 v -9.296 h 21.023 v -2.249 h -21.023 v -10.529 h 23.835 v -2.211 z"
         style="fill:#414142;fill-opacity:1;fill-rule:nonzero;stroke:none"
         id="path86"
         inkscape:connector-curvature="0" /><path
         d="m 266.7568,181.5137 h -2.474 l -12.477,26.458 h 2.847 l 10.942,-23.686 10.605,23.686 h 2.811 z"
         style="fill:#414142;fill-opacity:1;fill-rule:nonzero;stroke:none"
         id="path90"
         inkscape:connector-curvature="0" /><path
         d="m 302.4756,181.5137 v 26.458 h 25.333 v -2.173 h -22.748 v -9.296 h 21.023 v -2.249 h -21.023 v -10.529 h 23.834 v -2.211 z"
         style="fill:#414142;fill-opacity:1;fill-rule:nonzero;stroke:none"
         id="path94"
         inkscape:connector-curvature="0" /><path
         d="m 354.7217,181.5137 v 26.458 h 2.624 v -24.247 h 19.261 v -2.211 z"
         style="fill:#414142;fill-opacity:1;fill-rule:nonzero;stroke:none"
         id="path98"
         inkscape:connector-curvature="0" /><path
         d="m 425.7041,197.8164 c -0.338,1.461 -1.462,4.944 -5.209,6.97 -1.273,0.675 -4.122,1.872 -7.982,1.722 -1.086,-0.037 -4.647,-0.298 -7.533,-2.434 -1.535,-1.124 -4.571,-4.122 -4.571,-9.406 0,-0.713 0.074,-2.587 0.861,-4.535 2.662,-6.708 10.157,-7.083 12.031,-7.083 1.311,0 5.096,0.112 8.356,2.548 4.121,3.11 4.348,7.719 4.348,9.367 0,0.601 0.037,1.5 -0.301,2.851 m 0.148,-11.582 c -4.269,-5.132 -10.64,-5.433 -12.703,-5.433 -2.134,0 -10.005,0.375 -13.789,7.158 -1.611,2.886 -1.725,5.583 -1.725,6.82 0,0.974 0.076,3.074 1.088,5.434 2.473,5.92 8.505,8.621 14.615,8.582 2.173,0 9.443,-0.336 13.416,-6.633 1.911,-3.035 2.136,-6.033 2.136,-7.345 0,-1.5 -0.3,-5.284 -3.038,-8.583"
         style="fill:#414142;fill-opacity:1;fill-rule:nonzero;stroke:none"
         id="path102"
         inkscape:connector-curvature="0" /><path
         d="m 476.5645,204.8232 c -1.237,0.862 -2.735,0.976 -4.198,0.976 h -15.215 v -10.27 h 13.454 c 2.173,0 4.722,0 6.445,1.648 0.6,0.563 1.424,1.649 1.424,3.561 0,0.562 -0.149,2.848 -1.91,4.085 m 1.949,-9.744 c -2.023,-1.574 -4.61,-1.723 -7.009,-1.723 h -14.353 v -11.843 h -2.622 v 26.458 h 17.575 c 2.323,0 4.535,-0.113 6.483,-1.574 0.6,-0.488 1.087,-1.05 1.238,-1.276 0.486,-0.636 1.385,-2.134 1.385,-4.383 0,-1.05 -0.187,-3.747 -2.697,-5.659"
         style="fill:#414142;fill-opacity:1;fill-rule:nonzero;stroke:none"
         id="path106"
         inkscape:connector-curvature="0" /><path
         d="m 532.6689,181.5137 v 23.572 c -0.299,-0.675 -0.486,-1.162 -0.786,-1.798 l -10.006,-21.774 h -2.624 l -10.117,21.585 c -0.225,0.45 -0.449,1.013 -0.75,1.987 v -23.572 h -2.399 v 26.458 h 3.374 l 10.043,-21.437 c 0.488,-1.012 0.824,-1.724 1.2,-2.81 l 11.129,24.247 h 3.297 v -26.458 z"
         style="fill:#414142;fill-opacity:1;fill-rule:nonzero;stroke:none"
         id="path110"
         inkscape:connector-curvature="0" /><path
         d="m 562.207,181.5137 v 26.458 h 25.333 v -2.173 h -22.747 v -9.296 h 21.023 v -2.249 h -21.023 v -10.529 h 23.833 v -2.211 z"
         style="fill:#414142;fill-opacity:1;fill-rule:nonzero;stroke:none"
         id="path114"
         inkscape:connector-curvature="0" /><path
         d="m 639.4854,181.5137 -22.672,23.085 v -23.085 h -2.361 v 26.458 h 2.361 l 22.672,-23.198 v 23.198 h 2.36 v -26.458 z"
         style="fill:#414142;fill-opacity:1;fill-rule:nonzero;stroke:none"
         id="path118"
         inkscape:connector-curvature="0" /><path
         d="m 680.3008,205.7988 v -24.285 h -2.509 v 24.285 h -11.88 v 2.173 h 25.744 v -2.173 z"
         style="fill:#414142;fill-opacity:1;fill-rule:nonzero;stroke:none"
         id="path122"
         inkscape:connector-curvature="0" /><path
         d="m 256.876,360.335 v 33.764 H 206.23 v -24.026 c 0,-15.39 -6.272,-19.224 -17.602,-19.224 h -3.037 v 43.25 h -50.647 v -112.5 h 50.647 v 43.25 h 3.037 c 11.33,0 17.602,-3.832 17.602,-19.223 v -24.027 h 50.646 v 33.765 c 0,11.08 -7.006,20.481 -35.83,22.201 v 0.569 c 28.824,1.721 35.83,11.121 35.83,22.201"
         style="fill:#414142;fill-opacity:1;fill-rule:nonzero;stroke:none"
         id="path126"
         inkscape:connector-curvature="0" /><path
         d="m 509.0947,368.0166 v 26.082 h -113.916 v -112.5 h 113.916 v 26.084 h -63.27 v 17.125 h 63.27 v 26.084 h -63.27 v 17.125 z"
         style="fill:#414142;fill-opacity:1;fill-rule:nonzero;stroke:none"
         id="path130"
         inkscape:connector-curvature="0" /><path
         d="m 661.0518,337.8486 c 37.311,0 45.893,-10.215 45.893,-22.486 v -33.764 h -50.647 v 25.111 c 0,12.164 -4.68,19.223 -10.568,19.223 l -4.612,13.264 23.266,7.945 c 0,0 -3.758,-1.49 -3.758,-7.023 z"
         style="fill:#414142;fill-opacity:1;fill-rule:nonzero;stroke:none"
         id="path134"
         inkscape:connector-curvature="0" /><path
         d="m 661.0518,337.8486 c 37.311,0 45.893,10.215 45.893,22.486 v 33.764 h -50.647 v -25.109 c 0,-12.166 -4.68,-19.223 -10.568,-19.223 l -4.612,-13.266 23.266,-7.943 c 0,0 -3.758,1.488 -3.758,7.021 z"
         style="fill:#414142;fill-opacity:1;fill-rule:nonzero;stroke:none"
         id="path138"
         inkscape:connector-curvature="0" /><path
         d="m 630.4072,337.8486 c -37.311,0 -45.893,-10.215 -45.893,-22.486 v -33.764 h 50.647 v 25.111 c 0,12.164 4.68,19.223 10.568,19.223 l 4.612,13.264 -23.268,7.945 c 0,0 3.76,-1.49 3.76,-7.023 z"
         style="fill:#414142;fill-opacity:1;fill-rule:nonzero;stroke:none"
         id="path142"
         inkscape:connector-curvature="0" /><path
         d="m 630.4072,337.8486 c -37.311,0 -45.893,10.215 -45.893,22.486 v 33.764 h 50.647 v -25.109 c 0,-12.166 4.68,-19.223 10.568,-19.223 l 4.612,-13.266 -23.268,-7.943 c 0,0 3.76,1.488 3.76,7.021 z"
         style="fill:#414142;fill-opacity:1;fill-rule:nonzero;stroke:none"
         id="path146"
         inkscape:connector-curvature="0" /><path
         inkscape:connector-curvature="0"
         id="path148"
         style="fill:#414142;fill-opacity:1;fill-rule:nonzero;stroke:none"
         d="m 674.032,332.948 h -56.605 v 9.801 h 56.605 z" /><path
         d="m 547.0469,345.1787 c -1.647,0 -3.376,0.056 -5.135,0.165 -11.71,0.726 -20.562,3.897 -27.859,9.983 -7.162,5.975 -10.983,15.435 -10.218,25.304 0.774,9.998 6.084,18.88 14.206,23.757 9.492,5.695 19.65,6.792 28.334,7.115 l 0.123,0.004 0.122,-0.004 c 11.001,-0.362 22.523,-1.821 32.261,-9.974 7.264,-6.082 11.041,-15.224 10.362,-25.08 -0.677,-9.844 -5.887,-18.73 -13.937,-23.771 -8.052,-5.046 -17.296,-7.499 -28.259,-7.499"
         style="fill:#bf1e2d;fill-opacity:1;fill-rule:evenodd;stroke:none"
         id="path152"
         inkscape:connector-curvature="0" /><path
         d="m 546.4902,415.0088 -0.245,-0.009 c -9.129,-0.339 -19.832,-1.508 -30.004,-7.609 -9.094,-5.462 -15.035,-15.364 -15.897,-26.489 -0.85,-10.997 3.435,-21.563 11.465,-28.262 7.791,-6.497 17.567,-10.026 29.888,-10.789 1.829,-0.114 3.63,-0.172 5.35,-0.172 11.639,0 21.491,2.628 30.118,8.033 8.994,5.633 14.815,15.539 15.569,26.496 0.757,10.988 -3.473,21.195 -11.606,28.004 -10.579,8.858 -23.323,10.425 -34.393,10.789 z m 0.015,-7.004 c 10.964,-0.361 21.476,-1.916 30.129,-9.16 13.55,-11.346 11.789,-33.822 -3.186,-43.201 -8.215,-5.148 -17.091,-6.965 -26.401,-6.965 -1.626,0 -3.265,0.056 -4.917,0.158 -9.52,0.59 -18.379,2.959 -25.836,9.178 -13.533,11.291 -11.532,34.316 3.549,43.373 8.318,4.99 17.402,6.273 26.662,6.617"
         style="fill:#ffffff;fill-opacity:1;fill-rule:nonzero;stroke:none"
         id="path156"
         inkscape:connector-curvature="0" /><path
         inkscape:connector-curvature="0"
         id="path158"
         style="fill:#414142;fill-opacity:1;fill-rule:evenodd;stroke:none"
         d="m 577.528,281.599 h -62 v 63.834 h 62 z" /><path
         d="m 315.0771,348.6201 v 15.896 h 9.68 c 13.154,0 13.275,-1.556 13.275,-7.949 0,-6.39 -0.121,-7.947 -13.275,-7.947 z m 82.02,-67.021 -24.788,39.015 c 7.758,2.541 16.37,8.971 16.37,24.756 v 22.396 c 0,23.75 -19.5,26.333 -26.25,26.333 h -47.352 -50.646 v -112.5 h 50.646 v 37.437 h 12.008 l 16.928,-37.437 z"
         style="fill:#414142;fill-opacity:1;fill-rule:nonzero;stroke:none"
         id="path162"
         inkscape:connector-curvature="0" /></g></g></svg>