<?xml version="1.0" encoding="UTF-8" standalone="no"?>
<!-- Created with Inkscape (http://www.inkscape.org/) -->

<svg
   xmlns:dc="http://purl.org/dc/elements/1.1/"
   xmlns:cc="http://creativecommons.org/ns#"
   xmlns:rdf="http://www.w3.org/1999/02/22-rdf-syntax-ns#"
   xmlns:svg="http://www.w3.org/2000/svg"
   xmlns="http://www.w3.org/2000/svg"
   xmlns:sodipodi="http://sodipodi.sourceforge.net/DTD/sodipodi-0.dtd"
   xmlns:inkscape="http://www.inkscape.org/namespaces/inkscape"
   version="1.1"
   id="svg2"
   xml:space="preserve"
   width="1122.52"
   height="793.70135"
   viewBox="0 0 1122.52 793.70135"
   sodipodi:docname="kreix_logo1.svg"
   inkscape:version="0.92.2 5c3e80d, 2017-08-06"><metadata
     id="metadata8"><rdf:RDF><cc:Work
         rdf:about=""><dc:format>image/svg+xml</dc:format><dc:type
           rdf:resource="http://purl.org/dc/dcmitype/StillImage" /><dc:title></dc:title></cc:Work></rdf:RDF></metadata><defs
     id="defs6"><clipPath
       clipPathUnits="userSpaceOnUse"
       id="clipPath20"><path
         d="M 0,595.276 H 841.89 V 0 H 0 Z"
         id="path18"
         inkscape:connector-curvature="0" /></clipPath><clipPath
       clipPathUnits="userSpaceOnUse"
       id="clipPath48"><path
         d="M 0,595.276 H 841.89 V 0 H 0 Z"
         id="path46"
         inkscape:connector-curvature="0" /></clipPath></defs><sodipodi:namedview
     pagecolor="#ffffff"
     bordercolor="#666666"
     borderopacity="1"
     objecttolerance="10"
     gridtolerance="10"
     guidetolerance="10"
     inkscape:pageopacity="0"
     inkscape:pageshadow="2"
     inkscape:window-width="1920"
     inkscape:window-height="1036"
     id="namedview4"
     showgrid="false"
     inkscape:zoom="0.84100751"
     inkscape:cx="365.56922"
     inkscape:cy="305.29425"
     inkscape:window-x="0"
     inkscape:window-y="20"
     inkscape:window-maximized="0"
     inkscape:current-layer="g10" /><g
     id="g10"
     inkscape:groupmode="layer"
     inkscape:label="kreix_logo"
     transform="matrix(1.3333333,0,0,-1.3333333,0,793.70133)"><path
       d="M 0,0 H 841.89 V 595.276 H 0 Z"
       style="fill:#ffffff;fill-opacity:1;fill-rule:nonzero;stroke:none"
       id="path12"
       inkscape:connector-curvature="0" /><g
       id="g14"><g
         id="g16"
         clip-path="url(#clipPath20)"><text
           transform="matrix(1,0,0,-1,-608.709,191.542)"
           style="font-variant:normal;font-weight:900;font-stretch:expanded;font-size:36px;font-family:'HelveticaNeueLT Pro 93 BlkEx';-inkscape-font-specification:HelveticaNeueLTPro-BlkEx;writing-mode:lr-tb;fill:#414142;fill-opacity:1;fill-rule:nonzero;stroke:none"
           id="text26"><tspan
             x="0 60.875999 110.448 165.34801 198.936 255.20399 288.79199 349.73999 406.008 460.90799 495.14401 542.70001"
             y="0"
             sodipodi:role="line"
             id="tspan22">WEB &amp; MOBILE</tspan><tspan
             x="8.7840004 64.367996 113.94 163.51199 213.084 260.64001 316.90799 369.79199 430.73999 480.31201 535.896"
             y="43.200001"
             sodipodi:role="line"
             id="tspan24">DEVELOPMENT</tspan></text>
<text
           transform="matrix(1,0,0,-1,-616.773,93.55)"
           style="font-variant:normal;font-weight:900;font-stretch:normal;font-size:36px;font-family:'Univers LT Std 93 XBlk Ext';-inkscape-font-specification:UniversLTStd-XBlackEx;writing-mode:lr-tb;fill:#414142;fill-opacity:1;fill-rule:nonzero;stroke:none"
           id="text32"><tspan
             x="0 69.624001 118.764 172.332 206.35201 264.384 298.40399 367.09201 424.224 477.79199 513.612 559.224"
             y="0"
             sodipodi:role="line"
             id="tspan28">WEB &amp; MOBILE</tspan><tspan
             x="8.5679998 65.699997 114.84 170.172 219.312 264.92401 322.056 374.76001 443.448 492.58801 551.48401"
             y="43.200001"
             sodipodi:role="line"
             id="tspan30">DEVELOPMENT</tspan></text>
</g></g><g
       id="g34"
       transform="translate(180.5889,226.334)"><path
         d="M 0,0 H -3.073 L -11.279,23.795 -19.412,0 h -2.998 l -8.769,26.455 h 2.661 l 7.72,-23.76 8.169,23.76 h 2.734 l 8.358,-23.76 7.42,23.76 h 2.512 z"
         style="fill:#414142;fill-opacity:1;fill-rule:nonzero;stroke:none"
         id="path36"
         inkscape:connector-curvature="0" /></g><g
       id="g38"
       transform="translate(211.8877,226.334)"><path
         d="M 0,0 V 26.455 H 25.333 V 24.28 H 2.587 V 14.988 H 23.609 V 12.739 H 2.587 V 2.21 H 26.42 l 0,-2.21 z"
         style="fill:#414142;fill-opacity:1;fill-rule:nonzero;stroke:none"
         id="path40"
         inkscape:connector-curvature="0" /></g><g
       id="g42"><g
         id="g44"
         clip-path="url(#clipPath48)"><g
           id="g50"
           transform="translate(288.1924,236.7871)"><path
             d="M 0,0 C -1.574,2.174 -4.611,2.25 -6.935,2.25 H -22.859 V -8.243 h 18.062 c 2.024,0 4.047,0.411 5.134,2.397 0.599,1.088 0.674,2.136 0.674,2.586 C 1.011,-2.809 0.936,-1.236 0,0 m -1.163,11.843 c -1.198,1.873 -3.148,2.023 -5.171,2.023 H -22.859 V 4.499 h 16.15 c 1.949,0 3.86,0.147 5.246,1.798 0.413,0.449 1.013,1.386 1.013,2.923 0,0.45 -0.037,1.537 -0.713,2.623 M 0.973,-8.994 c -1.76,-1.273 -3.746,-1.459 -5.807,-1.459 h -20.611 v 26.455 h 20.722 c 2.362,0 4.348,-0.862 5.772,-2.811 0.412,-0.599 1.237,-1.912 1.237,-3.822 0,-0.376 0,-1.012 -0.263,-1.872 C 1.537,5.733 0.411,4.836 -0.188,4.423 -1.088,3.822 -1.912,3.674 -2.324,3.561 -1.687,3.486 -1.05,3.373 -0.413,3.148 2.249,2.137 3.634,-0.485 3.634,-3.26 c 0,-0.9 -0.15,-3.934 -2.661,-5.734"
             style="fill:#414142;fill-opacity:1;fill-rule:nonzero;stroke:none"
             id="path52"
             inkscape:connector-curvature="0" /></g><g
           id="g54"
           transform="translate(362.0264,248.5176)"><path
             d="m 0,0 c -0.711,1.199 -2.062,1.761 -3.447,1.761 -0.3,0 -1.012,-0.037 -1.762,-0.3 -1.423,-0.524 -2.286,-1.723 -2.286,-3.223 0,-1.424 0.825,-2.698 2.662,-4.871 0.486,0.188 0.937,0.374 1.424,0.562 2.248,0.973 3.109,1.875 3.558,3.035 0.113,0.262 0.301,0.675 0.301,1.388 C 0.45,-1.312 0.412,-0.713 0,0 m 0.375,-15.777 c -1.461,1.386 -2.886,2.81 -4.197,4.308 -0.637,0.712 -1.275,1.426 -1.874,2.175 -0.187,-0.074 -2.66,-0.862 -4.122,-1.611 -0.675,-0.337 -2.997,-1.498 -2.997,-4.198 0,-0.862 0.26,-1.722 0.711,-2.473 0.788,-1.312 2.773,-2.998 6.484,-2.998 3.223,0 5.695,1.312 6.632,1.948 0.45,0.301 0.9,0.675 1.312,1.05 -0.637,0.6 -1.312,1.199 -1.949,1.799 m 9.331,-6.259 c -2.211,0.451 -4.01,1.799 -5.733,3.074 -0.676,-0.638 -1.087,-1.049 -1.874,-1.574 -2.174,-1.5 -5.171,-2.249 -7.795,-2.249 -1.238,0 -5.883,0.111 -8.468,3.711 -0.413,0.561 -1.313,1.911 -1.313,3.858 0,0.601 0.076,1.874 0.9,3.188 1.611,2.548 4.759,3.633 7.346,4.572 -0.264,0.335 -0.564,0.673 -0.825,1.011 -1.049,1.347 -1.988,2.884 -1.988,4.683 0,1.686 0.826,2.848 1.2,3.336 1.387,1.724 3.373,2.249 5.509,2.249 0.45,0 1.198,0 2.212,-0.338 2.398,-0.751 3.896,-2.884 3.896,-5.358 0,-1.537 -0.562,-2.55 -0.898,-3.035 -1.274,-1.875 -3.262,-2.7 -5.247,-3.524 1.461,-1.65 2.96,-3.259 4.496,-4.797 0.938,-0.899 1.874,-1.761 2.849,-2.623 0.299,0.412 0.599,0.862 0.861,1.274 1.537,2.697 1.838,5.358 1.987,6.445 h 2.436 c -0.188,-0.973 -0.674,-4.871 -2.698,-7.906 -0.263,-0.412 -0.562,-0.825 -0.863,-1.2 2.812,-2.136 3.748,-2.435 5.697,-2.698 v -2.247 c -0.15,0 -1.049,0.038 -1.687,0.148"
             style="fill:#414142;fill-opacity:1;fill-rule:nonzero;stroke:none"
             id="path56"
             inkscape:connector-curvature="0" /></g><g
           id="g58"
           transform="translate(454.8604,226.334)"><path
             d="M 0,0 V 23.57 C -0.298,22.896 -0.486,22.409 -0.785,21.771 L -10.792,0 h -2.623 l -10.118,21.584 c -0.225,0.449 -0.45,1.011 -0.75,1.986 V 0 h -2.398 v 26.455 h 3.373 L -13.265,5.021 c 0.488,-1.013 0.824,-1.725 1.2,-2.811 L -0.936,26.455 H 2.361 L 2.361,0 Z"
             style="fill:#414142;fill-opacity:1;fill-rule:nonzero;stroke:none"
             id="path60"
             inkscape:connector-curvature="0" /></g><g
           id="g62"
           transform="translate(509.5811,242.6338)"><path
             d="m 0,0 c -0.339,1.461 -1.462,4.947 -5.209,6.97 -1.274,0.675 -4.123,1.875 -7.982,1.722 -1.087,-0.035 -4.648,-0.298 -7.534,-2.434 -1.535,-1.124 -4.571,-4.122 -4.571,-9.404 0,-0.712 0.076,-2.587 0.862,-4.536 2.661,-6.709 10.156,-7.083 12.03,-7.083 1.311,0 5.095,0.113 8.356,2.547 4.123,3.112 4.348,7.72 4.348,9.369 0,0.6 0.037,1.501 -0.3,2.849 m 0.149,-11.579 c -4.272,-5.135 -10.641,-5.436 -12.704,-5.436 -2.135,0 -10.006,0.377 -13.79,7.16 -1.611,2.885 -1.724,5.583 -1.724,6.82 0,0.973 0.076,3.072 1.087,5.432 2.473,5.92 8.505,8.621 14.615,8.583 2.174,0 9.443,-0.337 13.416,-6.633 1.911,-3.035 2.137,-6.033 2.137,-7.345 0,-1.5 -0.301,-5.283 -3.037,-8.581"
             style="fill:#414142;fill-opacity:1;fill-rule:nonzero;stroke:none"
             id="path64"
             inkscape:connector-curvature="0" /></g><g
           id="g66"
           transform="translate(562.501,236.7871)"><path
             d="M 0,0 C -1.574,2.174 -4.61,2.25 -6.933,2.25 H -22.859 V -8.243 h 18.062 c 2.025,0 4.047,0.411 5.135,2.397 0.599,1.088 0.674,2.136 0.674,2.586 C 1.012,-2.809 0.937,-1.236 0,0 m -1.162,11.843 c -1.199,1.873 -3.148,2.023 -5.172,2.023 H -22.859 V 4.499 h 16.151 c 1.948,0 3.859,0.147 5.246,1.798 0.412,0.449 1.013,1.386 1.013,2.923 0,0.45 -0.038,1.537 -0.713,2.623 M 0.975,-8.994 c -1.762,-1.273 -3.747,-1.459 -5.809,-1.459 h -20.61 v 26.455 h 20.721 c 2.362,0 4.348,-0.862 5.773,-2.811 0.412,-0.599 1.237,-1.912 1.237,-3.822 0,-0.376 0,-1.012 -0.263,-1.872 C 1.537,5.733 0.412,4.836 -0.187,4.423 -1.087,3.822 -1.911,3.674 -2.324,3.561 -1.686,3.486 -1.05,3.373 -0.413,3.148 2.25,2.137 3.635,-0.485 3.635,-3.26 c 0,-0.9 -0.15,-3.934 -2.66,-5.734"
             style="fill:#414142;fill-opacity:1;fill-rule:nonzero;stroke:none"
             id="path68"
             inkscape:connector-curvature="0" /></g><path
           d="m 591.102,252.789 h 2.511 v -26.455 h -2.511 z"
           style="fill:#414142;fill-opacity:1;fill-rule:nonzero;stroke:none"
           id="path70"
           inkscape:connector-curvature="0" /><g
           id="g72"
           transform="translate(619.3975,226.334)"><path
             d="M 0,0 V 26.455 H 2.624 V 2.21 H 21.885 V 0 Z"
             style="fill:#414142;fill-opacity:1;fill-rule:nonzero;stroke:none"
             id="path74"
             inkscape:connector-curvature="0" /></g><g
           id="g76"
           transform="translate(664.8594,226.334)"><path
             d="M 0,0 V 26.455 H 25.332 V 24.28 H 2.586 V 14.988 H 23.609 V 12.739 H 2.586 V 2.21 H 26.42 V 0 Z"
             style="fill:#414142;fill-opacity:1;fill-rule:nonzero;stroke:none"
             id="path78"
             inkscape:connector-curvature="0" /></g><g
           id="g80"
           transform="translate(167.6992,205.0469)"><path
             d="M 0,0 C -1.724,0.639 -3.036,0.752 -4.835,0.752 H -15.44 v -22.074 h 8.431 c 3.561,0 7.57,0.075 10.343,2.697 1.425,1.35 2.999,3.749 2.999,8.096 C 6.333,-6.07 4.459,-1.648 0,0 m 8.468,-14.501 c -0.899,-3.336 -3.034,-6.223 -6.22,-7.684 -2.698,-1.237 -5.471,-1.348 -8.319,-1.348 H -18.062 V 2.925 h 13.227 c 0.788,0 1.574,0 2.361,-0.076 2.623,-0.188 4.872,-0.937 6.97,-2.66 4.274,-3.524 4.497,-8.919 4.497,-10.568 0,-0.639 -0.037,-2.324 -0.525,-4.122"
             style="fill:#414142;fill-opacity:1;fill-rule:nonzero;stroke:none"
             id="path82"
             inkscape:connector-curvature="0" /></g><g
           id="g84"
           transform="translate(202.6689,181.5137)"><path
             d="M 0,0 V 26.458 H 25.333 V 24.285 H 2.585 V 14.989 H 23.608 V 12.74 H 2.585 V 2.211 H 26.42 L 26.42,0 Z"
             style="fill:#414142;fill-opacity:1;fill-rule:nonzero;stroke:none"
             id="path86"
             inkscape:connector-curvature="0" /></g><g
           id="g88"
           transform="translate(266.7568,181.5137)"><path
             d="m 0,0 h -2.474 l -12.477,26.458 h 2.847 L -1.162,2.772 9.443,26.458 h 2.811 z"
             style="fill:#414142;fill-opacity:1;fill-rule:nonzero;stroke:none"
             id="path90"
             inkscape:connector-curvature="0" /></g><g
           id="g92"
           transform="translate(302.4756,181.5137)"><path
             d="M 0,0 V 26.458 H 25.333 V 24.285 H 2.585 V 14.989 H 23.608 V 12.74 H 2.585 V 2.211 h 23.834 l 0,-2.211 z"
             style="fill:#414142;fill-opacity:1;fill-rule:nonzero;stroke:none"
             id="path94"
             inkscape:connector-curvature="0" /></g><g
           id="g96"
           transform="translate(354.7217,181.5137)"><path
             d="M 0,0 V 26.458 H 2.624 V 2.211 h 19.261 l 0,-2.211 z"
             style="fill:#414142;fill-opacity:1;fill-rule:nonzero;stroke:none"
             id="path98"
             inkscape:connector-curvature="0" /></g><g
           id="g100"
           transform="translate(425.7041,197.8164)"><path
             d="m 0,0 c -0.338,1.461 -1.462,4.944 -5.209,6.97 -1.273,0.675 -4.122,1.872 -7.982,1.722 -1.086,-0.037 -4.647,-0.298 -7.533,-2.434 -1.535,-1.124 -4.571,-4.122 -4.571,-9.406 0,-0.713 0.074,-2.587 0.861,-4.535 2.662,-6.708 10.157,-7.083 12.031,-7.083 1.311,0 5.096,0.112 8.356,2.548 4.121,3.11 4.348,7.719 4.348,9.367 0,0.601 0.037,1.5 -0.301,2.851 m 0.148,-11.582 c -4.269,-5.132 -10.64,-5.433 -12.703,-5.433 -2.134,0 -10.005,0.375 -13.789,7.158 -1.611,2.886 -1.725,5.583 -1.725,6.82 0,0.974 0.076,3.074 1.088,5.434 2.473,5.92 8.505,8.621 14.615,8.582 2.173,0 9.443,-0.336 13.416,-6.633 1.911,-3.035 2.136,-6.033 2.136,-7.345 0,-1.5 -0.3,-5.284 -3.038,-8.583"
             style="fill:#414142;fill-opacity:1;fill-rule:nonzero;stroke:none"
             id="path102"
             inkscape:connector-curvature="0" /></g><g
           id="g104"
           transform="translate(476.5645,204.8232)"><path
             d="m 0,0 c -1.237,0.862 -2.735,0.976 -4.198,0.976 h -15.215 v -10.27 h 13.454 c 2.173,0 4.722,0 6.445,1.648 0.6,0.563 1.424,1.649 1.424,3.561 C 1.91,-3.523 1.761,-1.237 0,0 m 1.949,-9.744 c -2.023,-1.574 -4.61,-1.723 -7.009,-1.723 H -19.413 V -23.31 h -2.622 V 3.148 H -4.46 c 2.323,0 4.535,-0.113 6.483,-1.574 0.6,-0.488 1.087,-1.05 1.238,-1.276 0.486,-0.636 1.385,-2.134 1.385,-4.383 0,-1.05 -0.187,-3.747 -2.697,-5.659"
             style="fill:#414142;fill-opacity:1;fill-rule:nonzero;stroke:none"
             id="path106"
             inkscape:connector-curvature="0" /></g><g
           id="g108"
           transform="translate(532.6689,181.5137)"><path
             d="M 0,0 V 23.572 C -0.299,22.897 -0.486,22.41 -0.786,21.774 L -10.792,0 h -2.624 l -10.117,21.585 c -0.225,0.45 -0.449,1.013 -0.75,1.987 V 0 h -2.399 v 26.458 h 3.374 L -13.265,5.021 c 0.488,-1.012 0.824,-1.724 1.2,-2.81 L -0.936,26.458 H 2.361 L 2.361,0 Z"
             style="fill:#414142;fill-opacity:1;fill-rule:nonzero;stroke:none"
             id="path110"
             inkscape:connector-curvature="0" /></g><g
           id="g112"
           transform="translate(562.207,181.5137)"><path
             d="M 0,0 V 26.458 H 25.333 V 24.285 H 2.586 V 14.989 H 23.609 V 12.74 H 2.586 V 2.211 h 23.833 l 0,-2.211 z"
             style="fill:#414142;fill-opacity:1;fill-rule:nonzero;stroke:none"
             id="path114"
             inkscape:connector-curvature="0" /></g><g
           id="g116"
           transform="translate(639.4854,181.5137)"><path
             d="M 0,0 -22.672,23.085 V 0 h -2.361 v 26.458 h 2.361 L 0,3.26 V 26.458 H 2.36 V 0 Z"
             style="fill:#414142;fill-opacity:1;fill-rule:nonzero;stroke:none"
             id="path118"
             inkscape:connector-curvature="0" /></g><g
           id="g120"
           transform="translate(680.3008,205.7988)"><path
             d="M 0,0 V -24.285 H -2.509 V 0 h -11.88 v 2.173 h 25.744 l 0,-2.173 z"
             style="fill:#414142;fill-opacity:1;fill-rule:nonzero;stroke:none"
             id="path122"
             inkscape:connector-curvature="0" /></g><g
           id="g124"
           transform="translate(256.876,360.335)"><path
             d="M 0,0 V 33.764 H -50.646 V 9.738 c 0,-15.39 -6.272,-19.224 -17.602,-19.224 h -3.037 v 43.25 h -50.647 v -112.5 h 50.647 v 43.25 h 3.037 c 11.33,0 17.602,-3.832 17.602,-19.223 V -78.736 H 0 v 33.765 c 0,11.08 -7.006,20.481 -35.83,22.201 v 0.569 C -7.006,-20.48 0,-11.08 0,0"
             style="fill:#414142;fill-opacity:1;fill-rule:nonzero;stroke:none"
             id="path126"
             inkscape:connector-curvature="0" /></g><g
           id="g128"
           transform="translate(509.0947,368.0166)"><path
             d="m 0,0 v 26.082 h -113.916 v -112.5 H 0 v 26.084 h -63.27 v 17.125 H 0 v 26.084 H -63.27 V 0 Z"
             style="fill:#414142;fill-opacity:1;fill-rule:nonzero;stroke:none"
             id="path130"
             inkscape:connector-curvature="0" /></g><g
           id="g132"
           transform="translate(661.0518,337.8486)"><path
             d="M 0,0 C 37.311,0 45.893,-10.215 45.893,-22.486 V -56.25 H -4.754 v 25.111 c 0,12.164 -4.68,19.223 -10.568,19.223 L -19.934,1.348 3.332,9.293 c 0,0 -3.758,-1.49 -3.758,-7.023 z"
             style="fill:#414142;fill-opacity:1;fill-rule:nonzero;stroke:none"
             id="path134"
             inkscape:connector-curvature="0" /></g><g
           id="g136"
           transform="translate(661.0518,337.8486)"><path
             d="M 0,0 C 37.311,0 45.893,10.215 45.893,22.486 V 56.25 H -4.754 V 31.141 c 0,-12.166 -4.68,-19.223 -10.568,-19.223 L -19.934,-1.348 3.332,-9.291 c 0,0 -3.758,1.488 -3.758,7.021 z"
             style="fill:#414142;fill-opacity:1;fill-rule:nonzero;stroke:none"
             id="path138"
             inkscape:connector-curvature="0" /></g><g
           id="g140"
           transform="translate(630.4072,337.8486)"><path
             d="M 0,0 C -37.311,0 -45.893,-10.215 -45.893,-22.486 V -56.25 H 4.754 v 25.111 c 0,12.164 4.68,19.223 10.568,19.223 L 19.934,1.348 -3.334,9.293 c 0,0 3.76,-1.49 3.76,-7.023 z"
             style="fill:#414142;fill-opacity:1;fill-rule:nonzero;stroke:none"
             id="path142"
             inkscape:connector-curvature="0" /></g><g
           id="g144"
           transform="translate(630.4072,337.8486)"><path
             d="M 0,0 C -37.311,0 -45.893,10.215 -45.893,22.486 V 56.25 H 4.754 V 31.141 c 0,-12.166 4.68,-19.223 10.568,-19.223 L 19.934,-1.348 -3.334,-9.291 c 0,0 3.76,1.488 3.76,7.021 z"
             style="fill:#414142;fill-opacity:1;fill-rule:nonzero;stroke:none"
             id="path146"
             inkscape:connector-curvature="0" /></g><path
           d="m 674.032,332.948 h -56.605 v 9.801 h 56.605 z"
           style="fill:#414142;fill-opacity:1;fill-rule:nonzero;stroke:none"
           id="path148"
           inkscape:connector-curvature="0" /><g
           id="g150"
           transform="translate(547.0469,345.1787)"><path
             d="m 0,0 c -1.647,0 -3.376,0.056 -5.135,0.165 -11.71,0.726 -20.562,3.897 -27.859,9.983 -7.162,5.975 -10.983,15.435 -10.218,25.304 0.774,9.998 6.084,18.88 14.206,23.757 9.492,5.695 19.65,6.792 28.334,7.115 l 0.123,0.004 0.122,-0.004 C 10.574,65.962 22.096,64.503 31.834,56.35 39.098,50.268 42.875,41.126 42.196,31.27 41.519,21.426 36.309,12.54 28.259,7.499 20.207,2.453 10.963,0 0,0"
             style="fill:#bf1e2d;fill-opacity:1;fill-rule:evenodd;stroke:none"
             id="path152"
             inkscape:connector-curvature="0" /></g><g
           id="g154"
           transform="translate(546.4902,415.0088)"><path
             d="m 0,0 -0.245,-0.009 c -9.129,-0.339 -19.832,-1.508 -30.004,-7.609 -9.094,-5.462 -15.035,-15.364 -15.897,-26.489 -0.85,-10.997 3.435,-21.563 11.465,-28.262 7.791,-6.497 17.567,-10.026 29.888,-10.789 1.829,-0.114 3.63,-0.172 5.35,-0.172 11.639,0 21.491,2.628 30.118,8.033 8.994,5.633 14.815,15.539 15.569,26.496 0.757,10.988 -3.473,21.195 -11.606,28.004 C 24.059,-1.939 11.315,-0.372 0.245,-0.008 Z m 0.015,-7.004 c 10.964,-0.361 21.476,-1.916 30.129,-9.16 13.55,-11.346 11.789,-33.822 -3.186,-43.201 -8.215,-5.148 -17.091,-6.965 -26.401,-6.965 -1.626,0 -3.265,0.056 -4.917,0.158 -9.52,0.59 -18.379,2.959 -25.836,9.178 -13.533,11.291 -11.532,34.316 3.549,43.373 8.318,4.99 17.402,6.273 26.662,6.617"
             style="fill:#ffffff;fill-opacity:1;fill-rule:nonzero;stroke:none"
             id="path156"
             inkscape:connector-curvature="0" /></g><path
           d="m 577.528,281.599 h -62 v 63.834 h 62 z"
           style="fill:#414142;fill-opacity:1;fill-rule:evenodd;stroke:none"
           id="path158"
           inkscape:connector-curvature="0" /><g
           id="g160"
           transform="translate(315.0771,348.6201)"><path
             d="m 0,0 v 15.896 h 9.68 c 13.154,0 13.275,-1.556 13.275,-7.949 C 22.955,1.557 22.834,0 9.68,0 Z m 82.02,-67.021 -24.788,39.015 c 7.758,2.541 16.37,8.971 16.37,24.756 v 22.396 c 0,23.75 -19.5,26.333 -26.25,26.333 H 0 -50.646 v -112.5 H 0 v 37.437 h 12.008 l 16.928,-37.437 z"
             style="fill:#414142;fill-opacity:1;fill-rule:nonzero;stroke:none"
             id="path162"
             inkscape:connector-curvature="0" /></g></g></g></g></svg>