<?xml version="1.0" encoding="UTF-8" standalone="no"?>
<!-- Created with Inkscape (http://www.inkscape.org/) -->

<svg
   xmlns:dc="http://purl.org/dc/elements/1.1/"
   xmlns:cc="http://creativecommons.org/ns#"
   xmlns:rdf="http://www.w3.org/1999/02/22-rdf-syntax-ns#"
   xmlns:svg="http://www.w3.org/2000/svg"
   xmlns="http://www.w3.org/2000/svg"
   xmlns:sodipodi="http://sodipodi.sourceforge.net/DTD/sodipodi-0.dtd"
   xmlns:inkscape="http://www.inkscape.org/namespaces/inkscape"
   version="1.1"
   id="svg2"
   xml:space="preserve"
   width="793.70667"
   height="1122.52"
   viewBox="0 0 793.70667 1122.52"
   sodipodi:docname="tihv.ai.svg"
   inkscape:version="0.92.2 5c3e80d, 2017-08-06"><metadata
     id="metadata8"><rdf:RDF><cc:Work
         rdf:about=""><dc:format>image/svg+xml</dc:format><dc:type
           rdf:resource="http://purl.org/dc/dcmitype/StillImage" /><dc:title></dc:title></cc:Work></rdf:RDF></metadata><defs
     id="defs6"><clipPath
       clipPathUnits="userSpaceOnUse"
       id="clipPath18"><path
         d="M 0,841.89 H 595.28 V 0 H 0 Z"
         id="path16"
         inkscape:connector-curvature="0" /></clipPath><clipPath
       clipPathUnits="userSpaceOnUse"
       id="clipPath26"><path
         d="M 47.6406,706.442 H 549.529 V 154.669 H 47.6406 Z"
         id="path24"
         inkscape:connector-curvature="0" /></clipPath><clipPath
       clipPathUnits="userSpaceOnUse"
       id="clipPath382"><path
         d="M 0,841.89 H 595.28 V 0 H 0 Z"
         id="path380"
         inkscape:connector-curvature="0" /></clipPath><clipPath
       clipPathUnits="userSpaceOnUse"
       id="clipPath524"><path
         d="M 0,841.89 H 595.28 V 0 H 0 Z"
         id="path522"
         inkscape:connector-curvature="0" /></clipPath></defs><sodipodi:namedview
     pagecolor="#ffffff"
     bordercolor="#666666"
     borderopacity="1"
     objecttolerance="10"
     gridtolerance="10"
     guidetolerance="10"
     inkscape:pageopacity="0"
     inkscape:pageshadow="2"
     inkscape:window-width="1920"
     inkscape:window-height="1036"
     id="namedview4"
     showgrid="false"
     inkscape:zoom="0.59465202"
     inkscape:cx="382.93464"
     inkscape:cy="647.023"
     inkscape:window-x="0"
     inkscape:window-y="20"
     inkscape:window-maximized="0"
     inkscape:current-layer="g10" /><g
     id="g10"
     inkscape:groupmode="layer"
     inkscape:label="tihv"
     transform="matrix(1.3333333,0,0,-1.3333333,0,1122.52)"><g
       id="g1369"
       style="display:none"><path
         inkscape:connector-curvature="0"
         id="path310"
         style="fill:none;stroke:#231f20;stroke-width:1;stroke-linecap:butt;stroke-linejoin:miter;stroke-miterlimit:4;stroke-dasharray:none;stroke-opacity:1"
         d="m 382.641,380.944 h -170 v 170 h 170 z" /><path
         inkscape:connector-curvature="0"
         id="path312"
         style="fill:none;stroke:#231f20;stroke-width:1;stroke-linecap:butt;stroke-linejoin:miter;stroke-miterlimit:4;stroke-dasharray:none;stroke-opacity:1"
         d="m 202.64,380.944 h -170 v 170 h 170 z" /><path
         inkscape:connector-curvature="0"
         id="path314"
         style="fill:none;stroke:#231f20;stroke-width:1;stroke-linecap:butt;stroke-linejoin:miter;stroke-miterlimit:4;stroke-dasharray:none;stroke-opacity:1"
         d="m 562.641,380.944 h -170 v 170 h 170 z" /><path
         inkscape:connector-curvature="0"
         id="path316"
         style="fill:none;stroke:#231f20;stroke-width:1;stroke-linecap:butt;stroke-linejoin:miter;stroke-miterlimit:4;stroke-dasharray:none;stroke-opacity:1"
         d="m 382.641,560.945 h -170 v 170 h 170 z" /><path
         inkscape:connector-curvature="0"
         id="path318"
         style="fill:none;stroke:#231f20;stroke-width:1;stroke-linecap:butt;stroke-linejoin:miter;stroke-miterlimit:4;stroke-dasharray:none;stroke-opacity:1"
         d="m 202.64,560.945 h -170 v 170 h 170 z" /><path
         inkscape:connector-curvature="0"
         id="path320"
         style="fill:none;stroke:#231f20;stroke-width:1;stroke-linecap:butt;stroke-linejoin:miter;stroke-miterlimit:4;stroke-dasharray:none;stroke-opacity:1"
         d="m 562.641,560.945 h -170 v 170 h 170 z" /><path
         inkscape:connector-curvature="0"
         id="path322"
         style="fill:none;stroke:#231f20;stroke-width:1;stroke-linecap:butt;stroke-linejoin:miter;stroke-miterlimit:4;stroke-dasharray:none;stroke-opacity:1"
         d="m 382.641,740.945 h -170 v 70 h 170 z" /><path
         inkscape:connector-curvature="0"
         id="path324"
         style="fill:none;stroke:#231f20;stroke-width:1;stroke-linecap:butt;stroke-linejoin:miter;stroke-miterlimit:4;stroke-dasharray:none;stroke-opacity:1"
         d="m 202.64,740.945 h -170 v 70 h 170 z" /><path
         inkscape:connector-curvature="0"
         id="path326"
         style="fill:none;stroke:#231f20;stroke-width:1;stroke-linecap:butt;stroke-linejoin:miter;stroke-miterlimit:4;stroke-dasharray:none;stroke-opacity:1"
         d="m 562.641,740.945 h -170 v 70 h 170 z" /><path
         inkscape:connector-curvature="0"
         id="path328"
         style="fill:none;stroke:#231f20;stroke-width:1;stroke-linecap:butt;stroke-linejoin:miter;stroke-miterlimit:4;stroke-dasharray:none;stroke-opacity:1"
         d="m 382.641,200.952 h -170 v 170.001 h 170 z" /><path
         inkscape:connector-curvature="0"
         id="path330"
         style="fill:none;stroke:#231f20;stroke-width:1;stroke-linecap:butt;stroke-linejoin:miter;stroke-miterlimit:4;stroke-dasharray:none;stroke-opacity:1"
         d="m 202.64,200.952 h -170 v 170.001 h 170 z" /><path
         inkscape:connector-curvature="0"
         id="path332"
         style="fill:none;stroke:#231f20;stroke-width:1;stroke-linecap:butt;stroke-linejoin:miter;stroke-miterlimit:4;stroke-dasharray:none;stroke-opacity:1"
         d="m 562.641,200.952 h -170 v 170.001 h 170 z" /><path
         inkscape:connector-curvature="0"
         id="path334"
         style="fill:none;stroke:#231f20;stroke-width:1;stroke-linecap:butt;stroke-linejoin:miter;stroke-miterlimit:4;stroke-dasharray:none;stroke-opacity:1"
         d="m 382.641,30.944 h -170 v 160 h 170 z" /><path
         inkscape:connector-curvature="0"
         id="path336"
         style="fill:none;stroke:#231f20;stroke-width:1;stroke-linecap:butt;stroke-linejoin:miter;stroke-miterlimit:4;stroke-dasharray:none;stroke-opacity:1"
         d="m 202.64,30.944 h -170 v 160 h 170 z" /><path
         inkscape:connector-curvature="0"
         id="path338"
         style="fill:none;stroke:#231f20;stroke-width:1;stroke-linecap:butt;stroke-linejoin:miter;stroke-miterlimit:4;stroke-dasharray:none;stroke-opacity:1"
         d="m 562.633,30.937 h -170 v 160 h 170 z" /></g><g
       id="g12"
       transform="translate(-599.08988,110.98928)"><g
         id="g14"
         clip-path="url(#clipPath18)"><g
           id="g20"><g
             id="g22" /><g
             id="g308"><g
               clip-path="url(#clipPath26)"
               id="g306"><g
                 transform="translate(499.6113,491.2544)"
                 id="g30"><path
                   d="M 0,0 H 31.264 C 30.334,3.072 29.5,5.111 28.283,6.51 24.031,2.291 18.924,4.62 14.443,4.385 9.699,4.135 4.807,3.326 0,5.406 Z m -12.076,167.825 c -4.776,3.875 -5.266,27.111 -1.438,32.699 h -9.175 c 3.835,-4.63 3.578,-28.211 -0.202,-32.699 z M -432.771,-112.25 v -12.535 c 3.557,7.014 9.729,3.555 14.623,3.827 5.333,0.296 10.957,1.566 16.015,-1.415 v 8.85 c -1.582,-2.156 -3.304,-2.332 -5.206,-2.312 -6.474,0.066 -12.95,0.074 -19.424,0.002 -2.85,-0.032 -5.419,0.119 -6.008,3.583 m 275.207,-215.957 c -3.383,3.95 -3.413,28.6 -0.346,32.729 h -9.445 c 4.533,-5.076 2.162,-10.922 2.267,-16.254 0.108,-5.451 1.772,-11.236 -1.678,-16.475 z m -220.625,528.872 c 3.441,-4.529 3.079,-29.168 -0.372,-32.704 h 10.022 c -3.219,3.488 -3.645,27.784 -0.631,32.704 z M -197.48,-302.46 c 0.259,0.746 0.423,1.544 0.793,2.232 1.712,3.184 4.916,3.551 7.794,3.102 3.123,-0.487 1.653,-3.536 1.709,-5.43 0.186,-6.151 0.034,-12.311 0.086,-18.465 0.024,-2.693 -0.166,-5.234 -3.33,-7.002 h 10.221 c -2.564,1.492 -2.654,3.764 -2.637,6.17 0.049,6.654 -0.043,13.311 0.057,19.965 0.025,1.676 -0.967,4.221 1.416,4.736 2.553,0.555 5.396,0.19 7.299,-2.096 0.83,-0.996 1.254,-2.332 2.228,-4.228 0.588,3.391 0.465,5.752 -0.711,8.244 -6.607,0 -13.088,0.004 -19.568,0 -6.762,-0.006 -6.762,-0.01 -5.357,-7.228 M 6.775,148.398 c 7.098,3.372 13.221,6.181 19.243,9.19 2.431,1.215 3.591,0.042 4.724,-2.351 V 166.19 C 21.061,159.268 9.406,156.006 -0.854,149.872 9.555,144.067 21.34,141.804 30.937,135.035 v 8.166 c -1.455,-1.738 -2.417,-3.538 -4.89,-2.5 -6.051,2.542 -12.186,4.883 -19.272,7.697 m 22.118,-419.571 c -1.282,-3.196 -3.924,-3.516 -6.924,-3.471 -5.813,0.09 -11.631,-0.063 -17.442,0.078 -1.797,0.045 -4.47,-1.152 -5.144,1.533 -0.688,2.739 -0.383,5.623 1.902,7.856 0.891,0.869 2.637,0.613 2.981,2.33 -2.18,0.258 -4.282,0.369 -6.446,-0.406 v -27.506 c 2.485,-0.123 4.639,-0.229 6.793,-0.334 -0.867,1.273 -1.916,1.619 -2.795,2.215 -2.744,1.855 -2.951,4.785 -2.523,7.582 0.506,3.306 3.422,1.879 5.293,1.939 5.641,0.184 11.293,0.043 16.941,0.076 2.963,0.018 5.885,0.047 7.364,-3.328 z M -0.51,-13.91 c 0.369,-12.166 11.756,-20.694 23.358,-17.726 6.533,1.671 9.888,7.265 8.222,13.703 -1.371,5.3 -7.855,8.574 -13.683,6.909 -5.715,-1.634 -7.682,-6.733 -5.34,-13.789 0.178,-0.539 0.719,-1.167 -0.254,-1.773 -6.113,2.135 -10.209,6.324 -12.303,12.676 m -0.047,-24.057 c 0.834,-13.948 15.604,-22.769 26.698,-16.349 4.839,2.8 6.759,8.775 4.421,13.75 -2.287,4.861 -8.824,7.156 -14.136,4.963 -4.947,-2.041 -6.549,-6.331 -4.653,-12.458 0.229,-0.739 0.483,-1.47 0.926,-2.814 -7.162,2.207 -11.219,6.512 -13.256,12.908 M -118.041,200.58 c 3.098,-4.802 2.871,-28.24 -0.357,-32.871 5.8,0 11.437,-0.001 17.076,0.001 7.384,0.003 7.851,0.471 7.738,8.408 -2.389,-6.675 -8.029,-6.361 -13.324,-6.709 -3.049,-0.201 -4.59,1.179 -4.547,4.401 0.088,6.478 0.055,12.958 -0.004,19.437 -0.023,2.668 -0.014,5.277 2.406,7.333 z m -290.304,-413.394 c 5.174,-2.059 5.176,-6.279 4.97,-11.357 -8.637,0 -17.066,0.009 -25.495,-0.006 -2.271,-0.006 -2.669,2.09 -3.896,3.572 v -10.953 c 9.413,4.787 19.511,1.057 29.332,2.301 0.525,-5.217 -0.244,-9.051 -6.207,-11.735 3.622,0.159 5.534,0.242 7.812,0.342 v 13.822 14.014 z M 0.049,131.064 c 3.861,2.689 7.92,0.833 9.168,-1.381 2.043,-3.623 1.877,-8.839 0.154,-12.516 -1.283,-2.737 -5.502,-4.151 -9.289,-2.536 v -7.981 c 10.471,4.966 20.861,9.895 31.975,15.166 -10.879,6.004 -22.051,9.335 -32.008,15.535 z m -402.02,-20.509 c -2.046,-2.085 -4.123,-2.226 -6.339,-2.203 -4.984,0.051 -9.977,0.094 -14.954,-0.136 -6.9,-0.318 -10.28,-4.601 -10.23,-12.577 0.051,-7.963 3.517,-12.15 10.481,-12.377 4.649,-0.152 9.307,-0.038 13.962,-0.038 2.608,0 5.164,-0.136 7.049,-3.395 v 7.992 c -1.417,-0.844 -1.977,-2.521 -3.651,-2.509 -6.476,0.045 -12.985,-0.277 -19.419,0.272 -4.466,0.381 -7.022,4.787 -6.606,9.679 0.433,5.094 3.222,7.873 8.349,7.988 5.483,0.123 10.972,-0.043 16.454,0.079 1.839,0.04 3.34,-0.487 4.904,-2.223 z M 12.186,-109.707 c -5.059,-2.523 -8.004,-8.201 -14.397,-7.515 v -9.317 c 2.633,2.112 4.998,4.096 7.457,5.956 2.654,2.005 5.311,4.027 8.119,5.8 4.311,2.721 12.836,1.18 15.535,-2.715 v 12.551 c -1.07,-4.273 -4.476,-3.599 -7.603,-3.851 -4.529,-0.364 -8.373,0.689 -11.957,3.658 -3.721,3.08 -8.172,5.242 -11.699,9.793 v -7.416 c 3.648,1.107 3.648,1.107 14.545,-6.944 M -400.764,6.687 c -10.569,6.168 -22.39,8.906 -32.03,16.048 v -7.796 c 3.398,4.479 6.45,1.131 9.359,-0.119 1.491,-0.64 1.354,-12.036 0.133,-13.417 -2.148,-2.428 -7.121,-2.967 -9.52,-1.034 v -9.78 c 9.883,6.622 21.423,9.995 32.058,16.098 M 15.717,-57.748 c -4.651,-0.19 -9.071,-0.822 -12.744,-3.798 -5.493,-4.448 -5.131,-12.545 0.992,-15.973 7.467,-4.182 15.291,-4.406 22.769,-0.004 6.58,3.873 6.364,12.91 -0.173,16.878 -3.364,2.041 -7.112,2.624 -10.844,2.897 m -227.139,-236.513 c -5.792,-11.522 -8.597,-23.367 -14.857,-33.809 2.033,-0.267 3.959,-0.506 6.032,0.201 -2.199,3.641 -1.04,7.784 1.484,9.364 3.353,2.097 8.572,1.941 11.912,0.132 2.677,-1.447 4.183,-5.804 1.802,-9.912 3.053,0.176 5.92,-0.443 8.461,0.317 -5.826,10.783 -9.26,22.234 -14.834,33.707 m 136.588,496.103 c -5.771,-11.591 -8.457,-23.459 -14.947,-33.755 2.045,-0.65 4.121,-0.477 6.248,-0.107 -1.295,2.899 -0.61,8.563 1.16,10.068 1.244,1.059 11.832,1.125 12.504,-0.213 1.521,-3.027 4.133,-6.043 1.568,-9.754 h 8.426 c -5.893,10.724 -9.246,22.343 -14.959,33.761 m -197.712,-33.869 c -6.028,10.626 -9.233,22.431 -15.048,33.736 -5.842,-11.368 -8.428,-23.34 -15.004,-33.622 1.988,-0.705 4.075,-0.419 6.516,-0.097 -2.799,3.745 -0.615,6.888 1.019,9.968 0.596,1.125 11.278,1.36 12.082,0.198 2.094,-3.031 4.286,-6.228 1.893,-10.183 z m 91.446,0.009 c -2.814,3.959 -0.773,7.217 1.389,10.268 0.789,1.11 11.572,0.72 12.09,-0.348 1.502,-3.093 4.121,-6.134 1.453,-9.915 h 8.52 c -5.895,10.68 -9.19,22.418 -14.991,33.812 -5.785,-11.506 -8.441,-23.419 -14.972,-33.817 z m -219.874,-436.53 c -2.371,3.148 -0.164,5.787 0.013,8.504 0.302,4.646 -1.243,8.265 -5.852,9.837 -4.164,1.418 -7.02,-0.763 -9.177,-4.097 -1.534,-2.369 -2.905,-4.844 -4.44,-7.213 -2.79,-4.305 -5.994,-5.522 -8.963,-3.496 -3.163,2.156 -3.389,6.875 -0.62,10.705 1.56,2.158 3.962,3.326 6.382,5.168 -1.065,0.197 -1.541,0.41 -1.976,0.344 -2.448,-0.371 -4.885,-0.809 -7.762,-1.299 2.626,-2.834 0.412,-5.453 0.117,-8.1 -0.65,-5.822 1.417,-10.744 5.452,-12.228 4.39,-1.616 7.833,0.06 11.407,5.627 1.795,2.793 3.387,5.724 5.315,8.418 1.191,1.664 2.916,2.697 5.206,1.898 2.513,-0.879 2.932,-2.814 2.972,-5.152 0.089,-5.198 -3.688,-7.348 -7.302,-10.108 2.833,0.365 5.665,0.731 9.228,1.192 m 398.632,31.685 c 1.649,1.225 2.43,3.104 4.557,3.069 5.992,-0.1 12.015,0.261 17.974,-0.215 5.112,-0.41 7.709,-4.553 7.215,-10.149 -0.459,-5.195 -3.041,-7.564 -8.515,-7.636 -4.996,-0.067 -9.996,0.039 -14.993,-0.041 -2.292,-0.036 -4.517,-0.116 -6.283,2.916 v -11.575 c 1.803,3.672 4.408,3.657 7.11,3.614 4.664,-0.073 9.332,-0.118 13.992,0.041 7.254,0.242 10.43,4.037 10.455,12.203 0.027,8.582 -3.111,12.539 -10.432,12.836 -4.324,0.175 -8.666,0.164 -12.992,0.009 -3.092,-0.111 -5.935,0.141 -8.088,3.381 z m -25.607,-91.26 c -3.561,5.176 -1.533,10.663 -1.879,16.231 4.973,-0.234 10.049,2.092 12.783,-5.191 v 11.72 c -3.146,-6.887 -8.217,-3.814 -13.201,-4.344 1.262,4.61 -2.109,9.696 2.187,12.465 4.198,2.705 11.487,-0.215 14.237,-4.976 0.002,2.621 0.316,4.666 -0.651,6.986 h -11.425 -11.7 c 3.575,-3.996 3.662,-28.973 0.557,-32.891 z m -282.175,529.211 c -2.825,-1.836 -5.203,0.093 -7.728,0.273 -3.96,0.284 -7.257,-0.532 -9.042,-4.544 -1.903,-4.275 -0.767,-7.834 2.71,-10.62 2.454,-1.967 5.198,-3.568 7.788,-5.369 2.606,-1.812 4.404,-4.047 3.693,-7.51 -0.443,-2.162 -1.706,-3.609 -3.853,-4.093 -3.398,-0.766 -6.242,0.334 -8.396,3.007 -1.24,1.539 -2.255,3.261 -4.13,6.015 0.593,-4.362 0.992,-7.296 1.445,-10.622 2.189,1.277 4.27,0.659 6.491,0.021 5.392,-1.549 10.288,0.408 12.424,4.65 2.197,4.362 0.769,8.772 -4.177,12.433 -2.534,1.875 -5.296,3.444 -7.794,5.362 -2.578,1.98 -4.296,4.66 -1.938,7.668 2.209,2.818 5.186,2.196 8.08,0.592 2.59,-1.435 3.364,-4.282 5.316,-7.221 0.538,3.94 -0.503,6.734 -0.889,9.958 m -59.922,-507.511 c -3.144,-3.821 -5.373,-4.268 -12.946,-2.633 0.914,3.935 -2.253,8.931 1.94,11.818 3.723,2.565 11.523,-0.318 14.523,-4.845 -0.498,3.13 2.1,6.714 -3.03,6.81 -6.764,0.125 -13.532,0.031 -20.574,0.031 4.458,-5.304 2.403,-11.154 2.495,-16.547 0.094,-5.47 1.627,-11.275 -1.792,-16.191 h 8.697 c -3.929,5.184 -1.642,10.609 -2.137,16.111 4.945,-0.388 10.094,2.26 12.824,-5.111 z m 63.039,11.185 c 1.988,-1.599 2.386,-3.646 2.407,-5.597 0.065,-5.975 0.178,-11.971 -0.234,-17.922 -0.4,-5.793 -3.168,-8.082 -8.613,-8.051 -5.186,0.029 -8.028,2.641 -8.357,8.432 -0.32,5.634 -0.012,11.3 -0.205,16.947 -0.081,2.394 0.845,4.199 2.909,5.89 h -10.808 c 3.319,-1.748 3.417,-4.021 3.418,-6.388 0.003,-5.485 -0.223,-10.99 0.182,-16.448 0.588,-7.904 4.604,-10.91 13.179,-10.5 6.811,0.327 10.159,3.981 10.282,11.358 0.076,4.486 -0.063,8.978 0.056,13.463 0.082,3.072 0.092,6.265 3.504,8.344 -0.893,0.236 -1.336,0.447 -1.782,0.455 -1.98,0.037 -3.958,0.017 -5.938,0.017 m -93.93,133.444 c -1.957,3.152 -0.867,5.681 -0.42,8.296 1.196,6.993 -0.132,13.309 -6.049,17.864 -5.183,3.988 -11.089,4.588 -16.92,1.92 -6.858,-3.137 -9.105,-9.297 -9.134,-16.405 -0.011,-2.814 0.516,-5.572 1.261,-8.334 0.869,-3.216 2.353,-4.599 5.889,-4.427 3.451,0.168 7.371,1.461 10.024,-2.465 v 11.127 c -2.652,-5.756 -7.214,-2.907 -10.796,-3.557 -2.402,-0.435 -3.453,0.9 -4.119,3.205 -2.228,7.705 1.941,14.506 10.236,16.317 10.611,2.314 18.974,-4.127 18.028,-13.819 -0.47,-4.828 -4.014,-7.146 -8.682,-9.722 z m 282.957,-133.934 c 4.115,-4.078 4.371,-27.684 0.582,-32.248 2.339,-0.527 4.603,-0.42 6.697,-0.096 -4.498,8.199 -1.242,16.793 -1.205,25.371 6.615,-8.609 13.228,-17.216 19.843,-25.824 1.045,8.734 1.034,17.135 1.051,25.533 0.006,2.735 -0.39,5.633 4.016,7.401 h -8.379 c 4.609,-7.215 1.396,-14.821 1.893,-22.242 -5.311,6.046 -10.303,12.16 -14.793,18.623 -2.454,3.529 -5.194,4.832 -9.705,3.482 m -3.983,-15.945 c -0.019,10.138 -6.279,17.033 -15.471,17.047 -9.187,0.011 -15.5,-6.883 -15.546,-16.981 -0.047,-10.375 6.318,-17.367 15.736,-17.287 9.185,0.078 15.303,6.973 15.281,17.221 m -145.863,511.986 c 4.074,-4.43 3.997,-27.545 0.087,-32.389 2.52,-0.274 4.967,-0.456 7.483,0.117 -2.986,3.338 -4.072,19.234 -1.738,25.377 6.677,-8.699 13.3,-17.329 19.922,-25.958 1.051,8.446 1.09,16.523 1.031,24.6 -0.021,3.012 -0.217,6.01 2.437,8.414 h -6.86 c 4.541,-7.276 1.723,-14.903 2.418,-22.726 -0.975,0.499 -1.174,0.537 -1.265,0.656 -4.658,6.065 -9.507,11.998 -13.878,18.264 -2.418,3.467 -5.08,5.019 -9.637,3.645 m -80.85,-529.211 c 9.159,0.061 15.275,6.982 15.23,17.234 -0.046,10.286 -6.144,17.008 -15.451,17.034 -9.361,0.023 -15.729,-7.159 -15.505,-17.491 0.222,-10.252 6.398,-16.839 15.726,-16.777 m 77.633,10.727 c -4.868,6.418 -9.912,12.711 -14.535,19.302 -2.481,3.537 -5.272,4.387 -9.33,3.145 4.039,-4.488 4.191,-27.783 0.371,-32.217 2.334,-0.601 4.6,-0.416 6.735,-0.152 -4.232,8.113 -1.247,16.572 -1.022,25.164 6.585,-8.557 13.17,-17.112 19.756,-25.668 1.048,9.017 1.079,17.601 1.031,26.185 -0.016,2.629 -0.02,5.174 3.759,6.782 h -8.054 c 4.453,-7.274 1.427,-14.877 1.289,-22.541 m 198.93,6.437 c -0.004,-9.84 5.367,-16.523 13.607,-17.15 6.41,-0.489 11.619,1.664 14.695,7.304 3.467,6.358 3.491,13.127 0.032,19.543 -3.403,6.311 -10.59,8.955 -17.586,6.928 -6.826,-1.978 -10.744,-8.039 -10.748,-16.625 m -268.481,512.35 c 4.482,-7.175 1.739,-14.87 1.893,-22.449 -5.33,6.083 -10.136,12.349 -14.909,18.641 -3.431,4.524 -3.525,4.58 -9.298,3.264 4.215,-4.454 4.047,-27.694 -0.306,-32.095 h 7.098 c -3.772,8.279 -1.027,16.796 -0.933,25.243 6.515,-8.471 13.03,-16.944 20.136,-26.183 1.609,11.828 -1.373,22.977 2.092,33.579 z M -409.449,-23.15 c 0.176,-0.467 0.352,-0.932 0.528,-1.399 -8.003,-6.881 -16.007,-13.76 -24.537,-21.093 10.91,-2.131 21.536,1.566 31.545,-2.516 -0.064,2.052 0.544,4.169 -0.171,5.732 -6.882,-3.183 -13.749,-1.49 -21.962,-1.541 6.881,5.854 12.387,10.911 18.304,15.43 3.513,2.683 4.865,5.518 3.415,9.707 -5.762,-4.419 -27.31,-3.287 -30.46,1.754 v -9.008 c 7.214,5.555 15.613,1.492 23.338,2.934 M 0.195,80.707 v -8.819 c 5.703,5.383 11.459,10.817 17.639,16.651 4.178,-5.512 10.199,-9.286 13.205,-17.098 v 7.676 4.099 c -3.51,-2.694 -10.098,2.577 -13.951,11.245 4.848,-1.396 10.555,2.599 13.779,-4.397 v 12.165 C 27.85,98.414 4.523,97.693 -0.113,101.492 v -4.695 -5.216 c 3.787,3.248 10.205,3.64 14.99,0.599 C 9.668,88.725 7.102,82.516 0.195,80.707 M -401.831,-75.966 c -6.75,-3.248 -27.967,-2.123 -30.862,1.377 v -10.825 c 4.34,4.891 9.537,1.95 15.573,2.688 -3.277,-5.402 -7.434,-7.926 -11.147,-10.672 -3.909,-2.891 -5.724,-6.103 -4.303,-10.945 4.109,5.031 9.255,8.875 14.39,13.051 3.152,-7.313 5.68,-9.303 10.077,-8.368 4.053,0.864 6.195,4.625 6.264,11.143 0.045,4.137 0.008,8.275 0.008,12.551 m -30.914,-97.219 v -11.506 c 4.123,5.555 9.556,2.018 14.372,2.94 v -15.356 c -5.046,1.457 -10.538,-2.248 -14.319,3.106 v -11.477 c 2.823,4.297 24.458,5.424 30.675,1.814 v 8.586 c -4.532,-3.023 -9.154,-1.38 -13.661,-1.584 v 14.799 c 4.721,-0.256 9.304,1.496 13.666,-1.588 v 8.573 c -6.115,-3.377 -27.858,-2.268 -30.733,1.693 M -260.1,-295.273 c 3.036,-4.006 3.092,-28.807 0.375,-32.594 5.172,0 10.507,-0.386 15.764,0.088 8.27,0.746 13.926,7.596 13.911,16.08 -0.014,8.467 -5.285,14.715 -13.487,15.948 -5.45,0.818 -10.923,0.488 -16.563,0.478 m 120.047,481.865 c 4.524,5.011 8.791,9.789 14.408,13.998 h -8.302 c 0.916,-4.116 -4.186,-10.557 -11.248,-14.164 -0.153,4.945 -1.19,9.769 1.756,14.041 h -8.75 c 3.201,-4.454 3.068,-28.18 -0.016,-32.573 h 9.557 c -3.452,3.785 -3.875,11.582 -0.639,15.492 3.197,-5.357 10.221,-7.986 9.943,-15.378 h 10.41 c -6.404,5.677 -11.207,12.203 -17.119,18.584 m 92.012,-3.887 c 2.584,1.042 3.434,-0.472 4.422,-1.84 2.334,-3.233 4.707,-6.437 7.08,-9.642 3.035,-4.099 3.879,-4.338 8.785,-2.609 -4.939,4.194 -8.113,9.8 -12.283,14.851 7.267,2.974 9.029,5.457 8.045,10.73 -0.768,4.106 -4.254,6.37 -10.406,6.544 -4.125,0.116 -8.256,0.022 -12.579,0.022 2.979,-4.297 2.862,-28.662 0.045,-32.828 h 9.498 c -4.64,4.641 -1.757,10.007 -2.607,14.772 m -367.633,-54.427 v 15.16 c 4.794,0.046 9.368,1.441 13.661,-1.416 v 8.692 c -5.564,-3.589 -27.81,-2.584 -30.642,1.129 V 140.63 c 3.988,5.439 9.365,2.171 14.269,3.079 v -15.738 c -5.051,1.416 -10.737,-2.36 -14.373,3.964 v -11.586 c 2.937,3.49 25.407,4.42 30.742,1.194 v 8.683 c -4.189,-3.235 -8.745,-1.595 -13.657,-1.948 M 17.039,59.15 c 4.229,-0.619 8.912,2.232 11.955,-1.746 2.547,-3.325 -0.447,-12.371 -4.072,-15.092 1.67,-0.177 3.289,-0.349 4.887,-0.518 C 29.666,37.293 29.242,36.534 25.66,36.445 18.834,36.277 12,36.424 5.17,36.374 c -2.1,-0.015 -3.639,0.935 -5.137,3 V 29.239 c 4.983,4.462 28.088,3.326 30.834,-1.443 V 67.289 C 27.701,63.539 4.766,62.822 0.025,66.175 V 57.06 c 4.59,3.895 9.688,1.499 14.899,2.201 -0.311,-5.152 2.349,-10.3 -4.045,-13.851 h 11.043 c -7.059,3.198 -4.369,8.469 -4.883,13.74 m -219.328,108.867 h 9.967 c -3.36,3.582 -3.797,27.568 -0.813,32.639 h -8.523 c 3.148,-4.734 1.238,-9.708 1.676,-14.614 h -13.448 c -1.259,7.301 -0.912,11.286 1.202,14.46 h -8.795 c 3.128,-4.579 2.83,-28.747 -0.167,-32.422 h 9.424 c -4.264,4.861 -1.363,10.19 -2.293,15.293 5.014,0.446 9.389,0.558 14.286,-0.041 -1.069,-5.313 1.884,-10.686 -2.516,-15.315 m -230.52,-96.096 v -9.712 c 3.069,3.726 17.018,5.091 23.189,2.26 -7.818,-3.858 -15.49,-7.645 -23.782,-11.736 8.953,-4.319 17.188,-8.292 25.423,-12.264 -6.41,-1.086 -12.505,-1.016 -18.597,-1.116 -2.881,-0.048 -5.214,0.502 -6.122,3.626 V 31.167 c 2.687,3.608 25.382,4.591 30.492,1.653 1.667,5.192 -0.218,8.201 -5.396,10.124 -5.787,2.15 -11.272,5.112 -17.879,8.181 6.553,3.162 11.936,6.082 17.57,8.383 5.009,2.047 7.666,4.845 5.622,10.442 -5.678,-4.221 -27.263,-2.938 -30.52,1.971 M 28.91,-212.546 c -2.926,-6.692 -7.848,-4.088 -11.826,-4.631 -1.096,-0.151 -2.441,-0.131 -2.857,1.353 -0.385,1.377 0.576,2.133 1.492,2.881 3.611,2.949 7.215,5.908 10.83,8.854 1.133,0.925 2.469,1.576 2.447,3.445 -0.078,6.549 -0.029,13.1 -0.029,20.201 -3.1,-3.807 -9.276,-4.539 -14.545,-2.281 3.066,3.328 6.123,6.75 9.299,10.057 1.791,1.863 3.759,3.355 5.066,-1.415 0.192,12.752 0.193,24.577 0.192,36.401 0,7.014 -0.065,7.078 -8.938,7.723 7.76,-3.647 7.033,-9.698 6.998,-15.553 -0.016,-2.26 -0.998,-3.557 -3.172,-3.617 -3.441,-0.096 -6.922,-0.467 -10.638,0.365 0.158,5.066 -2.237,10.48 4.521,13.746 H 7.65 c 4.151,-3.578 4.705,-6.137 3.202,-13.609 -6.75,-1.262 -10.752,-0.889 -11.639,1.084 -1.602,3.566 0.672,12.037 4.201,15.544 -1.848,0.219 -3.656,0.436 -5.674,-0.271 v -24.42 c 1.766,2.09 3.672,2.813 5.961,2.795 6.332,-0.049 12.666,0.102 18.994,-0.057 5.065,-0.127 7.225,-4.07 4.233,-8.179 -4.496,-6.174 -10.729,-10.676 -16.121,-16.491 -4.498,5.401 -9.446,9.344 -13.09,15.5 v -7.798 c 7.113,-1.606 9.599,-7.743 14.584,-12.887 -5.793,0.428 -10.465,-1.471 -14.75,2.043 v -10.135 c 1.66,2.043 3.277,3.1 5.625,3.045 6.662,-0.154 13.332,0.055 19.992,-0.096 4.607,-0.103 6.635,-3.717 3.978,-7.511 -3.423,-4.887 -8.568,-7.969 -13.119,-12.178 -0.591,1.353 -0.836,1.783 -0.97,2.246 -1.186,4.078 -3.477,7.01 -8.116,6.502 -4.767,-0.522 -6.578,-3.943 -7.074,-8.322 -0.592,-5.239 -0.467,-10.459 -0.129,-15.918 5.737,3.761 27.242,2.943 31.172,-0.995 z M -13.137,161.807 H -389.629 V -282.33 h 376.492 z m -438.834,53.38 H 49.918 v -551.773 h -501.889 z"
                   style="fill:#ffffff;fill-opacity:1;fill-rule:evenodd;stroke:none"
                   id="path28"
                   inkscape:connector-curvature="0" /></g><path
                 d="M 479.359,647.209 H 116.921 V 214.616 h 362.438 z m 7.116,-438.284 H 109.983 v 444.137 h 376.492 z"
                 style="fill:#231f20;fill-opacity:1;fill-rule:evenodd;stroke:none"
                 id="path32"
                 inkscape:connector-curvature="0" /><g
                 transform="translate(511.7109,273.4795)"
                 id="g36"><path
                   d="m 0,0 c 0.377,8.887 -1.609,12.336 -6.387,12.441 -4.22,0.094 -7.865,-3.816 -6.474,-8.554 C -10.719,-3.41 -4.402,2.559 0,0 M 16.811,5.229 V -7.35 c -3.93,3.938 -25.436,4.756 -31.172,0.995 -0.338,5.459 -0.463,10.679 0.129,15.918 0.496,4.378 2.306,7.8 7.074,8.322 4.638,0.508 6.929,-2.424 8.115,-6.502 0.135,-0.463 0.379,-0.893 0.971,-2.246 4.551,4.209 9.695,7.291 13.119,12.177 2.656,3.795 0.629,7.409 -3.979,7.512 -6.66,0.151 -13.33,-0.058 -19.992,0.096 -2.347,0.055 -3.965,-1.002 -5.625,-3.045 v 10.135 c 4.285,-3.514 8.957,-1.616 14.75,-2.043 -4.984,5.144 -7.471,11.281 -14.584,12.886 v 7.799 c 3.645,-6.156 8.592,-10.099 13.09,-15.5 5.393,5.815 11.625,10.317 16.121,16.491 2.992,4.109 0.832,8.052 -4.232,8.179 -6.328,0.158 -12.662,0.008 -18.994,0.057 -2.29,0.017 -4.196,-0.705 -5.961,-2.795 v 24.42 c 2.017,0.707 3.826,0.49 5.673,0.271 -3.529,-3.507 -5.802,-11.978 -4.201,-15.545 0.887,-1.972 4.889,-2.345 11.639,-1.084 1.504,7.473 0.949,10.032 -3.201,13.61 H 5.65 C -1.107,79.492 1.287,74.078 1.129,69.012 4.846,68.18 8.326,68.551 11.768,68.646 c 2.173,0.061 3.156,1.358 3.171,3.618 0.036,5.855 0.762,11.906 -6.998,15.552 8.873,-0.644 8.938,-0.709 8.938,-7.722 0.002,-11.824 0,-23.649 -0.192,-36.401 -1.306,4.77 -3.275,3.278 -5.066,1.414 -3.176,-3.306 -6.232,-6.728 -9.299,-10.056 5.27,-2.258 11.446,-1.526 14.545,2.281 0,-7.102 -0.049,-13.652 0.029,-20.201 0.022,-1.869 -1.314,-2.52 -2.447,-3.445 C 10.834,10.74 7.23,7.781 3.619,4.832 2.703,4.084 1.742,3.328 2.127,1.951 2.543,0.467 3.889,0.447 4.984,0.598 8.963,1.141 13.885,-1.463 16.811,5.229"
                   style="fill:#231f20;fill-opacity:1;fill-rule:evenodd;stroke:none"
                   id="path34"
                   inkscape:connector-curvature="0" /></g><g
                 transform="translate(66.8022,563.1758)"
                 id="g40"><path
                   d="m 0,0 c 3.257,-4.91 24.842,-6.193 30.521,-1.971 2.043,-5.598 -0.614,-8.396 -5.623,-10.443 -5.634,-2.3 -11.017,-5.22 -17.57,-8.382 6.608,-3.07 12.092,-6.032 17.88,-8.181 5.177,-1.923 7.063,-4.933 5.396,-10.124 -5.111,2.937 -27.806,1.955 -30.493,-1.653 v 11.811 c 0.908,-3.123 3.241,-3.674 6.122,-3.626 6.092,0.101 12.187,0.03 18.598,1.116 -8.236,3.973 -16.471,7.946 -25.424,12.265 8.292,4.091 15.964,7.878 23.782,11.735 C 17.019,-4.622 3.069,-5.986 0,-9.712 Z"
                   style="fill:#231f20;fill-opacity:1;fill-rule:evenodd;stroke:none"
                   id="path38"
                   inkscape:connector-curvature="0" /></g><g
                 transform="translate(297.3223,659.2715)"
                 id="g44"><path
                   d="m 0,0 c 4.4,4.629 1.447,10.001 2.516,15.315 -4.897,0.599 -9.272,0.487 -14.286,0.04 0.93,-5.102 -1.971,-10.431 2.293,-15.292 h -9.424 c 2.997,3.675 3.296,27.843 0.167,32.422 h 8.796 C -12.053,29.311 -12.4,25.326 -11.141,18.024 H 2.307 C 1.869,22.931 3.779,27.905 0.631,32.639 H 9.154 C 6.17,27.568 6.607,3.582 9.967,0 Z"
                   style="fill:#231f20;fill-opacity:1;fill-rule:evenodd;stroke:none"
                   id="path42"
                   inkscape:connector-curvature="0" /></g><g
                 transform="translate(516.6504,550.4048)"
                 id="g48"><path
                   d="M 0,0 C 0.514,-5.271 -2.176,-10.542 4.883,-13.74 H -6.16 c 6.394,3.551 3.734,8.699 4.045,13.85 -5.211,-0.702 -10.309,1.695 -14.899,-2.201 v 9.116 c 4.741,-3.353 27.676,-2.636 30.842,1.113 v -39.492 c -2.746,4.769 -25.851,5.905 -30.834,1.443 v 10.135 c 1.498,-2.066 3.037,-3.015 5.137,-3 6.83,0.049 13.664,-0.097 20.49,0.071 3.582,0.089 4.006,0.848 4.149,5.349 -1.598,0.169 -3.217,0.34 -4.887,0.517 3.625,2.722 6.619,11.768 4.072,15.093 C 8.912,2.231 4.229,-0.619 0,0"
                   style="fill:#231f20;fill-opacity:1;fill-rule:evenodd;stroke:none"
                   id="path46"
                   inkscape:connector-curvature="0" /></g><g
                 transform="translate(83.9375,619.5327)"
                 id="g52"><path
                   d="M 0,0 C 4.912,0.353 9.468,-1.288 13.657,1.948 V -6.735 C 8.322,-3.51 -14.148,-4.439 -17.085,-7.93 V 3.657 c 3.636,-6.324 9.322,-2.548 14.373,-3.964 v 15.738 c -4.904,-0.909 -10.282,2.36 -14.269,-3.079 v 11.213 c 2.832,-3.713 25.078,-4.719 30.642,-1.129 V 13.744 C 9.368,16.601 4.793,15.206 0,15.16 Z"
                   style="fill:#231f20;fill-opacity:1;fill-rule:evenodd;stroke:none"
                   id="path50"
                   inkscape:connector-curvature="0" /></g><g
                 transform="translate(451.5898,676.5166)"
                 id="g56"><path
                   d="m 0,0 c 3.24,-0.135 5.748,-0.238 8.006,1.14 3.246,1.979 3.797,5.115 2.748,8.28 C 9.445,13.366 5.893,14.417 2.229,13.815 -1.545,13.196 0.334,9.82 0.068,7.643 -0.229,5.208 0,2.708 0,0 m -0.02,-2.558 c 0.85,-4.764 -2.033,-10.13 2.608,-14.772 -3.307,0 -6.402,0 -9.5,-0.004 2.818,4.17 2.935,28.536 -0.043,32.833 4.322,0 8.453,0.094 12.578,-0.022 6.152,-0.174 9.639,-2.438 10.406,-6.544 0.985,-5.273 -0.777,-7.756 -8.045,-10.73 4.17,-5.052 7.344,-10.657 12.284,-14.851 -4.907,-1.729 -5.75,-1.491 -8.786,2.608 -2.373,3.206 -4.746,6.41 -7.08,9.643 -0.988,1.368 -1.838,2.882 -4.422,1.839"
                   style="fill:#231f20;fill-opacity:1;fill-rule:evenodd;stroke:none"
                   id="path54"
                   inkscape:connector-curvature="0" /></g><g
                 transform="translate(359.5586,677.8467)"
                 id="g60"><path
                   d="M 0,0 C 5.912,-6.381 10.715,-12.908 17.119,-18.584 H 6.709 c 0.277,7.392 -6.746,10.021 -9.943,15.378 -3.237,-3.91 -2.813,-11.707 0.638,-15.493 h -9.556 c 3.084,4.393 3.216,28.119 0.015,32.574 h 8.75 C -6.332,9.603 -5.295,4.779 -5.143,-0.166 1.92,3.441 7.021,9.881 6.105,13.998 h 8.303 C 8.791,9.789 4.523,5.01 0,0"
                   style="fill:#231f20;fill-opacity:1;fill-rule:evenodd;stroke:none"
                   id="path58"
                   inkscape:connector-curvature="0" /></g><g
                 transform="translate(246.5996,179.9834)"
                 id="g64"><path
                   d="m 0,0 c 0,-3.984 0.057,-7.971 -0.02,-11.953 -0.049,-2.576 1.151,-3.483 3.632,-3.524 8.142,-0.132 14.179,5.991 14.269,14.627 C 17.973,7.904 11.757,14.508 3.596,14.479 1.081,14.471 -0.072,13.514 -0.02,10.957 0.056,7.307 0,3.652 0,0 m -7.088,15.998 c 5.64,0.01 11.112,0.34 16.563,-0.478 8.202,-1.233 13.472,-7.481 13.487,-15.948 0.015,-8.484 -5.642,-15.334 -13.911,-16.08 -5.257,-0.474 -10.592,-0.088 -15.764,-0.088 2.717,3.787 2.66,28.588 -0.375,32.594"
                   style="fill:#231f20;fill-opacity:1;fill-rule:evenodd;stroke:none"
                   id="path62"
                   inkscape:connector-curvature="0" /></g><g
                 transform="translate(66.8662,318.0693)"
                 id="g68"><path
                   d="m 0,0 c 2.875,-3.961 24.618,-5.07 30.733,-1.693 v -8.573 c -4.361,3.084 -8.945,1.332 -13.666,1.588 v -14.799 c 4.507,0.204 9.129,-1.439 13.661,1.584 v -8.586 c -6.217,3.61 -27.852,2.483 -30.675,-1.814 v 11.477 c 3.781,-5.354 9.273,-1.649 14.319,-3.106 V -8.566 C 9.556,-9.488 4.124,-5.951 0,-11.506 Z"
                   style="fill:#231f20;fill-opacity:1;fill-rule:evenodd;stroke:none"
                   id="path66"
                   inkscape:connector-curvature="0" /></g><g
                 transform="translate(82.8037,407.958)"
                 id="g72"><path
                   d="m 0,0 c 0.216,-2.797 0.314,-5.631 1.791,-8.104 1.626,-2.722 4.098,-3.792 7.2,-2.677 4.274,1.535 4.843,5.217 4.59,8.957 C 13.328,1.916 10.132,0.437 8.118,0.512 5.515,0.611 2.83,1.051 0,0 m 14.977,7.33 c 0,-4.275 0.036,-8.414 -0.008,-12.551 -0.07,-6.517 -2.211,-10.279 -6.264,-11.142 -4.397,-0.936 -6.926,1.054 -10.078,8.367 -5.134,-4.176 -10.281,-8.02 -14.389,-13.051 -1.421,4.842 0.394,8.055 4.303,10.945 3.712,2.747 7.869,5.27 11.147,10.672 -6.037,-0.738 -11.233,2.203 -15.573,-2.687 V 8.707 C -12.991,5.207 8.227,4.082 14.977,7.33"
                   style="fill:#231f20;fill-opacity:1;fill-rule:evenodd;stroke:none"
                   id="path70"
                   inkscape:connector-curvature="0" /></g><g
                 transform="translate(499.8066,571.9609)"
                 id="g76"><path
                   d="M 0,0 C 6.906,1.809 9.473,8.018 14.682,11.474 9.896,14.515 3.479,14.122 -0.309,10.875 v 5.215 4.695 c 4.637,-3.799 27.963,-3.078 30.981,0.737 V 9.358 C 27.447,16.354 21.74,12.359 16.893,13.754 20.746,5.087 27.334,-0.185 30.844,2.509 V -1.589 -9.266 C 27.838,-1.454 21.816,2.321 17.639,7.832 11.459,1.998 5.703,-3.436 0,-8.818 Z"
                   style="fill:#231f20;fill-opacity:1;fill-rule:evenodd;stroke:none"
                   id="path74"
                   inkscape:connector-curvature="0" /></g><g
                 transform="translate(90.1621,468.104)"
                 id="g80"><path
                   d="M 0,0 C -7.725,-1.441 -16.124,2.621 -23.337,-2.934 V 6.074 C -20.188,1.033 1.36,-0.099 7.123,4.32 8.572,0.132 7.22,-2.704 3.707,-5.387 -2.21,-9.905 -7.716,-14.963 -14.597,-20.816 c 8.213,0.05 15.08,-1.643 21.962,1.541 0.715,-1.564 0.108,-3.681 0.172,-5.733 -10.01,4.082 -20.636,0.385 -31.546,2.517 8.53,7.333 16.534,14.212 24.537,21.093 C 0.352,-0.932 0.176,-0.467 0,0"
                   style="fill:#231f20;fill-opacity:1;fill-rule:evenodd;stroke:none"
                   id="path78"
                   inkscape:connector-curvature="0" /></g><g
                 transform="translate(159.0176,691.8701)"
                 id="g84"><path
                   d="M 0,0 H 5.773 C 2.308,-10.602 5.29,-21.75 3.681,-33.579 c -7.106,9.24 -13.621,17.712 -20.137,26.183 -0.093,-8.447 -2.838,-16.964 0.934,-25.243 h -7.098 c 4.352,4.402 4.52,27.641 0.306,32.095 5.772,1.316 5.867,1.26 9.298,-3.264 4.772,-6.292 9.578,-12.558 14.909,-18.64 C 1.739,-14.87 4.482,-7.175 0,0"
                   style="fill:#231f20;fill-opacity:1;fill-rule:evenodd;stroke:none"
                   id="path82"
                   inkscape:connector-curvature="0" /></g><g
                 transform="translate(453.1641,179.6104)"
                 id="g88"><path
                   d="m 0,0 c -0.646,2.689 -0.266,5.533 -1.342,8.248 -1.683,4.248 -4.521,7.191 -9.137,7.156 -4.638,-0.035 -7.591,-3.062 -8.966,-7.363 -1.813,-5.674 -1.78,-11.457 0.222,-17.055 1.373,-3.841 4.342,-6.584 8.457,-6.732 4.33,-0.158 7.346,2.445 9.141,6.453 C -0.293,-6.32 -0.551,-3.137 0,0 m -25.666,-0.09 c 0.004,8.586 3.922,14.647 10.748,16.625 6.996,2.027 14.184,-0.617 17.586,-6.928 3.459,-6.416 3.436,-13.185 -0.031,-19.543 -3.076,-5.64 -8.285,-7.793 -14.696,-7.304 -8.24,0.627 -13.611,7.31 -13.607,17.15"
                   style="fill:#231f20;fill-opacity:1;fill-rule:evenodd;stroke:none"
                   id="path86"
                   inkscape:connector-curvature="0" /></g><g
                 transform="translate(228.5684,173.083)"
                 id="g92"><path
                   d="M 0,0 C 0.138,7.664 3.164,15.268 -1.289,22.541 H 6.765 C 2.986,20.934 2.99,18.389 3.006,15.76 3.054,7.176 3.023,-1.408 1.975,-10.426 c -6.586,8.557 -13.171,17.112 -19.756,25.668 -0.225,-8.592 -3.21,-17.051 1.022,-25.164 -2.136,-0.264 -4.401,-0.449 -6.735,0.152 3.82,4.434 3.668,27.729 -0.371,32.217 4.058,1.242 6.849,0.393 9.33,-3.144 C -9.912,12.711 -4.868,6.418 0,0"
                   style="fill:#231f20;fill-opacity:1;fill-rule:evenodd;stroke:none"
                   id="path90"
                   inkscape:connector-curvature="0" /></g><g
                 transform="translate(160.7241,180.0322)"
                 id="g96"><path
                   d="m 0,0 c -0.31,1.896 0.153,4.525 -0.72,7.152 -1.511,4.553 -4.346,7.727 -9.135,7.819 -4.832,0.093 -7.905,-3.022 -9.276,-7.592 -1.662,-5.533 -1.564,-11.131 0.198,-16.602 1.34,-4.158 4.493,-6.857 8.774,-6.939 4.309,-0.082 7.304,2.66 9.013,6.664 C 0.061,-6.67 0.009,-3.689 0,0 m -9.789,-17.676 c -9.328,-0.062 -15.503,6.526 -15.726,16.778 -0.224,10.332 6.144,17.513 15.505,17.49 C -0.703,16.566 5.395,9.844 5.441,-0.441 5.486,-10.693 -0.63,-17.615 -9.789,-17.676"
                   style="fill:#231f20;fill-opacity:1;fill-rule:evenodd;stroke:none"
                   id="path94"
                   inkscape:connector-curvature="0" /></g><g
                 transform="translate(231.7852,691.5674)"
                 id="g100"><path
                   d="m 0,0 c 4.558,1.374 7.219,-0.178 9.637,-3.645 4.371,-6.266 9.22,-12.199 13.879,-18.264 0.09,-0.119 0.289,-0.157 1.264,-0.656 -0.695,7.823 2.123,15.45 -2.418,22.726 h 6.861 c -2.655,-2.404 -2.459,-5.402 -2.438,-8.414 0.059,-8.077 0.021,-16.154 -1.031,-24.6 C 19.132,-24.224 12.509,-15.594 5.832,-6.895 3.498,-13.038 4.584,-28.934 7.57,-32.272 5.054,-32.845 2.607,-32.663 0.087,-32.389 3.997,-27.545 4.074,-4.43 0,0"
                   style="fill:#231f20;fill-opacity:1;fill-rule:evenodd;stroke:none"
                   id="path98"
                   inkscape:connector-curvature="0" /></g><g
                 transform="translate(351.7461,179.7822)"
                 id="g104"><path
                   d="m 0,0 c 0.066,-3.852 0.523,-7.309 2.143,-10.455 1.709,-3.326 4.552,-5.504 8.289,-5.502 3.513,0.002 6.453,1.941 7.982,5.141 3.33,6.961 3.533,14.214 -0.043,21.041 -3.601,6.871 -12.078,6.701 -16,-0.024 C 0.482,6.965 0.156,3.32 0,0 m 25.902,-0.201 c 0.022,-10.248 -6.095,-17.143 -15.281,-17.221 -9.418,-0.08 -15.783,6.912 -15.736,17.287 0.047,10.098 6.359,16.992 15.547,16.981 9.191,-0.014 15.451,-6.908 15.47,-17.047"
                   style="fill:#231f20;fill-opacity:1;fill-rule:evenodd;stroke:none"
                   id="path102"
                   inkscape:connector-curvature="0" /></g><g
                 transform="translate(381.6309,195.5264)"
                 id="g108"><path
                   d="m 0,0 c 4.512,1.35 7.252,0.047 9.705,-3.482 4.49,-6.463 9.482,-12.577 14.793,-18.623 -0.496,7.421 2.717,15.027 -1.893,22.242 h 8.379 C 26.578,-1.631 26.975,-4.529 26.969,-7.264 26.951,-15.662 26.963,-24.062 25.918,-32.797 19.303,-24.189 12.689,-15.582 6.074,-6.973 6.037,-15.551 2.781,-24.145 7.279,-32.344 5.186,-32.668 2.922,-32.775 0.582,-32.248 4.371,-27.684 4.115,-4.078 0,0"
                   style="fill:#231f20;fill-opacity:1;fill-rule:evenodd;stroke:none"
                   id="path106"
                   inkscape:connector-curvature="0" /></g><g
                 transform="translate(98.6743,329.46)"
                 id="g112"><path
                   d="M 0,0 H -10.682 C -6.014,2.576 -2.47,4.895 -2,9.723 -1.054,19.414 -9.417,25.855 -20.028,23.541 -28.323,21.73 -32.492,14.93 -30.264,7.225 c 0.666,-2.305 1.717,-3.641 4.119,-3.205 3.582,0.65 8.144,-2.2 10.796,3.556 V -3.551 c -2.653,3.926 -6.573,2.633 -10.024,2.465 -3.536,-0.172 -5.02,1.211 -5.889,4.428 -0.745,2.762 -1.272,5.519 -1.261,8.334 0.029,7.107 2.276,13.267 9.134,16.404 5.831,2.668 11.737,2.068 16.92,-1.92 C -0.552,21.605 0.776,15.289 -0.42,8.297 -0.867,5.682 -1.957,3.152 0,0"
                   style="fill:#231f20;fill-opacity:1;fill-rule:evenodd;stroke:none"
                   id="path110"
                   inkscape:connector-curvature="0" /></g><g
                 transform="translate(192.6045,196.0166)"
                 id="g116"><path
                   d="M 0,0 C 1.979,0 3.958,0.02 5.937,-0.018 6.384,-0.025 6.827,-0.236 7.72,-0.473 4.308,-2.551 4.298,-5.744 4.216,-8.816 4.097,-13.301 4.235,-17.793 4.16,-22.279 4.037,-29.656 0.688,-33.311 -6.122,-33.637 c -8.575,-0.41 -12.591,2.596 -13.179,10.5 -0.405,5.457 -0.179,10.963 -0.182,16.448 -0.001,2.367 -0.1,4.64 -3.418,6.388 h 10.808 c -2.064,-1.691 -2.99,-3.496 -2.909,-5.89 0.193,-5.647 -0.115,-11.313 0.205,-16.948 0.329,-5.791 3.171,-8.402 8.357,-8.431 5.445,-0.032 8.212,2.258 8.613,8.05 0.412,5.952 0.299,11.948 0.234,17.922 C 2.386,-3.646 1.988,-1.6 0,0"
                   style="fill:#231f20;fill-opacity:1;fill-rule:evenodd;stroke:none"
                   id="path114"
                   inkscape:connector-curvature="0" /></g><g
                 transform="translate(129.5649,184.8311)"
                 id="g120"><path
                   d="m 0,0 v -10.557 c -2.729,7.371 -7.879,4.723 -12.824,5.112 0.496,-5.502 -1.792,-10.928 2.137,-16.112 h -8.697 c 3.42,4.916 1.886,10.721 1.793,16.192 -0.093,5.392 1.963,11.242 -2.496,16.547 7.042,0 13.811,0.093 20.575,-0.032 5.13,-0.095 2.531,-3.679 3.029,-6.81 -3,4.527 -10.799,7.41 -14.522,4.846 C -15.198,6.299 -12.032,1.303 -12.946,-2.633 -5.373,-4.268 -3.144,-3.82 0,0"
                   style="fill:#231f20;fill-opacity:1;fill-rule:evenodd;stroke:none"
                   id="path118"
                   inkscape:connector-curvature="0" /></g><g
                 transform="translate(189.4873,692.3428)"
                 id="g124"><path
                   d="m 0,0 c 0.386,-3.224 1.427,-6.018 0.889,-9.958 -1.952,2.938 -2.726,5.785 -5.316,7.221 -2.894,1.604 -5.871,2.225 -8.08,-0.593 -2.358,-3.007 -0.639,-5.687 1.938,-7.667 2.498,-1.919 5.26,-3.487 7.794,-5.362 4.946,-3.662 6.374,-8.072 4.177,-12.433 -2.136,-4.242 -7.032,-6.199 -12.424,-4.65 -2.221,0.638 -4.302,1.256 -6.491,-0.022 -0.453,3.326 -0.852,6.26 -1.445,10.622 1.875,-2.754 2.89,-4.475 4.13,-6.014 2.154,-2.674 4.998,-3.773 8.396,-3.007 2.147,0.484 3.41,1.93 3.853,4.093 0.711,3.462 -1.087,5.697 -3.693,7.51 -2.59,1.801 -5.334,3.402 -7.788,5.369 -3.477,2.786 -4.613,6.345 -2.71,10.62 1.785,4.011 5.082,4.827 9.042,4.544 C -5.203,0.092 -2.825,-1.836 0,0"
                   style="fill:#231f20;fill-opacity:1;fill-rule:evenodd;stroke:none"
                   id="path122"
                   inkscape:connector-curvature="0" /></g><g
                 transform="translate(471.6621,163.1318)"
                 id="g128"><path
                   d="m 0,0 h -9.092 c 3.106,3.918 3.018,28.895 -0.556,32.891 H 2.051 13.477 c 0.966,-2.321 0.652,-4.366 0.65,-6.987 -2.75,4.762 -10.039,7.682 -14.236,4.977 -4.297,-2.77 -0.926,-7.856 -2.188,-12.465 4.985,0.529 10.055,-2.543 13.201,4.344 V 11.039 C 8.17,18.322 3.094,15.996 -1.879,16.23 -1.533,10.662 -3.561,5.176 0,0"
                   style="fill:#231f20;fill-opacity:1;fill-rule:evenodd;stroke:none"
                   id="path126"
                   inkscape:connector-curvature="0" /></g><g
                 transform="translate(497.2695,254.3916)"
                 id="g132"><path
                   d="M 0,0 V 8.453 C 2.152,5.213 4.996,4.961 8.088,5.072 12.414,5.227 16.756,5.238 21.08,5.062 28.4,4.766 31.539,0.809 31.512,-7.773 c -0.026,-8.166 -3.201,-11.961 -10.455,-12.204 -4.661,-0.158 -9.328,-0.113 -13.993,-0.041 -2.701,0.043 -5.306,0.059 -7.109,-3.613 v 11.574 c 1.766,-3.031 3.99,-2.951 6.283,-2.916 4.996,0.08 9.996,-0.025 14.992,0.041 5.475,0.073 8.057,2.442 8.516,7.637 C 30.24,-1.699 27.643,2.443 22.531,2.854 16.572,3.33 10.549,2.969 4.557,3.068 2.43,3.104 1.648,1.225 0,0"
                   style="fill:#231f20;fill-opacity:1;fill-rule:evenodd;stroke:none"
                   id="path130"
                   inkscape:connector-curvature="0" /></g><g
                 transform="translate(98.6372,222.7061)"
                 id="g136"><path
                   d="m 0,0 c -3.563,-0.461 -6.395,-0.826 -9.228,-1.191 3.614,2.759 7.391,4.91 7.302,10.107 -0.04,2.338 -0.459,4.273 -2.972,5.152 -2.289,0.799 -4.015,-0.234 -5.206,-1.898 -1.928,-2.693 -3.52,-5.625 -5.314,-8.418 -3.575,-5.566 -7.018,-7.242 -11.408,-5.627 -4.035,1.484 -6.102,6.406 -5.452,12.229 0.295,2.646 2.509,5.265 -0.117,8.099 2.877,0.49 5.314,0.928 7.762,1.299 0.435,0.066 0.911,-0.147 1.976,-0.344 -2.42,-1.842 -4.822,-3.01 -6.382,-5.168 -2.769,-3.83 -2.543,-8.549 0.621,-10.705 2.968,-2.025 6.172,-0.808 8.962,3.496 1.535,2.369 2.906,4.844 4.44,7.213 2.157,3.334 5.014,5.516 9.177,4.098 C -1.23,16.77 0.315,13.15 0.013,8.504 -0.164,5.787 -2.371,3.148 0,0"
                   style="fill:#231f20;fill-opacity:1;fill-rule:evenodd;stroke:none"
                   id="path134"
                   inkscape:connector-curvature="0" /></g><g
                 transform="translate(325.6621,685.4258)"
                 id="g140"><path
                   d="m 0,0 c -1.979,-5.006 -3.555,-8.995 -5.293,-13.391 3.748,-0.571 6.889,-0.612 10.369,0.005 C 4.133,-8.827 2.227,-4.993 0,0 m -7.15,-26.189 h -6.512 c 6.531,10.397 9.187,22.311 14.973,33.816 5.8,-11.394 9.095,-23.131 14.99,-33.812 h -8.52 c 2.668,3.782 0.049,6.823 -1.453,9.916 -0.517,1.067 -11.301,1.457 -12.09,0.347 -2.162,-3.05 -4.203,-6.308 -1.388,-10.267"
                   style="fill:#231f20;fill-opacity:1;fill-rule:evenodd;stroke:none"
                   id="path138"
                   inkscape:connector-curvature="0" /></g><g
                 transform="translate(205.7129,671.9692)"
                 id="g144"><path
                   d="M 0,0 C 3.489,-0.479 6.635,-0.536 10.146,0.033 8.896,4.674 7.295,8.602 5.064,13.17 2.809,8.436 1.078,4.483 0,0 m 21.353,-12.742 h -8.542 c 2.392,3.955 0.201,7.152 -1.894,10.183 -0.804,1.163 -11.485,0.927 -12.082,-0.198 -1.634,-3.08 -3.817,-6.222 -1.019,-9.968 -2.441,-0.321 -4.528,-0.608 -6.515,0.098 6.575,10.281 9.162,22.253 15.004,33.621 5.814,-11.305 9.019,-23.11 15.048,-33.736"
                   style="fill:#231f20;fill-opacity:1;fill-rule:evenodd;stroke:none"
                   id="path142"
                   inkscape:connector-curvature="0" /></g><g
                 transform="translate(423.4102,685.0972)"
                 id="g148"><path
                   d="M 0,0 C -1.971,-4.673 -3.973,-8.504 -4.777,-13.113 H 5.354 C 3.979,-8.506 2.43,-4.491 0,0 M 1.367,8 C 7.08,-3.419 10.434,-15.038 16.326,-25.762 H 7.9 c 2.565,3.712 -0.046,6.727 -1.568,9.754 -0.672,1.338 -11.26,1.272 -12.504,0.214 -1.769,-1.506 -2.455,-7.17 -1.16,-10.068 -2.127,-0.37 -4.203,-0.544 -6.248,0.106 C -7.09,-15.46 -4.404,-3.591 1.367,8"
                   style="fill:#231f20;fill-opacity:1;fill-rule:evenodd;stroke:none"
                   id="path146"
                   inkscape:connector-curvature="0" /></g><g
                 transform="translate(291.8555,175.9209)"
                 id="g152"><path
                   d="M 0,0 C -0.846,4.572 -2.846,8.418 -5.067,13.316 -6.976,8.486 -8.557,4.484 -10.328,0 Z M -3.666,21.072 C 1.908,9.6 5.342,-1.852 11.168,-12.635 c -2.541,-0.76 -5.408,-0.14 -8.461,-0.316 2.381,4.107 0.875,8.465 -1.802,9.912 -3.341,1.809 -8.559,1.965 -11.912,-0.133 -2.524,-1.58 -3.683,-5.723 -1.484,-9.363 -2.073,-0.707 -3.999,-0.469 -6.032,-0.201 6.26,10.441 9.065,22.287 14.857,33.808"
                   style="fill:#231f20;fill-opacity:1;fill-rule:evenodd;stroke:none"
                   id="path150"
                   inkscape:connector-curvature="0" /></g><g
                 transform="translate(514.752,428.5181)"
                 id="g156"><path
                   d="m 0,0 c -4.047,0.086 -7.842,0.06 -11.373,-1.754 -2.106,-1.081 -3.4,-2.83 -3.393,-5.094 0.008,-2.347 1.508,-4.091 3.75,-4.743 7.313,-2.125 14.678,-2.244 21.973,0.082 2.338,0.746 4.191,2.363 4.178,4.991 -0.016,2.87 -2.137,4.379 -4.578,5.274 C 7.082,0.029 3.434,0.162 0,0 M 0.576,4.988 C 4.309,4.715 8.057,4.133 11.42,2.092 c 6.537,-3.969 6.754,-13.006 0.174,-16.879 -7.479,-4.402 -15.303,-4.177 -22.77,0.004 -6.123,3.428 -6.484,11.525 -0.992,15.973 3.674,2.976 8.094,3.609 12.744,3.798"
                   style="fill:#231f20;fill-opacity:1;fill-rule:evenodd;stroke:none"
                   id="path154"
                   inkscape:connector-curvature="0" /></g><g
                 transform="translate(78.9663,504.9165)"
                 id="g160"><path
                   d="m 0,0 v -11.372 c 4.31,1.917 8.127,3.615 12.99,5.778 C 8.113,-3.494 4.258,-1.834 0,0 m 19.881,-6.975 c -10.635,-6.103 -22.175,-9.476 -32.058,-16.098 0,3.157 0,6.469 -0.003,9.78 2.402,-1.934 7.375,-1.395 9.523,1.034 1.221,1.381 1.358,12.777 -0.133,13.417 -2.909,1.25 -5.961,4.598 -9.359,0.119 v 7.796 c 9.64,-7.142 21.462,-9.88 32.03,-16.048"
                   style="fill:#231f20;fill-opacity:1;fill-rule:evenodd;stroke:none"
                   id="path158"
                   inkscape:connector-curvature="0" /></g><g
                 transform="translate(511.7969,381.5479)"
                 id="g164"><path
                   d="m 0,0 c -10.896,8.051 -10.896,8.051 -14.545,6.943 v 7.416 C -11.018,9.809 -6.566,7.646 -2.846,4.566 0.738,1.598 4.582,0.545 9.111,0.908 12.238,1.16 15.645,0.486 16.715,4.76 V -7.791 C 14.016,-3.896 5.49,-2.355 1.18,-5.076 c -2.809,-1.774 -5.465,-3.795 -8.119,-5.801 -2.459,-1.859 -4.825,-3.844 -7.457,-5.955 v 9.316 C -8.004,-8.201 -5.059,-2.523 0,0"
                   style="fill:#231f20;fill-opacity:1;fill-rule:evenodd;stroke:none"
                   id="path162"
                   inkscape:connector-curvature="0" /></g><g
                 transform="translate(97.6406,601.8096)"
                 id="g168"><path
                   d="m 0,0 v -9.448 c -1.564,1.736 -3.065,2.263 -4.904,2.222 -5.482,-0.121 -10.971,0.045 -16.454,-0.078 -5.127,-0.115 -7.916,-2.894 -8.35,-7.988 -0.416,-4.893 2.141,-9.298 6.607,-9.679 6.434,-0.55 12.942,-0.227 19.419,-0.273 1.673,-0.011 2.234,1.666 3.65,2.51 v -7.993 c -1.884,3.26 -4.441,3.396 -7.049,3.396 -4.654,0 -9.312,-0.114 -13.961,0.038 -6.964,0.227 -10.431,4.414 -10.481,12.376 -0.05,7.977 3.33,12.26 10.23,12.578 4.977,0.23 9.97,0.187 14.954,0.136 C -4.123,-2.226 -2.046,-2.085 0,0"
                   style="fill:#231f20;fill-opacity:1;fill-rule:evenodd;stroke:none"
                   id="path166"
                   inkscape:connector-curvature="0" /></g><g
                 transform="translate(511.5918,609.0049)"
                 id="g172"><path
                   d="M 0,0 C 4.516,1.727 8.486,2.975 12.285,5.812 7.937,7.59 4.471,9.817 0.18,10.513 0.107,9.206 0.018,8.222 0.006,7.237 -0.018,5.092 0,2.946 0,0 M -11.932,13.314 V 19.6 C -1.975,13.4 9.197,10.069 20.076,4.065 8.963,-1.206 -1.428,-6.134 -11.898,-11.1 v 7.98 c 3.787,-1.614 8.005,-0.201 9.289,2.537 1.722,3.676 1.888,8.892 -0.155,12.516 -1.248,2.213 -5.306,4.07 -9.168,1.381"
                   style="fill:#231f20;fill-opacity:1;fill-rule:evenodd;stroke:none"
                   id="path170"
                   inkscape:connector-curvature="0" /></g><g
                 transform="translate(91.2666,278.4404)"
                 id="g176"><path
                   d="m 0,0 h 6.516 v -14.014 -13.822 c -2.279,-0.1 -4.19,-0.184 -7.812,-0.342 5.963,2.684 6.732,6.518 6.207,11.735 -9.821,-1.244 -19.919,2.486 -29.332,-2.301 v 10.953 c 1.227,-1.482 1.625,-3.578 3.896,-3.572 8.429,0.015 16.858,0.006 25.495,0.006 C 5.175,-6.279 5.174,-2.059 0,0"
                   style="fill:#231f20;fill-opacity:1;fill-rule:evenodd;stroke:none"
                   id="path174"
                   inkscape:connector-curvature="0" /></g><g
                 transform="translate(381.5703,691.8345)"
                 id="g180"><path
                   d="m 0,0 h 8.988 c -2.42,-2.056 -2.429,-4.666 -2.406,-7.333 0.059,-6.479 0.092,-12.959 0.004,-19.437 -0.043,-3.222 1.498,-4.602 4.547,-4.401 5.295,0.348 10.935,0.034 13.324,6.709 0.113,-7.937 -0.353,-8.405 -7.738,-8.408 C 11.08,-32.872 5.443,-32.871 -0.357,-32.871 2.871,-28.24 3.098,-4.802 0,0"
                   style="fill:#231f20;fill-opacity:1;fill-rule:evenodd;stroke:none"
                   id="path178"
                   inkscape:connector-curvature="0" /></g><g
                 transform="translate(519.0273,439.5649)"
                 id="g184"><path
                   d="M 0,0 C 6.617,0.02 11.18,2.873 10.785,6.977 10.309,11.938 6.301,12.2 2.65,12.308 -3.006,12.475 -6.338,10.018 -6.424,6.082 -6.518,1.801 -4.602,-0.014 0,0 M -19.973,13.723 C -17.936,7.326 -13.879,3.021 -6.717,0.814 -7.16,2.158 -7.414,2.89 -7.643,3.629 -9.539,9.756 -7.937,14.046 -2.99,16.087 2.322,18.279 8.859,15.984 11.146,11.123 13.484,6.148 11.564,0.174 6.725,-2.627 c -11.094,-6.42 -25.864,2.401 -26.698,16.35"
                   style="fill:#231f20;fill-opacity:1;fill-rule:evenodd;stroke:none"
                   id="path182"
                   inkscape:connector-curvature="0" /></g><g
                 transform="translate(518.6895,463.6411)"
                 id="g188"><path
                   d="m 0,0 c 6.482,-0.088 11.033,2.641 11.162,6.691 0.109,3.493 -2.81,5.679 -7.76,5.81 C -2.252,12.65 -6.094,10.078 -6.068,6.04 -6.043,2.096 -4.273,-0.249 0,0 m -19.588,13.703 c 2.094,-6.351 6.19,-10.541 12.303,-12.676 0.973,0.606 0.431,1.235 0.254,1.773 -2.342,7.056 -0.375,12.155 5.34,13.789 C 4.137,18.254 10.621,14.98 11.992,9.681 13.658,3.242 10.303,-2.352 3.77,-4.022 -7.832,-6.99 -19.219,1.537 -19.588,13.703"
                   style="fill:#231f20;fill-opacity:1;fill-rule:evenodd;stroke:none"
                   id="path186"
                   inkscape:connector-curvature="0" /></g><g
                 transform="translate(528.5039,220.0811)"
                 id="g192"><path
                   d="m 0,0 v -11.436 c -1.479,3.375 -4.4,3.346 -7.363,3.329 -5.649,-0.034 -11.301,0.107 -16.942,-0.077 -1.871,-0.06 -4.787,1.368 -5.293,-1.939 -0.427,-2.797 -0.22,-5.727 2.524,-7.582 0.879,-0.596 1.928,-0.941 2.795,-2.215 -2.155,0.106 -4.309,0.211 -6.793,0.334 V 7.92 c 2.164,0.775 4.265,0.664 6.445,0.406 -0.344,-1.717 -2.09,-1.461 -2.98,-2.33 -2.286,-2.232 -2.59,-5.117 -1.903,-7.855 0.674,-2.686 3.348,-1.489 5.145,-1.534 5.81,-0.14 11.629,0.012 17.441,-0.078 3,-0.045 5.643,0.276 6.924,3.471"
                   style="fill:#231f20;fill-opacity:1;fill-rule:evenodd;stroke:none"
                   id="path190"
                   inkscape:connector-curvature="0" /></g><g
                 transform="translate(506.3867,639.6523)"
                 id="g196"><path
                   d="m 0,0 c 7.086,-2.813 13.221,-5.155 19.271,-7.697 2.473,-1.038 3.436,0.762 4.891,2.5 v -8.166 C 14.564,-6.594 2.779,-4.331 -7.629,1.474 2.631,7.608 14.285,10.87 23.967,17.792 V 6.839 C 22.834,9.232 21.674,10.405 19.242,9.19 13.221,6.181 7.098,3.372 0,0"
                   style="fill:#231f20;fill-opacity:1;fill-rule:evenodd;stroke:none"
                   id="path194"
                   inkscape:connector-curvature="0" /></g><g
                 transform="translate(302.1309,188.7939)"
                 id="g200"><path
                   d="m 0,0 c -1.404,7.219 -1.404,7.223 5.357,7.229 6.481,0.003 12.961,0 19.569,0 1.176,-2.493 1.299,-4.854 0.711,-8.245 -0.975,1.897 -1.399,3.233 -2.229,4.229 -1.902,2.285 -4.746,2.65 -7.299,2.096 -2.382,-0.516 -1.39,-3.061 -1.416,-4.737 -0.099,-6.654 -0.007,-13.31 -0.056,-19.965 -0.018,-2.406 0.072,-4.677 2.636,-6.169 H 7.053 c 3.164,1.767 3.353,4.308 3.33,7.001 -0.053,6.155 0.099,12.315 -0.086,18.465 C 10.24,1.799 11.711,4.848 8.588,5.334 5.709,5.783 2.506,5.416 0.793,2.232 0.424,1.545 0.26,0.746 0,0"
                   style="fill:#231f20;fill-opacity:1;fill-rule:evenodd;stroke:none"
                   id="path198"
                   inkscape:connector-curvature="0" /></g><g
                 transform="translate(121.4219,691.9189)"
                 id="g204"><path
                   d="M 0,0 H 9.019 C 6.006,-4.919 6.431,-29.215 9.651,-32.703 H -0.371 C 3.079,-29.167 3.442,-4.529 0,0"
                   style="fill:#231f20;fill-opacity:1;fill-rule:evenodd;stroke:none"
                   id="path202"
                   inkscape:connector-curvature="0" /></g><g
                 transform="translate(342.0469,163.0479)"
                 id="g208"><path
                   d="m 0,0 h -9.201 c 3.449,5.238 1.785,11.023 1.678,16.475 -0.106,5.332 2.265,11.177 -2.268,16.254 h 9.445 C -3.412,28.6 -3.383,3.949 0,0"
                   style="fill:#231f20;fill-opacity:1;fill-rule:evenodd;stroke:none"
                   id="path206"
                   inkscape:connector-curvature="0" /></g><g
                 transform="translate(66.8403,379.0049)"
                 id="g212"><path
                   d="m 0,0 c 0.589,-3.465 3.158,-3.615 6.008,-3.584 6.474,0.072 12.95,0.064 19.424,-0.002 1.901,-0.019 3.624,0.156 5.206,2.313 v -8.85 C 25.58,-7.143 19.956,-8.412 14.623,-8.709 9.729,-8.98 3.557,-5.521 0,-12.535 Z"
                   style="fill:#231f20;fill-opacity:1;fill-rule:evenodd;stroke:none"
                   id="path210"
                   inkscape:connector-curvature="0" /></g><g
                 transform="translate(487.5352,659.0791)"
                 id="g216"><path
                   d="m 0,0 h -10.814 c 3.779,4.489 4.037,28.069 0.201,32.699 h 9.176 C -5.266,27.111 -4.775,3.875 0,0"
                   style="fill:#231f20;fill-opacity:1;fill-rule:evenodd;stroke:none"
                   id="path214"
                   inkscape:connector-curvature="0" /></g><g
                 transform="translate(499.6113,491.2544)"
                 id="g220"><path
                   d="M 0,0 V 5.406 C 4.807,3.326 9.699,4.135 14.443,4.385 18.924,4.62 24.031,2.291 28.283,6.51 29.5,5.111 30.334,3.072 31.264,0 Z"
                   style="fill:#231f20;fill-opacity:1;fill-rule:evenodd;stroke:none"
                   id="path218"
                   inkscape:connector-curvature="0" /></g><g
                 transform="translate(289.2754,248.4521)"
                 id="g224"><path
                   d="m 0,0 c 6.639,-1.937 11.119,1.883 14.357,8.082 0.539,1.027 1.274,1.955 1.788,2.994 9.632,19.516 19.429,38.951 28.791,58.594 5.373,11.275 3.543,18.57 -5.666,27.234 -6.34,5.963 -13.625,10.657 -20.821,15.453 -11.195,7.463 -21.894,15.782 -34.277,21.286 -8.422,3.742 -17.333,4.755 -23.937,-2.872 -12.38,-14.294 -27.817,-26.41 -33.971,-45.39 -7.57,-6.881 -13.52,-15.067 -19.569,-23.258 -2.126,-2.879 -5.302,-5.225 -5.992,-8.828 -0.943,-4.934 -3.74,-8.363 -7.217,-11.582 -5.478,-5.074 -8.273,-11.617 -9.392,-18.813 -1.339,-8.607 1.52,-12.982 9.811,-16.027 C -98.639,4.137 -90.842,3.66 -83.023,3.535 -69.066,3.314 -55.104,3.008 -41.148,3.156 -27.615,3.303 -14.394,0.02 0,0 m -30.074,185.283 c -0.188,9.06 -3.852,17.325 -6.81,25.774 -2.901,8.288 -7.695,15.835 -9.323,24.638 -2.286,12.369 -3.302,25.012 -8.166,36.846 -1.039,2.529 -1.005,5.556 -1.181,8.373 -0.48,7.693 -1.95,15.089 -5.181,22.169 -7.177,15.723 -13.772,31.633 -16.927,48.801 -1.417,7.709 -4.762,9.566 -12.5,10.241 -10.522,0.918 -20.903,-0.608 -31.315,-1.252 -13.065,-0.808 -18.095,-6.211 -18.048,-18.936 0.106,-28.813 -2.083,-57.57 -2.118,-86.363 -0.03,-24.963 -1.399,-49.963 0.989,-74.897 0.672,-7.018 0.122,-13.884 -1.543,-20.755 -1.54,-6.352 -1.547,-12.76 -0.1,-19.258 1.997,-8.963 2.253,-18.15 2.064,-27.297 -0.299,-14.472 -0.64,-28.953 -1.419,-43.406 -0.839,-15.576 1.405,-31.215 -1.349,-46.764 -0.819,-4.621 2.611,-7.299 6.668,-8.756 4.679,-1.681 7.103,1.207 9.1,4.799 9.771,17.569 19.633,35.086 29.274,52.723 2.702,4.945 5.182,10.096 7.004,15.412 2.055,5.988 5.141,11.137 9.583,15.533 4.809,4.758 8.386,10.252 10.599,16.674 1.412,4.096 3.25,8.022 6.085,11.375 10.204,12.064 18.102,25.885 28.814,37.582 4.183,4.568 5.645,10.453 5.8,16.744 m -16.104,178.113 c -7.644,-0.004 -13.748,-0.402 -19.606,-2.6 -3.997,-1.499 -5.999,-4.076 -6.077,-8.637 -0.186,-10.732 2.387,-20.489 7.191,-30.177 5.348,-10.786 11.272,-21.594 12.83,-33.836 1.428,-11.217 3.263,-22.176 8.077,-32.631 4.924,-10.691 8.671,-21.918 13.31,-32.75 2.701,-6.305 7.129,-11.136 14.172,-13.035 4.16,-1.123 8.011,-1 11.101,2.215 2.937,3.053 2.223,6.602 0.951,10.269 -1.529,4.416 -2.353,9.018 -1.448,13.711 1.308,6.787 7.212,11.723 12.831,10.854 6.287,-0.973 9.116,-5.617 7.994,-13.696 -0.752,-5.423 -1.892,-10.747 -4.357,-15.773 -3.121,-6.363 -2.281,-9.584 4.027,-12.519 12.846,-5.976 24.653,-8.104 38.301,2.424 9.619,7.42 19.1,15.119 29.305,21.656 13.209,8.459 25.857,17.384 37.472,28.045 11.858,10.884 24.151,21.38 37.055,31.081 2.961,2.225 4.709,5.071 4.817,8.857 0.486,17.128 1.109,34.252 1.419,51.383 0.086,4.8 -2.832,8.021 -7.328,9.689 -6.066,2.25 -12.418,2.691 -18.709,1.95 -9.957,-1.174 -19.945,-0.861 -29.912,-1.276 -33.269,-1.385 -66.332,3.397 -99.551,3.457 -18.458,0.034 -36.928,-0.857 -53.865,1.339 M 160.453,230.649 c 1.69,7.313 -3.797,15.472 -3.041,24.416 0.434,5.113 0.029,10.31 -1.131,15.385 -0.416,1.825 -0.845,3.436 -3,4.142 -2.301,0.755 -3.82,-0.126 -5.301,-1.655 -2.662,-2.754 -5.209,-5.645 -8.082,-8.158 -3.421,-2.991 -6.003,-7.244 -11.22,-7.734 -5.326,-0.499 -8.852,-3.776 -12.375,-7.563 -11.44,-12.303 -23.268,-24.225 -37.311,-33.674 -23.596,-15.881 -47.646,-31.15 -68.515,-50.718 -3.044,-2.854 -6.06,-5.75 -7.964,-9.51 -2.085,-4.115 -2.031,-7.982 1.913,-11.174 1.156,-0.935 2.258,-2.002 3.158,-3.181 12.32,-16.155 27.244,-29.569 43.439,-41.7 6.786,-5.082 8.848,-12.187 6.506,-20.392 C 55.732,72.844 52.695,67.088 49.266,61.615 40.678,47.914 35.109,32.672 26.996,18.727 24.084,13.723 25.344,9.129 29.455,7.076 32.463,5.574 35.979,4.102 39.051,5.25 45.49,7.652 51.383,8.113 57.4,4.215 58.584,3.447 60.664,3.98 62.324,4.047 c 16.787,0.67 33.584,1.185 50.358,2.125 11.334,0.637 22.236,3.369 32.879,7.514 11.105,4.326 16.402,12 16.816,23.835 0.978,27.954 0.582,55.864 -1.258,83.772 -1.094,16.594 -2.375,33.213 -2.439,49.826 -0.076,19.28 1.09,38.564 1.773,59.53 m 29.631,-264.485 h -362.438 v 432.593 h 362.438 z"
                   style="fill:#ffffff;fill-opacity:1;fill-rule:evenodd;stroke:none"
                   id="path222"
                   inkscape:connector-curvature="0" /></g><g
                 transform="translate(511.7109,273.4795)"
                 id="g228"><path
                   d="m 0,0 c -4.402,2.559 -10.719,-3.41 -12.861,3.887 -1.391,4.738 2.254,8.648 6.474,8.554 C -1.609,12.336 0.377,8.887 0,0"
                   style="fill:#ffffff;fill-opacity:1;fill-rule:evenodd;stroke:none"
                   id="path226"
                   inkscape:connector-curvature="0" /></g><g
                 transform="translate(451.5898,676.5166)"
                 id="g232"><path
                   d="M 0,0 C 0,2.708 -0.229,5.208 0.068,7.643 0.334,9.82 -1.545,13.196 2.229,13.815 5.893,14.417 9.445,13.366 10.754,9.42 11.803,6.255 11.252,3.119 8.006,1.14 5.748,-0.238 3.24,-0.135 0,0"
                   style="fill:#ffffff;fill-opacity:1;fill-rule:evenodd;stroke:none"
                   id="path230"
                   inkscape:connector-curvature="0" /></g><g
                 transform="translate(246.5996,179.9834)"
                 id="g236"><path
                   d="m 0,0 c 0,3.652 0.056,7.307 -0.02,10.957 -0.052,2.557 1.101,3.514 3.616,3.522 8.161,0.029 14.377,-6.575 14.285,-15.329 -0.09,-8.636 -6.127,-14.759 -14.269,-14.627 -2.481,0.041 -3.681,0.948 -3.632,3.524 C 0.057,-7.971 0,-3.984 0,0"
                   style="fill:#ffffff;fill-opacity:1;fill-rule:evenodd;stroke:none"
                   id="path234"
                   inkscape:connector-curvature="0" /></g><g
                 transform="translate(82.8037,407.958)"
                 id="g240"><path
                   d="m 0,0 c 2.83,1.051 5.515,0.611 8.118,0.512 2.014,-0.075 5.21,1.404 5.463,-2.336 0.253,-3.74 -0.316,-7.422 -4.59,-8.957 -3.102,-1.115 -5.574,-0.045 -7.2,2.677 C 0.314,-5.631 0.216,-2.797 0,0"
                   style="fill:#ffffff;fill-opacity:1;fill-rule:evenodd;stroke:none"
                   id="path238"
                   inkscape:connector-curvature="0" /></g><g
                 transform="translate(453.1641,179.6104)"
                 id="g244"><path
                   d="m 0,0 c -0.551,-3.137 -0.293,-6.32 -1.625,-9.293 -1.795,-4.008 -4.811,-6.611 -9.141,-6.453 -4.115,0.148 -7.084,2.891 -8.457,6.732 -2.002,5.598 -2.035,11.381 -0.222,17.055 1.375,4.301 4.328,7.328 8.966,7.363 4.616,0.035 7.454,-2.908 9.137,-7.156 C -0.266,5.533 -0.646,2.689 0,0"
                   style="fill:#ffffff;fill-opacity:1;fill-rule:evenodd;stroke:none"
                   id="path242"
                   inkscape:connector-curvature="0" /></g><g
                 transform="translate(160.7241,180.0322)"
                 id="g248"><path
                   d="m 0,0 c 0.009,-3.689 0.061,-6.67 -1.146,-9.498 -1.709,-4.004 -4.704,-6.746 -9.013,-6.664 -4.281,0.082 -7.434,2.781 -8.774,6.939 -1.762,5.471 -1.86,11.069 -0.198,16.602 1.371,4.57 4.444,7.685 9.276,7.592 4.789,-0.092 7.624,-3.266 9.135,-7.819 C 0.153,4.525 -0.31,1.896 0,0"
                   style="fill:#ffffff;fill-opacity:1;fill-rule:evenodd;stroke:none"
                   id="path246"
                   inkscape:connector-curvature="0" /></g><g
                 transform="translate(351.7461,179.7822)"
                 id="g252"><path
                   d="m 0,0 c 0.156,3.32 0.482,6.965 2.371,10.201 3.922,6.725 12.399,6.895 16,0.024 3.576,-6.827 3.373,-14.08 0.043,-21.041 -1.529,-3.2 -4.469,-5.139 -7.982,-5.141 -3.737,-0.002 -6.58,2.176 -8.289,5.502 C 0.523,-7.309 0.066,-3.852 0,0"
                   style="fill:#ffffff;fill-opacity:1;fill-rule:evenodd;stroke:none"
                   id="path250"
                   inkscape:connector-curvature="0" /></g><g
                 transform="translate(325.6621,685.4258)"
                 id="g256"><path
                   d="M 0,0 C 2.227,-4.993 4.133,-8.827 5.076,-13.386 1.596,-14.003 -1.545,-13.962 -5.293,-13.391 -3.555,-8.995 -1.979,-5.006 0,0"
                   style="fill:#ffffff;fill-opacity:1;fill-rule:evenodd;stroke:none"
                   id="path254"
                   inkscape:connector-curvature="0" /></g><g
                 transform="translate(205.7129,671.9692)"
                 id="g260"><path
                   d="M 0,0 C 1.078,4.483 2.809,8.436 5.064,13.17 7.295,8.602 8.896,4.674 10.146,0.033 6.635,-0.536 3.489,-0.479 0,0"
                   style="fill:#ffffff;fill-opacity:1;fill-rule:evenodd;stroke:none"
                   id="path258"
                   inkscape:connector-curvature="0" /></g><g
                 transform="translate(423.4102,685.0972)"
                 id="g264"><path
                   d="M 0,0 C 2.43,-4.491 3.979,-8.506 5.354,-13.113 H -4.777 C -3.973,-8.504 -1.971,-4.673 0,0"
                   style="fill:#ffffff;fill-opacity:1;fill-rule:evenodd;stroke:none"
                   id="path262"
                   inkscape:connector-curvature="0" /></g><g
                 transform="translate(291.8555,175.9209)"
                 id="g268"><path
                   d="m 0,0 h -10.328 c 1.771,4.484 3.352,8.486 5.261,13.316 C -2.846,8.418 -0.846,4.572 0,0"
                   style="fill:#ffffff;fill-opacity:1;fill-rule:evenodd;stroke:none"
                   id="path266"
                   inkscape:connector-curvature="0" /></g><g
                 transform="translate(514.752,428.5181)"
                 id="g272"><path
                   d="m 0,0 c 3.434,0.162 7.082,0.029 10.557,-1.244 2.441,-0.895 4.562,-2.404 4.578,-5.274 0.013,-2.628 -1.84,-4.245 -4.178,-4.991 -7.295,-2.326 -14.66,-2.207 -21.973,-0.082 -2.242,0.652 -3.742,2.396 -3.75,4.743 -0.007,2.264 1.287,4.013 3.393,5.094 C -7.842,0.06 -4.047,0.086 0,0"
                   style="fill:#ffffff;fill-opacity:1;fill-rule:evenodd;stroke:none"
                   id="path270"
                   inkscape:connector-curvature="0" /></g><g
                 transform="translate(78.9663,504.9165)"
                 id="g276"><path
                   d="M 0,0 C 4.258,-1.834 8.113,-3.494 12.99,-5.594 8.127,-7.757 4.31,-9.455 0,-11.372 Z"
                   style="fill:#ffffff;fill-opacity:1;fill-rule:evenodd;stroke:none"
                   id="path274"
                   inkscape:connector-curvature="0" /></g><g
                 transform="translate(511.5918,609.0049)"
                 id="g280"><path
                   d="M 0,0 C 0,2.946 -0.018,5.092 0.006,7.237 0.018,8.222 0.107,9.206 0.18,10.513 4.471,9.817 7.937,7.59 12.285,5.812 8.486,2.975 4.516,1.727 0,0"
                   style="fill:#ffffff;fill-opacity:1;fill-rule:evenodd;stroke:none"
                   id="path278"
                   inkscape:connector-curvature="0" /></g><g
                 transform="translate(519.0273,439.5649)"
                 id="g284"><path
                   d="m 0,0 c -4.602,-0.014 -6.518,1.801 -6.424,6.082 0.086,3.936 3.418,6.393 9.074,6.226 C 6.301,12.2 10.309,11.938 10.785,6.977 11.18,2.873 6.617,0.02 0,0"
                   style="fill:#ffffff;fill-opacity:1;fill-rule:evenodd;stroke:none"
                   id="path282"
                   inkscape:connector-curvature="0" /></g><g
                 transform="translate(518.6953,463.647)"
                 id="g288"><path
                   d="m 0,0 c -4.279,-0.255 -6.049,2.09 -6.074,6.034 -0.026,4.038 3.816,6.611 9.47,6.461 4.95,-0.131 7.87,-2.317 7.76,-5.809 C 11.027,2.635 6.477,-0.094 0,0"
                   style="fill:#ffffff;fill-opacity:1;fill-rule:evenodd;stroke:none"
                   id="path286"
                   inkscape:connector-curvature="0" /></g><g
                 transform="translate(449.7285,479.1011)"
                 id="g292"><path
                   d="m 0,0 c -0.684,-20.966 -1.85,-40.25 -1.773,-59.53 0.064,-16.613 1.345,-33.232 2.439,-49.826 1.84,-27.908 2.236,-55.818 1.258,-83.771 -0.414,-11.836 -5.711,-19.51 -16.817,-23.836 -10.642,-4.145 -21.545,-6.877 -32.878,-7.514 -16.774,-0.94 -33.571,-1.455 -50.358,-2.125 -1.66,-0.066 -3.74,-0.6 -4.924,0.168 -6.017,3.898 -11.91,3.437 -18.349,1.035 -3.073,-1.148 -6.588,0.324 -9.596,1.826 -4.111,2.053 -5.371,6.647 -2.459,11.651 8.113,13.945 13.682,29.187 22.269,42.888 3.43,5.473 6.467,11.229 8.264,17.518 2.342,8.205 0.279,15.31 -6.506,20.392 -16.195,12.131 -31.119,25.545 -43.439,41.7 -0.901,1.179 -2.002,2.246 -3.158,3.181 -3.944,3.192 -3.998,7.059 -1.913,11.174 1.904,3.76 4.919,6.656 7.963,9.51 20.87,19.568 44.92,34.837 68.516,50.718 14.043,9.449 25.871,21.371 37.311,33.674 3.523,3.787 7.048,7.064 12.375,7.563 5.216,0.49 7.798,4.743 11.22,7.734 2.873,2.514 5.42,5.404 8.082,8.158 1.481,1.529 3,2.41 5.301,1.655 2.154,-0.706 2.584,-2.317 3,-4.142 1.16,-5.074 1.565,-10.272 1.131,-15.385 C -3.797,15.472 1.689,7.313 0,0"
                   style="fill:#231f20;fill-opacity:1;fill-rule:evenodd;stroke:none"
                   id="path290"
                   inkscape:connector-curvature="0" /></g><g
                 transform="translate(243.0977,611.8486)"
                 id="g296"><path
                   d="m 0,0 c 16.937,-2.196 35.406,-1.305 53.865,-1.339 33.219,-0.061 66.281,-4.842 99.551,-3.457 9.967,0.414 19.955,0.102 29.912,1.275 6.291,0.742 12.643,0.3 18.709,-1.95 4.496,-1.668 7.414,-4.889 7.328,-9.688 -0.31,-17.131 -0.933,-34.256 -1.42,-51.383 -0.107,-3.787 -1.855,-6.632 -4.816,-8.858 -12.904,-9.7 -25.197,-20.196 -37.055,-31.081 -11.615,-10.66 -24.263,-19.586 -37.472,-28.045 -10.206,-6.536 -19.686,-14.235 -29.305,-21.655 -13.649,-10.528 -25.455,-8.401 -38.301,-2.425 -6.308,2.936 -7.148,6.156 -4.027,12.52 2.465,5.026 3.605,10.349 4.357,15.772 1.121,8.079 -1.707,12.724 -7.994,13.696 -5.619,0.869 -11.523,-4.066 -12.831,-10.853 -0.905,-4.694 -0.081,-9.295 1.448,-13.711 1.272,-3.667 1.986,-7.217 -0.951,-10.27 -3.09,-3.215 -6.941,-3.338 -11.102,-2.215 -7.042,1.9 -11.47,6.731 -14.171,13.036 -4.639,10.832 -8.386,22.058 -13.31,32.75 -4.814,10.455 -6.649,21.414 -8.077,32.631 -1.559,12.242 -7.483,23.05 -12.83,33.836 -4.804,9.687 -7.377,19.445 -7.192,30.176 0.079,4.561 2.08,7.138 6.078,8.638 C -13.748,-0.403 -7.645,-0.004 0,0"
                   style="fill:#231f20;fill-opacity:1;fill-rule:evenodd;stroke:none"
                   id="path294"
                   inkscape:connector-curvature="0" /></g><g
                 transform="translate(259.2012,433.7349)"
                 id="g300"><path
                   d="m 0,0 c -0.154,-6.291 -1.617,-12.176 -5.8,-16.744 -10.712,-11.697 -18.61,-25.517 -28.813,-37.582 -2.836,-3.353 -4.674,-7.279 -6.086,-11.375 -2.213,-6.422 -5.789,-11.916 -10.599,-16.674 -4.442,-4.396 -7.528,-9.544 -9.583,-15.533 -1.822,-5.316 -4.302,-10.467 -7.004,-15.412 -9.64,-17.637 -19.503,-35.154 -29.274,-52.722 -1.997,-3.592 -4.421,-6.481 -9.1,-4.799 -4.056,1.457 -7.487,4.134 -6.668,8.756 2.755,15.548 0.51,31.187 1.349,46.763 0.779,14.453 1.12,28.934 1.419,43.406 0.189,9.147 -0.067,18.334 -2.064,27.297 -1.447,6.498 -1.44,12.907 0.1,19.258 1.665,6.871 2.215,13.737 1.543,20.756 -2.388,24.933 -1.019,49.933 -0.989,74.896 0.035,28.793 2.224,57.55 2.118,86.364 -0.047,12.724 4.983,18.128 18.048,18.935 10.412,0.644 20.794,2.17 31.315,1.253 7.738,-0.676 11.083,-2.533 12.5,-10.242 3.155,-17.168 9.75,-33.078 16.927,-48.801 3.231,-7.079 4.701,-14.476 5.182,-22.169 0.175,-2.817 0.141,-5.844 1.18,-8.373 4.864,-11.834 5.88,-24.477 8.166,-36.846 1.628,-8.803 6.422,-16.349 9.323,-24.638 C -3.852,17.325 -0.187,9.061 0,0"
                   style="fill:#231f20;fill-opacity:1;fill-rule:evenodd;stroke:none"
                   id="path298"
                   inkscape:connector-curvature="0" /></g><g
                 transform="translate(289.2754,248.4521)"
                 id="g304"><path
                   d="m 0,0 c -14.394,0.02 -27.615,3.303 -41.148,3.156 -13.956,-0.148 -27.918,0.158 -41.875,0.379 -7.819,0.125 -15.616,0.602 -23.072,3.338 -8.291,3.045 -11.15,7.42 -9.811,16.027 1.119,7.196 3.914,13.739 9.392,18.813 3.477,3.219 6.274,6.648 7.217,11.582 0.69,3.603 3.866,5.949 5.992,8.828 6.049,8.191 11.999,16.377 19.569,23.258 6.154,18.98 21.591,31.096 33.971,45.39 6.604,7.627 15.515,6.614 23.937,2.872 C -3.445,128.139 7.254,119.82 18.449,112.357 25.645,107.561 32.93,102.867 39.27,96.904 48.479,88.24 50.309,80.945 44.936,69.67 35.574,50.027 25.777,30.592 16.145,11.076 15.631,10.037 14.896,9.109 14.357,8.082 11.119,1.883 6.639,-1.937 0,0"
                   style="fill:#231f20;fill-opacity:1;fill-rule:evenodd;stroke:none"
                   id="path302"
                   inkscape:connector-curvature="0" /></g></g></g></g></g></g><g
       id="g340"
       transform="translate(27.6399,30.9447)"><path
         d="M 0,0 V 780 Z"
         style="fill:#231f20;fill-opacity:1;fill-rule:nonzero;stroke:none"
         id="path342"
         inkscape:connector-curvature="0" /></g><g
       id="g344"
       transform="translate(27.6401,810.9448)"><path
         d="M 0,0 V -780"
         style="fill:none;stroke:#231f20;stroke-width:0.5;stroke-linecap:butt;stroke-linejoin:miter;stroke-miterlimit:10;stroke-dasharray:none;stroke-opacity:1"
         id="path346"
         inkscape:connector-curvature="0" /></g><g
       id="g348"
       transform="translate(567.6408,30.9447)"><path
         d="M 0,0 V 780 Z"
         style="fill:#231f20;fill-opacity:1;fill-rule:nonzero;stroke:none"
         id="path350"
         inkscape:connector-curvature="0" /></g><g
       id="g352"
       transform="translate(567.6406,810.9448)"><path
         d="M 0,0 V -780"
         style="fill:none;stroke:#231f20;stroke-width:0.5;stroke-linecap:butt;stroke-linejoin:miter;stroke-miterlimit:10;stroke-dasharray:none;stroke-opacity:1"
         id="path354"
         inkscape:connector-curvature="0" /></g><text
       transform="matrix(1,0,0,-1,212.6401,784.7793)"
       style="font-variant:normal;font-weight:500;font-stretch:normal;font-size:18px;font-family:'HelveticaNeueLT Com 65 Md';-inkscape-font-specification:HelveticaNeueLTCom-Md;writing-mode:lr-tb;fill:#231f20;fill-opacity:1;fill-rule:nonzero;stroke:none"
       id="text366"><tspan
         x="0 9.0179996 19.35 25.686001 35.352001 39.689999 49.032001 59.040001 64.043999 69.047997 79.379997 88.722 98.730003 109.062"
         y="0"
         sodipodi:role="line"
         id="tspan356">Trkiye nsan </tspan><tspan
         x="0 12.996 23.004 32.669998 37.007999 47.015999 53.352001 57.689999 62.694 72.700203 82.708199 92.374199 98.044197"
         y="21.6"
         sodipodi:role="line"
         id="tspan358">Haklar Vakf</tspan><tspan
         x="0 10.332 21.006001 31.68 42.354 47.358002 59.021999 64.026001 74.358002 85.031998 95.706001 106.38 112.374 122.382 131.724"
         y="43.200001"
         sodipodi:role="line"
         id="tspan360">Logo &amp; Logotayp</tspan><tspan
         x="180 185.004 189.342 199.35001 205.34399 209.68201 219.024 223.362 239.022"
         y="0"
         sodipodi:role="line"
         id="tspan362">letiim:</tspan><tspan
         x="180 190.674 201.006 211.338 217.674 227.01601 237.69 242.028 257.68799"
         y="21.6"
         sodipodi:role="line"
         id="tspan364">onursolma</tspan></text>
<text
       transform="matrix(1,0,0,-1,480.3361,763.1793)"
       style="font-variant:normal;font-weight:500;font-stretch:normal;font-size:18px;font-family:'HelveticaNeueLT Com 65 Md';-inkscape-font-specification:HelveticaNeueLTCom-Md;writing-mode:lr-tb;fill:#231f20;fill-opacity:1;fill-rule:nonzero;stroke:none"
       id="text370"><tspan
         x="0"
         y="0"
         id="tspan368">z</tspan></text>
<text
       transform="matrix(1,0,0,-1,392.6401,741.5793)"
       style="font-variant:normal;font-weight:500;font-stretch:normal;font-size:18px;font-family:'HelveticaNeueLT Com 65 Md';-inkscape-font-specification:HelveticaNeueLTCom-Md;writing-mode:lr-tb;fill:#231f20;fill-opacity:1;fill-rule:nonzero;stroke:none"
       id="text374"><tspan
         x="0 14.4 25.073999 40.734001 50.742001 55.080002 59.417999 64.421997 74.43 85.103996"
         y="0"
         sodipodi:role="line"
         id="tspan372">@gmail.com</tspan></text>
<g
       id="g376"><g
         id="g378"
         clip-path="url(#clipPath382)"><g
           id="g384"
           transform="translate(526.7471,419.3184)"><path
             d="m 0,0 c -0.223,-6.839 -0.604,-13.13 -0.578,-19.419 0.021,-5.42 0.439,-10.84 0.797,-16.254 0.599,-9.103 0.728,-18.207 0.41,-27.326 -0.137,-3.861 -1.863,-6.365 -5.486,-7.775 -3.473,-1.352 -7.028,-2.245 -10.725,-2.452 -5.473,-0.306 -10.951,-0.474 -16.428,-0.693 -0.541,-0.021 -1.22,-0.195 -1.605,0.055 -1.963,1.271 -3.887,1.121 -5.987,0.338 -1.002,-0.375 -2.148,0.105 -3.128,0.595 -1.342,0.67 -1.754,2.168 -0.803,3.801 2.646,4.549 4.463,9.522 7.263,13.99 1.12,1.786 2.11,3.662 2.696,5.715 0.763,2.676 0.092,4.994 -2.121,6.653 -5.284,3.957 -10.153,8.332 -14.171,13.601 -0.294,0.385 -0.654,0.733 -1.03,1.039 -1.287,1.039 -1.305,2.302 -0.625,3.645 0.622,1.226 1.605,2.171 2.599,3.101 6.807,6.383 14.652,11.365 22.35,16.545 4.58,3.082 8.439,6.971 12.17,10.984 1.15,1.235 2.3,2.305 4.037,2.467 1.701,0.16 2.545,1.548 3.66,2.523 0.937,0.82 1.769,1.763 2.637,2.661 0.482,0.499 0.978,0.787 1.73,0.54 0.701,-0.23 0.842,-0.755 0.979,-1.351 C -0.982,11.328 -0.85,9.632 -0.992,7.964 -1.238,5.047 0.551,2.386 0,0"
             style="fill:#e1261c;fill-opacity:1;fill-rule:evenodd;stroke:none"
             id="path386"
             inkscape:connector-curvature="0" /></g><g
           id="g388"
           transform="translate(459.3428,462.6211)"><path
             d="m 0,0 c 5.525,-0.716 11.551,-0.426 17.572,-0.437 10.836,-0.02 21.621,-1.58 32.473,-1.127 3.252,0.135 6.51,0.033 9.758,0.416 2.052,0.241 4.125,0.097 6.103,-0.637 1.467,-0.544 2.418,-1.594 2.391,-3.16 -0.102,-5.588 -0.305,-11.174 -0.463,-16.762 -0.035,-1.234 -0.605,-2.163 -1.572,-2.889 -4.209,-3.164 -8.219,-6.588 -12.086,-10.138 -3.789,-3.478 -7.916,-6.39 -12.225,-9.149 -3.328,-2.132 -6.422,-4.643 -9.558,-7.063 -4.454,-3.436 -8.305,-2.741 -12.495,-0.791 -2.058,0.957 -2.332,2.008 -1.314,4.084 0.805,1.638 1.176,3.375 1.422,5.144 0.365,2.635 -0.557,4.15 -2.608,4.467 -1.834,0.284 -3.759,-1.326 -4.185,-3.54 -0.295,-1.53 -0.027,-3.032 0.473,-4.472 0.414,-1.197 0.646,-2.355 -0.311,-3.35 -1.008,-1.048 -2.265,-1.089 -3.621,-0.723 -2.299,0.62 -3.742,2.196 -4.623,4.253 -1.514,3.533 -2.736,7.195 -4.342,10.683 -1.57,3.41 -2.17,6.985 -2.635,10.644 -0.508,3.993 -2.441,7.519 -4.185,11.038 -1.567,3.159 -2.407,6.342 -2.346,9.843 0.025,1.488 0.678,2.329 1.982,2.818 C -4.484,-0.131 -2.492,-0.001 0,0"
             style="fill:#e1261c;fill-opacity:1;fill-rule:evenodd;stroke:none"
             id="path390"
             inkscape:connector-curvature="0" /></g><g
           id="g392"
           transform="translate(464.5967,404.5195)"><path
             d="m 0,0 c -0.051,-2.052 -0.527,-3.972 -1.893,-5.462 -3.494,-3.816 -6.07,-8.324 -9.398,-12.26 -0.926,-1.093 -1.524,-2.373 -1.985,-3.711 -0.722,-2.093 -1.889,-3.886 -3.457,-5.437 -1.451,-1.436 -2.456,-3.113 -3.126,-5.068 -0.595,-1.735 -1.404,-3.415 -2.286,-5.028 -3.144,-5.752 -6.361,-11.467 -9.548,-17.197 -0.653,-1.172 -1.443,-2.115 -2.969,-1.566 -1.323,0.476 -2.442,1.349 -2.176,2.855 0.9,5.074 0.167,10.174 0.442,15.256 0.253,4.715 0.365,9.437 0.462,14.158 0.061,2.984 -0.022,5.981 -0.673,8.906 -0.473,2.119 -0.47,4.209 0.032,6.282 0.544,2.241 0.722,4.48 0.503,6.769 -0.779,8.135 -0.332,16.289 -0.323,24.432 0.012,9.393 0.726,18.773 0.692,28.173 -0.016,4.15 1.625,5.913 5.887,6.176 3.396,0.21 6.783,0.708 10.214,0.409 2.526,-0.22 3.616,-0.826 4.079,-3.341 1.029,-5.6 3.18,-10.79 5.521,-15.919 1.055,-2.309 1.533,-4.722 1.69,-7.232 0.058,-0.918 0.046,-1.906 0.386,-2.731 1.586,-3.86 1.918,-7.985 2.664,-12.019 0.531,-2.872 2.094,-5.334 3.041,-8.038 C -1.256,5.651 -0.062,2.956 0,0"
             style="fill:#e1261c;fill-opacity:1;fill-rule:evenodd;stroke:none"
             id="path394"
             inkscape:connector-curvature="0" /></g><g
           id="g396"
           transform="translate(474.4072,344.0791)"><path
             d="m 0,0 c -4.695,0.006 -9.009,1.078 -13.424,1.029 -4.552,-0.047 -9.105,0.053 -13.659,0.125 -2.55,0.039 -5.094,0.196 -7.526,1.088 -2.704,0.994 -3.637,2.42 -3.2,5.229 0.365,2.347 1.277,4.482 3.064,6.136 1.134,1.051 2.046,2.168 2.354,3.778 0.225,1.176 1.261,1.941 1.954,2.881 1.974,2.671 3.915,5.341 6.383,7.586 2.009,6.191 7.044,10.144 11.082,14.806 2.155,2.488 5.062,2.158 7.808,0.938 4.04,-1.795 7.529,-4.51 11.182,-6.944 2.347,-1.564 4.724,-3.095 6.793,-5.041 3.003,-2.826 3.599,-5.207 1.847,-8.884 C 11.604,16.32 8.408,9.979 5.266,3.613 5.098,3.275 4.859,2.973 4.684,2.637 3.627,0.615 2.166,-0.631 0,0"
             style="fill:#e1261c;fill-opacity:1;fill-rule:evenodd;stroke:none"
             id="path398"
             inkscape:connector-curvature="0" /></g><g
           id="g400"
           transform="translate(444.1924,323.0391)"><path
             d="M 0,0 V -22.221 H -11.466 V 0 h -5.087 V 6.463 H 5.086 L 5.086,0 Z"
             style="fill:#222222;fill-opacity:1;fill-rule:nonzero;stroke:none"
             id="path402"
             inkscape:connector-curvature="0" /></g><g
           id="g404"
           transform="translate(483.7861,300.8184)"><path
             d="M 0,0 V 11.298 H -4.086 V 0 H -15.551 V 28.684 H -4.086 V 17.594 H 0 v 11.09 H 11.465 V 0 Z"
             style="fill:#222222;fill-opacity:1;fill-rule:nonzero;stroke:none"
             id="path406"
             inkscape:connector-curvature="0" /></g><g
           id="g408"
           transform="translate(517.1221,300.8184)"><path
             d="m 0,0 h -9.922 l -10.465,28.684 h 12.342 l 2.957,-13.133 c 0.336,-1.543 0.543,-3.336 0.543,-3.336 h 0.084 c 0,0 0.125,1.793 0.5,3.336 l 3.129,13.133 h 11.254 z"
             style="fill:#222222;fill-opacity:1;fill-rule:nonzero;stroke:none"
             id="path410"
             inkscape:connector-curvature="0" /></g><path
           d="m 463.562,329.502 h -11.465 v -6.463 h 11.465 z"
           style="fill:#222222;fill-opacity:1;fill-rule:nonzero;stroke:none"
           id="path412"
           inkscape:connector-curvature="0" /><path
           d="m 452.097,300.818 h 11.465 v 20.437 h -11.465 z"
           style="fill:#222222;fill-opacity:1;fill-rule:nonzero;stroke:none"
           id="path414"
           inkscape:connector-curvature="0" /><g
           id="g416"
           transform="translate(346.748,577.77)"><path
             d="m 0,0 c -0.223,-6.839 -0.604,-13.13 -0.578,-19.419 0.021,-5.419 0.439,-10.84 0.797,-16.253 0.599,-9.105 0.728,-18.208 0.41,-27.327 -0.137,-3.861 -1.863,-6.365 -5.486,-7.775 -3.473,-1.352 -7.028,-2.244 -10.725,-2.451 -5.473,-0.307 -10.951,-0.475 -16.428,-0.693 -0.541,-0.023 -1.22,-0.196 -1.605,0.054 -1.963,1.272 -3.887,1.121 -5.987,0.337 -1.002,-0.374 -2.148,0.107 -3.128,0.596 -1.342,0.67 -1.754,2.169 -0.803,3.801 2.646,4.548 4.463,9.521 7.263,13.991 1.12,1.784 2.11,3.662 2.696,5.714 0.763,2.676 0.092,4.994 -2.121,6.652 -5.284,3.957 -10.153,8.333 -14.172,13.603 -0.294,0.384 -0.653,0.732 -1.03,1.038 -1.286,1.04 -1.305,2.302 -0.624,3.644 0.621,1.227 1.604,2.172 2.599,3.102 6.807,6.384 14.652,11.365 22.35,16.545 4.58,3.082 8.439,6.971 12.17,10.984 1.15,1.235 2.3,2.305 4.037,2.467 1.701,0.16 2.545,1.548 3.66,2.523 0.937,0.82 1.769,1.763 2.637,2.661 0.482,0.499 0.978,0.787 1.73,0.54 0.701,-0.23 0.842,-0.755 0.979,-1.351 C -0.982,11.328 -0.85,9.632 -0.992,7.964 -1.238,5.047 0.551,2.386 0,0"
             style="fill:#e1261c;fill-opacity:1;fill-rule:evenodd;stroke:none"
             id="path418"
             inkscape:connector-curvature="0" /></g><g
           id="g420"
           transform="translate(279.3433,621.0728)"><path
             d="m 0,0 c 5.525,-0.716 11.551,-0.426 17.572,-0.437 10.837,-0.02 21.622,-1.58 32.473,-1.127 3.252,0.135 6.51,0.033 9.758,0.416 2.053,0.241 4.125,0.097 6.104,-0.637 1.467,-0.544 2.418,-1.594 2.39,-3.16 -0.101,-5.588 -0.304,-11.174 -0.463,-16.762 -0.035,-1.234 -0.605,-2.163 -1.572,-2.889 -4.209,-3.164 -8.219,-6.588 -12.086,-10.138 -3.789,-3.478 -7.916,-6.39 -12.224,-9.149 -3.328,-2.132 -6.422,-4.643 -9.559,-7.064 -4.453,-3.434 -8.305,-2.74 -12.494,-0.791 -2.059,0.958 -2.333,2.008 -1.315,4.084 0.805,1.64 1.176,3.376 1.422,5.145 0.366,2.635 -0.557,4.15 -2.608,4.467 -1.834,0.284 -3.759,-1.326 -4.185,-3.54 -0.295,-1.531 -0.027,-3.032 0.473,-4.472 0.414,-1.196 0.646,-2.355 -0.311,-3.35 -1.008,-1.049 -2.265,-1.089 -3.621,-0.723 -2.299,0.62 -3.742,2.196 -4.623,4.252 -1.514,3.534 -2.736,7.196 -4.342,10.684 -1.57,3.41 -2.17,6.985 -2.635,10.644 -0.508,3.993 -2.441,7.519 -4.185,11.038 -1.567,3.159 -2.407,6.342 -2.346,9.843 0.025,1.488 0.678,2.329 1.982,2.818 C -4.484,-0.131 -2.492,-0.001 0,0"
             style="fill:#e1261c;fill-opacity:1;fill-rule:evenodd;stroke:none"
             id="path422"
             inkscape:connector-curvature="0" /></g><g
           id="g424"
           transform="translate(284.5972,562.9712)"><path
             d="m 0,0 c -0.051,-2.052 -0.527,-3.972 -1.893,-5.462 -3.494,-3.816 -6.07,-8.324 -9.398,-12.259 -0.926,-1.094 -1.524,-2.374 -1.985,-3.711 -0.722,-2.095 -1.889,-3.887 -3.457,-5.439 -1.451,-1.434 -2.456,-3.113 -3.126,-5.067 -0.595,-1.734 -1.404,-3.414 -2.286,-5.027 -3.144,-5.753 -6.361,-11.468 -9.548,-17.199 -0.653,-1.171 -1.443,-2.114 -2.969,-1.565 -1.323,0.476 -2.442,1.349 -2.176,2.855 0.9,5.074 0.167,10.174 0.442,15.255 0.253,4.715 0.365,9.439 0.462,14.16 0.061,2.984 -0.022,5.98 -0.673,8.905 -0.473,2.119 -0.47,4.209 0.032,6.281 0.544,2.242 0.722,4.481 0.503,6.771 -0.779,8.133 -0.332,16.289 -0.323,24.431 0.012,9.393 0.726,18.773 0.692,28.173 -0.016,4.15 1.625,5.913 5.887,6.176 3.396,0.21 6.783,0.708 10.214,0.409 2.526,-0.22 3.616,-0.826 4.079,-3.341 1.029,-5.6 3.18,-10.79 5.521,-15.919 1.055,-2.309 1.533,-4.722 1.69,-7.232 0.058,-0.918 0.046,-1.906 0.386,-2.731 1.586,-3.86 1.918,-7.985 2.664,-12.019 0.531,-2.872 2.094,-5.334 3.041,-8.037 C -1.256,5.652 -0.062,2.956 0,0"
             style="fill:#e1261c;fill-opacity:1;fill-rule:evenodd;stroke:none"
             id="path426"
             inkscape:connector-curvature="0" /></g><g
           id="g428"
           transform="translate(294.4077,502.5312)"><path
             d="m 0,0 c -4.695,0.006 -9.009,1.077 -13.424,1.029 -4.552,-0.048 -9.105,0.052 -13.659,0.124 -2.55,0.04 -5.094,0.197 -7.526,1.089 -2.704,0.993 -3.637,2.42 -3.2,5.229 0.365,2.346 1.277,4.481 3.064,6.135 1.134,1.051 2.046,2.169 2.354,3.779 0.225,1.176 1.261,1.94 1.954,2.88 1.974,2.672 3.915,5.342 6.383,7.587 2.009,6.191 7.044,10.143 11.082,14.806 2.155,2.488 5.062,2.157 7.808,0.937 4.04,-1.795 7.529,-4.509 11.182,-6.944 2.348,-1.564 4.725,-3.095 6.793,-5.041 3.004,-2.826 3.6,-5.206 1.848,-8.883 C 11.604,16.319 8.409,9.979 5.266,3.613 5.098,3.274 4.86,2.972 4.684,2.636 3.627,0.614 2.166,-0.632 0,0"
             style="fill:#e1261c;fill-opacity:1;fill-rule:evenodd;stroke:none"
             id="path430"
             inkscape:connector-curvature="0" /></g><g
           id="g432"
           transform="translate(444.2402,569.5986)"><path
             d="M 0,0 V -22.221 H -11.465 V 0 h -5.088 V 6.463 H 5.086 L 5.086,0 Z"
             style="fill:#222222;fill-opacity:1;fill-rule:nonzero;stroke:none"
             id="path434"
             inkscape:connector-curvature="0" /></g><g
           id="g436"
           transform="translate(483.834,547.3779)"><path
             d="M 0,0 V 11.298 H -4.086 V 0 H -15.551 V 28.684 H -4.086 V 17.594 H 0 v 11.09 H 11.465 V 0 Z"
             style="fill:#222222;fill-opacity:1;fill-rule:nonzero;stroke:none"
             id="path438"
             inkscape:connector-curvature="0" /></g><g
           id="g440"
           transform="translate(517.1699,547.3779)"><path
             d="m 0,0 h -9.922 l -10.465,28.684 h 12.342 l 2.957,-13.133 c 0.336,-1.543 0.543,-3.336 0.543,-3.336 h 0.084 c 0,0 0.125,1.793 0.5,3.336 l 3.129,13.133 h 11.254 z"
             style="fill:#222222;fill-opacity:1;fill-rule:nonzero;stroke:none"
             id="path442"
             inkscape:connector-curvature="0" /></g><path
           d="m 463.609,576.062 h -11.465 v -6.463 h 11.465 z"
           style="fill:#222222;fill-opacity:1;fill-rule:nonzero;stroke:none"
           id="path444"
           inkscape:connector-curvature="0" /><path
           d="m 452.145,547.378 h 11.465 v 20.437 h -11.465 z"
           style="fill:#222222;fill-opacity:1;fill-rule:nonzero;stroke:none"
           id="path446"
           inkscape:connector-curvature="0" /><path
           d="M 347.541,300.818 H 247.74 v 161.481 h 99.801 z"
           style="fill:none;stroke:#231f20;stroke-width:1;stroke-linecap:butt;stroke-linejoin:miter;stroke-miterlimit:10;stroke-dasharray:none;stroke-opacity:1"
           id="path448"
           inkscape:connector-curvature="0" /><path
           d="M 347.541,362.499 H 247.74 V 462.3 h 99.801 z"
           style="fill:none;stroke:#231f20;stroke-width:1;stroke-linecap:butt;stroke-linejoin:miter;stroke-miterlimit:10;stroke-dasharray:none;stroke-opacity:1"
           id="path450"
           inkscape:connector-curvature="0" /><path
           d="M 347.541,300.818 H 285.86 v 61.681 h 61.681 z"
           style="fill:none;stroke:#231f20;stroke-width:1;stroke-linecap:butt;stroke-linejoin:miter;stroke-miterlimit:10;stroke-dasharray:none;stroke-opacity:1"
           id="path452"
           inkscape:connector-curvature="0" /><path
           d="m 285.86,300.818 h -38.12 v 38.121 h 38.12 z"
           style="fill:none;stroke:#231f20;stroke-width:1;stroke-linecap:butt;stroke-linejoin:miter;stroke-miterlimit:10;stroke-dasharray:none;stroke-opacity:1"
           id="path454"
           inkscape:connector-curvature="0" /><path
           d="m 271.299,338.937 h -23.56 v 23.562 h 23.56 z"
           style="fill:none;stroke:#231f20;stroke-width:1;stroke-linecap:butt;stroke-linejoin:miter;stroke-miterlimit:10;stroke-dasharray:none;stroke-opacity:1"
           id="path456"
           inkscape:connector-curvature="0" /><path
           d="M 285.86,347.937 H 271.299 V 362.5 h 14.561 z"
           style="fill:none;stroke:#231f20;stroke-width:1;stroke-linecap:butt;stroke-linejoin:miter;stroke-miterlimit:10;stroke-dasharray:none;stroke-opacity:1"
           id="path458"
           inkscape:connector-curvature="0" /><path
           d="m 285.86,338.937 h -8.999 v 8.999 h 8.999 z"
           style="fill:none;stroke:#231f20;stroke-width:1;stroke-linecap:butt;stroke-linejoin:miter;stroke-miterlimit:10;stroke-dasharray:none;stroke-opacity:1"
           id="path460"
           inkscape:connector-curvature="0" /><path
           d="m 274.737,344.5 h -3.438 v 3.437 h 3.438 z"
           style="fill:none;stroke:#231f20;stroke-width:1;stroke-linecap:butt;stroke-linejoin:miter;stroke-miterlimit:10;stroke-dasharray:none;stroke-opacity:1"
           id="path462"
           inkscape:connector-curvature="0" /><path
           d="m 276.861,338.939 h -5.562 v 5.561 h 5.562 z"
           style="fill:none;stroke:#231f20;stroke-width:1;stroke-linecap:butt;stroke-linejoin:miter;stroke-miterlimit:10;stroke-dasharray:none;stroke-opacity:1"
           id="path464"
           inkscape:connector-curvature="0" /><path
           d="m 276.861,345.813 h -2.124 v 2.123 h 2.124 z"
           style="fill:none;stroke:#231f20;stroke-width:1;stroke-linecap:butt;stroke-linejoin:miter;stroke-miterlimit:10;stroke-dasharray:none;stroke-opacity:1"
           id="path466"
           inkscape:connector-curvature="0" /><g
           id="g468"
           transform="translate(247.7397,461.9805)"><path
             d="M 0,0 C 54.942,0 99.481,-44.54 99.481,-99.481"
             style="fill:none;stroke:#231f20;stroke-width:1;stroke-linecap:butt;stroke-linejoin:miter;stroke-miterlimit:10;stroke-dasharray:none;stroke-opacity:1"
             id="path470"
             inkscape:connector-curvature="0" /></g><g
           id="g472"
           transform="translate(347.2207,362.499)"><path
             d="M 0,0 C 0,-33.89 -27.473,-61.362 -61.361,-61.362"
             style="fill:none;stroke:#231f20;stroke-width:1;stroke-linecap:butt;stroke-linejoin:miter;stroke-miterlimit:10;stroke-dasharray:none;stroke-opacity:1"
             id="path474"
             inkscape:connector-curvature="0" /></g><g
           id="g476"
           transform="translate(285.8599,301.1367)"><path
             d="M 0,0 C -20.877,0 -37.801,16.924 -37.801,37.801"
             style="fill:none;stroke:#231f20;stroke-width:1;stroke-linecap:butt;stroke-linejoin:miter;stroke-miterlimit:10;stroke-dasharray:none;stroke-opacity:1"
             id="path478"
             inkscape:connector-curvature="0" /></g><g
           id="g480"
           transform="translate(248.0591,338.9375)"><path
             d="M 0,0 C 0,12.837 10.405,23.241 23.24,23.241"
             style="fill:none;stroke:#231f20;stroke-width:1;stroke-linecap:butt;stroke-linejoin:miter;stroke-miterlimit:10;stroke-dasharray:none;stroke-opacity:1"
             id="path482"
             inkscape:connector-curvature="0" /></g><g
           id="g484"
           transform="translate(271.2993,362.1787)"><path
             d="M 0,0 C 7.864,0 14.241,-6.376 14.241,-14.242"
             style="fill:none;stroke:#231f20;stroke-width:1;stroke-linecap:butt;stroke-linejoin:miter;stroke-miterlimit:10;stroke-dasharray:none;stroke-opacity:1"
             id="path486"
             inkscape:connector-curvature="0" /></g><g
           id="g488"
           transform="translate(285.5405,347.9365)"><path
             d="M 0,0 C 0,-4.793 -3.886,-8.68 -8.68,-8.68"
             style="fill:none;stroke:#231f20;stroke-width:1;stroke-linecap:butt;stroke-linejoin:miter;stroke-miterlimit:10;stroke-dasharray:none;stroke-opacity:1"
             id="path490"
             inkscape:connector-curvature="0" /></g><g
           id="g492"
           transform="translate(276.8608,339.2568)"><path
             d="M 0,0 C -2.895,0 -5.242,2.348 -5.242,5.243"
             style="fill:none;stroke:#231f20;stroke-width:1;stroke-linecap:butt;stroke-linejoin:miter;stroke-miterlimit:10;stroke-dasharray:none;stroke-opacity:1"
             id="path494"
             inkscape:connector-curvature="0" /></g><g
           id="g496"
           transform="translate(271.6226,344.4414)"><path
             d="m 0,0 c -0.088,1.665 1.191,3.085 2.856,3.173 0.106,0.006 0.21,0.006 0.317,0"
             style="fill:none;stroke:#231f20;stroke-width:1;stroke-linecap:butt;stroke-linejoin:miter;stroke-miterlimit:10;stroke-dasharray:none;stroke-opacity:1"
             id="path498"
             inkscape:connector-curvature="0" /></g><g
           id="g500"
           transform="translate(274.7368,347.6182)"><path
             d="M 0,0 C 0.997,0 1.805,-0.809 1.805,-1.805"
             style="fill:none;stroke:#231f20;stroke-width:1;stroke-linecap:butt;stroke-linejoin:miter;stroke-miterlimit:10;stroke-dasharray:none;stroke-opacity:1"
             id="path502"
             inkscape:connector-curvature="0" /></g><g
           id="g504"
           transform="translate(276.5415,345.8389)"><path
             d="M 0,0 C 0.015,-0.548 -0.419,-1.005 -0.968,-1.019 H -1.019"
             style="fill:none;stroke:#231f20;stroke-width:1;stroke-linecap:butt;stroke-linejoin:miter;stroke-miterlimit:10;stroke-dasharray:none;stroke-opacity:1"
             id="path506"
             inkscape:connector-curvature="0" /></g></g></g><text
       transform="matrix(1,0,0,-1,459.3286,205.0869)"
       style="font-variant:normal;font-weight:300;font-stretch:normal;font-size:12px;font-family:'HelveticaNeueLT Com 45 Lt';-inkscape-font-specification:HelveticaNeueLTCom-Lt;writing-mode:lr-tb;fill:#231f20;fill-opacity:1;fill-rule:nonzero;stroke:none"
       id="text516"><tspan
         x="0 6.4439998 12.888 16.224001 24.444 30.672001"
         y="0"
         sodipodi:role="line"
         id="tspan508">FF Dax</tspan><tspan
         x="-11.04 0.132 2.352 9.2399998 15.468 18.804001 26.808001 29.028 35.256001 41.484001"
         y="14.4"
         sodipodi:role="line"
         id="tspan510">Wide Black</tspan><tspan
         x="-180.96001 -173.39999 -167.172 -160.728 -157.392 -148.944 -142.716 -136.272 -132.72 -128.94 -122.712 -120.492 -117.156 -109.152 -106.932 -100.704 -94.475998"
         y="-8.0760002"
         sodipodi:role="line"
         id="tspan512">Pan Neutral Black</tspan><tspan
         x="-180.96001 -173.39999 -167.172 -160.728 -157.392 -150.72 -144.048"
         y="22.5"
         sodipodi:role="line"
         id="tspan514">Pan 485</tspan></text>
<g
       id="g518"><g
         id="g520"
         clip-path="url(#clipPath524)"><path
           d="M 272.577,201.727 H 242 v 30.578 h 30.577 z"
           style="fill:#222222;fill-opacity:1;fill-rule:nonzero;stroke:none"
           id="path526"
           inkscape:connector-curvature="0" /><path
           d="M 272.577,171.15 H 242 v 30.576 h 30.577 z"
           style="fill:#e1261c;fill-opacity:1;fill-rule:nonzero;stroke:none"
           id="path528"
           inkscape:connector-curvature="0" /></g></g></g></svg>