<?xml version="1.0" encoding="UTF-8" standalone="no"?>
<!-- Created with Inkscape (http://www.inkscape.org/) -->

<svg
   xmlns:dc="http://purl.org/dc/elements/1.1/"
   xmlns:cc="http://creativecommons.org/ns#"
   xmlns:rdf="http://www.w3.org/1999/02/22-rdf-syntax-ns#"
   xmlns:svg="http://www.w3.org/2000/svg"
   xmlns="http://www.w3.org/2000/svg"
   xmlns:sodipodi="http://sodipodi.sourceforge.net/DTD/sodipodi-0.dtd"
   xmlns:inkscape="http://www.inkscape.org/namespaces/inkscape"
   width="70.469704mm"
   height="21.808016mm"
   viewBox="0 0 249.6958 77.272494"
   id="svg5129"
   version="1.1"
   inkscape:version="0.91 r13725"
   sodipodi:docname="logo_site_header.svg"
   inkscape:export-filename="/home/onur/Dropbox/lab/aoa/logo_site_header.png"
   inkscape:export-xdpi="72.03904"
   inkscape:export-ydpi="72.03904">
  <defs
     id="defs5131" />
  <sodipodi:namedview
     id="base"
     pagecolor="#ffffff"
     bordercolor="#666666"
     borderopacity="1.0"
     inkscape:pageopacity="0.0"
     inkscape:pageshadow="2"
     inkscape:zoom="1.4"
     inkscape:cx="123.47424"
     inkscape:cy="71.561114"
     inkscape:document-units="px"
     inkscape:current-layer="layer1"
     showgrid="false"
     fit-margin-top="0"
     fit-margin-left="0"
     fit-margin-right="0"
     fit-margin-bottom="0"
     inkscape:window-width="1920"
     inkscape:window-height="1037"
     inkscape:window-x="0"
     inkscape:window-y="20"
     inkscape:window-maximized="0" />
  <metadata
     id="metadata5134">
    <rdf:RDF>
      <cc:Work
         rdf:about="">
        <dc:format>image/svg+xml</dc:format>
        <dc:type
           rdf:resource="http://purl.org/dc/dcmitype/StillImage" />
        <dc:title></dc:title>
      </cc:Work>
    </rdf:RDF>
  </metadata>
  <g
     inkscape:label="Layer 1"
     inkscape:groupmode="layer"
     id="layer1"
     transform="translate(-233.01706,-532.77015)">
    <g
       id="g5814"
       transform="matrix(1.1486491,0,0,1.1486491,-53.196323,-84.939075)">
      <path
         d="m 279.82042,556.74792 c 0.35375,0 1.41625,0.0712 1.41625,-0.46 0,-0.5325 -1.02625,-2.37625 -1.31125,-2.87125 -0.31875,-0.56625 -0.92,-1.8775 -1.7,-1.8775 -0.85125,0 -1.4525,2.125 -1.59625,2.515 -0.14125,0.39 -0.7425,1.7725 -0.7425,2.1975 0,0.6025 0.88625,0.49625 1.275,0.49625 l 2.65875,0 z m -7.4425,-2.5525 c 1.09875,-2.44375 2.55125,-5.5625 2.55125,-8.36125 0,-2.44625 1.13375,-4.29 4.28875,-4.29 3.0825,0 5.03125,3.15375 6.4125,5.4925 0.60375,1.02875 5.955,11.8725 7.23125,14.77875 1.16875,2.69375 3.08125,1.06375 3.08125,3.08375 0,2.5875 -5.03125,2.48 -6.80375,2.48 -5.0675,0 -8.115,-0.0338 -8.115,-2.23125 0,-1.7025 2.1625,-1.065 2.1625,-2.305 0,-1.59375 -0.88625,-1.73625 -6.59125,-1.73625 -1.84375,0 -2.9425,0.0712 -2.9425,1.8075 0,1.38125 2.26875,0.46125 2.26875,2.30375 0,2.1275 -3.82875,2.16125 -5.24375,2.16125 -5.06875,0 -5.53,-0.9575 -5.53,-2.09 0,-1.66625 1.91375,-1.17 2.94125,-2.44625 0.78,-0.9575 1.52375,-2.6575 2.05625,-3.79125 l 2.2325,-4.85625 z"
         style="fill:#f2f2f2;fill-opacity:1;fill-rule:nonzero;stroke:none"
         id="path98"
         inkscape:connector-curvature="0" />
      <path
         d="m 297.64266,539.5153 8.575,0 c 4.11125,0 6.6625,0.745 8.1175,1.8775 2.195,1.70125 3.1875,4.29 3.1875,7.15875 0,2.02125 -0.56625,3.58 -1.31125,4.74875 -0.88625,1.3825 -2.16125,2.26875 -3.40125,2.8 l 5.4225,9.63875 -6.91125,0 -6.84,-12.65125 1.09875,0 c 1.70125,0 3.15375,-0.1425 4.04,-0.70875 0.815,-0.53125 1.48875,-1.7725 1.48875,-3.225 0,-1.3825 -0.67375,-2.48 -1.56,-3.0475 -0.74375,-0.46125 -1.80625,-0.70875 -2.72875,-0.70875 l -2.48125,0 0,20.34125 -6.69625,0 0,-26.22375 z"
         style="fill:#f2f2f2;fill-opacity:1;fill-rule:nonzero;stroke:none"
         id="path102"
         inkscape:connector-curvature="0" />
      <path
         d="m 319.04279,554.99492 0,-9 23.53125,0 0,9 -3.29625,0 c 0,-3.615 -1.0625,-5.8825 -5.1375,-5.8825 l 0,15.84125 c 0,0.88625 0.49625,1.4175 1.3825,1.4175 l 2.12625,0 0,3.11875 -13.75,0 0,-3.11875 2.1975,0 c 0.88625,0 1.38125,-0.53125 1.38125,-1.4175 l 0,-15.84125 c -4.07625,0 -5.13875,2.2675 -5.13875,5.8825 l -3.29625,0 z"
         style="fill:#f2f2f2;fill-opacity:1;fill-rule:nonzero;stroke:none"
         id="path106"
         inkscape:connector-curvature="0" />
      <path
         d="m 343.88416,559.9633 2.2325,0 0,-12.51 -2.2325,0 0,-5.77625 13.785,0 0,5.77625 -2.23125,0 0,12.51 2.23125,0 0,5.77625 -13.785,0 0,-5.77625 z"
         style="fill:#f2f2f2;fill-opacity:1;fill-rule:nonzero;stroke:none"
         id="path110"
         inkscape:connector-curvature="0" />
      <path
         d="m 386.58554,554.67392 c -1.52375,6.20125 -6.90875,10.3125 -13.25375,10.3125 -8.22125,0 -13.82125,-6.5575 -13.82125,-13.645 0,-6.69625 5.17375,-13.57125 13.75125,-13.57125 8.22125,0 12.61625,6.3425 13.32375,10.45375 l -7.01625,0 c -0.745,-1.95 -2.72875,-4.5725 -6.34375,-4.5725 -4.5,0 -7.01625,3.93375 -7.01625,7.65625 0,3.9675 2.69375,7.795 7.0525,7.795 4.18125,0 5.8825,-3.50875 6.3075,-4.42875 l 7.01625,0 z"
         style="fill:#f2f2f2;fill-opacity:1;fill-rule:nonzero;stroke:none"
         id="path114"
         inkscape:connector-curvature="0" />
      <path
         d="m 390.94104,569.48967 c -1.1325,0 -2.94125,0.0712 -2.94125,-1.55875 0,-2.1975 2.765,-0.35375 2.87,-4.465 0.0712,-2.58875 0.0712,-4.85625 0.0712,-6.94625 0,-2.12625 -0.17625,-4.11125 -0.2475,-6.09625 -0.0712,-2.97625 -3.19,-1.4175 -3.19,-3.4375 0,-2.58625 5.56375,-2.72875 7.30125,-2.72875 7.0875,0 7.4425,1.205 7.4425,2.41 0,2.055 -2.8,0.4975 -2.8,3.8275 l 0,11.26875 c 0,2.55125 0.425,3.7925 2.94125,3.7925 6.025,0 3.96875,-4.92625 6.23625,-4.92625 1.59625,0 2.1975,1.7 2.1975,3.04875 0,2.76375 -1.985,6.3075 -3.61375,6.3075 -0.63875,0 -1.135,-0.14125 -1.7725,-0.24875 -0.67375,-0.14125 -1.4525,-0.2475 -2.6575,-0.2475 l -11.8375,0 z"
         style="fill:#f2f2f2;fill-opacity:1;fill-rule:nonzero;stroke:none"
         id="path118"
         inkscape:connector-curvature="0" />
      <path
         d="m 412.27404,539.5153 14.84875,0 0,5.8825 -8.1525,0 0,4.07625 7.90375,0 0,5.8825 -7.90375,0 0,4.5 8.1525,0 0,5.8825 -14.84875,0 0,-26.22375 z"
         style="fill:#f2f2f2;fill-opacity:1;fill-rule:nonzero;stroke:none"
         id="path122"
         inkscape:connector-curvature="0" />
      <path
         d="m 449.41142,554.39317 -3.26,0 c -0.5325,-3.72125 -3.82875,-5.8125 -6.94625,-5.8125 -2.05625,0 -3.97,0.67375 -3.97,3.0475 0,4.465 15.34625,0.88625 15.34625,10.98625 0,5.67 -4.8925,7.585 -9.7825,7.585 -2.7275,0 -5.4925,-0.56875 -7.72375,-2.1975 l -0.92375,1.8775 -2.975,0 0,-9.285 3.295,0 c 0.46125,3.72 3.54375,6.30875 7.72625,6.30875 1.8425,0 4.07625,-1.0275 4.07625,-3.04875 0,-5.06625 -15.34625,-0.95625 -15.34625,-11.1275 0,-5.8475 5.28,-7.4425 10.17125,-7.4425 2.41,0 4.71375,0.78125 6.73375,2.055 l 0.6375,-1.665 2.94125,0 0,8.71875 z"
         style="fill:#f2f2f2;fill-opacity:1;fill-rule:nonzero;stroke:none"
         id="path126"
         inkscape:connector-curvature="0" />
      <path
         d="m 255.87266,589.39442 c 0,4.005 2.7275,7.76125 7.22875,7.76125 4.74875,0 7.05125,-4.32375 7.05125,-7.69 0,-3.40125 -2.3025,-7.76125 -7.12125,-7.76125 -4.64375,0 -7.15875,3.96875 -7.15875,7.65625 l 0,0.0337 z m -6.69875,0.32 c 0,-8.57625 6.59125,-13.89125 13.82,-13.89125 8.08125,0 13.8575,6.30625 13.8575,13.6075 0,7.3 -5.7425,13.6075 -13.89125,13.6075 -8.2575,0 -13.78625,-6.555 -13.78625,-13.29 l 0,-0.0337 z"
         style="fill:#f2f2f2;fill-opacity:1;fill-rule:nonzero;stroke:none"
         id="path130"
         inkscape:connector-curvature="0" />
      <path
         d="m 278.33604,598.01617 2.55125,0 0,-12.51 -2.6225,0 0,-5.77625 23.70875,0 0,7.93875 -6.30875,0 0,-2.1625 -5.45625,0 0,3.75625 4.11125,0 0,4.89 -4.11125,0 0,3.86375 2.76375,0 0,5.77625 -14.63625,0 0,-5.77625 z"
         style="fill:#f2f2f2;fill-opacity:1;fill-rule:nonzero;stroke:none"
         id="path134"
         inkscape:connector-curvature="0" />
      <path
         d="m 324.27841,591.05092 c 0.35375,0 1.41625,0.0712 1.41625,-0.46 0,-0.5325 -1.0275,-2.37625 -1.31125,-2.87125 -0.32,-0.56625 -0.92,-1.8775 -1.70125,-1.8775 -0.85,0 -1.4525,2.125 -1.595,2.515 -0.14125,0.39 -0.74375,1.7725 -0.74375,2.1975 0,0.6025 0.88625,0.49625 1.27625,0.49625 l 2.65875,0 z m -7.44375,-2.5525 c 1.09875,-2.44375 2.55125,-5.5625 2.55125,-8.36125 0,-2.44625 1.135,-4.29 4.29,-4.29 3.0825,0 5.03125,3.15375 6.4125,5.4925 0.60375,1.02875 5.955,11.8725 7.23,14.77875 1.16875,2.69375 3.0825,1.0625 3.0825,3.08375 0,2.58625 -5.03125,2.48 -6.80375,2.48 -5.06875,0 -8.115,-0.035 -8.115,-2.2325 0,-1.70125 2.1625,-1.06375 2.1625,-2.30375 0,-1.59375 -0.88625,-1.73625 -6.59125,-1.73625 -1.84375,0 -2.9425,0.0712 -2.9425,1.8075 0,1.3825 2.26875,0.46125 2.26875,2.3025 0,2.1275 -3.82875,2.1625 -5.24375,2.1625 -5.06875,0 -5.53,-0.9575 -5.53,-2.09 0,-1.66625 1.91375,-1.17125 2.94125,-2.44625 0.77875,-0.9575 1.52375,-2.6575 2.05625,-3.79125 l 2.23125,-4.85625 z"
         style="fill:#f2f2f2;fill-opacity:1;fill-rule:nonzero;stroke:none"
         id="path138"
         inkscape:connector-curvature="0" />
      <path
         d="m 348.79741,590.93742 2.44625,0 c 0.6375,0 1.69875,0 2.585,-0.39 0.88625,-0.38875 1.5975,-1.20375 1.5975,-2.7625 0,-1.56 -0.745,-2.30375 -1.6675,-2.695 -0.92125,-0.38875 -2.01875,-0.38875 -2.76375,-0.38875 l -2.1975,0 0,6.23625 z m 1.8775,-12.11875 c 4.85625,0 6.6625,0.74375 8.08125,1.91375 2.055,1.7 3.08375,4.2875 3.08375,6.94625 0,2.6575 -1.09875,5.45625 -2.76375,6.875 -1.81,1.5225 -3.58,2.2675 -7.65625,2.2675 l -2.6225,0 0,8.22125 -6.69625,0 0,-26.22375 8.57375,0 z"
         style="fill:#f2f2f2;fill-opacity:1;fill-rule:nonzero;stroke:none"
         id="path142"
         inkscape:connector-curvature="0" />
      <path
         d="m 369.94241,589.44567 5.13875,0 -2.55375,-7.61875 -0.07,0 -2.515,7.61875 z m 7.4775,-12.8975 5.91875,17.7175 c 0.7075,2.1625 1.20375,2.6575 2.44375,2.6575 l 1.20625,0 0,3.12 -12.935,0 0,-3.12 1.0625,0 c 1.06375,0 1.9475,-0.14125 1.9475,-0.53 0,-0.35625 -0.0338,-0.745 -0.175,-1.27625 l -0.745,-2.5525 -7.22875,0 -0.425,1.41875 c -0.39125,1.24 -0.5325,1.77125 -0.5325,2.2675 0,0.56625 1.24,0.6725 2.1975,0.6725 l 1.0275,0 0,3.12 -10.42,0 0,-3.12 1.20625,0 c 1.24,0 1.73625,-0.495 2.44375,-2.6575 l 5.92,-17.7175 7.0875,0 z"
         style="fill:#f2f2f2;fill-opacity:1;fill-rule:nonzero;stroke:none"
         id="path146"
         inkscape:connector-curvature="0" />
      <path
         d="m 410.00104,589.86554 -4.53625,0 0,-4.35875 -2.76375,0 0,12.51 2.12625,0 0,5.77625 -13.57375,0 0,-5.77625 2.12625,0 0,-12.51 -2.76375,0 0,4.35875 -4.53625,0 0,-10.135 23.92125,0 0,10.135 z"
         style="fill:#f2f2f2;fill-opacity:1;fill-rule:nonzero;stroke:none"
         id="path150"
         inkscape:connector-curvature="0" />
      <path
         d="m 437.42779,594.19542 c 0,1.06375 0.14125,1.59375 1.09875,2.12625 0.7075,0.39 1.20625,0.6025 1.20625,1.48875 0,0.85 -0.0713,2.62125 -7.05375,2.62125 -1.56,0 -6.09625,-0.035 -6.09625,-2.40875 -0.14125,-2.72875 2.48125,0.2825 2.48125,-6.91125 0,-1.9125 -0.425,-1.84125 -2.195,-1.84125 -4.96375,0 -4.5025,0.14125 -4.5025,3.33 0,4.855 2.1975,2.90625 2.1975,5.21 0,2.48 -5.17375,2.62125 -6.875,2.62125 -1.63125,0 -6.555,-0.14125 -6.555,-2.55125 0,-0.74375 0.53,-1.205 1.1325,-1.4875 1.2775,-0.60375 1.73625,-0.4975 1.73625,-7.9025 0,-9.4275 -0.1425,-8.6475 -1.4525,-9.3575 -0.5325,-0.2825 -1.17,-0.60125 -1.17,-1.31125 0,-2.7275 5.9175,-3.01125 7.9025,-3.01125 1.49,0 5.60125,0.1775 5.60125,2.30375 0,1.09875 -0.60375,1.4875 -1.41875,1.985 -0.88625,0.495 -1.09875,0.92 -1.09875,4.075 0,1.985 0.92,1.735 2.6225,1.735 l 1.80625,0 c 2.34125,0 2.26875,-0.35375 2.26875,-1.4525 0,-3.8625 -0.60125,-4.11 -1.0625,-4.3575 -0.67375,-0.39125 -1.31125,-0.71 -1.31125,-1.63125 0,-0.67375 -0.14125,-2.6575 6.90875,-2.6575 1.6675,0 6.38,0.0362 6.38,2.51625 0,0.77875 -0.38875,1.31125 -1.09875,1.665 -1.0625,0.46125 -1.4525,0.355 -1.4525,5.98875 l 0,9.215 z"
         style="fill:#f2f2f2;fill-opacity:1;fill-rule:nonzero;stroke:none"
         id="path154"
         inkscape:connector-curvature="0" />
      <path
         d="m 454.11729,581.54767 0,3.1175 -1.4525,0 c -0.67375,0 -1.09875,0.14125 -1.09875,0.56625 0,0.39125 0.35375,0.92375 0.5325,1.20625 l 3.1175,4.855 3.15375,-4.855 c 0.17625,-0.2825 0.5325,-0.815 0.5325,-1.20625 0,-0.425 -0.39,-0.56625 -1.09875,-0.56625 l -1.455,0 0,-3.1175 10.2075,0 0,3.1175 -0.745,0 c -1.27625,0 -1.98375,0.2475 -2.44625,0.9575 l -6.305,9.95875 0,4.925 c 0,0.88625 0.495,1.4175 1.38125,1.4175 l 2.41,0 0,3.11875 -14.175,0 0,-3.11875 2.33875,0 c 0.88625,0 1.38125,-0.53125 1.38125,-1.4175 l 0,-4.925 -5.6,-8.93125 c -0.9575,-1.48875 -1.52375,-1.985 -3.4375,-1.985 l -0.745,0 0,-3.1175 13.50375,0 z"
         style="fill:#f2f2f2;fill-opacity:1;fill-rule:nonzero;stroke:none"
         id="path158"
         inkscape:connector-curvature="0" />
    </g>
  </g>
</svg>
