<?xml version="1.0" encoding="UTF-8" standalone="no"?>
<!-- Created with Inkscape (http://www.inkscape.org/) -->

<svg
   xmlns:dc="http://purl.org/dc/elements/1.1/"
   xmlns:cc="http://creativecommons.org/ns#"
   xmlns:rdf="http://www.w3.org/1999/02/22-rdf-syntax-ns#"
   xmlns:svg="http://www.w3.org/2000/svg"
   xmlns="http://www.w3.org/2000/svg"
   xmlns:xlink="http://www.w3.org/1999/xlink"
   xmlns:sodipodi="http://sodipodi.sourceforge.net/DTD/sodipodi-0.dtd"
   xmlns:inkscape="http://www.inkscape.org/namespaces/inkscape"
   width="828"
   height="315"
   viewBox="0 0 828.00001 315.00001"
   id="svg5857"
   version="1.1"
   inkscape:version="0.91 r13725"
   sodipodi:docname="logo_fb_cover2.svg"
   inkscape:export-filename="/home/onur/Dropbox/lab/aoa/logo_fb_cover2.png"
   inkscape:export-xdpi="90"
   inkscape:export-ydpi="90">
  <defs
     id="defs5859" />
  <sodipodi:namedview
     id="base"
     pagecolor="#ffffff"
     bordercolor="#666666"
     borderopacity="1.0"
     inkscape:pageopacity="0.0"
     inkscape:pageshadow="2"
     inkscape:zoom="1.4"
     inkscape:cx="489.35103"
     inkscape:cy="249.08246"
     inkscape:document-units="px"
     inkscape:current-layer="layer1"
     showgrid="false"
     units="px"
     inkscape:window-width="1920"
     inkscape:window-height="1037"
     inkscape:window-x="0"
     inkscape:window-y="20"
     inkscape:window-maximized="0"
     showguides="true"
     inkscape:guide-bbox="true"
     inkscape:snap-bbox="true"
     inkscape:bbox-paths="true"
     inkscape:bbox-nodes="true"
     inkscape:snap-bbox-edge-midpoints="true"
     inkscape:snap-bbox-midpoints="true"
     inkscape:snap-page="true">
    <sodipodi:guide
       position="0,158.57143"
       orientation="1,0"
       id="guide3348" />
    <sodipodi:guide
       position="302.85715,315.00001"
       orientation="0,1"
       id="guide3350" />
    <sodipodi:guide
       position="304.28572,0"
       orientation="0,1"
       id="guide3352" />
    <sodipodi:guide
       position="828.00001,60.000002"
       orientation="1,0"
       id="guide3354" />
  </sodipodi:namedview>
  <metadata
     id="metadata5862">
    <rdf:RDF>
      <cc:Work
         rdf:about="">
        <dc:format>image/svg+xml</dc:format>
        <dc:type
           rdf:resource="http://purl.org/dc/dcmitype/StillImage" />
        <dc:title />
      </cc:Work>
    </rdf:RDF>
  </metadata>
  <g
     inkscape:label="Layer 1"
     inkscape:groupmode="layer"
     id="layer1"
     transform="translate(0,-737.36213)">
    <image
       sodipodi:absref="/home/onur/Dropbox/lab/aoa/4740324_max.jpg"
       xlink:href="4740324_max.jpg"
       width="895.2381"
       height="671.42859"
       preserveAspectRatio="none"
       id="image3345"
       x="-67.238098"
       y="381.10181" />
    <text
       xml:space="preserve"
       style="color:#000000;font-style:normal;font-variant:normal;font-weight:normal;font-stretch:normal;font-size:30.21105003px;line-height:125%;font-family:'Bitstream Vera Serif';-inkscape-font-specification:'Bitstream Vera Serif';text-indent:0;text-align:center;text-decoration:none;text-decoration-line:none;text-decoration-style:solid;text-decoration-color:#000000;letter-spacing:0px;word-spacing:0px;text-transform:none;direction:ltr;block-progression:tb;writing-mode:lr-tb;baseline-shift:baseline;text-anchor:middle;white-space:normal;clip-rule:nonzero;display:inline;overflow:visible;visibility:visible;opacity:1;isolation:auto;mix-blend-mode:normal;color-interpolation:sRGB;color-interpolation-filters:linearRGB;solid-color:#000000;solid-opacity:1;fill:#800000;fill-opacity:1;fill-rule:nonzero;stroke:none;stroke-width:1px;stroke-linecap:butt;stroke-linejoin:miter;stroke-miterlimit:4;stroke-dasharray:none;stroke-dashoffset:0;stroke-opacity:1;color-rendering:auto;image-rendering:auto;shape-rendering:auto;text-rendering:auto;enable-background:accumulate;"
       x="1109.3998"
       y="906.25171"
       id="text4475"
       sodipodi:linespacing="125%"><tspan
         sodipodi:role="line"
         id="tspan4477"
         x="1109.3998"
         y="906.25171"
         style="font-style:normal;font-variant:normal;font-weight:bold;font-stretch:normal;font-family:'Futura Std';-inkscape-font-specification:'Futura Std weight=760';fill:#800000;">YOU <tspan
   style="font-style:oblique;font-variant:normal;font-stretch:normal;font-family:'Futura Std';-inkscape-font-specification:'Futura Std weight=760 Oblique';fill:#800000;"
   id="tspan4479">WILL</tspan> DIE ALONE.</tspan></text>
    <g
       style="color:#000000;font-style:normal;font-variant:normal;font-weight:normal;font-stretch:normal;font-size:13.34479904px;line-height:125%;font-family:'Bitstream Vera Serif';-inkscape-font-specification:'Bitstream Vera Serif';text-indent:0;text-align:center;text-decoration:none;text-decoration-line:none;text-decoration-style:solid;text-decoration-color:#000000;letter-spacing:0px;word-spacing:0px;text-transform:none;direction:ltr;block-progression:tb;writing-mode:lr-tb;baseline-shift:baseline;text-anchor:middle;white-space:normal;clip-rule:nonzero;display:inline;overflow:visible;visibility:visible;opacity:1;isolation:auto;mix-blend-mode:normal;color-interpolation:sRGB;color-interpolation-filters:linearRGB;solid-color:#000000;solid-opacity:1;fill:#ffffff;fill-opacity:1;fill-rule:nonzero;stroke:#000000;stroke-width:1.3571532;stroke-linecap:butt;stroke-linejoin:miter;stroke-miterlimit:4.19999981;stroke-dasharray:none;stroke-dashoffset:0;stroke-opacity:1;color-rendering:auto;image-rendering:auto;shape-rendering:auto;text-rendering:auto;enable-background:accumulate"
       id="text3356"
       transform="matrix(1.24193,0,0,1.2634064,-108.0851,-246.59337)">
      <path
         d="m 412.4503,936.61111 c 0.98751,0 1.56134,0.70728 1.56134,1.548 0,0.86741 -0.57383,1.53465 -1.56134,1.53465 -0.98752,0 -1.56134,-0.66724 -1.56134,-1.53465 0,-0.84072 0.57382,-1.548 1.56134,-1.548 z m 3.91003,-1.88161 -2.42876,0 0,0.66724 c -0.5071,-0.60052 -1.33448,-0.89411 -2.12182,-0.89411 -2.02841,0 -3.42961,1.68145 -3.42961,3.64314 0,1.96168 1.42789,3.65647 3.4563,3.65647 0.80069,0 1.64141,-0.30693 2.06844,-0.98752 l 0.0267,0 0,0.76066 2.42876,0 0,-6.84588 z"
         style="font-style:normal;font-variant:normal;font-weight:bold;font-stretch:normal;font-family:'Futura Std';-inkscape-font-specification:'Futura Std weight=760';fill:#ffffff;stroke:#000000;stroke-width:1.3571532;stroke-miterlimit:4.19999981;stroke-dasharray:none"
         id="path4534"
         inkscape:connector-curvature="0" />
      <path
         d="m 420.399,934.7295 -2.42875,0 0,6.84588 2.42875,0 0,-3.54972 c 0,-0.85407 0.28024,-1.58803 1.26776,-1.58803 1.20103,0 1.09427,1.14765 1.09427,1.80155 l 0,3.3362 2.42876,0 0,-4.2303 c 0,-1.68145 -0.73397,-2.84245 -2.57555,-2.84245 -0.94748,0 -1.62806,0.28025 -2.18855,1.10762 l -0.0267,0 0,-0.88075 z"
         style="font-style:normal;font-variant:normal;font-weight:bold;font-stretch:normal;font-family:'Futura Std';-inkscape-font-specification:'Futura Std weight=760';fill:#ffffff;stroke:#000000;stroke-width:1.3571532;stroke-miterlimit:4.19999981;stroke-dasharray:none"
         id="path4536"
         inkscape:connector-curvature="0" />
      <path
         d="m 431.931,941.57538 2.42875,0 0,-11.07618 -2.42875,0 0,4.89754 c -0.50711,-0.60052 -1.33448,-0.89411 -2.12183,-0.89411 -2.02841,0 -3.42961,1.68145 -3.42961,3.64314 0,1.96168 1.42789,3.65647 3.4563,3.65647 0.80069,0 1.64141,-0.30693 2.06845,-0.98752 l 0.0267,0 0,0.76066 z m -1.48128,-4.96427 c 0.98752,0 1.56134,0.70728 1.56134,1.548 0,0.86741 -0.57382,1.53465 -1.56134,1.53465 -0.98751,0 -1.56134,-0.66724 -1.56134,-1.53465 0,-0.84072 0.57383,-1.548 1.56134,-1.548 z"
         style="font-style:normal;font-variant:normal;font-weight:bold;font-stretch:normal;font-family:'Futura Std';-inkscape-font-specification:'Futura Std weight=760';fill:#ffffff;stroke:#000000;stroke-width:1.3571532;stroke-miterlimit:4.19999981;stroke-dasharray:none"
         id="path4538"
         inkscape:connector-curvature="0" />
      <path
         d="m 442.89229,934.7295 -2.42876,0 0,6.84588 2.42876,0 0,-6.84588 z m -1.21438,-3.9901 c -0.74731,0 -1.36117,0.61386 -1.36117,1.36117 0,0.74731 0.61386,1.36117 1.36117,1.36117 0.74731,0 1.36117,-0.61386 1.36117,-1.36117 0,-0.74731 -0.61386,-1.36117 -1.36117,-1.36117 z"
         style="font-style:normal;font-variant:normal;font-weight:bold;font-stretch:normal;font-family:'Futura Std';-inkscape-font-specification:'Futura Std weight=760';fill:#ffffff;stroke:#000000;stroke-width:1.3571532;stroke-miterlimit:4.19999981;stroke-dasharray:none"
         id="path4540"
         inkscape:connector-curvature="0" />
      <path
         d="m 447.15908,936.73122 1.37451,0 0,-2.00172 -1.37451,0 0,-2.0551 -2.42876,0 0,2.0551 -0.78734,0 0,2.00172 0.78734,0 0,4.84416 2.42876,0 0,-4.84416 z"
         style="font-style:normal;font-variant:normal;font-weight:bold;font-stretch:normal;font-family:'Futura Std';-inkscape-font-specification:'Futura Std weight=760';fill:#ffffff;stroke:#000000;stroke-width:1.3571532;stroke-miterlimit:4.19999981;stroke-dasharray:none"
         id="path4542"
         inkscape:connector-curvature="0" />
      <path
         d="m 449.82061,931.5134 0.3603,4.41713 1.548,0 0.36031,-4.41713 -2.26861,0 z"
         style="font-style:normal;font-variant:normal;font-weight:bold;font-stretch:normal;font-family:'Futura Std';-inkscape-font-specification:'Futura Std weight=760';fill:#ffffff;stroke:#000000;stroke-width:1.3571532;stroke-miterlimit:4.19999981;stroke-dasharray:none"
         id="path4544"
         inkscape:connector-curvature="0" />
      <path
         d="m 458.35218,934.94301 c -0.70727,-0.32027 -1.48127,-0.44038 -2.25527,-0.44038 -1.49462,0 -3.01592,0.74731 -3.01592,2.42876 0,1.22772 0.76065,1.60137 1.5213,1.80155 0.76066,0.20017 1.52131,0.22686 1.52131,0.76065 0,0.37365 -0.45372,0.52045 -0.76065,0.52045 -0.60052,0 -1.4279,-0.34697 -1.92165,-0.69393 l -0.88076,1.69479 c 0.82738,0.5071 1.7882,0.78734 2.76237,0.78734 1.58803,0 3.22944,-0.74731 3.22944,-2.54886 0,-1.26775 -0.85406,-1.80154 -1.98837,-2.02841 -0.33362,-0.0667 -1.09428,-0.13344 -1.09428,-0.60051 0,-0.34697 0.48042,-0.46707 0.76066,-0.46707 0.41369,0 0.93413,0.13345 1.30779,0.33362 l 0.81403,-1.548 z"
         style="font-style:normal;font-variant:normal;font-weight:bold;font-stretch:normal;font-family:'Futura Std';-inkscape-font-specification:'Futura Std weight=760';fill:#ffffff;stroke:#000000;stroke-width:1.3571532;stroke-miterlimit:4.19999981;stroke-dasharray:none"
         id="path4546"
         inkscape:connector-curvature="0" />
      <path
         d="m 467.69402,934.50263 c -2.2019,0 -4.12355,1.32114 -4.12355,3.65648 0,2.33534 1.935,3.64313 4.12355,3.64313 2.20189,0 4.12354,-1.32114 4.12354,-3.64313 0,-2.33534 -1.92165,-3.65648 -4.12354,-3.65648 z m 0,2.10848 c 0.98751,0 1.56134,0.70728 1.56134,1.548 0,0.86741 -0.57383,1.53465 -1.56134,1.53465 -0.98752,0 -1.56135,-0.66724 -1.56135,-1.53465 0,-0.84072 0.57383,-1.548 1.56135,-1.548 z"
         style="font-style:normal;font-variant:normal;font-weight:bold;font-stretch:normal;font-family:'Futura Std';-inkscape-font-specification:'Futura Std weight=760';fill:#ffffff;stroke:#000000;stroke-width:1.3571532;stroke-miterlimit:4.19999981;stroke-dasharray:none"
         id="path4548"
         inkscape:connector-curvature="0" />
      <path
         d="m 475.34204,930.4992 -2.42875,0 0,11.07618 2.42875,0 0,-2.78906 2.65562,2.78906 3.40292,0 -3.64313,-3.68317 3.42962,-3.16271 -3.32286,0 -2.52217,2.46878 0,-6.69908 z"
         style="font-style:normal;font-variant:normal;font-weight:bold;font-stretch:normal;font-family:'Futura Std';-inkscape-font-specification:'Futura Std weight=760';fill:#ffffff;stroke:#000000;stroke-width:1.3571532;stroke-miterlimit:4.19999981;stroke-dasharray:none"
         id="path4550"
         inkscape:connector-curvature="0" />
      <path
         d="m 483.58245,938.71959 c -0.86741,0 -1.56134,0.69393 -1.56134,1.56134 0,0.85407 0.69393,1.56134 1.56134,1.56134 0.86742,0 1.56135,-0.70727 1.56135,-1.56134 0,-0.86741 -0.69393,-1.56134 -1.56135,-1.56134 z"
         style="font-style:normal;font-variant:normal;font-weight:bold;font-stretch:normal;font-family:'Futura Std';-inkscape-font-specification:'Futura Std weight=760';fill:#ffffff;stroke:#000000;stroke-width:1.3571532;stroke-miterlimit:4.19999981;stroke-dasharray:none"
         id="path4552"
         inkscape:connector-curvature="0" />
    </g>
    <g
       style="color:#000000;font-style:normal;font-variant:normal;font-weight:normal;font-stretch:normal;font-size:30.21105003px;line-height:125%;font-family:'Bitstream Vera Serif';-inkscape-font-specification:'Bitstream Vera Serif';text-indent:0;text-align:center;text-decoration:none;text-decoration-line:none;text-decoration-style:solid;text-decoration-color:#000000;letter-spacing:0px;word-spacing:0px;text-transform:none;direction:ltr;block-progression:tb;writing-mode:lr-tb;baseline-shift:baseline;text-anchor:middle;white-space:normal;clip-rule:nonzero;display:inline;overflow:visible;visibility:visible;opacity:1;isolation:auto;mix-blend-mode:normal;color-interpolation:sRGB;color-interpolation-filters:linearRGB;solid-color:#000000;solid-opacity:1;fill:#ffffff;fill-opacity:1;fill-rule:nonzero;stroke:#000000;stroke-width:2.30000038;stroke-linecap:butt;stroke-linejoin:round;stroke-miterlimit:4.19999981;stroke-dasharray:none;stroke-dashoffset:0;stroke-opacity:1;color-rendering:auto;image-rendering:auto;shape-rendering:auto;text-rendering:auto;enable-background:accumulate"
       id="text4151">
      <path
         d="m 282.0994,895.31531 0,10.9364 5.92137,0 0,-10.9364 8.39867,-11.84273 -7.0996,0 -4.25975,6.19326 -4.25976,-6.19326 -7.0996,0 8.39867,11.84273 z"
         style="font-style:normal;font-variant:normal;font-weight:bold;font-stretch:normal;font-family:'Futura Std';-inkscape-font-specification:'Futura Std weight=760';fill:#ffffff;stroke:#000000;stroke-opacity:1;stroke-width:2.30000038;stroke-miterlimit:4.19999981;stroke-dasharray:none;stroke-linejoin:round"
         id="path3369" />
      <path
         d="m 309.25442,882.7173 c -6.5558,0 -12.59801,4.83377 -12.59801,11.72189 0,7.37149 5.28693,12.5678 12.59801,12.5678 7.31107,0 12.598,-5.19631 12.598,-12.5678 0,-6.88812 -6.04221,-11.72189 -12.598,-11.72189 z m 0,5.7401 c 3.53469,0 6.43495,2.87005 6.43495,6.012 0,3.92744 -2.90026,6.79749 -6.43495,6.79749 -3.5347,0 -6.43496,-2.87005 -6.43496,-6.79749 0,-3.14195 2.90026,-6.012 6.43496,-6.012 z"
         style="font-style:normal;font-variant:normal;font-weight:bold;font-stretch:normal;font-family:'Futura Std';-inkscape-font-specification:'Futura Std weight=760';fill:#ffffff;stroke:#000000;stroke-opacity:1;stroke-width:2.30000038;stroke-miterlimit:4.19999981;stroke-dasharray:none;stroke-linejoin:round"
         id="path3371" />
      <path
         d="m 338.42979,883.47258 0,11.99378 c 0,2.96069 -0.21147,6.19327 -4.01807,6.19327 -3.80659,0 -4.01807,-3.23258 -4.01807,-6.19327 l 0,-11.99378 -5.92136,0 0,12.80948 c 0,2.93047 0.12084,5.83074 2.38667,8.03614 1.9033,1.87309 4.89419,2.53773 7.55276,2.53773 2.65858,0 5.64947,-0.66464 7.55277,-2.53773 2.26582,-2.2054 2.38667,-5.10567 2.38667,-8.03614 l 0,-12.80948 -5.92137,0 z"
         style="font-style:normal;font-variant:normal;font-weight:bold;font-stretch:normal;font-family:'Futura Std';-inkscape-font-specification:'Futura Std weight=760';fill:#ffffff;stroke:#000000;stroke-opacity:1;stroke-width:2.30000038;stroke-miterlimit:4.19999981;stroke-dasharray:none;stroke-linejoin:round"
         id="path3373" />
      <path
         d="m 365.83405,883.47258 -6.16306,0 3.20237,22.77913 6.012,0 6.5558,-13.20223 0.0604,0 1.9033,13.20223 6.04221,0 10.87598,-22.77913 -6.16306,0 -6.61622,14.71278 -0.0604,0 -2.14498,-14.71278 -4.71293,0 -7.09959,14.71278 -0.0604,0 -1.63139,-14.71278 z"
         style="font-style:oblique;font-variant:normal;font-stretch:normal;font-family:'Futura Std';-inkscape-font-specification:'Futura Std weight=760 Oblique';fill:#ffffff;stroke:#000000;stroke-opacity:1;stroke-width:2.30000038;stroke-miterlimit:4.19999981;stroke-dasharray:none;stroke-linejoin:round"
         id="path3375" />
      <path
         d="m 401.73044,883.47258 -5.92136,0 -3.59512,22.77913 5.92137,0 3.59511,-22.77913 z"
         style="font-style:oblique;font-variant:normal;font-stretch:normal;font-family:'Futura Std';-inkscape-font-specification:'Futura Std weight=760 Oblique';fill:#ffffff;stroke:#000000;stroke-opacity:1;stroke-width:2.30000038;stroke-miterlimit:4.19999981;stroke-dasharray:none;stroke-linejoin:round"
         id="path3377" />
      <path
         d="m 411.52543,883.47258 -5.92137,0 -3.59511,22.77913 13.02096,0 0.78549,-5.01504 -7.0996,0 2.80963,-17.76409 z"
         style="font-style:oblique;font-variant:normal;font-stretch:normal;font-family:'Futura Std';-inkscape-font-specification:'Futura Std weight=760 Oblique';fill:#ffffff;stroke:#000000;stroke-opacity:1;stroke-width:2.30000038;stroke-miterlimit:4.19999981;stroke-dasharray:none;stroke-linejoin:round"
         id="path3379" />
      <path
         d="m 427.06361,883.47258 -5.92136,0 -3.59512,22.77913 13.02096,0 0.78549,-5.01504 -7.0996,0 2.80963,-17.76409 z"
         style="font-style:oblique;font-variant:normal;font-stretch:normal;font-family:'Futura Std';-inkscape-font-specification:'Futura Std weight=760 Oblique';fill:#ffffff;stroke:#000000;stroke-width:2.30000043;stroke-linejoin:round;stroke-miterlimit:4.19999981;stroke-dasharray:none;stroke-opacity:1"
         id="path3381"
         inkscape:connector-curvature="0" />
      <path
         d="m 442.251,906.25171 8.39868,0 c 6.31411,0 11.57083,-4.98482 11.57083,-11.38957 0,-6.40474 -5.22651,-11.38956 -11.57083,-11.38956 l -8.39868,0 0,22.77913 z m 5.92137,-17.7641 1.38971,0 c 3.80659,0 6.49537,2.29604 6.49537,6.37453 0,4.44103 -3.0211,6.37453 -6.55579,6.37453 l -1.32929,0 0,-12.74906 z"
         style="font-style:normal;font-variant:normal;font-weight:bold;font-stretch:normal;font-family:'Futura Std';-inkscape-font-specification:'Futura Std weight=760';fill:#ffffff;stroke:#000000;stroke-opacity:1;stroke-width:2.30000038;stroke-miterlimit:4.19999981;stroke-dasharray:none;stroke-linejoin:round"
         id="path3383" />
      <path
         d="m 470.88967,883.47258 -5.92137,0 0,22.77913 5.92137,0 0,-22.77913 z"
         style="font-style:normal;font-variant:normal;font-weight:bold;font-stretch:normal;font-family:'Futura Std';-inkscape-font-specification:'Futura Std weight=760';fill:#ffffff;stroke:#000000;stroke-opacity:1;stroke-width:2.30000038;stroke-miterlimit:4.19999981;stroke-dasharray:none;stroke-linejoin:round"
         id="path3385" />
      <path
         d="m 487.72383,888.48761 0,-5.01503 -12.96054,0 0,22.77913 12.96054,0 0,-5.01504 -7.03918,0 0,-3.92743 6.67664,0 0,-5.01504 -6.67664,0 0,-3.80659 7.03918,0 z"
         style="font-style:normal;font-variant:normal;font-weight:bold;font-stretch:normal;font-family:'Futura Std';-inkscape-font-specification:'Futura Std weight=760';fill:#ffffff;stroke:#000000;stroke-opacity:1;stroke-width:2.30000038;stroke-miterlimit:4.19999981;stroke-dasharray:none;stroke-linejoin:round"
         id="path3387" />
      <path
         d="m 515.74553,902.29406 1.48034,3.95765 6.31411,0 -8.57994,-22.77913 -6.46517,0 -8.7612,22.77913 6.2839,0 1.57097,-3.95765 8.15699,0 z m -1.60119,-4.53166 -4.9244,0 2.44709,-7.25065 0.0604,0 2.41688,7.25065 z"
         style="font-style:normal;font-variant:normal;font-weight:bold;font-stretch:normal;font-family:'Futura Std';-inkscape-font-specification:'Futura Std weight=760';fill:#ffffff;stroke:#000000;stroke-opacity:1;stroke-width:2.30000038;stroke-miterlimit:4.19999981;stroke-dasharray:none;stroke-linejoin:round"
         id="path3389" />
      <path
         d="m 531.31177,883.47258 -5.92136,0 0,22.77913 13.02096,0 0,-5.01504 -7.0996,0 0,-17.76409 z"
         style="font-style:normal;font-variant:normal;font-weight:bold;font-stretch:normal;font-family:'Futura Std';-inkscape-font-specification:'Futura Std weight=760';fill:#ffffff;stroke:#000000;stroke-opacity:1;stroke-width:2.30000038;stroke-miterlimit:4.19999981;stroke-dasharray:none;stroke-linejoin:round"
         id="path3391" />
      <path
         d="m 551.76889,882.7173 c -6.55579,0 -12.598,4.83377 -12.598,11.72189 0,7.37149 5.28693,12.5678 12.598,12.5678 7.31108,0 12.59801,-5.19631 12.59801,-12.5678 0,-6.88812 -6.04221,-11.72189 -12.59801,-11.72189 z m 0,5.7401 c 3.5347,0 6.43496,2.87005 6.43496,6.012 0,3.92744 -2.90026,6.79749 -6.43496,6.79749 -3.53469,0 -6.43495,-2.87005 -6.43495,-6.79749 0,-3.14195 2.90026,-6.012 6.43495,-6.012 z"
         style="font-style:normal;font-variant:normal;font-weight:bold;font-stretch:normal;font-family:'Futura Std';-inkscape-font-specification:'Futura Std weight=760';fill:#ffffff;stroke:#000000;stroke-opacity:1;stroke-width:2.30000038;stroke-miterlimit:4.19999981;stroke-dasharray:none;stroke-linejoin:round"
         id="path3393" />
      <path
         d="m 567.1076,906.25171 5.92137,0 0,-13.95751 0.0604,0 10.84577,13.95751 5.92136,0 0,-22.77913 -5.92136,0 0,13.92729 -0.0604,0 -10.84576,-13.92729 -5.92137,0 0,22.77913 z"
         style="font-style:normal;font-variant:normal;font-weight:bold;font-stretch:normal;font-family:'Futura Std';-inkscape-font-specification:'Futura Std weight=760';fill:#ffffff;stroke:#000000;stroke-opacity:1;stroke-width:2.30000038;stroke-miterlimit:4.19999981;stroke-dasharray:none;stroke-linejoin:round"
         id="path3395" />
      <path
         d="m 606.67984,888.48761 0,-5.01503 -12.96054,0 0,22.77913 12.96054,0 0,-5.01504 -7.03918,0 0,-3.92743 6.67664,0 0,-5.01504 -6.67664,0 0,-3.80659 7.03918,0 z"
         style="font-style:normal;font-variant:normal;font-weight:bold;font-stretch:normal;font-family:'Futura Std';-inkscape-font-specification:'Futura Std weight=760';fill:#ffffff;stroke:#000000;stroke-opacity:1;stroke-width:2.30000038;stroke-miterlimit:4.19999981;stroke-dasharray:none;stroke-linejoin:round"
         id="path3397" />
    </g>
    <g
       id="g4201"
       style="color:#000000;font-style:normal;font-variant:normal;font-weight:normal;font-stretch:normal;font-size:30.21105003px;line-height:125%;font-family:'Bitstream Vera Serif';-inkscape-font-specification:'Bitstream Vera Serif';text-indent:0;text-align:center;text-decoration:none;text-decoration-line:none;text-decoration-style:solid;text-decoration-color:#000000;letter-spacing:0px;word-spacing:0px;text-transform:none;direction:ltr;block-progression:tb;writing-mode:lr-tb;baseline-shift:baseline;text-anchor:middle;white-space:normal;clip-rule:nonzero;display:inline;overflow:visible;visibility:visible;opacity:1;isolation:auto;mix-blend-mode:normal;color-interpolation:sRGB;color-interpolation-filters:linearRGB;solid-color:#000000;solid-opacity:1;fill:#ffffff;fill-opacity:1;fill-rule:nonzero;stroke:none;stroke-width:1px;stroke-linecap:butt;stroke-linejoin:miter;stroke-miterlimit:4;stroke-dasharray:none;stroke-dashoffset:0;stroke-opacity:1;color-rendering:auto;image-rendering:auto;shape-rendering:auto;text-rendering:auto;enable-background:accumulate">
      <path
         inkscape:connector-curvature="0"
         id="path4203"
         style="font-style:normal;font-variant:normal;font-weight:bold;font-stretch:normal;font-family:'Futura Std';-inkscape-font-specification:'Futura Std weight=760';fill:#ffffff;stroke:none;stroke-opacity:1"
         d="m 282.0994,895.31531 0,10.9364 5.92137,0 0,-10.9364 8.39867,-11.84273 -7.0996,0 -4.25975,6.19326 -4.25976,-6.19326 -7.0996,0 8.39867,11.84273 z" />
      <path
         inkscape:connector-curvature="0"
         id="path4205"
         style="font-style:normal;font-variant:normal;font-weight:bold;font-stretch:normal;font-family:'Futura Std';-inkscape-font-specification:'Futura Std weight=760';fill:#ffffff;stroke:none;stroke-opacity:1"
         d="m 309.25442,882.7173 c -6.5558,0 -12.59801,4.83377 -12.59801,11.72189 0,7.37149 5.28693,12.5678 12.59801,12.5678 7.31107,0 12.598,-5.19631 12.598,-12.5678 0,-6.88812 -6.04221,-11.72189 -12.598,-11.72189 z m 0,5.7401 c 3.53469,0 6.43495,2.87005 6.43495,6.012 0,3.92744 -2.90026,6.79749 -6.43495,6.79749 -3.5347,0 -6.43496,-2.87005 -6.43496,-6.79749 0,-3.14195 2.90026,-6.012 6.43496,-6.012 z" />
      <path
         inkscape:connector-curvature="0"
         id="path4207"
         style="font-style:normal;font-variant:normal;font-weight:bold;font-stretch:normal;font-family:'Futura Std';-inkscape-font-specification:'Futura Std weight=760';fill:#ffffff;stroke:none;stroke-opacity:1"
         d="m 338.42979,883.47258 0,11.99378 c 0,2.96069 -0.21147,6.19327 -4.01807,6.19327 -3.80659,0 -4.01807,-3.23258 -4.01807,-6.19327 l 0,-11.99378 -5.92136,0 0,12.80948 c 0,2.93047 0.12084,5.83074 2.38667,8.03614 1.9033,1.87309 4.89419,2.53773 7.55276,2.53773 2.65858,0 5.64947,-0.66464 7.55277,-2.53773 2.26582,-2.2054 2.38667,-5.10567 2.38667,-8.03614 l 0,-12.80948 -5.92137,0 z" />
      <path
         inkscape:connector-curvature="0"
         id="path4209"
         style="font-style:oblique;font-variant:normal;font-stretch:normal;font-family:'Futura Std';-inkscape-font-specification:'Futura Std weight=760 Oblique';fill:#ffffff;stroke:none;stroke-opacity:1"
         d="m 365.83405,883.47258 -6.16306,0 3.20237,22.77913 6.012,0 6.5558,-13.20223 0.0604,0 1.9033,13.20223 6.04221,0 10.87598,-22.77913 -6.16306,0 -6.61622,14.71278 -0.0604,0 -2.14498,-14.71278 -4.71293,0 -7.09959,14.71278 -0.0604,0 -1.63139,-14.71278 z" />
      <path
         inkscape:connector-curvature="0"
         id="path4211"
         style="font-style:oblique;font-variant:normal;font-stretch:normal;font-family:'Futura Std';-inkscape-font-specification:'Futura Std weight=760 Oblique';fill:#ffffff;stroke:none;stroke-opacity:1"
         d="m 401.73044,883.47258 -5.92136,0 -3.59512,22.77913 5.92137,0 3.59511,-22.77913 z" />
      <path
         inkscape:connector-curvature="0"
         id="path4213"
         style="font-style:oblique;font-variant:normal;font-stretch:normal;font-family:'Futura Std';-inkscape-font-specification:'Futura Std weight=760 Oblique';fill:#ffffff;stroke:none;stroke-opacity:1"
         d="m 411.52543,883.47258 -5.92137,0 -3.59511,22.77913 13.02096,0 0.78549,-5.01504 -7.0996,0 2.80963,-17.76409 z" />
      <path
         inkscape:connector-curvature="0"
         id="path4215"
         style="font-style:oblique;font-variant:normal;font-stretch:normal;font-family:'Futura Std';-inkscape-font-specification:'Futura Std weight=760 Oblique';fill:#ffffff;stroke:none;stroke-opacity:1"
         d="m 427.06361,883.47258 -5.92136,0 -3.59512,22.77913 13.02096,0 0.78549,-5.01504 -7.0996,0 2.80963,-17.76409 z" />
      <path
         inkscape:connector-curvature="0"
         id="path4217"
         style="font-style:normal;font-variant:normal;font-weight:bold;font-stretch:normal;font-family:'Futura Std';-inkscape-font-specification:'Futura Std weight=760';fill:#ffffff;stroke:none;stroke-opacity:1"
         d="m 442.251,906.25171 8.39868,0 c 6.31411,0 11.57083,-4.98482 11.57083,-11.38957 0,-6.40474 -5.22651,-11.38956 -11.57083,-11.38956 l -8.39868,0 0,22.77913 z m 5.92137,-17.7641 1.38971,0 c 3.80659,0 6.49537,2.29604 6.49537,6.37453 0,4.44103 -3.0211,6.37453 -6.55579,6.37453 l -1.32929,0 0,-12.74906 z" />
      <path
         inkscape:connector-curvature="0"
         id="path4219"
         style="font-style:normal;font-variant:normal;font-weight:bold;font-stretch:normal;font-family:'Futura Std';-inkscape-font-specification:'Futura Std weight=760';fill:#ffffff;stroke:none;stroke-opacity:1"
         d="m 470.88967,883.47258 -5.92137,0 0,22.77913 5.92137,0 0,-22.77913 z" />
      <path
         inkscape:connector-curvature="0"
         id="path4221"
         style="font-style:normal;font-variant:normal;font-weight:bold;font-stretch:normal;font-family:'Futura Std';-inkscape-font-specification:'Futura Std weight=760';fill:#ffffff;stroke:none;stroke-opacity:1"
         d="m 487.72383,888.48761 0,-5.01503 -12.96054,0 0,22.77913 12.96054,0 0,-5.01504 -7.03918,0 0,-3.92743 6.67664,0 0,-5.01504 -6.67664,0 0,-3.80659 7.03918,0 z" />
      <path
         inkscape:connector-curvature="0"
         id="path4223"
         style="font-style:normal;font-variant:normal;font-weight:bold;font-stretch:normal;font-family:'Futura Std';-inkscape-font-specification:'Futura Std weight=760';fill:#ffffff;stroke:none;stroke-opacity:1"
         d="m 515.74553,902.29406 1.48034,3.95765 6.31411,0 -8.57994,-22.77913 -6.46517,0 -8.7612,22.77913 6.2839,0 1.57097,-3.95765 8.15699,0 z m -1.60119,-4.53166 -4.9244,0 2.44709,-7.25065 0.0604,0 2.41688,7.25065 z" />
      <path
         inkscape:connector-curvature="0"
         id="path4225"
         style="font-style:normal;font-variant:normal;font-weight:bold;font-stretch:normal;font-family:'Futura Std';-inkscape-font-specification:'Futura Std weight=760';fill:#ffffff;stroke:none;stroke-opacity:1"
         d="m 531.31177,883.47258 -5.92136,0 0,22.77913 13.02096,0 0,-5.01504 -7.0996,0 0,-17.76409 z" />
      <path
         inkscape:connector-curvature="0"
         id="path4227"
         style="font-style:normal;font-variant:normal;font-weight:bold;font-stretch:normal;font-family:'Futura Std';-inkscape-font-specification:'Futura Std weight=760';fill:#ffffff;stroke:none;stroke-opacity:1"
         d="m 551.76889,882.7173 c -6.55579,0 -12.598,4.83377 -12.598,11.72189 0,7.37149 5.28693,12.5678 12.598,12.5678 7.31108,0 12.59801,-5.19631 12.59801,-12.5678 0,-6.88812 -6.04221,-11.72189 -12.59801,-11.72189 z m 0,5.7401 c 3.5347,0 6.43496,2.87005 6.43496,6.012 0,3.92744 -2.90026,6.79749 -6.43496,6.79749 -3.53469,0 -6.43495,-2.87005 -6.43495,-6.79749 0,-3.14195 2.90026,-6.012 6.43495,-6.012 z" />
      <path
         inkscape:connector-curvature="0"
         id="path4229"
         style="font-style:normal;font-variant:normal;font-weight:bold;font-stretch:normal;font-family:'Futura Std';-inkscape-font-specification:'Futura Std weight=760';fill:#ffffff;stroke:none;stroke-opacity:1"
         d="m 567.1076,906.25171 5.92137,0 0,-13.95751 0.0604,0 10.84577,13.95751 5.92136,0 0,-22.77913 -5.92136,0 0,13.92729 -0.0604,0 -10.84576,-13.92729 -5.92137,0 0,22.77913 z" />
      <path
         inkscape:connector-curvature="0"
         id="path4231"
         style="font-style:normal;font-variant:normal;font-weight:bold;font-stretch:normal;font-family:'Futura Std';-inkscape-font-specification:'Futura Std weight=760';fill:#ffffff;stroke:none;stroke-opacity:1"
         d="m 606.67984,888.48761 0,-5.01503 -12.96054,0 0,22.77913 12.96054,0 0,-5.01504 -7.03918,0 0,-3.92743 6.67664,0 0,-5.01504 -6.67664,0 0,-3.80659 7.03918,0 z" />
    </g>
    <g
       transform="matrix(1.24193,0,0,1.2634064,-108.0851,-246.59337)"
       id="g4598"
       style="color:#000000;font-style:normal;font-variant:normal;font-weight:normal;font-stretch:normal;font-size:13.34479904px;line-height:125%;font-family:'Bitstream Vera Serif';-inkscape-font-specification:'Bitstream Vera Serif';text-indent:0;text-align:center;text-decoration:none;text-decoration-line:none;text-decoration-style:solid;text-decoration-color:#000000;letter-spacing:0px;word-spacing:0px;text-transform:none;direction:ltr;block-progression:tb;writing-mode:lr-tb;baseline-shift:baseline;text-anchor:middle;white-space:normal;clip-rule:nonzero;display:inline;overflow:visible;visibility:visible;opacity:1;isolation:auto;mix-blend-mode:normal;color-interpolation:sRGB;color-interpolation-filters:linearRGB;solid-color:#000000;solid-opacity:1;fill:#ffffff;fill-opacity:1;fill-rule:nonzero;stroke:none;stroke-width:1.3571532;stroke-linecap:butt;stroke-linejoin:miter;stroke-miterlimit:4.19999981;stroke-dasharray:none;stroke-dashoffset:0;stroke-opacity:1;color-rendering:auto;image-rendering:auto;shape-rendering:auto;text-rendering:auto;enable-background:accumulate">
      <path
         inkscape:connector-curvature="0"
         id="path4600"
         style="font-style:normal;font-variant:normal;font-weight:bold;font-stretch:normal;font-family:'Futura Std';-inkscape-font-specification:'Futura Std weight=760';fill:#ffffff;stroke:none;stroke-width:1.3571532;stroke-miterlimit:4.19999981;stroke-dasharray:none"
         d="m 412.4503,936.61111 c 0.98751,0 1.56134,0.70728 1.56134,1.548 0,0.86741 -0.57383,1.53465 -1.56134,1.53465 -0.98752,0 -1.56134,-0.66724 -1.56134,-1.53465 0,-0.84072 0.57382,-1.548 1.56134,-1.548 z m 3.91003,-1.88161 -2.42876,0 0,0.66724 c -0.5071,-0.60052 -1.33448,-0.89411 -2.12182,-0.89411 -2.02841,0 -3.42961,1.68145 -3.42961,3.64314 0,1.96168 1.42789,3.65647 3.4563,3.65647 0.80069,0 1.64141,-0.30693 2.06844,-0.98752 l 0.0267,0 0,0.76066 2.42876,0 0,-6.84588 z" />
      <path
         inkscape:connector-curvature="0"
         id="path4602"
         style="font-style:normal;font-variant:normal;font-weight:bold;font-stretch:normal;font-family:'Futura Std';-inkscape-font-specification:'Futura Std weight=760';fill:#ffffff;stroke:none;stroke-width:1.3571532;stroke-miterlimit:4.19999981;stroke-dasharray:none"
         d="m 420.399,934.7295 -2.42875,0 0,6.84588 2.42875,0 0,-3.54972 c 0,-0.85407 0.28024,-1.58803 1.26776,-1.58803 1.20103,0 1.09427,1.14765 1.09427,1.80155 l 0,3.3362 2.42876,0 0,-4.2303 c 0,-1.68145 -0.73397,-2.84245 -2.57555,-2.84245 -0.94748,0 -1.62806,0.28025 -2.18855,1.10762 l -0.0267,0 0,-0.88075 z" />
      <path
         inkscape:connector-curvature="0"
         id="path4604"
         style="font-style:normal;font-variant:normal;font-weight:bold;font-stretch:normal;font-family:'Futura Std';-inkscape-font-specification:'Futura Std weight=760';fill:#ffffff;stroke:none;stroke-width:1.3571532;stroke-miterlimit:4.19999981;stroke-dasharray:none"
         d="m 431.931,941.57538 2.42875,0 0,-11.07618 -2.42875,0 0,4.89754 c -0.50711,-0.60052 -1.33448,-0.89411 -2.12183,-0.89411 -2.02841,0 -3.42961,1.68145 -3.42961,3.64314 0,1.96168 1.42789,3.65647 3.4563,3.65647 0.80069,0 1.64141,-0.30693 2.06845,-0.98752 l 0.0267,0 0,0.76066 z m -1.48128,-4.96427 c 0.98752,0 1.56134,0.70728 1.56134,1.548 0,0.86741 -0.57382,1.53465 -1.56134,1.53465 -0.98751,0 -1.56134,-0.66724 -1.56134,-1.53465 0,-0.84072 0.57383,-1.548 1.56134,-1.548 z" />
      <path
         inkscape:connector-curvature="0"
         id="path4606"
         style="font-style:normal;font-variant:normal;font-weight:bold;font-stretch:normal;font-family:'Futura Std';-inkscape-font-specification:'Futura Std weight=760';fill:#ffffff;stroke:none;stroke-width:1.3571532;stroke-miterlimit:4.19999981;stroke-dasharray:none"
         d="m 442.89229,934.7295 -2.42876,0 0,6.84588 2.42876,0 0,-6.84588 z m -1.21438,-3.9901 c -0.74731,0 -1.36117,0.61386 -1.36117,1.36117 0,0.74731 0.61386,1.36117 1.36117,1.36117 0.74731,0 1.36117,-0.61386 1.36117,-1.36117 0,-0.74731 -0.61386,-1.36117 -1.36117,-1.36117 z" />
      <path
         inkscape:connector-curvature="0"
         id="path4608"
         style="font-style:normal;font-variant:normal;font-weight:bold;font-stretch:normal;font-family:'Futura Std';-inkscape-font-specification:'Futura Std weight=760';fill:#ffffff;stroke:none;stroke-width:1.3571532;stroke-miterlimit:4.19999981;stroke-dasharray:none"
         d="m 447.15908,936.73122 1.37451,0 0,-2.00172 -1.37451,0 0,-2.0551 -2.42876,0 0,2.0551 -0.78734,0 0,2.00172 0.78734,0 0,4.84416 2.42876,0 0,-4.84416 z" />
      <path
         inkscape:connector-curvature="0"
         id="path4610"
         style="font-style:normal;font-variant:normal;font-weight:bold;font-stretch:normal;font-family:'Futura Std';-inkscape-font-specification:'Futura Std weight=760';fill:#ffffff;stroke:none;stroke-width:1.3571532;stroke-miterlimit:4.19999981;stroke-dasharray:none"
         d="m 449.82061,931.5134 0.3603,4.41713 1.548,0 0.36031,-4.41713 -2.26861,0 z" />
      <path
         inkscape:connector-curvature="0"
         id="path4612"
         style="font-style:normal;font-variant:normal;font-weight:bold;font-stretch:normal;font-family:'Futura Std';-inkscape-font-specification:'Futura Std weight=760';fill:#ffffff;stroke:none;stroke-width:1.3571532;stroke-miterlimit:4.19999981;stroke-dasharray:none"
         d="m 458.35218,934.94301 c -0.70727,-0.32027 -1.48127,-0.44038 -2.25527,-0.44038 -1.49462,0 -3.01592,0.74731 -3.01592,2.42876 0,1.22772 0.76065,1.60137 1.5213,1.80155 0.76066,0.20017 1.52131,0.22686 1.52131,0.76065 0,0.37365 -0.45372,0.52045 -0.76065,0.52045 -0.60052,0 -1.4279,-0.34697 -1.92165,-0.69393 l -0.88076,1.69479 c 0.82738,0.5071 1.7882,0.78734 2.76237,0.78734 1.58803,0 3.22944,-0.74731 3.22944,-2.54886 0,-1.26775 -0.85406,-1.80154 -1.98837,-2.02841 -0.33362,-0.0667 -1.09428,-0.13344 -1.09428,-0.60051 0,-0.34697 0.48042,-0.46707 0.76066,-0.46707 0.41369,0 0.93413,0.13345 1.30779,0.33362 l 0.81403,-1.548 z" />
      <path
         inkscape:connector-curvature="0"
         id="path4614"
         style="font-style:normal;font-variant:normal;font-weight:bold;font-stretch:normal;font-family:'Futura Std';-inkscape-font-specification:'Futura Std weight=760';fill:#ffffff;stroke:none;stroke-width:1.3571532;stroke-miterlimit:4.19999981;stroke-dasharray:none"
         d="m 467.69402,934.50263 c -2.2019,0 -4.12355,1.32114 -4.12355,3.65648 0,2.33534 1.935,3.64313 4.12355,3.64313 2.20189,0 4.12354,-1.32114 4.12354,-3.64313 0,-2.33534 -1.92165,-3.65648 -4.12354,-3.65648 z m 0,2.10848 c 0.98751,0 1.56134,0.70728 1.56134,1.548 0,0.86741 -0.57383,1.53465 -1.56134,1.53465 -0.98752,0 -1.56135,-0.66724 -1.56135,-1.53465 0,-0.84072 0.57383,-1.548 1.56135,-1.548 z" />
      <path
         inkscape:connector-curvature="0"
         id="path4616"
         style="font-style:normal;font-variant:normal;font-weight:bold;font-stretch:normal;font-family:'Futura Std';-inkscape-font-specification:'Futura Std weight=760';fill:#ffffff;stroke:none;stroke-width:1.3571532;stroke-miterlimit:4.19999981;stroke-dasharray:none"
         d="m 475.34204,930.4992 -2.42875,0 0,11.07618 2.42875,0 0,-2.78906 2.65562,2.78906 3.40292,0 -3.64313,-3.68317 3.42962,-3.16271 -3.32286,0 -2.52217,2.46878 0,-6.69908 z" />
      <path
         inkscape:connector-curvature="0"
         id="path4618"
         style="font-style:normal;font-variant:normal;font-weight:bold;font-stretch:normal;font-family:'Futura Std';-inkscape-font-specification:'Futura Std weight=760';fill:#ffffff;stroke:none;stroke-width:1.3571532;stroke-miterlimit:4.19999981;stroke-dasharray:none"
         d="m 483.58245,938.71959 c -0.86741,0 -1.56134,0.69393 -1.56134,1.56134 0,0.85407 0.69393,1.56134 1.56134,1.56134 0.86742,0 1.56135,-0.70727 1.56135,-1.56134 0,-0.86741 -0.69393,-1.56134 -1.56135,-1.56134 z" />
    </g>
  </g>
</svg>
