<?xml version="1.0" encoding="UTF-8" standalone="no"?>
<!-- Created with Inkscape (http://www.inkscape.org/) -->

<svg
   xmlns:dc="http://purl.org/dc/elements/1.1/"
   xmlns:cc="http://creativecommons.org/ns#"
   xmlns:rdf="http://www.w3.org/1999/02/22-rdf-syntax-ns#"
   xmlns:svg="http://www.w3.org/2000/svg"
   xmlns="http://www.w3.org/2000/svg"
   xmlns:sodipodi="http://sodipodi.sourceforge.net/DTD/sodipodi-0.dtd"
   xmlns:inkscape="http://www.inkscape.org/namespaces/inkscape"
   width="210mm"
   height="297mm"
   viewBox="0 0 744.09448819 1052.3622047"
   id="svg4451"
   version="1.1"
   inkscape:version="0.91 r13725"
   sodipodi:docname="logo.svg">
  <defs
     id="defs4453" />
  <sodipodi:namedview
     id="base"
     pagecolor="#ffffff"
     bordercolor="#666666"
     borderopacity="1.0"
     inkscape:pageopacity="0.0"
     inkscape:pageshadow="2"
     inkscape:zoom="0.7"
     inkscape:cx="334.14439"
     inkscape:cy="625.8079"
     inkscape:document-units="px"
     inkscape:current-layer="layer1"
     showgrid="false"
     inkscape:window-width="1920"
     inkscape:window-height="1037"
     inkscape:window-x="0"
     inkscape:window-y="20"
     inkscape:window-maximized="0" />
  <metadata
     id="metadata4456">
    <rdf:RDF>
      <cc:Work
         rdf:about="">
        <dc:format>image/svg+xml</dc:format>
        <dc:type
           rdf:resource="http://purl.org/dc/dcmitype/StillImage" />
        <dc:title></dc:title>
      </cc:Work>
    </rdf:RDF>
  </metadata>
  <g
     inkscape:label="Layer 1"
     inkscape:groupmode="layer"
     id="layer1">
    <g
       transform="matrix(1.25,0,0,-1.25,-176.42594,858.09764)"
       id="g4376">
      <g
         transform="translate(374.7051,281.458)"
         id="g96">
        <path
           inkscape:connector-curvature="0"
           id="path98"
           style="fill:#231f20;fill-opacity:1;fill-rule:nonzero;stroke:none"
           d="m 0,0 c 0.283,0 1.133,-0.057 1.133,0.368 0,0.426 -0.821,1.901 -1.049,2.297 -0.255,0.453 -0.736,1.502 -1.36,1.502 -0.681,0 -1.162,-1.7 -1.277,-2.012 C -2.666,1.843 -3.147,0.737 -3.147,0.397 -3.147,-0.085 -2.438,0 -2.127,0 L 0,0 Z m -5.954,2.042 c 0.879,1.955 2.041,4.45 2.041,6.689 0,1.957 0.907,3.432 3.431,3.432 2.466,0 4.025,-2.523 5.13,-4.394 0.483,-0.823 4.764,-9.498 5.785,-11.823 0.935,-2.155 2.465,-0.851 2.465,-2.467 0,-2.07 -4.025,-1.984 -5.443,-1.984 -4.054,0 -6.492,0.027 -6.492,1.785 0,1.362 1.73,0.852 1.73,1.844 0,1.275 -0.709,1.389 -5.273,1.389 -1.475,0 -2.354,-0.057 -2.354,-1.446 0,-1.105 1.815,-0.369 1.815,-1.843 0,-1.702 -3.063,-1.729 -4.195,-1.729 -4.055,0 -4.424,0.766 -4.424,1.672 0,1.333 1.531,0.936 2.353,1.957 0.624,0.766 1.219,2.126 1.645,3.033 l 1.786,3.885 z" />
      </g>
      <g
         transform="translate(388.9629,295.2441)"
         id="g100">
        <path
           inkscape:connector-curvature="0"
           id="path102"
           style="fill:#231f20;fill-opacity:1;fill-rule:nonzero;stroke:none"
           d="m 0,0 6.86,0 c 3.289,0 5.33,-0.596 6.494,-1.502 1.756,-1.361 2.55,-3.432 2.55,-5.727 0,-1.617 -0.453,-2.864 -1.049,-3.799 -0.709,-1.106 -1.729,-1.815 -2.721,-2.24 l 4.338,-7.711 -5.529,0 -5.472,10.121 0.879,0 c 1.361,0 2.523,0.114 3.232,0.567 0.652,0.425 1.191,1.418 1.191,2.58 0,1.106 -0.539,1.984 -1.248,2.438 -0.595,0.369 -1.445,0.567 -2.183,0.567 l -1.985,0 0,-16.273 -5.357,0 L 0,0 Z" />
      </g>
      <g
         transform="translate(406.083,282.8604)"
         id="g104">
        <path
           inkscape:connector-curvature="0"
           id="path106"
           style="fill:#231f20;fill-opacity:1;fill-rule:nonzero;stroke:none"
           d="m 0,0 0,7.2 18.825,0 0,-7.2 -2.637,0 c 0,2.892 -0.85,4.706 -4.11,4.706 l 0,-12.673 c 0,-0.709 0.397,-1.134 1.106,-1.134 l 1.701,0 0,-2.495 -11,0 0,2.495 1.758,0 c 0.709,0 1.105,0.425 1.105,1.134 l 0,12.673 C 3.487,4.706 2.637,2.892 2.637,0 L 0,0 Z" />
      </g>
      <g
         transform="translate(425.9561,278.8857)"
         id="g108">
        <path
           inkscape:connector-curvature="0"
           id="path110"
           style="fill:#231f20;fill-opacity:1;fill-rule:nonzero;stroke:none"
           d="m 0,0 1.786,0 0,10.008 -1.786,0 0,4.621 11.028,0 0,-4.621 -1.785,0 0,-10.008 1.785,0 0,-4.621 L 0,-4.621 0,0 Z" />
      </g>
      <g
         transform="translate(460.1172,283.1172)"
         id="g112">
        <path
           inkscape:connector-curvature="0"
           id="path114"
           style="fill:#231f20;fill-opacity:1;fill-rule:nonzero;stroke:none"
           d="m 0,0 c -1.219,-4.961 -5.527,-8.25 -10.603,-8.25 -6.577,0 -11.057,5.246 -11.057,10.916 0,5.357 4.139,10.857 11.001,10.857 6.577,0 10.093,-5.074 10.659,-8.363 l -5.613,0 c -0.596,1.56 -2.183,3.658 -5.075,3.658 -3.6,0 -5.613,-3.147 -5.613,-6.125 0,-3.174 2.155,-6.236 5.642,-6.236 3.345,0 4.706,2.807 5.046,3.543 L 0,0 Z" />
      </g>
      <g
         transform="translate(463.6016,271.2646)"
         id="g116">
        <path
           inkscape:connector-curvature="0"
           id="path118"
           style="fill:#231f20;fill-opacity:1;fill-rule:nonzero;stroke:none"
           d="m 0,0 c -0.906,0 -2.353,-0.057 -2.353,1.247 0,1.758 2.212,0.283 2.296,3.572 C 0,6.89 0,8.704 0,10.376 c 0,1.701 -0.141,3.289 -0.198,4.877 -0.057,2.381 -2.552,1.134 -2.552,2.75 0,2.069 4.451,2.183 5.841,2.183 5.67,0 5.954,-0.964 5.954,-1.928 0,-1.644 -2.24,-0.398 -2.24,-3.062 l 0,-9.015 c 0,-2.041 0.34,-3.034 2.353,-3.034 4.82,0 3.175,3.941 4.989,3.941 1.277,0 1.758,-1.36 1.758,-2.439 0,-2.211 -1.588,-5.046 -2.891,-5.046 -0.511,0 -0.908,0.113 -1.418,0.199 C 11.057,-0.085 10.434,0 9.47,0 L 0,0 Z" />
      </g>
      <g
         transform="translate(480.668,295.2441)"
         id="g120">
        <path
           inkscape:connector-curvature="0"
           id="path122"
           style="fill:#231f20;fill-opacity:1;fill-rule:nonzero;stroke:none"
           d="m 0,0 11.879,0 0,-4.706 -6.522,0 0,-3.261 6.323,0 0,-4.706 -6.323,0 0,-3.6 6.522,0 0,-4.706 L 0,-20.979 0,0 Z" />
      </g>
      <g
         transform="translate(510.3779,283.3418)"
         id="g124">
        <path
           inkscape:connector-curvature="0"
           id="path126"
           style="fill:#231f20;fill-opacity:1;fill-rule:nonzero;stroke:none"
           d="m 0,0 -2.608,0 c -0.426,2.977 -3.063,4.65 -5.557,4.65 -1.645,0 -3.176,-0.539 -3.176,-2.438 0,-3.572 12.277,-0.709 12.277,-8.789 0,-4.536 -3.914,-6.068 -7.826,-6.068 -2.182,0 -4.394,0.455 -6.179,1.758 l -0.739,-1.502 -2.38,0 0,7.428 2.636,0 c 0.369,-2.976 2.835,-5.047 6.181,-5.047 1.474,0 3.261,0.822 3.261,2.439 0,4.053 -12.277,0.765 -12.277,8.902 0,4.678 4.224,5.954 8.137,5.954 1.928,0 3.771,-0.625 5.387,-1.644 L -2.353,6.975 0,6.975 0,0 Z" />
      </g>
      <g
         transform="translate(355.5469,255.3408)"
         id="g128">
        <path
           inkscape:connector-curvature="0"
           id="path130"
           style="fill:#231f20;fill-opacity:1;fill-rule:nonzero;stroke:none"
           d="m 0,0 c 0,-3.204 2.182,-6.209 5.783,-6.209 3.799,0 5.641,3.459 5.641,6.152 0,2.721 -1.842,6.209 -5.697,6.209 C 2.012,6.152 0,2.977 0,0.027 L 0,0 Z m -5.359,-0.256 c 0,6.861 5.273,11.113 11.056,11.113 6.465,0 11.086,-5.045 11.086,-10.886 0,-5.84 -4.594,-10.886 -11.113,-10.886 -6.606,0 -11.029,5.244 -11.029,10.632 l 0,0.027 z" />
      </g>
      <g
         transform="translate(373.5176,248.4434)"
         id="g132">
        <path
           inkscape:connector-curvature="0"
           id="path134"
           style="fill:#231f20;fill-opacity:1;fill-rule:nonzero;stroke:none"
           d="m 0,0 2.041,0 0,10.008 -2.098,0 0,4.621 18.967,0 0,-6.351 -5.047,0 0,1.73 -4.365,0 0,-3.005 3.289,0 0,-3.912 -3.289,0 0,-3.091 2.211,0 0,-4.621 L 0,-4.621 0,0 Z" />
      </g>
      <g
         transform="translate(410.2715,254.0156)"
         id="g136">
        <path
           inkscape:connector-curvature="0"
           id="path138"
           style="fill:#231f20;fill-opacity:1;fill-rule:nonzero;stroke:none"
           d="m 0,0 c 0.283,0 1.133,-0.057 1.133,0.368 0,0.426 -0.822,1.901 -1.049,2.297 -0.256,0.453 -0.736,1.502 -1.361,1.502 -0.68,0 -1.162,-1.7 -1.276,-2.012 C -2.666,1.843 -3.148,0.737 -3.148,0.397 -3.148,-0.085 -2.439,0 -2.127,0 L 0,0 Z m -5.955,2.042 c 0.879,1.955 2.041,4.45 2.041,6.689 0,1.957 0.908,3.432 3.432,3.432 2.466,0 4.025,-2.523 5.13,-4.394 0.483,-0.823 4.764,-9.498 5.784,-11.823 0.935,-2.155 2.466,-0.85 2.466,-2.467 0,-2.069 -4.025,-1.984 -5.443,-1.984 -4.055,0 -6.492,0.028 -6.492,1.786 0,1.361 1.73,0.851 1.73,1.843 0,1.275 -0.709,1.389 -5.273,1.389 -1.475,0 -2.354,-0.057 -2.354,-1.446 0,-1.106 1.815,-0.369 1.815,-1.842 0,-1.702 -3.063,-1.73 -4.195,-1.73 -4.055,0 -4.424,0.766 -4.424,1.672 0,1.333 1.531,0.937 2.353,1.957 0.623,0.766 1.219,2.126 1.645,3.033 l 1.785,3.885 z" />
      </g>
      <g
         transform="translate(429.8867,254.1064)"
         id="g140">
        <path
           inkscape:connector-curvature="0"
           id="path142"
           style="fill:#231f20;fill-opacity:1;fill-rule:nonzero;stroke:none"
           d="m 0,0 1.957,0 c 0.51,0 1.359,0 2.068,0.312 0.709,0.311 1.278,0.963 1.278,2.21 0,1.248 -0.596,1.843 -1.334,2.156 C 3.232,4.989 2.354,4.989 1.758,4.989 L 0,4.989 0,0 Z m 1.502,9.695 c 3.885,0 5.33,-0.595 6.465,-1.531 1.644,-1.36 2.467,-3.43 2.467,-5.557 0,-2.126 -0.879,-4.365 -2.211,-5.5 C 6.775,-4.111 5.359,-4.707 2.098,-4.707 l -2.098,0 0,-6.577 -5.357,0 0,20.979 6.859,0 z" />
      </g>
      <g
         transform="translate(446.8027,255.2998)"
         id="g144">
        <path
           inkscape:connector-curvature="0"
           id="path146"
           style="fill:#231f20;fill-opacity:1;fill-rule:nonzero;stroke:none"
           d="M 0,0 4.111,0 2.068,6.095 2.012,6.095 0,0 Z m 5.982,10.318 4.735,-14.174 c 0.566,-1.73 0.963,-2.126 1.955,-2.126 l 0.965,0 0,-2.496 -10.348,0 0,2.496 0.85,0 c 0.851,0 1.558,0.113 1.558,0.424 0,0.285 -0.027,0.596 -0.14,1.021 l -0.596,2.042 -5.783,0 -0.34,-1.135 c -0.313,-0.992 -0.426,-1.417 -0.426,-1.814 0,-0.453 0.992,-0.538 1.758,-0.538 l 0.822,0 0,-2.496 -8.336,0 0,2.496 0.965,0 c 0.992,0 1.389,0.396 1.955,2.126 l 4.736,14.174 5.67,0 z" />
      </g>
      <g
         transform="translate(478.8496,254.9639)"
         id="g148">
        <path
           inkscape:connector-curvature="0"
           id="path150"
           style="fill:#231f20;fill-opacity:1;fill-rule:nonzero;stroke:none"
           d="m 0,0 -3.629,0 0,3.487 -2.211,0 0,-10.008 1.701,0 0,-4.621 -10.859,0 0,4.621 1.701,0 0,10.008 -2.211,0 0,-3.487 -3.629,0 0,8.108 L 0,8.108 0,0 Z" />
      </g>
      <g
         transform="translate(500.791,251.5)"
         id="g152">
        <path
           inkscape:connector-curvature="0"
           id="path154"
           style="fill:#231f20;fill-opacity:1;fill-rule:nonzero;stroke:none"
           d="m 0,0 c 0,-0.851 0.113,-1.275 0.879,-1.701 0.566,-0.312 0.965,-0.482 0.965,-1.191 0,-0.68 -0.057,-2.097 -5.643,-2.097 -1.248,0 -4.877,0.028 -4.877,1.927 -0.113,2.183 1.985,-0.226 1.985,5.529 0,1.53 -0.34,1.473 -1.756,1.473 -3.971,0 -3.602,-0.113 -3.602,-2.664 0,-3.884 1.758,-2.325 1.758,-4.168 0,-1.984 -4.139,-2.097 -5.5,-2.097 -1.305,0 -5.244,0.113 -5.244,2.041 0,0.595 0.424,0.964 0.906,1.19 1.022,0.483 1.389,0.398 1.389,6.322 0,7.542 -0.114,6.918 -1.162,7.486 -0.426,0.226 -0.936,0.481 -0.936,1.049 0,2.182 4.734,2.409 6.322,2.409 1.192,0 4.481,-0.142 4.481,-1.843 0,-0.879 -0.483,-1.19 -1.135,-1.588 -0.709,-0.396 -0.879,-0.736 -0.879,-3.26 0,-1.588 0.736,-1.388 2.098,-1.388 l 1.445,0 c 1.873,0 1.815,0.283 1.815,1.162 0,3.09 -0.481,3.288 -0.85,3.486 -0.539,0.313 -1.049,0.568 -1.049,1.305 0,0.539 -0.113,2.126 5.527,2.126 1.334,0 5.104,-0.029 5.104,-2.013 0,-0.623 -0.311,-1.049 -0.879,-1.332 C 0.312,11.794 0,11.879 0,7.372 L 0,0 Z" />
      </g>
      <g
         transform="translate(514.1426,261.6182)"
         id="g156">
        <path
           inkscape:connector-curvature="0"
           id="path158"
           style="fill:#231f20;fill-opacity:1;fill-rule:nonzero;stroke:none"
           d="m 0,0 0,-2.494 -1.162,0 c -0.539,0 -0.879,-0.113 -0.879,-0.453 0,-0.313 0.283,-0.739 0.426,-0.965 l 2.494,-3.884 2.523,3.884 c 0.141,0.226 0.426,0.652 0.426,0.965 0,0.34 -0.312,0.453 -0.879,0.453 l -1.164,0 0,2.494 8.166,0 0,-2.494 -0.596,0 c -1.021,0 -1.587,-0.198 -1.957,-0.766 l -5.044,-7.967 0,-3.94 c 0,-0.709 0.396,-1.134 1.105,-1.134 l 1.928,0 0,-2.495 -11.34,0 0,2.495 1.871,0 c 0.709,0 1.105,0.425 1.105,1.134 l 0,3.94 -4.48,7.145 c -0.766,1.191 -1.219,1.588 -2.75,1.588 l -0.596,0 0,2.494 L 0,0 Z" />
      </g>
    </g>
  </g>
</svg>
