<?xml version="1.0" encoding="UTF-8" standalone="no"?>
<!-- Created with Inkscape (http://www.inkscape.org/) -->

<svg
   xmlns:dc="http://purl.org/dc/elements/1.1/"
   xmlns:cc="http://creativecommons.org/ns#"
   xmlns:rdf="http://www.w3.org/1999/02/22-rdf-syntax-ns#"
   xmlns:svg="http://www.w3.org/2000/svg"
   xmlns="http://www.w3.org/2000/svg"
   xmlns:sodipodi="http://sodipodi.sourceforge.net/DTD/sodipodi-0.dtd"
   xmlns:inkscape="http://www.inkscape.org/namespaces/inkscape"
   version="1.1"
   id="svg2"
   xml:space="preserve"
   width="816"
   height="514.81201"
   viewBox="0 0 816 514.81201"
   sodipodi:docname="showcase_may77_1.svg"
   inkscape:version="0.92.2 5c3e80d, 2017-08-06"><metadata
     id="metadata8"><rdf:RDF><cc:Work
         rdf:about=""><dc:format>image/svg+xml</dc:format><dc:type
           rdf:resource="http://purl.org/dc/dcmitype/StillImage" /><dc:title></dc:title></cc:Work></rdf:RDF></metadata><defs
     id="defs6"><clipPath
       clipPathUnits="userSpaceOnUse"
       id="clipPath22"><path
         d="M 0,792 H 612 V 0 H 0 Z"
         id="path20"
         inkscape:connector-curvature="0" /></clipPath></defs><sodipodi:namedview
     pagecolor="#ffffff"
     bordercolor="#666666"
     borderopacity="1"
     objecttolerance="10"
     gridtolerance="10"
     guidetolerance="10"
     inkscape:pageopacity="0"
     inkscape:pageshadow="2"
     inkscape:window-width="1920"
     inkscape:window-height="1036"
     id="namedview4"
     showgrid="false"
     inkscape:zoom="0.63211061"
     inkscape:cx="-219.82551"
     inkscape:cy="76.011454"
     inkscape:window-x="0"
     inkscape:window-y="20"
     inkscape:window-maximized="0"
     inkscape:current-layer="g10"
     fit-margin-top="0"
     fit-margin-left="0"
     fit-margin-right="0"
     fit-margin-bottom="0" /><g
     id="g10"
     inkscape:groupmode="layer"
     inkscape:label="showcase_may77"
     transform="matrix(1.3333333,0,0,-1.3333333,0,1056)"><path
       d="M 0,405.891 H 612 V 618.389 H 0 Z"
       style="fill:#c6c4c2;fill-opacity:1;fill-rule:nonzero;stroke:none"
       id="path12"
       inkscape:connector-curvature="0" /><path
       d="M 589.081,428.39 H 22.919 v 167.5 h 566.162 z"
       style="fill:#e43c37;fill-opacity:1;fill-rule:nonzero;stroke:none"
       id="path14"
       inkscape:connector-curvature="0" /><g
       id="g16"><g
         id="g18"
         clip-path="url(#clipPath22)"><g
           id="g24"
           transform="translate(58.4927,448.3154)"><path
             d="m 0,0 v 94.406 h -11.229 v 15.036 c 0,0 5.419,3.144 9.966,7.691 4.544,4.545 7.867,11.015 7.867,11.015 H 29.679 V 0 Z"
             style="fill:#e7e8eb;fill-opacity:1;fill-rule:nonzero;stroke:none"
             id="path26"
             inkscape:connector-curvature="0" /></g><g
           id="g28"
           transform="translate(272.9561,502.6152)"><path
             d="M 0,0 10.363,40.922 20.731,0 Z M 32.491,73.849 H -11.765 L -43.667,-54.3 h 30.507 l 7.681,29.646 H 26.209 L 33.888,-54.3 h 30.506 z"
             style="fill:#e7e8eb;fill-opacity:1;fill-rule:nonzero;stroke:none"
             id="path30"
             inkscape:connector-curvature="0" /></g><g
           id="g32"
           transform="translate(188.0981,576.4639)"><path
             d="M 0,0 -18.072,-56.519 -36.143,0 h -30.559 v -128.148 h 30.23 v 48.957 l 18.4,-48.957 18.401,48.957 v -48.957 h 30.23 L 30.559,0 Z"
             style="fill:#e7e8eb;fill-opacity:1;fill-rule:nonzero;stroke:none"
             id="path34"
             inkscape:connector-curvature="0" /></g><path
           d="m 434.646,576.464 h 29.68 V 448.316 h -29.68 z"
           style="fill:#e7e8eb;fill-opacity:1;fill-rule:nonzero;stroke:none"
           id="path36"
           inkscape:connector-curvature="0" /><g
           id="g38"
           transform="translate(562.7949,539.3423)"><path
             d="m 0,0 v 19.562 c -0.135,3.293 -0.617,7.545 -5.08,12.167 -4.469,4.619 -6.574,5.177 -9.24,5.393 H -69.6 c 0,0 -3.648,-0.102 -6.668,-2.466 -3.013,-2.364 -4.673,-4.26 -6.181,-6.728 -1.51,-2.461 -1.729,-5.596 -1.729,-5.596 v -31.59 c 0.08,-1.417 0.41,-3.474 2.053,-5.216 l 51.59,-38.158 c 1.328,-1.955 1.275,-4.746 0.9,-9.402 -0.385,-4.784 -6.551,-5.434 -10.246,-5.532 -4.035,-0.105 -9.664,0.043 -11.994,2.034 -2.273,1.943 -2.521,3.701 -2.623,5.143 v 10.048 h -29.68 v -23.131 c 0.131,-3.289 0.614,-7.541 5.078,-12.162 4.467,-4.623 6.575,-5.178 9.239,-5.393 h 55.283 c 0,0 3.644,0.102 6.666,2.467 3.012,2.363 4.67,4.262 6.183,6.725 C -0.223,-79.373 0,-76.24 0,-76.24 v 33.112 c -0.086,1.416 -0.412,3.476 -2.053,5.215 L -53.975,0.494 c -1.019,1.017 -0.57,5.256 -0.57,9.928 0,4.672 9.506,4.929 11.66,4.929 2.155,0 8.451,-0.042 10.688,-1.952 2.181,-1.862 2.416,-3.547 2.515,-4.928 V 0 Z"
             style="fill:#e7e8eb;fill-opacity:1;fill-rule:nonzero;stroke:none"
             id="path40"
             inkscape:connector-curvature="0" /></g><g
           id="g42"
           transform="translate(390.582,576.4639)"><path
             d="M 0,0 -17.941,-40.621 -35.584,0 h -32.199 l 34.982,-80.551 v -47.597 h 29.686 v 48.181 L 32.199,0 Z"
             style="fill:#e7e8eb;fill-opacity:1;fill-rule:nonzero;stroke:none"
             id="path44"
             inkscape:connector-curvature="0" /></g><path
           d="M 612,618.39 H 0 V 792 h 612 z"
           style="fill:#151742;fill-opacity:1;fill-rule:nonzero;stroke:none"
           id="path46"
           inkscape:connector-curvature="0" /><g
           id="g48"
           transform="translate(316.2529,649.2119)"><path
             d="M 0,0 2.437,9.61 4.869,0 Z M 7.633,17.343 H -2.762 l -7.491,-30.096 h 7.163 l 1.804,6.963 h 7.444 l 1.804,-6.963 h 7.162 z"
             style="fill:#f7da8e;fill-opacity:1;fill-rule:nonzero;stroke:none"
             id="path50"
             inkscape:connector-curvature="0" /></g><path
           d="m 559.496,666.555 h 6.97 v -30.096 h -6.97 z"
           style="fill:#f7da8e;fill-opacity:1;fill-rule:nonzero;stroke:none"
           id="path52"
           inkscape:connector-curvature="0" /><path
           d="m 446.085,666.555 h 6.969 v -30.096 h -6.969 z"
           style="fill:#f7da8e;fill-opacity:1;fill-rule:nonzero;stroke:none"
           id="path54"
           inkscape:connector-curvature="0" /><path
           d="m 389.518,666.555 h 6.968 v -30.096 h -6.968 z"
           style="fill:#f7da8e;fill-opacity:1;fill-rule:nonzero;stroke:none"
           id="path56"
           inkscape:connector-curvature="0" /><path
           d="m 355.746,666.555 h 6.97 v -30.096 h -6.97 z"
           style="fill:#f7da8e;fill-opacity:1;fill-rule:nonzero;stroke:none"
           id="path58"
           inkscape:connector-curvature="0" /><g
           id="g60"
           transform="translate(420.5156,657.8359)"><path
             d="m 0,0 v 4.596 c -0.032,0.773 -0.146,1.771 -1.193,2.855 -1.049,1.087 -1.544,1.218 -2.171,1.268 h -12.982 c 0,0 -0.857,-0.025 -1.564,-0.578 -0.709,-0.556 -1.1,-1.002 -1.455,-1.58 -0.353,-0.579 -0.405,-1.316 -0.405,-1.316 v -7.419 c 0.018,-0.332 0.096,-0.814 0.483,-1.224 l 12.114,-8.961 c 0.313,-0.459 0.302,-1.116 0.213,-2.207 -0.09,-1.125 -1.539,-1.279 -2.406,-1.301 -0.947,-0.025 -2.269,0.01 -2.818,0.478 -0.532,0.457 -0.591,0.868 -0.617,1.206 v 2.361 h -6.969 v -5.432 c 0.032,-0.772 0.145,-1.771 1.194,-2.855 1.05,-1.086 1.544,-1.218 2.169,-1.268 h 12.984 c 0,0 0.857,0.025 1.564,0.579 0.708,0.556 1.097,1.001 1.453,1.579 0.354,0.578 0.406,1.315 0.406,1.315 v 7.777 c -0.021,0.332 -0.098,0.815 -0.481,1.225 l -12.196,9.019 c -0.24,0.24 -0.133,1.234 -0.133,2.33 0,1.098 2.231,1.158 2.738,1.158 0.506,0 1.984,-0.009 2.509,-0.457 0.513,-0.439 0.571,-0.834 0.592,-1.157 V 0 Z"
             style="fill:#f7da8e;fill-opacity:1;fill-rule:nonzero;stroke:none"
             id="path62"
             inkscape:connector-curvature="0" /></g><g
           id="g64"
           transform="translate(113.3286,657.8359)"><path
             d="m 0,0 v 4.596 c -0.031,0.773 -0.145,1.771 -1.192,2.855 -1.051,1.087 -1.545,1.218 -2.171,1.268 h -12.984 c 0,0 -0.856,-0.025 -1.563,-0.578 -0.709,-0.556 -1.099,-1.002 -1.454,-1.58 -0.354,-0.579 -0.404,-1.316 -0.404,-1.316 v -7.419 c 0.017,-0.332 0.095,-0.814 0.48,-1.224 l 12.117,-8.961 c 0.311,-0.459 0.3,-1.116 0.211,-2.207 -0.09,-1.125 -1.539,-1.279 -2.406,-1.301 -0.948,-0.025 -2.269,0.01 -2.818,0.478 -0.532,0.457 -0.591,0.868 -0.616,1.206 v 2.361 h -6.968 v -5.432 c 0.03,-0.772 0.144,-1.771 1.191,-2.855 1.049,-1.086 1.544,-1.218 2.17,-1.268 h 12.983 c 0,0 0.856,0.025 1.566,0.579 0.707,0.556 1.097,1.001 1.451,1.579 0.355,0.578 0.407,1.315 0.407,1.315 v 7.777 c -0.019,0.332 -0.097,0.815 -0.482,1.225 l -12.195,9.019 c -0.24,0.24 -0.134,1.234 -0.134,2.33 0,1.098 2.233,1.158 2.739,1.158 0.506,0 1.983,-0.009 2.509,-0.457 0.513,-0.439 0.57,-0.834 0.593,-1.157 L -6.97,0 Z"
             style="fill:#f7da8e;fill-opacity:1;fill-rule:nonzero;stroke:none"
             id="path66"
             inkscape:connector-curvature="0" /></g><g
           id="g68"
           transform="translate(279.3955,655.6641)"><path
             d="m 0,0 c -0.023,-0.323 -0.078,-0.719 -0.592,-1.156 -0.524,-0.449 -2.004,-0.459 -2.51,-0.459 h -2.727 v 7.084 h 2.727 c 0.506,0 1.986,-0.01 2.51,-0.459 C -0.078,4.574 -0.023,4.178 0,3.854 Z m 5.163,8.973 c -1.588,1.643 -3.685,1.864 -5.03,1.918 h -12.931 v -30.096 h 6.969 v 12.538 h 2.497 c 1.12,0 1.645,-0.136 2.157,-0.524 C -0.68,-7.564 0,-8.285 0,-9.714 v -9.491 H 6.97 V -9.9 c -0.047,1.171 -0.219,2.683 -1.807,4.328 -0.676,0.699 -1.445,1.139 -2.208,1.419 0.763,0.282 1.532,0.721 2.208,1.421 1.588,1.643 1.76,3.156 1.807,4.328 V 4.645 C 6.923,5.817 6.751,7.329 5.163,8.973"
             style="fill:#f7da8e;fill-opacity:1;fill-rule:nonzero;stroke:none"
             id="path70"
             inkscape:connector-curvature="0" /></g><g
           id="g72"
           transform="translate(379.7744,657.8359)"><path
             d="m 0,0 v -2.186 c -0.023,-0.324 -0.077,-0.718 -0.593,-1.156 -0.522,-0.449 -2.001,-0.459 -2.51,-0.459 h -2.726 v 7.098 h 2.726 c 0.509,0 1.988,-0.01 2.51,-0.459 C -0.077,2.402 -0.023,2.006 0,1.682 V 0.5 Z M 5.162,6.801 C 3.574,8.444 1.479,8.665 0.136,8.719 H -12.799 V 5.245 -21.377 h 6.97 v 12.154 h 5.965 c 1.343,0.055 3.438,0.276 5.026,1.919 1.589,1.644 1.759,3.156 1.808,4.326 V 0 0.5 2.473 C 6.921,3.646 6.751,5.157 5.162,6.801"
             style="fill:#f7da8e;fill-opacity:1;fill-rule:nonzero;stroke:none"
             id="path74"
             inkscape:connector-curvature="0" /></g><g
           id="g76"
           transform="translate(430.9121,642.7295)"><path
             d="m 0,0 c 0,-1.098 2.23,-1.159 2.738,-1.159 0.506,0 1.988,0.01 2.51,0.459 0.513,0.437 0.568,0.834 0.591,1.158 v 1.99 h 6.97 V -2.147 C 12.777,-2.92 12.665,-3.919 11.616,-5.003 10.568,-6.089 10.072,-6.221 9.446,-6.271 H -3.536 c 0,0 -0.857,0.026 -1.565,0.58 -0.708,0.555 -1.097,1.001 -1.453,1.579 -0.352,0.578 -0.406,1.314 -0.406,1.314 v 23.15 c 0,0 0.054,0.737 0.406,1.315 0.356,0.578 0.745,1.024 1.453,1.58 0.708,0.554 1.565,0.578 1.565,0.578 H 9.446 c 0.626,-0.05 1.122,-0.18 2.17,-1.267 1.049,-1.084 1.161,-2.082 1.193,-2.856 v -4.596 h -6.97 v 1.992 C 5.816,17.421 5.761,17.815 5.248,18.255 4.726,18.702 3.244,18.712 2.738,18.712 2.23,18.712 0,18.651 0,17.554 Z"
             style="fill:#f7da8e;fill-opacity:1;fill-rule:nonzero;stroke:none"
             id="path78"
             inkscape:connector-curvature="0" /></g><g
           id="g80"
           transform="translate(144.0322,642.7295)"><path
             d="m 0,0 c 0,-1.098 2.232,-1.159 2.737,-1.159 0.507,0 1.987,0.01 2.511,0.459 0.511,0.437 0.568,0.834 0.591,1.158 v 1.99 h 6.97 V -2.147 C 12.777,-2.92 12.665,-3.919 11.617,-5.003 10.567,-6.089 10.072,-6.221 9.446,-6.271 H -3.537 c 0,0 -0.855,0.026 -1.565,0.58 -0.708,0.555 -1.098,1.001 -1.452,1.579 -0.354,0.578 -0.405,1.314 -0.405,1.314 v 23.15 c 0,0 0.051,0.737 0.405,1.315 0.354,0.578 0.744,1.024 1.452,1.58 0.71,0.554 1.565,0.578 1.565,0.578 H 9.446 c 0.626,-0.05 1.121,-0.18 2.171,-1.267 1.048,-1.084 1.16,-2.082 1.192,-2.856 v -4.596 h -6.97 v 1.992 C 5.816,17.421 5.759,17.815 5.248,18.255 4.724,18.702 3.244,18.712 2.737,18.712 2.232,18.712 0,18.651 0,17.554 Z"
             style="fill:#f7da8e;fill-opacity:1;fill-rule:nonzero;stroke:none"
             id="path82"
             inkscape:connector-curvature="0" /></g><g
           id="g84"
           transform="translate(30.0811,642.7295)"><path
             d="m 0,0 c 0,-1.098 2.231,-1.159 2.737,-1.159 0.508,0 1.988,0.01 2.511,0.459 0.513,0.437 0.568,0.834 0.591,1.158 v 1.99 H 12.81 V -2.147 C 12.777,-2.92 12.665,-3.919 11.618,-5.003 10.568,-6.089 10.072,-6.221 9.447,-6.271 H -3.536 c 0,0 -0.856,0.026 -1.565,0.58 -0.709,0.555 -1.097,1.001 -1.452,1.579 -0.355,0.578 -0.406,1.314 -0.406,1.314 v 23.15 c 0,0 0.051,0.737 0.406,1.315 0.355,0.578 0.743,1.024 1.452,1.58 0.709,0.554 1.565,0.578 1.565,0.578 H 9.447 c 0.625,-0.05 1.121,-0.18 2.171,-1.267 1.047,-1.084 1.159,-2.082 1.192,-2.856 V 15.106 H 5.839 v 1.992 C 5.816,17.421 5.761,17.815 5.248,18.255 4.725,18.702 3.245,18.712 2.737,18.712 2.231,18.712 0,18.651 0,17.554 Z"
             style="fill:#f7da8e;fill-opacity:1;fill-rule:nonzero;stroke:none"
             id="path86"
             inkscape:connector-curvature="0" /></g><g
           id="g88"
           transform="translate(58.5957,642.7295)"><path
             d="m 0,0 c 0,-1.098 -2.419,-1.159 -2.925,-1.159 -0.505,0 -2.926,0.061 -2.926,1.159 v 17.554 c 0,1.097 2.421,1.158 2.926,1.158 C -2.419,18.712 0,18.651 0,17.554 Z M 6.553,21.667 C 6.2,22.245 5.81,22.691 5.101,23.247 4.393,23.801 3.536,23.825 3.536,23.825 H -9.387 c 0,0 -0.854,-0.024 -1.563,-0.578 -0.711,-0.556 -1.098,-1.002 -1.453,-1.58 -0.355,-0.578 -0.407,-1.315 -0.407,-1.315 v -23.15 c 0,0 0.052,-0.736 0.407,-1.314 0.355,-0.578 0.742,-1.024 1.453,-1.579 0.709,-0.554 1.563,-0.58 1.563,-0.58 H 3.536 c 0,0 0.857,0.026 1.565,0.58 0.709,0.555 1.099,1.001 1.452,1.579 0.354,0.578 0.408,1.314 0.408,1.314 v 23.15 c 0,0 -0.054,0.737 -0.408,1.315"
             style="fill:#f7da8e;fill-opacity:1;fill-rule:nonzero;stroke:none"
             id="path90"
             inkscape:connector-curvature="0" /></g><g
           id="g92"
           transform="translate(588.7207,666.5547)"><path
             d="m 0,0 h -19.203 v -6.662 h 6.116 v -23.434 h 6.972 V -6.662 H 0 Z"
             style="fill:#f7da8e;fill-opacity:1;fill-rule:nonzero;stroke:none"
             id="path94"
             inkscape:connector-curvature="0" /></g><g
           id="g96"
           transform="translate(221.5059,666.5547)"><path
             d="m 0,0 h -19.204 v -6.662 h 6.115 v -23.434 h 6.972 V -6.662 H 0 Z"
             style="fill:#f7da8e;fill-opacity:1;fill-rule:nonzero;stroke:none"
             id="path98"
             inkscape:connector-curvature="0" /></g><g
           id="g100"
           transform="translate(178.6416,666.5547)"><path
             d="m 0,0 h -19.203 v -6.662 h 6.116 v -23.434 h 6.972 V -6.662 H 0 Z"
             style="fill:#f7da8e;fill-opacity:1;fill-rule:nonzero;stroke:none"
             id="path102"
             inkscape:connector-curvature="0" /></g><g
           id="g104"
           transform="translate(546.9844,642.0928)"><path
             d="M 0,0 V 24.462 H -6.972 V -5.634 H 10.459 V 0 Z"
             style="fill:#f7da8e;fill-opacity:1;fill-rule:nonzero;stroke:none"
             id="path106"
             inkscape:connector-curvature="0" /></g><g
           id="g108"
           transform="translate(252.7852,642.0928)"><path
             d="m 0,0 v 7.407 h 9.313 v 5.299 H 0 v 6.123 h 10.575 v 5.633 H -6.914 -6.97 V -5.634 h 0.056 17.925 V 0 Z"
             style="fill:#f7da8e;fill-opacity:1;fill-rule:nonzero;stroke:none"
             id="path110"
             inkscape:connector-curvature="0" /></g><g
           id="g112"
           transform="translate(526.8506,642.0928)"><path
             d="m 0,0 v 7.407 h 9.313 v 5.299 H 0 v 6.123 h 10.574 v 5.633 H -6.912 -6.969 V -5.634 h 0.057 17.925 V 0 Z"
             style="fill:#f7da8e;fill-opacity:1;fill-rule:nonzero;stroke:none"
             id="path114"
             inkscape:connector-curvature="0" /></g><g
           id="g116"
           transform="translate(188.4907,642.0928)"><path
             d="m 0,0 v 7.407 h 9.313 v 5.299 H 0 v 6.123 h 10.575 v 5.633 H -6.914 -6.97 V -5.634 h 0.056 17.925 V 0 Z"
             style="fill:#f7da8e;fill-opacity:1;fill-rule:nonzero;stroke:none"
             id="path118"
             inkscape:connector-curvature="0" /></g><g
           id="g120"
           transform="translate(123.0986,642.0928)"><path
             d="m 0,0 v 7.407 h 9.313 v 5.299 H 0 v 6.123 h 10.576 v 5.633 H -6.912 -6.969 V -5.634 h 0.057 17.924 V 0 Z"
             style="fill:#f7da8e;fill-opacity:1;fill-rule:nonzero;stroke:none"
             id="path122"
             inkscape:connector-curvature="0" /></g><g
           id="g124"
           transform="translate(471.8477,648.4863)"><path
             d="m 0,0 -5.568,18.068 h -8.297 v -30.095 h 6.969 V 6.695 l 5.731,-18.722 H 6.973 V 18.068 H 0 Z"
             style="fill:#f7da8e;fill-opacity:1;fill-rule:nonzero;stroke:none"
             id="path126"
             inkscape:connector-curvature="0" /></g><g
           id="g128"
           transform="translate(82.9775,648.4863)"><path
             d="m 0,0 -5.57,18.068 h -8.297 v -30.095 h 6.97 V 6.695 l 5.732,-18.722 H 6.971 V 18.068 H 0 Z"
             style="fill:#f7da8e;fill-opacity:1;fill-rule:nonzero;stroke:none"
             id="path130"
             inkscape:connector-curvature="0" /></g><g
           id="g132"
           transform="translate(235.5557,666.5527)"><path
             d="m 0,0 v -23.824 c 0,-1.097 -1.925,-1.158 -2.431,-1.158 -0.505,0 -2.431,0.061 -2.431,1.158 V 0 h -6.96 v -26.622 c 0,0 0.052,-0.735 0.406,-1.314 0.356,-0.58 0.745,-1.024 1.452,-1.58 0.709,-0.554 1.566,-0.578 1.566,-0.578 H 3.538 c 0,0 0.853,0.024 1.563,0.578 0.709,0.556 1.098,1 1.453,1.58 0.355,0.579 0.404,1.314 0.404,1.314 V 0 Z"
             style="fill:#f7da8e;fill-opacity:1;fill-rule:nonzero;stroke:none"
             id="path134"
             inkscape:connector-curvature="0" /></g><g
           id="g136"
           transform="translate(502.0352,657.1152)"><path
             d="M 0,0 V 5.316 C -0.031,6.09 -0.146,7.088 -1.194,8.172 -2.243,9.259 -2.737,9.39 -3.362,9.439 h -12.984 c 0,0 -0.856,-0.024 -1.567,-0.578 -0.708,-0.555 -1.098,-1.002 -1.452,-1.58 -0.354,-0.578 -0.405,-1.315 -0.405,-1.315 v -23.15 c 0,0 0.051,-0.736 0.405,-1.314 0.354,-0.578 0.744,-1.023 1.452,-1.579 0.711,-0.554 1.567,-0.579 1.567,-0.579 h 8.897 c 0.627,0.05 1.122,0.181 2.171,1.267 0.234,0.243 0.42,0.48 0.568,0.713 v -1.98 H 0 v 11.729 3.781 0.927 h -10.158 v -4.708 h 3.503 v -5.001 c -0.023,-0.324 -0.077,-0.72 -0.592,-1.158 -0.523,-0.449 -2.132,-0.459 -2.64,-0.459 -0.506,0 -2.924,0.062 -2.924,1.159 V 3.168 c 0,1.098 2.233,1.158 2.739,1.158 0.508,0 1.983,-0.01 2.509,-0.457 0.516,-0.439 0.569,-0.834 0.592,-1.157 V 0 Z"
             style="fill:#f7da8e;fill-opacity:1;fill-rule:nonzero;stroke:none"
             id="path138"
             inkscape:connector-curvature="0" /></g><g
           id="g140"
           transform="translate(346.0029,643.4961)"><path
             d="M 0,0 C -0.024,-0.325 -0.079,-0.721 -0.589,-1.158 -1.115,-1.605 -2.594,-1.616 -3.101,-1.616 H -5.829 L -5.83,17.637 h 2.727 c 0.509,0 1.988,-0.01 2.514,-0.458 0.51,-0.437 0.565,-0.835 0.587,-1.158 z m -12.8,-7.037 h 6.971 5.963 c 1.345,0.054 3.441,0.273 5.029,1.917 1.589,1.643 1.758,3.155 1.807,4.329 v 17.604 c -0.049,1.171 -0.218,2.684 -1.807,4.329 -1.588,1.641 -3.684,1.863 -5.03,1.917 H -12.8 Z"
             style="fill:#f7da8e;fill-opacity:1;fill-rule:nonzero;stroke:none"
             id="path142"
             inkscape:connector-curvature="0" /></g><path
           d="m 157.981,710.646 h 8.121 v -35.07 h -8.121 z"
           style="fill:#f7da8e;fill-opacity:1;fill-rule:nonzero;stroke:none"
           id="path144"
           inkscape:connector-curvature="0" /><g
           id="g146"
           transform="translate(251.8638,705.6719)"><path
             d="M 0,0 -4.245,-13.273 -8.489,0 h -7.176 v -30.096 h 7.1 v 11.498 l 4.32,-11.498 4.321,11.498 V -30.096 H 7.178 V 0 Z"
             style="fill:#f7da8e;fill-opacity:1;fill-rule:nonzero;stroke:none"
             id="path148"
             inkscape:connector-curvature="0" /></g><path
           d="m 423.89,705.672 h 6.968 v -30.096 h -6.968 z"
           style="fill:#f7da8e;fill-opacity:1;fill-rule:nonzero;stroke:none"
           id="path150"
           inkscape:connector-curvature="0" /><g
           id="g152"
           transform="translate(419.623,696.9551)"><path
             d="m 0,0 v 4.594 c -0.033,0.773 -0.143,1.771 -1.193,2.857 -1.05,1.085 -1.544,1.216 -2.171,1.266 h -12.983 c 0,0 -0.856,-0.024 -1.565,-0.578 C -18.619,7.583 -19.007,7.137 -19.363,6.56 -19.719,5.98 -19.77,5.244 -19.77,5.244 v -7.42 c 0.019,-0.332 0.095,-0.815 0.482,-1.224 l 12.114,-8.961 c 0.313,-0.459 0.302,-1.116 0.213,-2.207 -0.089,-1.124 -1.539,-1.278 -2.406,-1.301 -0.947,-0.025 -2.267,0.011 -2.817,0.479 -0.532,0.456 -0.59,0.868 -0.617,1.205 v 2.361 h -6.969 v -5.432 c 0.031,-0.772 0.145,-1.771 1.194,-2.855 1.046,-1.086 1.543,-1.217 2.168,-1.268 h 12.984 c 0,0 0.856,0.025 1.565,0.579 0.709,0.556 1.096,1.001 1.453,1.58 0.353,0.578 0.406,1.314 0.406,1.314 v 7.777 c -0.019,0.331 -0.098,0.816 -0.483,1.225 l -12.196,9.02 c -0.239,0.238 -0.131,1.234 -0.131,2.331 0,1.098 2.232,1.157 2.739,1.157 0.505,0 1.981,-0.009 2.509,-0.458 0.512,-0.437 0.57,-0.833 0.59,-1.158 V 0 Z"
             style="fill:#f7da8e;fill-opacity:1;fill-rule:nonzero;stroke:none"
             id="path154"
             inkscape:connector-curvature="0" /></g><g
           id="g156"
           transform="translate(210.8716,696.9551)"><path
             d="m 0,0 v 4.594 c -0.032,0.773 -0.145,1.771 -1.193,2.857 -1.05,1.085 -1.545,1.216 -2.17,1.266 h -12.984 c 0,0 -0.857,-0.024 -1.565,-0.578 -0.708,-0.556 -1.097,-1.002 -1.453,-1.579 -0.354,-0.58 -0.404,-1.316 -0.404,-1.316 v -7.42 c 0.018,-0.332 0.095,-0.815 0.48,-1.224 l 12.116,-8.961 c 0.313,-0.459 0.301,-1.116 0.213,-2.207 -0.09,-1.124 -1.54,-1.278 -2.407,-1.301 -0.947,-0.025 -2.268,0.011 -2.817,0.479 -0.533,0.456 -0.591,0.868 -0.616,1.205 v 2.361 h -6.969 v -5.432 c 0.03,-0.772 0.144,-1.771 1.192,-2.855 1.049,-1.086 1.542,-1.217 2.17,-1.268 h 12.983 c 0,0 0.856,0.025 1.565,0.579 0.708,0.556 1.097,1.001 1.452,1.58 0.354,0.578 0.407,1.314 0.407,1.314 v 7.777 c -0.02,0.331 -0.097,0.816 -0.482,1.225 l -12.196,9.02 c -0.239,0.238 -0.133,1.234 -0.133,2.331 0,1.098 2.233,1.157 2.739,1.157 0.506,0 1.983,-0.009 2.509,-0.458 0.513,-0.437 0.569,-0.833 0.592,-1.158 V 0 Z"
             style="fill:#f7da8e;fill-opacity:1;fill-rule:nonzero;stroke:none"
             id="path158"
             inkscape:connector-curvature="0" /></g><g
           id="g160"
           transform="translate(376.9375,694.7822)"><path
             d="m 0,0 c -0.021,-0.323 -0.077,-0.72 -0.591,-1.156 -0.525,-0.449 -2.005,-0.46 -2.51,-0.46 h -2.727 v 7.085 h 2.727 c 0.505,0 1.985,-0.011 2.51,-0.46 C -0.077,4.573 -0.021,4.177 0,3.853 Z M 5.164,8.972 C 3.575,10.615 1.477,10.836 0.135,10.89 h -12.934 v -30.096 h 6.971 v 12.538 h 2.495 c 1.122,0 1.647,-0.137 2.16,-0.523 C -0.681,-7.565 0,-8.286 0,-9.715 v -9.491 h 6.972 v 9.305 c -0.049,1.172 -0.218,2.683 -1.808,4.328 -0.678,0.699 -1.445,1.14 -2.207,1.42 0.762,0.281 1.529,0.72 2.207,1.42 1.59,1.644 1.759,3.156 1.808,4.328 v 3.05 C 6.923,5.816 6.754,7.328 5.164,8.972"
             style="fill:#f7da8e;fill-opacity:1;fill-rule:nonzero;stroke:none"
             id="path162"
             inkscape:connector-curvature="0" /></g><g
           id="g164"
           transform="translate(182.4688,696.9551)"><path
             d="m 0,0 v -2.188 c -0.022,-0.323 -0.078,-0.718 -0.591,-1.155 -0.525,-0.45 -2.003,-0.459 -2.51,-0.459 h -2.727 v 7.098 h 2.727 c 0.507,0 1.985,-0.011 2.51,-0.46 C -0.078,2.4 -0.022,2.004 0,1.68 V 0.499 Z M 5.165,6.799 C 3.574,8.442 1.479,8.663 0.135,8.717 H -12.797 V 5.244 -21.379 h 6.969 v 12.155 h 5.963 c 1.344,0.055 3.439,0.275 5.03,1.919 1.587,1.643 1.757,3.156 1.805,4.326 V 0 0.499 2.472 C 6.922,3.644 6.752,5.155 5.165,6.799"
             style="fill:#f7da8e;fill-opacity:1;fill-rule:nonzero;stroke:none"
             id="path166"
             inkscape:connector-curvature="0" /></g><g
           id="g168"
           transform="translate(354.2188,681.8477)"><path
             d="m 0,0 c 0,-1.099 -2.421,-1.158 -2.928,-1.158 -0.504,0 -2.923,0.059 -2.923,1.158 v 17.555 c 0,1.097 2.419,1.156 2.923,1.156 C -2.421,18.711 0,18.652 0,17.555 Z M 6.551,21.667 C 6.2,22.244 5.809,22.69 5.104,23.246 c -0.71,0.555 -1.57,0.578 -1.57,0.578 H -9.387 c 0,0 -0.855,-0.023 -1.564,-0.578 -0.707,-0.556 -1.097,-1.002 -1.454,-1.579 -0.354,-0.579 -0.406,-1.315 -0.406,-1.315 V -2.799 c 0,0 0.052,-0.735 0.406,-1.313 0.357,-0.579 0.747,-1.025 1.454,-1.58 0.709,-0.554 1.564,-0.579 1.564,-0.579 H 3.534 c 0,0 0.86,0.025 1.57,0.579 0.705,0.555 1.096,1.001 1.447,1.58 0.355,0.578 0.41,1.313 0.41,1.313 v 23.151 c 0,0 -0.055,0.736 -0.41,1.315"
             style="fill:#f7da8e;fill-opacity:1;fill-rule:nonzero;stroke:none"
             id="path170"
             inkscape:connector-curvature="0" /></g><g
           id="g172"
           transform="translate(312.0029,681.8477)"><path
             d="m 0,0 c 0,-1.099 -2.418,-1.158 -2.923,-1.158 -0.506,0 -2.926,0.059 -2.926,1.158 v 17.555 c 0,1.097 2.42,1.156 2.926,1.156 C -2.418,18.711 0,18.652 0,17.555 Z M 6.555,21.667 C 6.2,22.244 5.813,22.69 5.103,23.246 4.396,23.801 3.539,23.824 3.539,23.824 H -9.385 c 0,0 -0.854,-0.023 -1.565,-0.578 -0.709,-0.556 -1.097,-1.002 -1.452,-1.579 -0.355,-0.579 -0.406,-1.315 -0.406,-1.315 V -2.799 c 0,0 0.051,-0.735 0.406,-1.313 0.355,-0.579 0.743,-1.025 1.452,-1.58 0.711,-0.554 1.565,-0.579 1.565,-0.579 H 3.539 c 0,0 0.857,0.025 1.564,0.579 0.71,0.555 1.097,1.001 1.452,1.58 0.355,0.578 0.408,1.313 0.408,1.313 v 23.151 c 0,0 -0.053,0.736 -0.408,1.315"
             style="fill:#f7da8e;fill-opacity:1;fill-rule:nonzero;stroke:none"
             id="path174"
             inkscape:connector-curvature="0" /></g><g
           id="g176"
           transform="translate(453.1143,705.6719)"><path
             d="m 0,0 h -19.205 v -6.662 h 6.118 v -23.434 h 6.97 V -6.662 H 0 Z"
             style="fill:#f7da8e;fill-opacity:1;fill-rule:nonzero;stroke:none"
             id="path178"
             inkscape:connector-curvature="0" /></g><g
           id="g180"
           transform="translate(328.248,681.21)"><path
             d="M 0,0 V 24.462 H -6.973 V -5.634 H 10.459 V 0 Z"
             style="fill:#f7da8e;fill-opacity:1;fill-rule:nonzero;stroke:none"
             id="path182"
             inkscape:connector-curvature="0" /></g><g
           id="g184"
           transform="translate(477.2842,688.3291)"><path
             d="M 0,0 2.437,9.61 4.872,0 Z M 7.633,17.343 H -2.759 l -7.491,-30.096 h 7.161 l 1.807,6.963 h 7.44 l 1.806,-6.963 h 7.16 z"
             style="fill:#f7da8e;fill-opacity:1;fill-rule:nonzero;stroke:none"
             id="path186"
             inkscape:connector-curvature="0" /></g><g
           id="g188"
           transform="translate(511.1611,705.6719)"><path
             d="M 0,0 -4.247,-13.273 -8.489,0 h -7.176 v -30.096 h 7.098 v 11.498 l 4.32,-11.498 4.323,11.498 V -30.096 H 7.177 V 0 Z"
             style="fill:#f7da8e;fill-opacity:1;fill-rule:nonzero;stroke:none"
             id="path190"
             inkscape:connector-curvature="0" /></g><g
           id="g192"
           transform="translate(560.2734,705.6719)"><path
             d="m 0,0 h -19.205 v -6.662 h 6.117 v -23.434 h 6.971 V -6.662 H 0 Z"
             style="fill:#f7da8e;fill-opacity:1;fill-rule:nonzero;stroke:none"
             id="path194"
             inkscape:connector-curvature="0" /></g><g
           id="g196"
           transform="translate(528.5547,681.21)"><path
             d="m 0,0 v 7.409 h 9.313 v 5.297 H 0 v 6.123 h 10.575 v 5.633 H -6.912 -6.968 V -5.634 h 0.056 17.925 V 0 Z"
             style="fill:#f7da8e;fill-opacity:1;fill-rule:nonzero;stroke:none"
             id="path198"
             inkscape:connector-curvature="0" /></g><g
           id="g200"
           transform="translate(31.1245,682.1406)"><path
             d="M 0,0 V 28.506 H -8.122 V -6.564 H 12.189 V 0 Z"
             style="fill:#f7da8e;fill-opacity:1;fill-rule:nonzero;stroke:none"
             id="path202"
             inkscape:connector-curvature="0" /></g><g
           id="g204"
           transform="translate(128.3579,705.6719)"><path
             d="M 0,0 -4.245,-13.273 -8.489,0 h -7.176 v -30.096 h 7.1 v 11.498 l 4.32,-11.498 4.322,11.498 v -11.498 h 7.1 L 7.177,0 Z"
             style="fill:#f7da8e;fill-opacity:1;fill-rule:nonzero;stroke:none"
             id="path206"
             inkscape:connector-curvature="0" /></g><g
           id="g208"
           transform="translate(82.0908,694.7822)"><path
             d="m 0,0 c -0.022,-0.323 -0.079,-0.72 -0.592,-1.156 -0.525,-0.449 -2.003,-0.46 -2.51,-0.46 h -2.726 v 7.085 h 2.726 c 0.507,0 1.985,-0.011 2.51,-0.46 C -0.079,4.573 -0.022,4.177 0,3.853 Z m 5.164,8.972 c -1.59,1.643 -3.686,1.864 -5.031,1.918 h -12.932 v -30.096 h 6.971 v 12.538 h 2.495 c 1.121,0 1.646,-0.137 2.157,-0.523 C -0.681,-7.565 0,-8.286 0,-9.715 v -9.491 h 6.97 v 9.305 c -0.048,1.172 -0.218,2.683 -1.806,4.328 -0.678,0.699 -1.447,1.14 -2.209,1.42 0.762,0.281 1.531,0.72 2.209,1.42 1.588,1.644 1.758,3.156 1.806,4.328 v 3.05 C 6.922,5.816 6.752,7.328 5.164,8.972"
             style="fill:#f7da8e;fill-opacity:1;fill-rule:nonzero;stroke:none"
             id="path210"
             inkscape:connector-curvature="0" /></g><g
           id="g212"
           transform="translate(59.3701,681.8477)"><path
             d="M 0,0 C 0,-1.099 -2.418,-1.158 -2.924,-1.158 -3.43,-1.158 -5.85,-1.099 -5.85,0 v 17.555 c 0,1.097 2.42,1.156 2.926,1.156 C -2.418,18.711 0,18.652 0,17.555 Z M 6.554,21.667 C 6.2,22.244 5.811,22.69 5.102,23.246 4.393,23.801 3.537,23.824 3.537,23.824 H -9.385 c 0,0 -0.857,-0.023 -1.566,-0.578 -0.709,-0.556 -1.096,-1.002 -1.452,-1.579 -0.353,-0.579 -0.405,-1.315 -0.405,-1.315 V -2.799 c 0,0 0.052,-0.735 0.405,-1.313 0.356,-0.579 0.743,-1.025 1.452,-1.58 0.709,-0.554 1.566,-0.579 1.566,-0.579 H 3.537 c 0,0 0.856,0.025 1.565,0.579 0.709,0.555 1.098,1.001 1.452,1.58 0.354,0.578 0.408,1.313 0.408,1.313 v 23.151 c 0,0 -0.054,0.736 -0.408,1.315"
             style="fill:#f7da8e;fill-opacity:1;fill-rule:nonzero;stroke:none"
             id="path214"
             inkscape:connector-curvature="0" /></g><g
           id="g216"
           transform="translate(99.1948,681.21)"><path
             d="m 0,0 v 7.409 h 9.314 v 5.297 H 0 v 6.123 h 10.577 v 5.633 H -6.912 -6.97 V -5.634 h 0.058 17.924 V 0 Z"
             style="fill:#f7da8e;fill-opacity:1;fill-rule:nonzero;stroke:none"
             id="path218"
             inkscape:connector-curvature="0" /></g><g
           id="g220"
           transform="translate(225.9395,705.6709)"><path
             d="m 0,0 v -23.825 c 0,-1.097 -1.925,-1.158 -2.431,-1.158 -0.505,0 -2.43,0.061 -2.43,1.158 V 0 h -6.96 v -26.622 c 0,0 0.051,-0.735 0.405,-1.314 0.355,-0.579 0.745,-1.025 1.453,-1.58 0.709,-0.555 1.565,-0.579 1.565,-0.579 H 3.537 c 0,0 0.855,0.024 1.563,0.579 0.711,0.555 1.1,1.001 1.455,1.58 0.354,0.579 0.405,1.314 0.405,1.314 V 0 Z"
             style="fill:#f7da8e;fill-opacity:1;fill-rule:nonzero;stroke:none"
             id="path222"
             inkscape:connector-curvature="0" /></g><g
           id="g224"
           transform="translate(290.0854,682.6143)"><path
             d="m 0,0 c -0.024,-0.325 -0.079,-0.721 -0.59,-1.159 -0.525,-0.447 -2.004,-0.457 -2.511,-0.457 h -2.726 l -0.002,19.253 h 2.728 c 0.507,0 1.986,-0.011 2.511,-0.458 0.511,-0.438 0.566,-0.835 0.589,-1.158 z m -12.798,-7.038 h 6.971 5.961 c 1.344,0.054 3.442,0.273 5.03,1.918 1.589,1.643 1.759,3.154 1.807,4.328 v 17.605 c -0.048,1.171 -0.218,2.683 -1.807,4.328 -1.588,1.642 -3.686,1.863 -5.031,1.917 h -12.931 z"
             style="fill:#f7da8e;fill-opacity:1;fill-rule:nonzero;stroke:none"
             id="path226"
             inkscape:connector-curvature="0" /></g><g
           id="g228"
           transform="translate(430.1602,734.6753)"><path
             d="M 0,0 V 2.689 C -0.019,3.142 -0.084,3.726 -0.696,4.36 -1.313,4.997 -1.603,5.073 -1.97,5.103 h -7.598 c 0,0 -0.501,-0.015 -0.916,-0.34 -0.415,-0.324 -0.642,-0.586 -0.852,-0.924 -0.207,-0.338 -0.234,-0.771 -0.234,-0.771 v -4.343 c 0.008,-0.194 0.051,-0.476 0.28,-0.716 l 7.093,-5.247 c 0.18,-0.267 0.176,-0.652 0.124,-1.292 -0.052,-0.657 -0.903,-0.747 -1.41,-0.76 -0.553,-0.017 -1.326,0.006 -1.65,0.28 -0.311,0.266 -0.346,0.508 -0.358,0.705 v 1.382 h -4.079 v -3.179 c 0.016,-0.453 0.083,-1.037 0.694,-1.673 0.615,-0.635 0.904,-0.712 1.27,-0.741 h 7.603 c 0,0 0.5,0.014 0.915,0.339 0.416,0.325 0.643,0.585 0.85,0.925 0.208,0.338 0.238,0.769 0.238,0.769 v 4.553 c -0.012,0.194 -0.057,0.478 -0.282,0.717 l -7.14,5.281 c -0.14,0.139 -0.076,0.721 -0.076,1.363 0,0.642 1.306,0.678 1.602,0.678 0.295,0 1.162,-0.005 1.469,-0.268 0.302,-0.256 0.336,-0.487 0.346,-0.676 V 0 Z"
             style="fill:#e7e8eb;fill-opacity:1;fill-rule:nonzero;stroke:none"
             id="path230"
             inkscape:connector-curvature="0" /></g><g
           id="g232"
           transform="translate(527.3799,733.4023)"><path
             d="m 0,0 c -0.013,-0.189 -0.046,-0.421 -0.348,-0.676 -0.305,-0.263 -1.173,-0.27 -1.47,-0.27 h -1.594 v 4.147 h 1.594 c 0.297,0 1.165,-0.005 1.47,-0.268 C -0.046,2.678 -0.013,2.446 0,2.257 Z M 3.023,5.252 C 2.092,6.216 0.864,6.344 0.076,6.376 h -7.568 v -17.619 h 4.08 v 7.339 h 1.461 c 0.658,0 0.963,-0.078 1.262,-0.307 C -0.398,-4.428 0,-4.851 0,-5.686 v -5.557 h 4.081 v 5.447 c -0.03,0.686 -0.129,1.571 -1.058,2.533 -0.395,0.409 -0.845,0.669 -1.294,0.831 0.449,0.165 0.899,0.422 1.294,0.832 0.929,0.962 1.028,1.849 1.058,2.534 V 2.72 C 4.051,3.405 3.952,4.29 3.023,5.252"
             style="fill:#e7e8eb;fill-opacity:1;fill-rule:nonzero;stroke:none"
             id="path234"
             inkscape:connector-curvature="0" /></g><g
           id="g236"
           transform="translate(448.1357,725.8291)"><path
             d="m 0,0 c 0,-0.642 1.306,-0.678 1.6,-0.678 0.297,0 1.164,0.005 1.47,0.269 0.3,0.257 0.335,0.489 0.347,0.678 v 1.165 h 4.082 v -2.69 C 7.479,-1.709 7.414,-2.292 6.8,-2.929 6.186,-3.563 5.895,-3.641 5.53,-3.669 h -7.6 c 0,0 -0.502,0.013 -0.917,0.338 -0.415,0.325 -0.644,0.585 -0.85,0.925 -0.209,0.339 -0.237,0.769 -0.237,0.769 v 13.552 c 0,0 0.028,0.432 0.237,0.77 0.206,0.338 0.435,0.601 0.85,0.924 0.415,0.325 0.917,0.34 0.917,0.34 h 7.6 C 5.895,13.919 6.186,13.843 6.8,13.207 7.414,12.572 7.479,11.988 7.499,11.535 V 8.846 H 3.417 v 1.165 C 3.405,10.2 3.37,10.432 3.07,10.687 2.764,10.95 1.897,10.956 1.6,10.956 1.306,10.956 0,10.919 0,10.277 Z"
             style="fill:#e7e8eb;fill-opacity:1;fill-rule:nonzero;stroke:none"
             id="path238"
             inkscape:connector-curvature="0" /></g><g
           id="g240"
           transform="translate(381.4258,725.8291)"><path
             d="m 0,0 c 0,-0.642 1.307,-0.678 1.601,-0.678 0.301,0 1.165,0.005 1.472,0.269 0.301,0.257 0.332,0.489 0.347,0.678 v 1.165 h 4.079 v -2.69 C 7.482,-1.709 7.415,-2.292 6.801,-2.929 6.185,-3.563 5.896,-3.641 5.53,-3.669 h -7.6 c 0,0 -0.502,0.013 -0.915,0.338 -0.417,0.325 -0.644,0.585 -0.851,0.925 -0.211,0.339 -0.237,0.769 -0.237,0.769 v 13.552 c 0,0 0.026,0.432 0.237,0.77 0.207,0.338 0.434,0.601 0.851,0.924 0.413,0.325 0.915,0.34 0.915,0.34 h 7.6 c 0.366,-0.03 0.655,-0.106 1.271,-0.742 0.614,-0.635 0.681,-1.219 0.698,-1.672 V 8.846 H 3.42 v 1.165 C 3.405,10.2 3.374,10.432 3.073,10.687 2.766,10.95 1.902,10.956 1.601,10.956 1.307,10.956 0,10.919 0,10.277 Z"
             style="fill:#e7e8eb;fill-opacity:1;fill-rule:nonzero;stroke:none"
             id="path242"
             inkscape:connector-curvature="0" /></g><g
           id="g244"
           transform="translate(398.1182,725.8291)"><path
             d="m 0,0 c 0,-0.642 -1.416,-0.678 -1.712,-0.678 -0.295,0 -1.71,0.036 -1.71,0.678 v 10.277 c 0,0.642 1.415,0.679 1.71,0.679 C -1.416,10.956 0,10.919 0,10.277 Z M 3.836,12.685 C 3.632,13.023 3.4,13.286 2.985,13.609 2.572,13.934 2.07,13.949 2.07,13.949 h -7.563 c 0,0 -0.502,-0.015 -0.917,-0.34 -0.415,-0.323 -0.644,-0.586 -0.849,-0.924 -0.208,-0.338 -0.24,-0.77 -0.24,-0.77 V -1.637 c 0,0 0.032,-0.43 0.24,-0.769 0.205,-0.34 0.434,-0.6 0.849,-0.925 0.415,-0.325 0.917,-0.338 0.917,-0.338 H 2.07 c 0,0 0.502,0.013 0.915,0.338 0.415,0.325 0.647,0.585 0.851,0.925 0.207,0.339 0.238,0.769 0.238,0.769 v 13.552 c 0,0 -0.031,0.432 -0.238,0.77"
             style="fill:#e7e8eb;fill-opacity:1;fill-rule:nonzero;stroke:none"
             id="path246"
             inkscape:connector-curvature="0" /></g><g
           id="g248"
           transform="translate(493.4902,739.7783)"><path
             d="m 0,0 h -11.246 v -3.9 h 3.586 v -13.719 h 4.077 V -3.9 H 0 Z"
             style="fill:#e7e8eb;fill-opacity:1;fill-rule:nonzero;stroke:none"
             id="path250"
             inkscape:connector-curvature="0" /></g><g
           id="g252"
           transform="translate(468.3965,739.7783)"><path
             d="m 0,0 h -11.24 v -3.9 h 3.578 v -13.719 h 4.08 V -3.9 H 0 Z"
             style="fill:#e7e8eb;fill-opacity:1;fill-rule:nonzero;stroke:none"
             id="path254"
             inkscape:connector-curvature="0" /></g><g
           id="g256"
           transform="translate(511.8027,725.457)"><path
             d="M 0,0 V 4.337 H 5.45 V 7.439 H 0 v 3.584 h 6.189 v 3.298 H -4.048 -4.08 V -3.297 H -4.048 6.443 V 0 Z"
             style="fill:#e7e8eb;fill-opacity:1;fill-rule:nonzero;stroke:none"
             id="path258"
             inkscape:connector-curvature="0" /></g><g
           id="g260"
           transform="translate(474.1621,725.457)"><path
             d="M 0,0 V 4.337 H 5.453 V 7.439 H 0 v 3.584 h 6.191 v 3.298 H -4.047 -4.081 V -3.297 H -4.047 6.445 V 0 Z"
             style="fill:#e7e8eb;fill-opacity:1;fill-rule:nonzero;stroke:none"
             id="path262"
             inkscape:connector-curvature="0" /></g><g
           id="g264"
           transform="translate(435.8789,725.457)"><path
             d="M 0,0 V 4.337 H 5.455 V 7.439 H 0 v 3.584 h 6.192 v 3.298 H -4.044 -4.079 V -3.297 h 0.035 10.49 V 0 Z"
             style="fill:#e7e8eb;fill-opacity:1;fill-rule:nonzero;stroke:none"
             id="path266"
             inkscape:connector-curvature="0" /></g><g
           id="g268"
           transform="translate(412.3926,729.2002)"><path
             d="m 0,0 -3.259,10.578 h -4.86 V -7.041 h 4.082 V 3.921 L -0.682,-7.041 H 4.08 V 10.578 H 0 Z"
             style="fill:#e7e8eb;fill-opacity:1;fill-rule:nonzero;stroke:none"
             id="path270"
             inkscape:connector-curvature="0" /></g><g
           id="g272"
           transform="translate(501.7139,739.7764)"><path
             d="m 0,0 v -13.947 c 0,-0.642 -1.126,-0.678 -1.424,-0.678 -0.294,0 -1.421,0.036 -1.421,0.678 V 0 H -6.92 v -15.585 c 0,0 0.031,-0.43 0.238,-0.769 0.207,-0.339 0.437,-0.6 0.849,-0.925 0.416,-0.324 0.916,-0.338 0.916,-0.338 h 6.99 c 0,0 0.5,0.014 0.915,0.338 0.414,0.325 0.643,0.586 0.851,0.925 0.205,0.339 0.237,0.769 0.237,0.769 L 4.076,0 Z"
             style="fill:#e7e8eb;fill-opacity:1;fill-rule:nonzero;stroke:none"
             id="path274"
             inkscape:connector-curvature="0" /></g><path
           d="m 456.302,765.59 h 4.754 v -20.53 h -4.754 z"
           style="fill:#e7e8eb;fill-opacity:1;fill-rule:nonzero;stroke:none"
           id="path276"
           inkscape:connector-curvature="0" /><g
           id="g278"
           transform="translate(511.2637,762.6787)"><path
             d="M 0,0 -2.488,-7.771 -4.97,0 h -4.201 v -17.619 h 4.155 v 6.73 l 2.528,-6.73 2.532,6.73 v -6.73 H 4.202 V 0 Z"
             style="fill:#e7e8eb;fill-opacity:1;fill-rule:nonzero;stroke:none"
             id="path280"
             inkscape:connector-curvature="0" /></g><g
           id="g282"
           transform="translate(487.2637,757.5752)"><path
             d="M 0,0 V 2.688 C -0.02,3.141 -0.086,3.726 -0.697,4.361 -1.313,4.996 -1.603,5.074 -1.97,5.104 h -7.599 c 0,0 -0.502,-0.016 -0.916,-0.34 -0.417,-0.324 -0.644,-0.585 -0.852,-0.925 -0.205,-0.338 -0.235,-0.77 -0.235,-0.77 v -4.342 c 0.01,-0.195 0.054,-0.478 0.281,-0.718 l 7.09,-5.245 c 0.185,-0.268 0.179,-0.653 0.128,-1.293 -0.053,-0.658 -0.901,-0.749 -1.41,-0.762 -0.555,-0.014 -1.329,0.007 -1.65,0.281 -0.311,0.267 -0.344,0.508 -0.361,0.706 v 1.382 h -4.078 v -3.181 c 0.016,-0.452 0.086,-1.036 0.696,-1.671 0.615,-0.635 0.905,-0.712 1.272,-0.742 h 7.602 c 0,0 0.499,0.014 0.914,0.338 0.417,0.326 0.643,0.586 0.852,0.926 0.207,0.338 0.236,0.769 0.236,0.769 v 4.553 c -0.01,0.194 -0.059,0.477 -0.282,0.718 l -7.138,5.28 c -0.142,0.139 -0.078,0.723 -0.078,1.364 0,0.644 1.306,0.678 1.602,0.678 0.296,0 1.163,-0.006 1.469,-0.268 0.301,-0.257 0.332,-0.488 0.346,-0.678 V 0 Z"
             style="fill:#e7e8eb;fill-opacity:1;fill-rule:nonzero;stroke:none"
             id="path284"
             inkscape:connector-curvature="0" /></g><g
           id="g286"
           transform="translate(584.4834,756.3022)"><path
             d="m 0,0 c -0.013,-0.189 -0.044,-0.421 -0.345,-0.676 -0.308,-0.263 -1.174,-0.269 -1.469,-0.269 h -1.598 v 4.147 h 1.598 c 0.295,0 1.161,-0.006 1.469,-0.268 C -0.044,2.678 -0.013,2.446 0,2.257 Z M 3.022,5.252 C 2.094,6.215 0.863,6.344 0.077,6.376 h -7.57 v -17.619 h 4.081 v 7.34 h 1.46 c 0.658,0 0.964,-0.08 1.265,-0.306 C -0.399,-4.428 0,-4.851 0,-5.687 v -5.556 h 4.082 v 5.447 c -0.029,0.685 -0.128,1.571 -1.06,2.535 -0.396,0.408 -0.847,0.666 -1.293,0.83 0.446,0.166 0.897,0.421 1.293,0.831 0.932,0.963 1.031,1.848 1.06,2.535 V 2.72 C 4.053,3.406 3.954,4.292 3.022,5.252"
             style="fill:#e7e8eb;fill-opacity:1;fill-rule:nonzero;stroke:none"
             id="path288"
             inkscape:connector-curvature="0" /></g><g
           id="g290"
           transform="translate(470.6377,757.5752)"><path
             d="m 0,0 v -1.28 c -0.015,-0.191 -0.048,-0.422 -0.348,-0.678 -0.307,-0.263 -1.173,-0.268 -1.467,-0.268 h -1.598 v 4.155 h 1.598 c 0.294,0 1.16,-0.006 1.467,-0.268 C -0.048,1.405 -0.015,1.173 0,0.984 V 0.292 Z M 3.023,3.979 C 2.091,4.942 0.864,5.071 0.079,5.104 H -7.492 V 3.069 -12.516 h 4.079 V -5.4 h 3.492 c 0.785,0.032 2.012,0.16 2.944,1.124 0.929,0.96 1.028,1.847 1.056,2.533 V 0 0.292 1.447 C 4.051,2.133 3.952,3.019 3.023,3.979"
             style="fill:#e7e8eb;fill-opacity:1;fill-rule:nonzero;stroke:none"
             id="path292"
             inkscape:connector-curvature="0" /></g><g
           id="g294"
           transform="translate(571.1836,748.7295)"><path
             d="m 0,0 c 0,-0.642 -1.417,-0.676 -1.715,-0.676 -0.296,0 -1.711,0.034 -1.711,0.676 v 10.278 c 0,0.643 1.415,0.678 1.711,0.678 0.298,0 1.715,-0.035 1.715,-0.678 z m 3.835,12.685 c -0.206,0.339 -0.436,0.601 -0.85,0.925 -0.413,0.324 -0.914,0.339 -0.914,0.339 h -7.567 c 0,0 -0.503,-0.015 -0.916,-0.339 -0.415,-0.324 -0.641,-0.586 -0.851,-0.925 -0.209,-0.338 -0.238,-0.77 -0.238,-0.77 V -1.638 c 0,0 0.029,-0.43 0.238,-0.768 0.21,-0.34 0.436,-0.6 0.851,-0.926 0.413,-0.324 0.916,-0.338 0.916,-0.338 h 7.567 c 0,0 0.501,0.014 0.914,0.338 0.414,0.326 0.644,0.586 0.85,0.926 0.207,0.338 0.24,0.768 0.24,0.768 v 13.553 c 0,0 -0.033,0.432 -0.24,0.77"
             style="fill:#e7e8eb;fill-opacity:1;fill-rule:nonzero;stroke:none"
             id="path296"
             inkscape:connector-curvature="0" /></g><g
           id="g298"
           transform="translate(546.4697,748.7295)"><path
             d="m 0,0 c 0,-0.642 -1.417,-0.676 -1.713,-0.676 -0.297,0 -1.712,0.034 -1.712,0.676 v 10.278 c 0,0.643 1.415,0.678 1.712,0.678 C -1.417,10.956 0,10.921 0,10.278 Z M 3.834,12.685 C 3.628,13.024 3.402,13.286 2.987,13.61 2.57,13.934 2.072,13.949 2.072,13.949 h -7.565 c 0,0 -0.503,-0.015 -0.917,-0.339 -0.416,-0.324 -0.645,-0.586 -0.851,-0.925 -0.208,-0.338 -0.237,-0.77 -0.237,-0.77 V -1.638 c 0,0 0.029,-0.43 0.237,-0.768 0.206,-0.34 0.435,-0.6 0.851,-0.926 0.414,-0.324 0.917,-0.338 0.917,-0.338 h 7.565 c 0,0 0.498,0.014 0.915,0.338 0.415,0.326 0.641,0.586 0.847,0.926 0.21,0.338 0.241,0.768 0.241,0.768 v 13.553 c 0,0 -0.031,0.432 -0.241,0.77"
             style="fill:#e7e8eb;fill-opacity:1;fill-rule:nonzero;stroke:none"
             id="path300"
             inkscape:connector-curvature="0" /></g><g
           id="g302"
           transform="translate(555.9785,748.3574)"><path
             d="M 0,0 V 14.321 H -4.078 V -3.298 H 6.12 V 0 Z"
             style="fill:#e7e8eb;fill-opacity:1;fill-rule:nonzero;stroke:none"
             id="path304"
             inkscape:connector-curvature="0" /></g><g
           id="g306"
           transform="translate(382.0352,748.9019)"><path
             d="M 0,0 V 16.688 H -4.753 V -3.842 H 7.139 V 0 Z"
             style="fill:#e7e8eb;fill-opacity:1;fill-rule:nonzero;stroke:none"
             id="path308"
             inkscape:connector-curvature="0" /></g><g
           id="g310"
           transform="translate(438.959,762.6787)"><path
             d="M 0,0 -2.484,-7.771 -4.969,0 h -4.204 v -17.619 h 4.157 v 6.73 l 2.532,-6.73 2.53,6.73 v -6.73 H 4.203 V 0 Z"
             style="fill:#e7e8eb;fill-opacity:1;fill-rule:nonzero;stroke:none"
             id="path312"
             inkscape:connector-curvature="0" /></g><g
           id="g314"
           transform="translate(411.873,756.3022)"><path
             d="M 0,0 C -0.013,-0.189 -0.047,-0.421 -0.346,-0.676 -0.652,-0.939 -1.521,-0.945 -1.815,-0.945 H -3.41 v 4.147 h 1.595 c 0.294,0 1.163,-0.006 1.469,-0.268 C -0.047,2.678 -0.013,2.446 0,2.257 Z M 3.023,5.252 C 2.093,6.215 0.866,6.344 0.077,6.376 h -7.57 v -17.619 h 4.083 v 7.34 h 1.46 c 0.655,0 0.962,-0.08 1.263,-0.306 C -0.397,-4.428 0,-4.851 0,-5.687 v -5.556 h 4.079 v 5.447 c -0.025,0.685 -0.125,1.571 -1.056,2.535 -0.396,0.408 -0.846,0.666 -1.293,0.83 0.447,0.166 0.897,0.421 1.293,0.831 0.931,0.963 1.031,1.848 1.056,2.535 V 2.72 C 4.054,3.406 3.954,4.292 3.023,5.252"
             style="fill:#e7e8eb;fill-opacity:1;fill-rule:nonzero;stroke:none"
             id="path316"
             inkscape:connector-curvature="0" /></g><g
           id="g318"
           transform="translate(398.5713,748.7295)"><path
             d="m 0,0 c 0,-0.642 -1.414,-0.676 -1.712,-0.676 -0.295,0 -1.712,0.034 -1.712,0.676 v 10.278 c 0,0.643 1.417,0.678 1.712,0.678 C -1.414,10.956 0,10.921 0,10.278 Z M 3.839,12.685 C 3.63,13.024 3.403,13.286 2.988,13.61 2.571,13.934 2.071,13.949 2.071,13.949 h -7.566 c 0,0 -0.501,-0.015 -0.915,-0.339 -0.414,-0.324 -0.641,-0.586 -0.849,-0.925 -0.207,-0.338 -0.238,-0.77 -0.238,-0.77 V -1.638 c 0,0 0.031,-0.43 0.238,-0.768 0.208,-0.34 0.435,-0.6 0.849,-0.926 0.414,-0.324 0.915,-0.338 0.915,-0.338 h 7.566 c 0,0 0.5,0.014 0.917,0.338 0.415,0.326 0.642,0.586 0.851,0.926 0.206,0.338 0.237,0.768 0.237,0.768 v 13.553 c 0,0 -0.031,0.432 -0.237,0.77"
             style="fill:#e7e8eb;fill-opacity:1;fill-rule:nonzero;stroke:none"
             id="path320"
             inkscape:connector-curvature="0" /></g><g
           id="g322"
           transform="translate(421.8857,748.3574)"><path
             d="M 0,0 V 4.337 H 5.453 V 7.439 H 0 v 3.584 h 6.19 v 3.298 H -4.047 -4.08 V -3.298 H -4.047 6.448 V 0 Z"
             style="fill:#e7e8eb;fill-opacity:1;fill-rule:nonzero;stroke:none"
             id="path324"
             inkscape:connector-curvature="0" /></g><g
           id="g326"
           transform="translate(496.085,762.6787)"><path
             d="m 0,0 v -13.949 c 0,-0.642 -1.127,-0.678 -1.422,-0.678 -0.295,0 -1.424,0.036 -1.424,0.678 V 0 H -6.92 v -15.587 c 0,0 0.03,-0.43 0.238,-0.768 0.208,-0.34 0.436,-0.602 0.849,-0.926 0.415,-0.325 0.918,-0.338 0.918,-0.338 h 6.986 c 0,0 0.5,0.013 0.914,0.338 0.416,0.324 0.647,0.586 0.851,0.926 0.208,0.338 0.238,0.768 0.238,0.768 V 0 Z"
             style="fill:#e7e8eb;fill-opacity:1;fill-rule:nonzero;stroke:none"
             id="path328"
             inkscape:connector-curvature="0" /></g><g
           id="g330"
           transform="translate(533.6387,749.1797)"><path
             d="M 0,0 C -0.015,-0.19 -0.047,-0.422 -0.347,-0.678 -0.655,-0.94 -1.521,-0.947 -1.815,-0.947 h -1.596 l -0.002,11.272 h 1.596 c 0.296,0 1.162,-0.006 1.47,-0.267 0.3,-0.257 0.332,-0.49 0.346,-0.679 z m -7.493,-4.12 h 4.082 3.49 c 0.786,0.032 2.014,0.16 2.942,1.122 0.932,0.962 1.029,1.848 1.059,2.533 V 9.842 c -0.03,0.686 -0.127,1.572 -1.059,2.533 -0.928,0.963 -2.156,1.092 -2.942,1.124 h -7.572 z"
             style="fill:#e7e8eb;fill-opacity:1;fill-rule:nonzero;stroke:none"
             id="path332"
             inkscape:connector-curvature="0" /></g><path
           d="m 211.95,773.2 h 11.833 V 722.106 H 211.95 Z"
           style="fill:#e43c37;fill-opacity:1;fill-rule:nonzero;stroke:none"
           id="path334"
           inkscape:connector-curvature="0" /><g
           id="g336"
           transform="translate(348.7295,765.9521)"><path
             d="M 0,0 -6.185,-19.338 -12.367,0 h -10.456 v -43.846 h 10.345 v 16.751 l 6.293,-16.751 6.298,16.751 V -43.846 H 10.458 V 0 Z"
             style="fill:#e43c37;fill-opacity:1;fill-rule:nonzero;stroke:none"
             id="path338"
             inkscape:connector-curvature="0" /></g><g
           id="g340"
           transform="translate(289.0068,753.2534)"><path
             d="m 0,0 v 6.691 c -0.047,1.127 -0.21,2.583 -1.738,4.163 -1.53,1.582 -2.251,1.772 -3.16,1.845 h -18.918 c 0,0 -1.247,-0.035 -2.279,-0.843 -1.032,-0.808 -1.6,-1.458 -2.116,-2.3 -0.517,-0.844 -0.59,-1.917 -0.59,-1.917 V -3.17 c 0.026,-0.484 0.138,-1.188 0.7,-1.784 l 17.651,-13.057 c 0.455,-0.667 0.438,-1.623 0.31,-3.216 -0.132,-1.637 -2.242,-1.859 -3.506,-1.894 -1.38,-0.035 -3.305,0.017 -4.104,0.698 -0.777,0.664 -0.861,1.265 -0.899,1.758 v 3.439 h -10.152 v -7.915 c 0.045,-1.125 0.21,-2.581 1.737,-4.161 1.527,-1.581 2.248,-1.773 3.161,-1.845 h 18.915 c 0,0 1.248,0.035 2.281,0.843 1.03,0.808 1.599,1.457 2.115,2.302 0.515,0.841 0.592,1.913 0.592,1.913 v 11.332 c -0.029,0.483 -0.14,1.188 -0.701,1.783 L -18.47,0.167 c -0.348,0.348 -0.193,1.798 -0.193,3.397 0,1.599 3.252,1.687 3.99,1.687 0.737,0 2.89,-0.014 3.655,-0.668 0.746,-0.637 0.831,-1.215 0.862,-1.687 V 0 Z"
             style="fill:#e43c37;fill-opacity:1;fill-rule:nonzero;stroke:none"
             id="path342"
             inkscape:connector-curvature="0" /></g><g
           id="g344"
           transform="translate(247.6279,753.2534)"><path
             d="M 0,0 V -3.187 C -0.034,-3.658 -0.115,-4.234 -0.861,-4.872 -1.626,-5.527 -3.78,-5.539 -4.519,-5.539 H -8.492 V 4.802 h 3.973 c 0.739,0 2.893,-0.014 3.658,-0.669 C -0.115,3.497 -0.034,2.919 0,2.447 V 0.726 Z M 7.523,9.904 C 5.207,12.3 2.155,12.621 0.196,12.699 h -18.841 v -5.06 -38.786 h 10.153 v 17.709 h 8.688 c 1.959,0.079 5.011,0.399 7.327,2.794 2.314,2.394 2.561,4.598 2.631,6.303 V 0 0.726 3.601 C 10.084,5.309 9.837,7.51 7.523,9.904"
             style="fill:#e43c37;fill-opacity:1;fill-rule:nonzero;stroke:none"
             id="path346"
             inkscape:connector-curvature="0" /></g><g
           id="g348"
           transform="translate(34.9204,731.6694)"><path
             d="M 0,0 V 41.53 H -11.834 V -9.563 H 17.759 V 0 Z"
             style="fill:#e43c37;fill-opacity:1;fill-rule:nonzero;stroke:none"
             id="path350"
             inkscape:connector-curvature="0" /></g><g
           id="g352"
           transform="translate(176.5811,765.9521)"><path
             d="M 0,0 -6.185,-19.338 -12.368,0 h -10.455 v -43.846 h 10.344 v 16.751 l 6.294,-16.751 6.296,16.751 V -43.846 H 10.456 V 0 Z"
             style="fill:#e43c37;fill-opacity:1;fill-rule:nonzero;stroke:none"
             id="path354"
             inkscape:connector-curvature="0" /></g><g
           id="g356"
           transform="translate(109.1738,750.0879)"><path
             d="M 0,0 C -0.034,-0.473 -0.115,-1.049 -0.863,-1.686 -1.626,-2.34 -3.783,-2.354 -4.519,-2.354 H -8.492 V 7.967 h 3.973 c 0.736,0 2.893,-0.014 3.656,-0.669 C -0.115,6.663 -0.034,6.084 0,5.613 Z m 7.523,13.069 c -2.316,2.396 -5.37,2.718 -7.33,2.795 h -18.84 v -43.846 h 10.155 v 18.267 h 3.637 c 1.632,0 2.397,-0.201 3.142,-0.763 C -0.993,-11.022 0,-12.073 0,-14.153 v -13.829 h 10.155 v 13.556 c -0.071,1.707 -0.318,3.91 -2.632,6.306 -0.987,1.018 -2.106,1.661 -3.218,2.069 1.112,0.41 2.231,1.049 3.218,2.068 2.314,2.396 2.561,4.598 2.632,6.306 v 4.443 c -0.071,1.708 -0.318,3.91 -2.632,6.303"
             style="fill:#e43c37;fill-opacity:1;fill-rule:nonzero;stroke:none"
             id="path358"
             inkscape:connector-curvature="0" /></g><g
           id="g360"
           transform="translate(76.0708,731.2422)"><path
             d="m 0,0 c 0,-1.601 -3.523,-1.687 -4.261,-1.687 -0.735,0 -4.261,0.086 -4.261,1.687 v 25.576 c 0,1.598 3.526,1.686 4.261,1.686 0.738,0 4.261,-0.088 4.261,-1.686 z m 9.548,31.567 c -0.515,0.843 -1.081,1.492 -2.115,2.3 -1.031,0.808 -2.28,0.843 -2.28,0.843 h -18.825 c 0,0 -1.249,-0.035 -2.281,-0.843 -1.034,-0.808 -1.598,-1.457 -2.116,-2.3 -0.516,-0.844 -0.592,-1.917 -0.592,-1.917 V -4.078 c 0,0 0.076,-1.071 0.592,-1.913 0.518,-0.844 1.082,-1.493 2.116,-2.302 1.032,-0.808 2.281,-0.843 2.281,-0.843 H 5.153 c 0,0 1.249,0.035 2.28,0.843 1.034,0.809 1.6,1.458 2.115,2.302 0.518,0.842 0.596,1.913 0.596,1.913 V 29.65 c 0,0 -0.078,1.073 -0.596,1.917"
             style="fill:#e43c37;fill-opacity:1;fill-rule:nonzero;stroke:none"
             id="path362"
             inkscape:connector-curvature="0" /></g><g
           id="g364"
           transform="translate(134.0933,730.314)"><path
             d="m 0,0 v 10.793 h 13.568 v 7.72 H 0 v 8.918 h 15.408 v 8.207 H -10.07 -10.155 V -8.208 h 0.085 26.113 V 0 Z"
             style="fill:#e43c37;fill-opacity:1;fill-rule:nonzero;stroke:none"
             id="path366"
             inkscape:connector-curvature="0" /></g><g
           id="g368"
           transform="translate(310.9619,765.9512)"><path
             d="m 0,0 v -34.71 c 0,-1.6 -2.806,-1.689 -3.544,-1.689 -0.734,0 -3.54,0.089 -3.54,1.689 V 0 h -10.139 v -38.787 c 0,0 0.075,-1.071 0.589,-1.913 0.517,-0.844 1.085,-1.494 2.116,-2.302 1.035,-0.809 2.282,-0.843 2.282,-0.843 H 5.15 c 0,0 1.247,0.034 2.279,0.843 1.034,0.808 1.6,1.458 2.119,2.302 0.515,0.842 0.591,1.913 0.591,1.913 V 0 Z"
             style="fill:#e43c37;fill-opacity:1;fill-rule:nonzero;stroke:none"
             id="path370"
             inkscape:connector-curvature="0" /></g></g></g></g></svg>