<?xml version="1.0" encoding="UTF-8" standalone="no"?>
<!-- Created with Inkscape (http://www.inkscape.org/) -->

<svg
   xmlns:dc="http://purl.org/dc/elements/1.1/"
   xmlns:cc="http://creativecommons.org/ns#"
   xmlns:rdf="http://www.w3.org/1999/02/22-rdf-syntax-ns#"
   xmlns:svg="http://www.w3.org/2000/svg"
   xmlns="http://www.w3.org/2000/svg"
   xmlns:sodipodi="http://sodipodi.sourceforge.net/DTD/sodipodi-0.dtd"
   xmlns:inkscape="http://www.inkscape.org/namespaces/inkscape"
   version="1.1"
   id="svg2"
   xml:space="preserve"
   width="793.70667"
   height="1053.1414"
   viewBox="0 0 793.70667 1053.1414"
   sodipodi:docname="showcase_may77_5.svg"
   inkscape:version="0.92.2 5c3e80d, 2017-08-06"><metadata
     id="metadata8"><rdf:RDF><cc:Work
         rdf:about=""><dc:format>image/svg+xml</dc:format><dc:type
           rdf:resource="http://purl.org/dc/dcmitype/StillImage" /><dc:title></dc:title></cc:Work></rdf:RDF></metadata><defs
     id="defs6"><clipPath
       clipPathUnits="userSpaceOnUse"
       id="clipPath18"><path
         d="M 0,789.856 H 595.28 V 0 H 0 Z"
         id="path16"
         inkscape:connector-curvature="0" /></clipPath><clipPath
       clipPathUnits="userSpaceOnUse"
       id="clipPath30"><path
         d="M 0,789.856 H 595.28 V 0 H 0 Z"
         id="path28"
         inkscape:connector-curvature="0" /></clipPath></defs><sodipodi:namedview
     pagecolor="#ffffff"
     bordercolor="#666666"
     borderopacity="1"
     objecttolerance="10"
     gridtolerance="10"
     guidetolerance="10"
     inkscape:pageopacity="0"
     inkscape:pageshadow="2"
     inkscape:window-width="1920"
     inkscape:window-height="1036"
     id="namedview4"
     showgrid="false"
     inkscape:zoom="0.44818295"
     inkscape:cx="-306.6103"
     inkscape:cy="574.79745"
     inkscape:window-x="0"
     inkscape:window-y="20"
     inkscape:window-maximized="0"
     inkscape:current-layer="g24" /><g
     id="g10"
     inkscape:groupmode="layer"
     inkscape:label="showd"
     transform="matrix(1.3333333,0,0,-1.3333333,0,1053.1413)"><g
       id="g12"><g
         id="g14"
         clip-path="url(#clipPath18)"><path
           d="m 583.743,724.996 h -53.325 v 53.325 h 53.325 z m 0,-64.86 h -53.325 v 53.325 h 53.325 z m 0,-64.86 h -53.325 v 53.325 h 53.325 z m 0,-64.86 h -53.325 v 53.325 h 53.325 z m 0,-64.86 h -53.325 v 53.325 h 53.325 z m 0,-64.86 h -53.325 v 53.325 h 53.325 z m 0,-64.861 h -53.325 v 53.326 h 53.325 z m 0,-64.859 h -53.325 v 53.326 h 53.325 z m 0,-64.86 h -53.325 v 53.324 h 53.325 z m 0,-64.859 h -53.325 v 53.324 h 53.325 z m 0,-64.861 h -53.325 v 53.326 h 53.325 z m 0,-64.86 h -53.325 v 53.326 h 53.325 z m -64.86,713.46 h -53.325 v 53.325 h 53.325 z m 0,-64.86 h -53.325 v 53.325 h 53.325 z m 0,-64.86 h -53.325 v 53.325 h 53.325 z m 0,-64.86 h -53.325 v 53.325 h 53.325 z m 0,-64.86 h -53.325 v 53.325 h 53.325 z m 0,-64.86 h -53.325 v 53.325 h 53.325 z m 0,-64.861 h -53.325 v 53.326 h 53.325 z m 0,-64.859 h -53.325 v 53.326 h 53.325 z m 0,-64.86 h -53.325 v 53.324 h 53.325 z m 0,-64.859 h -53.325 v 53.324 h 53.325 z m 0,-64.861 h -53.325 v 53.326 h 53.325 z m 0,-64.86 h -53.325 v 53.326 h 53.325 z m -64.861,713.46 h -53.325 v 53.325 h 53.325 z m 0,-64.86 h -53.325 v 53.325 h 53.325 z m 0,-64.86 h -53.325 v 53.325 h 53.325 z m 0,-64.86 h -53.325 v 53.325 h 53.325 z m 0,-64.86 h -53.325 v 53.325 h 53.325 z m 0,-64.86 h -53.325 v 53.325 h 53.325 z m 0,-64.861 h -53.325 v 53.326 h 53.325 z m 0,-64.859 h -53.325 v 53.326 h 53.325 z m 0,-64.86 h -53.325 v 53.324 h 53.325 z m 0,-64.859 h -53.325 v 53.324 h 53.325 z m 0,-64.861 h -53.325 v 53.326 h 53.325 z m 0,-64.86 h -53.325 v 53.326 h 53.325 z m -64.859,713.46 h -53.325 v 53.325 h 53.325 z m 0,-64.86 h -53.325 v 53.325 h 53.325 z m 0,-64.86 h -53.325 v 53.325 h 53.325 z m 0,-64.86 h -53.325 v 53.325 h 53.325 z m 0,-64.86 h -53.325 v 53.325 h 53.325 z m 0,-64.86 h -53.325 v 53.325 h 53.325 z m 0,-64.861 h -53.325 v 53.326 h 53.325 z m 0,-64.859 h -53.325 v 53.326 h 53.325 z m 0,-64.86 h -53.325 v 53.324 h 53.325 z m 0,-64.859 h -53.325 v 53.324 h 53.325 z m 0,-64.861 h -53.325 v 53.326 h 53.325 z m 0,-64.86 h -53.325 v 53.326 h 53.325 z m -64.86,713.46 h -53.325 v 53.325 h 53.325 z m 0,-64.86 h -53.325 v 53.325 h 53.325 z m 0,-64.86 h -53.325 v 53.325 h 53.325 z m 0,-64.86 h -53.325 v 53.325 h 53.325 z m 0,-64.86 h -53.325 v 53.325 h 53.325 z m 0,-64.86 h -53.325 v 53.325 h 53.325 z m 0,-64.861 h -53.325 v 53.326 h 53.325 z m 0,-64.859 h -53.325 v 53.326 h 53.325 z m 0,-64.86 h -53.325 v 53.324 h 53.325 z m 0,-64.859 h -53.325 v 53.324 h 53.325 z m 0,-64.861 h -53.325 v 53.326 h 53.325 z m 0,-64.86 h -53.325 v 53.326 h 53.325 z m -64.86,713.46 h -53.326 v 53.325 h 53.326 z m 0,-64.86 h -53.326 v 53.325 h 53.326 z m 0,-64.86 h -53.326 v 53.325 h 53.326 z m 0,-64.86 h -53.326 v 53.325 h 53.326 z m 0,-64.86 h -53.326 v 53.325 h 53.326 z m 0,-64.86 h -53.326 v 53.325 h 53.326 z m 0,-64.861 h -53.326 v 53.326 h 53.326 z m 0,-64.859 h -53.326 v 53.326 h 53.326 z m 0,-64.86 h -53.326 v 53.324 h 53.326 z m 0,-64.859 h -53.326 v 53.324 h 53.326 z m 0,-64.861 h -53.326 v 53.326 h 53.326 z m 0,-64.86 h -53.326 v 53.326 h 53.326 z m -64.86,713.46 h -53.325 v 53.325 h 53.325 z m 0,-64.86 h -53.325 v 53.325 h 53.325 z m 0,-64.86 h -53.325 v 53.325 h 53.325 z m 0,-64.86 h -53.325 v 53.325 h 53.325 z m 0,-64.86 h -53.325 v 53.325 h 53.325 z m 0,-64.86 h -53.325 v 53.325 h 53.325 z m 0,-64.861 h -53.325 v 53.326 h 53.325 z m 0,-64.859 h -53.325 v 53.326 h 53.325 z m 0,-64.86 h -53.325 v 53.324 h 53.325 z m 0,-64.859 h -53.325 v 53.324 h 53.325 z m 0,-64.861 h -53.325 v 53.326 h 53.325 z m 0,-64.86 h -53.325 v 53.326 h 53.325 z m -64.86,713.46 H 76.398 v 53.325 h 53.325 z m 0,-64.86 H 76.398 v 53.325 h 53.325 z m 0,-64.86 H 76.398 v 53.325 h 53.325 z m 0,-64.86 H 76.398 v 53.325 h 53.325 z m 0,-64.86 H 76.398 v 53.325 h 53.325 z m 0,-64.86 H 76.398 v 53.325 h 53.325 z m 0,-64.861 H 76.398 v 53.326 h 53.325 z m 0,-64.859 H 76.398 v 53.326 h 53.325 z m 0,-64.86 H 76.398 v 53.324 h 53.325 z m 0,-64.859 H 76.398 v 53.324 h 53.325 z m 0,-64.861 H 76.398 v 53.326 h 53.325 z m 0,-64.86 H 76.398 v 53.326 h 53.325 z M 64.862,724.996 H 11.537 v 53.325 h 53.325 z m 0,-64.86 H 11.537 v 53.325 h 53.325 z m 0,-64.86 H 11.537 v 53.325 h 53.325 z m 0,-64.86 H 11.537 v 53.325 h 53.325 z m 0,-64.86 H 11.537 v 53.325 h 53.325 z m 0,-64.86 H 11.537 v 53.325 h 53.325 z m 0,-64.861 H 11.537 v 53.326 h 53.325 z m 0,-64.859 H 11.537 v 53.326 h 53.325 z m 0,-64.86 H 11.537 v 53.324 h 53.325 z m 0,-64.859 H 11.537 v 53.324 h 53.325 z m 0,-64.861 H 11.537 v 53.326 h 53.325 z m 0,-64.86 H 11.537 V 64.862 H 64.862 Z M 0,-0.167 H 595.113 V 789.856 H 0 Z"
           style="fill:none;stroke:#bcbec0;stroke-width:1;stroke-linecap:butt;stroke-linejoin:miter;stroke-miterlimit:10;stroke-dasharray:none;stroke-opacity:1"
           id="path20"
           inkscape:connector-curvature="0" /></g></g><path
       d="M 0,0 H 595.281 V 789.856 H 0 Z"
       style="fill:#9c2b27;fill-opacity:1;fill-rule:nonzero;stroke:none"
       id="path22"
       inkscape:connector-curvature="0" /><g
       id="g24"><flowRoot
         xml:space="preserve"
         id="flowRoot901"
         style="fill:black;stroke:none;stroke-opacity:1;stroke-width:1px;stroke-linejoin:miter;stroke-linecap:butt;fill-opacity:1;font-family:sans-serif;font-style:normal;font-weight:normal;font-size:16px;line-height:25px;letter-spacing:0px;word-spacing:0px;text-anchor:middle;text-align:center"><flowRegion
           id="flowRegion903"><rect
             id="rect905"
             width="484.17728"
             height="486.40851"
             x="-466.32742"
             y="-187.42346" /></flowRegion><flowPara
           id="flowPara907"></flowPara></flowRoot><flowRoot
         xml:space="preserve"
         id="flowRoot909"
         style="font-style:normal;font-weight:normal;font-size:113.33333588px;line-height:25px;font-family:sans-serif;text-align:start;letter-spacing:0px;word-spacing:0px;text-anchor:start;fill:#f9f9f9;fill-opacity:1;stroke:none;stroke-width:1px;stroke-linecap:butt;stroke-linejoin:miter;stroke-opacity:1"
         transform="matrix(0.75000002,0,0,-0.75000002,490.47342,573.90568)"><flowRegion
           id="flowRegion911"
           style="font-size:113.33333588px;text-align:start;text-anchor:start;fill:#f9f9f9"><rect
             id="rect913"
             width="608.83612"
             height="850.65759"
             x="-555.57666"
             y="-176.2673"
             style="font-size:113.33333588px;text-align:start;text-anchor:start;fill:#f9f9f9" /></flowRegion><flowPara
           id="flowPara915"
           style="font-style:normal;font-variant:normal;font-weight:normal;font-stretch:normal;font-size:96px;line-height:84.99999986px;font-family:May77;-inkscape-font-specification:May77;letter-spacing:1px;fill:#e6e6e6">ABCDEFGHIJKLMNOPQRSTUWXYZ</flowPara><flowPara
           style="font-style:normal;font-variant:normal;font-weight:normal;font-stretch:normal;font-size:96px;line-height:84.99999986px;font-family:May77;-inkscape-font-specification:May77;letter-spacing:1px;fill:#e6e6e6"
           id="flowPara929" /><flowPara
           style="font-style:normal;font-variant:normal;font-weight:normal;font-stretch:normal;font-size:96px;line-height:84.99999986px;font-family:May77;-inkscape-font-specification:May77;letter-spacing:1px;fill:#e6e6e6"
           id="flowPara917">abcdefghijklmnopqrstuwvxyz</flowPara><flowPara
           style="font-style:normal;font-variant:normal;font-weight:normal;font-stretch:normal;font-size:96px;line-height:84.99999986px;font-family:May77;-inkscape-font-specification:May77;letter-spacing:1px;fill:#e6e6e6"
           id="flowPara931" /><flowPara
           style="font-style:normal;font-variant:normal;font-weight:normal;font-stretch:normal;font-size:96px;line-height:84.99999986px;font-family:May77;-inkscape-font-specification:May77;letter-spacing:1px;fill:#e6e6e6"
           id="flowPara921">0123456789</flowPara></flowRoot></g></g></svg>