<?xml version="1.0" encoding="UTF-8" standalone="no"?>
<!-- Created with Inkscape (http://www.inkscape.org/) -->

<svg
   xmlns:dc="http://purl.org/dc/elements/1.1/"
   xmlns:cc="http://creativecommons.org/ns#"
   xmlns:rdf="http://www.w3.org/1999/02/22-rdf-syntax-ns#"
   xmlns:svg="http://www.w3.org/2000/svg"
   xmlns="http://www.w3.org/2000/svg"
   xmlns:sodipodi="http://sodipodi.sourceforge.net/DTD/sodipodi-0.dtd"
   xmlns:inkscape="http://www.inkscape.org/namespaces/inkscape"
   version="1.1"
   id="svg2"
   xml:space="preserve"
   width="793.70667"
   height="1053.1414"
   viewBox="0 0 793.70667 1053.1414"
   sodipodi:docname="showcase_may77_3.svg"
   inkscape:version="0.92.2 5c3e80d, 2017-08-06"><metadata
     id="metadata8"><rdf:RDF><cc:Work
         rdf:about=""><dc:format>image/svg+xml</dc:format><dc:type
           rdf:resource="http://purl.org/dc/dcmitype/StillImage" /><dc:title></dc:title></cc:Work></rdf:RDF></metadata><defs
     id="defs6"><clipPath
       clipPathUnits="userSpaceOnUse"
       id="clipPath18"><path
         d="M 0,789.856 H 595.28 V 0 H 0 Z"
         id="path16"
         inkscape:connector-curvature="0" /></clipPath><clipPath
       clipPathUnits="userSpaceOnUse"
       id="clipPath30"><path
         d="M 0,789.856 H 595.28 V 0 H 0 Z"
         id="path28"
         inkscape:connector-curvature="0" /></clipPath></defs><sodipodi:namedview
     pagecolor="#ffffff"
     bordercolor="#666666"
     borderopacity="1"
     objecttolerance="10"
     gridtolerance="10"
     guidetolerance="10"
     inkscape:pageopacity="0"
     inkscape:pageshadow="2"
     inkscape:window-width="1920"
     inkscape:window-height="1036"
     id="namedview4"
     showgrid="false"
     inkscape:zoom="0.8963659"
     inkscape:cx="285.12564"
     inkscape:cy="836.81217"
     inkscape:window-x="0"
     inkscape:window-y="20"
     inkscape:window-maximized="0"
     inkscape:current-layer="g26" /><g
     id="g10"
     inkscape:groupmode="layer"
     inkscape:label="showd"
     transform="matrix(1.3333333,0,0,-1.3333333,0,1053.1413)"><g
       id="g12"><g
         id="g14"
         clip-path="url(#clipPath18)"><path
           d="m 583.743,724.996 h -53.325 v 53.325 h 53.325 z m 0,-64.86 h -53.325 v 53.325 h 53.325 z m 0,-64.86 h -53.325 v 53.325 h 53.325 z m 0,-64.86 h -53.325 v 53.325 h 53.325 z m 0,-64.86 h -53.325 v 53.325 h 53.325 z m 0,-64.86 h -53.325 v 53.325 h 53.325 z m 0,-64.861 h -53.325 v 53.326 h 53.325 z m 0,-64.859 h -53.325 v 53.326 h 53.325 z m 0,-64.86 h -53.325 v 53.324 h 53.325 z m 0,-64.859 h -53.325 v 53.324 h 53.325 z m 0,-64.861 h -53.325 v 53.326 h 53.325 z m 0,-64.86 h -53.325 v 53.326 h 53.325 z m -64.86,713.46 h -53.325 v 53.325 h 53.325 z m 0,-64.86 h -53.325 v 53.325 h 53.325 z m 0,-64.86 h -53.325 v 53.325 h 53.325 z m 0,-64.86 h -53.325 v 53.325 h 53.325 z m 0,-64.86 h -53.325 v 53.325 h 53.325 z m 0,-64.86 h -53.325 v 53.325 h 53.325 z m 0,-64.861 h -53.325 v 53.326 h 53.325 z m 0,-64.859 h -53.325 v 53.326 h 53.325 z m 0,-64.86 h -53.325 v 53.324 h 53.325 z m 0,-64.859 h -53.325 v 53.324 h 53.325 z m 0,-64.861 h -53.325 v 53.326 h 53.325 z m 0,-64.86 h -53.325 v 53.326 h 53.325 z m -64.861,713.46 h -53.325 v 53.325 h 53.325 z m 0,-64.86 h -53.325 v 53.325 h 53.325 z m 0,-64.86 h -53.325 v 53.325 h 53.325 z m 0,-64.86 h -53.325 v 53.325 h 53.325 z m 0,-64.86 h -53.325 v 53.325 h 53.325 z m 0,-64.86 h -53.325 v 53.325 h 53.325 z m 0,-64.861 h -53.325 v 53.326 h 53.325 z m 0,-64.859 h -53.325 v 53.326 h 53.325 z m 0,-64.86 h -53.325 v 53.324 h 53.325 z m 0,-64.859 h -53.325 v 53.324 h 53.325 z m 0,-64.861 h -53.325 v 53.326 h 53.325 z m 0,-64.86 h -53.325 v 53.326 h 53.325 z m -64.859,713.46 h -53.325 v 53.325 h 53.325 z m 0,-64.86 h -53.325 v 53.325 h 53.325 z m 0,-64.86 h -53.325 v 53.325 h 53.325 z m 0,-64.86 h -53.325 v 53.325 h 53.325 z m 0,-64.86 h -53.325 v 53.325 h 53.325 z m 0,-64.86 h -53.325 v 53.325 h 53.325 z m 0,-64.861 h -53.325 v 53.326 h 53.325 z m 0,-64.859 h -53.325 v 53.326 h 53.325 z m 0,-64.86 h -53.325 v 53.324 h 53.325 z m 0,-64.859 h -53.325 v 53.324 h 53.325 z m 0,-64.861 h -53.325 v 53.326 h 53.325 z m 0,-64.86 h -53.325 v 53.326 h 53.325 z m -64.86,713.46 h -53.325 v 53.325 h 53.325 z m 0,-64.86 h -53.325 v 53.325 h 53.325 z m 0,-64.86 h -53.325 v 53.325 h 53.325 z m 0,-64.86 h -53.325 v 53.325 h 53.325 z m 0,-64.86 h -53.325 v 53.325 h 53.325 z m 0,-64.86 h -53.325 v 53.325 h 53.325 z m 0,-64.861 h -53.325 v 53.326 h 53.325 z m 0,-64.859 h -53.325 v 53.326 h 53.325 z m 0,-64.86 h -53.325 v 53.324 h 53.325 z m 0,-64.859 h -53.325 v 53.324 h 53.325 z m 0,-64.861 h -53.325 v 53.326 h 53.325 z m 0,-64.86 h -53.325 v 53.326 h 53.325 z m -64.86,713.46 h -53.326 v 53.325 h 53.326 z m 0,-64.86 h -53.326 v 53.325 h 53.326 z m 0,-64.86 h -53.326 v 53.325 h 53.326 z m 0,-64.86 h -53.326 v 53.325 h 53.326 z m 0,-64.86 h -53.326 v 53.325 h 53.326 z m 0,-64.86 h -53.326 v 53.325 h 53.326 z m 0,-64.861 h -53.326 v 53.326 h 53.326 z m 0,-64.859 h -53.326 v 53.326 h 53.326 z m 0,-64.86 h -53.326 v 53.324 h 53.326 z m 0,-64.859 h -53.326 v 53.324 h 53.326 z m 0,-64.861 h -53.326 v 53.326 h 53.326 z m 0,-64.86 h -53.326 v 53.326 h 53.326 z m -64.86,713.46 h -53.325 v 53.325 h 53.325 z m 0,-64.86 h -53.325 v 53.325 h 53.325 z m 0,-64.86 h -53.325 v 53.325 h 53.325 z m 0,-64.86 h -53.325 v 53.325 h 53.325 z m 0,-64.86 h -53.325 v 53.325 h 53.325 z m 0,-64.86 h -53.325 v 53.325 h 53.325 z m 0,-64.861 h -53.325 v 53.326 h 53.325 z m 0,-64.859 h -53.325 v 53.326 h 53.325 z m 0,-64.86 h -53.325 v 53.324 h 53.325 z m 0,-64.859 h -53.325 v 53.324 h 53.325 z m 0,-64.861 h -53.325 v 53.326 h 53.325 z m 0,-64.86 h -53.325 v 53.326 h 53.325 z m -64.86,713.46 H 76.398 v 53.325 h 53.325 z m 0,-64.86 H 76.398 v 53.325 h 53.325 z m 0,-64.86 H 76.398 v 53.325 h 53.325 z m 0,-64.86 H 76.398 v 53.325 h 53.325 z m 0,-64.86 H 76.398 v 53.325 h 53.325 z m 0,-64.86 H 76.398 v 53.325 h 53.325 z m 0,-64.861 H 76.398 v 53.326 h 53.325 z m 0,-64.859 H 76.398 v 53.326 h 53.325 z m 0,-64.86 H 76.398 v 53.324 h 53.325 z m 0,-64.859 H 76.398 v 53.324 h 53.325 z m 0,-64.861 H 76.398 v 53.326 h 53.325 z m 0,-64.86 H 76.398 v 53.326 h 53.325 z M 64.862,724.996 H 11.537 v 53.325 h 53.325 z m 0,-64.86 H 11.537 v 53.325 h 53.325 z m 0,-64.86 H 11.537 v 53.325 h 53.325 z m 0,-64.86 H 11.537 v 53.325 h 53.325 z m 0,-64.86 H 11.537 v 53.325 h 53.325 z m 0,-64.86 H 11.537 v 53.325 h 53.325 z m 0,-64.861 H 11.537 v 53.326 h 53.325 z m 0,-64.859 H 11.537 v 53.326 h 53.325 z m 0,-64.86 H 11.537 v 53.324 h 53.325 z m 0,-64.859 H 11.537 v 53.324 h 53.325 z m 0,-64.861 H 11.537 v 53.326 h 53.325 z m 0,-64.86 H 11.537 V 64.862 H 64.862 Z M 0,-0.167 H 595.113 V 789.856 H 0 Z"
           style="fill:none;stroke:#bcbec0;stroke-width:1;stroke-linecap:butt;stroke-linejoin:miter;stroke-miterlimit:10;stroke-dasharray:none;stroke-opacity:1"
           id="path20"
           inkscape:connector-curvature="0" /></g></g><path
       d="M 0,0 H 595.281 V 789.856 H 0 Z"
       style="fill:#9c2b27;fill-opacity:1;fill-rule:nonzero;stroke:none"
       id="path22"
       inkscape:connector-curvature="0" /><g
       id="g24"><g
         id="g26"
         clip-path="url(#clipPath30)"><g
           id="g32"
           transform="translate(123.2383,465.5547)"><path
             d="m 0,0 v 39.285 h -4.672 v 6.256 c 0,0 2.256,1.309 4.147,3.202 1.89,1.89 3.273,4.582 3.273,4.582 H 12.35 L 12.35,0 Z"
             style="fill:#e7e8eb;fill-opacity:1;fill-rule:nonzero;stroke:none"
             id="path34"
             inkscape:connector-curvature="0" /></g><g
           id="g36"
           transform="translate(368.792,518.8804)"><path
             d="m 0,0 h -10.779 v -10.779 -4.244 h 10.778 v 4.244 H 12.124 L -4.608,-53.326 H 7.515 l 16.734,42.547 0,10.779 z"
             style="fill:#e7e8eb;fill-opacity:1;fill-rule:nonzero;stroke:none"
             id="path38"
             inkscape:connector-curvature="0" /></g><g
           id="g40"
           transform="translate(279.748,633.1538)"><path
             d="m 0,0 v -3.873 c -0.042,-0.574 -0.141,-1.275 -1.048,-2.05 -0.931,-0.795 -3.55,-0.812 -4.448,-0.812 h -4.832 V 5.841 h 4.832 c 0.898,0 3.517,-0.017 4.448,-0.812 C -0.141,4.255 -0.042,3.553 0,2.979 V 0.886 Z M 9.147,12.05 C 6.334,14.96 2.619,15.352 0.234,15.446 H -22.679 V 9.293 -37.878 h 12.351 v 21.537 H 0.234 c 2.385,0.094 6.1,0.485 8.913,3.399 2.815,2.911 3.12,5.591 3.204,7.666 V 0 0.886 4.381 C 12.267,6.458 11.962,9.136 9.147,12.05"
             style="fill:#e7e8eb;fill-opacity:1;fill-rule:nonzero;stroke:none"
             id="path42"
             inkscape:connector-curvature="0" /></g><g
           id="g44"
           transform="translate(151.0474,672.605)"><path
             d="m 0,0 c -0.04,-0.575 -0.139,-1.277 -1.047,-2.052 -0.929,-0.794 -3.551,-0.811 -4.448,-0.811 h -5.333 v 13.69 h 5.333 c 0.897,0 3.519,-0.018 4.448,-0.814 C -0.139,9.238 -0.04,8.538 0,7.963 Z m -7.089,31.25 c 0.896,0 3.517,-0.017 4.448,-0.812 0.906,-0.773 1.005,-1.476 1.047,-2.05 v -5.409 c -0.042,-0.572 -0.141,-1.275 -1.047,-2.05 -0.931,-0.795 -3.552,-0.812 -4.448,-0.812 h -3.739 V 31.25 Z M 9.148,12.805 c -1.589,1.646 -3.469,2.486 -5.231,2.924 1.261,0.5 2.52,1.253 3.636,2.409 2.639,2.731 3.071,5.256 3.183,7.271 h 0.021 v 4.382 c -0.087,2.076 -0.389,4.754 -3.204,7.668 -2.814,2.91 -6.529,3.302 -8.911,3.396 h -21.82 v -53.324 h 0.5 22.914 c 2.384,0.095 6.098,0.488 8.912,3.398 2.814,2.911 3.118,5.591 3.203,7.668 v 6.54 c -0.085,2.076 -0.389,4.755 -3.203,7.668"
             style="fill:#e7e8eb;fill-opacity:1;fill-rule:nonzero;stroke:none"
             id="path46"
             inkscape:connector-curvature="0" /></g><g
           id="g48"
           transform="translate(463.3154,648.6011)"><path
             d="m 0,0 h -34.026 v -11.805 h 10.838 v -41.521 h 12.348 v 41.521 H 0 Z"
             style="fill:#e7e8eb;fill-opacity:1;fill-rule:nonzero;stroke:none"
             id="path50"
             inkscape:connector-curvature="0" /></g><g
           id="g52"
           transform="translate(88.749,605.2568)"><path
             d="M 0,0 V 43.343 H -12.35 V -9.981 H 18.534 V 0 Z"
             style="fill:#e7e8eb;fill-opacity:1;fill-rule:nonzero;stroke:none"
             id="path54"
             inkscape:connector-curvature="0" /></g><g
           id="g56"
           transform="translate(269.4199,670.1172)"><path
             d="m 0,0 v 13.127 h 16.502 v 9.387 H 0 v 10.848 h 18.735 v 9.981 h -30.984 -0.102 V -9.981 h 0.102 31.76 V 0 Z"
             style="fill:#e7e8eb;fill-opacity:1;fill-rule:nonzero;stroke:none"
             id="path58"
             inkscape:connector-curvature="0" /></g><g
           id="g60"
           transform="translate(329.0938,703.479)"><path
             d="m 0,0 v 9.981 h -30.985 -0.102 v -53.324 h 12.351 v 23.108 h 16.503 v 9.387 H -18.736 V 0 Z"
             style="fill:#e7e8eb;fill-opacity:1;fill-rule:nonzero;stroke:none"
             id="path62"
             inkscape:connector-curvature="0" /></g><g
           id="g64"
           transform="translate(401.0059,713.4604)"><path
             d="M 0,0 V -19.119 H -10.326 V 0 h -12.352 v -53.325 h 12.352 v 22.402 H 0 V -53.325 H 12.35 V 0 Z"
             style="fill:#e7e8eb;fill-opacity:1;fill-rule:nonzero;stroke:none"
             id="path66"
             inkscape:connector-curvature="0" /></g><g
           id="g68"
           transform="translate(237.0889,672.605)"><path
             d="m 0,0 c -0.042,-0.576 -0.14,-1.278 -1.048,-2.052 -0.93,-0.792 -3.548,-0.812 -4.445,-0.812 h -4.834 l -10e-4,34.117 h 4.832 c 0.898,0 3.518,-0.018 4.448,-0.813 0.908,-0.774 1.006,-1.478 1.047,-2.051 z M -22.679,-12.469 H 0.236 c 2.383,0.095 6.098,0.485 8.912,3.397 2.815,2.912 3.117,5.592 3.203,7.668 v 31.196 c -0.086,2.077 -0.388,4.755 -3.204,7.668 -2.814,2.91 -6.528,3.302 -8.912,3.396 h -22.914 z"
             style="fill:#e7e8eb;fill-opacity:1;fill-rule:nonzero;stroke:none"
             id="path70"
             inkscape:connector-curvature="0" /></g><g
           id="g72"
           transform="translate(93.5845,682.0332)"><path
             d="M 0,0 4.69,18.835 9.379,0 Z m -3.91,31.428 -13.275,-53.325 h 11.733 l 3.071,12.336 h 14.14 L 14.83,-21.897 H 26.563 L 13.288,31.428 Z"
             style="fill:#e7e8eb;fill-opacity:1;fill-rule:nonzero;stroke:none"
             id="path74"
             inkscape:connector-curvature="0" /></g><g
           id="g76"
           transform="translate(480.1992,713.4614)"><path
             d="m 0,0 v -53.326 h 12.349 v 16.105 l 3.079,4.534 10.824,-20.639 H 39.11 L 22.684,-22.002 37.625,0 H 25.184 L 12.349,-18.896 V 0 Z"
             style="fill:#e7e8eb;fill-opacity:1;fill-rule:nonzero;stroke:none"
             id="path78"
             inkscape:connector-curvature="0" /></g><path
           d="m 421.217,660.136 h 12.352 v 53.326 h -12.352 z"
           style="fill:#e7e8eb;fill-opacity:1;fill-rule:nonzero;stroke:none"
           id="path80"
           inkscape:connector-curvature="0" /><g
           id="g82"
           transform="translate(92.1709,530.416)"><path
             d="M 0,0 H 10.627 L 26.396,53.325 H 15.191 L 5.313,19.92 -4.567,53.325 h -11.204 z"
             style="fill:#e7e8eb;fill-opacity:1;fill-rule:nonzero;stroke:none"
             id="path84"
             inkscape:connector-curvature="0" /></g><g
           id="g86"
           transform="translate(114.8545,595.2646)"><path
             d="M 0,0 V 53.325 H 11.568 L 22.405,27.651 33.245,53.325 H 44.814 V 0 H 32.464 V 23.847 L 22.405,0.023 12.35,23.847 V 0 Z"
             style="fill:#e7e8eb;fill-opacity:1;fill-rule:nonzero;stroke:none"
             id="path88"
             inkscape:connector-curvature="0" /></g><g
           id="g90"
           transform="translate(124.3394,583.7417)"><path
             d="m 0,0 10.937,-53.326 h 10.26 l 5.852,17.762 5.847,-17.762 H 43.158 L 54.095,0 H 41.408 L 35.177,-30.946 27.049,-6.288 18.916,-30.946 12.685,0 Z"
             style="fill:#e7e8eb;fill-opacity:1;fill-rule:nonzero;stroke:none"
             id="path92"
             inkscape:connector-curvature="0" /></g><g
           id="g94"
           transform="translate(223.5371,583.7417)"><path
             d="M 0,0 H -12.145 L -19.247,-13.485 -26.351,0 h -12.146 l 13.179,-25.014 -14.915,-28.312 h 12.144 l 8.842,16.785 8.842,-16.785 H 1.736 l -14.913,28.312 z"
             style="fill:#e7e8eb;fill-opacity:1;fill-rule:nonzero;stroke:none"
             id="path96"
             inkscape:connector-curvature="0" /></g><g
           id="g98"
           transform="translate(264.4316,583.7417)"><path
             d="M 0,0 H -2.563 L -12.685,-19.216 -22.807,0 h -12.349 l 16.296,-30.938 v -22.388 h 12.35 v 22.388 L 9.786,0 Z"
             style="fill:#e7e8eb;fill-opacity:1;fill-rule:nonzero;stroke:none"
             id="path100"
             inkscape:connector-curvature="0" /></g><g
           id="g102"
           transform="translate(245.355,486.417)"><path
             d="M 0,0 H -8.721 L 0,15.784 Z M 12.352,0 V 32.462 H -1.473 L -19.439,0 v -10.78 h 0.573 8.05 H 0 V -20.862 H 12.352 V -10.78 H 17.15 V 0 Z"
             style="fill:#e7e8eb;fill-opacity:1;fill-rule:nonzero;stroke:none"
             id="path104"
             inkscape:connector-curvature="0" /></g><g
           id="g106"
           transform="translate(177.6104,511.3276)"><path
             d="M 0,0 C -0.123,1.595 -0.762,3.47 -2.41,5.118 -4.262,6.97 -6.503,7.553 -8.107,7.553 V 7.552 h -18.762 v 0.001 c -1.705,0 -3.848,-0.584 -5.698,-2.436 -1.853,-1.852 -2.435,-4.093 -2.435,-5.698 v -8.797 h 12.35 v 4.182 c 0.042,0.598 0.145,1.33 1.091,2.138 0.971,0.829 3.311,0.892 4.993,0.848 1.535,-0.04 4.101,-0.313 4.261,-2.301 0.157,-1.939 0.178,-3.101 -0.375,-3.914 l -22.32,-26.568 v -10.78 H 0.025 v 10.78 h -18.07 l 15.471,18.371 c 1.658,2.082 2.599,4.351 2.599,6.861 v 9.75 c 0,0 -0.021,0.009 -0.025,0.011"
             style="fill:#e7e8eb;fill-opacity:1;fill-rule:nonzero;stroke:none"
             id="path108"
             inkscape:connector-curvature="0" /></g><g
           id="g110"
           transform="translate(219.061,498.5322)"><path
             d="m 0,0 v 12.214 c 0,1.705 -0.584,3.848 -2.435,5.7 -1.851,1.85 -4.092,2.434 -5.697,2.434 h -18.75 c -0.002,0 -0.002,-10e-4 -0.004,-10e-4 -1.705,-0.001 -3.843,-0.584 -5.695,-2.435 -1.852,-1.852 -2.436,-4.092 -2.436,-5.698 l 0.026,-7.361 h 12.348 l -0.008,3.524 c 0.039,0.575 0.136,1.276 1.04,2.055 0.928,0.797 3.548,0.822 4.447,0.825 0.894,0.002 4.851,-0.093 4.856,-2.037 0.006,-1.945 0.335,-8.838 -0.216,-9.068 -2.559,-1.072 -9.873,-1.315 -9.873,-1.315 v -9.412 c 0,0 7.314,-0.24 9.873,-1.313 0.551,-0.232 0.222,-8.016 0.216,-9.961 -0.005,-1.943 -3.962,-2.038 -4.856,-2.036 -0.899,0.002 -3.519,0.027 -4.447,0.825 -0.904,0.778 -1.001,1.48 -1.04,2.052 l 0.008,3.527 h -12.348 l -0.026,-7.363 c 0,-1.704 0.584,-3.846 2.436,-5.698 1.852,-1.852 4.093,-2.436 5.697,-2.436 h 18.75 c 1.705,0 3.848,0.584 5.699,2.436 1.851,1.852 2.435,4.093 2.435,5.698 v 13.109 C 0,-9.88 -1.637,-7.406 -3.692,-5.869 -1.637,-4.331 0,-1.855 0,0"
             style="fill:#e7e8eb;fill-opacity:1;fill-rule:nonzero;stroke:none"
             id="path112"
             inkscape:connector-curvature="0" /></g><g
           id="g114"
           transform="translate(466.2471,503.3594)"><path
             d="m 0,0 v -6.721 c -0.037,-0.575 -0.137,-1.28 -1.041,-2.058 -0.931,-0.799 -3.556,-0.825 -4.455,-0.827 -0.899,-0.002 -4.861,0.093 -4.866,2.04 V 4.375 c 0.005,1.949 3.967,2.043 4.866,2.042 C -4.597,6.414 -1.972,6.388 -1.041,5.59 -0.137,4.811 -0.037,4.108 0,3.532 L -0.01,0 Z m 9.953,13.082 c -1.851,1.852 -4.094,2.435 -5.699,2.435 v 0.008 h -18.815 l -0.002,-0.008 c -1.704,0 -3.844,-0.584 -5.695,-2.435 -1.851,-1.851 -2.435,-4.094 -2.435,-5.698 V -8.937 c 0,-1.705 0.584,-3.847 2.435,-5.698 1.852,-1.852 4.092,-2.435 5.697,-2.435 H -2.1 c 0.682,0 1.317,0.158 2.16,0.758 v -10.346 c -0.008,-1.949 -3.972,-2.043 -4.869,-2.041 -0.9,0.002 -3.523,0.026 -4.455,0.826 -0.906,0.777 -1.002,1.482 -1.041,2.058 l 0.01,2.116 h -12.398 v -5.975 c 0.013,-0.405 0.205,-3.467 2.435,-5.699 1.852,-1.852 4.092,-2.435 5.697,-2.435 H 4.254 c 1.705,0 3.848,0.583 5.699,2.435 1.851,1.851 2.436,4.094 2.436,5.699 V 7.384 c 0,1.705 -0.585,3.847 -2.436,5.698"
             style="fill:#e7e8eb;fill-opacity:1;fill-rule:nonzero;stroke:none"
             id="path116"
             inkscape:connector-curvature="0" /></g><g
           id="g118"
           transform="translate(326.6807,481.0781)"><path
             d="M 0,0 V 6.72 C 0.037,7.295 0.135,8 1.042,8.777 c 0.93,0.8 3.556,0.826 4.453,0.828 0.899,10e-4 4.861,-0.093 4.867,-2.041 V -4.377 C 10.356,-6.325 6.394,-6.419 5.495,-6.418 4.598,-6.416 1.972,-6.39 1.042,-5.591 0.135,-4.812 0.037,-4.109 0,-3.533 L 0.009,0 Z m -9.953,-13.083 c 1.852,-1.852 4.093,-2.435 5.698,-2.435 v -0.009 H 14.56 l 0.002,0.008 c 1.705,10e-4 3.845,0.584 5.697,2.435 1.849,1.852 2.433,4.094 2.433,5.699 v 16.32 c 0,1.705 -0.584,3.848 -2.433,5.699 -1.853,1.852 -4.094,2.435 -5.699,2.435 H 2.101 c -0.682,0 -1.319,-0.158 -2.159,-0.758 v 10.345 c 0.005,1.95 3.969,2.044 4.868,2.042 0.898,-0.003 3.523,-0.026 4.453,-0.826 0.906,-0.778 1.003,-1.482 1.041,-2.059 l -0.008,-2.115 h 12.396 v 5.975 c -0.011,0.405 -0.202,3.467 -2.433,5.699 -1.853,1.851 -4.094,2.435 -5.699,2.435 H -4.254 c -1.705,0 -3.847,-0.584 -5.699,-2.435 -1.851,-1.851 -2.435,-4.095 -2.435,-5.699 V -7.385 c 0,-1.705 0.584,-3.847 2.435,-5.698"
             style="fill:#e7e8eb;fill-opacity:1;fill-rule:nonzero;stroke:none"
             id="path120"
             inkscape:connector-curvature="0" /></g><g
           id="g122"
           transform="translate(423.3975,477.5474)"><path
             d="m 0,0 c -0.038,-0.575 -0.136,-1.278 -1.043,-2.056 -0.83,-0.715 -3.015,-0.81 -4.11,-0.824 -1.096,0.014 -3.28,0.109 -4.111,0.824 -0.905,0.778 -1.003,1.481 -1.043,2.056 v 7.567 c 0.04,0.576 0.138,1.279 1.043,2.06 0.831,0.712 3.015,0.809 4.111,0.822 1.095,-0.013 3.28,-0.11 4.11,-0.822 C -0.136,8.846 -0.038,8.143 0,7.567 Z m -0.872,30.429 v -5.754 c -0.033,-0.438 -0.113,-0.973 -0.865,-1.567 -0.693,-0.541 -2.505,-0.616 -3.416,-0.625 -0.91,0.009 -2.725,0.084 -3.415,0.625 -0.753,0.594 -0.833,1.129 -0.867,1.567 v 5.754 c 0.034,0.438 0.114,0.971 0.867,1.565 0.69,0.542 2.505,0.615 3.415,0.627 0.911,-0.012 2.723,-0.085 3.416,-0.627 0.752,-0.594 0.832,-1.127 0.865,-1.565 M 10.284,14.677 c -1.263,1.314 -2.113,1.917 -2.866,2.167 0.429,0.316 0.918,0.757 1.505,1.368 1.691,1.762 1.871,3.378 1.918,4.632 v 10.355 c 0,1.705 -0.584,3.847 -2.436,5.699 -1.851,1.851 -4.092,2.435 -5.697,2.435 h -15.722 c -1.705,0 -3.846,-0.584 -5.698,-2.435 -1.851,-1.852 -2.435,-4.093 -2.435,-5.699 V 22.844 c 0.046,-1.254 0.226,-2.87 1.918,-4.632 0.587,-0.611 1.074,-1.052 1.504,-1.368 -0.754,-0.25 -1.602,-0.853 -2.866,-2.167 -1.855,-1.932 -2.052,-3.706 -2.103,-5.079 V -3.859 c 0,-1.704 0.584,-3.847 2.435,-5.699 1.852,-1.851 4.092,-2.435 5.697,-2.435 H 4.254 c 1.705,0 3.847,0.584 5.698,2.435 1.852,1.852 2.436,4.094 2.436,5.699 V 9.598 c -0.053,1.373 -0.248,3.147 -2.104,5.079"
             style="fill:#e7e8eb;fill-opacity:1;fill-rule:nonzero;stroke:none"
             id="path124"
             inkscape:connector-curvature="0" /></g><g
           id="g126"
           transform="translate(306.0684,508.0811)"><path
             d="m 0,0 v 10.798 h -24.29 -10.798 v -30.097 h 0.031 v -0.017 h 12.361 v 0.364 c 0.039,0.576 0.137,1.28 1.042,2.058 0.93,0.799 3.555,0.824 4.452,0.825 0.899,0.003 4.862,-0.093 4.868,-2.04 v -13.27 c -0.006,-1.948 -3.969,-2.042 -4.868,-2.041 -0.897,0.003 -3.522,0.029 -4.452,0.828 -0.905,0.777 -1.003,1.482 -1.042,2.057 l 0.01,3.531 h -12.371 l -0.02,-7.389 h -0.011 c 0,-1.704 0.584,-3.846 2.434,-5.698 1.853,-1.851 4.094,-2.435 5.698,-2.435 h 18.822 c 1.704,0 3.849,0.584 5.7,2.435 1.852,1.852 2.434,4.093 2.434,5.698 h -0.006 v 19.297 H 0 c 0,1.705 -0.582,3.847 -2.434,5.699 -1.851,1.851 -4.093,2.435 -5.699,2.435 H -24.291 L -24.29,0 Z"
             style="fill:#e7e8eb;fill-opacity:1;fill-rule:nonzero;stroke:none"
             id="path128"
             inkscape:connector-curvature="0" /></g><g
           id="g130"
           transform="translate(99.0957,476.666)"><path
             d="m 0,0 c 0,-1.947 -4.286,-2.053 -5.184,-2.053 -0.896,0 -5.181,0.106 -5.181,2.053 v 31.104 c 0,1.946 4.287,2.052 5.181,2.052 0.898,0 5.185,-0.106 5.185,-2.052 z m 9.896,39.78 c -1.851,1.85 -4.093,2.434 -5.698,2.434 h -18.761 c -1.705,0 -3.847,-0.584 -5.699,-2.434 -1.85,-1.852 -2.434,-4.094 -2.434,-5.699 V -2.978 c 0,-1.704 0.584,-3.846 2.434,-5.698 1.852,-1.851 4.093,-2.435 5.698,-2.435 H 4.198 c 1.704,0 3.847,0.584 5.698,2.435 1.852,1.852 2.436,4.093 2.436,5.698 v 37.059 c 0,1.705 -0.584,3.847 -2.436,5.699"
             style="fill:#e7e8eb;fill-opacity:1;fill-rule:nonzero;stroke:none"
             id="path132"
             inkscape:connector-curvature="0" /></g><g
           id="g134"
           transform="translate(206.8335,695.6865)"><path
             d="m 0,0 v 9.641 c 0,1.705 -0.583,3.846 -2.435,5.698 -1.851,1.852 -4.094,2.435 -5.699,2.435 h -18.761 c -1.704,0 -3.846,-0.583 -5.698,-2.435 -1.851,-1.852 -2.435,-4.092 -2.435,-5.698 v -37.058 c 0,-1.705 0.584,-3.847 2.435,-5.699 1.852,-1.851 4.093,-2.435 5.698,-2.435 h 18.761 c 1.705,0 3.848,0.584 5.699,2.435 1.852,1.852 2.435,4.094 2.435,5.699 v 9.642 h -12.351 v -5.854 c -0.04,-0.574 -0.14,-1.277 -1.046,-2.052 -0.93,-0.794 -3.551,-0.812 -4.448,-0.812 -0.897,0 -4.851,0.107 -4.851,2.054 V 6.664 c 0,1.944 3.954,2.052 4.851,2.052 0.897,0 3.518,-0.018 4.448,-0.813 0.906,-0.775 1.006,-1.476 1.046,-2.05 l 0,-5.853 z"
             style="fill:#e7e8eb;fill-opacity:1;fill-rule:nonzero;stroke:none"
             id="path136"
             inkscape:connector-curvature="0" /></g><g
           id="g138"
           transform="translate(452.3369,672.0352)"><path
             d="m 0,0 c 0.04,-0.573 0.139,-1.277 1.047,-2.052 0.93,-0.794 2.561,-0.811 3.461,-0.811 0.894,0 3.862,0.106 3.862,2.053 V 41.405 H 20.702 V -3.788 c 0,-1.704 -0.584,-3.846 -2.435,-5.698 -1.852,-1.851 -4.093,-2.435 -5.698,-2.435 H -4.218 c -1.705,0 -3.845,0.584 -5.698,2.435 -1.851,1.852 -2.436,4.093 -2.436,5.698 V 5.854 L 0,5.854 Z"
             style="fill:#e7e8eb;fill-opacity:1;fill-rule:nonzero;stroke:none"
             id="path140"
             inkscape:connector-curvature="0" /></g><g
           id="g142"
           transform="translate(237.1089,606.3867)"><path
             d="m 0,0 c 0,-1.947 -4.286,-2.053 -5.185,-2.053 -0.895,0 -5.181,0.106 -5.181,2.053 v 31.104 c 0,1.946 4.286,2.052 5.181,2.052 C -4.286,33.156 0,33.05 0,31.104 Z m 9.896,39.78 c -1.851,1.85 -4.093,2.434 -5.698,2.434 h -18.761 c -1.707,0 -3.848,-0.584 -5.699,-2.434 -1.85,-1.852 -2.437,-4.094 -2.437,-5.699 V -2.978 c 0,-1.704 0.587,-3.846 2.437,-5.698 1.851,-1.851 4.093,-2.435 5.699,-2.435 H 4.198 c 1.706,0 3.847,0.584 5.698,2.435 1.85,1.852 2.435,4.093 2.435,5.698 v 37.059 c 0,1.705 -0.585,3.847 -2.435,5.699"
             style="fill:#e7e8eb;fill-opacity:1;fill-rule:nonzero;stroke:none"
             id="path144"
             inkscape:connector-curvature="0" /></g><g
           id="g146"
           transform="translate(312.0996,606.3867)"><path
             d="m 0,0 0.002,31.104 c 0,1.946 4.284,2.052 5.182,2.052 0.896,0 5.182,-0.106 5.182,-2.052 V 0 C 10.366,-1.947 6.08,-2.053 5.184,-2.053 4.286,-2.053 0,-1.947 0,0 m 26.082,-13.972 -5.333,5.839 c 1.462,1.734 1.947,3.704 1.947,5.155 v 37.059 c 0,1.705 -0.582,3.847 -2.434,5.699 -1.852,1.85 -4.093,2.434 -5.696,2.434 H -4.198 c -1.703,0 -3.845,-0.584 -5.698,-2.434 -1.851,-1.852 -2.435,-4.094 -2.435,-5.699 V -2.978 c 0,-1.704 0.584,-3.846 2.435,-5.698 1.853,-1.851 4.093,-2.435 5.698,-2.435 H 8.891 l 9.243,-10.12 z"
             style="fill:#e7e8eb;fill-opacity:1;fill-rule:nonzero;stroke:none"
             id="path148"
             inkscape:connector-curvature="0" /></g><g
           id="g150"
           transform="translate(421.2168,635.1299)"><path
             d="m 0,0 v 5.337 c 0,1.705 -0.584,3.846 -2.435,5.698 -1.85,1.852 -4.092,2.435 -5.697,2.435 v 10e-4 h -18.763 c -1.706,0 -3.846,-0.584 -5.697,-2.434 -1.85,-1.852 -2.434,-4.094 -2.434,-5.7 v -6.094 c 0,-2.746 1.088,-4.259 3.409,-6.405 l 18.768,-16.596 c 0.832,-0.859 0.672,-2.094 0.519,-4.033 -0.16,-1.99 -2.725,-2.26 -4.265,-2.299 -1.679,-0.045 -4.019,0.016 -4.992,0.846 -0.944,0.808 -1.05,1.539 -1.092,2.139 v 3.194 h -12.347 v -7.794 c 0,-1.705 0.584,-3.847 2.434,-5.699 1.849,-1.85 4.091,-2.434 5.696,-2.435 l 0.001,-0.015 h 4.592 14.171 l 0.002,0.015 c 1.704,0 3.847,0.585 5.695,2.435 1.851,1.852 2.435,4.094 2.435,5.699 v 7.413 c 0,2.386 -0.774,4.237 -3.304,6.377 l -19.157,17.133 c -0.424,0.423 -0.235,1.199 -0.235,3.143 0,1.945 3.955,2.051 4.85,2.051 0.898,0 3.518,-0.017 4.447,-0.812 0.909,-0.775 1.009,-1.475 1.048,-2.05 l 0,-1.55 z"
             style="fill:#e7e8eb;fill-opacity:1;fill-rule:nonzero;stroke:none"
             id="path152"
             inkscape:connector-curvature="0" /></g><g
           id="g154"
           transform="translate(493.9834,648.5991)"><path
             d="m 0,0 v -42.215 c 0,-1.945 -3.412,-2.051 -4.306,-2.051 -0.898,0 -4.31,0.106 -4.31,2.051 V 0 h -12.328 v -45.191 c 0,-1.705 0.584,-3.847 2.434,-5.698 1.851,-1.852 4.093,-2.435 5.697,-2.435 H 4.2 c 1.703,0 3.845,0.583 5.696,2.435 1.852,1.851 2.437,4.093 2.437,5.698 l 0,45.191 z"
             style="fill:#e7e8eb;fill-opacity:1;fill-rule:nonzero;stroke:none"
             id="path156"
             inkscape:connector-curvature="0" /></g><g
           id="g158"
           transform="translate(279.5791,583.7407)"><path
             d="M 0,0 H 34.044 V -8.604 L 13.42,-43.343 h 20.624 v -9.982 H 0 v 8.56 L 20.649,-9.982 H 0 Z"
             style="fill:#e7e8eb;fill-opacity:1;fill-rule:nonzero;stroke:none"
             id="path160"
             inkscape:connector-curvature="0" /></g><g
           id="g162"
           transform="translate(193.4648,620.0986)"><path
             d="m 0,0 -12.031,28.502 h -13.545 v -53.325 h 12.35 V 3.703 L -1.185,-24.823 H 12.35 V 28.502 H 0 Z"
             style="fill:#e7e8eb;fill-opacity:1;fill-rule:nonzero;stroke:none"
             id="path164"
             inkscape:connector-curvature="0" /></g><g
           id="g166"
           transform="translate(355.748,638.9951)"><path
             d="m 0,0 h 4.833 c 0.896,0 3.516,-0.018 4.448,-0.812 0.906,-0.774 1.004,-1.477 1.045,-2.051 v -6.826 c -0.041,-0.574 -0.139,-1.275 -1.045,-2.05 -0.932,-0.795 -3.552,-0.812 -4.448,-0.812 H 0 Z m 0,-21.506 h 4.425 c 1.982,0 2.911,-0.242 3.82,-0.926 0.876,-0.662 2.081,-1.941 2.081,-4.469 V -38.98 c 0,-2.222 0.598,-4.74 2.903,-4.74 h 11.556 v 0.4 c -1.928,1.09 -2.108,2.077 -2.108,4.442 v 11.643 c -0.085,2.077 -0.389,4.757 -3.201,7.669 -1.199,1.24 -2.56,2.02 -3.913,2.517 1.353,0.497 2.714,1.277 3.913,2.517 2.812,2.913 3.116,5.594 3.201,7.669 v 5.403 c -0.085,2.076 -0.389,4.755 -3.201,7.668 -2.815,2.911 -6.53,3.303 -8.913,3.398 H -12.351 V -43.72 H 0 Z"
             style="fill:#e7e8eb;fill-opacity:1;fill-rule:nonzero;stroke:none"
             id="path168"
             inkscape:connector-curvature="0" /></g><g
           id="g170"
           transform="translate(370.918,696.7339)"><path
             d="m 0,0 v 8.594 c 0,1.705 -0.582,3.848 -2.434,5.699 -1.851,1.852 -4.094,2.434 -5.699,2.434 h -18.761 c -1.705,0 -3.846,-0.582 -5.698,-2.434 -1.852,-1.851 -2.435,-4.094 -2.435,-5.699 v -37.058 c 0,-1.705 0.583,-3.846 2.435,-5.698 1.852,-1.851 4.094,-2.436 5.698,-2.436 h 6.666 12.095 c 1.705,0 3.848,0.584 5.699,2.435 1.852,1.852 2.434,4.094 2.434,5.699 v 9.642 3.008 6.699 1.643 h -17.009 v -8.342 h 5.222 v -8.863 c -0.041,-0.572 -0.142,-1.277 -1.048,-2.052 -0.93,-0.792 -4.112,-0.81 -5.01,-0.81 -0.896,0 -4.852,0.107 -4.852,2.053 V 5.618 c 0,1.944 3.956,2.05 4.852,2.05 0.898,0 3.519,-0.017 4.449,-0.812 0.906,-0.775 1.004,-1.475 1.046,-2.049 l 0,-4.807 z"
             style="fill:#e7e8eb;fill-opacity:1;fill-rule:nonzero;stroke:none"
             id="path172"
             inkscape:connector-curvature="0" /></g></g></g></g></svg>