<?xml version="1.0" encoding="UTF-8" standalone="no"?>
<!-- Created with Inkscape (http://www.inkscape.org/) -->

<svg
   xmlns:dc="http://purl.org/dc/elements/1.1/"
   xmlns:cc="http://creativecommons.org/ns#"
   xmlns:rdf="http://www.w3.org/1999/02/22-rdf-syntax-ns#"
   xmlns:svg="http://www.w3.org/2000/svg"
   xmlns="http://www.w3.org/2000/svg"
   xmlns:sodipodi="http://sodipodi.sourceforge.net/DTD/sodipodi-0.dtd"
   xmlns:inkscape="http://www.inkscape.org/namespaces/inkscape"
   version="1.1"
   id="svg2"
   xml:space="preserve"
   width="816"
   height="1056"
   viewBox="0 0 816 1056"
   sodipodi:docname="showcase_may77_2.svg"
   inkscape:version="0.92.2 5c3e80d, 2017-08-06"><metadata
     id="metadata8"><rdf:RDF><cc:Work
         rdf:about=""><dc:format>image/svg+xml</dc:format><dc:type
           rdf:resource="http://purl.org/dc/dcmitype/StillImage" /><dc:title></dc:title></cc:Work></rdf:RDF></metadata><defs
     id="defs6"><clipPath
       clipPathUnits="userSpaceOnUse"
       id="clipPath22"><path
         d="M 0,792 H 612 V 0 H 0 Z"
         id="path20"
         inkscape:connector-curvature="0" /></clipPath></defs><sodipodi:namedview
     pagecolor="#ffffff"
     bordercolor="#666666"
     borderopacity="1"
     objecttolerance="10"
     gridtolerance="10"
     guidetolerance="10"
     inkscape:pageopacity="0"
     inkscape:pageshadow="2"
     inkscape:window-width="1920"
     inkscape:window-height="1036"
     id="namedview4"
     showgrid="false"
     inkscape:zoom="0.22348485"
     inkscape:cx="-247.52542"
     inkscape:cy="528"
     inkscape:window-x="0"
     inkscape:window-y="20"
     inkscape:window-maximized="0"
     inkscape:current-layer="g10" /><g
     id="g10"
     inkscape:groupmode="layer"
     inkscape:label="showcase_may77"
     transform="matrix(1.3333333,0,0,-1.3333333,0,1056)"><path
       d="M 0,0 H 612 V 792 H 0 Z"
       style="fill:#ce3633;fill-opacity:1;fill-rule:nonzero;stroke:none"
       id="path12"
       inkscape:connector-curvature="0" /><path
       d="M 584.035,30.818 H 27.965 v 730.363 h 556.07 z"
       style="fill:#e7e8eb;fill-opacity:1;fill-rule:nonzero;stroke:none"
       id="path14"
       inkscape:connector-curvature="0" /><g
       id="g16"><g
         id="g18"
         clip-path="url(#clipPath22)"><g
           id="g24"
           transform="translate(269.2891,174.6699)"><path
             d="m 0,0 v 59.801 h -7.112 v 9.525 c 0,0 3.432,1.991 6.31,4.871 2.88,2.88 4.986,6.976 4.986,6.976 H 18.801 L 18.801,0 Z"
             style="fill:#333d41;fill-opacity:1;fill-rule:nonzero;stroke:none"
             id="path26"
             inkscape:connector-curvature="0" /></g><g
           id="g28"
           transform="translate(93.459,509.9805)"><path
             d="M 0,0 6.564,25.923 13.132,0 Z M 20.582,46.779 H -7.45 l -20.21,-81.174 h 19.325 l 4.865,18.78 h 20.073 l 4.864,-18.78 H 40.79 Z"
             style="fill:#333d41;fill-opacity:1;fill-rule:nonzero;stroke:none"
             id="path30"
             inkscape:connector-curvature="0" /></g><g
           id="g32"
           transform="translate(208.2012,649.3359)"><path
             d="M 0,0 9.991,39.447 19.982,0 Z m 31.32,71.187 h -42.66 l -30.753,-123.53 h 29.407 l 7.405,28.578 h 30.545 l 7.403,-28.578 h 29.406 z"
             style="fill:#ce3633;fill-opacity:1;fill-rule:nonzero;stroke:none"
             id="path34"
             inkscape:connector-curvature="0" /></g><g
           id="g36"
           transform="translate(316.6523,456.5005)"><path
             d="M 0,0 -11.445,-35.798 -22.893,0 H -42.25 v -81.173 h 19.148 v 31.012 l 11.657,-31.012 11.653,31.012 V -81.173 H 19.357 V 0 Z"
             style="fill:#333d41;fill-opacity:1;fill-rule:nonzero;stroke:none"
             id="path38"
             inkscape:connector-curvature="0" /></g><g
           id="g40"
           transform="translate(130.0977,720.5225)"><path
             d="M 0,0 -17.42,-54.48 -34.842,0 h -29.457 v -123.53 h 29.142 v 47.195 l 17.737,-47.195 17.737,47.195 v -47.195 h 29.141 l 0,123.53 z"
             style="fill:#ce3633;fill-opacity:1;fill-rule:nonzero;stroke:none"
             id="path42"
             inkscape:connector-curvature="0" /></g><path
           d="M 65.799,456.5 H 84.6 V 375.327 H 65.799 Z"
           style="fill:#333d41;fill-opacity:1;fill-rule:nonzero;stroke:none"
           id="path44"
           inkscape:connector-curvature="0" /><path
           d="m 429.644,155.726 h 18.8 V 96.201 h -18.8 z"
           style="fill:#333d41;fill-opacity:1;fill-rule:nonzero;stroke:none"
           id="path46"
           inkscape:connector-curvature="0" /><g
           id="g48"
           transform="translate(247.7939,332.7305)"><path
             d="m 0,0 v 12.391 c -0.084,2.086 -0.391,4.78 -3.218,7.707 -2.83,2.925 -4.163,3.278 -5.852,3.414 h -35.017 c 0,0 -2.311,-0.064 -4.223,-1.563 -1.908,-1.496 -2.96,-2.697 -3.917,-4.26 -0.956,-1.561 -1.095,-3.543 -1.095,-3.543 V -5.865 c 0.054,-0.898 0.261,-2.2 1.301,-3.304 l 32.679,-24.172 c 0.841,-1.235 0.807,-3.007 0.571,-5.956 -0.245,-3.03 -4.15,-3.44 -6.492,-3.503 -2.554,-0.067 -6.119,0.028 -7.594,1.288 -1.441,1.23 -1.599,2.344 -1.663,3.255 v 6.365 h -18.802 v -14.647 c 0.085,-2.086 0.39,-4.781 3.218,-7.707 2.83,-2.927 4.164,-3.28 5.852,-3.416 h 35.017 c 0,0 2.311,0.065 4.222,1.56 1.911,1.498 2.963,2.701 3.919,4.262 0.955,1.561 1.094,3.544 1.094,3.544 v 20.977 c -0.053,0.896 -0.26,2.2 -1.301,3.302 L -34.188,0.312 c -0.648,0.645 -0.364,3.329 -0.364,6.29 0,2.958 6.022,3.119 7.388,3.119 1.365,0 5.353,-0.026 6.768,-1.235 1.383,-1.177 1.533,-2.248 1.596,-3.121 V 0 Z"
             style="fill:#333d41;fill-opacity:1;fill-rule:nonzero;stroke:none"
             id="path50"
             inkscape:connector-curvature="0" /></g><g
           id="g52"
           transform="translate(164.5078,326.8721)"><path
             d="m 0,0 c -0.061,-0.876 -0.213,-1.943 -1.593,-3.122 -1.417,-1.21 -5.405,-1.236 -6.771,-1.236 h -7.357 v 19.105 h 7.357 c 1.366,0 5.354,-0.024 6.771,-1.234 1.38,-1.179 1.532,-2.248 1.593,-3.124 z M 13.927,24.199 C 9.643,28.631 3.988,29.228 0.36,29.37 h -34.88 v -81.174 h 18.799 v 33.817 h 6.736 c 3.017,0 4.434,-0.367 5.816,-1.409 C -1.838,-20.404 0,-22.353 0,-26.202 v -25.602 h 18.802 v 25.096 c -0.13,3.16 -0.591,7.24 -4.875,11.672 -1.824,1.889 -3.897,3.076 -5.955,3.834 2.058,0.756 4.131,1.943 5.955,3.83 4.284,4.434 4.745,8.513 4.875,11.672 v 8.226 c -0.13,3.162 -0.591,7.24 -4.875,11.673"
             style="fill:#333d41;fill-opacity:1;fill-rule:nonzero;stroke:none"
             id="path54"
             inkscape:connector-curvature="0" /></g><g
           id="g56"
           transform="translate(501.2197,433.0586)"><path
             d="m 0,0 v -5.897 c -0.062,-0.874 -0.212,-1.942 -1.594,-3.122 -1.416,-1.209 -5.405,-1.234 -6.769,-1.234 h -7.358 V 8.889 h 7.358 c 1.364,0 5.353,-0.025 6.769,-1.235 C -0.212,6.475 -0.062,5.406 0,4.531 V 1.344 Z M 13.928,18.34 C 9.643,22.772 3.987,23.369 0.359,23.511 h -34.88 v -9.366 -71.807 h 18.8 v 32.785 h 16.08 c 3.628,0.145 9.284,0.74 13.569,5.171 4.282,4.434 4.745,8.514 4.873,11.673 V 0 1.344 6.668 c -0.128,3.16 -0.591,7.24 -4.873,11.672"
             style="fill:#333d41;fill-opacity:1;fill-rule:nonzero;stroke:none"
             id="path58"
             inkscape:connector-curvature="0" /></g><g
           id="g60"
           transform="translate(172.543,494.5654)"><path
             d="M 0,0 C -0.063,-0.874 -0.213,-1.942 -1.594,-3.123 -3.01,-4.33 -6.999,-4.357 -8.365,-4.357 h -8.119 V 16.48 h 8.119 c 1.366,0 5.355,-0.026 6.771,-1.234 1.381,-1.181 1.531,-2.249 1.594,-3.124 z m -10.793,47.571 c 1.365,0 5.354,-0.025 6.77,-1.235 1.381,-1.179 1.532,-2.247 1.595,-3.123 v -8.231 c -0.063,-0.874 -0.214,-1.942 -1.595,-3.121 -1.416,-1.21 -5.405,-1.237 -6.77,-1.237 h -5.691 V 47.571 Z M 13.927,19.495 C 11.505,22 8.646,23.277 5.962,23.943 c 1.918,0.76 3.836,1.91 5.536,3.669 4.016,4.156 4.673,8.002 4.844,11.07 h 0.03 v 6.669 c -0.129,3.159 -0.59,7.239 -4.874,11.671 -4.285,4.433 -9.94,5.029 -13.567,5.172 H -35.285 V -18.98 h 0.764 34.88 c 3.628,0.147 9.284,0.74 13.568,5.173 4.282,4.433 4.744,8.512 4.874,11.672 v 9.957 c -0.13,3.159 -0.592,7.239 -4.874,11.673"
             style="fill:#333d41;fill-opacity:1;fill-rule:nonzero;stroke:none"
             id="path62"
             inkscape:connector-curvature="0" /></g><g
           id="g64"
           transform="translate(214.708,492.4985)"><path
             d="m 0,0 c 0,-2.959 6.021,-3.124 7.386,-3.124 1.366,0 5.353,0.028 6.769,1.236 1.381,1.181 1.533,2.249 1.596,3.123 V 6.601 H 34.55 V -5.79 c -0.084,-2.086 -0.39,-4.781 -3.217,-7.708 -2.83,-2.927 -4.163,-3.279 -5.853,-3.415 H -9.536 c 0,0 -2.31,0.066 -4.223,1.561 -1.911,1.498 -2.963,2.7 -3.918,4.261 -0.956,1.561 -1.094,3.544 -1.094,3.544 v 62.442 c 0,0 0.138,1.983 1.094,3.544 0.955,1.562 2.007,2.765 3.918,4.26 1.913,1.498 4.223,1.562 4.223,1.562 H 25.48 c 1.69,-0.136 3.023,-0.489 5.853,-3.415 2.827,-2.926 3.133,-5.621 3.217,-7.706 V 40.749 H 15.751 v 5.365 c -0.063,0.873 -0.215,1.943 -1.596,3.122 C 12.739,50.445 8.752,50.47 7.386,50.47 6.021,50.47 0,50.309 0,47.35 Z"
             style="fill:#333d41;fill-opacity:1;fill-rule:nonzero;stroke:none"
             id="path66"
             inkscape:connector-curvature="0" /></g><g
           id="g68"
           transform="translate(440.8066,392.3086)"><path
             d="m 0,0 c 0,-2.959 -6.524,-3.122 -7.89,-3.122 -1.363,0 -7.888,0.163 -7.888,3.122 v 47.351 c 0,2.959 6.525,3.12 7.888,3.12 1.366,0 7.89,-0.161 7.89,-3.12 z m 17.676,58.44 c -0.957,1.562 -2.006,2.764 -3.917,4.26 -1.911,1.498 -4.223,1.561 -4.223,1.561 H -7.89 -25.316 c 0,0 -2.312,-0.063 -4.223,-1.561 -1.91,-1.496 -2.961,-2.698 -3.918,-4.26 -0.954,-1.562 -1.094,-3.545 -1.094,-3.545 v -62.44 c 0,0 0.14,-1.984 1.094,-3.545 0.957,-1.562 2.008,-2.764 3.918,-4.261 1.911,-1.497 4.223,-1.561 4.223,-1.561 H -7.89 9.536 c 0,0 2.312,0.064 4.223,1.561 1.911,1.497 2.96,2.699 3.917,4.261 0.956,1.561 1.096,3.545 1.096,3.545 v 62.44 c 0,0 -0.14,1.983 -1.096,3.545"
             style="fill:#333d41;fill-opacity:1;fill-rule:nonzero;stroke:none"
             id="path70"
             inkscape:connector-curvature="0" /></g><g
           id="g72"
           transform="translate(342.6816,91.4648)"><path
             d="m 0,0 c 0,-2.96 -6.525,-3.122 -7.89,-3.122 -1.364,0 -7.889,0.162 -7.889,3.122 v 47.351 c 0,2.958 6.525,3.121 7.889,3.121 1.365,0 7.89,-0.163 7.89,-3.121 z m 17.677,58.438 c -0.956,1.563 -2.007,2.765 -3.916,4.262 -1.914,1.497 -4.224,1.561 -4.224,1.561 H -7.89 -25.315 c 0,0 -2.31,-0.064 -4.223,-1.561 -1.911,-1.497 -2.962,-2.699 -3.918,-4.262 -0.956,-1.56 -1.094,-3.542 -1.094,-3.542 V -7.546 c 0,0 0.138,-1.984 1.094,-3.544 0.956,-1.562 2.007,-2.764 3.918,-4.261 1.913,-1.496 4.223,-1.561 4.223,-1.561 H -7.89 9.537 c 0,0 2.31,0.065 4.224,1.561 1.909,1.497 2.96,2.699 3.916,4.261 0.955,1.56 1.095,3.544 1.095,3.544 v 62.442 c 0,0 -0.14,1.982 -1.095,3.542"
             style="fill:#333d41;fill-opacity:1;fill-rule:nonzero;stroke:none"
             id="path74"
             inkscape:connector-curvature="0" /></g><g
           id="g76"
           transform="translate(306.2734,356.2422)"><path
             d="M 0,0 H -51.797 V -17.969 H -35.3 v -63.205 h 18.803 v 63.205 H 0 Z"
             style="fill:#333d41;fill-opacity:1;fill-rule:nonzero;stroke:none"
             id="path78"
             inkscape:connector-curvature="0" /></g><g
           id="g80"
           transform="translate(240.1895,390.5225)"><path
             d="M 0,0 V 65.978 H -18.801 V 0 -15.195 H 0 28.214 V 0 Z"
             style="fill:#333d41;fill-opacity:1;fill-rule:nonzero;stroke:none"
             id="path82"
             inkscape:connector-curvature="0" /></g><g
           id="g84"
           transform="translate(338.9658,490.7813)"><path
             d="M 0,0 V 19.979 H 25.12 V 34.271 H 0 V 50.784 H 28.521 V 65.978 H 0 -18.645 -18.802 V -15.196 H -18.645 0 29.7 V 0 Z"
             style="fill:#333d41;fill-opacity:1;fill-rule:nonzero;stroke:none"
             id="path86"
             inkscape:connector-curvature="0" /></g><g
           id="g88"
           transform="translate(422.957,541.5654)"><path
             d="m 0,0 v 15.194 h -28.521 -18.645 -0.156 V -65.98 h 18.801 v 35.175 h 25.122 v 14.292 H -28.521 V 0 Z"
             style="fill:#333d41;fill-opacity:1;fill-rule:nonzero;stroke:none"
             id="path90"
             inkscape:connector-curvature="0" /></g><g
           id="g92"
           transform="translate(381.2373,407.7666)"><path
             d="m 0,0 -15.022,48.734 h -22.383 v -81.173 h 18.802 V 18.063 L -3.141,-32.439 H 18.8 V 48.734 H 0 Z"
             style="fill:#333d41;fill-opacity:1;fill-rule:nonzero;stroke:none"
             id="path94"
             inkscape:connector-curvature="0" /></g><g
           id="g96"
           transform="translate(343.7275,356.2422)"><path
             d="m 0,0 v -64.262 c 0,-2.959 -5.193,-3.123 -6.557,-3.123 -1.363,0 -6.556,0.164 -6.556,3.123 V 0 h -18.773 v -71.808 c 0,0 0.141,-1.983 1.096,-3.544 0.957,-1.561 2.007,-2.764 3.916,-4.261 1.913,-1.495 4.223,-1.561 4.223,-1.561 H -6.557 9.537 c 0,0 2.31,0.066 4.223,1.561 1.911,1.497 2.96,2.7 3.917,4.261 0.955,1.561 1.095,3.544 1.095,3.544 V 0 Z"
             style="fill:#333d41;fill-opacity:1;fill-rule:nonzero;stroke:none"
             id="path98"
             inkscape:connector-curvature="0" /></g><g
           id="g100"
           transform="translate(122.7793,456.5005)"><path
             d="m 0,0 v -64.26 c 0,-2.96 -5.194,-3.124 -6.558,-3.124 -1.364,0 -6.556,0.164 -6.556,3.124 v 10.215 h -18.773 v -17.762 c 0,0 0.14,-1.984 1.096,-3.544 0.956,-1.562 2.006,-2.764 3.917,-4.262 1.911,-1.494 4.222,-1.56 4.222,-1.56 H -6.558 9.536 c 0,0 2.309,0.066 4.221,1.56 1.912,1.498 2.962,2.7 3.92,4.262 0.954,1.56 1.093,3.544 1.093,3.544 V 0 Z"
             style="fill:#333d41;fill-opacity:1;fill-rule:nonzero;stroke:none"
             id="path102"
             inkscape:connector-curvature="0" /></g><g
           id="g104"
           transform="translate(522.8545,556.7593)"><path
             d="M 0,0 V -29.104 H -15.722 V 0 h -18.8 v -81.174 h 18.8 v 34.101 H 0 V -81.174 H 18.8 L 18.8,0 Z"
             style="fill:#333d41;fill-opacity:1;fill-rule:nonzero;stroke:none"
             id="path106"
             inkscape:connector-curvature="0" /></g><g
           id="g108"
           transform="translate(84.5723,291.9805)"><path
             d="m 0,0 v 47.352 c 0,2.958 6.524,3.119 7.889,3.119 1.364,0 7.889,-0.161 7.889,-3.119 V 0 c 0,-2.959 -6.525,-3.123 -7.889,-3.123 C 6.524,-3.123 0,-2.959 0,0 m 39.699,-21.269 -7.593,8.318 c 0.505,0.588 0.939,1.191 1.348,1.861 0.956,1.561 1.095,3.544 1.095,3.544 v 62.442 c 0,0 -0.139,1.982 -1.095,3.543 -0.955,1.563 -2.007,2.764 -3.918,4.26 -1.911,1.499 -4.22,1.563 -4.22,1.563 H 7.889 -9.539 c 0,0 -2.309,-0.064 -4.22,-1.563 -1.912,-1.496 -2.963,-2.697 -3.918,-4.26 -0.956,-1.561 -1.096,-3.543 -1.096,-3.543 V -7.546 c 0,0 0.14,-1.983 1.096,-3.544 0.955,-1.561 2.006,-2.764 3.918,-4.262 1.911,-1.495 4.22,-1.56 4.22,-1.56 h 17.428 5.643 l 14.071,-15.405 z"
             style="fill:#333d41;fill-opacity:1;fill-rule:nonzero;stroke:none"
             id="path110"
             inkscape:connector-curvature="0" /></g><g
           id="g112"
           transform="translate(292.0049,494.5938)"><path
             d="m 0,0 c -0.062,-0.874 -0.206,-1.943 -1.584,-3.128 -1.41,-1.214 -5.4,-1.255 -6.767,-1.26 l -7.355,-0.026 -0.187,51.93 7.358,0.025 c 1.366,0.006 5.355,-0.007 6.775,-1.211 1.385,-1.174 1.537,-2.243 1.605,-3.116 z M 13.723,57.072 C 9.421,61.489 3.764,62.063 0.138,62.194 l -34.883,-0.123 0.034,-9.366 0.255,-71.807 18.801,0.067 16.081,0.057 c 3.626,0.158 9.278,0.772 13.547,5.22 4.268,4.448 4.716,8.53 4.834,11.689 l -0.17,47.486 c -0.141,3.159 -0.617,7.237 -4.914,11.655"
             style="fill:#333d41;fill-opacity:1;fill-rule:nonzero;stroke:none"
             id="path114"
             inkscape:connector-curvature="0" /></g><g
           id="g116"
           transform="translate(210.3516,456.6396)"><path
             d="m 0,0 h -24.102 l -17.395,-26.117 v 25.978 h -18.8 v -81.174 h 18.8 v 19.014 l 6.017,9.034 13.945,-28.048 h 17.439 7.13 l -24.446,49.17 z"
             style="fill:#333d41;fill-opacity:1;fill-rule:nonzero;stroke:none"
             id="path118"
             inkscape:connector-curvature="0" /></g><g
           id="g120"
           transform="translate(480.582,531.2974)"><path
             d="m 0,0 v 14.341 c -0.085,2.085 -0.39,4.781 -3.216,7.706 -2.831,2.927 -4.164,3.28 -5.852,3.415 h -35.017 c 0,0 -2.312,-0.064 -4.225,-1.562 -1.91,-1.495 -2.961,-2.698 -3.917,-4.26 -0.956,-1.561 -1.094,-3.544 -1.094,-3.544 v -62.442 c 0,0 0.138,-1.983 1.094,-3.544 0.956,-1.561 2.007,-2.763 3.917,-4.26 1.913,-1.496 4.225,-1.562 4.225,-1.562 h 23.997 c 1.688,0.136 3.022,0.488 5.852,3.416 0.632,0.655 1.134,1.299 1.541,1.926 v -5.342 H 0 v 31.637 10.199 2.499 h -27.396 v -12.698 h 9.452 v -13.489 c -0.062,-0.874 -0.213,-1.942 -1.594,-3.123 -1.417,-1.208 -5.757,-1.235 -7.123,-1.235 -1.363,0 -7.889,0.164 -7.889,3.123 v 47.35 c 0,2.959 6.022,3.12 7.386,3.12 1.367,0 5.354,-0.025 6.769,-1.233 1.381,-1.18 1.533,-2.25 1.596,-3.123 l 0,-7.315 z"
             style="fill:#333d41;fill-opacity:1;fill-rule:nonzero;stroke:none"
             id="path122"
             inkscape:connector-curvature="0" /></g><g
           id="g124"
           transform="translate(402.2148,295.0615)"><path
             d="m 0,0 -11.27,61.181 h -20.396 l 14.955,-81.174 H 16.714 L 31.667,61.181 H 11.271 Z"
             style="fill:#333d41;fill-opacity:1;fill-rule:nonzero;stroke:none"
             id="path126"
             inkscape:connector-curvature="0" /></g><g
           id="g128"
           transform="translate(506.4121,302.7119)"><path
             d="M 0,0 -7.644,53.53 H -26.987 L -34.634,0 -43.777,53.53 h -17.992 l -0.81,-0.138 13.846,-81.036 h 24.323 l 7.093,49.692 7.096,-49.692 H 14.102 L 27.946,53.392 27.135,53.53 H 9.146 Z"
             style="fill:#333d41;fill-opacity:1;fill-rule:nonzero;stroke:none"
             id="path130"
             inkscape:connector-curvature="0" /></g><g
           id="g132"
           transform="translate(132.1309,174.8105)"><path
             d="m 0,0 -22.144,42.173 20.478,39 h -22.38 l -9.286,-17.688 -9.286,17.688 h -22.381 l 20.477,-39 L -66.662,0 h 22.377 L -33.332,20.86 -22.382,0 Z"
             style="fill:#333d41;fill-opacity:1;fill-rule:nonzero;stroke:none"
             id="path134"
             inkscape:connector-curvature="0" /></g><g
           id="g136"
           transform="translate(177.6992,255.9834)"><path
             d="M 0,0 -11.362,-25.729 -22.538,0 h -20.397 l 22.164,-51.023 v -30.15 h 18.798 v 30.522 L 20.399,0 Z"
             style="fill:#333d41;fill-opacity:1;fill-rule:nonzero;stroke:none"
             id="path138"
             inkscape:connector-curvature="0" /></g><g
           id="g140"
           transform="translate(315.7656,720.5225)"><path
             d="M 0,0 -17.293,-39.156 -34.3,0 h -31.04 l 33.726,-77.649 v -45.881 h 28.611 v 46.447 L 31.039,0 Z"
             style="fill:#ce3633;fill-opacity:1;fill-rule:nonzero;stroke:none"
             id="path142"
             inkscape:connector-curvature="0" /></g><g
           id="g144"
           transform="translate(252.2793,174.8105)"><path
             d="m 0,0 h -49.318 v 12.767 l 26.736,53.212 H -49.318 V 81.173 H 0 V 68.077 L -26.57,15.195 H 0 Z"
             style="fill:#333d41;fill-opacity:1;fill-rule:nonzero;stroke:none"
             id="path146"
             inkscape:connector-curvature="0" /></g><g
           id="g148"
           transform="translate(350.2871,225.5029)"><path
             d="m 0,0 v 20.975 c 0,0 -0.141,1.984 -1.096,3.544 -0.956,1.562 -2.008,2.763 -3.916,4.26 -1.914,1.497 -4.222,1.561 -4.222,1.561 h -35.018 c -1.688,-0.135 -3.022,-0.487 -5.852,-3.414 -2.829,-2.926 -3.134,-5.62 -3.218,-7.706 V 4.57 h 18.801 v 6.366 c 0.065,0.912 0.221,2.025 1.662,3.256 1.477,1.261 5.04,1.356 7.597,1.287 2.339,-0.061 6.246,-0.471 6.49,-3.501 0.238,-2.951 0.271,-4.721 -0.572,-5.957 L -53.322,-34.424 V -50.833 H 0 v 16.409 h -27.508 l 26.205,31.12 C -0.262,-2.201 -0.054,-0.896 0,0"
             style="fill:#333d41;fill-opacity:1;fill-rule:nonzero;stroke:none"
             id="path150"
             inkscape:connector-curvature="0" /></g><g
           id="g152"
           transform="translate(414.3096,224.3281)"><path
             d="m 0,0 v 22.316 c 0,0 -0.131,1.983 -1.092,3.54 -0.961,1.56 -2.012,2.759 -3.929,4.249 -1.916,1.492 -2.595,1.55 -4.226,1.55 h -34.935 c -1.634,0 -3.105,-0.6 -5.924,-3.536 -2.819,-2.935 -3.116,-5.629 -3.195,-7.717 l 0.037,-12.335 h 18.8 l -0.016,5.367 c 0.059,0.875 0.208,1.943 1.584,3.127 1.413,1.212 5.401,1.251 6.767,1.254 1.364,0.004 7.386,-0.141 7.395,-3.1 0.008,-2.96 0.51,-14.13 -0.331,-14.484 -3.892,-1.63 -16.449,-1.998 -16.449,-1.998 v -14.329 c 0,0 12.557,-0.368 16.449,-1.999 0.841,-0.351 0.339,-11.524 0.331,-14.483 -0.009,-2.961 -6.031,-3.105 -7.395,-3.101 -1.366,0.003 -5.354,0.041 -6.767,1.254 -1.376,1.185 -1.525,2.253 -1.584,3.128 l 0.016,5.365 h -18.8 l -0.037,-12.335 c 0.079,-2.087 0.376,-4.782 3.195,-7.715 2.819,-2.936 4.29,-3.537 5.924,-3.537 h 34.935 c 1.631,0 2.31,0.059 4.226,1.55 1.917,1.49 2.968,2.689 3.929,4.248 0.961,1.557 1.092,3.54 1.092,3.54 v 22.317 c 0,2.823 -2.49,6.591 -5.621,8.932 C -2.49,-6.592 0,-2.821 0,0"
             style="fill:#333d41;fill-opacity:1;fill-rule:nonzero;stroke:none"
             id="path154"
             inkscape:connector-curvature="0" /></g><g
           id="g156"
           transform="translate(537.6689,239.4346)"><path
             d="m 0,0 v 16.408 h -36.913 -16.41 v -45.737 h 0.046 v -0.025 h 18.785 v 0.553 c 0.058,0.875 0.209,1.943 1.585,3.126 1.412,1.215 5.401,1.253 6.766,1.257 1.367,0.003 7.388,-0.142 7.396,-3.102 v -20.165 c -0.008,-2.961 -6.029,-3.104 -7.396,-3.1 -1.365,0.003 -5.354,0.041 -6.766,1.254 -1.376,1.184 -1.527,2.253 -1.585,3.128 l 0.015,5.365 h -18.8 l -0.036,-12.335 c 0.08,-2.088 0.375,-4.782 3.197,-7.716 2.819,-2.935 4.287,-3.536 5.924,-3.536 h 34.933 c 1.632,0 2.31,0.059 4.228,1.55 1.915,1.489 2.968,2.688 3.929,4.248 0.961,1.556 1.092,3.54 1.092,3.54 v 35.369 c 0,0 -0.131,1.984 -1.092,3.542 -0.961,1.559 -2.014,2.757 -3.929,4.248 -1.918,1.491 -2.596,1.549 -4.228,1.549 H -36.913 V 0 Z"
             style="fill:#333d41;fill-opacity:1;fill-rule:nonzero;stroke:none"
             id="path158"
             inkscape:connector-curvature="0" /></g><g
           id="g160"
           transform="translate(92.9717,88.5313)"><path
             d="m 0,0 c -1.366,0.004 -5.354,0.042 -6.768,1.254 -1.377,1.185 -1.525,2.254 -1.584,3.128 l 0.017,5.365 h -0.017 v 11.714 c 0.059,0.874 0.207,1.944 1.584,3.129 1.414,1.213 5.402,1.25 6.768,1.254 1.364,0.004 7.386,-0.141 7.395,-3.1 V 3.102 C 7.386,0.14 1.364,-0.004 0,0 m 21.108,35.638 c -1.917,1.491 -2.593,1.549 -4.228,1.549 H -5.161 c -1.035,0 -2,-0.242 -3.277,-1.152 v 14.22 c 0.007,2.96 6.03,3.104 7.394,3.101 C 0.323,53.351 4.312,53.314 5.723,52.1 7.101,50.915 7.249,49.848 7.309,48.974 L 7.293,45.757 h 18.8 l 0.036,10.186 c -0.078,2.085 -0.376,4.782 -3.195,7.716 -2.819,2.936 -4.289,3.535 -5.925,3.535 h -34.934 c -1.633,0 -3.322,-0.878 -4.226,-1.547 -1.164,-0.861 -2.969,-2.69 -3.93,-4.25 -0.962,-1.558 -1.092,-3.542 -1.092,-3.542 V -2.588 c 0.079,-2.087 0.375,-4.781 3.194,-7.716 2.821,-2.935 4.291,-3.536 5.927,-3.536 H 16.88 c 1.635,0 2.311,0.06 4.228,1.55 1.914,1.489 2.969,2.688 3.93,4.247 0.961,1.559 1.091,3.541 1.091,3.541 v 32.35 c 0,0 -0.13,1.983 -1.091,3.541 -0.961,1.56 -2.016,2.757 -3.93,4.249"
             style="fill:#333d41;fill-opacity:1;fill-rule:nonzero;stroke:none"
             id="path162"
             inkscape:connector-curvature="0" /></g><g
           id="g164"
           transform="translate(272.8691,141.8877)"><path
             d="M 0,0 C 1.366,-0.006 5.355,-0.042 6.767,-1.257 8.145,-2.441 8.291,-3.509 8.351,-4.383 L 8.336,-9.748 H 8.351 V -21.463 C 8.291,-22.337 8.145,-23.406 6.767,-24.59 5.355,-25.804 1.366,-25.841 0,-25.846 c -1.364,-0.005 -7.387,0.141 -7.394,3.102 V -3.102 C -7.387,-0.142 -1.364,0.003 0,0 m -21.109,-35.64 c 1.918,-1.488 2.595,-1.548 4.227,-1.548 H 5.16 c 1.035,0 2,0.241 3.278,1.153 v -14.22 c -0.009,-2.962 -6.03,-3.105 -7.394,-3.101 -1.366,0.003 -5.357,0.042 -6.768,1.253 -1.378,1.186 -1.524,2.254 -1.585,3.128 l 0.016,3.216 h -18.8 l -0.037,-10.185 c 0.079,-2.087 0.376,-4.782 3.195,-7.716 2.821,-2.936 4.29,-3.536 5.925,-3.536 h 34.934 c 1.633,0 3.323,0.879 4.228,1.55 1.162,0.861 2.968,2.688 3.929,4.247 0.96,1.558 1.091,3.541 1.091,3.541 V 2.587 c -0.078,2.085 -0.375,4.781 -3.195,7.716 -2.82,2.935 -4.29,3.535 -5.924,3.535 h -34.935 c -1.632,0 -2.309,-0.058 -4.227,-1.547 -1.914,-1.492 -2.967,-2.69 -3.93,-4.25 -0.96,-1.559 -1.091,-3.542 -1.091,-3.542 v -32.347 c 0,0 0.131,-1.984 1.091,-3.542 0.963,-1.557 2.016,-2.758 3.93,-4.25"
             style="fill:#333d41;fill-opacity:1;fill-rule:nonzero;stroke:none"
             id="path166"
             inkscape:connector-curvature="0" /></g><g
           id="g168"
           transform="translate(419.5625,149.9287)"><path
             d="m 0,0 c -0.961,1.56 -2.015,2.758 -3.929,4.25 -1.917,1.489 -2.594,1.547 -4.227,1.547 h -34.935 c -1.634,0 -3.104,-0.6 -5.923,-3.535 -2.822,-2.935 -3.118,-5.631 -3.197,-7.716 v -12.335 h 18.837 l -0.015,5.365 c 0.059,0.874 0.207,1.942 1.584,3.126 1.413,1.215 5.401,1.251 6.767,1.257 1.364,0.003 7.386,-0.142 7.395,-3.102 0.008,-2.96 0.51,-21.735 -0.332,-22.086 -3.89,-1.633 -16.622,-1.976 -16.622,-1.976 v -18.524 h 18.075 v 9.184 l 6.486,-0.017 c 5.098,0 11.126,6.707 11.126,11.1 v 29.92 c 0,0 -0.129,1.983 -1.09,3.542"
             style="fill:#333d41;fill-opacity:1;fill-rule:nonzero;stroke:none"
             id="path170"
             inkscape:connector-curvature="0" /></g><path
           d="M 384.966,74.553 H 403.04 V 90.877 H 384.966 Z"
           style="fill:#333d41;fill-opacity:1;fill-rule:nonzero;stroke:none"
           id="path172"
           inkscape:connector-curvature="0" /><path
           d="m 430.006,74.553 h 18.075 v 16.324 h -18.075 z"
           style="fill:#333d41;fill-opacity:1;fill-rule:nonzero;stroke:none"
           id="path174"
           inkscape:connector-curvature="0" /><path
           d="m 456.511,74.553 h 18.076 v 16.324 h -18.076 z"
           style="fill:#333d41;fill-opacity:1;fill-rule:nonzero;stroke:none"
           id="path176"
           inkscape:connector-curvature="0" /><g
           id="g178"
           transform="translate(483.1543,57)"><path
             d="M 0,0 18.074,14.708 V 33.877 H 0 Z"
             style="fill:#333d41;fill-opacity:1;fill-rule:nonzero;stroke:none"
             id="path180"
             inkscape:connector-curvature="0" /></g><g
           id="g182"
           transform="translate(436.7344,206.5664)"><path
             d="M 0,0 11.772,24.028 V 0 Z M 37.879,0 H 30.573 V 49.417 H 9.529 L -15.442,1.666 v -18.074 h 27.214 v -15.349 h 18.801 v 15.349 h 7.306 z"
             style="fill:#333d41;fill-opacity:1;fill-rule:nonzero;stroke:none"
             id="path184"
             inkscape:connector-curvature="0" /></g><g
           id="g186"
           transform="translate(217.04,92.9131)"><path
             d="m 0,0 c -0.059,-0.874 -0.207,-1.942 -1.584,-3.128 -1.263,-1.083 -4.58,-1.229 -6.246,-1.25 -1.664,0.021 -4.983,0.167 -6.245,1.25 -1.377,1.186 -1.525,2.254 -1.583,3.128 v 11.498 c 0.058,0.875 0.206,1.942 1.583,3.126 1.262,1.085 4.581,1.231 6.245,1.253 1.666,-0.022 4.983,-0.168 6.246,-1.253 C -0.207,13.44 -0.059,12.373 0,11.498 Z m -14.335,46.231 c 0.049,0.666 0.172,1.479 1.315,2.38 1.051,0.824 3.806,0.934 5.19,0.951 1.386,-0.017 4.14,-0.127 5.19,-0.951 1.145,-0.901 1.268,-1.714 1.317,-2.38 v -8.742 c -0.049,-0.664 -0.172,-1.476 -1.317,-2.379 -1.05,-0.823 -3.804,-0.934 -5.19,-0.95 -1.384,0.016 -4.139,0.127 -5.19,0.95 -1.143,0.903 -1.266,1.715 -1.315,2.379 z M 15.626,22.298 c -1.919,1.997 -3.207,2.913 -4.354,3.294 0.653,0.483 1.394,1.15 2.286,2.078 2.571,2.677 2.841,5.134 2.914,7.036 v 17.849 c -0.073,1.901 -0.343,4.357 -2.914,7.035 -2.571,2.676 -3.903,3.223 -5.402,3.223 h -15.51 -0.951 -15.509 c -1.499,0 -2.832,-0.547 -5.403,-3.223 -2.571,-2.678 -2.84,-5.134 -2.914,-7.035 V 34.706 c 0.074,-1.902 0.343,-4.359 2.914,-7.036 0.893,-0.928 1.634,-1.595 2.287,-2.078 -1.146,-0.381 -2.435,-1.297 -4.355,-3.294 -2.82,-2.934 -3.116,-5.627 -3.194,-7.715 V -6.97 c 0.078,-2.087 0.374,-4.781 3.194,-7.716 2.82,-2.935 4.29,-3.536 5.925,-3.536 h 17.008 1.044 17.01 c 1.635,0 3.105,0.601 5.924,3.536 2.82,2.935 3.117,5.629 3.195,7.716 v 21.553 c -0.078,2.088 -0.375,4.781 -3.195,7.715"
             style="fill:#333d41;fill-opacity:1;fill-rule:nonzero;stroke:none"
             id="path188"
             inkscape:connector-curvature="0" /></g><g
           id="g190"
           transform="translate(141.9824,155.7256)"><path
             d="m 0,0 h -16.408 v -16.409 -6.459 H 0 v 6.459 H 18.456 L -7.015,-81.173 h 18.456 l 25.472,64.764 V 0 Z"
             style="fill:#333d41;fill-opacity:1;fill-rule:nonzero;stroke:none"
             id="path192"
             inkscape:connector-curvature="0" /></g><g
           id="g194"
           transform="translate(398.4492,720.5225)"><path
             d="m 0,0 h -24.972 -10e-4 v -24.971 -9.831 H 0 v 9.831 h 28.087 l -38.763,-98.559 h 28.087 l 38.763,98.559 0,24.971 z"
             style="fill:#ce3633;fill-opacity:1;fill-rule:nonzero;stroke:none"
             id="path196"
             inkscape:connector-curvature="0" /></g><g
           id="g198"
           transform="translate(488.8262,720.5225)"><path
             d="m 0,0 h -24.972 -10e-4 v -24.971 -9.831 H 0 v 9.831 h 28.087 l -38.763,-98.559 h 28.087 l 38.763,98.559 0,24.971 z"
             style="fill:#ce3633;fill-opacity:1;fill-rule:nonzero;stroke:none"
             id="path200"
             inkscape:connector-curvature="0" /></g></g></g></g></svg>