<?xml version="1.0" encoding="UTF-8" standalone="no"?>
<!-- Created with Inkscape (http://www.inkscape.org/) -->

<svg
   xmlns:dc="http://purl.org/dc/elements/1.1/"
   xmlns:cc="http://creativecommons.org/ns#"
   xmlns:rdf="http://www.w3.org/1999/02/22-rdf-syntax-ns#"
   xmlns:svg="http://www.w3.org/2000/svg"
   xmlns="http://www.w3.org/2000/svg"
   xmlns:sodipodi="http://sodipodi.sourceforge.net/DTD/sodipodi-0.dtd"
   xmlns:inkscape="http://www.inkscape.org/namespaces/inkscape"
   version="1.1"
   id="svg2"
   xml:space="preserve"
   width="793.70667"
   height="1053.1414"
   viewBox="0 0 793.70667 1053.1414"
   sodipodi:docname="showcase_may77_4.svg"
   inkscape:version="0.92.2 5c3e80d, 2017-08-06"><metadata
     id="metadata8"><rdf:RDF><cc:Work
         rdf:about=""><dc:format>image/svg+xml</dc:format><dc:type
           rdf:resource="http://purl.org/dc/dcmitype/StillImage" /><dc:title></dc:title></cc:Work></rdf:RDF></metadata><defs
     id="defs6"><clipPath
       clipPathUnits="userSpaceOnUse"
       id="clipPath18"><path
         d="M 0,789.856 H 595.28 V 0 H 0 Z"
         id="path16"
         inkscape:connector-curvature="0" /></clipPath><clipPath
       clipPathUnits="userSpaceOnUse"
       id="clipPath30"><path
         d="M 0,789.856 H 595.28 V 0 H 0 Z"
         id="path28"
         inkscape:connector-curvature="0" /></clipPath><clipPath
       clipPathUnits="userSpaceOnUse"
       id="clipPath152"><path
         d="M 0,789.856 H 595.28 V 0 H 0 Z"
         id="path150"
         inkscape:connector-curvature="0" /></clipPath></defs><sodipodi:namedview
     pagecolor="#ffffff"
     bordercolor="#666666"
     borderopacity="1"
     objecttolerance="10"
     gridtolerance="10"
     guidetolerance="10"
     inkscape:pageopacity="0"
     inkscape:pageshadow="2"
     inkscape:window-width="1920"
     inkscape:window-height="1036"
     id="namedview4"
     showgrid="false"
     inkscape:zoom="0.63382641"
     inkscape:cx="-39.199503"
     inkscape:cy="757.34089"
     inkscape:window-x="0"
     inkscape:window-y="20"
     inkscape:window-maximized="0"
     inkscape:current-layer="g10" /><g
     id="g10"
     inkscape:groupmode="layer"
     inkscape:label="showc"
     transform="matrix(1.3333333,0,0,-1.3333333,0,1053.1413)"><g
       id="g12"><g
         id="g14"
         clip-path="url(#clipPath18)"><path
           d="m 583.743,724.996 h -53.325 v 53.325 h 53.325 z m 0,-64.86 h -53.325 v 53.325 h 53.325 z m 0,-64.86 h -53.325 v 53.325 h 53.325 z m 0,-64.86 h -53.325 v 53.325 h 53.325 z m 0,-64.86 h -53.325 v 53.325 h 53.325 z m 0,-64.86 h -53.325 v 53.325 h 53.325 z m 0,-64.861 h -53.325 v 53.326 h 53.325 z m 0,-64.859 h -53.325 v 53.326 h 53.325 z m 0,-64.86 h -53.325 v 53.324 h 53.325 z m 0,-64.859 h -53.325 v 53.324 h 53.325 z m 0,-64.861 h -53.325 v 53.326 h 53.325 z m 0,-64.86 h -53.325 v 53.326 h 53.325 z m -64.86,713.46 h -53.325 v 53.325 h 53.325 z m 0,-64.86 h -53.325 v 53.325 h 53.325 z m 0,-64.86 h -53.325 v 53.325 h 53.325 z m 0,-64.86 h -53.325 v 53.325 h 53.325 z m 0,-64.86 h -53.325 v 53.325 h 53.325 z m 0,-64.86 h -53.325 v 53.325 h 53.325 z m 0,-64.861 h -53.325 v 53.326 h 53.325 z m 0,-64.859 h -53.325 v 53.326 h 53.325 z m 0,-64.86 h -53.325 v 53.324 h 53.325 z m 0,-64.859 h -53.325 v 53.324 h 53.325 z m 0,-64.861 h -53.325 v 53.326 h 53.325 z m 0,-64.86 h -53.325 v 53.326 h 53.325 z m -64.861,713.46 h -53.325 v 53.325 h 53.325 z m 0,-64.86 h -53.325 v 53.325 h 53.325 z m 0,-64.86 h -53.325 v 53.325 h 53.325 z m 0,-64.86 h -53.325 v 53.325 h 53.325 z m 0,-64.86 h -53.325 v 53.325 h 53.325 z m 0,-64.86 h -53.325 v 53.325 h 53.325 z m 0,-64.861 h -53.325 v 53.326 h 53.325 z m 0,-64.859 h -53.325 v 53.326 h 53.325 z m 0,-64.86 h -53.325 v 53.324 h 53.325 z m 0,-64.859 h -53.325 v 53.324 h 53.325 z m 0,-64.861 h -53.325 v 53.326 h 53.325 z m 0,-64.86 h -53.325 v 53.326 h 53.325 z m -64.859,713.46 h -53.325 v 53.325 h 53.325 z m 0,-64.86 h -53.325 v 53.325 h 53.325 z m 0,-64.86 h -53.325 v 53.325 h 53.325 z m 0,-64.86 h -53.325 v 53.325 h 53.325 z m 0,-64.86 h -53.325 v 53.325 h 53.325 z m 0,-64.86 h -53.325 v 53.325 h 53.325 z m 0,-64.861 h -53.325 v 53.326 h 53.325 z m 0,-64.859 h -53.325 v 53.326 h 53.325 z m 0,-64.86 h -53.325 v 53.324 h 53.325 z m 0,-64.859 h -53.325 v 53.324 h 53.325 z m 0,-64.861 h -53.325 v 53.326 h 53.325 z m 0,-64.86 h -53.325 v 53.326 h 53.325 z m -64.86,713.46 h -53.325 v 53.325 h 53.325 z m 0,-64.86 h -53.325 v 53.325 h 53.325 z m 0,-64.86 h -53.325 v 53.325 h 53.325 z m 0,-64.86 h -53.325 v 53.325 h 53.325 z m 0,-64.86 h -53.325 v 53.325 h 53.325 z m 0,-64.86 h -53.325 v 53.325 h 53.325 z m 0,-64.861 h -53.325 v 53.326 h 53.325 z m 0,-64.859 h -53.325 v 53.326 h 53.325 z m 0,-64.86 h -53.325 v 53.324 h 53.325 z m 0,-64.859 h -53.325 v 53.324 h 53.325 z m 0,-64.861 h -53.325 v 53.326 h 53.325 z m 0,-64.86 h -53.325 v 53.326 h 53.325 z m -64.86,713.46 h -53.326 v 53.325 h 53.326 z m 0,-64.86 h -53.326 v 53.325 h 53.326 z m 0,-64.86 h -53.326 v 53.325 h 53.326 z m 0,-64.86 h -53.326 v 53.325 h 53.326 z m 0,-64.86 h -53.326 v 53.325 h 53.326 z m 0,-64.86 h -53.326 v 53.325 h 53.326 z m 0,-64.861 h -53.326 v 53.326 h 53.326 z m 0,-64.859 h -53.326 v 53.326 h 53.326 z m 0,-64.86 h -53.326 v 53.324 h 53.326 z m 0,-64.859 h -53.326 v 53.324 h 53.326 z m 0,-64.861 h -53.326 v 53.326 h 53.326 z m 0,-64.86 h -53.326 v 53.326 h 53.326 z m -64.86,713.46 h -53.325 v 53.325 h 53.325 z m 0,-64.86 h -53.325 v 53.325 h 53.325 z m 0,-64.86 h -53.325 v 53.325 h 53.325 z m 0,-64.86 h -53.325 v 53.325 h 53.325 z m 0,-64.86 h -53.325 v 53.325 h 53.325 z m 0,-64.86 h -53.325 v 53.325 h 53.325 z m 0,-64.861 h -53.325 v 53.326 h 53.325 z m 0,-64.859 h -53.325 v 53.326 h 53.325 z m 0,-64.86 h -53.325 v 53.324 h 53.325 z m 0,-64.859 h -53.325 v 53.324 h 53.325 z m 0,-64.861 h -53.325 v 53.326 h 53.325 z m 0,-64.86 h -53.325 v 53.326 h 53.325 z m -64.86,713.46 H 76.398 v 53.325 h 53.325 z m 0,-64.86 H 76.398 v 53.325 h 53.325 z m 0,-64.86 H 76.398 v 53.325 h 53.325 z m 0,-64.86 H 76.398 v 53.325 h 53.325 z m 0,-64.86 H 76.398 v 53.325 h 53.325 z m 0,-64.86 H 76.398 v 53.325 h 53.325 z m 0,-64.861 H 76.398 v 53.326 h 53.325 z m 0,-64.859 H 76.398 v 53.326 h 53.325 z m 0,-64.86 H 76.398 v 53.324 h 53.325 z m 0,-64.859 H 76.398 v 53.324 h 53.325 z m 0,-64.861 H 76.398 v 53.326 h 53.325 z m 0,-64.86 H 76.398 v 53.326 h 53.325 z M 64.862,724.996 H 11.537 v 53.325 h 53.325 z m 0,-64.86 H 11.537 v 53.325 h 53.325 z m 0,-64.86 H 11.537 v 53.325 h 53.325 z m 0,-64.86 H 11.537 v 53.325 h 53.325 z m 0,-64.86 H 11.537 v 53.325 h 53.325 z m 0,-64.86 H 11.537 v 53.325 h 53.325 z m 0,-64.861 H 11.537 v 53.326 h 53.325 z m 0,-64.859 H 11.537 v 53.326 h 53.325 z m 0,-64.86 H 11.537 v 53.324 h 53.325 z m 0,-64.859 H 11.537 v 53.324 h 53.325 z m 0,-64.861 H 11.537 v 53.326 h 53.325 z m 0,-64.86 H 11.537 V 64.862 H 64.862 Z M 0,-0.167 H 595.113 V 789.856 H 0 Z"
           style="fill:none;stroke:#bcbec0;stroke-width:1;stroke-linecap:butt;stroke-linejoin:miter;stroke-miterlimit:10;stroke-dasharray:none;stroke-opacity:1"
           id="path20"
           inkscape:connector-curvature="0" /></g></g><path
       d="M 0,0 H 595.281 V 789.856 H 0 Z"
       style="fill:#e7e8eb;fill-opacity:1;fill-rule:nonzero;stroke:none"
       id="path22"
       inkscape:connector-curvature="0" /><g
       id="g24"><g
         id="g26"
         clip-path="url(#clipPath30)"><g
           id="g32"
           transform="translate(82.0518,653.3892)"><path
             d="M 0,0 H 6.048 C 6.6,0 7.128,0.054 7.632,0.162 8.136,0.27 8.58,0.45 8.964,0.702 c 0.383,0.252 0.689,0.594 0.918,1.026 0.227,0.432 0.342,0.984 0.342,1.656 0,1.32 -0.372,2.262 -1.116,2.826 C 8.364,6.773 7.38,7.056 6.156,7.056 H 0 Z m 0,10.908 h 5.724 c 1.008,0 1.836,0.239 2.484,0.72 0.648,0.48 0.972,1.26 0.972,2.34 0,0.599 -0.108,1.092 -0.324,1.476 -0.216,0.384 -0.504,0.684 -0.864,0.9 C 7.632,16.56 7.218,16.709 6.75,16.794 6.282,16.878 5.796,16.92 5.292,16.92 H 0 Z M -5.652,21.312 H 6.444 c 1.224,0 2.34,-0.108 3.348,-0.324 1.008,-0.216 1.872,-0.571 2.592,-1.062 0.72,-0.492 1.278,-1.147 1.674,-1.962 0.396,-0.816 0.594,-1.824 0.594,-3.024 0,-1.273 -0.3,-2.346 -0.9,-3.222 -0.601,-0.877 -1.464,-1.59 -2.592,-2.142 1.584,-0.456 2.766,-1.254 3.546,-2.394 0.779,-1.14 1.17,-2.515 1.17,-4.122 0,-1.296 -0.252,-2.418 -0.756,-3.366 C 14.616,-1.254 13.938,-2.028 13.086,-2.628 12.233,-3.229 11.262,-3.672 10.17,-3.96 9.078,-4.248 7.956,-4.392 6.804,-4.392 H -5.652 Z"
             style="fill:#4b565a;fill-opacity:1;fill-rule:nonzero;stroke:none"
             id="path34"
             inkscape:connector-curvature="0" /></g><g
           id="g36"
           transform="translate(112.8315,660.3013)"><path
             d="M 0,0 C -0.24,1.296 -0.666,2.28 -1.278,2.952 -1.89,3.624 -2.82,3.96 -4.068,3.96 -4.884,3.96 -5.562,3.821 -6.102,3.546 -6.642,3.27 -7.074,2.928 -7.398,2.52 -7.722,2.111 -7.951,1.679 -8.082,1.224 -8.214,0.768 -8.292,0.36 -8.316,0 Z m -8.316,-3.24 c 0.072,-1.633 0.491,-2.826 1.26,-3.582 0.767,-0.756 1.872,-1.134 3.312,-1.134 1.032,0 1.92,0.257 2.664,0.774 0.744,0.515 1.2,1.062 1.368,1.638 h 4.5 c -0.72,-2.208 -1.824,-3.804 -3.312,-4.788 -1.489,-0.984 -3.289,-1.476 -5.4,-1.476 -1.464,0 -2.784,0.24 -3.96,0.72 -1.177,0.48 -2.173,1.152 -2.988,2.016 -0.816,0.864 -1.446,1.895 -1.89,3.096 -0.445,1.2 -0.666,2.52 -0.666,3.96 0,1.391 0.228,2.687 0.684,3.888 0.455,1.2 1.103,2.237 1.944,3.114 0.84,0.876 1.842,1.566 3.006,2.07 1.164,0.504 2.454,0.756 3.87,0.756 1.584,0 2.964,-0.306 4.14,-0.918 C 1.392,6.282 2.358,5.459 3.114,4.428 3.87,3.396 4.416,2.219 4.752,0.9 5.087,-0.42 5.208,-1.8 5.112,-3.24 Z"
             style="fill:#4b565a;fill-opacity:1;fill-rule:nonzero;stroke:none"
             id="path38"
             inkscape:connector-curvature="0" /></g><g
           id="g40"
           transform="translate(119.7852,674.7012)"><path
             d="m 0,0 h 5.112 v -13.788 l 6.444,6.696 h 6.048 l -7.02,-6.84 7.812,-11.772 h -6.192 l -5.112,8.316 -1.98,-1.908 v -6.408 H 0 Z"
             style="fill:#4b565a;fill-opacity:1;fill-rule:nonzero;stroke:none"
             id="path42"
             inkscape:connector-curvature="0" /></g><path
           d="m 139.225,674.701 h 5.112 v -25.704 h -5.112 z"
           style="fill:#4b565a;fill-opacity:1;fill-rule:nonzero;stroke:none"
           id="path44"
           inkscape:connector-curvature="0" /><g
           id="g46"
           transform="translate(159.6216,660.3013)"><path
             d="M 0,0 C -0.24,1.296 -0.666,2.28 -1.278,2.952 -1.89,3.624 -2.82,3.96 -4.068,3.96 -4.884,3.96 -5.562,3.821 -6.102,3.546 -6.642,3.27 -7.074,2.928 -7.398,2.52 -7.722,2.111 -7.951,1.679 -8.082,1.224 -8.214,0.768 -8.292,0.36 -8.316,0 Z m -8.316,-3.24 c 0.072,-1.633 0.491,-2.826 1.26,-3.582 0.767,-0.756 1.872,-1.134 3.312,-1.134 1.032,0 1.92,0.257 2.664,0.774 0.744,0.515 1.2,1.062 1.368,1.638 h 4.5 c -0.72,-2.208 -1.824,-3.804 -3.312,-4.788 -1.489,-0.984 -3.289,-1.476 -5.4,-1.476 -1.464,0 -2.784,0.24 -3.96,0.72 -1.177,0.48 -2.173,1.152 -2.988,2.016 -0.816,0.864 -1.446,1.895 -1.89,3.096 -0.445,1.2 -0.666,2.52 -0.666,3.96 0,1.391 0.228,2.687 0.684,3.888 0.455,1.2 1.103,2.237 1.944,3.114 0.84,0.876 1.842,1.566 3.006,2.07 1.164,0.504 2.454,0.756 3.87,0.756 1.584,0 2.964,-0.306 4.14,-0.918 C 1.392,6.282 2.358,5.459 3.114,4.428 3.87,3.396 4.416,2.219 4.752,0.9 5.087,-0.42 5.208,-1.8 5.112,-3.24 Z"
             style="fill:#4b565a;fill-opacity:1;fill-rule:nonzero;stroke:none"
             id="path48"
             inkscape:connector-curvature="0" /></g><g
           id="g50"
           transform="translate(175.2871,646.6572)"><path
             d="m 0,0 c -0.552,-1.488 -1.32,-2.562 -2.304,-3.222 -0.985,-0.66 -2.352,-0.99 -4.104,-0.99 -0.528,0 -1.05,0.018 -1.566,0.054 -0.516,0.036 -1.038,0.078 -1.566,0.126 V 0.18 c 0.48,-0.048 0.972,-0.096 1.476,-0.144 0.504,-0.048 1.008,-0.06 1.512,-0.036 0.432,0.048 0.798,0.186 1.098,0.414 0.3,0.228 0.522,0.51 0.666,0.846 0.144,0.336 0.216,0.696 0.216,1.08 0,0.408 -0.072,0.792 -0.216,1.152 l -6.552,17.46 h 5.472 L -1.656,8.208 h 0.072 l 4.068,12.744 h 5.292 z"
             style="fill:#4b565a;fill-opacity:1;fill-rule:nonzero;stroke:none"
             id="path52"
             inkscape:connector-curvature="0" /></g><path
           d="m 184.66,667.609 h 5.112 v -18.612 h -5.112 z m 5.112,2.88 h -5.112 v 4.212 h 5.112 z"
           style="fill:#4b565a;fill-opacity:1;fill-rule:nonzero;stroke:none"
           id="path54"
           inkscape:connector-curvature="0" /><g
           id="g56"
           transform="translate(196.6499,643.7051)"><path
             d="m 0,0 c 0.384,-0.167 0.828,-0.318 1.332,-0.45 0.504,-0.132 1.068,-0.198 1.692,-0.198 0.432,0 0.78,0.096 1.044,0.288 0.264,0.193 0.396,0.504 0.396,0.936 0,0.456 -0.138,0.762 -0.414,0.918 C 3.774,1.65 3.432,1.728 3.024,1.728 2.52,1.728 2.04,1.644 1.584,1.476 L 0.828,2.34 2.628,4.824 C 1.956,4.896 1.308,4.992 0.684,5.112 -0.348,5.328 -1.266,5.694 -2.07,6.21 c -0.805,0.516 -1.464,1.194 -1.98,2.034 -0.516,0.84 -0.798,1.872 -0.846,3.096 h 4.86 c 0,-0.552 0.114,-1.026 0.342,-1.422 C 0.534,9.522 0.828,9.198 1.188,8.946 1.548,8.694 1.962,8.508 2.43,8.388 c 0.468,-0.12 0.954,-0.18 1.458,-0.18 0.36,0 0.738,0.042 1.134,0.126 0.396,0.084 0.756,0.216 1.08,0.396 0.324,0.18 0.594,0.419 0.81,0.72 0.216,0.3 0.324,0.678 0.324,1.134 0,0.384 -0.132,0.714 -0.396,0.99 -0.264,0.276 -0.642,0.522 -1.134,0.738 -0.492,0.216 -1.098,0.414 -1.818,0.594 -0.72,0.18 -1.536,0.365 -2.448,0.558 -0.744,0.168 -1.47,0.366 -2.178,0.594 -0.708,0.228 -1.338,0.527 -1.89,0.9 -0.552,0.372 -0.996,0.84 -1.332,1.404 -0.336,0.564 -0.504,1.254 -0.504,2.07 0,1.175 0.234,2.154 0.702,2.934 0.468,0.78 1.086,1.392 1.854,1.836 0.768,0.444 1.632,0.756 2.592,0.936 0.96,0.18 1.944,0.27 2.952,0.27 1.008,0 1.986,-0.096 2.934,-0.288 0.948,-0.192 1.794,-0.516 2.538,-0.972 0.744,-0.456 1.362,-1.062 1.854,-1.818 0.492,-0.756 0.786,-1.71 0.882,-2.862 h -4.86 c -0.072,0.984 -0.444,1.65 -1.116,1.998 -0.672,0.347 -1.464,0.522 -2.376,0.522 -0.288,0 -0.6,-0.018 -0.936,-0.054 C 2.22,20.898 1.914,20.82 1.638,20.7 1.362,20.58 1.128,20.406 0.936,20.178 0.744,19.95 0.648,19.644 0.648,19.26 c 0,-0.456 0.168,-0.828 0.504,-1.116 0.336,-0.288 0.774,-0.522 1.314,-0.702 0.54,-0.18 1.158,-0.342 1.854,-0.486 0.696,-0.144 1.404,-0.3 2.124,-0.468 0.744,-0.168 1.47,-0.372 2.178,-0.612 0.708,-0.24 1.337,-0.558 1.89,-0.954 0.552,-0.396 0.996,-0.888 1.332,-1.476 0.336,-0.589 0.504,-1.314 0.504,-2.178 0,-1.224 -0.246,-2.25 -0.738,-3.078 C 11.118,7.362 10.476,6.696 9.684,6.192 8.892,5.688 7.979,5.328 6.948,5.112 6.084,4.944 5.208,4.836 4.32,4.788 L 3.312,3.42 3.348,3.348 C 3.78,3.516 4.2,3.6 4.608,3.6 5.016,3.6 5.418,3.552 5.814,3.456 6.21,3.36 6.564,3.21 6.876,3.006 7.188,2.802 7.439,2.538 7.632,2.214 7.824,1.89 7.92,1.512 7.92,1.08 7.92,0.384 7.8,-0.198 7.56,-0.666 7.32,-1.134 6.996,-1.506 6.588,-1.782 6.18,-2.058 5.729,-2.25 5.238,-2.358 4.746,-2.466 4.236,-2.52 3.708,-2.52 c -0.576,0 -1.068,0.018 -1.476,0.054 -0.408,0.036 -0.774,0.09 -1.098,0.162 -0.324,0.072 -0.636,0.157 -0.936,0.252 -0.301,0.096 -0.618,0.204 -0.954,0.324 z"
             style="fill:#4b565a;fill-opacity:1;fill-rule:nonzero;stroke:none"
             id="path58"
             inkscape:connector-curvature="0" /></g><g
           id="g60"
           transform="translate(224.1533,655.0449)"><path
             d="m 0,0 c 0,-0.552 0.114,-1.026 0.342,-1.422 0.228,-0.396 0.522,-0.72 0.882,-0.972 0.36,-0.252 0.774,-0.438 1.242,-0.558 0.468,-0.12 0.954,-0.18 1.458,-0.18 0.36,0 0.738,0.042 1.134,0.126 0.396,0.084 0.756,0.216 1.08,0.396 0.324,0.18 0.594,0.42 0.81,0.72 0.216,0.3 0.324,0.678 0.324,1.134 0,0.384 -0.132,0.714 -0.396,0.99 C 6.612,0.51 6.234,0.756 5.742,0.972 5.25,1.188 4.644,1.386 3.924,1.566 3.204,1.746 2.388,1.932 1.476,2.124 0.732,2.292 0.006,2.49 -0.702,2.718 c -0.708,0.228 -1.338,0.528 -1.89,0.9 -0.552,0.372 -0.996,0.84 -1.332,1.404 -0.336,0.564 -0.504,1.254 -0.504,2.07 0,1.176 0.234,2.154 0.702,2.934 0.468,0.78 1.086,1.392 1.854,1.836 0.768,0.444 1.632,0.756 2.592,0.936 0.96,0.18 1.944,0.27 2.952,0.27 1.008,0 1.986,-0.096 2.934,-0.288 C 7.554,12.588 8.4,12.264 9.144,11.808 9.888,11.352 10.506,10.746 10.998,9.99 11.49,9.234 11.784,8.28 11.88,7.128 H 7.02 C 6.948,8.112 6.576,8.778 5.904,9.126 5.232,9.474 4.44,9.648 3.528,9.648 3.24,9.648 2.928,9.63 2.592,9.594 2.256,9.558 1.95,9.48 1.674,9.36 1.398,9.24 1.164,9.066 0.972,8.838 0.78,8.61 0.684,8.304 0.684,7.92 0.684,7.464 0.852,7.092 1.188,6.804 1.524,6.516 1.962,6.282 2.502,6.102 3.042,5.922 3.66,5.76 4.356,5.616 5.052,5.472 5.76,5.316 6.48,5.148 7.224,4.98 7.95,4.776 8.658,4.536 9.366,4.296 9.996,3.978 10.548,3.582 11.1,3.186 11.544,2.694 11.88,2.106 c 0.336,-0.588 0.504,-1.314 0.504,-2.178 0,-1.224 -0.246,-2.25 -0.738,-3.078 C 11.154,-3.978 10.512,-4.644 9.72,-5.148 8.928,-5.652 8.022,-6.012 7.002,-6.228 5.982,-6.444 4.944,-6.552 3.888,-6.552 c -1.08,0 -2.136,0.108 -3.168,0.324 -1.032,0.216 -1.95,0.582 -2.754,1.098 -0.804,0.516 -1.464,1.194 -1.98,2.034 C -4.53,-2.256 -4.812,-1.224 -4.86,0 Z"
             style="fill:#4b565a;fill-opacity:1;fill-rule:nonzero;stroke:none"
             id="path62"
             inkscape:connector-curvature="0" /></g><g
           id="g64"
           transform="translate(243.1606,658.2852)"><path
             d="M 0,0 C 0,-0.744 0.072,-1.471 0.216,-2.178 0.36,-2.886 0.606,-3.522 0.954,-4.086 1.302,-4.65 1.764,-5.1 2.34,-5.436 2.916,-5.772 3.636,-5.94 4.5,-5.94 c 0.864,0 1.59,0.168 2.178,0.504 0.588,0.336 1.056,0.786 1.404,1.35 0.348,0.564 0.594,1.2 0.738,1.908 C 8.964,-1.471 9.036,-0.744 9.036,0 9.036,0.744 8.964,1.476 8.82,2.196 8.676,2.916 8.43,3.552 8.082,4.104 7.734,4.656 7.266,5.106 6.678,5.454 6.09,5.802 5.364,5.976 4.5,5.976 3.636,5.976 2.916,5.802 2.34,5.454 1.764,5.106 1.302,4.656 0.954,4.104 0.606,3.552 0.36,2.916 0.216,2.196 0.072,1.476 0,0.744 0,0 m -5.112,0 c 0,1.488 0.228,2.838 0.684,4.05 0.456,1.212 1.104,2.244 1.944,3.096 0.84,0.852 1.848,1.512 3.024,1.98 1.176,0.468 2.496,0.702 3.96,0.702 1.464,0 2.79,-0.234 3.978,-0.702 C 9.666,8.658 10.68,7.998 11.52,7.146 12.36,6.294 13.008,5.262 13.464,4.05 13.919,2.838 14.148,1.488 14.148,0 c 0,-1.488 -0.229,-2.832 -0.684,-4.032 C 13.008,-5.232 12.36,-6.258 11.52,-7.11 10.68,-7.962 9.666,-8.622 8.478,-9.09 7.29,-9.558 5.964,-9.792 4.5,-9.792 c -1.464,0 -2.784,0.234 -3.96,0.702 -1.176,0.468 -2.184,1.128 -3.024,1.98 -0.84,0.852 -1.488,1.878 -1.944,3.078 -0.456,1.2 -0.684,2.544 -0.684,4.032"
             style="fill:#4b565a;fill-opacity:1;fill-rule:nonzero;stroke:none"
             id="path66"
             inkscape:connector-curvature="0" /></g><g
           id="g68"
           transform="translate(258.9707,667.6089)"><path
             d="m 0,0 h 4.86 v -2.592 h 0.108 c 0.648,1.056 1.488,1.836 2.52,2.34 1.032,0.504 2.088,0.756 3.168,0.756 1.368,0 2.49,-0.186 3.366,-0.558 0.876,-0.372 1.566,-0.888 2.07,-1.548 0.504,-0.66 0.858,-1.464 1.062,-2.412 0.204,-0.948 0.306,-1.998 0.306,-3.15 V -18.612 H 12.348 V -8.1 c 0,1.536 -0.246,2.682 -0.738,3.438 -0.492,0.756 -1.338,1.134 -2.538,1.134 -1.392,0 -2.4,-0.414 -3.024,-1.242 C 5.424,-5.598 5.112,-6.96 5.112,-8.856 v -9.756 H 0 Z"
             style="fill:#4b565a;fill-opacity:1;fill-rule:nonzero;stroke:none"
             id="path70"
             inkscape:connector-curvature="0" /></g><g
           id="g72"
           transform="translate(290.5103,658.105)"><path
             d="M 0,0 C -0.216,-0.192 -0.486,-0.342 -0.81,-0.45 -1.134,-0.558 -1.482,-0.648 -1.854,-0.72 -2.227,-0.792 -2.623,-0.852 -3.042,-0.9 -3.462,-0.948 -3.865,-1.008 -4.248,-1.08 -4.657,-1.152 -5.04,-1.248 -5.4,-1.368 -5.76,-1.488 -6.079,-1.65 -6.354,-1.854 -6.63,-2.058 -6.853,-2.322 -7.02,-2.646 -7.188,-2.97 -7.272,-3.36 -7.272,-3.816 c 0,-0.48 0.084,-0.87 0.252,-1.17 0.167,-0.3 0.396,-0.54 0.684,-0.72 0.288,-0.18 0.624,-0.306 1.008,-0.378 0.384,-0.072 0.78,-0.108 1.188,-0.108 1.008,0 1.787,0.168 2.34,0.504 0.551,0.336 0.96,0.738 1.224,1.206 0.263,0.468 0.426,0.941 0.486,1.422 0.06,0.48 0.09,0.864 0.09,1.152 z m -11.808,3.78 c 0.072,1.2 0.371,2.196 0.9,2.988 0.528,0.792 1.2,1.428 2.016,1.908 0.815,0.48 1.728,0.822 2.736,1.026 1.008,0.204 2.039,0.306 3.096,0.306 0.936,0 1.884,-0.066 2.844,-0.198 C 0.744,9.678 1.62,9.42 2.412,9.036 3.204,8.652 3.852,8.112 4.356,7.416 4.86,6.72 5.112,5.82 5.112,4.716 v -9.684 c 0,-0.84 0.048,-1.644 0.144,-2.412 C 5.352,-8.148 5.52,-8.724 5.76,-9.108 H 0.576 c -0.097,0.288 -0.175,0.582 -0.234,0.882 -0.06,0.3 -0.103,0.606 -0.126,0.918 -0.816,-0.84 -1.777,-1.434 -2.88,-1.782 -1.105,-0.348 -2.232,-0.522 -3.384,-0.522 -0.889,0 -1.716,0.114 -2.484,0.342 -0.768,0.228 -1.44,0.57 -2.016,1.026 -0.576,0.456 -1.026,1.032 -1.35,1.728 -0.324,0.696 -0.486,1.524 -0.486,2.484 0,1.056 0.18,1.926 0.54,2.61 0.36,0.684 0.84,1.23 1.44,1.638 0.599,0.408 1.278,0.714 2.034,0.918 0.756,0.204 1.53,0.366 2.322,0.486 0.792,0.12 1.548,0.216 2.268,0.288 0.72,0.072 1.362,0.18 1.926,0.324 0.563,0.144 1.014,0.354 1.35,0.63 C -0.168,3.138 0,3.54 0,4.068 c 0,0.552 -0.09,0.99 -0.27,1.314 -0.18,0.324 -0.42,0.576 -0.72,0.756 -0.301,0.18 -0.648,0.3 -1.044,0.36 -0.396,0.06 -0.822,0.09 -1.278,0.09 C -4.296,6.588 -5.083,6.372 -5.67,5.94 -6.258,5.508 -6.601,4.788 -6.696,3.78 Z"
             style="fill:#4b565a;fill-opacity:1;fill-rule:nonzero;stroke:none"
             id="path74"
             inkscape:connector-curvature="0" /></g><g
           id="g76"
           transform="translate(320.3184,660.3013)"><path
             d="M 0,0 C -0.24,1.296 -0.666,2.28 -1.277,2.952 -1.891,3.624 -2.82,3.96 -4.068,3.96 -4.885,3.96 -5.563,3.821 -6.102,3.546 -6.643,3.27 -7.074,2.928 -7.398,2.52 -7.723,2.111 -7.951,1.679 -8.082,1.224 -8.215,0.768 -8.293,0.36 -8.316,0 Z m -8.316,-3.24 c 0.072,-1.633 0.492,-2.826 1.259,-3.582 0.768,-0.756 1.873,-1.134 3.313,-1.134 1.031,0 1.92,0.257 2.664,0.774 0.744,0.515 1.199,1.062 1.367,1.638 h 4.5 c -0.719,-2.208 -1.824,-3.804 -3.31,-4.788 -1.489,-0.984 -3.29,-1.476 -5.401,-1.476 -1.465,0 -2.785,0.24 -3.961,0.72 -1.176,0.48 -2.172,1.152 -2.988,2.016 -0.816,0.864 -1.445,1.895 -1.889,3.096 -0.445,1.2 -0.666,2.52 -0.666,3.96 0,1.391 0.227,2.687 0.684,3.888 0.455,1.2 1.103,2.237 1.943,3.114 0.84,0.876 1.842,1.566 3.006,2.07 1.164,0.504 2.455,0.756 3.871,0.756 1.584,0 2.963,-0.306 4.141,-0.918 C 1.391,6.282 2.357,5.459 3.113,4.428 3.869,3.396 4.416,2.219 4.752,0.9 5.088,-0.42 5.207,-1.8 5.111,-3.24 Z"
             style="fill:#4b565a;fill-opacity:1;fill-rule:nonzero;stroke:none"
             id="path78"
             inkscape:connector-curvature="0" /></g><g
           id="g80"
           transform="translate(326.8047,667.6089)"><path
             d="m 0,0 h 4.859 v -3.456 h 0.073 c 0.238,0.576 0.562,1.11 0.97,1.602 0.409,0.492 0.877,0.912 1.405,1.26 0.527,0.348 1.097,0.618 1.711,0.81 0.611,0.192 1.228,0.288 1.853,0.288 0.383,0 0.756,-0.06 1.115,-0.18 v -4.752 c -0.24,0.048 -0.527,0.09 -0.863,0.126 -0.336,0.036 -0.66,0.054 -0.973,0.054 -0.935,0 -1.726,-0.156 -2.375,-0.468 C 7.127,-5.028 6.605,-5.454 6.209,-5.994 5.813,-6.534 5.531,-7.17 5.363,-7.902 5.195,-8.634 5.111,-9.408 5.111,-10.224 v -8.388 H 0 Z"
             style="fill:#4b565a;fill-opacity:1;fill-rule:nonzero;stroke:none"
             id="path82"
             inkscape:connector-curvature="0" /></g><g
           id="g84"
           transform="translate(353.9883,658.3569)"><path
             d="m 0,0 c 0,0.744 -0.072,1.476 -0.217,2.196 -0.144,0.72 -0.39,1.35 -0.738,1.89 C -1.303,4.626 -1.76,5.064 -2.322,5.4 -2.887,5.736 -3.576,5.904 -4.393,5.904 -5.232,5.904 -5.941,5.736 -6.518,5.4 -7.092,5.064 -7.555,4.62 -7.902,4.068 -8.25,3.516 -8.502,2.886 -8.658,2.178 -8.814,1.47 -8.893,0.732 -8.893,-0.036 c 0,-0.72 0.084,-1.44 0.252,-2.16 0.168,-0.72 0.438,-1.362 0.811,-1.926 0.371,-0.564 0.84,-1.02 1.404,-1.368 0.563,-0.348 1.24,-0.522 2.033,-0.522 0.84,0 1.541,0.168 2.106,0.504 0.564,0.336 1.014,0.786 1.349,1.35 0.336,0.564 0.577,1.206 0.721,1.926 C -0.072,-1.512 0,-0.768 0,0 M 0.07,-6.984 H 0 c -0.602,-1.008 -1.393,-1.74 -2.377,-2.196 -0.984,-0.455 -2.076,-0.684 -3.275,-0.684 -1.416,0 -2.647,0.276 -3.69,0.828 -1.045,0.552 -1.908,1.29 -2.594,2.214 -0.683,0.924 -1.199,1.986 -1.546,3.186 -0.348,1.2 -0.522,2.448 -0.522,3.744 0,1.248 0.174,2.454 0.522,3.618 0.347,1.164 0.863,2.19 1.546,3.078 0.686,0.888 1.543,1.602 2.575,2.142 1.031,0.54 2.232,0.81 3.601,0.81 1.104,0 2.153,-0.234 3.149,-0.702 0.996,-0.468 1.783,-1.158 2.359,-2.07 h 0.07 v 9.36 H 4.932 V -9.36 H 0.07 Z"
             style="fill:#4b565a;fill-opacity:1;fill-rule:nonzero;stroke:none"
             id="path86"
             inkscape:connector-curvature="0" /></g><path
           d="m 361.266,667.609 h 5.111 v -18.612 h -5.111 z m 5.111,2.88 h -5.111 v 4.212 h 5.111 z"
           style="fill:#4b565a;fill-opacity:1;fill-rule:nonzero;stroke:none"
           id="path88"
           inkscape:connector-curvature="0" /><path
           d="m 372.512,654.541 h 5.65 v -5.544 h -5.65 z m 5.65,7.2 h -5.65 v 5.544 h 5.65 z"
           style="fill:#4b565a;fill-opacity:1;fill-rule:nonzero;stroke:none"
           id="path90"
           inkscape:connector-curvature="0" /></g></g><text
       transform="matrix(1,0,0,-1,76.3994,340.8408)"
       style="font-style:italic;font-variant:normal;font-weight:bold;font-stretch:condensed;font-size:21px;font-family:'HelveticaNeueLT Com 57 Cn';-inkscape-font-specification:HelveticaNeueLTCom-BdCnO;writing-mode:lr-tb;fill:#9c2b27;fill-opacity:1;fill-rule:nonzero;stroke:none"
       id="text100"><tspan
         x="0 11.508 16.527 23.351999 32.717999 41.790001 51.155998 60.837002 65.876999 70.917 76.986 86.982002 96.222 106.239 112.896 117.894 133.77 143.388 148.323 158.75999 168.77699 179.27699"
         y="0"
         sodipodi:role="line"
         id="tspan92">Bireysel tasarımcıdan </tspan><tspan
         x="0 9.0930004 18.816 29.274 34.313999 39.354 48.972 58.946999 63.84 68.795998 78.078003 93.848999 103.572 108.612"
         y="27.006001"
         sodipodi:role="line"
         id="tspan94">yeni çalışma: </tspan><tspan
         x="0 9.8280001 19.551001 26.25 31.184999 36.224998 41.264999 48.09 57.687 67.662003 72.597 77.573997 86.730003 92.945999 97.986 107.226 117.243 127.722 136.94099 144.69 154.056 163.77901 170.478 175.32899 181.545"
         y="54.012001"
         sodipodi:role="line"
         id="tspan96">Yerli realist sans-serif </tspan><tspan
         x="0 10.416 15.435 22.427999 27.468 36.435001 46.221001 54.999001 59.639999 68.691002 79.023003 87.885002"
         y="81.017998"
         sodipodi:role="line"
         id="tspan98">bir yazıyüzü</tspan></text>
<text
       transform="matrix(1,0,0,-1,76.3994,232.8168)"
       style="font-variant:normal;font-weight:normal;font-stretch:condensed;font-size:21px;font-family:'HelveticaNeueLT Com 57 Cn';-inkscape-font-specification:HelveticaNeueLTCom-Cn;writing-mode:lr-tb;fill:#4b565a;fill-opacity:1;fill-rule:nonzero;stroke:none"
       id="text104"><tspan
         x="0 9.2399998 18.690001 24.843 34.188 38.283001 46.389 55.146 59.199001 68.691002 78.014999 83.055 92.546997 98.657997 107.877 113.127 122.304 130.914 136.248 145.57201 150.612 159.558 168.651 178.164 187.57201 191.856"
         y="0"
         sodipodi:role="line"
         id="tspan102">Türkiye’de protesto kendi </tspan></text>
<text
       transform="matrix(1,0,0,-1,76.3994,205.8108)"
       style="font-variant:normal;font-weight:normal;font-stretch:condensed;font-size:21px;font-family:'HelveticaNeueLT Com 57 Cn';-inkscape-font-specification:HelveticaNeueLTCom-Cn;writing-mode:lr-tb;fill:#4b565a;fill-opacity:1;fill-rule:nonzero;stroke:none"
       id="text120"><tspan
         x="0 8.3999996 17.577 25.914 29.882999 39.27 43.554001 48.594002 57.75 64.050003 68.355003 76.566002 85.722 90.594002 95.634003 100.674 109.599 119.973 130.22099 140.112 144.459 148.51199 157.668 163.758 173.29201 182.448 192.17101"
         y="0"
         sodipodi:role="line"
         id="tspan106">sesini arıyor. 1960’lardan </tspan><tspan
         x="0 9.5129995 18.606001 24.716999 29.000999 34.041 43.196999 49.917 55.481998 64.638 74.361 79.401001 88.976997 98.133003 104.433 112.833 121.884 126.168 131.20799 140.658 144.627 150.73801 154.707 164.052 167.937 182.763 192.08701"
         y="27.006001"
         sodipodi:role="line"
         id="tspan108">beri artan görsel birikime </tspan><tspan
         x="0 6.1950002 15.456 25.032 39.858002 48.951 58.401001 63.441002 68.481003 77.028 81.123001 85.028999 89.082001 98.237999 104.454 109.494 117.978 127.134 136.584 142.77901 152.103 157.14301 166.593 170.49899 174.50999 183.834"
         y="54.012001"
         sodipodi:role="line"
         id="tspan110">rağmen, yıllar sonra bile </tspan><tspan
         x="0 8.9460001 18.039 27.552 36.959999 40.929001 50.316002 54.599998 59.639999 67.892998 77.049004 86.583 95.738998 105.273 114.114 118.398 123.438 131.69099 141.14101 149.142 153.44701 160.839"
         y="81.017998"
         sodipodi:role="line"
         id="tspan112">kendini yabancı yazı- </tspan><tspan
         x="0 8.3999996 17.808001 25.620001 29.631001 38.723999 44.834999 48.804001 58.275002 67.598999 72.639 82.172997 91.433998 101.22 105.294 120.036 124.152 128.436 133.476 142.94701 152.355 156.30299 165.89999 174.11099 183.267 188.13901"
         y="108.024"
         sodipodi:role="line"
         id="tspan114">yüzlerine bağımlı buluyor.</tspan><tspan
         x="247.905 256.242 265.52399 274.04999 283.20599 289.50601 293.57999 308.448 317.289 321.384 326.42401 331.46399 342.216 351.70801 360.759 370.33499 379.44901 383.397 392.72101 397.06799 406.49701 415.94699 425.67001"
         y="-134.967"
         sodipodi:role="line"
         id="tspan116">Tasarımcı, Anadolu’nun </tspan><tspan
         x="247.905 257.439 266.70001 276.35999 282.66 286.81799 296.33099 305.86499 315.021 324.74399 329.784 338.772 347.92801 357.44101 366.59698 372.68701 382.284 386.694 396.48001 400.76401"
         y="-107.961"
         sodipodi:role="line"
         id="tspan118">bağrından kopardığı </tspan></text>
<text
       transform="matrix(1,0,0,-1,324.3044,286.7658)"
       style="font-style:italic;font-variant:normal;font-weight:bold;font-stretch:condensed;font-size:21px;font-family:'HelveticaNeueLT Com 57 Cn';-inkscape-font-specification:HelveticaNeueLTCom-BdCnO;writing-mode:lr-tb;fill:#9c2b27;fill-opacity:1;fill-rule:nonzero;stroke:none"
       id="text124"><tspan
         x="0 15.225 25.704 36.519001 46.347"
         y="0"
         sodipodi:role="line"
         id="tspan122">MAY77</tspan></text>
<text
       transform="matrix(1,0,0,-1,385.7714,286.7658)"
       style="font-variant:normal;font-weight:normal;font-stretch:condensed;font-size:21px;font-family:'HelveticaNeueLT Com 57 Cn';-inkscape-font-specification:HelveticaNeueLTCom-Cn;writing-mode:lr-tb;fill:#4b565a;fill-opacity:1;fill-rule:nonzero;stroke:none"
       id="text138"><tspan
         x="0 3.9059999 7.9169998 17.240999 22.281 30.618 34.713001 42.966 52.248001 60.584999 64.869003 69.908997 79.295998 89.186996 97.796997 107.121"
         y="0"
         sodipodi:role="line"
         id="tspan126">ile siyasi aﬁşe </tspan><tspan
         x="-61.466999 -52.122002 -48.237 -33.494999 -29.589001 -25.347 -15.75 -11.781 -2.3940001 1.89 6.9299998 16.422001 25.514999 31.625999 35.91 40.950001 50.231998 59.681999 67.724998 76.880997 86.393997 95.990997 100.149 105.147"
         y="27.006001"
         sodipodi:role="line"
         id="tspan128">kimliğini geri kazandır-</tspan><tspan
         x="-61.466999 -46.619999 -37.695 -29.148001 -24.864 -19.823999 -10.752 4.0949998 13.188 21.84 25.955999 30.261 38.472 47.627998 52.5 57.540001 62.580002 72.954002 82.110001 91.455002 95.466003 104.559 110.67 114.639 124.026 128.31"
         y="54.012001"
         sodipodi:role="line"
         id="tspan130">mayı amaçlıyor. Köklerini </tspan><tspan
         x="-61.466999 -52.542 -42.651001 -32.823002 -22.931999 -18.584999 -14.574 -5.4809999 0.63 4.599 14.322 19.362 27.698999 31.794001 40.047001 49.328999 57.666 61.950001 66.989998 76.376999 86.247002 94.857002 102.249"
         y="81.017998"
         sodipodi:role="line"
         id="tspan132">1970’lerin siyasi aﬁş- </tspan><tspan
         x="-61.466999 -57.456001 -48.362999 -42.251999 -38.283001 -28.77 -19.278 -9.9540005 -4.914 4.5570002 13.965 18.018 27.174 36.896999 41.937 51.219002 60.375 66.57 75.725998 85.406998 90.656998 99.75 105.861 109.872 118.965 123.837 128.877"
         y="108.024"
         sodipodi:role="line"
         id="tspan134">lerinde bulan karakterler, </tspan><tspan
         x="-61.466999 -56.216999 -47.124001 -37.799999 -32.759998 -23.309999 -19.341 -13.125 -8.085 1.155 10.941 15.057 22.848 32.382 41.537998 51.261002 56.300999 65.834999 75.096001 84.882004 89.040001 95.339996 99.644997 107.856 117.012 123.165"
         y="135.03"
         sodipodi:role="line"
         id="tspan136">tek bir ağızdan bağırıyor:</tspan></text>
<text
       transform="matrix(1,0,0,-1,324.3044,124.7298)"
       style="font-style:italic;font-variant:normal;font-weight:bold;font-stretch:condensed;font-size:21px;font-family:'HelveticaNeueLT Com 57 Cn';-inkscape-font-specification:HelveticaNeueLTCom-BdCnO;writing-mode:lr-tb;fill:#9c2b27;fill-opacity:1;fill-rule:nonzero;stroke:none"
       id="text144"><tspan
         x="0 10.458 17.240999 27.111 33.306 43.070999 52.227001 58.380001 68.459999 73.5 83.958 88.914001 98.637001 103.677 114.093 124.593 129.633 139.73399 149.66701 160.104 170.121 177.114"
         y="0"
         sodipodi:role="line"
         id="tspan140">Protesto hiç bu kadar </tspan><tspan
         x="0 6.8249998 16.422001 26.396999 31.332001 36.308998 45.465 51.681 56.721001 66.695999 71.672997 87.444 97.460999 113.274 118.23 127.365 133.49699 138.285"
         y="27.006001"
         sodipodi:role="line"
         id="tspan142">realist olmamıştı!</tspan></text>
<g
       id="g146"><g
         id="g148"
         clip-path="url(#clipPath152)"><g
           id="g154"
           transform="translate(76.3994,232.8564)"><path
             d="M 0,0 H 194.132"
             style="fill:#9c2b27;fill-opacity:1;fill-rule:nonzero;stroke:#9c2b27;stroke-width:1;stroke-linecap:butt;stroke-linejoin:miter;stroke-miterlimit:10;stroke-dasharray:none;stroke-opacity:1"
             id="path156"
             inkscape:connector-curvature="0" /></g></g></g><path
       d="M 583,421.509 H 11 v 182 h 572 z"
       style="fill:#9c2b27;fill-opacity:1;fill-rule:nonzero;stroke:none"
       id="path158"
       inkscape:connector-curvature="0" /><g
       id="g160"
       transform="translate(468.2773,568.5088)"><path
         d="M 0,0 H -22.492 V -22.495 -31.35 H 0 v 8.855 h 25.303 l -34.917,-88.781 h 25.3 l 34.918,88.781 V 0 Z"
         style="fill:#e7e8eb;fill-opacity:1;fill-rule:nonzero;stroke:none"
         id="path162"
         inkscape:connector-curvature="0" /></g><g
       id="g164"
       transform="translate(385.9063,568.5088)"><path
         d="M 0,0 H -22.493 V -22.495 -31.35 H 0 v 8.855 h 25.302 l -34.917,-88.781 h 25.3 l 34.918,88.781 0,22.495 z"
         style="fill:#e7e8eb;fill-opacity:1;fill-rule:nonzero;stroke:none"
         id="path166"
         inkscape:connector-curvature="0" /></g><g
       id="g168"
       transform="translate(215.1006,502.9263)"><path
         d="M 0,0 9.787,39.305 19.571,0 Z m -8.16,65.583 -27.7,-111.277 h 24.485 l 6.407,25.743 h 29.505 l 6.409,-25.743 H 55.431 L 27.729,65.583 Z"
         style="fill:#e7e8eb;fill-opacity:1;fill-rule:nonzero;stroke:none"
         id="path170"
         inkscape:connector-curvature="0" /></g><g
       id="g172"
       transform="translate(76.3984,457.2324)"><path
         d="M 0,0 V 111.276 H 24.14 L 46.757,57.701 69.374,111.276 H 93.513 V 0 H 67.744 V 49.763 L 46.757,0.049 25.77,49.763 V 0 Z"
         style="fill:#e7e8eb;fill-opacity:1;fill-rule:nonzero;stroke:none"
         id="path174"
         inkscape:connector-curvature="0" /></g><g
       id="g176"
       transform="translate(333.3936,568.5088)"><path
         d="M 0,0 H -5.35 L -26.472,-40.099 -47.593,0 h -25.772 l 34.009,-64.562 v -46.714 h 25.769 v 46.714 L 20.42,0 Z"
         style="fill:#e7e8eb;fill-opacity:1;fill-rule:nonzero;stroke:none"
         id="path178"
         inkscape:connector-curvature="0" /></g></g></svg>