<?xml version="1.0" encoding="UTF-8" standalone="no"?>
<!-- Created with Inkscape (http://www.inkscape.org/) -->

<svg
   xmlns:dc="http://purl.org/dc/elements/1.1/"
   xmlns:cc="http://creativecommons.org/ns#"
   xmlns:rdf="http://www.w3.org/1999/02/22-rdf-syntax-ns#"
   xmlns:svg="http://www.w3.org/2000/svg"
   xmlns="http://www.w3.org/2000/svg"
   xmlns:sodipodi="http://sodipodi.sourceforge.net/DTD/sodipodi-0.dtd"
   xmlns:inkscape="http://www.inkscape.org/namespaces/inkscape"
   version="1.1"
   id="svg2"
   xml:space="preserve"
   width="1333.3333"
   height="1333.3333"
   viewBox="0 0 1333.3333 1333.3333"
   sodipodi:docname="kav2.svg"
   inkscape:version="0.92.2 5c3e80d, 2017-08-06"><metadata
     id="metadata8"><rdf:RDF><cc:Work
         rdf:about=""><dc:format>image/svg+xml</dc:format><dc:type
           rdf:resource="http://purl.org/dc/dcmitype/StillImage" /><dc:title></dc:title></cc:Work></rdf:RDF></metadata><defs
     id="defs6"><clipPath
       clipPathUnits="userSpaceOnUse"
       id="clipPath28"><path
         d="M 0,1000 H 1000 V 0 H 0 Z"
         id="path26"
         inkscape:connector-curvature="0" /></clipPath></defs><sodipodi:namedview
     pagecolor="#ffffff"
     bordercolor="#666666"
     borderopacity="1"
     objecttolerance="10"
     gridtolerance="10"
     guidetolerance="10"
     inkscape:pageopacity="0"
     inkscape:pageshadow="2"
     inkscape:window-width="1920"
     inkscape:window-height="1036"
     id="namedview4"
     showgrid="false"
     inkscape:zoom="0.17700001"
     inkscape:cx="-161.01694"
     inkscape:cy="666.66663"
     inkscape:window-x="0"
     inkscape:window-y="20"
     inkscape:window-maximized="0"
     inkscape:current-layer="g10" /><g
     id="g10"
     inkscape:groupmode="layer"
     inkscape:label="kaniranlar_vakfi4"
     transform="matrix(1.3333333,0,0,-1.3333333,0,1333.3333)"><path
       d="M 0,0 H 1000 V 1000 H 0 Z"
       style="fill:#e52612;fill-opacity:1;fill-rule:nonzero;stroke:none"
       id="path12"
       inkscape:connector-curvature="0" /><g
       id="g14"
       transform="translate(734.501,261.4395)"><path
         d="m 0,0 h 110.575 l 4.058,20.175 H 2.879 Z"
         style="fill:#ffffff;fill-opacity:1;fill-rule:nonzero;stroke:none"
         id="path16"
         inkscape:connector-curvature="0" /></g><g
       id="g18"
       transform="translate(740.2568,301.7949)"><path
         d="m 0,0 h 112.936 l 4.053,20.174 H 2.875 Z"
         style="fill:#ffffff;fill-opacity:1;fill-rule:nonzero;stroke:none"
         id="path20"
         inkscape:connector-curvature="0" /></g><g
       id="g22"><g
         id="g24"
         clip-path="url(#clipPath28)"><g
           id="g30"
           transform="translate(863.1377,443.0552)"><path
             d="m 0,0 h -89.619 c -7.636,0 -13.877,-5.663 -14.922,-13.01 l -0.062,0.014 -1.019,-7.189 H 14.376 l 0.314,1.527 c 0.259,1.137 0.447,2.306 0.447,3.525 C 15.137,-6.769 8.37,0 0,0"
             style="fill:#ffffff;fill-opacity:1;fill-rule:nonzero;stroke:none"
             id="path32"
             inkscape:connector-curvature="0" /></g><g
           id="g34"
           transform="translate(746.0107,342.1548)"><path
             d="m 0,0 h 115.291 l 4.047,20.175 H 2.877 Z"
             style="fill:#ffffff;fill-opacity:1;fill-rule:nonzero;stroke:none"
             id="path36"
             inkscape:connector-curvature="0" /></g><g
           id="g38"
           transform="translate(751.7598,382.5146)"><path
             d="m 0,0 h 117.647 l 4.055,20.181 H 2.879 Z"
             style="fill:#ffffff;fill-opacity:1;fill-rule:nonzero;stroke:none"
             id="path40"
             inkscape:connector-curvature="0" /></g><g
           id="g42"
           transform="translate(145.333,155.4912)"><path
             d="m 0,0 c 0,-8.373 6.775,-15.137 15.137,-15.137 h 90.801 c 8.373,0 15.138,6.764 15.138,15.137 V 5.038 H 0 Z"
             style="fill:#ffffff;fill-opacity:1;fill-rule:nonzero;stroke:none"
             id="path44"
             inkscape:connector-curvature="0" /></g><path
           d="m 145.333,221.069 h 121.076 v 20.18 H 145.333 Z"
           style="fill:#ffffff;fill-opacity:1;fill-rule:nonzero;stroke:none"
           id="path46"
           inkscape:connector-curvature="0" /><g
           id="g48"
           transform="translate(251.3037,443.0498)"><path
             d="m 0,0 h -90.864 c -8.353,-0.016 -15.107,-6.769 -15.107,-15.147 V -20.18 H 15.105 v 5.033 C 15.105,-6.769 8.355,-0.016 0,0"
             style="fill:#ffffff;fill-opacity:1;fill-rule:nonzero;stroke:none"
             id="path50"
             inkscape:connector-curvature="0" /></g><path
           d="m 145.333,180.715 h 121.076 v 20.174 H 145.333 Z"
           style="fill:#ffffff;fill-opacity:1;fill-rule:nonzero;stroke:none"
           id="path52"
           inkscape:connector-curvature="0" /><path
           d="m 145.333,261.429 h 121.076 v 20.175 H 145.333 Z"
           style="fill:#ffffff;fill-opacity:1;fill-rule:nonzero;stroke:none"
           id="path54"
           inkscape:connector-curvature="0" /><path
           d="M 145.333,342.155 H 266.409 V 362.33 H 145.333 Z"
           style="fill:#ffffff;fill-opacity:1;fill-rule:nonzero;stroke:none"
           id="path56"
           inkscape:connector-curvature="0" /><path
           d="M 145.333,382.515 H 266.409 V 402.69 H 145.333 Z"
           style="fill:#ffffff;fill-opacity:1;fill-rule:nonzero;stroke:none"
           id="path58"
           inkscape:connector-curvature="0" /><path
           d="m 145.333,301.789 h 121.076 v 20.18 H 145.333 Z"
           style="fill:#ffffff;fill-opacity:1;fill-rule:nonzero;stroke:none"
           id="path60"
           inkscape:connector-curvature="0" /><g
           id="g62"
           transform="translate(495.5117,261.4292)"><path
             d="M 0,0 12.943,90.815 25.895,0 Z M 140.022,-0.118 140.392,0 h -0.395 v 0.01 h 90.36 l -2.872,20.175 h -91.544 l -4.052,20.181 h 92.72 L 221.728,60.54 H 127.83 l -4.058,20.186 h 95.082 l -2.873,20.174 h -96.262 l -4.055,20.185 h 97.437 l -2.88,20.181 h -98.614 l -4.061,20.175 h 99.801 l -1.027,7.189 -0.051,-0.014 c -1.046,7.347 -7.282,13.01 -14.921,13.01 l -349.724,-0.005 c -6.364,-0.017 -11.771,-3.956 -13.994,-9.538 h -0.012 l -4.252,-10.642 h 120.988 0.076 l -8.067,-20.181 h -121.069 l -8.071,-20.175 H -71.706 L -79.771,100.9 h -121.081 l -8.073,-20.174 H -87.843 L -95.912,60.54 H -217 l -8.069,-20.18 h 121.079 v 0.006 l -4.03,-10.076 -0.002,-0.009 4.038,-10.096 L -225.06,20.175 -216.995,0 h 121.086 l 8.072,-20.175 -121.081,-0.005 8.066,-20.18 h 121.089 -0.002 0.002 l 8.074,-20.175 -121.088,-0.005 8.071,-20.174 h 121.075 l 8.068,-20.186 h -0.083 -120.988 l 4.252,-10.639 h 0.012 c 2.228,-5.586 7.65,-9.536 14.031,-9.536 h 127.957 c 7.634,0 13.876,5.662 14.91,13.005 l 0.063,-0.009 10.474,73.479 18.146,-5.76 17.634,5.597 10.453,-73.316 0.055,0.009 c 1.043,-7.343 7.286,-13.005 14.919,-13.005 h 256.571 c 7.367,0 13.481,5.253 14.841,12.211 l 1.602,7.964 h -144.16 -24.854 l -4.052,20.186 h 177.121 l 4.056,20.179 H 152.16 l -4.048,20.175 h 193.346 l 4.054,20.185 H 144.053 Z"
             style="fill:#ffffff;fill-opacity:1;fill-rule:nonzero;stroke:none"
             id="path64"
             inkscape:connector-curvature="0" /></g><g
           id="g66"
           transform="translate(828.9473,837.8516)"><path
             d="m 0,0 h 7.219 c 0.639,0 1.406,0.036 2.285,0.087 0.883,0.05 1.746,0.248 2.568,0.603 0.832,0.346 1.543,0.909 2.132,1.681 0.589,0.776 0.884,1.858 0.884,3.249 C 14.977,6.534 14.697,7.259 14.245,7.788 13.788,8.326 13.21,8.737 12.52,9.036 11.818,9.326 11.087,9.513 10.306,9.595 9.534,9.676 8.772,9.717 8.021,9.717 H 0 Z m 8.747,15.413 c 0.533,0 1.478,-0.051 2.848,-0.158 1.361,-0.111 2.741,-0.457 4.133,-1.045 1.39,-0.594 2.634,-1.529 3.736,-2.808 1.092,-1.289 1.64,-3.127 1.64,-5.539 0,-1.924 -0.483,-3.68 -1.447,-5.254 -0.965,-1.584 -2.65,-2.665 -5.056,-3.249 v -0.168 c 1.177,-0.319 2.142,-0.746 2.893,-1.284 0.751,-0.528 1.335,-1.162 1.767,-1.883 0.427,-0.726 0.72,-1.554 0.883,-2.488 0.158,-0.934 0.264,-1.964 0.315,-3.091 0.061,-1.493 0.111,-2.691 0.162,-3.569 0.051,-0.889 0.122,-1.605 0.203,-2.168 0.082,-0.559 0.173,-1.001 0.28,-1.32 0.106,-0.33 0.269,-0.675 0.482,-1.046 h -6.021 c -0.163,0.269 -0.294,0.554 -0.396,0.843 -0.111,0.294 -0.203,0.685 -0.284,1.163 -0.082,0.477 -0.148,1.071 -0.203,1.766 -0.051,0.696 -0.107,1.604 -0.163,2.732 -0.051,1.385 -0.183,2.532 -0.396,3.447 -0.213,0.908 -0.589,1.644 -1.127,2.208 -0.533,0.563 -1.269,0.99 -2.203,1.284 -0.935,0.29 -2.158,0.493 -3.655,0.599 H 0 v -14.042 h -6.021 v 35.07 z m -1.69,7.305 c -3.478,0 -6.687,-0.66 -9.63,-1.97 -2.94,-1.31 -5.498,-3.086 -7.661,-5.335 -2.162,-2.249 -3.869,-4.859 -5.098,-7.828 -1.228,-2.965 -1.847,-6.107 -1.847,-9.428 0,-3.365 0.629,-6.533 1.888,-9.508 1.259,-2.97 2.97,-5.579 5.138,-7.823 2.162,-2.244 4.731,-4.011 7.701,-5.301 2.97,-1.278 6.138,-1.923 9.509,-1.923 3.371,0 6.528,0.645 9.473,1.923 2.944,1.29 5.507,3.041 7.705,5.26 2.194,2.218 3.92,4.813 5.179,7.782 1.254,2.97 1.884,6.169 1.884,9.59 0,3.321 -0.615,6.463 -1.849,9.428 -1.227,2.969 -2.928,5.579 -5.091,7.828 -2.168,2.249 -4.742,4.025 -7.707,5.335 -2.969,1.31 -6.168,1.97 -9.594,1.97 m 0.081,6.097 c 4.223,0 8.203,-0.812 11.92,-2.452 3.716,-1.63 6.964,-3.833 9.747,-6.615 2.782,-2.787 4.966,-6.031 6.544,-9.752 1.579,-3.716 2.371,-7.666 2.371,-11.839 0,-4.279 -0.823,-8.28 -2.448,-11.996 -1.634,-3.721 -3.828,-6.955 -6.579,-9.706 -2.761,-2.757 -6.001,-4.94 -9.716,-6.549 -3.716,-1.605 -7.666,-2.401 -11.839,-2.401 -4.281,0 -8.29,0.812 -12.033,2.452 -3.746,1.624 -7.014,3.833 -9.796,6.614 -2.783,2.783 -4.966,6.031 -6.539,9.747 -1.574,3.717 -2.367,7.666 -2.367,11.839 0,4.173 0.793,8.123 2.367,11.839 1.573,3.721 3.756,6.965 6.539,9.752 2.782,2.782 6.036,4.985 9.751,6.615 3.721,1.64 7.742,2.452 12.078,2.452"
             style="fill:#ffffff;fill-opacity:1;fill-rule:nonzero;stroke:none"
             id="path68"
             inkscape:connector-curvature="0" /></g></g></g></g></svg>