<?xml version="1.0" encoding="UTF-8" standalone="no"?>
<!-- Created with Inkscape (http://www.inkscape.org/) -->

<svg
   xmlns:dc="http://purl.org/dc/elements/1.1/"
   xmlns:cc="http://creativecommons.org/ns#"
   xmlns:rdf="http://www.w3.org/1999/02/22-rdf-syntax-ns#"
   xmlns:svg="http://www.w3.org/2000/svg"
   xmlns="http://www.w3.org/2000/svg"
   xmlns:sodipodi="http://sodipodi.sourceforge.net/DTD/sodipodi-0.dtd"
   xmlns:inkscape="http://www.inkscape.org/namespaces/inkscape"
   version="1.1"
   id="svg2"
   xml:space="preserve"
   width="183.33333"
   height="128"
   viewBox="0 0 183.33333 128"
   sodipodi:docname="kav3.svg"
   inkscape:version="0.92.2 5c3e80d, 2017-08-06"><metadata
     id="metadata8"><rdf:RDF><cc:Work
         rdf:about=""><dc:format>image/svg+xml</dc:format><dc:type
           rdf:resource="http://purl.org/dc/dcmitype/StillImage" /><dc:title></dc:title></cc:Work></rdf:RDF></metadata><defs
     id="defs6"><clipPath
       clipPathUnits="userSpaceOnUse"
       id="clipPath18"><path
         d="M 0,96 H 137.5 V 0 H 0 Z"
         id="path16"
         inkscape:connector-curvature="0" /></clipPath></defs><sodipodi:namedview
     pagecolor="#ffffff"
     bordercolor="#666666"
     borderopacity="1"
     objecttolerance="10"
     gridtolerance="10"
     guidetolerance="10"
     inkscape:pageopacity="0"
     inkscape:pageshadow="2"
     inkscape:window-width="1920"
     inkscape:window-height="1036"
     id="namedview4"
     showgrid="false"
     inkscape:zoom="1.84375"
     inkscape:cx="12.209037"
     inkscape:cy="64"
     inkscape:window-x="0"
     inkscape:window-y="20"
     inkscape:window-maximized="0"
     inkscape:current-layer="g10" /><g
     id="g10"
     inkscape:groupmode="layer"
     inkscape:label="kaniranlar_vakfi4"
     transform="matrix(1.3333333,0,0,-1.3333333,0,128)"><g
       id="g12"><g
         id="g14"
         clip-path="url(#clipPath18)"><g
           id="g20"
           transform="translate(70.3125,26.6807)"><path
             d="m 0,0 c -0.105,-0.037 -0.561,-0.146 -1.253,-0.146 -0.692,0 -1.146,0.108 -1.25,0.145 l -34.191,13.312 13.935,5.425 18.079,-7.039 c 0.947,-0.369 2.187,-0.553 3.427,-0.553 1.239,0 2.48,0.184 3.427,0.553 l 4.839,1.884 -43.707,17.019 34.19,13.311 c 0.105,0.038 0.56,0.146 1.25,0.146 0.692,0 1.149,-0.109 1.251,-0.145 L 34.188,30.6 20.254,25.175 2.174,32.214 c -0.947,0.369 -2.188,0.554 -3.428,0.554 -1.24,0 -2.48,-0.185 -3.426,-0.554 L -9.52,30.329 34.188,13.311 Z m 47.298,14.646 -18.776,7.31 18.776,7.31 c 1.891,0.737 1.891,1.932 0,2.669 L 2.174,49.503 c -0.947,0.369 -2.188,0.554 -3.428,0.554 -1.24,0 -2.48,-0.185 -3.426,-0.554 L -49.805,31.935 c -1.892,-0.737 -1.892,-1.932 0,-2.669 l 18.777,-7.31 -18.777,-7.31 c -1.892,-0.737 -1.892,-1.932 0,-2.669 L -4.68,-5.592 c 0.947,-0.369 2.187,-0.554 3.427,-0.554 1.239,0 2.48,0.185 3.427,0.554 l 45.124,17.569 c 1.891,0.737 1.891,1.932 0,2.669"
             style="fill:#e52a1c;fill-opacity:1;fill-rule:nonzero;stroke:none"
             id="path22"
             inkscape:connector-curvature="0" /></g></g></g></g></svg>