<?xml version="1.0" encoding="UTF-8" standalone="no"?>
<!-- Created with Inkscape (http://www.inkscape.org/) -->

<svg
   xmlns:dc="http://purl.org/dc/elements/1.1/"
   xmlns:cc="http://creativecommons.org/ns#"
   xmlns:rdf="http://www.w3.org/1999/02/22-rdf-syntax-ns#"
   xmlns:svg="http://www.w3.org/2000/svg"
   xmlns="http://www.w3.org/2000/svg"
   xmlns:sodipodi="http://sodipodi.sourceforge.net/DTD/sodipodi-0.dtd"
   xmlns:inkscape="http://www.inkscape.org/namespaces/inkscape"
   version="1.1"
   id="svg2"
   xml:space="preserve"
   width="253.33333"
   height="253.33333"
   viewBox="0 0 253.33333 253.33332"
   sodipodi:docname="kav4.svg"
   inkscape:version="0.92.2 5c3e80d, 2017-08-06"><metadata
     id="metadata8"><rdf:RDF><cc:Work
         rdf:about=""><dc:format>image/svg+xml</dc:format><dc:type
           rdf:resource="http://purl.org/dc/dcmitype/StillImage" /><dc:title></dc:title></cc:Work></rdf:RDF></metadata><defs
     id="defs6"><clipPath
       clipPathUnits="userSpaceOnUse"
       id="clipPath18"><path
         d="M 0,841.89 H 595.28 V 0 H 0 Z"
         id="path16"
         inkscape:connector-curvature="0" /></clipPath><clipPath
       clipPathUnits="userSpaceOnUse"
       id="clipPath234"><path
         d="M 0,841.89 H 595.28 V 0 H 0 Z"
         id="path232"
         inkscape:connector-curvature="0" /></clipPath><clipPath
       clipPathUnits="userSpaceOnUse"
       id="clipPath442"><path
         d="M 0,841.89 H 595.28 V 0 H 0 Z"
         id="path440"
         inkscape:connector-curvature="0" /></clipPath><clipPath
       clipPathUnits="userSpaceOnUse"
       id="clipPath550"><path
         d="M 0,841.89 H 595.28 V 0 H 0 Z"
         id="path548"
         inkscape:connector-curvature="0" /></clipPath><clipPath
       clipPathUnits="userSpaceOnUse"
       id="clipPath658"><path
         d="M 0,841.89 H 595.28 V 0 H 0 Z"
         id="path656"
         inkscape:connector-curvature="0" /></clipPath><clipPath
       clipPathUnits="userSpaceOnUse"
       id="clipPath766"><path
         d="M 0,841.89 H 595.28 V 0 H 0 Z"
         id="path764"
         inkscape:connector-curvature="0" /></clipPath><clipPath
       clipPathUnits="userSpaceOnUse"
       id="clipPath874"><path
         d="M 0,841.89 H 595.28 V 0 H 0 Z"
         id="path872"
         inkscape:connector-curvature="0" /></clipPath><clipPath
       clipPathUnits="userSpaceOnUse"
       id="clipPath982"><path
         d="M 0,841.89 H 595.28 V 0 H 0 Z"
         id="path980"
         inkscape:connector-curvature="0" /></clipPath><clipPath
       clipPathUnits="userSpaceOnUse"
       id="clipPath1090"><path
         d="M 0,841.89 H 595.28 V 0 H 0 Z"
         id="path1088"
         inkscape:connector-curvature="0" /></clipPath><clipPath
       clipPathUnits="userSpaceOnUse"
       id="clipPath1198"><path
         d="M 0,841.89 H 595.28 V 0 H 0 Z"
         id="path1196"
         inkscape:connector-curvature="0" /></clipPath><clipPath
       clipPathUnits="userSpaceOnUse"
       id="clipPath1306"><path
         d="M 0,841.89 H 595.28 V 0 H 0 Z"
         id="path1304"
         inkscape:connector-curvature="0" /></clipPath><clipPath
       clipPathUnits="userSpaceOnUse"
       id="clipPath1414"><path
         d="M 0,841.89 H 595.28 V 0 H 0 Z"
         id="path1412"
         inkscape:connector-curvature="0" /></clipPath><clipPath
       clipPathUnits="userSpaceOnUse"
       id="clipPath1522"><path
         d="M 0,841.89 H 595.28 V 0 H 0 Z"
         id="path1520"
         inkscape:connector-curvature="0" /></clipPath><clipPath
       clipPathUnits="userSpaceOnUse"
       id="clipPath1630"><path
         d="M 0,841.89 H 595.28 V 0 H 0 Z"
         id="path1628"
         inkscape:connector-curvature="0" /></clipPath><clipPath
       clipPathUnits="userSpaceOnUse"
       id="clipPath1738"><path
         d="M 0,841.89 H 595.28 V 0 H 0 Z"
         id="path1736"
         inkscape:connector-curvature="0" /></clipPath><clipPath
       clipPathUnits="userSpaceOnUse"
       id="clipPath1846"><path
         d="M 0,841.89 H 595.28 V 0 H 0 Z"
         id="path1844"
         inkscape:connector-curvature="0" /></clipPath><clipPath
       clipPathUnits="userSpaceOnUse"
       id="clipPath1954"><path
         d="M 0,841.89 H 595.28 V 0 H 0 Z"
         id="path1952"
         inkscape:connector-curvature="0" /></clipPath><clipPath
       clipPathUnits="userSpaceOnUse"
       id="clipPath2062"><path
         d="M 0,841.89 H 595.28 V 0 H 0 Z"
         id="path2060"
         inkscape:connector-curvature="0" /></clipPath><clipPath
       clipPathUnits="userSpaceOnUse"
       id="clipPath2170"><path
         d="M 0,841.89 H 595.28 V 0 H 0 Z"
         id="path2168"
         inkscape:connector-curvature="0" /></clipPath><clipPath
       clipPathUnits="userSpaceOnUse"
       id="clipPath2278"><path
         d="M 0,841.89 H 595.28 V 0 H 0 Z"
         id="path2276"
         inkscape:connector-curvature="0" /></clipPath><clipPath
       clipPathUnits="userSpaceOnUse"
       id="clipPath2386"><path
         d="M 0,841.89 H 595.28 V 0 H 0 Z"
         id="path2384"
         inkscape:connector-curvature="0" /></clipPath><clipPath
       clipPathUnits="userSpaceOnUse"
       id="clipPath2494"><path
         d="M 0,841.89 H 595.28 V 0 H 0 Z"
         id="path2492"
         inkscape:connector-curvature="0" /></clipPath><clipPath
       clipPathUnits="userSpaceOnUse"
       id="clipPath2602"><path
         d="M 0,841.89 H 595.28 V 0 H 0 Z"
         id="path2600"
         inkscape:connector-curvature="0" /></clipPath><clipPath
       clipPathUnits="userSpaceOnUse"
       id="clipPath2710"><path
         d="M 0,841.89 H 595.28 V 0 H 0 Z"
         id="path2708"
         inkscape:connector-curvature="0" /></clipPath><clipPath
       clipPathUnits="userSpaceOnUse"
       id="clipPath2818"><path
         d="M 0,841.89 H 595.28 V 0 H 0 Z"
         id="path2816"
         inkscape:connector-curvature="0" /></clipPath><clipPath
       clipPathUnits="userSpaceOnUse"
       id="clipPath2926"><path
         d="M 0,841.89 H 595.28 V 0 H 0 Z"
         id="path2924"
         inkscape:connector-curvature="0" /></clipPath><clipPath
       clipPathUnits="userSpaceOnUse"
       id="clipPath3034"><path
         d="M 0,841.89 H 595.28 V 0 H 0 Z"
         id="path3032"
         inkscape:connector-curvature="0" /></clipPath><clipPath
       clipPathUnits="userSpaceOnUse"
       id="clipPath3142"><path
         d="M 0,841.89 H 595.28 V 0 H 0 Z"
         id="path3140"
         inkscape:connector-curvature="0" /></clipPath><clipPath
       clipPathUnits="userSpaceOnUse"
       id="clipPath3250"><path
         d="M 0,841.89 H 595.28 V 0 H 0 Z"
         id="path3248"
         inkscape:connector-curvature="0" /></clipPath><clipPath
       clipPathUnits="userSpaceOnUse"
       id="clipPath3358"><path
         d="M 0,841.89 H 595.28 V 0 H 0 Z"
         id="path3356"
         inkscape:connector-curvature="0" /></clipPath><clipPath
       clipPathUnits="userSpaceOnUse"
       id="clipPath3466"><path
         d="M 0,841.89 H 595.28 V 0 H 0 Z"
         id="path3464"
         inkscape:connector-curvature="0" /></clipPath><clipPath
       clipPathUnits="userSpaceOnUse"
       id="clipPath3574"><path
         d="M 0,841.89 H 595.28 V 0 H 0 Z"
         id="path3572"
         inkscape:connector-curvature="0" /></clipPath><clipPath
       clipPathUnits="userSpaceOnUse"
       id="clipPath3682"><path
         d="M 0,841.89 H 595.28 V 0 H 0 Z"
         id="path3680"
         inkscape:connector-curvature="0" /></clipPath><clipPath
       clipPathUnits="userSpaceOnUse"
       id="clipPath3790"><path
         d="M 0,841.89 H 595.28 V 0 H 0 Z"
         id="path3788"
         inkscape:connector-curvature="0" /></clipPath><clipPath
       clipPathUnits="userSpaceOnUse"
       id="clipPath3898"><path
         d="M 0,841.89 H 595.28 V 0 H 0 Z"
         id="path3896"
         inkscape:connector-curvature="0" /></clipPath><clipPath
       clipPathUnits="userSpaceOnUse"
       id="clipPath4006"><path
         d="M 0,841.89 H 595.28 V 0 H 0 Z"
         id="path4004"
         inkscape:connector-curvature="0" /></clipPath><clipPath
       clipPathUnits="userSpaceOnUse"
       id="clipPath4114"><path
         d="M 0,841.89 H 595.28 V 0 H 0 Z"
         id="path4112"
         inkscape:connector-curvature="0" /></clipPath><clipPath
       clipPathUnits="userSpaceOnUse"
       id="clipPath4222"><path
         d="M 0,841.89 H 595.28 V 0 H 0 Z"
         id="path4220"
         inkscape:connector-curvature="0" /></clipPath><clipPath
       clipPathUnits="userSpaceOnUse"
       id="clipPath4330"><path
         d="M 0,841.89 H 595.28 V 0 H 0 Z"
         id="path4328"
         inkscape:connector-curvature="0" /></clipPath><clipPath
       clipPathUnits="userSpaceOnUse"
       id="clipPath4438"><path
         d="M 0,841.89 H 595.28 V 0 H 0 Z"
         id="path4436"
         inkscape:connector-curvature="0" /></clipPath><clipPath
       clipPathUnits="userSpaceOnUse"
       id="clipPath4546"><path
         d="M 0,841.89 H 595.28 V 0 H 0 Z"
         id="path4544"
         inkscape:connector-curvature="0" /></clipPath><clipPath
       clipPathUnits="userSpaceOnUse"
       id="clipPath4654"><path
         d="M 0,841.89 H 595.28 V 0 H 0 Z"
         id="path4652"
         inkscape:connector-curvature="0" /></clipPath><clipPath
       clipPathUnits="userSpaceOnUse"
       id="clipPath4762"><path
         d="M 0,841.89 H 595.28 V 0 H 0 Z"
         id="path4760"
         inkscape:connector-curvature="0" /></clipPath><clipPath
       clipPathUnits="userSpaceOnUse"
       id="clipPath4870"><path
         d="M 0,841.89 H 595.28 V 0 H 0 Z"
         id="path4868"
         inkscape:connector-curvature="0" /></clipPath><clipPath
       clipPathUnits="userSpaceOnUse"
       id="clipPath4978"><path
         d="M 0,841.89 H 595.28 V 0 H 0 Z"
         id="path4976"
         inkscape:connector-curvature="0" /></clipPath><clipPath
       clipPathUnits="userSpaceOnUse"
       id="clipPath5086"><path
         d="M 0,841.89 H 595.28 V 0 H 0 Z"
         id="path5084"
         inkscape:connector-curvature="0" /></clipPath><clipPath
       clipPathUnits="userSpaceOnUse"
       id="clipPath5194"><path
         d="M 0,841.89 H 595.28 V 0 H 0 Z"
         id="path5192"
         inkscape:connector-curvature="0" /></clipPath><clipPath
       clipPathUnits="userSpaceOnUse"
       id="clipPath5302"><path
         d="M 0,841.89 H 595.28 V 0 H 0 Z"
         id="path5300"
         inkscape:connector-curvature="0" /></clipPath><clipPath
       clipPathUnits="userSpaceOnUse"
       id="clipPath5410"><path
         d="M 0,841.89 H 595.28 V 0 H 0 Z"
         id="path5408"
         inkscape:connector-curvature="0" /></clipPath><clipPath
       clipPathUnits="userSpaceOnUse"
       id="clipPath5518"><path
         d="M 0,841.89 H 595.28 V 0 H 0 Z"
         id="path5516"
         inkscape:connector-curvature="0" /></clipPath></defs><sodipodi:namedview
     pagecolor="#ffffff"
     bordercolor="#666666"
     borderopacity="1"
     objecttolerance="10"
     gridtolerance="10"
     guidetolerance="10"
     inkscape:pageopacity="0"
     inkscape:pageshadow="2"
     inkscape:window-width="1920"
     inkscape:window-height="1036"
     id="namedview4"
     showgrid="false"
     inkscape:zoom="0.84096492"
     inkscape:cx="-284.52869"
     inkscape:cy="84.126117"
     inkscape:window-x="0"
     inkscape:window-y="20"
     inkscape:window-maximized="0"
     inkscape:current-layer="g10"
     fit-margin-top="20"
     fit-margin-left="20"
     fit-margin-right="20"
     fit-margin-bottom="20" /><g
     id="g10"
     inkscape:groupmode="layer"
     inkscape:label="kav2"
     transform="matrix(1.3333333,0,0,-1.3333333,-239.99999,822.51945)"><path
       inkscape:connector-curvature="0"
       id="path22"
       style="fill:#231f20;fill-opacity:1;fill-rule:nonzero;stroke:none"
       d="m 355,521.8896 c 0,-44.183 -35.817,-80 -80,-80 -44.183,0 -80,35.817 -80,80 0,44.183 35.817,80 80,80 44.183,0 80,-35.817 80,-80" /><path
       inkscape:connector-curvature="0"
       id="path162"
       style="fill:#ffffff;fill-opacity:1;fill-rule:nonzero;stroke:none"
       d="m 250,536.8896 v 15 h -10 v -15 c 0,-5.523 -4.477,-10 -10,-10 v 25 h -10 v -60 h 10 v 25 c 5.523,0 10,-4.477 10,-10 v -15 h 10 v 15 c 0,5.981 -2.64,11.335 -6.802,15 4.162,3.665 6.802,9.019 6.802,15" /><path
       inkscape:connector-curvature="0"
       id="path166"
       style="fill:#ffffff;fill-opacity:1;fill-rule:nonzero;stroke:none"
       d="m 280,521.8896 h -10 v 15 c 0,2.761 2.239,5 5,5 2.761,0 5,-2.239 5,-5 z m -5,30 c -8.284,0 -15,-6.716 -15,-15 v -45 h 10 v 20 h 10 v -20 h 10 v 45 c 0,8.284 -6.716,15 -15,15" /><path
       inkscape:connector-curvature="0"
       id="path170"
       style="fill:#ffffff;fill-opacity:1;fill-rule:nonzero;stroke:none"
       d="m 322.5117,551.8896 -7.27,-47.099 -7.269,47.099 h -10.569 l 8.026,-51.911 c 0.892,-4.608 4.943,-8.089 9.812,-8.089 4.87,0 8.921,3.481 9.813,8.089 l 8.025,51.911 z" /></g></svg>