<?xml version="1.0" encoding="UTF-8" standalone="no"?>
<!-- Created with Inkscape (http://www.inkscape.org/) -->

<svg
   xmlns:dc="http://purl.org/dc/elements/1.1/"
   xmlns:cc="http://creativecommons.org/ns#"
   xmlns:rdf="http://www.w3.org/1999/02/22-rdf-syntax-ns#"
   xmlns:svg="http://www.w3.org/2000/svg"
   xmlns="http://www.w3.org/2000/svg"
   xmlns:sodipodi="http://sodipodi.sourceforge.net/DTD/sodipodi-0.dtd"
   xmlns:inkscape="http://www.inkscape.org/namespaces/inkscape"
   version="1.1"
   id="svg2"
   xml:space="preserve"
   width="1821.3333"
   height="1024"
   viewBox="0 0 1821.3333 1024"
   sodipodi:docname="kav5.svg"
   inkscape:version="0.92.2 5c3e80d, 2017-08-06"><metadata
     id="metadata8"><rdf:RDF><cc:Work
         rdf:about=""><dc:format>image/svg+xml</dc:format><dc:type
           rdf:resource="http://purl.org/dc/dcmitype/StillImage" /><dc:title></dc:title></cc:Work></rdf:RDF></metadata><defs
     id="defs6"><clipPath
       clipPathUnits="userSpaceOnUse"
       id="clipPath18"><path
         d="M 0,0 H 1366 V 768 H 0 Z"
         id="path16"
         inkscape:connector-curvature="0" /></clipPath><radialGradient
       fx="0"
       fy="0"
       cx="0"
       cy="0"
       r="1"
       gradientUnits="userSpaceOnUse"
       gradientTransform="matrix(810.211,0,0,-431.79306,683,384)"
       spreadMethod="pad"
       id="radialGradient28"><stop
         style="stop-opacity:1;stop-color:#f8f8f9"
         offset="0"
         id="stop24" /><stop
         style="stop-opacity:1;stop-color:#e8e8e8"
         offset="1"
         id="stop26" /></radialGradient><clipPath
       clipPathUnits="userSpaceOnUse"
       id="clipPath38"><path
         d="M 0,768 H 1366 V 0 H 0 Z"
         id="path36"
         inkscape:connector-curvature="0" /></clipPath></defs><sodipodi:namedview
     pagecolor="#ffffff"
     bordercolor="#666666"
     borderopacity="1"
     objecttolerance="10"
     gridtolerance="10"
     guidetolerance="10"
     inkscape:pageopacity="0"
     inkscape:pageshadow="2"
     inkscape:window-width="1920"
     inkscape:window-height="1036"
     id="namedview4"
     showgrid="false"
     inkscape:zoom="0.37005858"
     inkscape:cx="1271.7875"
     inkscape:cy="0.073025259"
     inkscape:window-x="0"
     inkscape:window-y="20"
     inkscape:window-maximized="0"
     inkscape:current-layer="g10" /><g
     id="g10"
     inkscape:groupmode="layer"
     inkscape:label="kav3"
     transform="matrix(1.3333333,0,0,-1.3333333,0,1024)"><g
       id="g12"><g
         id="g14"
         clip-path="url(#clipPath18)"><g
           id="g20"><g
             id="g22"><path
               d="M 0,0 H 1366 V 768 H 0 Z"
               style="fill:url(#radialGradient28);stroke:none"
               id="path30"
               inkscape:connector-curvature="0" /></g></g></g></g><g
       id="g32"><g
         id="g34"
         clip-path="url(#clipPath38)"><g
           id="g40"
           transform="translate(744.1582,425.0532)"><path
             d="m 0,0 v -13.685 h 8.324 c 6.274,0 8.119,-6.012 5.256,-11.38 l -16.299,-30.56 c -0.207,-0.392 -0.883,-0.386 -1.085,0 l -16.19,30.921 c -2.928,5.598 -0.383,11.019 3.574,11.019 h 5.471 V 0 h -52 v -13.685 h 2.583 c 2.968,0 7.276,-1.827 8.764,-4.656 l 33.387,-63.765 H 1.633 l 29.74,55.764 v 0 c 0.002,0.008 0.008,0.019 0.012,0.028 l 3.7,6.933 c 1.956,3.057 4.524,5.696 8.079,5.696 H 48.35 L 48.35,0 Z"
             style="fill:#231f20;fill-opacity:1;fill-rule:nonzero;stroke:none"
             id="path42"
             inkscape:connector-curvature="0" /></g><g
           id="g44"
           transform="translate(571.4023,356.6318)"><path
             d="m 0,0 c -2.958,0 -5.378,2.351 -7.6,4.57 l -28.964,28.953 c -0.516,0.513 -0.678,1.489 10e-4,1.955 l 17.721,12.229 v -0.002 c 6.528,4.503 10.973,7.032 15.991,7.032 h 2.054 V 68.421 H -50.059 V 54.737 h 4.56 c 9.123,0 9.123,-7.298 6.387,-9.124 l 0.213,0.054 -23.939,-16.514 c -1.532,-1.056 -2.73,0.536 -2.73,2.168 v 18.855 c 0,1.824 1.823,4.561 5.468,4.561 h 2.739 v 13.684 h -45.614 V 54.737 h 2.737 c 3.65,0 12.773,-1.824 12.773,-10.035 V 10.036 C -87.465,1.824 -96.588,0 -100.238,0 h -2.737 v -13.685 h 45.614 V 0 H -60.1 c -3.645,0 -5.468,2.736 -5.468,4.56 v 7.908 c 0,1.026 0.402,3.276 1.572,4.084 l 7.34,5.064 c 0.981,0.676 2.849,0.762 3.612,0 L -40.209,8.787 C -37.471,6.052 -41.244,0 -45.652,0 h -4.407 V -13.685 H 4.675 L 4.675,0 Z"
             style="fill:#231f20;fill-opacity:1;fill-rule:nonzero;stroke:none"
             id="path46"
             inkscape:connector-curvature="0" /></g><g
           id="g48"
           transform="translate(623.9238,380.3501)"><path
             d="m 0,0 9.717,18.222 c 0.213,0.391 0.885,0.385 1.084,0 L 20.342,0 Z m 67.365,-23.718 c -2.961,0 -7.275,1.827 -8.764,4.656 L 25.215,44.703 H 5.365 l -29.739,-55.766 v 0.001 c -0.002,-0.007 -0.011,-0.019 -0.013,-0.027 l -3.695,-6.933 c -1.963,-3.057 -4.527,-5.696 -8.084,-5.696 h -5.183 V -37.403 H 7.002 v 13.685 h -8.327 c -6.274,0 -8.116,6.011 -5.257,11.38 l 1.23,2.303 h 30.951 l 1.395,-2.664 c 2.93,-5.597 0.384,-11.019 -3.57,-11.019 H 17.95 v -13.685 h 52.001 v 13.685 z"
             style="fill:#231f20;fill-opacity:1;fill-rule:nonzero;stroke:none"
             id="path50"
             inkscape:connector-curvature="0" /></g><g
           id="g52"
           transform="translate(799.1152,425.0532)"><path
             d="m 0,0 v -13.685 h 2.736 c 3.651,0 12.774,-1.824 12.774,-10.034 v -34.667 c 0,-8.212 -9.123,-10.035 -12.774,-10.035 H 0 v -13.685 h 48.891 v 13.685 h -6.013 c -3.649,0 -5.474,2.736 -5.474,4.56 v 13.036 c 0,2.264 0.366,2.93 2.232,2.93 h 10.811 c 3.648,0 7.069,-1.825 7.069,-5.532 v -4.296 H 70.67 v 33.339 H 57.516 v -4.297 c 0,-3.706 -3.421,-5.53 -7.069,-5.53 H 39.636 c -1.866,0 -2.232,0.665 -2.232,2.929 v 13.037 c 0,1.824 1.825,4.56 5.474,4.56 h 29.123 c 5.417,0 13.305,-3.763 13.305,-13.343 v -6.31 h 13.151 l 0,33.338 z"
             style="fill:#231f20;fill-opacity:1;fill-rule:nonzero;stroke:none"
             id="path54"
             inkscape:connector-curvature="0" /></g></g></g></g></svg>