<?xml version="1.0" encoding="UTF-8" standalone="no"?>
<!-- Created with Inkscape (http://www.inkscape.org/) -->

<svg
   xmlns:dc="http://purl.org/dc/elements/1.1/"
   xmlns:cc="http://creativecommons.org/ns#"
   xmlns:rdf="http://www.w3.org/1999/02/22-rdf-syntax-ns#"
   xmlns:svg="http://www.w3.org/2000/svg"
   xmlns="http://www.w3.org/2000/svg"
   xmlns:sodipodi="http://sodipodi.sourceforge.net/DTD/sodipodi-0.dtd"
   xmlns:inkscape="http://www.inkscape.org/namespaces/inkscape"
   version="1.1"
   id="svg2"
   xml:space="preserve"
   width="793.70667"
   height="1122.52"
   viewBox="0 0 793.70667 1122.52"
   sodipodi:docname="kav6.svg"
   inkscape:version="0.92.2 5c3e80d, 2017-08-06"><metadata
     id="metadata8"><rdf:RDF><cc:Work
         rdf:about=""><dc:format>image/svg+xml</dc:format><dc:type
           rdf:resource="http://purl.org/dc/dcmitype/StillImage" /><dc:title></dc:title></cc:Work></rdf:RDF></metadata><defs
     id="defs6"><clipPath
       clipPathUnits="userSpaceOnUse"
       id="clipPath18"><path
         d="M 0,841.89 H 595.28 V 0 H 0 Z"
         id="path16"
         inkscape:connector-curvature="0" /></clipPath></defs><sodipodi:namedview
     pagecolor="#ffffff"
     bordercolor="#666666"
     borderopacity="1"
     objecttolerance="10"
     gridtolerance="10"
     guidetolerance="10"
     inkscape:pageopacity="0"
     inkscape:pageshadow="2"
     inkscape:window-width="1920"
     inkscape:window-height="1036"
     id="namedview4"
     showgrid="false"
     inkscape:zoom="0.84096496"
     inkscape:cx="270.77568"
     inkscape:cy="595.42711"
     inkscape:window-x="0"
     inkscape:window-y="20"
     inkscape:window-maximized="0"
     inkscape:current-layer="g10" /><g
     id="g10"
     inkscape:groupmode="layer"
     inkscape:label="kav4"
     transform="matrix(1.3333333,0,0,-1.3333333,0,1122.52)"><g
       id="g12"><g
         id="g14"
         clip-path="url(#clipPath18)"><g
           id="g20"
           transform="translate(205.5266,246.1948)"><path
             d="m 0,0 c -0.148,1.204 -0.989,1.648 -1.929,1.648 -1.995,0 -2.605,-1.83 -2.605,-4.005 0,-0.727 0.017,-3.727 2.572,-3.727 1.748,0 1.929,1.27 1.995,1.731 h 3.429 c -0.016,-3.726 -3.808,-4.039 -5.358,-4.039 -1.154,0 -3.198,0.199 -4.517,1.583 -1.302,1.385 -1.534,3.281 -1.534,4.517 0,1.633 0.38,3.265 1.501,4.534 1.22,1.385 2.786,1.747 4.517,1.747 C 0,3.989 1.468,3.528 2.407,2.539 3.363,1.516 3.38,0.445 3.396,0 Z"
             style="fill:#2d2a2c;fill-opacity:1;fill-rule:nonzero;stroke:none"
             id="path22"
             inkscape:connector-curvature="0" /></g><g
           id="g24"
           transform="translate(213.26,240.2261)"><path
             d="m 0,0 c 0.363,-0.627 0.924,-0.659 1.204,-0.659 1.351,0 1.615,1.468 1.615,2.622 0,1.433 -0.346,2.638 -1.583,2.638 -1.368,0 -1.632,-1.402 -1.632,-2.638 C -0.396,1.418 -0.346,0.611 0,0 m 1.236,6.363 c 2.688,0 4.782,-1.351 4.782,-4.285 0,-1.203 -0.347,-2.424 -1.204,-3.281 C 4.122,-1.879 3.099,-2.39 1.401,-2.39 c -1.829,0 -3.016,0.445 -3.825,1.22 -0.956,0.907 -1.187,2.143 -1.187,3.149 0,2.539 1.567,4.384 4.847,4.384"
             style="fill:#2d2a2c;fill-opacity:1;fill-rule:nonzero;stroke:none"
             id="path26"
             inkscape:connector-curvature="0" /></g><g
           id="g28"
           transform="translate(220.4158,244.5464)"><path
             d="M 0,0 -0.082,1.764 H 3.017 L 3.05,0.494 c 0.379,0.627 1.038,1.45 2.753,1.45 3.034,0 3.034,-2.307 3.034,-3.445 v -5.012 h -3.1 v 4.748 c 0,0.578 0,1.747 -1.269,1.747 -1.385,0 -1.385,-1.45 -1.385,-1.747 V -6.513 H 0 Z"
             style="fill:#2d2a2c;fill-opacity:1;fill-rule:nonzero;stroke:none"
             id="path30"
             inkscape:connector-curvature="0" /></g><g
           id="g32"
           transform="translate(233.2432,240.7212)"><path
             d="m 0,0 c 0,-0.147 0,-0.462 0.132,-0.742 0.115,-0.263 0.379,-0.511 0.907,-0.511 0.708,0 0.939,0.478 0.939,0.84 0,0.578 -0.478,0.743 -1.17,0.924 l -1.682,0.478 c -0.511,0.132 -2.011,0.544 -2.011,2.242 0,0.825 0.445,1.517 0.989,1.879 0.725,0.512 1.714,0.709 2.935,0.709 1.78,0 3.643,-0.477 3.774,-2.786 H 1.879 c 0,0.247 0,0.561 -0.115,0.809 C 1.632,4.105 1.401,4.286 0.907,4.286 0.429,4.286 -0.017,4.072 -0.017,3.562 -0.017,3.083 0.33,2.901 0.824,2.77 L 3.033,2.159 C 3.825,1.945 4.979,1.501 4.979,-0.115 4.979,-2.918 1.73,-2.918 1.006,-2.918 -0.676,-2.918 -3.1,-2.67 -3.066,0 Z"
             style="fill:#2d2a2c;fill-opacity:1;fill-rule:nonzero;stroke:none"
             id="path34"
             inkscape:connector-curvature="0" /></g><g
           id="g36"
           transform="translate(242.4434,240.2261)"><path
             d="m 0,0 c 0.363,-0.627 0.923,-0.659 1.203,-0.659 1.352,0 1.616,1.468 1.616,2.622 0,1.433 -0.346,2.638 -1.583,2.638 -1.368,0 -1.632,-1.402 -1.632,-2.638 C -0.396,1.418 -0.347,0.611 0,0 m 1.236,6.363 c 2.688,0 4.782,-1.351 4.782,-4.285 0,-1.203 -0.347,-2.424 -1.204,-3.281 C 4.121,-1.879 3.1,-2.39 1.401,-2.39 c -1.83,0 -3.017,0.445 -3.824,1.22 -0.957,0.907 -1.187,2.143 -1.187,3.149 0,2.539 1.566,4.384 4.846,4.384"
             style="fill:#2d2a2c;fill-opacity:1;fill-rule:nonzero;stroke:none"
             id="path38"
             inkscape:connector-curvature="0" /></g><g
           id="g40"
           transform="translate(249.6484,244.5464)"><path
             d="M 0,0 -0.082,1.764 H 2.935 L 2.984,0.049 C 3.693,1.896 5.193,1.846 5.902,1.83 v -2.655 c -0.362,0.033 -0.445,0.05 -0.659,0.05 -1.896,0 -2.16,-1.334 -2.16,-2.226 V -6.513 H 0 Z"
             style="fill:#2d2a2c;fill-opacity:1;fill-rule:nonzero;stroke:none"
             id="path42"
             inkscape:connector-curvature="0" /></g><g
           id="g44"
           transform="translate(262.3101,246.2769)"><path
             d="m 0,0 v -1.979 h -1.995 v -2.868 c 0.017,-1.021 0.017,-1.484 1.204,-1.484 0.248,0 0.395,0 0.775,0.05 v -1.945 c -0.413,-0.067 -0.956,-0.149 -2.012,-0.149 -2.472,0 -2.967,0.824 -2.967,2.424 v 3.972 H -6.561 V 0 h 1.615 v 1.286 l 2.985,1.188 0,-2.474 z"
             style="fill:#2d2a2c;fill-opacity:1;fill-rule:nonzero;stroke:none"
             id="path46"
             inkscape:connector-curvature="0" /></g><path
           d="m 263.333,246.31 h 3.099 v -8.276 h -3.099 z m -0.033,3.594 h 3.165 v -2.209 H 263.3 Z"
           style="fill:#2d2a2c;fill-opacity:1;fill-rule:nonzero;stroke:none"
           id="path48"
           inkscape:connector-curvature="0" /><g
           id="g50"
           transform="translate(271.1641,246.3101)"><path
             d="m 0,0 v -4.83 c 0,-0.463 0,-1.616 1.237,-1.616 1.302,0 1.302,1.187 1.302,1.648 V 0 h 3.1 V -6.842 C 5.671,-7.551 5.671,-7.633 5.687,-8.276 H 2.638 l -0.066,1.285 c -0.841,-1.335 -1.88,-1.434 -2.605,-1.434 -2.868,0 -3.05,2.177 -3.05,3.759 l 0,4.666 z"
             style="fill:#2d2a2c;fill-opacity:1;fill-rule:nonzero;stroke:none"
             id="path52"
             inkscape:connector-curvature="0" /></g><g
           id="g54"
           transform="translate(278.3691,244.4302)"><path
             d="M 0,0 C 0,0.198 -0.065,1.633 -0.065,1.88 H 3.001 L 3.034,0.511 c 0.593,1.072 1.549,1.566 2.802,1.566 0.479,0 2.061,-0.082 2.605,-1.533 0.775,1.286 2.061,1.55 2.918,1.55 1.55,0 2.292,-0.808 2.605,-1.286 0.445,-0.709 0.445,-1.714 0.445,-2.67 V -6.396 H 11.31 v 4.682 c 0,0.841 0,1.83 -1.236,1.83 C 9.661,0.116 9.2,-0.033 8.919,-0.576 8.82,-0.773 8.755,-1.038 8.755,-1.747 v -4.649 h -3.1 v 4.714 c 0,0.743 0,1.798 -1.237,1.798 C 3.363,0.116 3.1,-0.758 3.1,-1.682 V -6.396 H 0 Z"
             style="fill:#2d2a2c;fill-opacity:1;fill-rule:nonzero;stroke:none"
             id="path56"
             inkscape:connector-curvature="0" /></g><g
           id="g58"
           transform="translate(305.063,247.8931)"><path
             d="m 0,0 c -0.132,0.032 -0.445,0.099 -0.858,0.099 -1.269,0 -1.236,-1.023 -1.22,-1.715 h 1.995 v -2.012 h -1.995 v -6.231 h -3.033 v 6.231 H -6.71 v 2.012 h 1.648 c -0.049,1.978 -0.016,3.71 3.232,3.71 0.84,0 1.484,-0.067 1.83,-0.099 z"
             style="fill:#2d2a2c;fill-opacity:1;fill-rule:nonzero;stroke:none"
             id="path60"
             inkscape:connector-curvature="0" /></g><g
           id="g62"
           transform="translate(308.5908,240.2261)"><path
             d="m 0,0 c 0.363,-0.627 0.924,-0.659 1.204,-0.659 1.352,0 1.615,1.468 1.615,2.622 0,1.433 -0.345,2.638 -1.582,2.638 -1.368,0 -1.633,-1.402 -1.633,-2.638 C -0.396,1.418 -0.346,0.611 0,0 m 1.237,6.363 c 2.687,0 4.781,-1.351 4.781,-4.285 0,-1.203 -0.346,-2.424 -1.204,-3.281 C 4.122,-1.879 3.1,-2.39 1.402,-2.39 c -1.83,0 -3.017,0.445 -3.825,1.22 -0.956,0.907 -1.187,2.143 -1.187,3.149 0,2.539 1.566,4.384 4.847,4.384"
             style="fill:#2d2a2c;fill-opacity:1;fill-rule:nonzero;stroke:none"
             id="path64"
             inkscape:connector-curvature="0" /></g><g
           id="g66"
           transform="translate(315.7969,244.5464)"><path
             d="M 0,0 -0.083,1.764 H 2.935 L 2.983,0.049 c 0.709,1.847 2.21,1.797 2.918,1.781 v -2.655 c -0.362,0.033 -0.444,0.05 -0.659,0.05 -1.896,0 -2.159,-1.334 -2.159,-2.226 V -6.513 H 0 Z"
             style="fill:#2d2a2c;fill-opacity:1;fill-rule:nonzero;stroke:none"
             id="path68"
             inkscape:connector-curvature="0" /></g><g
           id="g70"
           transform="translate(333.1904,242.6167)"><path
             d="m 0,0 -1.533,4.996 h -0.05 L -3.231,0 Z M -3.413,7.32 H 0.609 L 5.308,-4.583 H 1.583 l -0.825,2.391 h -4.764 l -0.808,-2.391 h -3.297 z"
             style="fill:#2d2a2c;fill-opacity:1;fill-rule:nonzero;stroke:none"
             id="path72"
             inkscape:connector-curvature="0" /></g><g
           id="g74"
           transform="translate(341.8301,246.3101)"><path
             d="m 0,0 v -4.83 c 0,-0.463 0,-1.616 1.236,-1.616 1.303,0 1.303,1.187 1.303,1.648 V 0 h 3.1 v -6.842 c 0.033,-0.709 0.033,-0.791 0.049,-1.434 h -3.05 l -0.066,1.285 c -0.841,-1.335 -1.88,-1.434 -2.605,-1.434 -2.868,0 -3.05,2.177 -3.05,3.759 l 0,4.666 z"
             style="fill:#2d2a2c;fill-opacity:1;fill-rule:nonzero;stroke:none"
             id="path76"
             inkscape:connector-curvature="0" /></g><g
           id="g78"
           transform="translate(354.9043,242.2046)"><path
             d="m 0,0 c 0,1.385 -0.445,2.473 -1.532,2.473 -1.385,0 -1.567,-1.746 -1.567,-2.522 0,-0.791 0.165,-2.489 1.533,-2.489 C -0.445,-2.538 0,-1.418 0,0 m 3.067,7.732 v -9.841 c 0,-0.694 0.033,-1.37 0.082,-2.062 H 0.215 L 0.149,-2.95 c -0.33,-0.479 -0.973,-1.418 -2.802,-1.418 -2.853,0 -3.66,2.307 -3.66,4.335 0,1.764 0.477,2.589 1.038,3.198 0.758,0.81 1.681,1.121 2.72,1.121 1.385,0 1.978,-0.577 2.523,-1.153 v 4.599 z"
             style="fill:#2d2a2c;fill-opacity:1;fill-rule:nonzero;stroke:none"
             id="path80"
             inkscape:connector-curvature="0" /></g><path
           d="m 359.506,246.31 h 3.099 v -8.276 h -3.099 z m -0.033,3.594 h 3.165 v -2.209 h -3.165 z"
           style="fill:#2d2a2c;fill-opacity:1;fill-rule:nonzero;stroke:none"
           id="path82"
           inkscape:connector-curvature="0" /><g
           id="g84"
           transform="translate(369.9746,246.2769)"><path
             d="m 0,0 v -1.979 h -1.995 v -2.868 c 0.016,-1.021 0.016,-1.484 1.203,-1.484 0.248,0 0.396,0 0.775,0.05 v -1.945 c -0.412,-0.067 -0.956,-0.149 -2.011,-0.149 -2.473,0 -2.968,0.824 -2.968,2.424 v 3.972 H -6.562 V 0 h 1.616 v 1.286 l 2.983,1.188 0,-2.474 z"
             style="fill:#2d2a2c;fill-opacity:1;fill-rule:nonzero;stroke:none"
             id="path86"
             inkscape:connector-curvature="0" /></g><path
           d="m 370.997,246.31 h 3.099 v -8.276 h -3.099 z m -0.033,3.594 h 3.166 v -2.209 h -3.166 z"
           style="fill:#2d2a2c;fill-opacity:1;fill-rule:nonzero;stroke:none"
           id="path88"
           inkscape:connector-curvature="0" /><g
           id="g90"
           transform="translate(375.7451,244.5464)"><path
             d="M 0,0 -0.082,1.764 H 3.017 L 3.05,0.494 c 0.379,0.627 1.039,1.45 2.754,1.45 3.033,0 3.033,-2.307 3.033,-3.445 v -5.012 h -3.1 v 4.748 c 0,0.578 0,1.747 -1.269,1.747 -1.385,0 -1.385,-1.45 -1.385,-1.747 V -6.513 H 0 Z"
             style="fill:#2d2a2c;fill-opacity:1;fill-rule:nonzero;stroke:none"
             id="path92"
             inkscape:connector-curvature="0" /></g><g
           id="g94"
           transform="translate(390.4355,244.7769)"><path
             d="m 0,0 c -1.039,0 -1.6,-0.957 -1.6,-2.34 0,-0.875 0.199,-2.308 1.567,-2.308 1.483,0 1.533,1.746 1.533,2.339 C 1.5,-1.879 1.5,0 0,0 m 4.566,1.582 v -7.715 c 0,-0.989 -0.198,-2.16 -1.318,-2.951 -0.709,-0.512 -1.715,-0.923 -3.413,-0.923 -0.939,0 -2.506,0.131 -3.446,0.973 -0.725,0.643 -0.742,1.418 -0.758,1.846 h 2.918 c 0.016,-0.626 0.462,-1.056 1.352,-1.056 1.549,0 1.649,1.122 1.649,2.013 v 1.088 c -0.841,-1.253 -2.194,-1.336 -2.671,-1.336 -1.747,0 -3.676,1.088 -3.676,4.105 0,2.242 1.186,4.104 3.709,4.104 1.599,0 2.324,-0.741 2.736,-1.4 v 1.252 z"
             style="fill:#2d2a2c;fill-opacity:1;fill-rule:nonzero;stroke:none"
             id="path96"
             inkscape:connector-curvature="0" /></g><g
           id="g98"
           transform="translate(202.8015,231.4761)"><path
             d="M 0,0 H -3.627 V 2.356 H 7.04 V 0 H 3.33 V -9.546 H 0 Z"
             style="fill:#2d2a2c;fill-opacity:1;fill-rule:nonzero;stroke:none"
             id="path100"
             inkscape:connector-curvature="0" /></g><g
           id="g102"
           transform="translate(214.1121,227.1226)"><path
             d="m 0,0 c -0.033,0.479 -0.132,1.731 -1.484,1.731 -1.351,0 -1.467,-1.335 -1.5,-1.731 z m -3.017,-1.681 c 0,-0.446 0,-2.011 1.583,-2.011 0.824,0 1.335,0.428 1.417,1.204 h 2.886 c -0.231,-2.078 -2.177,-2.886 -4.32,-2.886 -2.885,0 -4.434,1.45 -4.434,4.187 0,2.771 1.351,4.568 4.401,4.568 2.308,0 3.38,-0.94 3.941,-2.111 0.362,-0.709 0.461,-1.5 0.461,-2.951 z"
             style="fill:#2d2a2c;fill-opacity:1;fill-rule:nonzero;stroke:none"
             id="path104"
             inkscape:connector-curvature="0" /></g><g
           id="g106"
           transform="translate(220.7402,224.6167)"><path
             d="m 0,0 c 0,-0.148 0,-0.461 0.132,-0.742 0.115,-0.263 0.379,-0.511 0.907,-0.511 0.708,0 0.94,0.479 0.94,0.841 0,0.577 -0.479,0.742 -1.171,0.924 l -1.682,0.477 c -0.511,0.132 -2.011,0.545 -2.011,2.243 0,0.825 0.445,1.517 0.989,1.879 0.726,0.512 1.715,0.709 2.935,0.709 1.78,0 3.643,-0.478 3.775,-2.787 H 1.879 c 0,0.248 0,0.561 -0.115,0.809 C 1.632,4.105 1.401,4.287 0.907,4.287 0.428,4.287 -0.017,4.072 -0.017,3.563 -0.017,3.084 0.33,2.901 0.824,2.77 L 3.033,2.16 c 0.792,-0.214 1.946,-0.659 1.946,-2.275 0,-2.802 -3.248,-2.802 -3.973,-2.802 -1.682,0 -4.105,0.246 -4.072,2.917 z"
             style="fill:#2d2a2c;fill-opacity:1;fill-rule:nonzero;stroke:none"
             id="path108"
             inkscape:connector-curvature="0" /></g><g
           id="g110"
           transform="translate(232.644,230.1724)"><path
             d="m 0,0 v -1.978 h -1.995 v -2.869 c 0.017,-1.021 0.017,-1.483 1.204,-1.483 0.247,0 0.395,0 0.775,0.049 v -1.946 c -0.413,-0.065 -0.956,-0.147 -2.012,-0.147 -2.473,0 -2.967,0.824 -2.967,2.424 v 3.972 H -6.561 V 0 h 1.615 v 1.286 l 2.984,1.188 0,-2.474 z"
             style="fill:#2d2a2c;fill-opacity:1;fill-rule:nonzero;stroke:none"
             id="path112"
             inkscape:connector-curvature="0" /></g><path
           d="m 233.832,230.206 h 3.099 v -8.275 h -3.099 z m -0.033,3.594 h 3.165 v -2.21 h -3.165 z"
           style="fill:#2d2a2c;fill-opacity:1;fill-rule:nonzero;stroke:none"
           id="path114"
           inkscape:connector-curvature="0" /><g
           id="g116"
           transform="translate(238.7451,228.4419)"><path
             d="m 0,0 -0.083,1.764 h 3.1 L 3.05,0.494 c 0.379,0.628 1.038,1.451 2.753,1.451 3.034,0 3.034,-2.308 3.034,-3.446 v -5.011 h -3.1 v 4.748 c 0,0.577 0,1.747 -1.269,1.747 -1.385,0 -1.385,-1.451 -1.385,-1.747 v -4.748 l -3.083,0 z"
             style="fill:#2d2a2c;fill-opacity:1;fill-rule:nonzero;stroke:none"
             id="path118"
             inkscape:connector-curvature="0" /></g><g
           id="g120"
           transform="translate(253.5996,228.6733)"><path
             d="m 0,0 c -1.038,0 -1.599,-0.957 -1.599,-2.342 0,-0.873 0.198,-2.307 1.566,-2.307 1.484,0 1.534,1.747 1.534,2.34 C 1.501,-1.88 1.501,0 0,0 m 4.567,1.582 v -7.716 c 0,-0.989 -0.198,-2.159 -1.319,-2.95 -0.709,-0.512 -1.715,-0.924 -3.413,-0.924 -0.939,0 -2.506,0.131 -3.445,0.973 -0.726,0.642 -0.742,1.418 -0.759,1.847 h 2.919 c 0.015,-0.627 0.461,-1.056 1.351,-1.056 1.55,0 1.649,1.121 1.649,2.012 v 1.087 c -0.841,-1.252 -2.193,-1.334 -2.671,-1.334 -1.747,0 -3.676,1.087 -3.676,4.104 0,2.242 1.187,4.104 3.709,4.104 1.599,0 2.325,-0.74 2.737,-1.4 v 1.253 z"
             style="fill:#2d2a2c;fill-opacity:1;fill-rule:nonzero;stroke:none"
             id="path122"
             inkscape:connector-curvature="0" /></g><g
           id="g124"
           transform="translate(269.4229,224.6167)"><path
             d="m 0,0 c 0,-0.609 0.396,-1.121 1.138,-1.121 0.329,0 0.907,0.133 1.219,0.792 0.247,0.527 0.247,1.203 0.232,1.55 C 1.27,1.205 0,1.187 0,0 m 2.688,-2.687 c -0.067,0.296 -0.099,0.66 -0.099,1.187 -0.38,-0.561 -1.023,-1.352 -2.721,-1.352 -2.027,0 -2.918,1.105 -2.918,2.572 0,2.259 2.094,3.083 5.654,2.935 0.017,0.89 -0.098,1.714 -1.038,1.714 -0.577,0 -1.121,-0.312 -1.104,-1.253 h -2.968 c 0.017,0.38 0.017,1.089 0.643,1.732 0.643,0.659 1.929,1.039 3.429,1.039 0.743,0 2.325,-0.101 3.199,-0.957 C 5.292,4.419 5.49,3.644 5.49,2.754 v -3.858 c 0,-0.594 0.017,-0.758 0.165,-1.583 z"
             style="fill:#2d2a2c;fill-opacity:1;fill-rule:nonzero;stroke:none"
             id="path126"
             inkscape:connector-curvature="0" /></g><g
           id="g128"
           transform="translate(276.4805,228.4419)"><path
             d="m 0,0 -0.083,1.764 h 3.1 L 3.05,0.494 c 0.379,0.628 1.038,1.451 2.753,1.451 3.033,0 3.033,-2.308 3.033,-3.446 v -5.011 h -3.1 v 4.748 c 0,0.577 0,1.747 -1.269,1.747 -1.385,0 -1.385,-1.451 -1.385,-1.747 v -4.748 l -3.082,0 z"
             style="fill:#2d2a2c;fill-opacity:1;fill-rule:nonzero;stroke:none"
             id="path130"
             inkscape:connector-curvature="0" /></g><g
           id="g132"
           transform="translate(292.8022,226.1011)"><path
             d="m 0,0 c 0,1.385 -0.445,2.473 -1.533,2.473 -1.385,0 -1.566,-1.747 -1.566,-2.523 0,-0.791 0.165,-2.489 1.533,-2.489 C -0.445,-2.539 0,-1.418 0,0 m 3.067,7.731 v -9.842 c 0,-0.692 0.032,-1.368 0.082,-2.06 H 0.214 l -0.066,1.22 c -0.329,-0.479 -0.972,-1.418 -2.802,-1.418 -2.852,0 -3.66,2.308 -3.66,4.336 0,1.763 0.478,2.588 1.038,3.198 0.759,0.808 1.682,1.121 2.721,1.121 1.385,0 1.978,-0.577 2.522,-1.154 v 4.599 z"
             style="fill:#2d2a2c;fill-opacity:1;fill-rule:nonzero;stroke:none"
             id="path134"
             inkscape:connector-curvature="0" /></g><g
           id="g136"
           transform="translate(304.7183,233.8003)"><path
             d="M 0,0 H 8.936 V -2.275 H 3.265 v -2.473 h 5.34 v -2.275 h -5.34 v -2.54 H 9.067 V -11.87 H 0 Z"
             style="fill:#2d2a2c;fill-opacity:1;fill-rule:nonzero;stroke:none"
             id="path138"
             inkscape:connector-curvature="0" /></g><g
           id="g140"
           transform="translate(314.2314,230.2056)"><path
             d="M 0,0 H 3.331 L 4.979,-5.804 6.743,0 H 9.661 L 6.528,-8.275 H 3.149 Z"
             style="fill:#2d2a2c;fill-opacity:1;fill-rule:nonzero;stroke:none"
             id="path142"
             inkscape:connector-curvature="0" /></g><g
           id="g144"
           transform="translate(326.9102,224.6167)"><path
             d="m 0,0 c 0,-0.609 0.396,-1.121 1.138,-1.121 0.33,0 0.907,0.133 1.22,0.792 0.247,0.527 0.247,1.203 0.231,1.55 C 1.27,1.205 0,1.187 0,0 M 2.688,-2.687 C 2.622,-2.391 2.589,-2.027 2.589,-1.5 2.21,-2.061 1.566,-2.852 -0.131,-2.852 c -2.028,0 -2.919,1.105 -2.919,2.572 0,2.259 2.094,3.083 5.655,2.935 C 2.622,3.545 2.506,4.369 1.566,4.369 0.99,4.369 0.445,4.057 0.462,3.116 h -2.967 c 0.016,0.38 0.016,1.089 0.643,1.732 0.642,0.659 1.928,1.039 3.428,1.039 0.743,0 2.325,-0.101 3.2,-0.957 C 5.292,4.419 5.49,3.644 5.49,2.754 v -3.858 c 0,-0.594 0.017,-0.758 0.165,-1.583 z"
             style="fill:#2d2a2c;fill-opacity:1;fill-rule:nonzero;stroke:none"
             id="path146"
             inkscape:connector-curvature="0" /></g><path
           d="m 334.05,233.833 h 3.1 v -11.902 h -3.1 z"
           style="fill:#2d2a2c;fill-opacity:1;fill-rule:nonzero;stroke:none"
           id="path148"
           inkscape:connector-curvature="0" /><g
           id="g150"
           transform="translate(342.0459,230.2056)"><path
             d="m 0,0 v -4.829 c 0,-0.463 0,-1.616 1.236,-1.616 1.303,0 1.303,1.186 1.303,1.648 V 0 h 3.1 v -6.842 c 0.032,-0.708 0.032,-0.79 0.049,-1.433 h -3.05 l -0.066,1.286 c -0.841,-1.336 -1.88,-1.436 -2.605,-1.436 -2.868,0 -3.05,2.178 -3.05,3.76 l 0,4.665 z"
             style="fill:#2d2a2c;fill-opacity:1;fill-rule:nonzero;stroke:none"
             id="path152"
             inkscape:connector-curvature="0" /></g><g
           id="g154"
           transform="translate(351.9883,224.6167)"><path
             d="m 0,0 c 0,-0.609 0.396,-1.121 1.138,-1.121 0.329,0 0.906,0.133 1.219,0.792 0.248,0.527 0.248,1.203 0.231,1.55 C 1.27,1.205 0,1.187 0,0 m 2.688,-2.687 c -0.067,0.296 -0.1,0.66 -0.1,1.187 -0.379,-0.561 -1.022,-1.352 -2.72,-1.352 -2.028,0 -2.918,1.105 -2.918,2.572 0,2.259 2.094,3.083 5.655,2.935 0.016,0.89 -0.099,1.714 -1.039,1.714 -0.577,0 -1.121,-0.312 -1.105,-1.253 h -2.967 c 0.017,0.38 0.017,1.089 0.643,1.732 0.643,0.659 1.929,1.039 3.429,1.039 0.742,0 2.325,-0.101 3.199,-0.957 C 5.292,4.419 5.49,3.644 5.49,2.754 v -3.858 c 0,-0.594 0.016,-0.758 0.165,-1.583 z"
             style="fill:#2d2a2c;fill-opacity:1;fill-rule:nonzero;stroke:none"
             id="path156"
             inkscape:connector-curvature="0" /></g><g
           id="g158"
           transform="translate(364.7656,230.1724)"><path
             d="m 0,0 v -1.978 h -1.995 v -2.869 c 0.017,-1.021 0.017,-1.483 1.204,-1.483 0.247,0 0.395,0 0.775,0.049 v -1.946 c -0.413,-0.065 -0.957,-0.147 -2.011,-0.147 -2.473,0 -2.968,0.824 -2.968,2.424 v 3.972 H -6.562 V 0 h 1.617 v 1.286 l 2.984,1.188 0,-2.474 z"
             style="fill:#2d2a2c;fill-opacity:1;fill-rule:nonzero;stroke:none"
             id="path160"
             inkscape:connector-curvature="0" /></g><path
           d="m 365.953,230.206 h 3.1 v -8.275 h -3.1 z m -0.033,3.594 h 3.165 v -2.21 h -3.165 z"
           style="fill:#2d2a2c;fill-opacity:1;fill-rule:nonzero;stroke:none"
           id="path162"
           inkscape:connector-curvature="0" /><g
           id="g164"
           transform="translate(374.0488,224.1226)"><path
             d="m 0,0 c 0.362,-0.627 0.923,-0.659 1.203,-0.659 1.352,0 1.615,1.467 1.615,2.621 C 2.818,3.396 2.473,4.6 1.236,4.6 -0.132,4.6 -0.396,3.198 -0.396,1.962 -0.396,1.418 -0.347,0.609 0,0 m 1.236,6.363 c 2.687,0 4.781,-1.351 4.781,-4.286 0,-1.204 -0.346,-2.424 -1.204,-3.281 -0.692,-0.676 -1.714,-1.187 -3.412,-1.187 -1.83,0 -3.017,0.446 -3.825,1.22 -0.956,0.907 -1.187,2.144 -1.187,3.15 0,2.539 1.566,4.384 4.847,4.384"
             style="fill:#2d2a2c;fill-opacity:1;fill-rule:nonzero;stroke:none"
             id="path166"
             inkscape:connector-curvature="0" /></g><g
           id="g168"
           transform="translate(381.3691,228.4419)"><path
             d="m 0,0 -0.083,1.764 h 3.1 L 3.05,0.494 c 0.379,0.628 1.038,1.451 2.753,1.451 3.034,0 3.034,-2.308 3.034,-3.446 v -5.011 h -3.1 v 4.748 c 0,0.577 0,1.747 -1.269,1.747 -1.385,0 -1.385,-1.451 -1.385,-1.747 v -4.748 l -3.083,0 z"
             style="fill:#2d2a2c;fill-opacity:1;fill-rule:nonzero;stroke:none"
             id="path170"
             inkscape:connector-curvature="0" /></g><g
           id="g172"
           transform="translate(249.835,302.3257)"><path
             d="M 0,0 C -14.821,0.098 -29.858,0.268 -44.678,0.538 -45.131,0.026 -45.562,-0.506 -45.982,-1.051 -28.667,-1.528 -12.57,-1.937 0.4,-2.201 0.313,-1.43 0.181,-0.694 0,0"
             style="fill:#2d2a2c;fill-opacity:1;fill-rule:nonzero;stroke:none"
             id="path174"
             inkscape:connector-curvature="0" /></g><g
           id="g176"
           transform="translate(230.9875,297.0044)"><path
             d="m 0,0 c 6.961,-0.172 13.456,-0.321 19.315,-0.441 0.05,0.765 0.057,1.497 0.03,2.202 C 12.6,1.803 5.808,1.861 -0.988,1.938 -0.525,1.521 -0.18,0.899 0,0"
             style="fill:#2d2a2c;fill-opacity:1;fill-rule:nonzero;stroke:none"
             id="path178"
             inkscape:connector-curvature="0" /></g><g
           id="g180"
           transform="translate(244.9189,309.479)"><path
             d="m 0,0 c -10.177,0.077 -20.433,0.191 -30.629,0.349 -1.009,-0.498 -1.984,-1.043 -2.917,-1.641 C -20.362,-1.646 -8.09,-1.952 2.373,-2.176 1.683,-1.357 0.886,-0.636 0,0"
             style="fill:#2d2a2c;fill-opacity:1;fill-rule:nonzero;stroke:none"
             id="path182"
             inkscape:connector-curvature="0" /></g><g
           id="g184"
           transform="translate(224.4861,299.0073)"><path
             d="m 0,0 c -7.359,0.094 -14.711,0.209 -22.004,0.348 -0.336,-0.512 -0.658,-1.038 -0.967,-1.576 7.235,-0.2 14.272,-0.389 20.979,-0.562 C -1.415,-1.023 -0.759,-0.422 0,0"
             style="fill:#2d2a2c;fill-opacity:1;fill-rule:nonzero;stroke:none"
             id="path186"
             inkscape:connector-curvature="0" /></g><g
           id="g188"
           transform="translate(248.3193,305.895)"><path
             d="m 0,0 c -13.104,0.091 -26.366,0.238 -39.485,0.464 -0.64,-0.513 -1.26,-1.049 -1.854,-1.611 15.752,-0.431 30.38,-0.798 42.409,-1.048 C 0.774,-1.411 0.421,-0.676 0,0"
             style="fill:#2d2a2c;fill-opacity:1;fill-rule:nonzero;stroke:none"
             id="path190"
             inkscape:connector-curvature="0" /></g><g
           id="g192"
           transform="translate(222.907,272.2954)"><path
             d="m 0,0 c 7.561,-0.194 14.693,-0.368 21.202,-0.511 0.386,0.674 0.742,1.377 1.069,2.105 C 15.688,1.644 9.072,1.708 2.458,1.79 1.72,0.84 0.897,0.28 0,0"
             style="fill:#2d2a2c;fill-opacity:1;fill-rule:nonzero;stroke:none"
             id="path194"
             inkscape:connector-curvature="0" /></g><g
           id="g196"
           transform="translate(233.2109,313.144)"><path
             d="m 0,0 c -1.842,0.019 -3.684,0.039 -5.526,0.061 -3.259,-0.174 -6.31,-0.737 -9.13,-1.649 C -6.165,-1.811 1.853,-2.009 9.138,-2.174 6.528,-0.957 3.417,-0.264 0,0"
             style="fill:#2d2a2c;fill-opacity:1;fill-rule:nonzero;stroke:none"
             id="path198"
             inkscape:connector-curvature="0" /></g><g
           id="g200"
           transform="translate(230.9939,293.4448)"><path
             d="m 0,0 c 6.769,-0.166 13.1,-0.312 18.831,-0.43 0.148,0.755 0.266,1.487 0.35,2.192 C 12.861,1.803 6.501,1.857 0.134,1.927 0.133,1.358 0.09,0.718 0,0"
             style="fill:#2d2a2c;fill-opacity:1;fill-rule:nonzero;stroke:none"
             id="path202"
             inkscape:connector-curvature="0" /></g><g
           id="g204"
           transform="translate(246.8125,278.8433)"><path
             d="M 0,0 C 0.021,0.094 0.046,0.184 0.065,0.277 H -12.144 C -7.887,0.176 -3.825,0.083 0,0"
             style="fill:#2d2a2c;fill-opacity:1;fill-rule:nonzero;stroke:none"
             id="path206"
             inkscape:connector-curvature="0" /></g><g
           id="g208"
           transform="translate(226.3845,275.7651)"><path
             d="m 0,0 c 6.911,-0.174 13.424,-0.33 19.383,-0.459 0.259,0.688 0.485,1.4 0.691,2.132 C 13.651,1.719 7.194,1.781 0.737,1.857 0.506,1.164 0.26,0.543 0,0"
             style="fill:#2d2a2c;fill-opacity:1;fill-rule:nonzero;stroke:none"
             id="path210"
             inkscape:connector-curvature="0" /></g><g
           id="g212"
           transform="translate(217.342,277.7524)"><path
             d="m 0,0 c -7.021,0.104 -14.019,0.226 -20.949,0.373 -0.005,-0.527 0.004,-1.046 0.026,-1.556 7.187,-0.202 14.216,-0.394 20.958,-0.572 C -0.016,-1.216 -0.024,-0.628 0,0"
             style="fill:#2d2a2c;fill-opacity:1;fill-rule:nonzero;stroke:none"
             id="path214"
             inkscape:connector-curvature="0" /></g><g
           id="g216"
           transform="translate(240.3145,266.8101)"><path
             d="m 0,0 c -13.846,0.121 -27.799,0.311 -41.509,0.588 0.312,-0.557 0.656,-1.09 1.031,-1.6 13.71,-0.383 26.762,-0.726 38.237,-0.994 C -1.456,-1.386 -0.71,-0.715 0,0"
             style="fill:#2d2a2c;fill-opacity:1;fill-rule:nonzero;stroke:none"
             id="path218"
             inkscape:connector-curvature="0" /></g><g
           id="g220"
           transform="translate(243.2119,270.3452)"><path
             d="m 0,0 c -15.3,0.122 -30.76,0.328 -45.907,0.643 0.16,-0.54 0.342,-1.066 0.544,-1.577 15.891,-0.445 30.965,-0.839 43.81,-1.131 C -1.003,-1.411 -0.485,-0.723 0,0"
             style="fill:#2d2a2c;fill-opacity:1;fill-rule:nonzero;stroke:none"
             id="path222"
             inkscape:connector-curvature="0" /></g><g
           id="g224"
           transform="translate(235.9438,263.2915)"><path
             d="m 0,0 c -11.462,0.111 -22.973,0.272 -34.334,0.493 0.631,-0.597 1.32,-1.15 2.07,-1.652 10.101,-0.279 19.789,-0.533 28.689,-0.751 C -2.33,-1.355 -1.134,-0.72 0,0"
             style="fill:#2d2a2c;fill-opacity:1;fill-rule:nonzero;stroke:none"
             id="path226"
             inkscape:connector-curvature="0" /></g><g
           id="g228"
           transform="translate(217.7898,274.187)"><path
             d="m 0,0 c -7.108,0.104 -14.193,0.229 -21.21,0.375 0.064,-0.531 0.147,-1.052 0.244,-1.562 7.805,-0.219 15.421,-0.427 22.682,-0.616 C 0.896,-1.457 0.343,-0.843 0,0"
             style="fill:#2d2a2c;fill-opacity:1;fill-rule:nonzero;stroke:none"
             id="path230"
             inkscape:connector-curvature="0" /></g><g
           id="g232"
           transform="translate(227.9868,259.8188)"><path
             d="m 0,0 c -6.766,0.079 -13.532,0.177 -20.259,0.294 2.883,-1.041 6.339,-1.597 10.405,-1.597 3.361,0 6.702,0.431 9.854,1.303"
             style="fill:#2d2a2c;fill-opacity:1;fill-rule:nonzero;stroke:none"
             id="path234"
             inkscape:connector-curvature="0" /></g><g
           id="g236"
           transform="translate(220.1001,291.9487)"><path
             d="m 0,0 c -7.073,0.098 -14.128,0.216 -21.121,0.357 -0.186,-0.511 -0.363,-1.031 -0.527,-1.558 7.273,-0.203 14.371,-0.397 21.157,-0.572 C -0.333,-1.157 -0.17,-0.566 0,0"
             style="fill:#2d2a2c;fill-opacity:1;fill-rule:nonzero;stroke:none"
             id="path238"
             inkscape:connector-curvature="0" /></g><g
           id="g240"
           transform="translate(219.1809,288.4028)"><path
             d="m 0,0 c -7.13,0.101 -14.241,0.222 -21.286,0.366 -0.13,-0.512 -0.249,-1.03 -0.36,-1.553 7.302,-0.205 14.433,-0.4 21.258,-0.579 C -0.26,-1.159 -0.131,-0.572 0,0"
             style="fill:#2d2a2c;fill-opacity:1;fill-rule:nonzero;stroke:none"
             id="path242"
             inkscape:connector-curvature="0" /></g><g
           id="g244"
           transform="translate(217.7361,281.3062)"><path
             d="m 0,0 c -7.083,0.103 -14.143,0.227 -21.136,0.373 -0.057,-0.523 -0.102,-1.041 -0.137,-1.552 7.211,-0.202 14.263,-0.395 21.025,-0.573 C -0.183,-1.191 -0.099,-0.606 0,0"
             style="fill:#2d2a2c;fill-opacity:1;fill-rule:nonzero;stroke:none"
             id="path246"
             inkscape:connector-curvature="0" /></g><g
           id="g248"
           transform="translate(221.4451,295.4897)"><path
             d="m 0,0 c -7.02,0.094 -14.026,0.209 -20.973,0.346 -0.252,-0.512 -0.489,-1.034 -0.717,-1.565 7.203,-0.201 14.223,-0.39 20.93,-0.564 C -0.523,-1.145 -0.271,-0.547 0,0"
             style="fill:#2d2a2c;fill-opacity:1;fill-rule:nonzero;stroke:none"
             id="path250"
             inkscape:connector-curvature="0" /></g><g
           id="g252"
           transform="translate(218.4146,284.855)"><path
             d="m 0,0 c -7.128,0.103 -14.234,0.225 -21.273,0.372 -0.1,-0.523 -0.19,-1.041 -0.27,-1.553 7.271,-0.204 14.377,-0.397 21.186,-0.577 C -0.247,-1.187 -0.127,-0.6 0,0"
             style="fill:#2d2a2c;fill-opacity:1;fill-rule:nonzero;stroke:none"
             id="path254"
             inkscape:connector-curvature="0" /></g><g
           id="g256"
           transform="translate(264.9883,264.2778)"><path
             d="M 0,0 1.109,2.384 C -5.244,2.402 -11.669,2.435 -18.129,2.48 L -19.261,0.353 C -12.403,0.203 -6.275,0.088 -1.128,0.016 -0.754,0.011 -0.378,0.005 0,0"
             style="fill:#2d2a2c;fill-opacity:1;fill-rule:nonzero;stroke:none"
             id="path258"
             inkscape:connector-curvature="0" /></g><g
           id="g260"
           transform="translate(264.4434,263.1079)"><path
             d="m 0,0 c -6.432,0.021 -12.935,0.056 -19.47,0.106 l -1.117,-2.101 c 7.388,-0.163 13.977,-0.291 19.486,-0.371 z"
             style="fill:#2d2a2c;fill-opacity:1;fill-rule:nonzero;stroke:none"
             id="path262"
             inkscape:connector-curvature="0" /></g><g
           id="g264"
           transform="translate(281.8799,263.0796)"><path
             d="m 0,0 0.066,-2.535 c 6.871,-0.053 14.031,-0.088 21.282,-0.11 L 21.055,0.04 C 14.209,0.014 7.173,0 0,0"
             style="fill:#2d2a2c;fill-opacity:1;fill-rule:nonzero;stroke:none"
             id="path266"
             inkscape:connector-curvature="0" /></g><g
           id="g268"
           transform="translate(273.0664,281.9761)"><path
             d="m 0,0 1.095,2.462 c -5.89,0.008 -11.856,0.026 -17.869,0.057 l -1.203,-2.261 c 3.163,-0.059 6.1,-0.109 8.77,-0.146 C -6.239,0.07 -3.162,0.034 0,0"
             style="fill:#2d2a2c;fill-opacity:1;fill-rule:nonzero;stroke:none"
             id="path270"
             inkscape:connector-curvature="0" /></g><g
           id="g272"
           transform="translate(276.2187,289.064)"><path
             d="M 0,0 1.107,2.488 C -4.578,2.492 -10.339,2.506 -16.15,2.53 L -17.38,0.221 C -15.619,0.19 -13.941,0.164 -12.359,0.142 -8.414,0.086 -4.276,0.038 0,0"
             style="fill:#2d2a2c;fill-opacity:1;fill-rule:nonzero;stroke:none"
             id="path274"
             inkscape:connector-curvature="0" /></g><g
           id="g276"
           transform="translate(279.373,296.1528)"><path
             d="m 0,0 1.118,2.515 c -5.479,10e-4 -11.036,0.01 -16.645,0.03 L -16.78,0.188 C -16.352,0.183 -15.93,0.177 -15.513,0.17 -10.605,0.102 -5.401,0.045 0,0"
             style="fill:#2d2a2c;fill-opacity:1;fill-rule:nonzero;stroke:none"
             id="path278"
             inkscape:connector-curvature="0" /></g><g
           id="g280"
           transform="translate(297.5967,311.9019)"><path
             d="m 0,0 h -26.729 l -0.756,-1.423 c 8.654,-0.098 18.033,-0.162 27.662,-0.201 z"
             style="fill:#2d2a2c;fill-opacity:1;fill-rule:nonzero;stroke:none"
             id="path282"
             inkscape:connector-curvature="0" /></g><g
           id="g284"
           transform="translate(274.6426,285.519)"><path
             d="M 0,0 1.101,2.475 C -4.687,2.482 -10.55,2.498 -16.462,2.526 l -1.217,-2.287 c 2.454,-0.044 4.761,-0.081 6.896,-0.111 C -7.324,0.078 -3.718,0.037 0,0"
             style="fill:#2d2a2c;fill-opacity:1;fill-rule:nonzero;stroke:none"
             id="path286"
             inkscape:connector-curvature="0" /></g><g
           id="g288"
           transform="translate(248.7446,270.3042)"><path
             d="m 0,0 -1.146,-2.155 c 6.104,-0.13 11.587,-0.231 16.261,-0.297 0.915,-0.013 1.841,-0.025 2.775,-0.037 l 0.198,0.426 h 14.914 l 0.015,-0.579 c 6.682,-0.05 13.638,-0.085 20.687,-0.107 L 53.411,-0.07 C 36.482,-0.131 18.4,-0.124 0,0"
             style="fill:#2d2a2c;fill-opacity:1;fill-rule:nonzero;stroke:none"
             id="path290"
             inkscape:connector-curvature="0" /></g><g
           id="g292"
           transform="translate(277.7959,292.6089)"><path
             d="m 0,0 1.112,2.5 c -5.582,0.004 -11.24,0.015 -16.951,0.038 l -1.242,-2.334 c 1.084,-0.017 2.136,-0.033 3.145,-0.048 C -9.508,0.093 -4.838,0.041 0,0"
             style="fill:#2d2a2c;fill-opacity:1;fill-rule:nonzero;stroke:none"
             id="path294"
             inkscape:connector-curvature="0" /></g><g
           id="g296"
           transform="translate(281.7881,266.6382)"><path
             d="M 0,0 0.066,-2.535 C 6.843,-2.586 13.9,-2.621 21.05,-2.644 L 20.757,0.039 C 14.005,0.014 7.068,0 0,0"
             style="fill:#2d2a2c;fill-opacity:1;fill-rule:nonzero;stroke:none"
             id="path298"
             inkscape:connector-curvature="0" /></g><g
           id="g300"
           transform="translate(250.6309,273.8511)"><path
             d="m 0,0 -1.161,-2.182 c 5.357,-0.111 10.199,-0.199 14.39,-0.257 11.526,-0.163 24.686,-0.253 38.199,-0.297 l -0.293,2.677 C 34.898,-0.117 17.608,-0.111 0,0"
             style="fill:#2d2a2c;fill-opacity:1;fill-rule:nonzero;stroke:none"
             id="path302"
             inkscape:connector-curvature="0" /></g><g
           id="g304"
           transform="translate(265.7354,302.2515)"><path
             d="M 0,0 -1.265,-2.378 C 3.942,-2.45 9.474,-2.507 15.215,-2.553 l 0.364,0.819 h 0.144 L 15.72,-2.557 c 5.667,-0.044 11.532,-0.075 17.487,-0.097 L 32.917,0 C 22.3,-0.031 11.262,-0.035 0,0"
             style="fill:#2d2a2c;fill-opacity:1;fill-rule:nonzero;stroke:none"
             id="path306"
             inkscape:connector-curvature="0" /></g><g
           id="g308"
           transform="translate(269.5156,309.3589)"><path
             d="M 0,0 -1.285,-2.416 C 8,-2.529 18.179,-2.601 28.648,-2.642 l -0.29,2.651 C 19.174,-0.018 9.679,-0.023 0,0"
             style="fill:#2d2a2c;fill-opacity:1;fill-rule:nonzero;stroke:none"
             id="path310"
             inkscape:connector-curvature="0" /></g><g
           id="g312"
           transform="translate(267.6255,305.8042)"><path
             d="m 0,0 -1.275,-2.396 c 9.896,-0.129 20.884,-0.208 32.203,-0.25 L 30.637,0.006 C 20.736,-0.023 10.47,-0.028 0,0"
             style="fill:#2d2a2c;fill-opacity:1;fill-rule:nonzero;stroke:none"
             id="path314"
             inkscape:connector-curvature="0" /></g><g
           id="g316"
           transform="translate(281.4385,295.1089)"><path
             d="m 0,0 -0.009,-2.53 c 5.921,-0.046 12.061,-0.079 18.292,-0.102 l -0.291,2.66 C 12.115,0.01 6.106,0 0,0"
             style="fill:#2d2a2c;fill-opacity:1;fill-rule:nonzero;stroke:none"
             id="path318"
             inkscape:connector-curvature="0" /></g><g
           id="g320"
           transform="translate(281.4521,298.6675)"><path
             d="m 0,0 -0.01,-2.531 c 5.794,-0.045 11.797,-0.077 17.89,-0.1 L 17.589,0.027 C 11.841,0.01 5.967,0 0,0"
             style="fill:#2d2a2c;fill-opacity:1;fill-rule:nonzero;stroke:none"
             id="path322"
             inkscape:connector-curvature="0" /></g><g
           id="g324"
           transform="translate(254.4048,280.9468)"><path
             d="m 0,0 -1.189,-2.234 c 3.884,-0.077 7.453,-0.139 10.644,-0.183 11.305,-0.159 24.181,-0.25 37.42,-0.294 l -0.292,2.672 C 31.736,-0.091 16.023,-0.088 0,0"
             style="fill:#2d2a2c;fill-opacity:1;fill-rule:nonzero;stroke:none"
             id="path326"
             inkscape:connector-curvature="0" /></g><g
           id="g328"
           transform="translate(281.4258,291.5503)"><path
             d="m 0,0 -0.01,-2.531 c 6.049,-0.047 12.326,-0.08 18.696,-0.102 L 18.394,0.029 C 12.39,0.01 6.245,0 0,0"
             style="fill:#2d2a2c;fill-opacity:1;fill-rule:nonzero;stroke:none"
             id="path330"
             inkscape:connector-curvature="0" /></g><g
           id="g332"
           transform="translate(252.5176,277.3979)"><path
             d="m 0,0 -1.175,-2.209 c 4.616,-0.093 8.819,-0.167 12.517,-0.219 11.416,-0.161 24.433,-0.252 37.81,-0.295 l -0.293,2.674 C 33.316,-0.104 16.816,-0.1 0,0"
             style="fill:#2d2a2c;fill-opacity:1;fill-rule:nonzero;stroke:none"
             id="path334"
             inkscape:connector-curvature="0" /></g><g
           id="g336"
           transform="translate(281.4126,287.9917)"><path
             d="m 0,0 -0.009,-2.531 c 6.176,-0.048 12.59,-0.082 19.097,-0.105 L 18.796,0.03 C 12.664,0.01 6.385,-0.001 0,0"
             style="fill:#2d2a2c;fill-opacity:1;fill-rule:nonzero;stroke:none"
             id="path338"
             inkscape:connector-curvature="0" /></g><g
           id="g340"
           transform="translate(281.3994,284.4312)"><path
             d="m 0,0 -0.009,-2.529 c 6.303,-0.05 12.854,-0.084 19.5,-0.106 L 19.199,0.033 C 12.938,0.012 6.524,0 0,0"
             style="fill:#2d2a2c;fill-opacity:1;fill-rule:nonzero;stroke:none"
             id="path342"
             inkscape:connector-curvature="0" /></g><g
           id="g344"
           transform="translate(313.2017,270.2856)"><path
             d="M 0,0 -0.583,-2.754 C 6.334,-2.763 13.258,-2.763 20.02,-2.755 l 0.616,2.901 C 14.059,0.09 7.157,0.039 0,0"
             style="fill:#2d2a2c;fill-opacity:1;fill-rule:nonzero;stroke:none"
             id="path346"
             inkscape:connector-curvature="0" /></g><g
           id="g348"
           transform="translate(312.4463,266.7222)"><path
             d="m 0,0 -0.583,-2.748 c 6.912,-0.01 13.835,-0.01 20.604,-0.002 l 0.614,2.895 C 14.053,0.088 7.153,0.037 0,0"
             style="fill:#2d2a2c;fill-opacity:1;fill-rule:nonzero;stroke:none"
             id="path350"
             inkscape:connector-curvature="0" /></g><g
           id="g352"
           transform="translate(313.9575,273.8481)"><path
             d="M 0,0 -0.584,-2.758 C 6.34,-2.767 13.264,-2.766 20.02,-2.757 l 0.616,2.906 C 14.063,0.091 7.162,0.04 0,0"
             style="fill:#2d2a2c;fill-opacity:1;fill-rule:nonzero;stroke:none"
             id="path354"
             inkscape:connector-curvature="0" /></g><g
           id="g356"
           transform="translate(311.6904,263.1597)"><path
             d="m 0,0 -0.582,-2.742 c 6.906,-0.012 13.83,-0.012 20.603,-0.005 l 0.614,2.89 C 14.049,0.086 7.147,0.037 0,0"
             style="fill:#2d2a2c;fill-opacity:1;fill-rule:nonzero;stroke:none"
             id="path358"
             inkscape:connector-curvature="0" /></g><g
           id="g360"
           transform="translate(308.8447,310.2456)"><path
             d="m 0,0 c 15.912,-0.033 32.016,-0.005 46.262,0.045 l 0.34,1.611 H 0.35 Z"
             style="fill:#2d2a2c;fill-opacity:1;fill-rule:nonzero;stroke:none"
             id="path362"
             inkscape:connector-curvature="0" /></g><g
           id="g364"
           transform="translate(314.7129,277.4116)"><path
             d="M 0,0 -0.586,-2.764 C 6.346,-2.772 13.271,-2.77 20.02,-2.76 l 0.618,2.912 C 14.069,0.094 7.167,0.041 0,0"
             style="fill:#2d2a2c;fill-opacity:1;fill-rule:nonzero;stroke:none"
             id="path366"
             inkscape:connector-curvature="0" /></g><g
           id="g368"
           transform="translate(306.4092,298.7222)"><path
             d="m 0,0 -0.168,-0.798 h 12.823 l -0.408,-1.927 c 6.971,-0.004 13.897,0.002 20.607,0.014 l 0.406,1.913 h 12.824 l 0.248,1.172 C 32.733,0.215 16.999,0.074 0,0"
             style="fill:#2d2a2c;fill-opacity:1;fill-rule:nonzero;stroke:none"
             id="path370"
             inkscape:connector-curvature="0" /></g><g
           id="g372"
           transform="translate(317.7373,291.6655)"><path
             d="m 0,0 -0.591,-2.785 c 6.957,-0.005 13.883,-10e-4 20.607,0.012 l 0.623,2.935 C 14.089,0.1 7.185,0.044 0,0"
             style="fill:#2d2a2c;fill-opacity:1;fill-rule:nonzero;stroke:none"
             id="path374"
             inkscape:connector-curvature="0" /></g><g
           id="g376"
           transform="translate(315.4687,280.9741)"><path
             d="m 0,0 -0.587,-2.768 c 6.938,-0.007 13.862,-0.004 20.606,0.005 l 0.619,2.917 C 14.074,0.096 7.171,0.043 0,0"
             style="fill:#2d2a2c;fill-opacity:1;fill-rule:nonzero;stroke:none"
             id="path378"
             inkscape:connector-curvature="0" /></g><g
           id="g380"
           transform="translate(318.4927,295.228)"><path
             d="m 0,0 -0.592,-2.789 c 6.965,-0.005 13.89,0.001 20.607,0.014 l 0.624,2.94 C 14.094,0.102 7.191,0.045 0,0"
             style="fill:#2d2a2c;fill-opacity:1;fill-rule:nonzero;stroke:none"
             id="path382"
             inkscape:connector-curvature="0" /></g><g
           id="g384"
           transform="translate(307.915,305.8472)"><path
             d="m 0,0 -0.574,-2.717 c 15.842,-0.035 31.937,-0.012 46.26,0.038 l 0.648,3.064 C 32.794,0.224 17.052,0.078 0,0"
             style="fill:#2d2a2c;fill-opacity:1;fill-rule:nonzero;stroke:none"
             id="path386"
             inkscape:connector-curvature="0" /></g><g
           id="g388"
           transform="translate(307.1621,302.2847)"><path
             d="m 0,0 -0.573,-2.711 c 15.806,-0.038 31.899,-0.015 46.26,0.033 L 46.333,0.38 C 32.764,0.219 17.024,0.076 0,0"
             style="fill:#2d2a2c;fill-opacity:1;fill-rule:nonzero;stroke:none"
             id="path390"
             inkscape:connector-curvature="0" /></g><g
           id="g392"
           transform="translate(316.2246,284.5376)"><path
             d="m 0,0 -0.588,-2.773 c 6.944,-0.007 13.869,-0.004 20.606,0.006 l 0.62,2.924 C 14.079,0.097 7.177,0.043 0,0"
             style="fill:#2d2a2c;fill-opacity:1;fill-rule:nonzero;stroke:none"
             id="path394"
             inkscape:connector-curvature="0" /></g><g
           id="g396"
           transform="translate(316.9814,288.1011)"><path
             d="M 0,0 -0.59,-2.779 C 6.361,-2.785 13.286,-2.78 20.017,-2.77 l 0.621,2.93 C 14.084,0.098 7.18,0.044 0,0"
             style="fill:#2d2a2c;fill-opacity:1;fill-rule:nonzero;stroke:none"
             id="path398"
             inkscape:connector-curvature="0" /></g><g
           id="g400"
           transform="translate(308.668,309.4097)"><path
             d="M 0,0 -0.575,-2.722 C 15.301,-2.756 31.4,-2.729 45.686,-2.68 l 0.649,3.071 C 32.826,0.228 17.078,0.08 0,0"
             style="fill:#2d2a2c;fill-opacity:1;fill-rule:nonzero;stroke:none"
             id="path402"
             inkscape:connector-curvature="0" /></g><g
           id="g404"
           transform="translate(351.3408,274.1694)"><path
             d="m 0,0 -0.645,-3.04 c 16.517,0.051 30.923,0.136 40.253,0.198 l 0.447,2.102 h -20.46 l 0.21,0.998 C 13.87,0.171 7.227,0.082 0,0"
             style="fill:#2d2a2c;fill-opacity:1;fill-rule:nonzero;stroke:none"
             id="path406"
             inkscape:connector-curvature="0" /></g><g
           id="g408"
           transform="translate(352.8525,281.3042)"><path
             d="M 0,0 -0.647,-3.053 C 6.43,-3.029 13.096,-3 19.112,-2.97 l 0.196,0.931 h 18.299 l 0.554,2.604 C 29.535,0.408 16.31,0.191 0,0"
             style="fill:#2d2a2c;fill-opacity:1;fill-rule:nonzero;stroke:none"
             id="path410"
             inkscape:connector-curvature="0" /></g><g
           id="g412"
           transform="translate(349.0723,263.4663)"><path
             d="m 0,0 -0.64,-3.021 c 16.158,0.047 30.467,0.127 40.242,0.191 l 0.725,3.409 C 31.006,0.413 17.035,0.189 0,0"
             style="fill:#2d2a2c;fill-opacity:1;fill-rule:nonzero;stroke:none"
             id="path414"
             inkscape:connector-curvature="0" /></g><g
           id="g416"
           transform="translate(348.3164,259.8999)"><path
             d="m 0,0 -0.003,-0.015 h 40.201 l 0.125,0.589 C 30.869,0.406 16.92,0.187 0,0"
             style="fill:#2d2a2c;fill-opacity:1;fill-rule:nonzero;stroke:none"
             id="path418"
             inkscape:connector-curvature="0" /></g><g
           id="g420"
           transform="translate(349.8281,267.0337)"><path
             d="m 0,0 -0.642,-3.026 c 16.27,0.047 30.61,0.129 40.246,0.192 l 0.727,3.419 C 31.153,0.419 17.159,0.193 0,0"
             style="fill:#2d2a2c;fill-opacity:1;fill-rule:nonzero;stroke:none"
             id="path422"
             inkscape:connector-curvature="0" /></g><g
           id="g424"
           transform="translate(355.877,295.5757)"><path
             d="m 0,0 -0.652,-3.078 c 16.044,0.057 29.719,0.141 38.092,0.2 l 0.024,0.111 H 19.165 l 0.671,3.04 C 13.999,0.184 7.336,0.089 0,0"
             style="fill:#2d2a2c;fill-opacity:1;fill-rule:nonzero;stroke:none"
             id="path426"
             inkscape:connector-curvature="0" /></g><g
           id="g428"
           transform="translate(358.998,310.3062)"><path
             d="m 0,0 c 18.366,0.071 33.148,0.176 39.606,0.225 l 0.285,1.371 H 0.338 Z"
             style="fill:#2d2a2c;fill-opacity:1;fill-rule:nonzero;stroke:none"
             id="path430"
             inkscape:connector-curvature="0" /></g><g
           id="g432"
           transform="translate(356.6328,299.1431)"><path
             d="m 0,0 -0.653,-3.085 c 7.175,0.026 13.864,0.058 19.799,0.09 l 0.488,2.209 h 19.812 l 0.292,1.407 C 32.374,0.478 18.341,0.226 0,0"
             style="fill:#2d2a2c;fill-opacity:1;fill-rule:nonzero;stroke:none"
             id="path434"
             inkscape:connector-curvature="0" /></g><g
           id="g436"
           transform="translate(357.3887,302.7124)"><path
             d="m 0,0 -0.655,-3.092 c 17.517,0.064 32.045,0.16 39.652,0.217 l 0.727,3.5 C 32.68,0.486 18.6,0.23 0,0"
             style="fill:#2d2a2c;fill-opacity:1;fill-rule:nonzero;stroke:none"
             id="path438"
             inkscape:connector-curvature="0" /></g><g
           id="g440"
           transform="translate(358.1455,306.2798)"><path
             d="m 0,0 -0.657,-3.098 c 17.763,0.067 32.361,0.165 39.637,0.219 l 0.728,3.511 C 33.031,0.499 18.9,0.237 0,0"
             style="fill:#2d2a2c;fill-opacity:1;fill-rule:nonzero;stroke:none"
             id="path442"
             inkscape:connector-curvature="0" /></g><g
           id="g444"
           transform="translate(358.9014,309.8491)"><path
             d="m 0,0 -0.658,-3.105 c 18.04,0.068 32.722,0.169 39.621,0.222 l 0.73,3.519 C 33.444,0.511 19.248,0.244 0,0"
             style="fill:#2d2a2c;fill-opacity:1;fill-rule:nonzero;stroke:none"
             id="path446"
             inkscape:connector-curvature="0" /></g><g
           id="g448"
           transform="translate(355.1211,292.0083)"><path
             d="m 0,0 -0.651,-3.072 c 15.891,0.054 29.526,0.137 38.089,0.197 l 0.735,3.454 C 30.056,0.428 16.756,0.202 0,0"
             style="fill:#2d2a2c;fill-opacity:1;fill-rule:nonzero;stroke:none"
             id="path450"
             inkscape:connector-curvature="0" /></g><g
           id="g452"
           transform="translate(353.6084,284.8726)"><path
             d="m 0,0 -0.647,-3.059 c 15.619,0.051 29.181,0.131 38.081,0.192 L 38.165,0.57 C 29.695,0.414 16.448,0.193 0,0"
             style="fill:#2d2a2c;fill-opacity:1;fill-rule:nonzero;stroke:none"
             id="path454"
             inkscape:connector-curvature="0" /></g><g
           id="g456"
           transform="translate(352.0967,277.7368)"><path
             d="m 0,0 -0.646,-3.047 c 7.065,0.023 13.732,0.051 19.767,0.081 l 0.676,3.227 C 13.881,0.174 7.238,0.084 0,0"
             style="fill:#2d2a2c;fill-opacity:1;fill-rule:nonzero;stroke:none"
             id="path458"
             inkscape:connector-curvature="0" /></g><g
           id="g460"
           transform="translate(350.5845,270.6021)"><path
             d="m 0,0 -0.643,-3.034 c 16.39,0.049 30.761,0.133 40.249,0.196 l 0.729,3.427 C 31.309,0.425 17.293,0.196 0,0"
             style="fill:#2d2a2c;fill-opacity:1;fill-rule:nonzero;stroke:none"
             id="path462"
             inkscape:connector-curvature="0" /></g><g
           id="g464"
           transform="translate(354.3643,288.4399)"><path
             d="m 0,0 -0.649,-3.065 c 15.751,0.052 29.347,0.134 38.086,0.194 l 0.732,3.445 C 29.869,0.421 16.596,0.198 0,0"
             style="fill:#2d2a2c;fill-opacity:1;fill-rule:nonzero;stroke:none"
             id="path466"
             inkscape:connector-curvature="0" /></g><g
           id="g468"
           transform="translate(337.7383,481.1538)"><path
             d="m 0,0 50.986,50.986 -13.325,13.325 -0.85,-1.62 C 25.588,41.202 13.318,23.263 0,0"
             style="fill:#2d2a2c;fill-opacity:1;fill-rule:nonzero;stroke:none"
             id="path470"
             inkscape:connector-curvature="0" /></g><g
           id="g472"
           transform="translate(331.1143,475.605)"><path
             d="m 0,0 c -14.534,26.034 -27.851,45.071 -39.95,68.24 -0.443,0.811 -0.664,1.328 -0.664,1.55 0,0.294 0.248,0.674 0.867,1.294 l 18.705,23.039 c 0.426,0.501 0.767,0.369 1.328,-0.885 2.432,-5.422 15.119,-36.68 21.456,-52.001 5.873,14.197 17.198,42.079 20.762,50.406 l -55.978,55.977 -47.239,-47.239 v -27.28 c 4.06,5.831 10.336,15.059 18.827,27.686 0.368,0.442 0.847,0.664 1.44,0.664 h 26.911 c 1.255,0 1.513,-0.443 0.775,-1.329 -5.094,-6.202 -13.29,-16.318 -24.586,-30.345 l 27.023,-41.861 c 0.664,-1.035 0.404,-1.551 -0.776,-1.551 h -29.126 c -0.592,0 -1.146,0.443 -1.661,1.329 -2.436,4.133 -6.312,11.296 -11.629,21.486 l -7.198,-8.198 V 27.361 c 0,-0.663 -0.37,-0.996 -1.107,-0.996 H -94.39 L -33.474,-34.55 0.43,-0.646 C 0.279,-0.465 0.136,-0.25 0,0"
             style="fill:#2d2a2c;fill-opacity:1;fill-rule:nonzero;stroke:none"
             id="path474"
             inkscape:connector-curvature="0" /></g><g
           id="g476"
           transform="translate(225.0408,550.6255)"><path
             d="M 0,0 -18.485,-18.485 0,-36.97 Z"
             style="fill:#2d2a2c;fill-opacity:1;fill-rule:nonzero;stroke:none"
             id="path478"
             inkscape:connector-curvature="0" /></g></g></g></g></svg>